<?xml version="1.0" encoding="utf-8" standalone="no"?>
<!DOCTYPE svg PUBLIC "-//W3C//DTD SVG 1.1//EN"
  "http://www.w3.org/Graphics/SVG/1.1/DTD/svg11.dtd">
<svg xmlns:xlink="http://www.w3.org/1999/xlink" width="504pt" height="306pt" viewBox="0 0 504 306" xmlns="http://www.w3.org/2000/svg" version="1.1">
 <metadata>
  <rdf:RDF xmlns:dc="http://purl.org/dc/elements/1.1/" xmlns:cc="http://creativecommons.org/ns#" xmlns:rdf="http://www.w3.org/1999/02/22-rdf-syntax-ns#">
   <cc:Work>
    <dc:type rdf:resource="http://purl.org/dc/dcmitype/StillImage"/>
    <dc:date>2024-06-16T21:01:57.524224</dc:date>
    <dc:format>image/svg+xml</dc:format>
    <dc:creator>
     <cc:Agent>
      <dc:title>Matplotlib v3.8.3, https://matplotlib.org/</dc:title>
     </cc:Agent>
    </dc:creator>
   </cc:Work>
  </rdf:RDF>
 </metadata>
 <defs>
  <style type="text/css">*{stroke-linejoin: round; stroke-linecap: butt}</style>
 </defs>
 <g id="figure_1">
  <g id="patch_1">
   <path d="M 0 306 
L 504 306 
L 504 0 
L 0 0 
z
" style="fill: #ffffff"/>
  </g>
  <g id="axes_1">
   <g id="patch_2">
    <path d="M 56.18 116.44 
L 493.2 116.44 
L 493.2 10.8 
L 56.18 10.8 
z
" style="fill: #ffffff"/>
   </g>
   <g id="matplotlib.axis_1">
    <g id="xtick_1">
     <g id="line2d_1">
      <defs>
       <path id="m029b059ef9" d="M 0 0 
L 0 3.5 
" style="stroke: #000000; stroke-width: 0.8"/>
      </defs>
      <g>
       <use xlink:href="#m029b059ef9" x="56.18" y="116.44" style="stroke: #000000; stroke-width: 0.8"/>
      </g>
     </g>
     <g id="text_1">
      <!-- 0 -->
      <g transform="translate(52.99875 131.038437) scale(0.1 -0.1)">
       <defs>
        <path id="DejaVuSans-30" d="M 2034 4250 
Q 1547 4250 1301 3770 
Q 1056 3291 1056 2328 
Q 1056 1369 1301 889 
Q 1547 409 2034 409 
Q 2525 409 2770 889 
Q 3016 1369 3016 2328 
Q 3016 3291 2770 3770 
Q 2525 4250 2034 4250 
z
M 2034 4750 
Q 2819 4750 3233 4129 
Q 3647 3509 3647 2328 
Q 3647 1150 3233 529 
Q 2819 -91 2034 -91 
Q 1250 -91 836 529 
Q 422 1150 422 2328 
Q 422 3509 836 4129 
Q 1250 4750 2034 4750 
z
" transform="scale(0.015625)"/>
       </defs>
       <use xlink:href="#DejaVuSans-30"/>
      </g>
     </g>
    </g>
    <g id="xtick_2">
     <g id="line2d_2">
      <g>
       <use xlink:href="#m029b059ef9" x="113.531706" y="116.44" style="stroke: #000000; stroke-width: 0.8"/>
      </g>
     </g>
     <g id="text_2">
      <!-- 1000 -->
      <g transform="translate(100.806706 131.038437) scale(0.1 -0.1)">
       <defs>
        <path id="DejaVuSans-31" d="M 794 531 
L 1825 531 
L 1825 4091 
L 703 3866 
L 703 4441 
L 1819 4666 
L 2450 4666 
L 2450 531 
L 3481 531 
L 3481 0 
L 794 0 
L 794 531 
z
" transform="scale(0.015625)"/>
       </defs>
       <use xlink:href="#DejaVuSans-31"/>
       <use xlink:href="#DejaVuSans-30" x="63.623047"/>
       <use xlink:href="#DejaVuSans-30" x="127.246094"/>
       <use xlink:href="#DejaVuSans-30" x="190.869141"/>
      </g>
     </g>
    </g>
    <g id="xtick_3">
     <g id="line2d_3">
      <g>
       <use xlink:href="#m029b059ef9" x="170.883412" y="116.44" style="stroke: #000000; stroke-width: 0.8"/>
      </g>
     </g>
     <g id="text_3">
      <!-- 2000 -->
      <g transform="translate(158.158412 131.038437) scale(0.1 -0.1)">
       <defs>
        <path id="DejaVuSans-32" d="M 1228 531 
L 3431 531 
L 3431 0 
L 469 0 
L 469 531 
Q 828 903 1448 1529 
Q 2069 2156 2228 2338 
Q 2531 2678 2651 2914 
Q 2772 3150 2772 3378 
Q 2772 3750 2511 3984 
Q 2250 4219 1831 4219 
Q 1534 4219 1204 4116 
Q 875 4013 500 3803 
L 500 4441 
Q 881 4594 1212 4672 
Q 1544 4750 1819 4750 
Q 2544 4750 2975 4387 
Q 3406 4025 3406 3419 
Q 3406 3131 3298 2873 
Q 3191 2616 2906 2266 
Q 2828 2175 2409 1742 
Q 1991 1309 1228 531 
z
" transform="scale(0.015625)"/>
       </defs>
       <use xlink:href="#DejaVuSans-32"/>
       <use xlink:href="#DejaVuSans-30" x="63.623047"/>
       <use xlink:href="#DejaVuSans-30" x="127.246094"/>
       <use xlink:href="#DejaVuSans-30" x="190.869141"/>
      </g>
     </g>
    </g>
    <g id="xtick_4">
     <g id="line2d_4">
      <g>
       <use xlink:href="#m029b059ef9" x="228.235118" y="116.44" style="stroke: #000000; stroke-width: 0.8"/>
      </g>
     </g>
     <g id="text_4">
      <!-- 3000 -->
      <g transform="translate(215.510118 131.038437) scale(0.1 -0.1)">
       <defs>
        <path id="DejaVuSans-33" d="M 2597 2516 
Q 3050 2419 3304 2112 
Q 3559 1806 3559 1356 
Q 3559 666 3084 287 
Q 2609 -91 1734 -91 
Q 1441 -91 1130 -33 
Q 819 25 488 141 
L 488 750 
Q 750 597 1062 519 
Q 1375 441 1716 441 
Q 2309 441 2620 675 
Q 2931 909 2931 1356 
Q 2931 1769 2642 2001 
Q 2353 2234 1838 2234 
L 1294 2234 
L 1294 2753 
L 1863 2753 
Q 2328 2753 2575 2939 
Q 2822 3125 2822 3475 
Q 2822 3834 2567 4026 
Q 2313 4219 1838 4219 
Q 1578 4219 1281 4162 
Q 984 4106 628 3988 
L 628 4550 
Q 988 4650 1302 4700 
Q 1616 4750 1894 4750 
Q 2613 4750 3031 4423 
Q 3450 4097 3450 3541 
Q 3450 3153 3228 2886 
Q 3006 2619 2597 2516 
z
" transform="scale(0.015625)"/>
       </defs>
       <use xlink:href="#DejaVuSans-33"/>
       <use xlink:href="#DejaVuSans-30" x="63.623047"/>
       <use xlink:href="#DejaVuSans-30" x="127.246094"/>
       <use xlink:href="#DejaVuSans-30" x="190.869141"/>
      </g>
     </g>
    </g>
    <g id="xtick_5">
     <g id="line2d_5">
      <g>
       <use xlink:href="#m029b059ef9" x="285.586824" y="116.44" style="stroke: #000000; stroke-width: 0.8"/>
      </g>
     </g>
     <g id="text_5">
      <!-- 4000 -->
      <g transform="translate(272.861824 131.038437) scale(0.1 -0.1)">
       <defs>
        <path id="DejaVuSans-34" d="M 2419 4116 
L 825 1625 
L 2419 1625 
L 2419 4116 
z
M 2253 4666 
L 3047 4666 
L 3047 1625 
L 3713 1625 
L 3713 1100 
L 3047 1100 
L 3047 0 
L 2419 0 
L 2419 1100 
L 313 1100 
L 313 1709 
L 2253 4666 
z
" transform="scale(0.015625)"/>
       </defs>
       <use xlink:href="#DejaVuSans-34"/>
       <use xlink:href="#DejaVuSans-30" x="63.623047"/>
       <use xlink:href="#DejaVuSans-30" x="127.246094"/>
       <use xlink:href="#DejaVuSans-30" x="190.869141"/>
      </g>
     </g>
    </g>
    <g id="xtick_6">
     <g id="line2d_6">
      <g>
       <use xlink:href="#m029b059ef9" x="342.93853" y="116.44" style="stroke: #000000; stroke-width: 0.8"/>
      </g>
     </g>
     <g id="text_6">
      <!-- 5000 -->
      <g transform="translate(330.21353 131.038437) scale(0.1 -0.1)">
       <defs>
        <path id="DejaVuSans-35" d="M 691 4666 
L 3169 4666 
L 3169 4134 
L 1269 4134 
L 1269 2991 
Q 1406 3038 1543 3061 
Q 1681 3084 1819 3084 
Q 2600 3084 3056 2656 
Q 3513 2228 3513 1497 
Q 3513 744 3044 326 
Q 2575 -91 1722 -91 
Q 1428 -91 1123 -41 
Q 819 9 494 109 
L 494 744 
Q 775 591 1075 516 
Q 1375 441 1709 441 
Q 2250 441 2565 725 
Q 2881 1009 2881 1497 
Q 2881 1984 2565 2268 
Q 2250 2553 1709 2553 
Q 1456 2553 1204 2497 
Q 953 2441 691 2322 
L 691 4666 
z
" transform="scale(0.015625)"/>
       </defs>
       <use xlink:href="#DejaVuSans-35"/>
       <use xlink:href="#DejaVuSans-30" x="63.623047"/>
       <use xlink:href="#DejaVuSans-30" x="127.246094"/>
       <use xlink:href="#DejaVuSans-30" x="190.869141"/>
      </g>
     </g>
    </g>
    <g id="xtick_7">
     <g id="line2d_7">
      <g>
       <use xlink:href="#m029b059ef9" x="400.290236" y="116.44" style="stroke: #000000; stroke-width: 0.8"/>
      </g>
     </g>
     <g id="text_7">
      <!-- 6000 -->
      <g transform="translate(387.565236 131.038437) scale(0.1 -0.1)">
       <defs>
        <path id="DejaVuSans-36" d="M 2113 2584 
Q 1688 2584 1439 2293 
Q 1191 2003 1191 1497 
Q 1191 994 1439 701 
Q 1688 409 2113 409 
Q 2538 409 2786 701 
Q 3034 994 3034 1497 
Q 3034 2003 2786 2293 
Q 2538 2584 2113 2584 
z
M 3366 4563 
L 3366 3988 
Q 3128 4100 2886 4159 
Q 2644 4219 2406 4219 
Q 1781 4219 1451 3797 
Q 1122 3375 1075 2522 
Q 1259 2794 1537 2939 
Q 1816 3084 2150 3084 
Q 2853 3084 3261 2657 
Q 3669 2231 3669 1497 
Q 3669 778 3244 343 
Q 2819 -91 2113 -91 
Q 1303 -91 875 529 
Q 447 1150 447 2328 
Q 447 3434 972 4092 
Q 1497 4750 2381 4750 
Q 2619 4750 2861 4703 
Q 3103 4656 3366 4563 
z
" transform="scale(0.015625)"/>
       </defs>
       <use xlink:href="#DejaVuSans-36"/>
       <use xlink:href="#DejaVuSans-30" x="63.623047"/>
       <use xlink:href="#DejaVuSans-30" x="127.246094"/>
       <use xlink:href="#DejaVuSans-30" x="190.869141"/>
      </g>
     </g>
    </g>
    <g id="xtick_8">
     <g id="line2d_8">
      <g>
       <use xlink:href="#m029b059ef9" x="457.641942" y="116.44" style="stroke: #000000; stroke-width: 0.8"/>
      </g>
     </g>
     <g id="text_8">
      <!-- 7000 -->
      <g transform="translate(444.916942 131.038437) scale(0.1 -0.1)">
       <defs>
        <path id="DejaVuSans-37" d="M 525 4666 
L 3525 4666 
L 3525 4397 
L 1831 0 
L 1172 0 
L 2766 4134 
L 525 4134 
L 525 4666 
z
" transform="scale(0.015625)"/>
       </defs>
       <use xlink:href="#DejaVuSans-37"/>
       <use xlink:href="#DejaVuSans-30" x="63.623047"/>
       <use xlink:href="#DejaVuSans-30" x="127.246094"/>
       <use xlink:href="#DejaVuSans-30" x="190.869141"/>
      </g>
     </g>
    </g>
    <g id="text_9">
     <!-- Time (ms) -->
     <g transform="translate(249.490781 144.716562) scale(0.1 -0.1)">
      <defs>
       <path id="DejaVuSans-54" d="M -19 4666 
L 3928 4666 
L 3928 4134 
L 2272 4134 
L 2272 0 
L 1638 0 
L 1638 4134 
L -19 4134 
L -19 4666 
z
" transform="scale(0.015625)"/>
       <path id="DejaVuSans-69" d="M 603 3500 
L 1178 3500 
L 1178 0 
L 603 0 
L 603 3500 
z
M 603 4863 
L 1178 4863 
L 1178 4134 
L 603 4134 
L 603 4863 
z
" transform="scale(0.015625)"/>
       <path id="DejaVuSans-6d" d="M 3328 2828 
Q 3544 3216 3844 3400 
Q 4144 3584 4550 3584 
Q 5097 3584 5394 3201 
Q 5691 2819 5691 2113 
L 5691 0 
L 5113 0 
L 5113 2094 
Q 5113 2597 4934 2840 
Q 4756 3084 4391 3084 
Q 3944 3084 3684 2787 
Q 3425 2491 3425 1978 
L 3425 0 
L 2847 0 
L 2847 2094 
Q 2847 2600 2669 2842 
Q 2491 3084 2119 3084 
Q 1678 3084 1418 2786 
Q 1159 2488 1159 1978 
L 1159 0 
L 581 0 
L 581 3500 
L 1159 3500 
L 1159 2956 
Q 1356 3278 1631 3431 
Q 1906 3584 2284 3584 
Q 2666 3584 2933 3390 
Q 3200 3197 3328 2828 
z
" transform="scale(0.015625)"/>
       <path id="DejaVuSans-65" d="M 3597 1894 
L 3597 1613 
L 953 1613 
Q 991 1019 1311 708 
Q 1631 397 2203 397 
Q 2534 397 2845 478 
Q 3156 559 3463 722 
L 3463 178 
Q 3153 47 2828 -22 
Q 2503 -91 2169 -91 
Q 1331 -91 842 396 
Q 353 884 353 1716 
Q 353 2575 817 3079 
Q 1281 3584 2069 3584 
Q 2775 3584 3186 3129 
Q 3597 2675 3597 1894 
z
M 3022 2063 
Q 3016 2534 2758 2815 
Q 2500 3097 2075 3097 
Q 1594 3097 1305 2825 
Q 1016 2553 972 2059 
L 3022 2063 
z
" transform="scale(0.015625)"/>
       <path id="DejaVuSans-20" transform="scale(0.015625)"/>
       <path id="DejaVuSans-28" d="M 1984 4856 
Q 1566 4138 1362 3434 
Q 1159 2731 1159 2009 
Q 1159 1288 1364 580 
Q 1569 -128 1984 -844 
L 1484 -844 
Q 1016 -109 783 600 
Q 550 1309 550 2009 
Q 550 2706 781 3412 
Q 1013 4119 1484 4856 
L 1984 4856 
z
" transform="scale(0.015625)"/>
       <path id="DejaVuSans-73" d="M 2834 3397 
L 2834 2853 
Q 2591 2978 2328 3040 
Q 2066 3103 1784 3103 
Q 1356 3103 1142 2972 
Q 928 2841 928 2578 
Q 928 2378 1081 2264 
Q 1234 2150 1697 2047 
L 1894 2003 
Q 2506 1872 2764 1633 
Q 3022 1394 3022 966 
Q 3022 478 2636 193 
Q 2250 -91 1575 -91 
Q 1294 -91 989 -36 
Q 684 19 347 128 
L 347 722 
Q 666 556 975 473 
Q 1284 391 1588 391 
Q 1994 391 2212 530 
Q 2431 669 2431 922 
Q 2431 1156 2273 1281 
Q 2116 1406 1581 1522 
L 1381 1569 
Q 847 1681 609 1914 
Q 372 2147 372 2553 
Q 372 3047 722 3315 
Q 1072 3584 1716 3584 
Q 2034 3584 2315 3537 
Q 2597 3491 2834 3397 
z
" transform="scale(0.015625)"/>
       <path id="DejaVuSans-29" d="M 513 4856 
L 1013 4856 
Q 1481 4119 1714 3412 
Q 1947 2706 1947 2009 
Q 1947 1309 1714 600 
Q 1481 -109 1013 -844 
L 513 -844 
Q 928 -128 1133 580 
Q 1338 1288 1338 2009 
Q 1338 2731 1133 3434 
Q 928 4138 513 4856 
z
" transform="scale(0.015625)"/>
      </defs>
      <use xlink:href="#DejaVuSans-54"/>
      <use xlink:href="#DejaVuSans-69" x="57.958984"/>
      <use xlink:href="#DejaVuSans-6d" x="85.742188"/>
      <use xlink:href="#DejaVuSans-65" x="183.154297"/>
      <use xlink:href="#DejaVuSans-20" x="244.677734"/>
      <use xlink:href="#DejaVuSans-28" x="276.464844"/>
      <use xlink:href="#DejaVuSans-6d" x="315.478516"/>
      <use xlink:href="#DejaVuSans-73" x="412.890625"/>
      <use xlink:href="#DejaVuSans-29" x="464.990234"/>
     </g>
    </g>
   </g>
   <g id="matplotlib.axis_2">
    <g id="ytick_1">
     <g id="line2d_9">
      <defs>
       <path id="mc6ea4732b3" d="M 0 0 
L -3.5 0 
" style="stroke: #000000; stroke-width: 0.8"/>
      </defs>
      <g>
       <use xlink:href="#mc6ea4732b3" x="56.18" y="111.638182" style="stroke: #000000; stroke-width: 0.8"/>
      </g>
     </g>
     <g id="text_10">
      <!-- −1.0 -->
      <g transform="translate(24.897188 115.437401) scale(0.1 -0.1)">
       <defs>
        <path id="DejaVuSans-2212" d="M 678 2272 
L 4684 2272 
L 4684 1741 
L 678 1741 
L 678 2272 
z
" transform="scale(0.015625)"/>
        <path id="DejaVuSans-2e" d="M 684 794 
L 1344 794 
L 1344 0 
L 684 0 
L 684 794 
z
" transform="scale(0.015625)"/>
       </defs>
       <use xlink:href="#DejaVuSans-2212"/>
       <use xlink:href="#DejaVuSans-31" x="83.789062"/>
       <use xlink:href="#DejaVuSans-2e" x="147.412109"/>
       <use xlink:href="#DejaVuSans-30" x="179.199219"/>
      </g>
     </g>
    </g>
    <g id="ytick_2">
     <g id="line2d_10">
      <g>
       <use xlink:href="#mc6ea4732b3" x="56.18" y="87.629091" style="stroke: #000000; stroke-width: 0.8"/>
      </g>
     </g>
     <g id="text_11">
      <!-- −0.5 -->
      <g transform="translate(24.897188 91.42831) scale(0.1 -0.1)">
       <use xlink:href="#DejaVuSans-2212"/>
       <use xlink:href="#DejaVuSans-30" x="83.789062"/>
       <use xlink:href="#DejaVuSans-2e" x="147.412109"/>
       <use xlink:href="#DejaVuSans-35" x="179.199219"/>
      </g>
     </g>
    </g>
    <g id="ytick_3">
     <g id="line2d_11">
      <g>
       <use xlink:href="#mc6ea4732b3" x="56.18" y="63.62" style="stroke: #000000; stroke-width: 0.8"/>
      </g>
     </g>
     <g id="text_12">
      <!-- 0.0 -->
      <g transform="translate(33.276875 67.419219) scale(0.1 -0.1)">
       <use xlink:href="#DejaVuSans-30"/>
       <use xlink:href="#DejaVuSans-2e" x="63.623047"/>
       <use xlink:href="#DejaVuSans-30" x="95.410156"/>
      </g>
     </g>
    </g>
    <g id="ytick_4">
     <g id="line2d_12">
      <g>
       <use xlink:href="#mc6ea4732b3" x="56.18" y="39.610909" style="stroke: #000000; stroke-width: 0.8"/>
      </g>
     </g>
     <g id="text_13">
      <!-- 0.5 -->
      <g transform="translate(33.276875 43.410128) scale(0.1 -0.1)">
       <use xlink:href="#DejaVuSans-30"/>
       <use xlink:href="#DejaVuSans-2e" x="63.623047"/>
       <use xlink:href="#DejaVuSans-35" x="95.410156"/>
      </g>
     </g>
    </g>
    <g id="ytick_5">
     <g id="line2d_13">
      <g>
       <use xlink:href="#mc6ea4732b3" x="56.18" y="15.601818" style="stroke: #000000; stroke-width: 0.8"/>
      </g>
     </g>
     <g id="text_14">
      <!-- 1.0 -->
      <g transform="translate(33.276875 19.401037) scale(0.1 -0.1)">
       <use xlink:href="#DejaVuSans-31"/>
       <use xlink:href="#DejaVuSans-2e" x="63.623047"/>
       <use xlink:href="#DejaVuSans-30" x="95.410156"/>
      </g>
     </g>
    </g>
    <g id="text_15">
     <!-- X-Axis Value -->
     <g transform="translate(18.8175 94.180156) rotate(-90) scale(0.1 -0.1)">
      <defs>
       <path id="DejaVuSans-58" d="M 403 4666 
L 1081 4666 
L 2241 2931 
L 3406 4666 
L 4084 4666 
L 2584 2425 
L 4184 0 
L 3506 0 
L 2194 1984 
L 872 0 
L 191 0 
L 1856 2491 
L 403 4666 
z
" transform="scale(0.015625)"/>
       <path id="DejaVuSans-2d" d="M 313 2009 
L 1997 2009 
L 1997 1497 
L 313 1497 
L 313 2009 
z
" transform="scale(0.015625)"/>
       <path id="DejaVuSans-41" d="M 2188 4044 
L 1331 1722 
L 3047 1722 
L 2188 4044 
z
M 1831 4666 
L 2547 4666 
L 4325 0 
L 3669 0 
L 3244 1197 
L 1141 1197 
L 716 0 
L 50 0 
L 1831 4666 
z
" transform="scale(0.015625)"/>
       <path id="DejaVuSans-78" d="M 3513 3500 
L 2247 1797 
L 3578 0 
L 2900 0 
L 1881 1375 
L 863 0 
L 184 0 
L 1544 1831 
L 300 3500 
L 978 3500 
L 1906 2253 
L 2834 3500 
L 3513 3500 
z
" transform="scale(0.015625)"/>
       <path id="DejaVuSans-56" d="M 1831 0 
L 50 4666 
L 709 4666 
L 2188 738 
L 3669 4666 
L 4325 4666 
L 2547 0 
L 1831 0 
z
" transform="scale(0.015625)"/>
       <path id="DejaVuSans-61" d="M 2194 1759 
Q 1497 1759 1228 1600 
Q 959 1441 959 1056 
Q 959 750 1161 570 
Q 1363 391 1709 391 
Q 2188 391 2477 730 
Q 2766 1069 2766 1631 
L 2766 1759 
L 2194 1759 
z
M 3341 1997 
L 3341 0 
L 2766 0 
L 2766 531 
Q 2569 213 2275 61 
Q 1981 -91 1556 -91 
Q 1019 -91 701 211 
Q 384 513 384 1019 
Q 384 1609 779 1909 
Q 1175 2209 1959 2209 
L 2766 2209 
L 2766 2266 
Q 2766 2663 2505 2880 
Q 2244 3097 1772 3097 
Q 1472 3097 1187 3025 
Q 903 2953 641 2809 
L 641 3341 
Q 956 3463 1253 3523 
Q 1550 3584 1831 3584 
Q 2591 3584 2966 3190 
Q 3341 2797 3341 1997 
z
" transform="scale(0.015625)"/>
       <path id="DejaVuSans-6c" d="M 603 4863 
L 1178 4863 
L 1178 0 
L 603 0 
L 603 4863 
z
" transform="scale(0.015625)"/>
       <path id="DejaVuSans-75" d="M 544 1381 
L 544 3500 
L 1119 3500 
L 1119 1403 
Q 1119 906 1312 657 
Q 1506 409 1894 409 
Q 2359 409 2629 706 
Q 2900 1003 2900 1516 
L 2900 3500 
L 3475 3500 
L 3475 0 
L 2900 0 
L 2900 538 
Q 2691 219 2414 64 
Q 2138 -91 1772 -91 
Q 1169 -91 856 284 
Q 544 659 544 1381 
z
M 1991 3584 
L 1991 3584 
z
" transform="scale(0.015625)"/>
      </defs>
      <use xlink:href="#DejaVuSans-58"/>
      <use xlink:href="#DejaVuSans-2d" x="63.505859"/>
      <use xlink:href="#DejaVuSans-41" x="97.339844"/>
      <use xlink:href="#DejaVuSans-78" x="165.748047"/>
      <use xlink:href="#DejaVuSans-69" x="224.927734"/>
      <use xlink:href="#DejaVuSans-73" x="252.710938"/>
      <use xlink:href="#DejaVuSans-20" x="304.810547"/>
      <use xlink:href="#DejaVuSans-56" x="336.597656"/>
      <use xlink:href="#DejaVuSans-61" x="397.255859"/>
      <use xlink:href="#DejaVuSans-6c" x="458.535156"/>
      <use xlink:href="#DejaVuSans-75" x="486.318359"/>
      <use xlink:href="#DejaVuSans-65" x="549.697266"/>
     </g>
    </g>
   </g>
   <g id="line2d_14">
    <path d="M 56.18 64.580364 
L 61.915171 64.580364 
L 62.488688 64.100182 
L 63.062205 64.580364 
L 65.356273 64.580364 
L 65.92979 64.100182 
L 89.44399 64.100182 
L 90.017507 63.62 
L 92.311575 63.62 
L 92.885092 63.139818 
L 95.17916 63.139818 
L 95.752677 62.659636 
L 96.899711 62.659636 
L 97.473228 62.179455 
L 98.620262 62.179455 
L 99.19378 61.699273 
L 99.767297 61.699273 
L 100.340814 61.219091 
L 101.487848 61.219091 
L 102.061365 60.738909 
L 104.355433 60.738909 
L 104.92895 60.258727 
L 105.502467 60.738909 
L 106.075984 60.258727 
L 106.649501 60.738909 
L 107.223018 60.258727 
L 113.531706 60.258727 
L 114.105223 59.778545 
L 124.42853 59.778545 
L 125.002047 60.258727 
L 125.575564 59.778545 
L 127.869633 59.778545 
L 128.44315 60.258727 
L 129.016667 60.258727 
L 129.590184 59.778545 
L 132.457769 59.778545 
L 133.031286 60.258727 
L 133.604803 59.778545 
L 134.751837 59.778545 
L 135.325354 60.258727 
L 138.19294 60.258727 
L 138.766457 59.778545 
L 140.487008 59.778545 
L 141.060525 59.298364 
L 142.207559 59.298364 
L 143.354593 58.338 
L 143.92811 58.338 
L 145.648661 56.897455 
L 146.795696 56.897455 
L 147.369213 56.417273 
L 148.516247 56.417273 
L 149.663281 55.456909 
L 150.236798 55.456909 
L 150.810315 54.976727 
L 151.383832 54.976727 
L 151.957349 54.016364 
L 152.530866 54.016364 
L 153.104383 53.056 
L 157.69252 49.214545 
L 158.266037 49.214545 
L 158.839554 48.734364 
L 159.413071 48.734364 
L 161.133622 47.293818 
L 161.707139 47.293818 
L 162.280656 46.813636 
L 162.854173 46.813636 
L 164.001207 45.853273 
L 164.574724 45.853273 
L 165.148241 45.373091 
L 166.868793 45.373091 
L 167.44231 44.892909 
L 168.015827 45.373091 
L 168.589344 44.892909 
L 170.883412 44.892909 
L 171.456929 44.412727 
L 175.471549 44.412727 
L 176.045066 43.932545 
L 177.1921 43.932545 
L 177.765617 43.452364 
L 180.633202 43.452364 
L 181.206719 42.972182 
L 184.647822 42.972182 
L 185.221339 42.492 
L 189.809475 42.492 
L 190.382992 42.011818 
L 194.971129 42.011818 
L 195.544646 41.531636 
L 196.118163 41.531636 
L 196.69168 42.011818 
L 197.265197 41.531636 
L 207.014987 41.531636 
L 207.588504 42.011818 
L 208.735538 42.011818 
L 209.309055 41.531636 
L 209.882572 42.011818 
L 215.044226 42.011818 
L 215.617743 42.492 
L 217.338294 42.492 
L 217.911811 42.972182 
L 218.485328 42.492 
L 219.058845 42.972182 
L 220.779396 42.972182 
L 221.352913 43.452364 
L 223.073465 43.452364 
L 223.646982 43.932545 
L 225.94105 43.932545 
L 226.514567 44.412727 
L 227.661601 44.412727 
L 228.235118 44.892909 
L 229.382152 44.892909 
L 229.955669 45.373091 
L 231.102703 45.373091 
L 232.249738 46.333455 
L 233.396772 46.333455 
L 233.970289 46.813636 
L 234.543806 46.813636 
L 235.117323 47.293818 
L 235.69084 47.293818 
L 236.264357 47.774 
L 237.411391 47.774 
L 237.984908 48.254182 
L 238.558425 48.254182 
L 239.131942 48.734364 
L 239.705459 48.734364 
L 240.278976 49.214545 
L 241.999528 49.214545 
L 242.573045 49.694727 
L 243.146562 49.694727 
L 243.720079 50.174909 
L 244.293596 50.174909 
L 245.44063 51.135273 
L 246.014147 51.135273 
L 246.587664 51.615455 
L 247.734698 51.615455 
L 248.308215 52.095636 
L 248.881732 52.095636 
L 249.455249 52.575818 
L 250.028766 52.575818 
L 251.175801 53.536182 
L 251.749318 53.536182 
L 254.043386 55.456909 
L 254.616903 56.417273 
L 255.763937 57.377636 
L 256.337454 58.338 
L 256.910971 58.338 
L 257.484488 59.298364 
L 258.058005 59.298364 
L 260.352073 61.219091 
L 260.925591 62.179455 
L 261.499108 62.659636 
L 262.072625 63.62 
L 264.366693 65.540727 
L 264.94021 65.540727 
L 265.513727 66.020909 
L 266.087244 66.020909 
L 266.660761 66.501091 
L 268.381312 66.501091 
L 268.954829 66.981273 
L 270.101864 66.981273 
L 270.675381 67.461455 
L 272.969449 67.461455 
L 273.542966 67.941636 
L 275.837034 67.941636 
L 276.984068 68.902 
L 277.557585 68.902 
L 278.131102 69.382182 
L 278.704619 69.382182 
L 279.851654 70.342545 
L 280.425171 70.342545 
L 282.145722 71.783091 
L 282.719239 71.783091 
L 283.866273 72.743455 
L 284.43979 72.743455 
L 285.586824 73.703818 
L 286.160341 73.703818 
L 286.733858 74.184 
L 287.307375 74.184 
L 287.880892 74.664182 
L 288.454409 74.664182 
L 289.027927 75.144364 
L 290.174961 75.144364 
L 290.748478 75.624545 
L 292.469029 75.624545 
L 293.042546 76.104727 
L 294.18958 76.104727 
L 294.763097 76.584909 
L 295.336614 76.584909 
L 295.910131 77.065091 
L 296.483648 77.065091 
L 297.057165 77.545273 
L 297.630682 77.545273 
L 298.777717 78.505636 
L 299.351234 78.505636 
L 300.498268 79.466 
L 301.071785 79.466 
L 301.645302 79.946182 
L 302.218819 79.946182 
L 302.792336 80.426364 
L 305.659921 80.426364 
L 306.233438 80.906545 
L 308.527507 80.906545 
L 309.101024 81.386727 
L 310.248058 81.386727 
L 310.821575 81.866909 
L 312.542126 81.866909 
L 313.115643 82.347091 
L 313.68916 82.347091 
L 314.262677 82.827273 
L 316.556745 82.827273 
L 317.130262 83.307455 
L 317.70378 82.827273 
L 318.277297 83.307455 
L 319.997848 83.307455 
L 320.571365 83.787636 
L 324.585984 83.787636 
L 325.159501 84.267818 
L 328.027087 84.267818 
L 328.600604 84.748 
L 342.365013 84.748 
L 342.93853 84.267818 
L 353.261837 84.267818 
L 353.835354 83.787636 
L 354.982388 83.787636 
L 355.555906 83.307455 
L 356.129423 83.307455 
L 356.70294 82.827273 
L 357.849974 82.827273 
L 358.423491 82.347091 
L 360.144042 82.347091 
L 360.717559 81.866909 
L 361.291076 82.347091 
L 361.864593 82.347091 
L 362.43811 81.866909 
L 364.732178 81.866909 
L 365.305696 81.386727 
L 365.879213 81.386727 
L 369.893832 78.025455 
L 370.467349 78.025455 
L 371.040866 77.545273 
L 371.614383 77.545273 
L 372.1879 77.065091 
L 372.761417 77.065091 
L 373.334934 76.584909 
L 373.908451 76.584909 
L 374.481969 76.104727 
L 375.055486 76.104727 
L 375.629003 75.624545 
L 376.20252 76.104727 
L 376.776037 75.624545 
L 377.349554 75.624545 
L 377.923071 75.144364 
L 378.496588 75.144364 
L 379.070105 74.664182 
L 380.217139 74.664182 
L 381.364173 73.703818 
L 381.93769 73.703818 
L 383.084724 72.743455 
L 383.658241 72.743455 
L 384.231759 72.263273 
L 384.805276 72.263273 
L 385.378793 71.783091 
L 385.95231 71.783091 
L 386.525827 71.302909 
L 387.099344 71.302909 
L 387.672861 70.822727 
L 388.246378 70.822727 
L 388.819895 70.342545 
L 389.393412 70.342545 
L 389.966929 69.862364 
L 390.540446 69.862364 
L 391.68748 68.902 
L 392.260997 68.902 
L 393.408031 67.941636 
L 393.981549 66.981273 
L 394.555066 66.981273 
L 396.849134 65.060545 
L 397.422651 64.100182 
L 397.996168 64.100182 
L 398.569685 63.139818 
L 399.143202 63.139818 
L 399.716719 62.659636 
L 406.025407 62.659636 
L 406.598924 62.179455 
L 407.172441 62.179455 
L 407.745958 62.659636 
L 408.319475 62.179455 
L 408.892992 62.659636 
L 409.466509 62.179455 
L 416.348714 62.179455 
L 416.922231 62.659636 
L 417.495748 62.179455 
L 418.069265 62.659636 
L 420.363333 62.659636 
L 420.93685 62.179455 
L 421.510367 62.659636 
L 422.083885 62.659636 
L 422.657402 62.179455 
L 427.245538 62.179455 
L 428.392572 63.139818 
L 434.70126 63.139818 
L 435.274777 63.62 
L 441.009948 63.62 
L 441.583465 64.100182 
L 443.304016 64.100182 
L 443.877533 64.580364 
L 444.45105 64.100182 
L 445.024567 64.580364 
L 445.598084 64.580364 
L 446.171601 64.100182 
L 447.892152 64.100182 
L 448.465669 64.580364 
L 450.759738 64.580364 
L 451.333255 64.100182 
L 451.906772 64.100182 
L 452.480289 64.580364 
L 453.053806 64.580364 
L 453.627323 64.100182 
L 454.774357 64.100182 
L 455.347874 64.580364 
L 455.921391 64.100182 
L 459.93601 64.100182 
L 460.509528 63.62 
L 461.083045 64.100182 
L 461.656562 63.62 
L 493.2 63.62 
L 493.2 63.62 
" clip-path="url(#p6af6395e9e)" style="fill: none; stroke: #1f77b4; stroke-width: 1.5; stroke-linecap: square"/>
   </g>
   <g id="line2d_15">
    <path d="M 56.18 63.62 
L 493.2 63.62 
" clip-path="url(#p6af6395e9e)" style="fill: none; stroke-dasharray: 2.96,1.28; stroke-dashoffset: 0; stroke: #808080; stroke-width: 0.8"/>
   </g>
   <g id="patch_3">
    <path d="M 56.18 116.44 
L 56.18 10.8 
" style="fill: none; stroke: #000000; stroke-width: 0.8; stroke-linejoin: miter; stroke-linecap: square"/>
   </g>
   <g id="patch_4">
    <path d="M 56.18 116.44 
L 493.2 116.44 
" style="fill: none; stroke: #000000; stroke-width: 0.8; stroke-linejoin: miter; stroke-linecap: square"/>
   </g>
  </g>
  <g id="axes_2">
   <g id="patch_5">
    <path d="M 56.18 264.04 
L 493.2 264.04 
L 493.2 158.4 
L 56.18 158.4 
z
" style="fill: #ffffff"/>
   </g>
   <g id="matplotlib.axis_3">
    <g id="xtick_9">
     <g id="line2d_16">
      <g>
       <use xlink:href="#m029b059ef9" x="56.18" y="264.04" style="stroke: #000000; stroke-width: 0.8"/>
      </g>
     </g>
     <g id="text_16">
      <!-- 0 -->
      <g transform="translate(52.99875 278.638438) scale(0.1 -0.1)">
       <use xlink:href="#DejaVuSans-30"/>
      </g>
     </g>
    </g>
    <g id="xtick_10">
     <g id="line2d_17">
      <g>
       <use xlink:href="#m029b059ef9" x="113.531706" y="264.04" style="stroke: #000000; stroke-width: 0.8"/>
      </g>
     </g>
     <g id="text_17">
      <!-- 1000 -->
      <g transform="translate(100.806706 278.638438) scale(0.1 -0.1)">
       <use xlink:href="#DejaVuSans-31"/>
       <use xlink:href="#DejaVuSans-30" x="63.623047"/>
       <use xlink:href="#DejaVuSans-30" x="127.246094"/>
       <use xlink:href="#DejaVuSans-30" x="190.869141"/>
      </g>
     </g>
    </g>
    <g id="xtick_11">
     <g id="line2d_18">
      <g>
       <use xlink:href="#m029b059ef9" x="170.883412" y="264.04" style="stroke: #000000; stroke-width: 0.8"/>
      </g>
     </g>
     <g id="text_18">
      <!-- 2000 -->
      <g transform="translate(158.158412 278.638438) scale(0.1 -0.1)">
       <use xlink:href="#DejaVuSans-32"/>
       <use xlink:href="#DejaVuSans-30" x="63.623047"/>
       <use xlink:href="#DejaVuSans-30" x="127.246094"/>
       <use xlink:href="#DejaVuSans-30" x="190.869141"/>
      </g>
     </g>
    </g>
    <g id="xtick_12">
     <g id="line2d_19">
      <g>
       <use xlink:href="#m029b059ef9" x="228.235118" y="264.04" style="stroke: #000000; stroke-width: 0.8"/>
      </g>
     </g>
     <g id="text_19">
      <!-- 3000 -->
      <g transform="translate(215.510118 278.638438) scale(0.1 -0.1)">
       <use xlink:href="#DejaVuSans-33"/>
       <use xlink:href="#DejaVuSans-30" x="63.623047"/>
       <use xlink:href="#DejaVuSans-30" x="127.246094"/>
       <use xlink:href="#DejaVuSans-30" x="190.869141"/>
      </g>
     </g>
    </g>
    <g id="xtick_13">
     <g id="line2d_20">
      <g>
       <use xlink:href="#m029b059ef9" x="285.586824" y="264.04" style="stroke: #000000; stroke-width: 0.8"/>
      </g>
     </g>
     <g id="text_20">
      <!-- 4000 -->
      <g transform="translate(272.861824 278.638438) scale(0.1 -0.1)">
       <use xlink:href="#DejaVuSans-34"/>
       <use xlink:href="#DejaVuSans-30" x="63.623047"/>
       <use xlink:href="#DejaVuSans-30" x="127.246094"/>
       <use xlink:href="#DejaVuSans-30" x="190.869141"/>
      </g>
     </g>
    </g>
    <g id="xtick_14">
     <g id="line2d_21">
      <g>
       <use xlink:href="#m029b059ef9" x="342.93853" y="264.04" style="stroke: #000000; stroke-width: 0.8"/>
      </g>
     </g>
     <g id="text_21">
      <!-- 5000 -->
      <g transform="translate(330.21353 278.638438) scale(0.1 -0.1)">
       <use xlink:href="#DejaVuSans-35"/>
       <use xlink:href="#DejaVuSans-30" x="63.623047"/>
       <use xlink:href="#DejaVuSans-30" x="127.246094"/>
       <use xlink:href="#DejaVuSans-30" x="190.869141"/>
      </g>
     </g>
    </g>
    <g id="xtick_15">
     <g id="line2d_22">
      <g>
       <use xlink:href="#m029b059ef9" x="400.290236" y="264.04" style="stroke: #000000; stroke-width: 0.8"/>
      </g>
     </g>
     <g id="text_22">
      <!-- 6000 -->
      <g transform="translate(387.565236 278.638438) scale(0.1 -0.1)">
       <use xlink:href="#DejaVuSans-36"/>
       <use xlink:href="#DejaVuSans-30" x="63.623047"/>
       <use xlink:href="#DejaVuSans-30" x="127.246094"/>
       <use xlink:href="#DejaVuSans-30" x="190.869141"/>
      </g>
     </g>
    </g>
    <g id="xtick_16">
     <g id="line2d_23">
      <g>
       <use xlink:href="#m029b059ef9" x="457.641942" y="264.04" style="stroke: #000000; stroke-width: 0.8"/>
      </g>
     </g>
     <g id="text_23">
      <!-- 7000 -->
      <g transform="translate(444.916942 278.638438) scale(0.1 -0.1)">
       <use xlink:href="#DejaVuSans-37"/>
       <use xlink:href="#DejaVuSans-30" x="63.623047"/>
       <use xlink:href="#DejaVuSans-30" x="127.246094"/>
       <use xlink:href="#DejaVuSans-30" x="190.869141"/>
      </g>
     </g>
    </g>
    <g id="text_24">
     <!-- Time (ms) -->
     <g transform="translate(249.490781 292.316563) scale(0.1 -0.1)">
      <use xlink:href="#DejaVuSans-54"/>
      <use xlink:href="#DejaVuSans-69" x="57.958984"/>
      <use xlink:href="#DejaVuSans-6d" x="85.742188"/>
      <use xlink:href="#DejaVuSans-65" x="183.154297"/>
      <use xlink:href="#DejaVuSans-20" x="244.677734"/>
      <use xlink:href="#DejaVuSans-28" x="276.464844"/>
      <use xlink:href="#DejaVuSans-6d" x="315.478516"/>
      <use xlink:href="#DejaVuSans-73" x="412.890625"/>
      <use xlink:href="#DejaVuSans-29" x="464.990234"/>
     </g>
    </g>
   </g>
   <g id="matplotlib.axis_4">
    <g id="ytick_6">
     <g id="line2d_24">
      <g>
       <use xlink:href="#mc6ea4732b3" x="56.18" y="259.238182" style="stroke: #000000; stroke-width: 0.8"/>
      </g>
     </g>
     <g id="text_25">
      <!-- −1.0 -->
      <g transform="translate(24.897188 263.037401) scale(0.1 -0.1)">
       <use xlink:href="#DejaVuSans-2212"/>
       <use xlink:href="#DejaVuSans-31" x="83.789062"/>
       <use xlink:href="#DejaVuSans-2e" x="147.412109"/>
       <use xlink:href="#DejaVuSans-30" x="179.199219"/>
      </g>
     </g>
    </g>
    <g id="ytick_7">
     <g id="line2d_25">
      <g>
       <use xlink:href="#mc6ea4732b3" x="56.18" y="235.229091" style="stroke: #000000; stroke-width: 0.8"/>
      </g>
     </g>
     <g id="text_26">
      <!-- −0.5 -->
      <g transform="translate(24.897188 239.02831) scale(0.1 -0.1)">
       <use xlink:href="#DejaVuSans-2212"/>
       <use xlink:href="#DejaVuSans-30" x="83.789062"/>
       <use xlink:href="#DejaVuSans-2e" x="147.412109"/>
       <use xlink:href="#DejaVuSans-35" x="179.199219"/>
      </g>
     </g>
    </g>
    <g id="ytick_8">
     <g id="line2d_26">
      <g>
       <use xlink:href="#mc6ea4732b3" x="56.18" y="211.22" style="stroke: #000000; stroke-width: 0.8"/>
      </g>
     </g>
     <g id="text_27">
      <!-- 0.0 -->
      <g transform="translate(33.276875 215.019219) scale(0.1 -0.1)">
       <use xlink:href="#DejaVuSans-30"/>
       <use xlink:href="#DejaVuSans-2e" x="63.623047"/>
       <use xlink:href="#DejaVuSans-30" x="95.410156"/>
      </g>
     </g>
    </g>
    <g id="ytick_9">
     <g id="line2d_27">
      <g>
       <use xlink:href="#mc6ea4732b3" x="56.18" y="187.210909" style="stroke: #000000; stroke-width: 0.8"/>
      </g>
     </g>
     <g id="text_28">
      <!-- 0.5 -->
      <g transform="translate(33.276875 191.010128) scale(0.1 -0.1)">
       <use xlink:href="#DejaVuSans-30"/>
       <use xlink:href="#DejaVuSans-2e" x="63.623047"/>
       <use xlink:href="#DejaVuSans-35" x="95.410156"/>
      </g>
     </g>
    </g>
    <g id="ytick_10">
     <g id="line2d_28">
      <g>
       <use xlink:href="#mc6ea4732b3" x="56.18" y="163.201818" style="stroke: #000000; stroke-width: 0.8"/>
      </g>
     </g>
     <g id="text_29">
      <!-- 1.0 -->
      <g transform="translate(33.276875 167.001037) scale(0.1 -0.1)">
       <use xlink:href="#DejaVuSans-31"/>
       <use xlink:href="#DejaVuSans-2e" x="63.623047"/>
       <use xlink:href="#DejaVuSans-30" x="95.410156"/>
      </g>
     </g>
    </g>
    <g id="text_30">
     <!-- Y-Axis Value -->
     <g transform="translate(18.8175 241.065313) rotate(-90) scale(0.1 -0.1)">
      <defs>
       <path id="DejaVuSans-59" d="M -13 4666 
L 666 4666 
L 1959 2747 
L 3244 4666 
L 3922 4666 
L 2272 2222 
L 2272 0 
L 1638 0 
L 1638 2222 
L -13 4666 
z
" transform="scale(0.015625)"/>
      </defs>
      <use xlink:href="#DejaVuSans-59"/>
      <use xlink:href="#DejaVuSans-2d" x="49.208984"/>
      <use xlink:href="#DejaVuSans-41" x="83.042969"/>
      <use xlink:href="#DejaVuSans-78" x="151.451172"/>
      <use xlink:href="#DejaVuSans-69" x="210.630859"/>
      <use xlink:href="#DejaVuSans-73" x="238.414062"/>
      <use xlink:href="#DejaVuSans-20" x="290.513672"/>
      <use xlink:href="#DejaVuSans-56" x="322.300781"/>
      <use xlink:href="#DejaVuSans-61" x="382.958984"/>
      <use xlink:href="#DejaVuSans-6c" x="444.238281"/>
      <use xlink:href="#DejaVuSans-75" x="472.021484"/>
      <use xlink:href="#DejaVuSans-65" x="535.400391"/>
     </g>
    </g>
   </g>
   <g id="line2d_29">
    <path d="M 56.18 206.898364 
L 57.327034 206.898364 
L 57.900551 206.418182 
L 58.474068 206.898364 
L 59.047585 206.898364 
L 59.621102 206.418182 
L 60.194619 206.898364 
L 60.768136 206.418182 
L 63.635722 206.418182 
L 64.209239 206.898364 
L 82.561785 206.898364 
L 83.135302 206.418182 
L 83.708819 206.418182 
L 84.855853 205.457818 
L 85.42937 205.457818 
L 87.149921 204.017273 
L 88.296955 204.017273 
L 88.870472 203.537091 
L 90.017507 203.537091 
L 91.164541 202.576727 
L 91.738058 202.576727 
L 92.885092 201.616364 
L 93.458609 200.656 
L 94.605643 199.695636 
L 95.17916 198.735273 
L 95.752677 198.255091 
L 96.326194 197.294727 
L 98.046745 195.854182 
L 100.340814 192.012727 
L 100.914331 190.572182 
L 101.487848 190.092 
L 102.061365 188.651455 
L 103.208399 187.691091 
L 103.781916 186.730727 
L 104.92895 185.770364 
L 106.649501 185.770364 
L 107.223018 186.250545 
L 111.811155 186.250545 
L 112.384672 186.730727 
L 112.958189 186.250545 
L 114.105223 186.250545 
L 114.67874 185.770364 
L 125.002047 185.770364 
L 125.575564 185.290182 
L 126.149081 185.770364 
L 126.722598 185.290182 
L 128.44315 185.290182 
L 129.016667 184.81 
L 131.310735 184.81 
L 131.884252 184.329818 
L 132.457769 184.81 
L 133.031286 184.329818 
L 149.663281 184.329818 
L 150.236798 184.81 
L 153.104383 184.81 
L 153.6779 185.290182 
L 154.824934 185.290182 
L 155.398451 185.770364 
L 156.545486 185.770364 
L 157.119003 186.250545 
L 158.266037 186.250545 
L 158.839554 186.730727 
L 160.560105 186.730727 
L 161.133622 187.210909 
L 162.280656 187.210909 
L 162.854173 187.691091 
L 164.001207 187.691091 
L 164.574724 188.171273 
L 166.295276 188.171273 
L 166.868793 188.651455 
L 170.309895 188.651455 
L 170.883412 189.131636 
L 173.17748 189.131636 
L 173.750997 189.611818 
L 174.324514 189.611818 
L 174.898031 190.092 
L 176.045066 190.092 
L 176.618583 190.572182 
L 177.1921 190.572182 
L 178.912651 192.012727 
L 180.059685 192.012727 
L 180.633202 192.492909 
L 181.206719 192.492909 
L 181.780236 192.973091 
L 182.353753 192.973091 
L 182.92727 193.453273 
L 183.500787 193.453273 
L 184.074304 193.933455 
L 184.647822 193.933455 
L 185.221339 194.413636 
L 185.794856 194.413636 
L 186.94189 195.374 
L 187.515407 195.374 
L 188.088924 195.854182 
L 188.662441 195.854182 
L 189.235958 196.334364 
L 190.382992 196.334364 
L 191.530026 197.294727 
L 192.103543 197.294727 
L 194.971129 199.695636 
L 195.544646 199.695636 
L 198.985748 202.576727 
L 199.559265 202.576727 
L 201.853333 204.497455 
L 202.42685 204.497455 
L 203.000367 204.977636 
L 203.573885 204.977636 
L 204.147402 205.457818 
L 204.720919 205.457818 
L 205.867953 206.418182 
L 206.44147 206.418182 
L 207.014987 206.898364 
L 208.162021 206.898364 
L 208.735538 207.378545 
L 209.309055 207.378545 
L 209.882572 207.858727 
L 210.456089 207.858727 
L 211.029606 208.338909 
L 211.603123 208.338909 
L 212.17664 208.819091 
L 212.750157 208.819091 
L 214.470709 210.259636 
L 215.044226 210.259636 
L 215.617743 210.739818 
L 216.764777 210.739818 
L 217.338294 211.22 
L 218.485328 211.22 
L 219.058845 211.700182 
L 219.632362 211.700182 
L 220.779396 212.660545 
L 221.92643 212.660545 
L 223.073465 213.620909 
L 223.646982 213.620909 
L 224.220499 214.101091 
L 224.794016 214.101091 
L 225.94105 215.061455 
L 226.514567 215.061455 
L 227.088084 215.541636 
L 227.661601 215.541636 
L 229.382152 216.982182 
L 229.955669 216.982182 
L 233.396772 219.863273 
L 233.970289 219.863273 
L 236.264357 221.784 
L 236.837874 221.784 
L 237.984908 222.744364 
L 238.558425 222.744364 
L 239.131942 223.224545 
L 240.278976 223.224545 
L 240.852493 223.704727 
L 243.720079 223.704727 
L 244.293596 224.184909 
L 244.867113 224.184909 
L 245.44063 224.665091 
L 246.014147 224.184909 
L 246.587664 224.665091 
L 250.028766 224.665091 
L 250.602283 225.145273 
L 252.322835 225.145273 
L 252.896352 225.625455 
L 253.469869 225.625455 
L 254.043386 226.105636 
L 255.19042 226.105636 
L 255.763937 226.585818 
L 258.058005 226.585818 
L 258.631522 227.066 
L 260.925591 227.066 
L 261.499108 227.546182 
L 272.969449 227.546182 
L 273.542966 228.026364 
L 274.116483 227.546182 
L 274.69 227.546182 
L 275.263517 228.026364 
L 275.837034 228.026364 
L 276.410551 227.546182 
L 276.984068 228.026364 
L 277.557585 227.546182 
L 278.131102 228.026364 
L 278.704619 227.546182 
L 283.866273 227.546182 
L 284.43979 227.066 
L 290.174961 227.066 
L 290.748478 226.585818 
L 291.321995 227.066 
L 292.469029 227.066 
L 293.042546 226.585818 
L 296.483648 226.585818 
L 297.057165 226.105636 
L 298.777717 226.105636 
L 299.351234 225.625455 
L 301.071785 225.625455 
L 301.645302 225.145273 
L 302.792336 225.145273 
L 303.365853 224.665091 
L 305.659921 224.665091 
L 306.233438 224.184909 
L 307.380472 224.184909 
L 307.95399 223.704727 
L 308.527507 223.704727 
L 309.101024 223.224545 
L 309.674541 223.224545 
L 311.395092 221.784 
L 311.968609 221.784 
L 313.115643 220.823636 
L 313.68916 220.823636 
L 314.262677 220.343455 
L 314.836194 220.343455 
L 315.409711 219.863273 
L 316.556745 219.863273 
L 317.70378 218.902909 
L 318.277297 218.902909 
L 320.571365 216.982182 
L 321.144882 216.982182 
L 322.291916 216.021818 
L 323.43895 216.021818 
L 324.012467 215.541636 
L 324.585984 215.541636 
L 325.159501 215.061455 
L 325.733018 215.061455 
L 326.306535 214.581273 
L 326.880052 213.620909 
L 327.45357 213.620909 
L 329.747638 211.700182 
L 330.321155 211.700182 
L 331.468189 210.739818 
L 332.615223 210.739818 
L 333.18874 210.259636 
L 334.909291 210.259636 
L 335.482808 209.779455 
L 336.629843 209.779455 
L 337.20336 209.299273 
L 337.776877 209.299273 
L 338.350394 208.819091 
L 338.923911 208.819091 
L 341.791496 206.418182 
L 342.365013 205.457818 
L 342.93853 205.457818 
L 343.512047 204.497455 
L 346.95315 204.497455 
L 347.526667 204.017273 
L 348.100184 204.017273 
L 349.247218 203.056909 
L 349.820735 203.056909 
L 350.394252 202.576727 
L 350.967769 202.576727 
L 353.261837 200.656 
L 353.835354 200.656 
L 356.129423 198.735273 
L 356.70294 197.774909 
L 359.570525 195.374 
L 360.144042 195.374 
L 360.717559 194.893818 
L 361.864593 194.893818 
L 363.011627 193.933455 
L 363.585144 193.933455 
L 364.158661 193.453273 
L 364.732178 193.453273 
L 365.879213 192.492909 
L 366.45273 191.532545 
L 367.026247 191.052364 
L 367.599764 190.092 
L 369.320315 188.651455 
L 369.893832 188.651455 
L 370.467349 188.171273 
L 372.1879 188.171273 
L 372.761417 187.691091 
L 375.055486 187.691091 
L 375.629003 187.210909 
L 380.790656 187.210909 
L 381.364173 186.730727 
L 384.231759 186.730727 
L 384.805276 186.250545 
L 385.378793 186.730727 
L 385.95231 186.250545 
L 388.819895 186.250545 
L 389.393412 185.770364 
L 393.408031 185.770364 
L 393.981549 185.290182 
L 394.555066 185.770364 
L 395.128583 185.290182 
L 398.569685 185.290182 
L 399.143202 184.81 
L 411.760577 184.81 
L 412.334094 184.329818 
L 412.907612 184.81 
L 413.481129 184.329818 
L 415.775197 184.329818 
L 416.348714 183.849636 
L 416.922231 184.329818 
L 417.495748 183.849636 
L 420.93685 183.849636 
L 424.377953 186.730727 
L 425.524987 188.651455 
L 426.098504 189.131636 
L 428.966089 193.933455 
L 429.539606 194.413636 
L 430.113123 195.374 
L 430.68664 195.854182 
L 431.260157 196.814545 
L 431.833675 197.294727 
L 432.407192 198.255091 
L 432.980709 198.735273 
L 434.70126 201.616364 
L 435.274777 202.096545 
L 435.848294 203.056909 
L 436.421811 203.537091 
L 436.995328 204.497455 
L 437.568845 204.497455 
L 438.715879 205.457818 
L 439.862913 205.457818 
L 440.43643 205.938 
L 454.20084 205.938 
L 454.774357 206.418182 
L 455.347874 206.418182 
L 455.921391 205.938 
L 456.494908 206.418182 
L 459.93601 206.418182 
L 460.509528 206.898364 
L 479.435591 206.898364 
L 480.009108 206.418182 
L 480.582625 206.898364 
L 493.2 206.898364 
L 493.2 206.898364 
" clip-path="url(#p58a40be8cd)" style="fill: none; stroke: #1f77b4; stroke-width: 1.5; stroke-linecap: square"/>
   </g>
   <g id="line2d_30">
    <path d="M 56.18 211.22 
L 493.2 211.22 
" clip-path="url(#p58a40be8cd)" style="fill: none; stroke-dasharray: 2.96,1.28; stroke-dashoffset: 0; stroke: #808080; stroke-width: 0.8"/>
   </g>
   <g id="patch_6">
    <path d="M 56.18 264.04 
L 56.18 158.4 
" style="fill: none; stroke: #000000; stroke-width: 0.8; stroke-linejoin: miter; stroke-linecap: square"/>
   </g>
   <g id="patch_7">
    <path d="M 56.18 264.04 
L 493.2 264.04 
" style="fill: none; stroke: #000000; stroke-width: 0.8; stroke-linejoin: miter; stroke-linecap: square"/>
   </g>
  </g>
 </g>
 <defs>
  <clipPath id="p6af6395e9e">
   <rect x="56.18" y="10.8" width="437.02" height="105.64"/>
  </clipPath>
  <clipPath id="p58a40be8cd">
   <rect x="56.18" y="158.4" width="437.02" height="105.64"/>
  </clipPath>
 </defs>
</svg>
