<?xml version="1.0" encoding="utf-8" standalone="no"?>
<!DOCTYPE svg PUBLIC "-//W3C//DTD SVG 1.1//EN"
  "http://www.w3.org/Graphics/SVG/1.1/DTD/svg11.dtd">
<svg xmlns:xlink="http://www.w3.org/1999/xlink" width="504pt" height="306pt" viewBox="0 0 504 306" xmlns="http://www.w3.org/2000/svg" version="1.1">
 <metadata>
  <rdf:RDF xmlns:dc="http://purl.org/dc/elements/1.1/" xmlns:cc="http://creativecommons.org/ns#" xmlns:rdf="http://www.w3.org/1999/02/22-rdf-syntax-ns#">
   <cc:Work>
    <dc:type rdf:resource="http://purl.org/dc/dcmitype/StillImage"/>
    <dc:date>2024-06-16T21:02:17.528706</dc:date>
    <dc:format>image/svg+xml</dc:format>
    <dc:creator>
     <cc:Agent>
      <dc:title>Matplotlib v3.8.3, https://matplotlib.org/</dc:title>
     </cc:Agent>
    </dc:creator>
   </cc:Work>
  </rdf:RDF>
 </metadata>
 <defs>
  <style type="text/css">*{stroke-linejoin: round; stroke-linecap: butt}</style>
 </defs>
 <g id="figure_1">
  <g id="patch_1">
   <path d="M 0 306 
L 504 306 
L 504 0 
L 0 0 
z
" style="fill: #ffffff"/>
  </g>
  <g id="axes_1">
   <g id="patch_2">
    <path d="M 56.18 116.44 
L 493.2 116.44 
L 493.2 10.8 
L 56.18 10.8 
z
" style="fill: #ffffff"/>
   </g>
   <g id="matplotlib.axis_1">
    <g id="xtick_1">
     <g id="line2d_1">
      <defs>
       <path id="ma5b09ebe66" d="M 0 0 
L 0 3.5 
" style="stroke: #000000; stroke-width: 0.8"/>
      </defs>
      <g>
       <use xlink:href="#ma5b09ebe66" x="56.18" y="116.44" style="stroke: #000000; stroke-width: 0.8"/>
      </g>
     </g>
     <g id="text_1">
      <!-- 0 -->
      <g transform="translate(52.99875 131.038437) scale(0.1 -0.1)">
       <defs>
        <path id="DejaVuSans-30" d="M 2034 4250 
Q 1547 4250 1301 3770 
Q 1056 3291 1056 2328 
Q 1056 1369 1301 889 
Q 1547 409 2034 409 
Q 2525 409 2770 889 
Q 3016 1369 3016 2328 
Q 3016 3291 2770 3770 
Q 2525 4250 2034 4250 
z
M 2034 4750 
Q 2819 4750 3233 4129 
Q 3647 3509 3647 2328 
Q 3647 1150 3233 529 
Q 2819 -91 2034 -91 
Q 1250 -91 836 529 
Q 422 1150 422 2328 
Q 422 3509 836 4129 
Q 1250 4750 2034 4750 
z
" transform="scale(0.015625)"/>
       </defs>
       <use xlink:href="#DejaVuSans-30"/>
      </g>
     </g>
    </g>
    <g id="xtick_2">
     <g id="line2d_2">
      <g>
       <use xlink:href="#ma5b09ebe66" x="145.623307" y="116.44" style="stroke: #000000; stroke-width: 0.8"/>
      </g>
     </g>
     <g id="text_2">
      <!-- 5000 -->
      <g transform="translate(132.898307 131.038437) scale(0.1 -0.1)">
       <defs>
        <path id="DejaVuSans-35" d="M 691 4666 
L 3169 4666 
L 3169 4134 
L 1269 4134 
L 1269 2991 
Q 1406 3038 1543 3061 
Q 1681 3084 1819 3084 
Q 2600 3084 3056 2656 
Q 3513 2228 3513 1497 
Q 3513 744 3044 326 
Q 2575 -91 1722 -91 
Q 1428 -91 1123 -41 
Q 819 9 494 109 
L 494 744 
Q 775 591 1075 516 
Q 1375 441 1709 441 
Q 2250 441 2565 725 
Q 2881 1009 2881 1497 
Q 2881 1984 2565 2268 
Q 2250 2553 1709 2553 
Q 1456 2553 1204 2497 
Q 953 2441 691 2322 
L 691 4666 
z
" transform="scale(0.015625)"/>
       </defs>
       <use xlink:href="#DejaVuSans-35"/>
       <use xlink:href="#DejaVuSans-30" x="63.623047"/>
       <use xlink:href="#DejaVuSans-30" x="127.246094"/>
       <use xlink:href="#DejaVuSans-30" x="190.869141"/>
      </g>
     </g>
    </g>
    <g id="xtick_3">
     <g id="line2d_3">
      <g>
       <use xlink:href="#ma5b09ebe66" x="235.066615" y="116.44" style="stroke: #000000; stroke-width: 0.8"/>
      </g>
     </g>
     <g id="text_3">
      <!-- 10000 -->
      <g transform="translate(219.160365 131.038437) scale(0.1 -0.1)">
       <defs>
        <path id="DejaVuSans-31" d="M 794 531 
L 1825 531 
L 1825 4091 
L 703 3866 
L 703 4441 
L 1819 4666 
L 2450 4666 
L 2450 531 
L 3481 531 
L 3481 0 
L 794 0 
L 794 531 
z
" transform="scale(0.015625)"/>
       </defs>
       <use xlink:href="#DejaVuSans-31"/>
       <use xlink:href="#DejaVuSans-30" x="63.623047"/>
       <use xlink:href="#DejaVuSans-30" x="127.246094"/>
       <use xlink:href="#DejaVuSans-30" x="190.869141"/>
       <use xlink:href="#DejaVuSans-30" x="254.492188"/>
      </g>
     </g>
    </g>
    <g id="xtick_4">
     <g id="line2d_4">
      <g>
       <use xlink:href="#ma5b09ebe66" x="324.509922" y="116.44" style="stroke: #000000; stroke-width: 0.8"/>
      </g>
     </g>
     <g id="text_4">
      <!-- 15000 -->
      <g transform="translate(308.603672 131.038437) scale(0.1 -0.1)">
       <use xlink:href="#DejaVuSans-31"/>
       <use xlink:href="#DejaVuSans-35" x="63.623047"/>
       <use xlink:href="#DejaVuSans-30" x="127.246094"/>
       <use xlink:href="#DejaVuSans-30" x="190.869141"/>
       <use xlink:href="#DejaVuSans-30" x="254.492188"/>
      </g>
     </g>
    </g>
    <g id="xtick_5">
     <g id="line2d_5">
      <g>
       <use xlink:href="#ma5b09ebe66" x="413.95323" y="116.44" style="stroke: #000000; stroke-width: 0.8"/>
      </g>
     </g>
     <g id="text_5">
      <!-- 20000 -->
      <g transform="translate(398.04698 131.038437) scale(0.1 -0.1)">
       <defs>
        <path id="DejaVuSans-32" d="M 1228 531 
L 3431 531 
L 3431 0 
L 469 0 
L 469 531 
Q 828 903 1448 1529 
Q 2069 2156 2228 2338 
Q 2531 2678 2651 2914 
Q 2772 3150 2772 3378 
Q 2772 3750 2511 3984 
Q 2250 4219 1831 4219 
Q 1534 4219 1204 4116 
Q 875 4013 500 3803 
L 500 4441 
Q 881 4594 1212 4672 
Q 1544 4750 1819 4750 
Q 2544 4750 2975 4387 
Q 3406 4025 3406 3419 
Q 3406 3131 3298 2873 
Q 3191 2616 2906 2266 
Q 2828 2175 2409 1742 
Q 1991 1309 1228 531 
z
" transform="scale(0.015625)"/>
       </defs>
       <use xlink:href="#DejaVuSans-32"/>
       <use xlink:href="#DejaVuSans-30" x="63.623047"/>
       <use xlink:href="#DejaVuSans-30" x="127.246094"/>
       <use xlink:href="#DejaVuSans-30" x="190.869141"/>
       <use xlink:href="#DejaVuSans-30" x="254.492188"/>
      </g>
     </g>
    </g>
    <g id="text_6">
     <!-- Time (ms) -->
     <g transform="translate(249.490781 144.716562) scale(0.1 -0.1)">
      <defs>
       <path id="DejaVuSans-54" d="M -19 4666 
L 3928 4666 
L 3928 4134 
L 2272 4134 
L 2272 0 
L 1638 0 
L 1638 4134 
L -19 4134 
L -19 4666 
z
" transform="scale(0.015625)"/>
       <path id="DejaVuSans-69" d="M 603 3500 
L 1178 3500 
L 1178 0 
L 603 0 
L 603 3500 
z
M 603 4863 
L 1178 4863 
L 1178 4134 
L 603 4134 
L 603 4863 
z
" transform="scale(0.015625)"/>
       <path id="DejaVuSans-6d" d="M 3328 2828 
Q 3544 3216 3844 3400 
Q 4144 3584 4550 3584 
Q 5097 3584 5394 3201 
Q 5691 2819 5691 2113 
L 5691 0 
L 5113 0 
L 5113 2094 
Q 5113 2597 4934 2840 
Q 4756 3084 4391 3084 
Q 3944 3084 3684 2787 
Q 3425 2491 3425 1978 
L 3425 0 
L 2847 0 
L 2847 2094 
Q 2847 2600 2669 2842 
Q 2491 3084 2119 3084 
Q 1678 3084 1418 2786 
Q 1159 2488 1159 1978 
L 1159 0 
L 581 0 
L 581 3500 
L 1159 3500 
L 1159 2956 
Q 1356 3278 1631 3431 
Q 1906 3584 2284 3584 
Q 2666 3584 2933 3390 
Q 3200 3197 3328 2828 
z
" transform="scale(0.015625)"/>
       <path id="DejaVuSans-65" d="M 3597 1894 
L 3597 1613 
L 953 1613 
Q 991 1019 1311 708 
Q 1631 397 2203 397 
Q 2534 397 2845 478 
Q 3156 559 3463 722 
L 3463 178 
Q 3153 47 2828 -22 
Q 2503 -91 2169 -91 
Q 1331 -91 842 396 
Q 353 884 353 1716 
Q 353 2575 817 3079 
Q 1281 3584 2069 3584 
Q 2775 3584 3186 3129 
Q 3597 2675 3597 1894 
z
M 3022 2063 
Q 3016 2534 2758 2815 
Q 2500 3097 2075 3097 
Q 1594 3097 1305 2825 
Q 1016 2553 972 2059 
L 3022 2063 
z
" transform="scale(0.015625)"/>
       <path id="DejaVuSans-20" transform="scale(0.015625)"/>
       <path id="DejaVuSans-28" d="M 1984 4856 
Q 1566 4138 1362 3434 
Q 1159 2731 1159 2009 
Q 1159 1288 1364 580 
Q 1569 -128 1984 -844 
L 1484 -844 
Q 1016 -109 783 600 
Q 550 1309 550 2009 
Q 550 2706 781 3412 
Q 1013 4119 1484 4856 
L 1984 4856 
z
" transform="scale(0.015625)"/>
       <path id="DejaVuSans-73" d="M 2834 3397 
L 2834 2853 
Q 2591 2978 2328 3040 
Q 2066 3103 1784 3103 
Q 1356 3103 1142 2972 
Q 928 2841 928 2578 
Q 928 2378 1081 2264 
Q 1234 2150 1697 2047 
L 1894 2003 
Q 2506 1872 2764 1633 
Q 3022 1394 3022 966 
Q 3022 478 2636 193 
Q 2250 -91 1575 -91 
Q 1294 -91 989 -36 
Q 684 19 347 128 
L 347 722 
Q 666 556 975 473 
Q 1284 391 1588 391 
Q 1994 391 2212 530 
Q 2431 669 2431 922 
Q 2431 1156 2273 1281 
Q 2116 1406 1581 1522 
L 1381 1569 
Q 847 1681 609 1914 
Q 372 2147 372 2553 
Q 372 3047 722 3315 
Q 1072 3584 1716 3584 
Q 2034 3584 2315 3537 
Q 2597 3491 2834 3397 
z
" transform="scale(0.015625)"/>
       <path id="DejaVuSans-29" d="M 513 4856 
L 1013 4856 
Q 1481 4119 1714 3412 
Q 1947 2706 1947 2009 
Q 1947 1309 1714 600 
Q 1481 -109 1013 -844 
L 513 -844 
Q 928 -128 1133 580 
Q 1338 1288 1338 2009 
Q 1338 2731 1133 3434 
Q 928 4138 513 4856 
z
" transform="scale(0.015625)"/>
      </defs>
      <use xlink:href="#DejaVuSans-54"/>
      <use xlink:href="#DejaVuSans-69" x="57.958984"/>
      <use xlink:href="#DejaVuSans-6d" x="85.742188"/>
      <use xlink:href="#DejaVuSans-65" x="183.154297"/>
      <use xlink:href="#DejaVuSans-20" x="244.677734"/>
      <use xlink:href="#DejaVuSans-28" x="276.464844"/>
      <use xlink:href="#DejaVuSans-6d" x="315.478516"/>
      <use xlink:href="#DejaVuSans-73" x="412.890625"/>
      <use xlink:href="#DejaVuSans-29" x="464.990234"/>
     </g>
    </g>
   </g>
   <g id="matplotlib.axis_2">
    <g id="ytick_1">
     <g id="line2d_6">
      <defs>
       <path id="m7eef810216" d="M 0 0 
L -3.5 0 
" style="stroke: #000000; stroke-width: 0.8"/>
      </defs>
      <g>
       <use xlink:href="#m7eef810216" x="56.18" y="111.638182" style="stroke: #000000; stroke-width: 0.8"/>
      </g>
     </g>
     <g id="text_7">
      <!-- −1.0 -->
      <g transform="translate(24.897188 115.437401) scale(0.1 -0.1)">
       <defs>
        <path id="DejaVuSans-2212" d="M 678 2272 
L 4684 2272 
L 4684 1741 
L 678 1741 
L 678 2272 
z
" transform="scale(0.015625)"/>
        <path id="DejaVuSans-2e" d="M 684 794 
L 1344 794 
L 1344 0 
L 684 0 
L 684 794 
z
" transform="scale(0.015625)"/>
       </defs>
       <use xlink:href="#DejaVuSans-2212"/>
       <use xlink:href="#DejaVuSans-31" x="83.789062"/>
       <use xlink:href="#DejaVuSans-2e" x="147.412109"/>
       <use xlink:href="#DejaVuSans-30" x="179.199219"/>
      </g>
     </g>
    </g>
    <g id="ytick_2">
     <g id="line2d_7">
      <g>
       <use xlink:href="#m7eef810216" x="56.18" y="87.629091" style="stroke: #000000; stroke-width: 0.8"/>
      </g>
     </g>
     <g id="text_8">
      <!-- −0.5 -->
      <g transform="translate(24.897188 91.42831) scale(0.1 -0.1)">
       <use xlink:href="#DejaVuSans-2212"/>
       <use xlink:href="#DejaVuSans-30" x="83.789062"/>
       <use xlink:href="#DejaVuSans-2e" x="147.412109"/>
       <use xlink:href="#DejaVuSans-35" x="179.199219"/>
      </g>
     </g>
    </g>
    <g id="ytick_3">
     <g id="line2d_8">
      <g>
       <use xlink:href="#m7eef810216" x="56.18" y="63.62" style="stroke: #000000; stroke-width: 0.8"/>
      </g>
     </g>
     <g id="text_9">
      <!-- 0.0 -->
      <g transform="translate(33.276875 67.419219) scale(0.1 -0.1)">
       <use xlink:href="#DejaVuSans-30"/>
       <use xlink:href="#DejaVuSans-2e" x="63.623047"/>
       <use xlink:href="#DejaVuSans-30" x="95.410156"/>
      </g>
     </g>
    </g>
    <g id="ytick_4">
     <g id="line2d_9">
      <g>
       <use xlink:href="#m7eef810216" x="56.18" y="39.610909" style="stroke: #000000; stroke-width: 0.8"/>
      </g>
     </g>
     <g id="text_10">
      <!-- 0.5 -->
      <g transform="translate(33.276875 43.410128) scale(0.1 -0.1)">
       <use xlink:href="#DejaVuSans-30"/>
       <use xlink:href="#DejaVuSans-2e" x="63.623047"/>
       <use xlink:href="#DejaVuSans-35" x="95.410156"/>
      </g>
     </g>
    </g>
    <g id="ytick_5">
     <g id="line2d_10">
      <g>
       <use xlink:href="#m7eef810216" x="56.18" y="15.601818" style="stroke: #000000; stroke-width: 0.8"/>
      </g>
     </g>
     <g id="text_11">
      <!-- 1.0 -->
      <g transform="translate(33.276875 19.401037) scale(0.1 -0.1)">
       <use xlink:href="#DejaVuSans-31"/>
       <use xlink:href="#DejaVuSans-2e" x="63.623047"/>
       <use xlink:href="#DejaVuSans-30" x="95.410156"/>
      </g>
     </g>
    </g>
    <g id="text_12">
     <!-- X-Axis Value -->
     <g transform="translate(18.8175 94.180156) rotate(-90) scale(0.1 -0.1)">
      <defs>
       <path id="DejaVuSans-58" d="M 403 4666 
L 1081 4666 
L 2241 2931 
L 3406 4666 
L 4084 4666 
L 2584 2425 
L 4184 0 
L 3506 0 
L 2194 1984 
L 872 0 
L 191 0 
L 1856 2491 
L 403 4666 
z
" transform="scale(0.015625)"/>
       <path id="DejaVuSans-2d" d="M 313 2009 
L 1997 2009 
L 1997 1497 
L 313 1497 
L 313 2009 
z
" transform="scale(0.015625)"/>
       <path id="DejaVuSans-41" d="M 2188 4044 
L 1331 1722 
L 3047 1722 
L 2188 4044 
z
M 1831 4666 
L 2547 4666 
L 4325 0 
L 3669 0 
L 3244 1197 
L 1141 1197 
L 716 0 
L 50 0 
L 1831 4666 
z
" transform="scale(0.015625)"/>
       <path id="DejaVuSans-78" d="M 3513 3500 
L 2247 1797 
L 3578 0 
L 2900 0 
L 1881 1375 
L 863 0 
L 184 0 
L 1544 1831 
L 300 3500 
L 978 3500 
L 1906 2253 
L 2834 3500 
L 3513 3500 
z
" transform="scale(0.015625)"/>
       <path id="DejaVuSans-56" d="M 1831 0 
L 50 4666 
L 709 4666 
L 2188 738 
L 3669 4666 
L 4325 4666 
L 2547 0 
L 1831 0 
z
" transform="scale(0.015625)"/>
       <path id="DejaVuSans-61" d="M 2194 1759 
Q 1497 1759 1228 1600 
Q 959 1441 959 1056 
Q 959 750 1161 570 
Q 1363 391 1709 391 
Q 2188 391 2477 730 
Q 2766 1069 2766 1631 
L 2766 1759 
L 2194 1759 
z
M 3341 1997 
L 3341 0 
L 2766 0 
L 2766 531 
Q 2569 213 2275 61 
Q 1981 -91 1556 -91 
Q 1019 -91 701 211 
Q 384 513 384 1019 
Q 384 1609 779 1909 
Q 1175 2209 1959 2209 
L 2766 2209 
L 2766 2266 
Q 2766 2663 2505 2880 
Q 2244 3097 1772 3097 
Q 1472 3097 1187 3025 
Q 903 2953 641 2809 
L 641 3341 
Q 956 3463 1253 3523 
Q 1550 3584 1831 3584 
Q 2591 3584 2966 3190 
Q 3341 2797 3341 1997 
z
" transform="scale(0.015625)"/>
       <path id="DejaVuSans-6c" d="M 603 4863 
L 1178 4863 
L 1178 0 
L 603 0 
L 603 4863 
z
" transform="scale(0.015625)"/>
       <path id="DejaVuSans-75" d="M 544 1381 
L 544 3500 
L 1119 3500 
L 1119 1403 
Q 1119 906 1312 657 
Q 1506 409 1894 409 
Q 2359 409 2629 706 
Q 2900 1003 2900 1516 
L 2900 3500 
L 3475 3500 
L 3475 0 
L 2900 0 
L 2900 538 
Q 2691 219 2414 64 
Q 2138 -91 1772 -91 
Q 1169 -91 856 284 
Q 544 659 544 1381 
z
M 1991 3584 
L 1991 3584 
z
" transform="scale(0.015625)"/>
      </defs>
      <use xlink:href="#DejaVuSans-58"/>
      <use xlink:href="#DejaVuSans-2d" x="63.505859"/>
      <use xlink:href="#DejaVuSans-41" x="97.339844"/>
      <use xlink:href="#DejaVuSans-78" x="165.748047"/>
      <use xlink:href="#DejaVuSans-69" x="224.927734"/>
      <use xlink:href="#DejaVuSans-73" x="252.710938"/>
      <use xlink:href="#DejaVuSans-20" x="304.810547"/>
      <use xlink:href="#DejaVuSans-56" x="336.597656"/>
      <use xlink:href="#DejaVuSans-61" x="397.255859"/>
      <use xlink:href="#DejaVuSans-6c" x="458.535156"/>
      <use xlink:href="#DejaVuSans-75" x="486.318359"/>
      <use xlink:href="#DejaVuSans-65" x="549.697266"/>
     </g>
    </g>
   </g>
   <g id="line2d_11">
    <path d="M 56.18 64.100182 
L 57.25332 64.100182 
L 57.432206 63.62 
L 57.78998 63.62 
L 57.968866 64.100182 
L 58.147753 64.100182 
L 58.326639 63.62 
L 58.505526 64.100182 
L 58.684413 63.62 
L 58.863299 63.62 
L 59.042186 64.100182 
L 60.831052 64.100182 
L 61.009939 64.580364 
L 61.188825 64.100182 
L 62.262145 64.100182 
L 62.441032 63.62 
L 62.619918 64.100182 
L 62.798805 64.100182 
L 62.977691 63.62 
L 63.335465 63.62 
L 63.514351 64.100182 
L 64.766558 64.100182 
L 64.945444 63.62 
L 74.247548 63.62 
L 74.426435 63.139818 
L 74.605321 63.139818 
L 74.963095 62.179455 
L 75.141981 62.179455 
L 75.320868 61.699273 
L 75.499754 61.699273 
L 75.678641 61.219091 
L 75.857528 61.219091 
L 76.036414 60.738909 
L 76.215301 60.738909 
L 76.394187 60.258727 
L 76.573074 60.738909 
L 76.751961 60.738909 
L 76.930847 60.258727 
L 77.109734 60.738909 
L 78.004167 60.738909 
L 78.183054 60.258727 
L 78.36194 60.738909 
L 105.373819 60.738909 
L 105.552706 61.219091 
L 105.731592 60.738909 
L 107.878232 60.738909 
L 108.057118 61.219091 
L 108.593778 61.219091 
L 108.772665 61.699273 
L 109.309325 61.699273 
L 109.488211 62.179455 
L 109.667098 62.179455 
L 109.845984 62.659636 
L 110.561531 62.659636 
L 110.740418 63.139818 
L 112.529284 63.139818 
L 112.70817 63.62 
L 113.423717 63.62 
L 113.602603 64.100182 
L 114.139263 64.100182 
L 114.31815 64.580364 
L 117.538109 64.580364 
L 117.716995 64.100182 
L 117.895882 64.580364 
L 118.074769 64.100182 
L 119.326975 64.100182 
L 119.505862 63.62 
L 119.863635 63.62 
L 120.042521 64.100182 
L 120.221408 63.62 
L 127.197986 63.62 
L 127.376873 64.100182 
L 127.555759 63.62 
L 127.734646 64.100182 
L 127.913533 63.62 
L 128.092419 64.100182 
L 128.271306 64.100182 
L 128.450192 63.62 
L 128.807966 63.62 
L 128.986852 63.139818 
L 129.165739 63.139818 
L 129.523512 62.179455 
L 130.060172 58.818182 
L 131.312378 45.373091 
L 131.670151 44.412727 
L 132.206811 44.412727 
L 132.385698 43.932545 
L 132.564585 44.412727 
L 133.995677 44.412727 
L 134.174564 43.932545 
L 134.353451 44.412727 
L 148.485493 44.412727 
L 148.66438 43.932545 
L 148.843266 44.412727 
L 156.893164 44.412727 
L 157.072051 44.892909 
L 158.503144 44.892909 
L 158.68203 45.373091 
L 158.860917 45.373091 
L 159.75535 47.774 
L 160.113123 49.214545 
L 160.29201 49.694727 
L 161.544216 55.937091 
L 161.723103 56.417273 
L 162.796422 61.699273 
L 163.511969 63.62 
L 163.869742 63.62 
L 164.048629 64.100182 
L 165.300835 64.100182 
L 165.479722 64.580364 
L 165.658608 64.100182 
L 165.837495 64.100182 
L 166.016381 64.580364 
L 166.553041 64.580364 
L 166.731928 64.100182 
L 166.910815 64.100182 
L 167.089701 64.580364 
L 167.447474 64.580364 
L 167.626361 64.100182 
L 167.805248 64.580364 
L 167.984134 64.580364 
L 168.163021 64.100182 
L 168.341907 64.580364 
L 169.057454 64.580364 
L 169.236341 64.100182 
L 169.415227 64.580364 
L 169.594114 64.100182 
L 169.773 64.100182 
L 169.951887 64.580364 
L 170.30966 64.580364 
L 170.488547 64.100182 
L 170.667433 64.580364 
L 170.84632 64.100182 
L 171.025207 64.580364 
L 171.204093 64.100182 
L 171.38298 64.100182 
L 171.561867 64.580364 
L 171.740753 64.100182 
L 174.781826 64.100182 
L 174.960712 63.62 
L 175.139599 64.100182 
L 178.896218 64.100182 
L 179.075104 64.580364 
L 179.611764 64.580364 
L 179.790651 64.100182 
L 180.148424 64.100182 
L 180.327311 63.62 
L 180.506197 63.62 
L 180.685084 63.139818 
L 180.863971 63.139818 
L 181.579517 61.219091 
L 181.93729 58.818182 
L 182.116177 57.377636 
L 182.47395 52.095636 
L 182.831723 44.892909 
L 183.01061 42.972182 
L 187.482775 42.972182 
L 187.661662 43.452364 
L 187.840549 42.972182 
L 189.092755 42.972182 
L 189.271641 43.452364 
L 189.450528 42.972182 
L 189.629415 43.452364 
L 190.702734 43.452364 
L 190.881621 42.972182 
L 191.060508 43.452364 
L 191.239394 43.452364 
L 191.418281 42.972182 
L 191.597167 43.452364 
L 191.776054 43.452364 
L 191.954941 42.972182 
L 192.133827 43.452364 
L 192.312714 42.972182 
L 192.4916 42.972182 
L 192.670487 43.452364 
L 192.849374 42.972182 
L 193.02826 42.972182 
L 193.207147 43.452364 
L 193.386034 43.452364 
L 193.56492 42.972182 
L 193.743807 42.972182 
L 193.922693 43.452364 
L 194.10158 42.972182 
L 194.280467 43.452364 
L 194.459353 43.452364 
L 194.63824 42.972182 
L 194.817126 43.452364 
L 194.996013 42.972182 
L 195.1749 42.972182 
L 195.353786 43.452364 
L 195.532673 42.972182 
L 195.71156 43.452364 
L 196.248219 43.452364 
L 196.427106 42.972182 
L 196.605993 43.452364 
L 196.784879 42.972182 
L 196.963766 42.972182 
L 197.142652 43.452364 
L 197.321539 42.972182 
L 197.500426 43.452364 
L 197.679312 43.452364 
L 197.858199 42.972182 
L 198.037086 43.452364 
L 198.215972 42.972182 
L 198.394859 42.972182 
L 198.573745 43.452364 
L 198.752632 42.972182 
L 198.931519 42.972182 
L 199.110405 43.452364 
L 199.468178 43.452364 
L 199.647065 42.972182 
L 199.825952 43.452364 
L 200.004838 42.972182 
L 200.183725 43.452364 
L 200.362612 43.452364 
L 200.541498 42.972182 
L 200.899271 42.972182 
L 201.078158 43.452364 
L 201.257045 42.972182 
L 201.435931 43.452364 
L 201.614818 42.972182 
L 201.972591 42.972182 
L 202.151478 43.452364 
L 202.330364 42.972182 
L 202.867024 42.972182 
L 203.045911 43.452364 
L 203.224797 43.452364 
L 203.403684 42.972182 
L 203.582571 43.452364 
L 204.11923 43.452364 
L 204.298117 42.972182 
L 204.65589 42.972182 
L 204.834777 43.452364 
L 205.013664 43.452364 
L 205.19255 42.972182 
L 205.371437 42.972182 
L 205.550323 43.452364 
L 205.72921 43.452364 
L 205.908097 42.972182 
L 206.086983 43.452364 
L 206.444756 43.452364 
L 206.623643 42.972182 
L 209.664716 42.972182 
L 209.843602 43.452364 
L 210.022489 42.972182 
L 210.380262 42.972182 
L 210.559149 43.452364 
L 210.738035 42.972182 
L 210.916922 43.452364 
L 211.632468 43.452364 
L 212.169128 44.892909 
L 213.063561 49.214545 
L 213.242448 49.694727 
L 214.494654 56.897455 
L 214.852427 59.298364 
L 215.031314 59.778545 
L 215.389087 61.219091 
L 215.567974 61.699273 
L 215.74686 61.699273 
L 215.925747 62.179455 
L 216.999067 62.179455 
L 217.177953 62.659636 
L 217.35684 62.659636 
L 217.535727 63.139818 
L 217.8935 63.139818 
L 218.072386 63.62 
L 218.966819 63.62 
L 219.145706 63.139818 
L 219.682366 63.139818 
L 219.861253 63.62 
L 220.040139 63.62 
L 220.219026 63.139818 
L 220.397912 63.139818 
L 220.576799 63.62 
L 221.113459 63.62 
L 221.292345 63.139818 
L 221.471232 63.62 
L 221.650119 63.139818 
L 221.829005 63.139818 
L 222.007892 63.62 
L 222.186779 63.62 
L 222.365665 63.139818 
L 222.723438 63.139818 
L 222.902325 63.62 
L 223.081212 63.139818 
L 223.975645 63.139818 
L 224.154531 63.62 
L 224.333418 63.139818 
L 224.691191 63.139818 
L 224.870078 63.62 
L 225.048964 63.139818 
L 225.227851 63.139818 
L 225.406738 63.62 
L 225.585624 63.139818 
L 226.301171 63.139818 
L 226.480057 63.62 
L 226.658944 63.139818 
L 226.837831 63.62 
L 227.016717 63.139818 
L 227.37449 63.139818 
L 227.553377 63.62 
L 227.91115 63.62 
L 228.090037 64.100182 
L 231.488883 64.100182 
L 231.667769 63.62 
L 231.846656 63.62 
L 232.741089 61.219091 
L 233.098862 59.298364 
L 233.456635 54.496545 
L 233.635522 51.135273 
L 233.814409 50.174909 
L 234.172182 50.174909 
L 234.529955 51.135273 
L 234.708842 51.135273 
L 234.887728 51.615455 
L 244.368719 51.615455 
L 244.547605 51.135273 
L 244.905379 51.135273 
L 245.084265 51.615455 
L 245.263152 51.135273 
L 253.491936 51.135273 
L 253.670823 51.615455 
L 253.849709 51.135273 
L 258.321875 51.135273 
L 258.500761 50.655091 
L 259.574081 50.655091 
L 259.752968 50.174909 
L 260.110741 50.174909 
L 260.289628 49.694727 
L 260.647401 49.694727 
L 260.826287 50.174909 
L 261.005174 50.174909 
L 261.362947 51.135273 
L 261.72072 52.575818 
L 261.899607 53.056 
L 262.615153 56.417273 
L 262.79404 56.897455 
L 262.972927 57.857818 
L 263.151813 57.857818 
L 263.3307 58.338 
L 263.86736 60.738909 
L 264.046246 61.219091 
L 264.40402 62.659636 
L 264.582906 63.139818 
L 264.940679 63.139818 
L 265.119566 63.62 
L 265.656226 63.62 
L 265.835113 63.139818 
L 266.192886 63.139818 
L 266.371772 62.659636 
L 267.266205 62.659636 
L 267.445092 63.139818 
L 267.623979 62.659636 
L 267.981752 62.659636 
L 268.160639 63.139818 
L 268.339525 62.659636 
L 268.518412 62.659636 
L 268.697298 63.139818 
L 268.876185 62.659636 
L 269.055072 62.659636 
L 269.233958 63.139818 
L 269.770618 63.139818 
L 269.949505 62.659636 
L 271.022824 62.659636 
L 271.201711 63.139818 
L 271.380598 62.659636 
L 272.453917 62.659636 
L 272.632804 63.139818 
L 272.811691 62.659636 
L 273.169464 62.659636 
L 273.34835 63.139818 
L 273.527237 62.659636 
L 274.600557 62.659636 
L 274.779443 63.139818 
L 275.316103 63.139818 
L 275.49499 63.62 
L 277.641629 63.62 
L 277.820516 64.100182 
L 279.072722 64.100182 
L 279.251609 64.580364 
L 279.609382 64.580364 
L 279.788269 65.060545 
L 280.503815 65.060545 
L 280.682702 64.580364 
L 280.861588 65.060545 
L 281.040475 64.580364 
L 281.577135 64.580364 
L 281.934908 63.62 
L 282.113795 63.62 
L 282.829341 61.699273 
L 283.008228 61.699273 
L 283.187114 62.179455 
L 283.723774 62.179455 
L 283.902661 62.659636 
L 284.260434 62.659636 
L 284.439321 63.139818 
L 295.172517 63.139818 
L 295.351404 63.62 
L 295.530291 63.139818 
L 298.034703 63.139818 
L 298.21359 63.62 
L 298.392476 63.139818 
L 310.37788 63.139818 
L 310.556766 62.659636 
L 310.735653 63.139818 
L 311.987859 63.139818 
L 312.166746 63.62 
L 312.703406 63.62 
L 312.882292 63.139818 
L 313.061179 63.139818 
L 313.597839 64.580364 
L 314.134499 64.580364 
L 314.313385 64.100182 
L 314.492272 64.580364 
L 314.671158 64.580364 
L 314.850045 64.100182 
L 315.207818 64.100182 
L 315.386705 64.580364 
L 316.102251 64.580364 
L 316.281138 64.100182 
L 316.460025 64.580364 
L 316.638911 64.580364 
L 316.817798 64.100182 
L 316.996684 64.100182 
L 317.175571 64.580364 
L 317.354458 64.100182 
L 318.964437 64.100182 
L 319.143324 63.62 
L 321.826623 63.62 
L 322.00551 64.100182 
L 322.721056 64.100182 
L 322.899943 64.580364 
L 323.078829 64.100182 
L 323.257716 64.100182 
L 323.436603 64.580364 
L 323.615489 64.580364 
L 323.794376 64.100182 
L 326.298788 64.100182 
L 326.477675 64.580364 
L 326.656562 64.100182 
L 326.835448 64.580364 
L 327.372108 64.580364 
L 327.550995 65.060545 
L 327.729881 64.580364 
L 327.908768 65.060545 
L 328.087655 65.060545 
L 328.266541 65.540727 
L 328.445428 65.540727 
L 329.160974 67.461455 
L 329.518747 69.862364 
L 331.307614 78.985818 
L 339.536398 78.985818 
L 339.715284 79.466 
L 339.894171 78.985818 
L 341.146377 78.985818 
L 341.325264 79.466 
L 341.683037 79.466 
L 341.861924 78.985818 
L 342.04081 79.466 
L 342.219697 78.985818 
L 342.398584 78.985818 
L 342.57747 79.466 
L 342.756357 78.985818 
L 342.935244 78.985818 
L 343.11413 79.466 
L 343.293017 79.466 
L 343.471903 78.985818 
L 343.65079 79.466 
L 343.829677 78.985818 
L 344.008563 79.466 
L 344.18745 78.985818 
L 344.366336 79.466 
L 344.545223 79.466 
L 344.72411 78.985818 
L 344.902996 79.466 
L 345.081883 78.985818 
L 345.26077 79.466 
L 345.439656 78.985818 
L 345.618543 78.985818 
L 345.797429 79.466 
L 346.691862 79.466 
L 346.870749 78.985818 
L 347.049636 79.466 
L 347.228522 78.985818 
L 347.407409 79.466 
L 348.301842 79.466 
L 348.480729 78.985818 
L 348.659615 79.466 
L 348.838502 78.985818 
L 349.017388 79.466 
L 351.164028 79.466 
L 351.342914 78.985818 
L 351.521801 79.466 
L 356.35174 79.466 
L 356.530626 78.985818 
L 356.709513 78.985818 
L 356.8884 79.466 
L 357.067286 78.985818 
L 357.246173 78.985818 
L 357.425059 78.505636 
L 357.603946 78.505636 
L 357.961719 77.065091 
L 358.856152 74.664182 
L 359.035039 74.664182 
L 359.929472 72.263273 
L 360.466132 69.862364 
L 360.645018 69.382182 
L 361.002792 67.941636 
L 361.181678 67.461455 
L 361.718338 65.060545 
L 361.897225 64.580364 
L 362.076111 64.580364 
L 362.254998 64.100182 
L 378.712567 64.100182 
L 378.891453 64.580364 
L 379.07034 64.580364 
L 379.607 66.020909 
L 381.216979 78.985818 
L 381.395866 79.466 
L 382.290299 79.466 
L 382.648072 80.906545 
L 383.363619 80.906545 
L 383.542505 80.426364 
L 385.331371 80.426364 
L 385.510258 79.946182 
L 385.689144 79.946182 
L 385.868031 80.426364 
L 386.046918 79.946182 
L 390.876856 79.946182 
L 391.055743 79.466 
L 391.23463 79.946182 
L 407.155538 79.946182 
L 407.334425 80.426364 
L 407.513312 79.946182 
L 408.049971 79.946182 
L 408.228858 80.426364 
L 408.407745 79.946182 
L 409.123291 79.946182 
L 409.302178 80.426364 
L 409.481064 80.426364 
L 409.659951 79.946182 
L 410.554384 79.946182 
L 410.733271 79.466 
L 411.091044 79.466 
L 411.80659 77.545273 
L 412.164363 76.104727 
L 413.058797 73.703818 
L 413.237683 73.703818 
L 413.41657 73.223636 
L 413.595456 73.223636 
L 413.95323 72.263273 
L 414.489889 69.862364 
L 414.668776 69.382182 
L 415.026549 67.941636 
L 416.278756 64.580364 
L 416.636529 63.139818 
L 419.319828 63.139818 
L 419.498715 63.62 
L 419.856488 63.62 
L 420.035375 63.139818 
L 420.214261 63.139818 
L 420.393148 62.659636 
L 420.572034 63.139818 
L 420.750921 63.139818 
L 420.929808 62.659636 
L 421.287581 62.659636 
L 421.466467 63.139818 
L 421.645354 62.659636 
L 421.824241 62.659636 
L 422.003127 63.139818 
L 422.182014 62.659636 
L 422.539787 62.659636 
L 422.718674 63.139818 
L 423.43422 63.139818 
L 423.613107 62.659636 
L 423.791993 63.139818 
L 425.58086 63.139818 
L 425.759746 62.659636 
L 426.475293 62.659636 
L 426.654179 63.139818 
L 427.011953 63.139818 
L 427.190839 62.659636 
L 427.369726 63.139818 
L 428.085272 63.139818 
L 428.264159 62.659636 
L 428.443045 63.139818 
L 428.979705 63.139818 
L 429.158592 62.659636 
L 429.337479 63.139818 
L 430.410798 63.139818 
L 430.589685 62.659636 
L 430.768571 63.139818 
L 431.841891 63.139818 
L 432.020778 62.659636 
L 432.199664 63.139818 
L 433.451871 63.139818 
L 433.630757 63.62 
L 433.809644 63.62 
L 433.98853 64.100182 
L 434.346304 64.100182 
L 434.704077 65.060545 
L 435.240737 67.461455 
L 435.419623 67.941636 
L 435.59851 69.382182 
L 435.777397 69.862364 
L 436.67183 74.664182 
L 437.029603 74.664182 
L 437.20849 74.184 
L 437.387376 74.184 
L 437.566263 73.703818 
L 438.102923 73.703818 
L 438.281809 73.223636 
L 438.818469 73.223636 
L 438.997356 72.743455 
L 440.428449 72.743455 
L 440.607335 72.263273 
L 446.510594 72.263273 
L 446.68948 71.783091 
L 446.868367 71.783091 
L 447.047253 72.263273 
L 447.22614 71.783091 
L 447.405027 71.783091 
L 447.583913 72.263273 
L 447.7628 72.263273 
L 447.941686 71.783091 
L 448.120573 72.263273 
L 448.478346 72.263273 
L 448.657233 71.783091 
L 448.83612 72.263273 
L 449.015006 71.783091 
L 449.193893 72.263273 
L 449.551666 72.263273 
L 449.730553 71.783091 
L 449.909439 71.783091 
L 450.088326 72.263273 
L 450.267212 72.263273 
L 450.446099 71.783091 
L 450.624986 72.263273 
L 450.803872 72.263273 
L 450.982759 71.783091 
L 451.161646 72.263273 
L 452.234965 72.263273 
L 452.413852 71.783091 
L 452.592738 72.263273 
L 452.950512 72.263273 
L 453.129398 71.783091 
L 453.308285 72.263273 
L 462.789275 72.263273 
L 462.968162 72.743455 
L 463.325935 72.743455 
L 463.504822 72.263273 
L 463.683709 72.743455 
L 463.862595 72.263273 
L 464.041482 72.743455 
L 465.114801 72.743455 
L 465.293688 73.223636 
L 465.472575 72.743455 
L 465.651461 72.743455 
L 466.188121 71.302909 
L 466.367008 71.302909 
L 466.724781 70.342545 
L 466.903668 69.382182 
L 467.082554 69.382182 
L 467.261441 68.421818 
L 468.155874 68.421818 
L 469.050307 66.020909 
L 469.586967 63.62 
L 469.765853 63.62 
L 469.94474 63.139818 
L 470.123627 63.139818 
L 470.4814 62.179455 
L 470.660287 62.179455 
L 471.01806 61.219091 
L 471.375833 61.219091 
L 471.55472 61.699273 
L 473.880246 61.699273 
L 474.059132 61.219091 
L 474.416905 61.219091 
L 474.595792 61.699273 
L 474.774679 61.219091 
L 474.953565 61.699273 
L 475.669112 61.699273 
L 475.847998 61.219091 
L 476.026885 61.699273 
L 476.205772 61.699273 
L 476.384658 61.219091 
L 476.563545 61.219091 
L 476.742431 61.699273 
L 476.921318 61.219091 
L 477.279091 61.219091 
L 477.457978 61.699273 
L 477.636865 61.219091 
L 477.815751 61.699273 
L 477.994638 61.219091 
L 479.783504 61.219091 
L 479.962391 61.699273 
L 480.141277 61.219091 
L 481.57237 61.219091 
L 481.751257 61.699273 
L 481.930143 61.219091 
L 483.361236 61.219091 
L 483.540123 61.699273 
L 483.719009 61.219091 
L 484.613442 61.219091 
L 484.792329 61.699273 
L 484.971216 61.219091 
L 486.044535 61.219091 
L 486.223422 61.699273 
L 486.402309 61.219091 
L 486.581195 61.699273 
L 486.760082 61.219091 
L 487.475628 61.219091 
L 487.654515 61.699273 
L 487.833402 61.219091 
L 489.801154 61.219091 
L 489.980041 61.699273 
L 490.158928 61.219091 
L 490.695587 61.219091 
L 490.874474 61.699273 
L 491.053361 61.219091 
L 491.768907 61.219091 
L 491.947794 61.699273 
L 492.12668 61.219091 
L 493.021113 61.219091 
L 493.2 61.699273 
L 493.2 61.699273 
" clip-path="url(#pe701989929)" style="fill: none; stroke: #1f77b4; stroke-width: 1.5; stroke-linecap: square"/>
   </g>
   <g id="line2d_12">
    <path d="M 56.18 63.62 
L 493.2 63.62 
" clip-path="url(#pe701989929)" style="fill: none; stroke-dasharray: 2.96,1.28; stroke-dashoffset: 0; stroke: #808080; stroke-width: 0.8"/>
   </g>
   <g id="patch_3">
    <path d="M 56.18 116.44 
L 56.18 10.8 
" style="fill: none; stroke: #000000; stroke-width: 0.8; stroke-linejoin: miter; stroke-linecap: square"/>
   </g>
   <g id="patch_4">
    <path d="M 56.18 116.44 
L 493.2 116.44 
" style="fill: none; stroke: #000000; stroke-width: 0.8; stroke-linejoin: miter; stroke-linecap: square"/>
   </g>
  </g>
  <g id="axes_2">
   <g id="patch_5">
    <path d="M 56.18 264.04 
L 493.2 264.04 
L 493.2 158.4 
L 56.18 158.4 
z
" style="fill: #ffffff"/>
   </g>
   <g id="matplotlib.axis_3">
    <g id="xtick_6">
     <g id="line2d_13">
      <g>
       <use xlink:href="#ma5b09ebe66" x="56.18" y="264.04" style="stroke: #000000; stroke-width: 0.8"/>
      </g>
     </g>
     <g id="text_13">
      <!-- 0 -->
      <g transform="translate(52.99875 278.638438) scale(0.1 -0.1)">
       <use xlink:href="#DejaVuSans-30"/>
      </g>
     </g>
    </g>
    <g id="xtick_7">
     <g id="line2d_14">
      <g>
       <use xlink:href="#ma5b09ebe66" x="145.623307" y="264.04" style="stroke: #000000; stroke-width: 0.8"/>
      </g>
     </g>
     <g id="text_14">
      <!-- 5000 -->
      <g transform="translate(132.898307 278.638438) scale(0.1 -0.1)">
       <use xlink:href="#DejaVuSans-35"/>
       <use xlink:href="#DejaVuSans-30" x="63.623047"/>
       <use xlink:href="#DejaVuSans-30" x="127.246094"/>
       <use xlink:href="#DejaVuSans-30" x="190.869141"/>
      </g>
     </g>
    </g>
    <g id="xtick_8">
     <g id="line2d_15">
      <g>
       <use xlink:href="#ma5b09ebe66" x="235.066615" y="264.04" style="stroke: #000000; stroke-width: 0.8"/>
      </g>
     </g>
     <g id="text_15">
      <!-- 10000 -->
      <g transform="translate(219.160365 278.638438) scale(0.1 -0.1)">
       <use xlink:href="#DejaVuSans-31"/>
       <use xlink:href="#DejaVuSans-30" x="63.623047"/>
       <use xlink:href="#DejaVuSans-30" x="127.246094"/>
       <use xlink:href="#DejaVuSans-30" x="190.869141"/>
       <use xlink:href="#DejaVuSans-30" x="254.492188"/>
      </g>
     </g>
    </g>
    <g id="xtick_9">
     <g id="line2d_16">
      <g>
       <use xlink:href="#ma5b09ebe66" x="324.509922" y="264.04" style="stroke: #000000; stroke-width: 0.8"/>
      </g>
     </g>
     <g id="text_16">
      <!-- 15000 -->
      <g transform="translate(308.603672 278.638438) scale(0.1 -0.1)">
       <use xlink:href="#DejaVuSans-31"/>
       <use xlink:href="#DejaVuSans-35" x="63.623047"/>
       <use xlink:href="#DejaVuSans-30" x="127.246094"/>
       <use xlink:href="#DejaVuSans-30" x="190.869141"/>
       <use xlink:href="#DejaVuSans-30" x="254.492188"/>
      </g>
     </g>
    </g>
    <g id="xtick_10">
     <g id="line2d_17">
      <g>
       <use xlink:href="#ma5b09ebe66" x="413.95323" y="264.04" style="stroke: #000000; stroke-width: 0.8"/>
      </g>
     </g>
     <g id="text_17">
      <!-- 20000 -->
      <g transform="translate(398.04698 278.638438) scale(0.1 -0.1)">
       <use xlink:href="#DejaVuSans-32"/>
       <use xlink:href="#DejaVuSans-30" x="63.623047"/>
       <use xlink:href="#DejaVuSans-30" x="127.246094"/>
       <use xlink:href="#DejaVuSans-30" x="190.869141"/>
       <use xlink:href="#DejaVuSans-30" x="254.492188"/>
      </g>
     </g>
    </g>
    <g id="text_18">
     <!-- Time (ms) -->
     <g transform="translate(249.490781 292.316563) scale(0.1 -0.1)">
      <use xlink:href="#DejaVuSans-54"/>
      <use xlink:href="#DejaVuSans-69" x="57.958984"/>
      <use xlink:href="#DejaVuSans-6d" x="85.742188"/>
      <use xlink:href="#DejaVuSans-65" x="183.154297"/>
      <use xlink:href="#DejaVuSans-20" x="244.677734"/>
      <use xlink:href="#DejaVuSans-28" x="276.464844"/>
      <use xlink:href="#DejaVuSans-6d" x="315.478516"/>
      <use xlink:href="#DejaVuSans-73" x="412.890625"/>
      <use xlink:href="#DejaVuSans-29" x="464.990234"/>
     </g>
    </g>
   </g>
   <g id="matplotlib.axis_4">
    <g id="ytick_6">
     <g id="line2d_18">
      <g>
       <use xlink:href="#m7eef810216" x="56.18" y="259.238182" style="stroke: #000000; stroke-width: 0.8"/>
      </g>
     </g>
     <g id="text_19">
      <!-- −1.0 -->
      <g transform="translate(24.897188 263.037401) scale(0.1 -0.1)">
       <use xlink:href="#DejaVuSans-2212"/>
       <use xlink:href="#DejaVuSans-31" x="83.789062"/>
       <use xlink:href="#DejaVuSans-2e" x="147.412109"/>
       <use xlink:href="#DejaVuSans-30" x="179.199219"/>
      </g>
     </g>
    </g>
    <g id="ytick_7">
     <g id="line2d_19">
      <g>
       <use xlink:href="#m7eef810216" x="56.18" y="235.229091" style="stroke: #000000; stroke-width: 0.8"/>
      </g>
     </g>
     <g id="text_20">
      <!-- −0.5 -->
      <g transform="translate(24.897188 239.02831) scale(0.1 -0.1)">
       <use xlink:href="#DejaVuSans-2212"/>
       <use xlink:href="#DejaVuSans-30" x="83.789062"/>
       <use xlink:href="#DejaVuSans-2e" x="147.412109"/>
       <use xlink:href="#DejaVuSans-35" x="179.199219"/>
      </g>
     </g>
    </g>
    <g id="ytick_8">
     <g id="line2d_20">
      <g>
       <use xlink:href="#m7eef810216" x="56.18" y="211.22" style="stroke: #000000; stroke-width: 0.8"/>
      </g>
     </g>
     <g id="text_21">
      <!-- 0.0 -->
      <g transform="translate(33.276875 215.019219) scale(0.1 -0.1)">
       <use xlink:href="#DejaVuSans-30"/>
       <use xlink:href="#DejaVuSans-2e" x="63.623047"/>
       <use xlink:href="#DejaVuSans-30" x="95.410156"/>
      </g>
     </g>
    </g>
    <g id="ytick_9">
     <g id="line2d_21">
      <g>
       <use xlink:href="#m7eef810216" x="56.18" y="187.210909" style="stroke: #000000; stroke-width: 0.8"/>
      </g>
     </g>
     <g id="text_22">
      <!-- 0.5 -->
      <g transform="translate(33.276875 191.010128) scale(0.1 -0.1)">
       <use xlink:href="#DejaVuSans-30"/>
       <use xlink:href="#DejaVuSans-2e" x="63.623047"/>
       <use xlink:href="#DejaVuSans-35" x="95.410156"/>
      </g>
     </g>
    </g>
    <g id="ytick_10">
     <g id="line2d_22">
      <g>
       <use xlink:href="#m7eef810216" x="56.18" y="163.201818" style="stroke: #000000; stroke-width: 0.8"/>
      </g>
     </g>
     <g id="text_23">
      <!-- 1.0 -->
      <g transform="translate(33.276875 167.001037) scale(0.1 -0.1)">
       <use xlink:href="#DejaVuSans-31"/>
       <use xlink:href="#DejaVuSans-2e" x="63.623047"/>
       <use xlink:href="#DejaVuSans-30" x="95.410156"/>
      </g>
     </g>
    </g>
    <g id="text_24">
     <!-- Y-Axis Value -->
     <g transform="translate(18.8175 241.065313) rotate(-90) scale(0.1 -0.1)">
      <defs>
       <path id="DejaVuSans-59" d="M -13 4666 
L 666 4666 
L 1959 2747 
L 3244 4666 
L 3922 4666 
L 2272 2222 
L 2272 0 
L 1638 0 
L 1638 2222 
L -13 4666 
z
" transform="scale(0.015625)"/>
      </defs>
      <use xlink:href="#DejaVuSans-59"/>
      <use xlink:href="#DejaVuSans-2d" x="49.208984"/>
      <use xlink:href="#DejaVuSans-41" x="83.042969"/>
      <use xlink:href="#DejaVuSans-78" x="151.451172"/>
      <use xlink:href="#DejaVuSans-69" x="210.630859"/>
      <use xlink:href="#DejaVuSans-73" x="238.414062"/>
      <use xlink:href="#DejaVuSans-20" x="290.513672"/>
      <use xlink:href="#DejaVuSans-56" x="322.300781"/>
      <use xlink:href="#DejaVuSans-61" x="382.958984"/>
      <use xlink:href="#DejaVuSans-6c" x="444.238281"/>
      <use xlink:href="#DejaVuSans-75" x="472.021484"/>
      <use xlink:href="#DejaVuSans-65" x="535.400391"/>
     </g>
    </g>
   </g>
   <g id="line2d_23">
    <path d="M 56.18 206.418182 
L 58.326639 206.418182 
L 58.505526 205.938 
L 58.684413 205.938 
L 58.863299 206.418182 
L 59.042186 206.418182 
L 59.221072 205.938 
L 59.399959 205.938 
L 59.578846 206.418182 
L 59.936619 206.418182 
L 60.115506 205.938 
L 60.831052 205.938 
L 61.009939 205.457818 
L 61.188825 205.457818 
L 61.367712 205.938 
L 65.124331 205.938 
L 65.303217 206.418182 
L 69.238723 206.418182 
L 69.417609 206.898364 
L 69.596496 206.898364 
L 69.775383 206.418182 
L 70.490929 206.418182 
L 70.669816 206.898364 
L 72.816455 206.898364 
L 72.995342 206.418182 
L 73.174228 206.898364 
L 73.710888 206.898364 
L 74.605321 204.497455 
L 75.499754 199.215455 
L 76.573074 190.092 
L 76.930847 186.730727 
L 77.109734 186.250545 
L 78.004167 186.250545 
L 78.183054 185.770364 
L 78.36194 186.250545 
L 81.939673 186.250545 
L 82.118559 185.770364 
L 86.769611 185.770364 
L 86.948498 185.290182 
L 87.127384 185.770364 
L 87.306271 185.290182 
L 87.485158 185.770364 
L 87.664044 185.770364 
L 87.842931 185.290182 
L 88.200704 185.290182 
L 88.379591 185.770364 
L 88.737364 185.770364 
L 88.916251 185.290182 
L 89.095137 185.770364 
L 89.274024 185.290182 
L 89.45291 185.770364 
L 89.631797 185.770364 
L 89.810684 185.290182 
L 90.168457 185.290182 
L 90.347343 185.770364 
L 90.705117 185.770364 
L 90.884003 185.290182 
L 91.06289 185.770364 
L 91.241777 185.770364 
L 91.420663 185.290182 
L 91.59955 185.290182 
L 91.778436 185.770364 
L 92.315096 185.770364 
L 92.493983 185.290182 
L 92.672869 185.770364 
L 93.209529 185.770364 
L 93.388416 185.290182 
L 93.567302 185.770364 
L 93.925076 185.770364 
L 94.103962 185.290182 
L 94.282849 185.290182 
L 94.461736 185.770364 
L 94.640622 185.290182 
L 94.819509 185.770364 
L 95.535055 185.770364 
L 95.713942 185.290182 
L 95.892828 185.770364 
L 96.071715 185.770364 
L 96.250602 185.290182 
L 96.429488 185.290182 
L 96.608375 185.770364 
L 96.787262 185.770364 
L 96.966148 185.290182 
L 97.145035 185.770364 
L 97.681695 185.770364 
L 97.860581 185.290182 
L 98.218354 185.290182 
L 98.397241 185.770364 
L 98.576128 185.290182 
L 98.933901 185.290182 
L 99.112788 185.770364 
L 99.291674 185.290182 
L 99.470561 185.770364 
L 100.364994 185.770364 
L 100.54388 185.290182 
L 100.722767 185.770364 
L 100.901654 185.770364 
L 101.08054 185.290182 
L 101.259427 185.770364 
L 101.438314 185.290182 
L 101.6172 185.770364 
L 101.974973 185.770364 
L 102.15386 185.290182 
L 102.332747 185.770364 
L 102.511633 185.290182 
L 102.69052 185.770364 
L 102.869406 185.290182 
L 103.048293 185.770364 
L 103.22718 185.770364 
L 103.406066 185.290182 
L 103.584953 185.770364 
L 103.942726 185.770364 
L 104.121613 185.290182 
L 105.552706 185.290182 
L 105.731592 185.770364 
L 105.910479 185.770364 
L 106.089366 185.290182 
L 106.447139 186.730727 
L 106.804912 187.691091 
L 107.520458 191.052364 
L 107.699345 191.532545 
L 108.236005 193.933455 
L 108.414892 194.413636 
L 109.488211 199.695636 
L 110.740418 203.056909 
L 110.919304 203.056909 
L 111.098191 203.537091 
L 111.277077 203.537091 
L 111.455964 204.017273 
L 111.634851 204.017273 
L 111.813737 204.497455 
L 111.992624 204.497455 
L 112.17151 204.977636 
L 112.350397 204.977636 
L 112.887057 206.418182 
L 114.85481 206.418182 
L 115.033696 206.898364 
L 117.001449 206.898364 
L 117.180336 207.378545 
L 117.359222 206.898364 
L 118.253655 206.898364 
L 118.432542 207.378545 
L 118.969202 207.378545 
L 119.148088 206.898364 
L 119.326975 206.898364 
L 119.505862 207.378545 
L 120.758068 207.378545 
L 120.936955 207.858727 
L 121.115841 207.378545 
L 121.652501 207.378545 
L 121.831388 207.858727 
L 122.010274 207.378545 
L 124.693573 207.378545 
L 124.87246 207.858727 
L 125.051347 207.858727 
L 125.230233 207.378545 
L 128.450192 207.378545 
L 128.807966 206.418182 
L 128.986852 206.418182 
L 129.881285 204.017273 
L 130.239059 201.616364 
L 131.312378 192.973091 
L 131.491265 192.492909 
L 131.670151 192.492909 
L 131.849038 192.012727 
L 132.027925 192.012727 
L 132.206811 191.532545 
L 132.564585 191.532545 
L 132.743471 191.052364 
L 132.922358 191.052364 
L 133.101244 190.572182 
L 133.280131 191.052364 
L 133.459018 190.572182 
L 134.532337 190.572182 
L 134.711224 191.052364 
L 134.890111 190.572182 
L 148.66438 190.572182 
L 148.843266 191.052364 
L 149.022153 190.572182 
L 152.063226 190.572182 
L 152.242112 191.052364 
L 152.420999 190.572182 
L 157.608711 190.572182 
L 157.787597 191.052364 
L 158.503144 191.052364 
L 158.68203 191.532545 
L 158.860917 191.532545 
L 160.29201 195.374 
L 160.649783 196.814545 
L 161.186443 198.255091 
L 161.544216 199.695636 
L 162.259763 201.616364 
L 162.617536 203.056909 
L 162.796422 203.056909 
L 163.511969 204.977636 
L 163.869742 204.977636 
L 164.048629 205.457818 
L 164.227515 205.457818 
L 164.406402 205.938 
L 164.943062 205.938 
L 165.121948 206.418182 
L 168.163021 206.418182 
L 168.341907 206.898364 
L 168.520794 206.418182 
L 168.699681 206.898364 
L 168.878567 206.418182 
L 169.773 206.418182 
L 169.951887 206.898364 
L 170.130774 206.418182 
L 170.667433 206.418182 
L 170.84632 206.898364 
L 171.025207 206.898364 
L 171.204093 206.418182 
L 171.38298 206.898364 
L 172.992959 206.898364 
L 173.171846 206.418182 
L 173.350733 206.898364 
L 176.749578 206.898364 
L 176.928465 206.418182 
L 177.107352 206.418182 
L 177.286238 206.898364 
L 177.465125 206.898364 
L 177.644011 206.418182 
L 177.822898 206.898364 
L 178.001785 206.898364 
L 178.180671 206.418182 
L 181.042857 206.418182 
L 181.221744 205.938 
L 181.579517 205.938 
L 181.758404 205.457818 
L 182.116177 205.457818 
L 182.295063 205.938 
L 182.652837 205.938 
L 182.831723 205.457818 
L 183.189497 204.017273 
L 183.368383 203.537091 
L 183.54727 202.576727 
L 183.726156 202.576727 
L 183.905043 202.096545 
L 184.08393 202.096545 
L 184.262816 201.616364 
L 185.157249 201.616364 
L 185.336136 201.136182 
L 185.515023 201.616364 
L 185.872796 201.616364 
L 186.051682 201.136182 
L 186.230569 201.616364 
L 186.409456 201.616364 
L 186.588342 201.136182 
L 186.767229 201.616364 
L 186.946115 201.136182 
L 187.125002 201.616364 
L 188.019435 201.616364 
L 188.198322 201.136182 
L 188.377208 201.616364 
L 188.556095 201.136182 
L 188.734982 201.616364 
L 188.913868 201.136182 
L 189.092755 201.136182 
L 189.271641 201.616364 
L 189.450528 201.616364 
L 189.629415 201.136182 
L 189.808301 201.616364 
L 189.987188 201.136182 
L 190.523848 201.136182 
L 190.702734 201.616364 
L 190.881621 201.136182 
L 191.060508 201.616364 
L 191.418281 201.616364 
L 191.597167 201.136182 
L 191.776054 201.616364 
L 191.954941 201.136182 
L 192.133827 201.616364 
L 192.312714 201.136182 
L 192.849374 201.136182 
L 193.02826 201.616364 
L 193.56492 201.616364 
L 193.743807 201.136182 
L 194.10158 201.136182 
L 194.280467 201.616364 
L 194.817126 201.616364 
L 194.996013 201.136182 
L 195.1749 201.616364 
L 195.532673 201.616364 
L 195.71156 201.136182 
L 195.890446 201.616364 
L 196.427106 201.616364 
L 196.605993 201.136182 
L 196.963766 201.136182 
L 197.142652 201.616364 
L 197.679312 201.616364 
L 197.858199 201.136182 
L 198.037086 201.616364 
L 198.394859 201.616364 
L 198.573745 201.136182 
L 198.752632 201.616364 
L 199.110405 201.616364 
L 199.289292 201.136182 
L 199.647065 201.136182 
L 199.825952 201.616364 
L 200.004838 201.616364 
L 200.183725 201.136182 
L 200.899271 201.136182 
L 201.078158 201.616364 
L 201.257045 201.136182 
L 201.435931 201.616364 
L 201.614818 201.616364 
L 201.793704 201.136182 
L 201.972591 201.136182 
L 202.151478 201.616364 
L 202.330364 201.616364 
L 202.509251 201.136182 
L 202.688138 201.616364 
L 202.867024 201.136182 
L 203.045911 201.616364 
L 203.224797 201.136182 
L 203.403684 201.616364 
L 203.761457 201.616364 
L 203.940344 201.136182 
L 204.11923 201.616364 
L 204.298117 201.616364 
L 204.477004 201.136182 
L 205.371437 201.136182 
L 205.550323 201.616364 
L 206.26587 201.616364 
L 206.444756 201.136182 
L 206.623643 201.616364 
L 207.160303 201.616364 
L 207.33919 201.136182 
L 207.518076 201.136182 
L 207.696963 201.616364 
L 207.875849 201.136182 
L 208.054736 201.136182 
L 208.233623 201.616364 
L 208.412509 201.616364 
L 208.591396 201.136182 
L 208.770282 201.616364 
L 211.632468 201.616364 
L 211.811355 202.096545 
L 211.990242 202.096545 
L 212.169128 202.576727 
L 212.348015 202.576727 
L 212.705788 203.537091 
L 213.063561 203.537091 
L 213.242448 204.017273 
L 213.421334 204.017273 
L 213.600221 204.497455 
L 213.957994 204.497455 
L 214.136881 204.977636 
L 214.673541 204.977636 
L 214.852427 205.457818 
L 215.389087 205.457818 
L 215.567974 205.938 
L 215.925747 205.938 
L 216.104634 206.418182 
L 216.462407 206.418182 
L 216.641293 206.898364 
L 227.553377 206.898364 
L 227.732264 206.418182 
L 231.131109 206.418182 
L 231.309996 206.898364 
L 231.667769 206.898364 
L 231.846656 207.378545 
L 232.025542 207.378545 
L 232.204429 207.858727 
L 232.383316 207.858727 
L 232.919975 209.299273 
L 233.277749 211.700182 
L 233.814409 219.383091 
L 235.066615 219.383091 
L 235.245501 219.863273 
L 235.424388 219.383091 
L 236.497708 219.383091 
L 236.676594 219.863273 
L 236.855481 219.383091 
L 237.034368 219.383091 
L 237.213254 219.863273 
L 237.392141 219.383091 
L 237.571027 219.863273 
L 237.749914 219.383091 
L 237.928801 219.383091 
L 238.107687 219.863273 
L 238.286574 219.383091 
L 238.46546 219.863273 
L 238.644347 219.383091 
L 238.823234 219.863273 
L 239.181007 219.863273 
L 239.359894 219.383091 
L 239.53878 219.863273 
L 239.717667 219.383091 
L 239.896553 219.863273 
L 240.07544 219.383091 
L 240.433213 219.383091 
L 240.6121 219.863273 
L 240.790986 219.383091 
L 240.969873 219.383091 
L 241.14876 219.863273 
L 241.327646 219.383091 
L 241.506533 219.863273 
L 241.68542 219.383091 
L 241.864306 219.863273 
L 242.043193 219.383091 
L 242.222079 219.863273 
L 242.400966 219.383091 
L 242.579853 219.863273 
L 242.758739 219.383091 
L 242.937626 219.863273 
L 243.653172 219.863273 
L 243.832059 219.383091 
L 244.010946 219.383091 
L 244.189832 219.863273 
L 244.368719 219.383091 
L 248.125338 219.383091 
L 248.304224 219.863273 
L 248.483111 219.383091 
L 257.606328 219.383091 
L 257.785215 219.863273 
L 257.964102 219.383091 
L 258.142988 219.383091 
L 258.321875 219.863273 
L 259.574081 219.863273 
L 259.752968 220.343455 
L 260.647401 220.343455 
L 260.826287 219.863273 
L 261.005174 219.863273 
L 261.184061 219.383091 
L 261.541834 217.942545 
L 261.72072 217.462364 
L 262.436267 214.101091 
L 262.615153 213.620909 
L 262.79404 212.660545 
L 262.972927 212.660545 
L 263.3307 211.22 
L 263.509587 210.739818 
L 264.046246 208.338909 
L 264.582906 206.898364 
L 264.761793 206.898364 
L 264.940679 206.418182 
L 265.835113 206.418182 
L 266.192886 207.378545 
L 274.779443 207.378545 
L 274.95833 206.898364 
L 275.49499 206.898364 
L 275.673876 206.418182 
L 278.178289 206.418182 
L 278.357176 206.898364 
L 278.536062 206.418182 
L 278.714949 206.418182 
L 278.893835 206.898364 
L 279.251609 206.898364 
L 279.430495 207.378545 
L 279.609382 206.898364 
L 279.788269 207.378545 
L 279.967155 207.378545 
L 280.146042 207.858727 
L 280.324928 207.858727 
L 280.503815 208.338909 
L 281.756021 215.541636 
L 282.292681 220.343455 
L 282.650454 223.704727 
L 282.829341 224.665091 
L 283.008228 224.184909 
L 283.187114 224.184909 
L 283.366001 224.665091 
L 283.544887 224.184909 
L 284.439321 224.184909 
L 284.618207 224.665091 
L 305.905714 224.665091 
L 306.084601 225.145273 
L 306.263488 224.665091 
L 306.800147 224.665091 
L 306.979034 225.145273 
L 307.157921 224.665091 
L 307.336807 224.665091 
L 307.515694 225.145273 
L 309.483447 225.145273 
L 309.662333 225.625455 
L 311.093426 225.625455 
L 311.987859 220.343455 
L 312.524519 214.101091 
L 313.418952 206.898364 
L 313.597839 206.418182 
L 314.313385 206.418182 
L 314.492272 206.898364 
L 315.386705 206.898364 
L 315.565591 206.418182 
L 315.744478 206.898364 
L 315.923365 206.418182 
L 316.102251 206.418182 
L 316.281138 206.898364 
L 316.460025 206.418182 
L 316.638911 206.418182 
L 316.817798 206.898364 
L 317.891117 206.898364 
L 318.070004 207.378545 
L 320.753303 207.378545 
L 320.93219 207.858727 
L 321.111077 207.378545 
L 321.289963 207.858727 
L 321.46885 207.378545 
L 322.363283 207.378545 
L 322.542169 206.898364 
L 322.721056 207.378545 
L 322.899943 206.898364 
L 323.257716 206.898364 
L 323.436603 206.418182 
L 323.615489 206.418182 
L 323.794376 206.898364 
L 323.973262 206.418182 
L 324.152149 206.898364 
L 324.688809 206.898364 
L 324.867695 206.418182 
L 325.046582 206.898364 
L 325.941015 206.898364 
L 326.119902 206.418182 
L 326.298788 206.898364 
L 327.014335 206.898364 
L 327.193221 207.378545 
L 328.087655 207.378545 
L 328.266541 207.858727 
L 328.624314 207.858727 
L 330.592067 218.902909 
L 330.94984 221.303818 
L 331.128727 222.264182 
L 332.55982 222.264182 
L 332.738707 222.744364 
L 332.917593 222.264182 
L 339.715284 222.264182 
L 339.894171 222.744364 
L 356.8884 222.744364 
L 357.067286 222.264182 
L 357.425059 222.264182 
L 357.782833 220.823636 
L 357.961719 220.343455 
L 358.319492 218.902909 
L 358.498379 218.902909 
L 359.929472 215.061455 
L 360.287245 213.620909 
L 360.466132 213.140727 
L 360.823905 211.700182 
L 361.002792 211.22 
L 361.539451 208.819091 
L 361.897225 207.858727 
L 370.483782 207.858727 
L 370.662669 207.378545 
L 370.841555 207.858727 
L 371.020442 207.378545 
L 371.199329 207.378545 
L 371.378215 207.858727 
L 371.557102 207.378545 
L 373.882628 207.378545 
L 374.061515 207.858727 
L 374.240401 207.378545 
L 374.419288 207.858727 
L 374.598174 207.378545 
L 374.777061 207.858727 
L 375.313721 207.858727 
L 375.492607 207.378545 
L 375.671494 207.858727 
L 375.850381 207.378545 
L 376.029267 207.858727 
L 376.9237 207.858727 
L 377.102587 207.378545 
L 377.281474 207.858727 
L 379.785886 207.858727 
L 379.964773 208.338909 
L 380.143659 208.338909 
L 380.322546 208.819091 
L 380.501433 208.819091 
L 380.680319 209.299273 
L 380.859206 209.299273 
L 381.038093 209.779455 
L 381.574752 209.779455 
L 381.753639 210.259636 
L 382.469185 210.259636 
L 382.648072 209.779455 
L 382.826959 210.259636 
L 383.005845 209.779455 
L 383.184732 210.259636 
L 383.542505 210.259636 
L 383.721392 209.779455 
L 383.900278 209.779455 
L 384.079165 210.259636 
L 384.258052 209.779455 
L 384.436938 210.259636 
L 384.615825 210.259636 
L 384.794711 209.779455 
L 384.973598 210.259636 
L 385.152485 210.259636 
L 385.331371 209.779455 
L 385.510258 210.259636 
L 386.046918 210.259636 
L 386.225804 209.779455 
L 386.404691 210.259636 
L 386.583578 210.259636 
L 386.762464 209.779455 
L 386.941351 210.259636 
L 387.120237 210.259636 
L 387.299124 209.779455 
L 387.478011 210.259636 
L 387.656897 209.779455 
L 387.835784 210.259636 
L 388.730217 210.259636 
L 388.909104 209.779455 
L 389.08799 209.779455 
L 389.266877 210.259636 
L 389.445763 209.779455 
L 389.62465 210.259636 
L 389.982423 210.259636 
L 390.16131 209.779455 
L 390.340196 210.259636 
L 390.69797 210.259636 
L 390.876856 209.779455 
L 391.055743 210.259636 
L 391.23463 210.259636 
L 391.413516 209.779455 
L 391.592403 210.259636 
L 391.771289 209.779455 
L 391.950176 210.259636 
L 393.560156 210.259636 
L 393.739042 209.779455 
L 393.917929 209.779455 
L 394.096815 210.259636 
L 394.275702 209.779455 
L 394.633475 209.779455 
L 394.812362 210.259636 
L 394.991248 209.779455 
L 395.170135 209.779455 
L 395.349022 210.259636 
L 395.527908 210.259636 
L 395.706795 209.779455 
L 395.885682 210.259636 
L 397.137888 210.259636 
L 397.316774 209.779455 
L 397.495661 210.259636 
L 397.853434 210.259636 
L 398.032321 209.779455 
L 398.211208 210.259636 
L 398.390094 209.779455 
L 398.568981 210.259636 
L 399.105641 210.259636 
L 399.284527 209.779455 
L 399.463414 210.259636 
L 399.6423 210.259636 
L 399.821187 209.779455 
L 400.000074 210.259636 
L 402.3256 210.259636 
L 402.504486 209.779455 
L 402.683373 209.779455 
L 402.86226 210.259636 
L 403.041146 209.779455 
L 403.220033 210.259636 
L 403.398919 209.779455 
L 403.577806 210.259636 
L 403.756693 210.259636 
L 403.935579 209.779455 
L 404.114466 210.259636 
L 404.293352 209.779455 
L 405.366672 209.779455 
L 405.545559 210.259636 
L 405.724445 210.259636 
L 405.903332 209.779455 
L 406.082219 210.259636 
L 406.618878 210.259636 
L 406.797765 209.779455 
L 406.976652 209.779455 
L 407.155538 210.259636 
L 407.334425 210.259636 
L 407.513312 209.779455 
L 408.407745 209.779455 
L 408.586631 210.259636 
L 408.765518 209.779455 
L 410.554384 209.779455 
L 410.733271 209.299273 
L 411.80659 209.299273 
L 411.985477 208.819091 
L 412.164363 209.299273 
L 412.34325 208.819091 
L 413.058797 208.819091 
L 413.237683 208.338909 
L 413.41657 208.819091 
L 413.774343 208.819091 
L 413.95323 208.338909 
L 419.498715 208.338909 
L 419.677601 207.858727 
L 420.035375 207.858727 
L 420.214261 208.338909 
L 423.076447 208.338909 
L 423.255334 207.858727 
L 423.43422 208.338909 
L 423.791993 208.338909 
L 423.97088 207.858727 
L 424.328653 207.858727 
L 424.50754 208.338909 
L 424.686427 207.858727 
L 425.401973 207.858727 
L 425.58086 208.338909 
L 430.410798 208.338909 
L 430.589685 208.819091 
L 430.768571 208.338909 
L 431.663005 208.338909 
L 431.841891 208.819091 
L 432.020778 208.338909 
L 432.199664 208.819091 
L 432.378551 208.338909 
L 433.451871 208.338909 
L 434.167417 206.418182 
L 434.346304 206.418182 
L 435.240737 204.017273 
L 435.777397 201.616364 
L 435.956283 201.136182 
L 436.314056 198.735273 
L 436.492943 198.255091 
L 436.850716 196.814545 
L 437.20849 197.774909 
L 437.924036 197.774909 
L 438.102923 198.255091 
L 438.997356 198.255091 
L 439.176242 198.735273 
L 442.932861 198.735273 
L 443.111748 199.215455 
L 443.290634 198.735273 
L 443.469521 198.735273 
L 443.648408 199.215455 
L 443.827294 198.735273 
L 446.15282 198.735273 
L 446.331707 199.215455 
L 446.68948 199.215455 
L 446.868367 198.735273 
L 447.047253 198.735273 
L 447.22614 199.215455 
L 447.405027 198.735273 
L 449.372779 198.735273 
L 449.551666 199.215455 
L 449.730553 198.735273 
L 461.715956 198.735273 
L 461.894842 198.255091 
L 462.073729 198.255091 
L 462.252616 198.735273 
L 462.431502 198.255091 
L 464.220368 198.255091 
L 464.399255 197.774909 
L 465.472575 197.774909 
L 465.651461 198.255091 
L 465.830348 198.255091 
L 466.009235 198.735273 
L 466.188121 198.735273 
L 467.082554 201.136182 
L 467.261441 201.136182 
L 467.440327 201.616364 
L 467.619214 201.136182 
L 467.976987 201.136182 
L 468.334761 202.096545 
L 468.513647 202.096545 
L 469.40808 204.497455 
L 469.586967 204.497455 
L 469.765853 204.977636 
L 469.94474 204.977636 
L 470.123627 205.457818 
L 470.660287 205.457818 
L 471.196946 206.898364 
L 471.375833 207.858727 
L 471.55472 207.858727 
L 471.733606 208.338909 
L 471.912493 208.338909 
L 472.091379 208.819091 
L 476.384658 208.819091 
L 476.563545 208.338909 
L 476.742431 208.819091 
L 477.100205 208.819091 
L 477.279091 208.338909 
L 477.457978 208.819091 
L 477.636865 208.338909 
L 477.815751 208.819091 
L 477.994638 208.338909 
L 478.173524 208.819091 
L 478.710184 208.819091 
L 478.889071 208.338909 
L 479.067957 208.819091 
L 483.540123 208.819091 
L 483.719009 208.338909 
L 483.897896 208.819091 
L 484.076783 208.338909 
L 484.255669 208.819091 
L 485.150102 208.819091 
L 485.328989 208.338909 
L 485.507876 208.338909 
L 485.686762 208.819091 
L 485.865649 208.819091 
L 486.044535 208.338909 
L 486.223422 208.819091 
L 486.402309 208.819091 
L 486.581195 208.338909 
L 486.760082 208.338909 
L 486.938968 208.819091 
L 487.117855 208.338909 
L 487.296742 208.819091 
L 487.475628 208.338909 
L 491.768907 208.338909 
L 491.947794 208.819091 
L 492.12668 208.338909 
L 493.2 208.338909 
L 493.2 208.338909 
" clip-path="url(#pb29893b151)" style="fill: none; stroke: #1f77b4; stroke-width: 1.5; stroke-linecap: square"/>
   </g>
   <g id="line2d_24">
    <path d="M 56.18 211.22 
L 493.2 211.22 
" clip-path="url(#pb29893b151)" style="fill: none; stroke-dasharray: 2.96,1.28; stroke-dashoffset: 0; stroke: #808080; stroke-width: 0.8"/>
   </g>
   <g id="patch_6">
    <path d="M 56.18 264.04 
L 56.18 158.4 
" style="fill: none; stroke: #000000; stroke-width: 0.8; stroke-linejoin: miter; stroke-linecap: square"/>
   </g>
   <g id="patch_7">
    <path d="M 56.18 264.04 
L 493.2 264.04 
" style="fill: none; stroke: #000000; stroke-width: 0.8; stroke-linejoin: miter; stroke-linecap: square"/>
   </g>
  </g>
 </g>
 <defs>
  <clipPath id="pe701989929">
   <rect x="56.18" y="10.8" width="437.02" height="105.64"/>
  </clipPath>
  <clipPath id="pb29893b151">
   <rect x="56.18" y="158.4" width="437.02" height="105.64"/>
  </clipPath>
 </defs>
</svg>
