<?xml version="1.0" encoding="utf-8" standalone="no"?>
<!DOCTYPE svg PUBLIC "-//W3C//DTD SVG 1.1//EN"
  "http://www.w3.org/Graphics/SVG/1.1/DTD/svg11.dtd">
<svg xmlns:xlink="http://www.w3.org/1999/xlink" width="504pt" height="306pt" viewBox="0 0 504 306" xmlns="http://www.w3.org/2000/svg" version="1.1">
 <metadata>
  <rdf:RDF xmlns:dc="http://purl.org/dc/elements/1.1/" xmlns:cc="http://creativecommons.org/ns#" xmlns:rdf="http://www.w3.org/1999/02/22-rdf-syntax-ns#">
   <cc:Work>
    <dc:type rdf:resource="http://purl.org/dc/dcmitype/StillImage"/>
    <dc:date>2024-06-16T21:02:20.030203</dc:date>
    <dc:format>image/svg+xml</dc:format>
    <dc:creator>
     <cc:Agent>
      <dc:title>Matplotlib v3.8.3, https://matplotlib.org/</dc:title>
     </cc:Agent>
    </dc:creator>
   </cc:Work>
  </rdf:RDF>
 </metadata>
 <defs>
  <style type="text/css">*{stroke-linejoin: round; stroke-linecap: butt}</style>
 </defs>
 <g id="figure_1">
  <g id="patch_1">
   <path d="M 0 306 
L 504 306 
L 504 0 
L 0 0 
z
" style="fill: #ffffff"/>
  </g>
  <g id="axes_1">
   <g id="patch_2">
    <path d="M 56.18 116.44 
L 493.2 116.44 
L 493.2 10.8 
L 56.18 10.8 
z
" style="fill: #ffffff"/>
   </g>
   <g id="matplotlib.axis_1">
    <g id="xtick_1">
     <g id="line2d_1">
      <defs>
       <path id="m1d9d1db77d" d="M 0 0 
L 0 3.5 
" style="stroke: #000000; stroke-width: 0.8"/>
      </defs>
      <g>
       <use xlink:href="#m1d9d1db77d" x="56.18" y="116.44" style="stroke: #000000; stroke-width: 0.8"/>
      </g>
     </g>
     <g id="text_1">
      <!-- 0 -->
      <g transform="translate(52.99875 131.038437) scale(0.1 -0.1)">
       <defs>
        <path id="DejaVuSans-30" d="M 2034 4250 
Q 1547 4250 1301 3770 
Q 1056 3291 1056 2328 
Q 1056 1369 1301 889 
Q 1547 409 2034 409 
Q 2525 409 2770 889 
Q 3016 1369 3016 2328 
Q 3016 3291 2770 3770 
Q 2525 4250 2034 4250 
z
M 2034 4750 
Q 2819 4750 3233 4129 
Q 3647 3509 3647 2328 
Q 3647 1150 3233 529 
Q 2819 -91 2034 -91 
Q 1250 -91 836 529 
Q 422 1150 422 2328 
Q 422 3509 836 4129 
Q 1250 4750 2034 4750 
z
" transform="scale(0.015625)"/>
       </defs>
       <use xlink:href="#DejaVuSans-30"/>
      </g>
     </g>
    </g>
    <g id="xtick_2">
     <g id="line2d_2">
      <g>
       <use xlink:href="#m1d9d1db77d" x="148.651435" y="116.44" style="stroke: #000000; stroke-width: 0.8"/>
      </g>
     </g>
     <g id="text_2">
      <!-- 5000 -->
      <g transform="translate(135.926435 131.038437) scale(0.1 -0.1)">
       <defs>
        <path id="DejaVuSans-35" d="M 691 4666 
L 3169 4666 
L 3169 4134 
L 1269 4134 
L 1269 2991 
Q 1406 3038 1543 3061 
Q 1681 3084 1819 3084 
Q 2600 3084 3056 2656 
Q 3513 2228 3513 1497 
Q 3513 744 3044 326 
Q 2575 -91 1722 -91 
Q 1428 -91 1123 -41 
Q 819 9 494 109 
L 494 744 
Q 775 591 1075 516 
Q 1375 441 1709 441 
Q 2250 441 2565 725 
Q 2881 1009 2881 1497 
Q 2881 1984 2565 2268 
Q 2250 2553 1709 2553 
Q 1456 2553 1204 2497 
Q 953 2441 691 2322 
L 691 4666 
z
" transform="scale(0.015625)"/>
       </defs>
       <use xlink:href="#DejaVuSans-35"/>
       <use xlink:href="#DejaVuSans-30" x="63.623047"/>
       <use xlink:href="#DejaVuSans-30" x="127.246094"/>
       <use xlink:href="#DejaVuSans-30" x="190.869141"/>
      </g>
     </g>
    </g>
    <g id="xtick_3">
     <g id="line2d_3">
      <g>
       <use xlink:href="#m1d9d1db77d" x="241.122869" y="116.44" style="stroke: #000000; stroke-width: 0.8"/>
      </g>
     </g>
     <g id="text_3">
      <!-- 10000 -->
      <g transform="translate(225.216619 131.038437) scale(0.1 -0.1)">
       <defs>
        <path id="DejaVuSans-31" d="M 794 531 
L 1825 531 
L 1825 4091 
L 703 3866 
L 703 4441 
L 1819 4666 
L 2450 4666 
L 2450 531 
L 3481 531 
L 3481 0 
L 794 0 
L 794 531 
z
" transform="scale(0.015625)"/>
       </defs>
       <use xlink:href="#DejaVuSans-31"/>
       <use xlink:href="#DejaVuSans-30" x="63.623047"/>
       <use xlink:href="#DejaVuSans-30" x="127.246094"/>
       <use xlink:href="#DejaVuSans-30" x="190.869141"/>
       <use xlink:href="#DejaVuSans-30" x="254.492188"/>
      </g>
     </g>
    </g>
    <g id="xtick_4">
     <g id="line2d_4">
      <g>
       <use xlink:href="#m1d9d1db77d" x="333.594304" y="116.44" style="stroke: #000000; stroke-width: 0.8"/>
      </g>
     </g>
     <g id="text_4">
      <!-- 15000 -->
      <g transform="translate(317.688054 131.038437) scale(0.1 -0.1)">
       <use xlink:href="#DejaVuSans-31"/>
       <use xlink:href="#DejaVuSans-35" x="63.623047"/>
       <use xlink:href="#DejaVuSans-30" x="127.246094"/>
       <use xlink:href="#DejaVuSans-30" x="190.869141"/>
       <use xlink:href="#DejaVuSans-30" x="254.492188"/>
      </g>
     </g>
    </g>
    <g id="xtick_5">
     <g id="line2d_5">
      <g>
       <use xlink:href="#m1d9d1db77d" x="426.065738" y="116.44" style="stroke: #000000; stroke-width: 0.8"/>
      </g>
     </g>
     <g id="text_5">
      <!-- 20000 -->
      <g transform="translate(410.159488 131.038437) scale(0.1 -0.1)">
       <defs>
        <path id="DejaVuSans-32" d="M 1228 531 
L 3431 531 
L 3431 0 
L 469 0 
L 469 531 
Q 828 903 1448 1529 
Q 2069 2156 2228 2338 
Q 2531 2678 2651 2914 
Q 2772 3150 2772 3378 
Q 2772 3750 2511 3984 
Q 2250 4219 1831 4219 
Q 1534 4219 1204 4116 
Q 875 4013 500 3803 
L 500 4441 
Q 881 4594 1212 4672 
Q 1544 4750 1819 4750 
Q 2544 4750 2975 4387 
Q 3406 4025 3406 3419 
Q 3406 3131 3298 2873 
Q 3191 2616 2906 2266 
Q 2828 2175 2409 1742 
Q 1991 1309 1228 531 
z
" transform="scale(0.015625)"/>
       </defs>
       <use xlink:href="#DejaVuSans-32"/>
       <use xlink:href="#DejaVuSans-30" x="63.623047"/>
       <use xlink:href="#DejaVuSans-30" x="127.246094"/>
       <use xlink:href="#DejaVuSans-30" x="190.869141"/>
       <use xlink:href="#DejaVuSans-30" x="254.492188"/>
      </g>
     </g>
    </g>
    <g id="text_6">
     <!-- Time (ms) -->
     <g transform="translate(249.490781 144.716562) scale(0.1 -0.1)">
      <defs>
       <path id="DejaVuSans-54" d="M -19 4666 
L 3928 4666 
L 3928 4134 
L 2272 4134 
L 2272 0 
L 1638 0 
L 1638 4134 
L -19 4134 
L -19 4666 
z
" transform="scale(0.015625)"/>
       <path id="DejaVuSans-69" d="M 603 3500 
L 1178 3500 
L 1178 0 
L 603 0 
L 603 3500 
z
M 603 4863 
L 1178 4863 
L 1178 4134 
L 603 4134 
L 603 4863 
z
" transform="scale(0.015625)"/>
       <path id="DejaVuSans-6d" d="M 3328 2828 
Q 3544 3216 3844 3400 
Q 4144 3584 4550 3584 
Q 5097 3584 5394 3201 
Q 5691 2819 5691 2113 
L 5691 0 
L 5113 0 
L 5113 2094 
Q 5113 2597 4934 2840 
Q 4756 3084 4391 3084 
Q 3944 3084 3684 2787 
Q 3425 2491 3425 1978 
L 3425 0 
L 2847 0 
L 2847 2094 
Q 2847 2600 2669 2842 
Q 2491 3084 2119 3084 
Q 1678 3084 1418 2786 
Q 1159 2488 1159 1978 
L 1159 0 
L 581 0 
L 581 3500 
L 1159 3500 
L 1159 2956 
Q 1356 3278 1631 3431 
Q 1906 3584 2284 3584 
Q 2666 3584 2933 3390 
Q 3200 3197 3328 2828 
z
" transform="scale(0.015625)"/>
       <path id="DejaVuSans-65" d="M 3597 1894 
L 3597 1613 
L 953 1613 
Q 991 1019 1311 708 
Q 1631 397 2203 397 
Q 2534 397 2845 478 
Q 3156 559 3463 722 
L 3463 178 
Q 3153 47 2828 -22 
Q 2503 -91 2169 -91 
Q 1331 -91 842 396 
Q 353 884 353 1716 
Q 353 2575 817 3079 
Q 1281 3584 2069 3584 
Q 2775 3584 3186 3129 
Q 3597 2675 3597 1894 
z
M 3022 2063 
Q 3016 2534 2758 2815 
Q 2500 3097 2075 3097 
Q 1594 3097 1305 2825 
Q 1016 2553 972 2059 
L 3022 2063 
z
" transform="scale(0.015625)"/>
       <path id="DejaVuSans-20" transform="scale(0.015625)"/>
       <path id="DejaVuSans-28" d="M 1984 4856 
Q 1566 4138 1362 3434 
Q 1159 2731 1159 2009 
Q 1159 1288 1364 580 
Q 1569 -128 1984 -844 
L 1484 -844 
Q 1016 -109 783 600 
Q 550 1309 550 2009 
Q 550 2706 781 3412 
Q 1013 4119 1484 4856 
L 1984 4856 
z
" transform="scale(0.015625)"/>
       <path id="DejaVuSans-73" d="M 2834 3397 
L 2834 2853 
Q 2591 2978 2328 3040 
Q 2066 3103 1784 3103 
Q 1356 3103 1142 2972 
Q 928 2841 928 2578 
Q 928 2378 1081 2264 
Q 1234 2150 1697 2047 
L 1894 2003 
Q 2506 1872 2764 1633 
Q 3022 1394 3022 966 
Q 3022 478 2636 193 
Q 2250 -91 1575 -91 
Q 1294 -91 989 -36 
Q 684 19 347 128 
L 347 722 
Q 666 556 975 473 
Q 1284 391 1588 391 
Q 1994 391 2212 530 
Q 2431 669 2431 922 
Q 2431 1156 2273 1281 
Q 2116 1406 1581 1522 
L 1381 1569 
Q 847 1681 609 1914 
Q 372 2147 372 2553 
Q 372 3047 722 3315 
Q 1072 3584 1716 3584 
Q 2034 3584 2315 3537 
Q 2597 3491 2834 3397 
z
" transform="scale(0.015625)"/>
       <path id="DejaVuSans-29" d="M 513 4856 
L 1013 4856 
Q 1481 4119 1714 3412 
Q 1947 2706 1947 2009 
Q 1947 1309 1714 600 
Q 1481 -109 1013 -844 
L 513 -844 
Q 928 -128 1133 580 
Q 1338 1288 1338 2009 
Q 1338 2731 1133 3434 
Q 928 4138 513 4856 
z
" transform="scale(0.015625)"/>
      </defs>
      <use xlink:href="#DejaVuSans-54"/>
      <use xlink:href="#DejaVuSans-69" x="57.958984"/>
      <use xlink:href="#DejaVuSans-6d" x="85.742188"/>
      <use xlink:href="#DejaVuSans-65" x="183.154297"/>
      <use xlink:href="#DejaVuSans-20" x="244.677734"/>
      <use xlink:href="#DejaVuSans-28" x="276.464844"/>
      <use xlink:href="#DejaVuSans-6d" x="315.478516"/>
      <use xlink:href="#DejaVuSans-73" x="412.890625"/>
      <use xlink:href="#DejaVuSans-29" x="464.990234"/>
     </g>
    </g>
   </g>
   <g id="matplotlib.axis_2">
    <g id="ytick_1">
     <g id="line2d_6">
      <defs>
       <path id="mc4f44a6867" d="M 0 0 
L -3.5 0 
" style="stroke: #000000; stroke-width: 0.8"/>
      </defs>
      <g>
       <use xlink:href="#mc4f44a6867" x="56.18" y="111.638182" style="stroke: #000000; stroke-width: 0.8"/>
      </g>
     </g>
     <g id="text_7">
      <!-- −1.0 -->
      <g transform="translate(24.897188 115.437401) scale(0.1 -0.1)">
       <defs>
        <path id="DejaVuSans-2212" d="M 678 2272 
L 4684 2272 
L 4684 1741 
L 678 1741 
L 678 2272 
z
" transform="scale(0.015625)"/>
        <path id="DejaVuSans-2e" d="M 684 794 
L 1344 794 
L 1344 0 
L 684 0 
L 684 794 
z
" transform="scale(0.015625)"/>
       </defs>
       <use xlink:href="#DejaVuSans-2212"/>
       <use xlink:href="#DejaVuSans-31" x="83.789062"/>
       <use xlink:href="#DejaVuSans-2e" x="147.412109"/>
       <use xlink:href="#DejaVuSans-30" x="179.199219"/>
      </g>
     </g>
    </g>
    <g id="ytick_2">
     <g id="line2d_7">
      <g>
       <use xlink:href="#mc4f44a6867" x="56.18" y="87.629091" style="stroke: #000000; stroke-width: 0.8"/>
      </g>
     </g>
     <g id="text_8">
      <!-- −0.5 -->
      <g transform="translate(24.897188 91.42831) scale(0.1 -0.1)">
       <use xlink:href="#DejaVuSans-2212"/>
       <use xlink:href="#DejaVuSans-30" x="83.789062"/>
       <use xlink:href="#DejaVuSans-2e" x="147.412109"/>
       <use xlink:href="#DejaVuSans-35" x="179.199219"/>
      </g>
     </g>
    </g>
    <g id="ytick_3">
     <g id="line2d_8">
      <g>
       <use xlink:href="#mc4f44a6867" x="56.18" y="63.62" style="stroke: #000000; stroke-width: 0.8"/>
      </g>
     </g>
     <g id="text_9">
      <!-- 0.0 -->
      <g transform="translate(33.276875 67.419219) scale(0.1 -0.1)">
       <use xlink:href="#DejaVuSans-30"/>
       <use xlink:href="#DejaVuSans-2e" x="63.623047"/>
       <use xlink:href="#DejaVuSans-30" x="95.410156"/>
      </g>
     </g>
    </g>
    <g id="ytick_4">
     <g id="line2d_9">
      <g>
       <use xlink:href="#mc4f44a6867" x="56.18" y="39.610909" style="stroke: #000000; stroke-width: 0.8"/>
      </g>
     </g>
     <g id="text_10">
      <!-- 0.5 -->
      <g transform="translate(33.276875 43.410128) scale(0.1 -0.1)">
       <use xlink:href="#DejaVuSans-30"/>
       <use xlink:href="#DejaVuSans-2e" x="63.623047"/>
       <use xlink:href="#DejaVuSans-35" x="95.410156"/>
      </g>
     </g>
    </g>
    <g id="ytick_5">
     <g id="line2d_10">
      <g>
       <use xlink:href="#mc4f44a6867" x="56.18" y="15.601818" style="stroke: #000000; stroke-width: 0.8"/>
      </g>
     </g>
     <g id="text_11">
      <!-- 1.0 -->
      <g transform="translate(33.276875 19.401037) scale(0.1 -0.1)">
       <use xlink:href="#DejaVuSans-31"/>
       <use xlink:href="#DejaVuSans-2e" x="63.623047"/>
       <use xlink:href="#DejaVuSans-30" x="95.410156"/>
      </g>
     </g>
    </g>
    <g id="text_12">
     <!-- X-Axis Value -->
     <g transform="translate(18.8175 94.180156) rotate(-90) scale(0.1 -0.1)">
      <defs>
       <path id="DejaVuSans-58" d="M 403 4666 
L 1081 4666 
L 2241 2931 
L 3406 4666 
L 4084 4666 
L 2584 2425 
L 4184 0 
L 3506 0 
L 2194 1984 
L 872 0 
L 191 0 
L 1856 2491 
L 403 4666 
z
" transform="scale(0.015625)"/>
       <path id="DejaVuSans-2d" d="M 313 2009 
L 1997 2009 
L 1997 1497 
L 313 1497 
L 313 2009 
z
" transform="scale(0.015625)"/>
       <path id="DejaVuSans-41" d="M 2188 4044 
L 1331 1722 
L 3047 1722 
L 2188 4044 
z
M 1831 4666 
L 2547 4666 
L 4325 0 
L 3669 0 
L 3244 1197 
L 1141 1197 
L 716 0 
L 50 0 
L 1831 4666 
z
" transform="scale(0.015625)"/>
       <path id="DejaVuSans-78" d="M 3513 3500 
L 2247 1797 
L 3578 0 
L 2900 0 
L 1881 1375 
L 863 0 
L 184 0 
L 1544 1831 
L 300 3500 
L 978 3500 
L 1906 2253 
L 2834 3500 
L 3513 3500 
z
" transform="scale(0.015625)"/>
       <path id="DejaVuSans-56" d="M 1831 0 
L 50 4666 
L 709 4666 
L 2188 738 
L 3669 4666 
L 4325 4666 
L 2547 0 
L 1831 0 
z
" transform="scale(0.015625)"/>
       <path id="DejaVuSans-61" d="M 2194 1759 
Q 1497 1759 1228 1600 
Q 959 1441 959 1056 
Q 959 750 1161 570 
Q 1363 391 1709 391 
Q 2188 391 2477 730 
Q 2766 1069 2766 1631 
L 2766 1759 
L 2194 1759 
z
M 3341 1997 
L 3341 0 
L 2766 0 
L 2766 531 
Q 2569 213 2275 61 
Q 1981 -91 1556 -91 
Q 1019 -91 701 211 
Q 384 513 384 1019 
Q 384 1609 779 1909 
Q 1175 2209 1959 2209 
L 2766 2209 
L 2766 2266 
Q 2766 2663 2505 2880 
Q 2244 3097 1772 3097 
Q 1472 3097 1187 3025 
Q 903 2953 641 2809 
L 641 3341 
Q 956 3463 1253 3523 
Q 1550 3584 1831 3584 
Q 2591 3584 2966 3190 
Q 3341 2797 3341 1997 
z
" transform="scale(0.015625)"/>
       <path id="DejaVuSans-6c" d="M 603 4863 
L 1178 4863 
L 1178 0 
L 603 0 
L 603 4863 
z
" transform="scale(0.015625)"/>
       <path id="DejaVuSans-75" d="M 544 1381 
L 544 3500 
L 1119 3500 
L 1119 1403 
Q 1119 906 1312 657 
Q 1506 409 1894 409 
Q 2359 409 2629 706 
Q 2900 1003 2900 1516 
L 2900 3500 
L 3475 3500 
L 3475 0 
L 2900 0 
L 2900 538 
Q 2691 219 2414 64 
Q 2138 -91 1772 -91 
Q 1169 -91 856 284 
Q 544 659 544 1381 
z
M 1991 3584 
L 1991 3584 
z
" transform="scale(0.015625)"/>
      </defs>
      <use xlink:href="#DejaVuSans-58"/>
      <use xlink:href="#DejaVuSans-2d" x="63.505859"/>
      <use xlink:href="#DejaVuSans-41" x="97.339844"/>
      <use xlink:href="#DejaVuSans-78" x="165.748047"/>
      <use xlink:href="#DejaVuSans-69" x="224.927734"/>
      <use xlink:href="#DejaVuSans-73" x="252.710938"/>
      <use xlink:href="#DejaVuSans-20" x="304.810547"/>
      <use xlink:href="#DejaVuSans-56" x="336.597656"/>
      <use xlink:href="#DejaVuSans-61" x="397.255859"/>
      <use xlink:href="#DejaVuSans-6c" x="458.535156"/>
      <use xlink:href="#DejaVuSans-75" x="486.318359"/>
      <use xlink:href="#DejaVuSans-65" x="549.697266"/>
     </g>
    </g>
   </g>
   <g id="line2d_11">
    <path d="M 56.18 63.139818 
L 62.468058 63.139818 
L 62.653 63.62 
L 63.392772 63.62 
L 63.577715 63.139818 
L 66.906686 63.139818 
L 67.091629 62.659636 
L 67.461515 62.659636 
L 67.646458 62.179455 
L 67.831401 62.659636 
L 69.310944 62.659636 
L 69.495887 63.139818 
L 70.97543 63.139818 
L 71.160372 62.659636 
L 72.085087 62.659636 
L 72.27003 62.179455 
L 72.824858 62.179455 
L 73.009801 61.699273 
L 73.194744 62.179455 
L 73.56463 62.179455 
L 73.749573 61.699273 
L 77.078544 61.699273 
L 77.263487 62.179455 
L 77.44843 61.699273 
L 81.517173 61.699273 
L 81.702116 62.179455 
L 81.887059 61.699273 
L 90.764317 61.699273 
L 90.949259 62.179455 
L 91.689031 62.179455 
L 91.873974 61.699273 
L 92.058917 61.699273 
L 92.24386 62.179455 
L 92.983631 62.179455 
L 93.168574 61.699273 
L 93.353517 62.179455 
L 94.093288 62.179455 
L 94.278231 61.699273 
L 94.463174 62.179455 
L 94.648117 62.179455 
L 94.83306 61.699273 
L 95.018003 62.179455 
L 96.312603 62.179455 
L 96.497545 61.699273 
L 96.682488 62.179455 
L 97.977088 62.179455 
L 98.162031 61.699273 
L 98.346974 62.179455 
L 99.271689 62.179455 
L 99.456631 61.699273 
L 99.641574 62.179455 
L 101.675946 62.179455 
L 101.860889 61.699273 
L 102.045832 62.179455 
L 102.230774 61.699273 
L 102.415717 62.179455 
L 105.18986 62.179455 
L 105.374803 62.659636 
L 105.929632 62.659636 
L 106.114575 63.139818 
L 121.094947 63.139818 
L 121.27989 63.62 
L 122.389547 63.62 
L 122.57449 63.139818 
L 122.759433 63.139818 
L 122.944376 62.659636 
L 123.129319 62.659636 
L 123.314262 62.179455 
L 123.499204 62.179455 
L 124.054033 60.738909 
L 124.423919 58.818182 
L 124.793804 55.456909 
L 125.16369 53.056 
L 125.903462 46.333455 
L 126.088405 45.373091 
L 141.438663 45.373091 
L 141.623606 44.892909 
L 141.808548 45.373091 
L 142.918206 45.373091 
L 143.103149 44.892909 
L 143.288091 45.373091 
L 153.644892 45.373091 
L 153.829835 45.853273 
L 154.199721 47.293818 
L 154.384664 47.774 
L 155.124435 51.135273 
L 155.309378 51.615455 
L 155.864207 54.016364 
L 156.049149 54.496545 
L 156.603978 56.897455 
L 156.788921 57.377636 
L 157.158807 58.818182 
L 157.528692 59.778545 
L 157.898578 61.219091 
L 158.268464 62.179455 
L 158.453407 62.179455 
L 158.63835 62.659636 
L 159.008235 62.659636 
L 159.193178 63.139818 
L 159.378121 62.659636 
L 159.563064 63.139818 
L 171.029522 63.139818 
L 171.214465 63.62 
L 172.324122 63.62 
L 172.509065 64.100182 
L 173.618722 64.100182 
L 173.803665 63.62 
L 175.098265 63.62 
L 175.653094 62.179455 
L 176.022979 60.258727 
L 176.577808 53.536182 
L 177.317579 43.452364 
L 177.502522 43.932545 
L 189.708752 43.932545 
L 189.893694 44.412727 
L 190.078637 43.932545 
L 195.441981 43.932545 
L 195.626923 43.452364 
L 195.811866 43.452364 
L 195.996809 43.932545 
L 196.181752 43.452364 
L 196.366695 43.452364 
L 196.551638 43.932545 
L 196.921523 43.932545 
L 197.106466 43.452364 
L 197.846238 43.452364 
L 198.031181 43.932545 
L 198.216124 43.452364 
L 198.586009 43.452364 
L 198.770952 43.932545 
L 198.955895 43.452364 
L 201.175209 43.452364 
L 201.360152 42.972182 
L 201.545095 43.452364 
L 201.730038 42.972182 
L 201.914981 43.452364 
L 202.099924 43.452364 
L 202.46981 44.412727 
L 202.654752 45.373091 
L 203.209581 50.174909 
L 203.579467 52.575818 
L 203.76441 53.056 
L 204.134295 54.496545 
L 204.504181 55.456909 
L 205.243953 58.818182 
L 205.983724 60.738909 
L 206.168667 60.738909 
L 206.35361 61.219091 
L 206.908438 61.219091 
L 207.278324 62.659636 
L 207.64821 62.659636 
L 207.833153 63.139818 
L 208.018096 62.659636 
L 211.901896 62.659636 
L 212.086839 62.179455 
L 212.271782 62.659636 
L 212.456725 62.659636 
L 212.641667 62.179455 
L 212.82661 62.659636 
L 213.011553 62.659636 
L 213.196496 62.179455 
L 213.381439 62.659636 
L 213.751325 62.659636 
L 213.936267 62.179455 
L 214.12121 62.179455 
L 214.306153 62.659636 
L 214.676039 62.659636 
L 214.860982 62.179455 
L 215.045925 62.659636 
L 215.230868 62.179455 
L 219.484554 62.179455 
L 219.669496 62.659636 
L 220.594211 62.659636 
L 220.779154 63.139818 
L 221.518925 63.139818 
L 221.703868 63.62 
L 221.888811 63.139818 
L 222.073754 63.62 
L 225.587668 63.62 
L 225.772611 64.100182 
L 226.697325 64.100182 
L 227.252154 62.659636 
L 227.437097 62.659636 
L 227.991926 59.778545 
L 228.361811 54.976727 
L 228.546754 50.655091 
L 228.731697 51.135273 
L 229.286526 51.135273 
L 229.471468 51.615455 
L 229.841354 51.615455 
L 230.026297 52.095636 
L 230.21124 51.615455 
L 232.80044 51.615455 
L 232.985383 52.095636 
L 233.170326 51.615455 
L 234.834812 51.615455 
L 235.019755 52.095636 
L 235.204697 51.615455 
L 238.718612 51.615455 
L 238.903555 52.095636 
L 239.088498 51.615455 
L 241.492755 51.615455 
L 241.677698 52.095636 
L 241.862641 51.615455 
L 243.712069 51.615455 
L 243.897012 52.095636 
L 244.081955 51.615455 
L 244.636784 51.615455 
L 244.821727 52.095636 
L 245.191612 52.095636 
L 245.376555 51.615455 
L 245.561498 51.615455 
L 245.746441 52.095636 
L 245.931384 51.615455 
L 246.30127 51.615455 
L 246.486212 52.095636 
L 246.671155 51.615455 
L 247.041041 51.615455 
L 247.225984 52.095636 
L 247.410927 51.615455 
L 251.109784 51.615455 
L 251.294727 51.135273 
L 251.47967 51.615455 
L 251.664613 51.135273 
L 252.219441 51.135273 
L 252.589327 52.095636 
L 252.77427 52.095636 
L 253.329099 53.536182 
L 253.698984 54.976727 
L 254.06887 55.937091 
L 254.438756 57.377636 
L 254.993584 58.818182 
L 255.548413 61.219091 
L 255.918299 62.179455 
L 256.288185 63.62 
L 256.65807 64.580364 
L 256.843013 64.580364 
L 257.027956 64.100182 
L 257.212899 64.580364 
L 257.95267 64.580364 
L 258.137613 64.100182 
L 259.987042 64.100182 
L 260.171985 63.62 
L 260.541871 63.62 
L 260.726813 64.100182 
L 260.911756 63.62 
L 264.795556 63.62 
L 264.980499 64.100182 
L 265.165442 63.62 
L 265.720271 63.62 
L 265.905214 64.100182 
L 269.604071 64.100182 
L 269.789014 63.62 
L 269.973957 64.100182 
L 270.343843 64.100182 
L 270.528785 64.580364 
L 270.713728 64.100182 
L 271.083614 64.100182 
L 271.268557 64.580364 
L 271.4535 64.580364 
L 271.638443 64.100182 
L 271.823386 64.580364 
L 272.008328 64.100182 
L 272.933043 64.100182 
L 273.117986 64.580364 
L 273.302928 64.100182 
L 275.707186 64.100182 
L 275.892129 64.580364 
L 276.077072 64.100182 
L 276.262014 64.580364 
L 276.6319 64.580364 
L 276.816843 64.100182 
L 277.001786 64.580364 
L 278.666272 64.580364 
L 278.851215 64.100182 
L 279.775929 64.100182 
L 279.960872 64.580364 
L 282.919958 64.580364 
L 283.104901 64.100182 
L 283.289843 64.580364 
L 285.139272 64.580364 
L 285.324215 64.100182 
L 285.509158 64.580364 
L 285.694101 64.580364 
L 285.879044 64.100182 
L 286.063986 64.580364 
L 301.044359 64.580364 
L 301.229302 65.060545 
L 301.414245 65.060545 
L 301.599187 64.580364 
L 301.78413 65.060545 
L 302.154016 65.060545 
L 302.338959 64.580364 
L 302.523902 65.060545 
L 302.893788 65.060545 
L 303.07873 64.580364 
L 303.263673 65.060545 
L 303.448616 64.580364 
L 303.633559 65.060545 
L 303.818502 64.580364 
L 307.332416 64.580364 
L 307.517359 64.100182 
L 307.702302 64.580364 
L 309.551731 64.580364 
L 309.736674 64.100182 
L 313.620474 64.100182 
L 313.805417 63.62 
L 313.99036 64.100182 
L 314.360245 64.100182 
L 314.545188 63.62 
L 316.209674 63.62 
L 316.394617 64.100182 
L 321.942903 64.100182 
L 322.127846 64.580364 
L 322.312789 64.100182 
L 323.237503 64.100182 
L 323.422446 64.580364 
L 323.792332 64.580364 
L 323.977275 64.100182 
L 324.162218 64.580364 
L 324.34716 64.100182 
L 324.532103 64.580364 
L 326.381532 64.580364 
L 326.566475 65.060545 
L 327.121303 65.060545 
L 327.676132 66.501091 
L 328.600846 74.184 
L 329.155675 78.985818 
L 329.525561 80.426364 
L 331.929818 80.426364 
L 332.114761 80.906545 
L 332.484647 80.906545 
L 332.66959 80.426364 
L 332.854532 80.906545 
L 334.888904 80.906545 
L 335.073847 80.426364 
L 335.25879 80.906545 
L 335.443733 80.426364 
L 335.628675 80.906545 
L 335.813618 80.906545 
L 335.998561 80.426364 
L 336.183504 80.426364 
L 336.368447 80.906545 
L 336.738333 80.906545 
L 336.923275 80.426364 
L 337.108218 80.906545 
L 337.293161 80.426364 
L 337.478104 80.906545 
L 337.663047 80.906545 
L 337.84799 80.426364 
L 338.402818 80.426364 
L 338.587761 80.906545 
L 338.772704 80.426364 
L 338.957647 80.906545 
L 339.14259 80.426364 
L 339.327533 80.906545 
L 339.512476 80.906545 
L 339.697419 80.426364 
L 339.882361 80.906545 
L 340.067304 80.906545 
L 340.252247 80.426364 
L 340.43719 80.906545 
L 340.992019 80.906545 
L 341.176961 80.426364 
L 341.361904 80.906545 
L 341.546847 80.426364 
L 341.916733 80.426364 
L 342.101676 80.906545 
L 342.286619 80.426364 
L 342.471562 80.906545 
L 343.211333 80.906545 
L 343.396276 80.426364 
L 344.505933 80.426364 
L 344.690876 80.906545 
L 344.875819 80.906545 
L 345.060762 80.426364 
L 345.985476 80.426364 
L 346.170419 80.906545 
L 346.355362 80.426364 
L 347.095133 80.426364 
L 347.280076 80.906545 
L 347.465019 80.426364 
L 347.649962 80.906545 
L 347.834905 80.426364 
L 353.013305 80.426364 
L 353.198248 79.946182 
L 353.383191 80.426364 
L 353.753077 80.426364 
L 353.938019 79.946182 
L 354.677791 79.946182 
L 354.862734 80.426364 
L 355.047677 79.946182 
L 355.972391 79.946182 
L 356.157334 79.466 
L 356.712163 79.466 
L 356.897105 78.985818 
L 357.082048 78.985818 
L 357.266991 78.505636 
L 357.451934 78.505636 
L 357.82182 76.104727 
L 358.376648 73.703818 
L 358.746534 72.743455 
L 358.931477 72.743455 
L 359.11642 72.263273 
L 359.486306 72.263273 
L 359.856191 71.302909 
L 360.041134 71.302909 
L 360.41102 69.862364 
L 360.595963 69.382182 
L 361.150791 66.981273 
L 361.335734 66.501091 
L 361.890563 64.100182 
L 362.630334 64.100182 
L 362.815277 63.62 
L 363.00022 64.100182 
L 363.185163 63.62 
L 363.370106 64.100182 
L 363.739992 64.100182 
L 363.924934 63.62 
L 364.109877 63.62 
L 364.29482 64.100182 
L 364.479763 63.62 
L 364.664706 63.62 
L 364.849649 64.100182 
L 365.034592 64.100182 
L 365.219534 63.62 
L 365.404477 63.62 
L 365.58942 64.100182 
L 365.774363 63.62 
L 365.959306 64.100182 
L 366.144249 63.62 
L 366.329192 64.100182 
L 366.514135 64.100182 
L 366.699077 63.62 
L 366.88402 64.100182 
L 368.548506 64.100182 
L 368.733449 63.62 
L 368.918392 64.100182 
L 369.47322 64.100182 
L 369.658163 63.62 
L 371.137706 63.62 
L 371.322649 64.100182 
L 371.507592 63.62 
L 372.432306 63.62 
L 372.617249 64.100182 
L 372.802192 63.62 
L 372.987135 64.100182 
L 373.172078 63.62 
L 373.541964 63.62 
L 373.726906 64.100182 
L 373.911849 63.62 
L 374.096792 64.100182 
L 374.281735 63.62 
L 374.466678 64.100182 
L 374.651621 64.100182 
L 374.836564 63.62 
L 375.761278 63.62 
L 375.946221 64.100182 
L 376.131164 63.62 
L 377.980592 63.62 
L 378.165535 64.100182 
L 378.350478 63.62 
L 378.905307 63.62 
L 379.09025 64.100182 
L 379.645078 64.100182 
L 379.830021 64.580364 
L 380.014964 64.580364 
L 380.199907 65.060545 
L 380.38485 65.060545 
L 380.754736 66.020909 
L 382.234278 77.065091 
L 382.789107 79.466 
L 382.97405 79.946182 
L 383.158993 81.866909 
L 383.343936 81.386727 
L 384.083707 81.386727 
L 384.26865 80.906545 
L 386.303022 80.906545 
L 386.487964 80.426364 
L 386.672907 80.906545 
L 386.85785 80.426364 
L 387.042793 80.426364 
L 387.227736 80.906545 
L 387.412679 80.426364 
L 388.892222 80.426364 
L 389.077165 79.946182 
L 389.262107 80.426364 
L 400.543623 80.426364 
L 400.728565 79.946182 
L 400.913508 80.426364 
L 408.12628 80.426364 
L 408.311223 79.946182 
L 408.496166 80.426364 
L 408.866052 80.426364 
L 409.050994 79.946182 
L 409.42088 79.946182 
L 409.605823 79.466 
L 409.790766 79.466 
L 410.71548 77.065091 
L 411.640195 72.743455 
L 412.195023 71.302909 
L 412.934795 67.941636 
L 413.119738 67.461455 
L 414.044452 63.139818 
L 414.229395 62.659636 
L 414.414338 63.139818 
L 414.784223 63.139818 
L 414.969166 62.659636 
L 415.154109 62.659636 
L 415.339052 63.139818 
L 418.298138 63.139818 
L 418.483081 62.659636 
L 418.668024 63.139818 
L 419.037909 63.139818 
L 419.222852 62.659636 
L 419.407795 62.659636 
L 419.592738 63.139818 
L 420.517452 63.139818 
L 420.702395 62.659636 
L 420.887338 63.139818 
L 423.476538 63.139818 
L 423.661481 62.659636 
L 423.846424 63.139818 
L 433.27851 63.139818 
L 433.463453 63.62 
L 433.648396 63.62 
L 433.833339 63.139818 
L 434.018282 63.62 
L 434.388168 63.62 
L 434.57311 63.139818 
L 434.758053 63.62 
L 434.942996 63.62 
L 435.127939 63.139818 
L 435.312882 63.139818 
L 435.497825 63.62 
L 435.867711 63.62 
L 436.052653 64.100182 
L 436.422539 64.100182 
L 437.347253 69.382182 
L 437.902082 74.184 
L 438.087025 74.664182 
L 438.456911 74.664182 
L 438.641854 74.184 
L 439.011739 74.184 
L 439.196682 73.703818 
L 439.381625 73.703818 
L 439.566568 73.223636 
L 440.306339 73.223636 
L 440.491282 72.743455 
L 440.676225 73.223636 
L 441.046111 73.223636 
L 441.231054 72.743455 
L 441.600939 72.743455 
L 441.785882 73.223636 
L 441.970825 72.743455 
L 453.807169 72.743455 
L 453.992112 72.263273 
L 454.177055 72.743455 
L 466.383284 72.743455 
L 466.568227 72.263273 
L 466.75317 72.263273 
L 466.938113 71.783091 
L 467.123055 71.783091 
L 468.602598 64.580364 
L 469.712256 61.699273 
L 469.897198 62.179455 
L 471.376741 62.179455 
L 471.561684 61.699273 
L 471.746627 62.179455 
L 472.301456 62.179455 
L 472.486399 61.699273 
L 472.856284 61.699273 
L 473.041227 62.179455 
L 473.22617 62.179455 
L 473.411113 61.699273 
L 473.965942 61.699273 
L 474.150884 62.179455 
L 474.52077 62.179455 
L 474.705713 61.699273 
L 474.890656 62.179455 
L 475.075599 61.699273 
L 475.260542 61.699273 
L 475.445485 62.179455 
L 475.630427 61.699273 
L 475.81537 62.179455 
L 476.000313 61.699273 
L 476.555142 61.699273 
L 476.740085 62.179455 
L 476.925028 61.699273 
L 477.10997 61.699273 
L 477.294913 62.179455 
L 477.479856 61.699273 
L 477.664799 62.179455 
L 477.849742 61.699273 
L 478.774456 61.699273 
L 478.959399 62.179455 
L 479.144342 61.699273 
L 479.514228 61.699273 
L 479.699171 62.179455 
L 479.884113 61.699273 
L 480.069056 62.179455 
L 480.253999 61.699273 
L 481.363656 61.699273 
L 481.548599 62.179455 
L 481.733542 61.699273 
L 483.213085 61.699273 
L 483.398028 62.179455 
L 483.582971 61.699273 
L 488.206543 61.699273 
L 488.391485 62.179455 
L 488.576428 61.699273 
L 489.131257 61.699273 
L 489.3162 62.179455 
L 489.501143 61.699273 
L 489.871028 61.699273 
L 490.055971 62.179455 
L 490.240914 61.699273 
L 490.795743 61.699273 
L 490.980686 62.179455 
L 491.165628 62.179455 
L 491.350571 61.699273 
L 491.535514 61.699273 
L 491.720457 62.179455 
L 491.9054 62.179455 
L 492.090343 61.699273 
L 492.275286 61.699273 
L 492.460229 62.179455 
L 492.830114 62.179455 
L 493.015057 61.699273 
L 493.2 61.699273 
L 493.2 61.699273 
" clip-path="url(#p346ceae8f7)" style="fill: none; stroke: #1f77b4; stroke-width: 1.5; stroke-linecap: square"/>
   </g>
   <g id="line2d_12">
    <path d="M 56.18 63.62 
L 493.2 63.62 
" clip-path="url(#p346ceae8f7)" style="fill: none; stroke-dasharray: 2.96,1.28; stroke-dashoffset: 0; stroke: #808080; stroke-width: 0.8"/>
   </g>
   <g id="patch_3">
    <path d="M 56.18 116.44 
L 56.18 10.8 
" style="fill: none; stroke: #000000; stroke-width: 0.8; stroke-linejoin: miter; stroke-linecap: square"/>
   </g>
   <g id="patch_4">
    <path d="M 56.18 116.44 
L 493.2 116.44 
" style="fill: none; stroke: #000000; stroke-width: 0.8; stroke-linejoin: miter; stroke-linecap: square"/>
   </g>
  </g>
  <g id="axes_2">
   <g id="patch_5">
    <path d="M 56.18 264.04 
L 493.2 264.04 
L 493.2 158.4 
L 56.18 158.4 
z
" style="fill: #ffffff"/>
   </g>
   <g id="matplotlib.axis_3">
    <g id="xtick_6">
     <g id="line2d_13">
      <g>
       <use xlink:href="#m1d9d1db77d" x="56.18" y="264.04" style="stroke: #000000; stroke-width: 0.8"/>
      </g>
     </g>
     <g id="text_13">
      <!-- 0 -->
      <g transform="translate(52.99875 278.638438) scale(0.1 -0.1)">
       <use xlink:href="#DejaVuSans-30"/>
      </g>
     </g>
    </g>
    <g id="xtick_7">
     <g id="line2d_14">
      <g>
       <use xlink:href="#m1d9d1db77d" x="148.651435" y="264.04" style="stroke: #000000; stroke-width: 0.8"/>
      </g>
     </g>
     <g id="text_14">
      <!-- 5000 -->
      <g transform="translate(135.926435 278.638438) scale(0.1 -0.1)">
       <use xlink:href="#DejaVuSans-35"/>
       <use xlink:href="#DejaVuSans-30" x="63.623047"/>
       <use xlink:href="#DejaVuSans-30" x="127.246094"/>
       <use xlink:href="#DejaVuSans-30" x="190.869141"/>
      </g>
     </g>
    </g>
    <g id="xtick_8">
     <g id="line2d_15">
      <g>
       <use xlink:href="#m1d9d1db77d" x="241.122869" y="264.04" style="stroke: #000000; stroke-width: 0.8"/>
      </g>
     </g>
     <g id="text_15">
      <!-- 10000 -->
      <g transform="translate(225.216619 278.638438) scale(0.1 -0.1)">
       <use xlink:href="#DejaVuSans-31"/>
       <use xlink:href="#DejaVuSans-30" x="63.623047"/>
       <use xlink:href="#DejaVuSans-30" x="127.246094"/>
       <use xlink:href="#DejaVuSans-30" x="190.869141"/>
       <use xlink:href="#DejaVuSans-30" x="254.492188"/>
      </g>
     </g>
    </g>
    <g id="xtick_9">
     <g id="line2d_16">
      <g>
       <use xlink:href="#m1d9d1db77d" x="333.594304" y="264.04" style="stroke: #000000; stroke-width: 0.8"/>
      </g>
     </g>
     <g id="text_16">
      <!-- 15000 -->
      <g transform="translate(317.688054 278.638438) scale(0.1 -0.1)">
       <use xlink:href="#DejaVuSans-31"/>
       <use xlink:href="#DejaVuSans-35" x="63.623047"/>
       <use xlink:href="#DejaVuSans-30" x="127.246094"/>
       <use xlink:href="#DejaVuSans-30" x="190.869141"/>
       <use xlink:href="#DejaVuSans-30" x="254.492188"/>
      </g>
     </g>
    </g>
    <g id="xtick_10">
     <g id="line2d_17">
      <g>
       <use xlink:href="#m1d9d1db77d" x="426.065738" y="264.04" style="stroke: #000000; stroke-width: 0.8"/>
      </g>
     </g>
     <g id="text_17">
      <!-- 20000 -->
      <g transform="translate(410.159488 278.638438) scale(0.1 -0.1)">
       <use xlink:href="#DejaVuSans-32"/>
       <use xlink:href="#DejaVuSans-30" x="63.623047"/>
       <use xlink:href="#DejaVuSans-30" x="127.246094"/>
       <use xlink:href="#DejaVuSans-30" x="190.869141"/>
       <use xlink:href="#DejaVuSans-30" x="254.492188"/>
      </g>
     </g>
    </g>
    <g id="text_18">
     <!-- Time (ms) -->
     <g transform="translate(249.490781 292.316563) scale(0.1 -0.1)">
      <use xlink:href="#DejaVuSans-54"/>
      <use xlink:href="#DejaVuSans-69" x="57.958984"/>
      <use xlink:href="#DejaVuSans-6d" x="85.742188"/>
      <use xlink:href="#DejaVuSans-65" x="183.154297"/>
      <use xlink:href="#DejaVuSans-20" x="244.677734"/>
      <use xlink:href="#DejaVuSans-28" x="276.464844"/>
      <use xlink:href="#DejaVuSans-6d" x="315.478516"/>
      <use xlink:href="#DejaVuSans-73" x="412.890625"/>
      <use xlink:href="#DejaVuSans-29" x="464.990234"/>
     </g>
    </g>
   </g>
   <g id="matplotlib.axis_4">
    <g id="ytick_6">
     <g id="line2d_18">
      <g>
       <use xlink:href="#mc4f44a6867" x="56.18" y="259.238182" style="stroke: #000000; stroke-width: 0.8"/>
      </g>
     </g>
     <g id="text_19">
      <!-- −1.0 -->
      <g transform="translate(24.897188 263.037401) scale(0.1 -0.1)">
       <use xlink:href="#DejaVuSans-2212"/>
       <use xlink:href="#DejaVuSans-31" x="83.789062"/>
       <use xlink:href="#DejaVuSans-2e" x="147.412109"/>
       <use xlink:href="#DejaVuSans-30" x="179.199219"/>
      </g>
     </g>
    </g>
    <g id="ytick_7">
     <g id="line2d_19">
      <g>
       <use xlink:href="#mc4f44a6867" x="56.18" y="235.229091" style="stroke: #000000; stroke-width: 0.8"/>
      </g>
     </g>
     <g id="text_20">
      <!-- −0.5 -->
      <g transform="translate(24.897188 239.02831) scale(0.1 -0.1)">
       <use xlink:href="#DejaVuSans-2212"/>
       <use xlink:href="#DejaVuSans-30" x="83.789062"/>
       <use xlink:href="#DejaVuSans-2e" x="147.412109"/>
       <use xlink:href="#DejaVuSans-35" x="179.199219"/>
      </g>
     </g>
    </g>
    <g id="ytick_8">
     <g id="line2d_20">
      <g>
       <use xlink:href="#mc4f44a6867" x="56.18" y="211.22" style="stroke: #000000; stroke-width: 0.8"/>
      </g>
     </g>
     <g id="text_21">
      <!-- 0.0 -->
      <g transform="translate(33.276875 215.019219) scale(0.1 -0.1)">
       <use xlink:href="#DejaVuSans-30"/>
       <use xlink:href="#DejaVuSans-2e" x="63.623047"/>
       <use xlink:href="#DejaVuSans-30" x="95.410156"/>
      </g>
     </g>
    </g>
    <g id="ytick_9">
     <g id="line2d_21">
      <g>
       <use xlink:href="#mc4f44a6867" x="56.18" y="187.210909" style="stroke: #000000; stroke-width: 0.8"/>
      </g>
     </g>
     <g id="text_22">
      <!-- 0.5 -->
      <g transform="translate(33.276875 191.010128) scale(0.1 -0.1)">
       <use xlink:href="#DejaVuSans-30"/>
       <use xlink:href="#DejaVuSans-2e" x="63.623047"/>
       <use xlink:href="#DejaVuSans-35" x="95.410156"/>
      </g>
     </g>
    </g>
    <g id="ytick_10">
     <g id="line2d_22">
      <g>
       <use xlink:href="#mc4f44a6867" x="56.18" y="163.201818" style="stroke: #000000; stroke-width: 0.8"/>
      </g>
     </g>
     <g id="text_23">
      <!-- 1.0 -->
      <g transform="translate(33.276875 167.001037) scale(0.1 -0.1)">
       <use xlink:href="#DejaVuSans-31"/>
       <use xlink:href="#DejaVuSans-2e" x="63.623047"/>
       <use xlink:href="#DejaVuSans-30" x="95.410156"/>
      </g>
     </g>
    </g>
    <g id="text_24">
     <!-- Y-Axis Value -->
     <g transform="translate(18.8175 241.065313) rotate(-90) scale(0.1 -0.1)">
      <defs>
       <path id="DejaVuSans-59" d="M -13 4666 
L 666 4666 
L 1959 2747 
L 3244 4666 
L 3922 4666 
L 2272 2222 
L 2272 0 
L 1638 0 
L 1638 2222 
L -13 4666 
z
" transform="scale(0.015625)"/>
      </defs>
      <use xlink:href="#DejaVuSans-59"/>
      <use xlink:href="#DejaVuSans-2d" x="49.208984"/>
      <use xlink:href="#DejaVuSans-41" x="83.042969"/>
      <use xlink:href="#DejaVuSans-78" x="151.451172"/>
      <use xlink:href="#DejaVuSans-69" x="210.630859"/>
      <use xlink:href="#DejaVuSans-73" x="238.414062"/>
      <use xlink:href="#DejaVuSans-20" x="290.513672"/>
      <use xlink:href="#DejaVuSans-56" x="322.300781"/>
      <use xlink:href="#DejaVuSans-61" x="382.958984"/>
      <use xlink:href="#DejaVuSans-6c" x="444.238281"/>
      <use xlink:href="#DejaVuSans-75" x="472.021484"/>
      <use xlink:href="#DejaVuSans-65" x="535.400391"/>
     </g>
    </g>
   </g>
   <g id="line2d_23">
    <path d="M 56.18 207.378545 
L 61.3584 207.378545 
L 61.543343 206.898364 
L 62.837943 206.898364 
L 63.022886 206.418182 
L 63.207829 206.418182 
L 63.392772 206.898364 
L 63.577715 206.418182 
L 63.762658 206.898364 
L 66.906686 206.898364 
L 67.091629 207.378545 
L 67.276572 207.378545 
L 67.461515 207.858727 
L 68.571172 207.858727 
L 68.756115 208.338909 
L 69.310944 208.338909 
L 70.050715 206.418182 
L 70.420601 204.497455 
L 71.345315 193.933455 
L 71.900144 186.730727 
L 72.085087 186.730727 
L 72.27003 188.651455 
L 72.454972 187.691091 
L 72.639915 187.691091 
L 73.009801 186.730727 
L 73.194744 187.210909 
L 73.379687 187.210909 
L 73.56463 187.691091 
L 73.749573 187.210909 
L 73.934515 187.691091 
L 74.119458 187.691091 
L 74.304401 187.210909 
L 74.489344 187.691091 
L 74.674287 187.691091 
L 74.85923 188.171273 
L 75.044173 187.691091 
L 75.229116 187.691091 
L 75.414058 188.171273 
L 75.599001 187.691091 
L 75.783944 188.171273 
L 75.968887 187.691091 
L 77.44843 187.691091 
L 77.633373 188.171273 
L 77.818316 187.691091 
L 78.003259 187.691091 
L 78.188201 188.171273 
L 78.373144 187.691091 
L 78.558087 187.691091 
L 78.74303 188.171273 
L 78.927973 187.691091 
L 87.065459 187.691091 
L 87.250402 187.210909 
L 87.435345 187.691091 
L 87.620288 187.210909 
L 87.805231 187.691091 
L 87.990174 187.210909 
L 90.024545 187.210909 
L 90.209488 186.730727 
L 91.873974 186.730727 
L 92.058917 187.210909 
L 92.24386 186.730727 
L 102.60066 186.730727 
L 102.785603 187.210909 
L 102.970546 186.730727 
L 103.340432 188.171273 
L 103.710317 189.131636 
L 105.929632 201.136182 
L 106.48446 204.977636 
L 106.854346 206.418182 
L 107.039289 206.898364 
L 107.224232 206.898364 
L 107.409175 207.378545 
L 111.477918 207.378545 
L 111.662861 206.898364 
L 111.847804 207.378545 
L 112.032747 206.898364 
L 113.142404 206.898364 
L 113.327347 207.378545 
L 114.067118 207.378545 
L 114.252061 206.898364 
L 114.991832 206.898364 
L 115.176775 207.378545 
L 115.361718 206.898364 
L 117.765975 206.898364 
L 117.950918 207.378545 
L 118.135861 206.898364 
L 118.320804 207.378545 
L 118.505747 206.898364 
L 118.69069 207.378545 
L 118.875633 206.898364 
L 119.060576 207.378545 
L 119.245518 207.378545 
L 119.430461 206.898364 
L 119.615404 206.898364 
L 119.800347 207.378545 
L 119.98529 206.898364 
L 122.944376 206.898364 
L 123.129319 206.418182 
L 123.314262 206.418182 
L 124.238976 204.017273 
L 124.608862 201.616364 
L 124.978747 199.215455 
L 125.348633 196.814545 
L 125.903462 192.492909 
L 126.273347 191.532545 
L 126.45829 192.012727 
L 126.643233 192.012727 
L 126.828176 191.532545 
L 153.644892 191.532545 
L 154.754549 194.413636 
L 155.309378 196.814545 
L 155.494321 197.294727 
L 156.049149 199.695636 
L 156.419035 200.656 
L 156.603978 202.096545 
L 156.788921 202.096545 
L 157.343749 203.537091 
L 157.713635 204.977636 
L 158.083521 205.938 
L 158.268464 206.898364 
L 171.214465 206.898364 
L 171.399408 206.418182 
L 172.324122 206.418182 
L 172.509065 205.938 
L 172.694008 206.418182 
L 172.87895 205.938 
L 173.433779 205.938 
L 173.618722 206.418182 
L 173.803665 205.938 
L 174.173551 205.938 
L 174.358493 206.418182 
L 174.543436 205.938 
L 174.728379 205.938 
L 174.913322 206.418182 
L 175.098265 205.938 
L 176.022979 205.938 
L 176.207922 206.418182 
L 176.392865 205.938 
L 176.577808 206.418182 
L 176.947694 206.418182 
L 177.132636 205.938 
L 177.502522 205.938 
L 177.687465 205.457818 
L 178.612179 205.457818 
L 178.797122 205.938 
L 194.517266 205.938 
L 194.702209 205.457818 
L 194.887152 205.938 
L 201.545095 205.938 
L 201.730038 205.457818 
L 201.914981 205.938 
L 202.284867 204.977636 
L 202.46981 204.977636 
L 202.654752 204.497455 
L 203.76441 204.497455 
L 203.949353 204.977636 
L 205.613838 204.977636 
L 205.798781 205.457818 
L 205.983724 204.977636 
L 206.168667 204.977636 
L 206.35361 205.457818 
L 206.538553 205.457818 
L 206.723496 205.938 
L 207.093381 205.938 
L 207.463267 206.898364 
L 218.929725 206.898364 
L 219.114668 206.418182 
L 219.299611 206.898364 
L 219.484554 206.418182 
L 220.039382 206.418182 
L 220.224325 205.938 
L 220.409268 206.418182 
L 220.594211 205.938 
L 220.779154 206.418182 
L 220.964096 205.938 
L 223.923182 205.938 
L 224.108125 205.457818 
L 224.293068 205.938 
L 224.478011 205.938 
L 224.662954 205.457818 
L 224.847897 205.457818 
L 225.03284 205.938 
L 225.217782 205.938 
L 225.402725 205.457818 
L 225.587668 205.457818 
L 225.772611 205.938 
L 226.32744 205.938 
L 226.512383 206.418182 
L 226.697325 206.418182 
L 226.882268 206.898364 
L 227.252154 208.338909 
L 227.437097 208.819091 
L 227.806983 211.22 
L 228.176868 214.581273 
L 228.361811 216.502 
L 228.546754 219.863273 
L 228.731697 219.383091 
L 229.101583 219.383091 
L 229.471468 218.422727 
L 240.383098 218.422727 
L 240.568041 218.902909 
L 240.752983 218.422727 
L 240.937926 218.422727 
L 241.122869 218.902909 
L 241.307812 218.422727 
L 245.006669 218.422727 
L 245.191612 218.902909 
L 245.376555 218.902909 
L 245.561498 218.422727 
L 247.225984 218.422727 
L 247.410927 218.902909 
L 247.59587 218.422727 
L 248.150698 218.422727 
L 248.335641 218.902909 
L 248.520584 218.902909 
L 248.705527 218.422727 
L 248.89047 218.902909 
L 252.219441 218.902909 
L 252.589327 217.942545 
L 252.77427 217.942545 
L 253.698984 215.541636 
L 254.06887 214.101091 
L 254.623699 212.660545 
L 255.36347 209.299273 
L 256.473127 206.418182 
L 256.65807 206.418182 
L 256.843013 205.938 
L 257.397842 205.938 
L 257.582785 206.418182 
L 257.767727 205.938 
L 257.95267 206.418182 
L 259.802099 206.418182 
L 259.987042 206.898364 
L 260.171985 206.418182 
L 260.356928 206.898364 
L 262.391299 206.898364 
L 262.576242 207.378545 
L 263.685899 207.378545 
L 263.870842 206.898364 
L 265.350385 206.898364 
L 265.535328 206.418182 
L 265.720271 206.898364 
L 265.905214 206.898364 
L 266.090157 206.418182 
L 268.309471 206.418182 
L 268.494414 206.898364 
L 268.679357 206.418182 
L 268.8643 206.898364 
L 269.604071 206.898364 
L 269.789014 206.418182 
L 270.343843 206.418182 
L 270.528785 205.938 
L 276.6319 205.938 
L 276.816843 206.418182 
L 277.371672 206.418182 
L 277.741557 207.378545 
L 278.111443 209.779455 
L 278.481329 213.140727 
L 278.851215 217.462364 
L 279.406043 225.145273 
L 279.590986 225.625455 
L 279.775929 225.625455 
L 279.960872 225.145273 
L 280.5157 225.145273 
L 280.885586 224.184909 
L 281.070529 224.184909 
L 281.255472 223.704727 
L 281.625358 223.704727 
L 281.8103 223.224545 
L 284.029615 223.224545 
L 284.214558 222.744364 
L 284.399501 223.224545 
L 284.584444 222.744364 
L 284.769386 223.224545 
L 285.324215 223.224545 
L 285.509158 222.744364 
L 285.694101 223.224545 
L 285.879044 222.744364 
L 286.063986 223.224545 
L 287.173644 223.224545 
L 287.358587 222.744364 
L 287.543529 223.224545 
L 287.728472 222.744364 
L 287.913415 223.224545 
L 288.283301 223.224545 
L 288.468244 222.744364 
L 288.653187 222.744364 
L 288.838129 223.224545 
L 289.392958 223.224545 
L 289.577901 222.744364 
L 289.762844 223.224545 
L 296.420787 223.224545 
L 296.60573 223.704727 
L 296.790673 223.224545 
L 297.160559 223.224545 
L 297.345501 223.704727 
L 298.825044 223.704727 
L 299.009987 224.184909 
L 299.749759 224.184909 
L 299.934702 224.665091 
L 300.119645 224.665091 
L 300.304587 224.184909 
L 300.48953 224.665091 
L 300.674473 224.184909 
L 300.859416 224.665091 
L 301.78413 224.665091 
L 301.969073 225.145273 
L 302.893788 225.145273 
L 303.07873 225.625455 
L 304.928159 225.625455 
L 305.113102 226.105636 
L 305.482988 226.105636 
L 306.222759 224.184909 
L 306.592645 221.784 
L 308.442074 207.858727 
L 308.627017 206.898364 
L 311.40116 206.898364 
L 311.586102 207.378545 
L 311.771045 206.898364 
L 311.955988 207.378545 
L 312.140931 206.898364 
L 312.325874 207.378545 
L 317.134388 207.378545 
L 317.319331 206.898364 
L 322.127846 206.898364 
L 322.312789 207.378545 
L 322.497732 206.898364 
L 322.682675 207.378545 
L 324.901989 207.378545 
L 325.086932 206.898364 
L 325.271875 207.378545 
L 326.751418 207.378545 
L 326.936361 207.858727 
L 327.306246 207.858727 
L 327.491189 208.338909 
L 328.046018 211.700182 
L 328.785789 218.422727 
L 329.155675 220.823636 
L 329.340618 221.784 
L 329.710504 221.784 
L 329.895446 222.264182 
L 331.374989 222.264182 
L 331.559932 222.744364 
L 331.744875 222.264182 
L 337.293161 222.264182 
L 337.478104 222.744364 
L 337.663047 222.264182 
L 337.84799 222.744364 
L 338.032933 222.264182 
L 338.587761 222.264182 
L 338.772704 222.744364 
L 338.957647 222.264182 
L 339.14259 222.744364 
L 339.327533 222.264182 
L 339.882361 222.264182 
L 340.067304 222.744364 
L 340.252247 222.744364 
L 340.43719 222.264182 
L 343.581219 222.264182 
L 343.766162 222.744364 
L 343.951105 222.264182 
L 344.136047 222.264182 
L 344.32099 222.744364 
L 344.505933 222.264182 
L 344.875819 222.264182 
L 345.060762 222.744364 
L 345.245705 222.744364 
L 345.430647 222.264182 
L 345.61559 222.744364 
L 345.800533 222.264182 
L 345.985476 222.264182 
L 346.170419 222.744364 
L 346.355362 222.264182 
L 346.540305 222.744364 
L 346.725248 222.264182 
L 346.91019 222.264182 
L 347.095133 222.744364 
L 347.280076 222.264182 
L 348.204791 222.264182 
L 348.389733 222.744364 
L 348.574676 222.744364 
L 348.759619 222.264182 
L 348.944562 222.744364 
L 349.314448 222.744364 
L 349.499391 222.264182 
L 349.684333 222.264182 
L 349.869276 222.744364 
L 350.054219 222.264182 
L 350.239162 222.264182 
L 350.424105 222.744364 
L 350.609048 222.264182 
L 351.163876 222.264182 
L 351.348819 222.744364 
L 351.533762 222.264182 
L 355.23262 222.264182 
L 355.417562 221.784 
L 356.157334 221.784 
L 356.342277 221.303818 
L 356.52722 221.303818 
L 357.266991 219.383091 
L 358.561591 213.140727 
L 358.746534 213.140727 
L 358.931477 212.660545 
L 359.301363 212.660545 
L 359.486306 212.180364 
L 359.671248 212.180364 
L 359.856191 211.700182 
L 360.041134 211.700182 
L 360.226077 211.22 
L 360.595963 211.22 
L 361.150791 209.779455 
L 361.335734 210.259636 
L 361.70562 207.858727 
L 375.576335 207.858727 
L 375.761278 208.338909 
L 375.946221 207.858727 
L 381.309564 207.858727 
L 381.494507 208.338909 
L 381.67945 207.858727 
L 381.864393 207.858727 
L 382.049336 208.338909 
L 382.234278 207.858727 
L 382.419221 207.858727 
L 382.604164 208.338909 
L 382.789107 207.858727 
L 382.97405 207.858727 
L 383.158993 208.338909 
L 388.15245 208.338909 
L 388.337393 208.819091 
L 388.522336 208.338909 
L 388.707279 208.819091 
L 388.892222 208.338909 
L 389.077165 208.819091 
L 389.262107 208.338909 
L 389.44705 208.338909 
L 389.631993 210.739818 
L 389.816936 208.338909 
L 390.001879 208.338909 
L 390.186822 208.819091 
L 390.371765 208.338909 
L 391.481422 208.338909 
L 391.666365 208.819091 
L 391.851308 208.338909 
L 392.036251 208.338909 
L 392.221193 208.819091 
L 392.406136 208.338909 
L 392.776022 208.338909 
L 392.960965 208.819091 
L 393.145908 208.338909 
L 395.180279 208.338909 
L 395.365222 208.819091 
L 395.550165 208.338909 
L 397.214651 208.338909 
L 397.399594 208.819091 
L 397.584537 208.338909 
L 397.769479 208.338909 
L 397.954422 208.819091 
L 398.139365 208.338909 
L 403.687651 208.338909 
L 403.872594 208.819091 
L 404.057537 208.338909 
L 409.235937 208.338909 
L 409.42088 207.858727 
L 410.160652 207.858727 
L 410.345595 207.378545 
L 410.900423 207.378545 
L 411.085366 207.858727 
L 412.01008 207.858727 
L 412.195023 208.338909 
L 417.373424 208.338909 
L 417.558366 207.858727 
L 417.743309 208.338909 
L 419.777681 208.338909 
L 419.962624 207.858727 
L 420.147567 207.858727 
L 420.33251 208.338909 
L 420.517452 208.338909 
L 420.702395 207.858727 
L 420.887338 208.338909 
L 421.072281 207.858727 
L 421.257224 208.338909 
L 421.442167 207.858727 
L 421.812052 207.858727 
L 421.996995 208.338909 
L 423.106653 208.338909 
L 423.291595 207.858727 
L 423.476538 208.338909 
L 424.401253 208.338909 
L 424.586196 207.858727 
L 425.695853 207.858727 
L 425.880796 208.338909 
L 428.10011 208.338909 
L 428.285053 207.858727 
L 428.654939 207.858727 
L 428.839882 207.378545 
L 429.024824 207.858727 
L 429.764596 207.858727 
L 429.949539 208.338909 
L 430.134482 207.858727 
L 430.504367 207.858727 
L 430.68931 208.338909 
L 433.27851 208.338909 
L 433.463453 208.819091 
L 433.648396 208.819091 
L 433.833339 208.338909 
L 434.018282 208.819091 
L 434.388168 208.819091 
L 434.57311 208.338909 
L 434.758053 208.338909 
L 435.497825 206.418182 
L 435.867711 206.418182 
L 436.052653 205.938 
L 436.237596 205.938 
L 436.607482 204.977636 
L 437.162311 202.096545 
L 438.087025 192.492909 
L 438.456911 191.532545 
L 439.011739 191.532545 
L 439.196682 192.012727 
L 439.566568 192.012727 
L 439.751511 192.492909 
L 440.491282 192.492909 
L 440.676225 192.973091 
L 440.861168 192.492909 
L 441.046111 192.973091 
L 441.970825 192.973091 
L 442.155768 192.492909 
L 442.340711 192.492909 
L 442.525654 192.973091 
L 453.067397 192.973091 
L 453.25234 192.492909 
L 453.437283 192.973091 
L 453.807169 192.973091 
L 453.992112 192.492909 
L 454.177055 192.973091 
L 454.54694 192.973091 
L 454.731883 192.492909 
L 454.916826 192.973091 
L 456.026483 192.973091 
L 456.211426 192.492909 
L 456.396369 192.973091 
L 456.581312 192.973091 
L 456.766255 192.492909 
L 456.951198 192.973091 
L 457.13614 192.492909 
L 457.321083 192.973091 
L 457.506026 192.973091 
L 457.690969 192.492909 
L 457.875912 192.973091 
L 459.540398 192.973091 
L 459.725341 192.492909 
L 460.280169 192.492909 
L 460.465112 192.973091 
L 460.650055 192.492909 
L 460.834998 192.973091 
L 461.019941 192.973091 
L 461.204884 192.492909 
L 461.574769 192.492909 
L 461.759712 192.973091 
L 461.944655 192.492909 
L 462.129598 192.492909 
L 462.314541 192.973091 
L 462.684427 192.973091 
L 462.869369 192.492909 
L 463.054312 192.973091 
L 463.239255 192.492909 
L 463.424198 192.973091 
L 463.609141 192.492909 
L 463.794084 192.973091 
L 463.979027 192.492909 
L 466.383284 192.492909 
L 466.75317 193.453273 
L 466.938113 193.453273 
L 467.307998 194.893818 
L 467.492941 195.374 
L 468.232713 198.735273 
L 469.157427 201.136182 
L 469.527313 203.056909 
L 469.897198 207.858727 
L 471.561684 207.858727 
L 471.746627 207.378545 
L 471.93157 207.378545 
L 472.116513 207.858727 
L 472.301456 207.378545 
L 472.856284 207.378545 
L 473.041227 207.858727 
L 473.22617 207.858727 
L 473.411113 207.378545 
L 475.260542 207.378545 
L 475.445485 207.858727 
L 475.630427 207.378545 
L 484.877571 207.378545 
L 485.062514 206.898364 
L 485.247457 207.378545 
L 487.466771 207.378545 
L 487.651714 206.898364 
L 487.836657 207.378545 
L 490.425857 207.378545 
L 490.6108 206.898364 
L 490.795743 207.378545 
L 492.645171 207.378545 
L 492.830114 206.898364 
L 493.015057 207.378545 
L 493.2 207.378545 
L 493.2 207.378545 
" clip-path="url(#p2aa2953e9a)" style="fill: none; stroke: #1f77b4; stroke-width: 1.5; stroke-linecap: square"/>
   </g>
   <g id="line2d_24">
    <path d="M 56.18 211.22 
L 493.2 211.22 
" clip-path="url(#p2aa2953e9a)" style="fill: none; stroke-dasharray: 2.96,1.28; stroke-dashoffset: 0; stroke: #808080; stroke-width: 0.8"/>
   </g>
   <g id="patch_6">
    <path d="M 56.18 264.04 
L 56.18 158.4 
" style="fill: none; stroke: #000000; stroke-width: 0.8; stroke-linejoin: miter; stroke-linecap: square"/>
   </g>
   <g id="patch_7">
    <path d="M 56.18 264.04 
L 493.2 264.04 
" style="fill: none; stroke: #000000; stroke-width: 0.8; stroke-linejoin: miter; stroke-linecap: square"/>
   </g>
  </g>
 </g>
 <defs>
  <clipPath id="p346ceae8f7">
   <rect x="56.18" y="10.8" width="437.02" height="105.64"/>
  </clipPath>
  <clipPath id="p2aa2953e9a">
   <rect x="56.18" y="158.4" width="437.02" height="105.64"/>
  </clipPath>
 </defs>
</svg>
