<?xml version="1.0" encoding="utf-8" standalone="no"?>
<!DOCTYPE svg PUBLIC "-//W3C//DTD SVG 1.1//EN"
  "http://www.w3.org/Graphics/SVG/1.1/DTD/svg11.dtd">
<svg xmlns:xlink="http://www.w3.org/1999/xlink" width="504pt" height="306pt" viewBox="0 0 504 306" xmlns="http://www.w3.org/2000/svg" version="1.1">
 <metadata>
  <rdf:RDF xmlns:dc="http://purl.org/dc/elements/1.1/" xmlns:cc="http://creativecommons.org/ns#" xmlns:rdf="http://www.w3.org/1999/02/22-rdf-syntax-ns#">
   <cc:Work>
    <dc:type rdf:resource="http://purl.org/dc/dcmitype/StillImage"/>
    <dc:date>2024-06-16T21:02:04.032134</dc:date>
    <dc:format>image/svg+xml</dc:format>
    <dc:creator>
     <cc:Agent>
      <dc:title>Matplotlib v3.8.3, https://matplotlib.org/</dc:title>
     </cc:Agent>
    </dc:creator>
   </cc:Work>
  </rdf:RDF>
 </metadata>
 <defs>
  <style type="text/css">*{stroke-linejoin: round; stroke-linecap: butt}</style>
 </defs>
 <g id="figure_1">
  <g id="patch_1">
   <path d="M 0 306 
L 504 306 
L 504 0 
L 0 0 
z
" style="fill: #ffffff"/>
  </g>
  <g id="axes_1">
   <g id="patch_2">
    <path d="M 56.18 116.44 
L 493.2 116.44 
L 493.2 10.8 
L 56.18 10.8 
z
" style="fill: #ffffff"/>
   </g>
   <g id="matplotlib.axis_1">
    <g id="xtick_1">
     <g id="line2d_1">
      <defs>
       <path id="m4823eb75f2" d="M 0 0 
L 0 3.5 
" style="stroke: #000000; stroke-width: 0.8"/>
      </defs>
      <g>
       <use xlink:href="#m4823eb75f2" x="56.18" y="116.44" style="stroke: #000000; stroke-width: 0.8"/>
      </g>
     </g>
     <g id="text_1">
      <!-- 0 -->
      <g transform="translate(52.99875 131.038437) scale(0.1 -0.1)">
       <defs>
        <path id="DejaVuSans-30" d="M 2034 4250 
Q 1547 4250 1301 3770 
Q 1056 3291 1056 2328 
Q 1056 1369 1301 889 
Q 1547 409 2034 409 
Q 2525 409 2770 889 
Q 3016 1369 3016 2328 
Q 3016 3291 2770 3770 
Q 2525 4250 2034 4250 
z
M 2034 4750 
Q 2819 4750 3233 4129 
Q 3647 3509 3647 2328 
Q 3647 1150 3233 529 
Q 2819 -91 2034 -91 
Q 1250 -91 836 529 
Q 422 1150 422 2328 
Q 422 3509 836 4129 
Q 1250 4750 2034 4750 
z
" transform="scale(0.015625)"/>
       </defs>
       <use xlink:href="#DejaVuSans-30"/>
      </g>
     </g>
    </g>
    <g id="xtick_2">
     <g id="line2d_2">
      <g>
       <use xlink:href="#m4823eb75f2" x="130.503129" y="116.44" style="stroke: #000000; stroke-width: 0.8"/>
      </g>
     </g>
     <g id="text_2">
      <!-- 1000 -->
      <g transform="translate(117.778129 131.038437) scale(0.1 -0.1)">
       <defs>
        <path id="DejaVuSans-31" d="M 794 531 
L 1825 531 
L 1825 4091 
L 703 3866 
L 703 4441 
L 1819 4666 
L 2450 4666 
L 2450 531 
L 3481 531 
L 3481 0 
L 794 0 
L 794 531 
z
" transform="scale(0.015625)"/>
       </defs>
       <use xlink:href="#DejaVuSans-31"/>
       <use xlink:href="#DejaVuSans-30" x="63.623047"/>
       <use xlink:href="#DejaVuSans-30" x="127.246094"/>
       <use xlink:href="#DejaVuSans-30" x="190.869141"/>
      </g>
     </g>
    </g>
    <g id="xtick_3">
     <g id="line2d_3">
      <g>
       <use xlink:href="#m4823eb75f2" x="204.826259" y="116.44" style="stroke: #000000; stroke-width: 0.8"/>
      </g>
     </g>
     <g id="text_3">
      <!-- 2000 -->
      <g transform="translate(192.101259 131.038437) scale(0.1 -0.1)">
       <defs>
        <path id="DejaVuSans-32" d="M 1228 531 
L 3431 531 
L 3431 0 
L 469 0 
L 469 531 
Q 828 903 1448 1529 
Q 2069 2156 2228 2338 
Q 2531 2678 2651 2914 
Q 2772 3150 2772 3378 
Q 2772 3750 2511 3984 
Q 2250 4219 1831 4219 
Q 1534 4219 1204 4116 
Q 875 4013 500 3803 
L 500 4441 
Q 881 4594 1212 4672 
Q 1544 4750 1819 4750 
Q 2544 4750 2975 4387 
Q 3406 4025 3406 3419 
Q 3406 3131 3298 2873 
Q 3191 2616 2906 2266 
Q 2828 2175 2409 1742 
Q 1991 1309 1228 531 
z
" transform="scale(0.015625)"/>
       </defs>
       <use xlink:href="#DejaVuSans-32"/>
       <use xlink:href="#DejaVuSans-30" x="63.623047"/>
       <use xlink:href="#DejaVuSans-30" x="127.246094"/>
       <use xlink:href="#DejaVuSans-30" x="190.869141"/>
      </g>
     </g>
    </g>
    <g id="xtick_4">
     <g id="line2d_4">
      <g>
       <use xlink:href="#m4823eb75f2" x="279.149388" y="116.44" style="stroke: #000000; stroke-width: 0.8"/>
      </g>
     </g>
     <g id="text_4">
      <!-- 3000 -->
      <g transform="translate(266.424388 131.038437) scale(0.1 -0.1)">
       <defs>
        <path id="DejaVuSans-33" d="M 2597 2516 
Q 3050 2419 3304 2112 
Q 3559 1806 3559 1356 
Q 3559 666 3084 287 
Q 2609 -91 1734 -91 
Q 1441 -91 1130 -33 
Q 819 25 488 141 
L 488 750 
Q 750 597 1062 519 
Q 1375 441 1716 441 
Q 2309 441 2620 675 
Q 2931 909 2931 1356 
Q 2931 1769 2642 2001 
Q 2353 2234 1838 2234 
L 1294 2234 
L 1294 2753 
L 1863 2753 
Q 2328 2753 2575 2939 
Q 2822 3125 2822 3475 
Q 2822 3834 2567 4026 
Q 2313 4219 1838 4219 
Q 1578 4219 1281 4162 
Q 984 4106 628 3988 
L 628 4550 
Q 988 4650 1302 4700 
Q 1616 4750 1894 4750 
Q 2613 4750 3031 4423 
Q 3450 4097 3450 3541 
Q 3450 3153 3228 2886 
Q 3006 2619 2597 2516 
z
" transform="scale(0.015625)"/>
       </defs>
       <use xlink:href="#DejaVuSans-33"/>
       <use xlink:href="#DejaVuSans-30" x="63.623047"/>
       <use xlink:href="#DejaVuSans-30" x="127.246094"/>
       <use xlink:href="#DejaVuSans-30" x="190.869141"/>
      </g>
     </g>
    </g>
    <g id="xtick_5">
     <g id="line2d_5">
      <g>
       <use xlink:href="#m4823eb75f2" x="353.472517" y="116.44" style="stroke: #000000; stroke-width: 0.8"/>
      </g>
     </g>
     <g id="text_5">
      <!-- 4000 -->
      <g transform="translate(340.747517 131.038437) scale(0.1 -0.1)">
       <defs>
        <path id="DejaVuSans-34" d="M 2419 4116 
L 825 1625 
L 2419 1625 
L 2419 4116 
z
M 2253 4666 
L 3047 4666 
L 3047 1625 
L 3713 1625 
L 3713 1100 
L 3047 1100 
L 3047 0 
L 2419 0 
L 2419 1100 
L 313 1100 
L 313 1709 
L 2253 4666 
z
" transform="scale(0.015625)"/>
       </defs>
       <use xlink:href="#DejaVuSans-34"/>
       <use xlink:href="#DejaVuSans-30" x="63.623047"/>
       <use xlink:href="#DejaVuSans-30" x="127.246094"/>
       <use xlink:href="#DejaVuSans-30" x="190.869141"/>
      </g>
     </g>
    </g>
    <g id="xtick_6">
     <g id="line2d_6">
      <g>
       <use xlink:href="#m4823eb75f2" x="427.795646" y="116.44" style="stroke: #000000; stroke-width: 0.8"/>
      </g>
     </g>
     <g id="text_6">
      <!-- 5000 -->
      <g transform="translate(415.070646 131.038437) scale(0.1 -0.1)">
       <defs>
        <path id="DejaVuSans-35" d="M 691 4666 
L 3169 4666 
L 3169 4134 
L 1269 4134 
L 1269 2991 
Q 1406 3038 1543 3061 
Q 1681 3084 1819 3084 
Q 2600 3084 3056 2656 
Q 3513 2228 3513 1497 
Q 3513 744 3044 326 
Q 2575 -91 1722 -91 
Q 1428 -91 1123 -41 
Q 819 9 494 109 
L 494 744 
Q 775 591 1075 516 
Q 1375 441 1709 441 
Q 2250 441 2565 725 
Q 2881 1009 2881 1497 
Q 2881 1984 2565 2268 
Q 2250 2553 1709 2553 
Q 1456 2553 1204 2497 
Q 953 2441 691 2322 
L 691 4666 
z
" transform="scale(0.015625)"/>
       </defs>
       <use xlink:href="#DejaVuSans-35"/>
       <use xlink:href="#DejaVuSans-30" x="63.623047"/>
       <use xlink:href="#DejaVuSans-30" x="127.246094"/>
       <use xlink:href="#DejaVuSans-30" x="190.869141"/>
      </g>
     </g>
    </g>
    <g id="text_7">
     <!-- Time (ms) -->
     <g transform="translate(249.490781 144.716562) scale(0.1 -0.1)">
      <defs>
       <path id="DejaVuSans-54" d="M -19 4666 
L 3928 4666 
L 3928 4134 
L 2272 4134 
L 2272 0 
L 1638 0 
L 1638 4134 
L -19 4134 
L -19 4666 
z
" transform="scale(0.015625)"/>
       <path id="DejaVuSans-69" d="M 603 3500 
L 1178 3500 
L 1178 0 
L 603 0 
L 603 3500 
z
M 603 4863 
L 1178 4863 
L 1178 4134 
L 603 4134 
L 603 4863 
z
" transform="scale(0.015625)"/>
       <path id="DejaVuSans-6d" d="M 3328 2828 
Q 3544 3216 3844 3400 
Q 4144 3584 4550 3584 
Q 5097 3584 5394 3201 
Q 5691 2819 5691 2113 
L 5691 0 
L 5113 0 
L 5113 2094 
Q 5113 2597 4934 2840 
Q 4756 3084 4391 3084 
Q 3944 3084 3684 2787 
Q 3425 2491 3425 1978 
L 3425 0 
L 2847 0 
L 2847 2094 
Q 2847 2600 2669 2842 
Q 2491 3084 2119 3084 
Q 1678 3084 1418 2786 
Q 1159 2488 1159 1978 
L 1159 0 
L 581 0 
L 581 3500 
L 1159 3500 
L 1159 2956 
Q 1356 3278 1631 3431 
Q 1906 3584 2284 3584 
Q 2666 3584 2933 3390 
Q 3200 3197 3328 2828 
z
" transform="scale(0.015625)"/>
       <path id="DejaVuSans-65" d="M 3597 1894 
L 3597 1613 
L 953 1613 
Q 991 1019 1311 708 
Q 1631 397 2203 397 
Q 2534 397 2845 478 
Q 3156 559 3463 722 
L 3463 178 
Q 3153 47 2828 -22 
Q 2503 -91 2169 -91 
Q 1331 -91 842 396 
Q 353 884 353 1716 
Q 353 2575 817 3079 
Q 1281 3584 2069 3584 
Q 2775 3584 3186 3129 
Q 3597 2675 3597 1894 
z
M 3022 2063 
Q 3016 2534 2758 2815 
Q 2500 3097 2075 3097 
Q 1594 3097 1305 2825 
Q 1016 2553 972 2059 
L 3022 2063 
z
" transform="scale(0.015625)"/>
       <path id="DejaVuSans-20" transform="scale(0.015625)"/>
       <path id="DejaVuSans-28" d="M 1984 4856 
Q 1566 4138 1362 3434 
Q 1159 2731 1159 2009 
Q 1159 1288 1364 580 
Q 1569 -128 1984 -844 
L 1484 -844 
Q 1016 -109 783 600 
Q 550 1309 550 2009 
Q 550 2706 781 3412 
Q 1013 4119 1484 4856 
L 1984 4856 
z
" transform="scale(0.015625)"/>
       <path id="DejaVuSans-73" d="M 2834 3397 
L 2834 2853 
Q 2591 2978 2328 3040 
Q 2066 3103 1784 3103 
Q 1356 3103 1142 2972 
Q 928 2841 928 2578 
Q 928 2378 1081 2264 
Q 1234 2150 1697 2047 
L 1894 2003 
Q 2506 1872 2764 1633 
Q 3022 1394 3022 966 
Q 3022 478 2636 193 
Q 2250 -91 1575 -91 
Q 1294 -91 989 -36 
Q 684 19 347 128 
L 347 722 
Q 666 556 975 473 
Q 1284 391 1588 391 
Q 1994 391 2212 530 
Q 2431 669 2431 922 
Q 2431 1156 2273 1281 
Q 2116 1406 1581 1522 
L 1381 1569 
Q 847 1681 609 1914 
Q 372 2147 372 2553 
Q 372 3047 722 3315 
Q 1072 3584 1716 3584 
Q 2034 3584 2315 3537 
Q 2597 3491 2834 3397 
z
" transform="scale(0.015625)"/>
       <path id="DejaVuSans-29" d="M 513 4856 
L 1013 4856 
Q 1481 4119 1714 3412 
Q 1947 2706 1947 2009 
Q 1947 1309 1714 600 
Q 1481 -109 1013 -844 
L 513 -844 
Q 928 -128 1133 580 
Q 1338 1288 1338 2009 
Q 1338 2731 1133 3434 
Q 928 4138 513 4856 
z
" transform="scale(0.015625)"/>
      </defs>
      <use xlink:href="#DejaVuSans-54"/>
      <use xlink:href="#DejaVuSans-69" x="57.958984"/>
      <use xlink:href="#DejaVuSans-6d" x="85.742188"/>
      <use xlink:href="#DejaVuSans-65" x="183.154297"/>
      <use xlink:href="#DejaVuSans-20" x="244.677734"/>
      <use xlink:href="#DejaVuSans-28" x="276.464844"/>
      <use xlink:href="#DejaVuSans-6d" x="315.478516"/>
      <use xlink:href="#DejaVuSans-73" x="412.890625"/>
      <use xlink:href="#DejaVuSans-29" x="464.990234"/>
     </g>
    </g>
   </g>
   <g id="matplotlib.axis_2">
    <g id="ytick_1">
     <g id="line2d_7">
      <defs>
       <path id="mdb129deab8" d="M 0 0 
L -3.5 0 
" style="stroke: #000000; stroke-width: 0.8"/>
      </defs>
      <g>
       <use xlink:href="#mdb129deab8" x="56.18" y="111.638182" style="stroke: #000000; stroke-width: 0.8"/>
      </g>
     </g>
     <g id="text_8">
      <!-- −1.0 -->
      <g transform="translate(24.897188 115.437401) scale(0.1 -0.1)">
       <defs>
        <path id="DejaVuSans-2212" d="M 678 2272 
L 4684 2272 
L 4684 1741 
L 678 1741 
L 678 2272 
z
" transform="scale(0.015625)"/>
        <path id="DejaVuSans-2e" d="M 684 794 
L 1344 794 
L 1344 0 
L 684 0 
L 684 794 
z
" transform="scale(0.015625)"/>
       </defs>
       <use xlink:href="#DejaVuSans-2212"/>
       <use xlink:href="#DejaVuSans-31" x="83.789062"/>
       <use xlink:href="#DejaVuSans-2e" x="147.412109"/>
       <use xlink:href="#DejaVuSans-30" x="179.199219"/>
      </g>
     </g>
    </g>
    <g id="ytick_2">
     <g id="line2d_8">
      <g>
       <use xlink:href="#mdb129deab8" x="56.18" y="87.629091" style="stroke: #000000; stroke-width: 0.8"/>
      </g>
     </g>
     <g id="text_9">
      <!-- −0.5 -->
      <g transform="translate(24.897188 91.42831) scale(0.1 -0.1)">
       <use xlink:href="#DejaVuSans-2212"/>
       <use xlink:href="#DejaVuSans-30" x="83.789062"/>
       <use xlink:href="#DejaVuSans-2e" x="147.412109"/>
       <use xlink:href="#DejaVuSans-35" x="179.199219"/>
      </g>
     </g>
    </g>
    <g id="ytick_3">
     <g id="line2d_9">
      <g>
       <use xlink:href="#mdb129deab8" x="56.18" y="63.62" style="stroke: #000000; stroke-width: 0.8"/>
      </g>
     </g>
     <g id="text_10">
      <!-- 0.0 -->
      <g transform="translate(33.276875 67.419219) scale(0.1 -0.1)">
       <use xlink:href="#DejaVuSans-30"/>
       <use xlink:href="#DejaVuSans-2e" x="63.623047"/>
       <use xlink:href="#DejaVuSans-30" x="95.410156"/>
      </g>
     </g>
    </g>
    <g id="ytick_4">
     <g id="line2d_10">
      <g>
       <use xlink:href="#mdb129deab8" x="56.18" y="39.610909" style="stroke: #000000; stroke-width: 0.8"/>
      </g>
     </g>
     <g id="text_11">
      <!-- 0.5 -->
      <g transform="translate(33.276875 43.410128) scale(0.1 -0.1)">
       <use xlink:href="#DejaVuSans-30"/>
       <use xlink:href="#DejaVuSans-2e" x="63.623047"/>
       <use xlink:href="#DejaVuSans-35" x="95.410156"/>
      </g>
     </g>
    </g>
    <g id="ytick_5">
     <g id="line2d_11">
      <g>
       <use xlink:href="#mdb129deab8" x="56.18" y="15.601818" style="stroke: #000000; stroke-width: 0.8"/>
      </g>
     </g>
     <g id="text_12">
      <!-- 1.0 -->
      <g transform="translate(33.276875 19.401037) scale(0.1 -0.1)">
       <use xlink:href="#DejaVuSans-31"/>
       <use xlink:href="#DejaVuSans-2e" x="63.623047"/>
       <use xlink:href="#DejaVuSans-30" x="95.410156"/>
      </g>
     </g>
    </g>
    <g id="text_13">
     <!-- X-Axis Value -->
     <g transform="translate(18.8175 94.180156) rotate(-90) scale(0.1 -0.1)">
      <defs>
       <path id="DejaVuSans-58" d="M 403 4666 
L 1081 4666 
L 2241 2931 
L 3406 4666 
L 4084 4666 
L 2584 2425 
L 4184 0 
L 3506 0 
L 2194 1984 
L 872 0 
L 191 0 
L 1856 2491 
L 403 4666 
z
" transform="scale(0.015625)"/>
       <path id="DejaVuSans-2d" d="M 313 2009 
L 1997 2009 
L 1997 1497 
L 313 1497 
L 313 2009 
z
" transform="scale(0.015625)"/>
       <path id="DejaVuSans-41" d="M 2188 4044 
L 1331 1722 
L 3047 1722 
L 2188 4044 
z
M 1831 4666 
L 2547 4666 
L 4325 0 
L 3669 0 
L 3244 1197 
L 1141 1197 
L 716 0 
L 50 0 
L 1831 4666 
z
" transform="scale(0.015625)"/>
       <path id="DejaVuSans-78" d="M 3513 3500 
L 2247 1797 
L 3578 0 
L 2900 0 
L 1881 1375 
L 863 0 
L 184 0 
L 1544 1831 
L 300 3500 
L 978 3500 
L 1906 2253 
L 2834 3500 
L 3513 3500 
z
" transform="scale(0.015625)"/>
       <path id="DejaVuSans-56" d="M 1831 0 
L 50 4666 
L 709 4666 
L 2188 738 
L 3669 4666 
L 4325 4666 
L 2547 0 
L 1831 0 
z
" transform="scale(0.015625)"/>
       <path id="DejaVuSans-61" d="M 2194 1759 
Q 1497 1759 1228 1600 
Q 959 1441 959 1056 
Q 959 750 1161 570 
Q 1363 391 1709 391 
Q 2188 391 2477 730 
Q 2766 1069 2766 1631 
L 2766 1759 
L 2194 1759 
z
M 3341 1997 
L 3341 0 
L 2766 0 
L 2766 531 
Q 2569 213 2275 61 
Q 1981 -91 1556 -91 
Q 1019 -91 701 211 
Q 384 513 384 1019 
Q 384 1609 779 1909 
Q 1175 2209 1959 2209 
L 2766 2209 
L 2766 2266 
Q 2766 2663 2505 2880 
Q 2244 3097 1772 3097 
Q 1472 3097 1187 3025 
Q 903 2953 641 2809 
L 641 3341 
Q 956 3463 1253 3523 
Q 1550 3584 1831 3584 
Q 2591 3584 2966 3190 
Q 3341 2797 3341 1997 
z
" transform="scale(0.015625)"/>
       <path id="DejaVuSans-6c" d="M 603 4863 
L 1178 4863 
L 1178 0 
L 603 0 
L 603 4863 
z
" transform="scale(0.015625)"/>
       <path id="DejaVuSans-75" d="M 544 1381 
L 544 3500 
L 1119 3500 
L 1119 1403 
Q 1119 906 1312 657 
Q 1506 409 1894 409 
Q 2359 409 2629 706 
Q 2900 1003 2900 1516 
L 2900 3500 
L 3475 3500 
L 3475 0 
L 2900 0 
L 2900 538 
Q 2691 219 2414 64 
Q 2138 -91 1772 -91 
Q 1169 -91 856 284 
Q 544 659 544 1381 
z
M 1991 3584 
L 1991 3584 
z
" transform="scale(0.015625)"/>
      </defs>
      <use xlink:href="#DejaVuSans-58"/>
      <use xlink:href="#DejaVuSans-2d" x="63.505859"/>
      <use xlink:href="#DejaVuSans-41" x="97.339844"/>
      <use xlink:href="#DejaVuSans-78" x="165.748047"/>
      <use xlink:href="#DejaVuSans-69" x="224.927734"/>
      <use xlink:href="#DejaVuSans-73" x="252.710938"/>
      <use xlink:href="#DejaVuSans-20" x="304.810547"/>
      <use xlink:href="#DejaVuSans-56" x="336.597656"/>
      <use xlink:href="#DejaVuSans-61" x="397.255859"/>
      <use xlink:href="#DejaVuSans-6c" x="458.535156"/>
      <use xlink:href="#DejaVuSans-75" x="486.318359"/>
      <use xlink:href="#DejaVuSans-65" x="549.697266"/>
     </g>
    </g>
   </g>
   <g id="line2d_12">
    <path d="M 56.18 63.62 
L 68.814932 63.62 
L 69.558163 64.100182 
L 71.787857 64.100182 
L 72.531088 63.62 
L 73.27432 63.62 
L 74.017551 64.100182 
L 74.760782 64.100182 
L 75.504014 63.62 
L 77.733707 63.62 
L 78.476939 64.100182 
L 79.22017 63.62 
L 79.963401 63.62 
L 80.706633 64.100182 
L 82.193095 64.100182 
L 82.936327 63.62 
L 85.909252 63.62 
L 86.652483 63.139818 
L 87.395714 63.139818 
L 88.138946 62.659636 
L 88.882177 62.659636 
L 89.625408 62.179455 
L 91.111871 62.179455 
L 91.855102 61.699273 
L 96.31449 61.699273 
L 97.057721 61.219091 
L 97.800952 61.699273 
L 98.544184 61.219091 
L 101.517109 61.219091 
L 102.26034 60.738909 
L 107.462959 60.738909 
L 108.20619 61.219091 
L 108.949422 60.738909 
L 109.692653 61.219091 
L 110.435884 60.738909 
L 134.962517 60.738909 
L 135.705748 61.219091 
L 136.44898 60.738909 
L 139.421905 60.738909 
L 140.165136 61.219091 
L 140.908367 60.738909 
L 146.110986 60.738909 
L 147.597449 59.778545 
L 149.827143 59.778545 
L 150.570374 59.298364 
L 151.313605 59.298364 
L 152.056837 58.818182 
L 152.800068 57.857818 
L 154.286531 56.897455 
L 155.029762 56.897455 
L 155.772993 56.417273 
L 156.516224 55.456909 
L 158.002687 54.496545 
L 158.745918 53.536182 
L 160.975612 52.095636 
L 161.718844 52.095636 
L 163.205306 51.135273 
L 164.691769 51.135273 
L 166.178231 50.174909 
L 166.921463 50.174909 
L 172.867313 46.333455 
L 174.353776 46.333455 
L 175.097007 45.853273 
L 178.069932 45.853273 
L 178.813163 45.373091 
L 181.786088 45.373091 
L 183.272551 44.412727 
L 184.015782 44.412727 
L 184.759014 43.932545 
L 185.502245 43.932545 
L 186.245476 43.452364 
L 186.988707 43.452364 
L 187.731939 42.972182 
L 188.47517 42.972182 
L 189.218401 42.492 
L 190.704864 42.492 
L 191.448095 42.011818 
L 194.42102 42.011818 
L 195.164252 41.531636 
L 202.596565 41.531636 
L 203.339796 42.011818 
L 205.56949 42.011818 
L 206.312721 42.492 
L 208.542415 42.492 
L 209.285646 42.972182 
L 210.028878 42.972182 
L 210.772109 43.452364 
L 213.001803 43.452364 
L 213.745034 43.932545 
L 215.231497 43.932545 
L 216.717959 44.892909 
L 218.204422 44.892909 
L 218.947653 45.373091 
L 219.690884 45.373091 
L 221.177347 46.333455 
L 221.920578 46.333455 
L 225.636735 48.734364 
L 226.379966 48.734364 
L 227.123197 49.214545 
L 227.866429 49.214545 
L 228.60966 49.694727 
L 229.352891 49.694727 
L 230.096122 50.174909 
L 230.839354 50.174909 
L 233.069048 51.615455 
L 233.812279 51.615455 
L 235.298741 52.575818 
L 236.785204 54.496545 
L 238.271667 57.377636 
L 239.014898 58.338 
L 239.758129 58.818182 
L 240.501361 58.818182 
L 241.244592 59.298364 
L 241.987823 60.258727 
L 244.217517 61.699273 
L 247.190442 65.540727 
L 255.365986 65.540727 
L 256.109218 66.501091 
L 258.338912 67.941636 
L 259.825374 67.941636 
L 263.541531 70.342545 
L 264.284762 70.342545 
L 265.027993 71.302909 
L 265.771224 71.302909 
L 267.257687 72.263273 
L 268.000918 72.263273 
L 268.74415 72.743455 
L 269.487381 72.743455 
L 270.230612 73.223636 
L 270.973844 73.223636 
L 271.717075 73.703818 
L 272.460306 73.703818 
L 273.203537 74.184 
L 273.946769 74.184 
L 274.69 74.664182 
L 275.433231 74.664182 
L 279.149388 77.065091 
L 279.892619 77.065091 
L 280.63585 77.545273 
L 281.379082 77.545273 
L 282.865544 78.505636 
L 284.352007 78.505636 
L 286.581701 79.946182 
L 287.324932 79.946182 
L 288.068163 80.426364 
L 289.554626 80.426364 
L 290.297857 80.906545 
L 291.78432 80.906545 
L 293.270782 81.866909 
L 295.500476 81.866909 
L 296.243707 82.347091 
L 296.986939 82.347091 
L 297.73017 82.827273 
L 298.473401 82.827273 
L 299.216633 83.307455 
L 300.703095 83.307455 
L 301.446327 83.787636 
L 302.189558 83.787636 
L 302.932789 84.267818 
L 308.135408 84.267818 
L 308.878639 84.748 
L 318.540646 84.748 
L 319.283878 84.267818 
L 320.027109 84.748 
L 320.77034 84.267818 
L 323.000034 84.267818 
L 323.743265 83.787636 
L 325.972959 83.787636 
L 326.71619 83.307455 
L 328.202653 83.307455 
L 328.945884 82.827273 
L 329.689116 82.827273 
L 330.432347 82.347091 
L 331.175578 82.347091 
L 331.91881 81.866909 
L 332.662041 81.866909 
L 335.634966 79.946182 
L 336.378197 78.985818 
L 337.121429 78.505636 
L 337.86466 77.545273 
L 338.607891 77.545273 
L 339.351122 77.065091 
L 340.094354 76.104727 
L 343.81051 73.703818 
L 344.553741 73.703818 
L 348.269898 71.302909 
L 349.013129 71.302909 
L 349.756361 70.822727 
L 350.499592 70.822727 
L 351.986054 69.862364 
L 352.729286 69.862364 
L 354.95898 68.421818 
L 355.702211 68.421818 
L 357.188673 67.461455 
L 357.931905 67.461455 
L 363.134524 64.100182 
L 363.877755 63.139818 
L 364.620986 63.139818 
L 366.107449 62.179455 
L 369.823605 62.179455 
L 370.566837 61.699273 
L 372.053299 61.699273 
L 372.796531 61.219091 
L 375.026224 61.219091 
L 375.769456 60.738909 
L 378.742381 60.738909 
L 379.485612 60.258727 
L 380.228844 60.258727 
L 380.972075 60.738909 
L 381.715306 60.258727 
L 387.661156 60.258727 
L 388.404388 60.738909 
L 389.147619 60.258727 
L 392.863776 60.258727 
L 393.607007 60.738909 
L 394.350238 60.258727 
L 411.444558 60.258727 
L 412.187789 60.738909 
L 417.390408 60.738909 
L 418.133639 61.219091 
L 419.620102 61.219091 
L 420.363333 61.699273 
L 423.336259 61.699273 
L 424.822721 62.659636 
L 427.052415 62.659636 
L 427.795646 63.139818 
L 429.282109 63.139818 
L 430.02534 63.62 
L 430.768571 63.139818 
L 431.511803 63.62 
L 438.944116 63.62 
L 439.687347 64.100182 
L 462.727517 64.100182 
L 463.470748 63.62 
L 464.957211 63.62 
L 465.700442 64.100182 
L 467.930136 64.100182 
L 468.673367 63.62 
L 469.416599 64.100182 
L 473.875986 64.100182 
L 474.619218 63.62 
L 476.10568 63.62 
L 476.848912 64.100182 
L 477.592143 64.100182 
L 478.335374 63.62 
L 479.078605 64.100182 
L 480.565068 64.100182 
L 481.308299 63.62 
L 482.051531 63.62 
L 482.794762 64.100182 
L 483.537993 63.62 
L 484.281224 64.100182 
L 485.024456 63.62 
L 487.25415 63.62 
L 487.997381 64.100182 
L 490.227075 64.100182 
L 490.970306 63.62 
L 491.713537 63.62 
L 492.456769 64.100182 
L 493.2 63.62 
L 493.2 63.62 
" clip-path="url(#pd22ce8c32d)" style="fill: none; stroke: #1f77b4; stroke-width: 1.5; stroke-linecap: square"/>
   </g>
   <g id="line2d_13">
    <path d="M 56.18 63.62 
L 493.2 63.62 
" clip-path="url(#pd22ce8c32d)" style="fill: none; stroke-dasharray: 2.96,1.28; stroke-dashoffset: 0; stroke: #808080; stroke-width: 0.8"/>
   </g>
   <g id="patch_3">
    <path d="M 56.18 116.44 
L 56.18 10.8 
" style="fill: none; stroke: #000000; stroke-width: 0.8; stroke-linejoin: miter; stroke-linecap: square"/>
   </g>
   <g id="patch_4">
    <path d="M 56.18 116.44 
L 493.2 116.44 
" style="fill: none; stroke: #000000; stroke-width: 0.8; stroke-linejoin: miter; stroke-linecap: square"/>
   </g>
  </g>
  <g id="axes_2">
   <g id="patch_5">
    <path d="M 56.18 264.04 
L 493.2 264.04 
L 493.2 158.4 
L 56.18 158.4 
z
" style="fill: #ffffff"/>
   </g>
   <g id="matplotlib.axis_3">
    <g id="xtick_7">
     <g id="line2d_14">
      <g>
       <use xlink:href="#m4823eb75f2" x="56.18" y="264.04" style="stroke: #000000; stroke-width: 0.8"/>
      </g>
     </g>
     <g id="text_14">
      <!-- 0 -->
      <g transform="translate(52.99875 278.638438) scale(0.1 -0.1)">
       <use xlink:href="#DejaVuSans-30"/>
      </g>
     </g>
    </g>
    <g id="xtick_8">
     <g id="line2d_15">
      <g>
       <use xlink:href="#m4823eb75f2" x="130.503129" y="264.04" style="stroke: #000000; stroke-width: 0.8"/>
      </g>
     </g>
     <g id="text_15">
      <!-- 1000 -->
      <g transform="translate(117.778129 278.638438) scale(0.1 -0.1)">
       <use xlink:href="#DejaVuSans-31"/>
       <use xlink:href="#DejaVuSans-30" x="63.623047"/>
       <use xlink:href="#DejaVuSans-30" x="127.246094"/>
       <use xlink:href="#DejaVuSans-30" x="190.869141"/>
      </g>
     </g>
    </g>
    <g id="xtick_9">
     <g id="line2d_16">
      <g>
       <use xlink:href="#m4823eb75f2" x="204.826259" y="264.04" style="stroke: #000000; stroke-width: 0.8"/>
      </g>
     </g>
     <g id="text_16">
      <!-- 2000 -->
      <g transform="translate(192.101259 278.638438) scale(0.1 -0.1)">
       <use xlink:href="#DejaVuSans-32"/>
       <use xlink:href="#DejaVuSans-30" x="63.623047"/>
       <use xlink:href="#DejaVuSans-30" x="127.246094"/>
       <use xlink:href="#DejaVuSans-30" x="190.869141"/>
      </g>
     </g>
    </g>
    <g id="xtick_10">
     <g id="line2d_17">
      <g>
       <use xlink:href="#m4823eb75f2" x="279.149388" y="264.04" style="stroke: #000000; stroke-width: 0.8"/>
      </g>
     </g>
     <g id="text_17">
      <!-- 3000 -->
      <g transform="translate(266.424388 278.638438) scale(0.1 -0.1)">
       <use xlink:href="#DejaVuSans-33"/>
       <use xlink:href="#DejaVuSans-30" x="63.623047"/>
       <use xlink:href="#DejaVuSans-30" x="127.246094"/>
       <use xlink:href="#DejaVuSans-30" x="190.869141"/>
      </g>
     </g>
    </g>
    <g id="xtick_11">
     <g id="line2d_18">
      <g>
       <use xlink:href="#m4823eb75f2" x="353.472517" y="264.04" style="stroke: #000000; stroke-width: 0.8"/>
      </g>
     </g>
     <g id="text_18">
      <!-- 4000 -->
      <g transform="translate(340.747517 278.638438) scale(0.1 -0.1)">
       <use xlink:href="#DejaVuSans-34"/>
       <use xlink:href="#DejaVuSans-30" x="63.623047"/>
       <use xlink:href="#DejaVuSans-30" x="127.246094"/>
       <use xlink:href="#DejaVuSans-30" x="190.869141"/>
      </g>
     </g>
    </g>
    <g id="xtick_12">
     <g id="line2d_19">
      <g>
       <use xlink:href="#m4823eb75f2" x="427.795646" y="264.04" style="stroke: #000000; stroke-width: 0.8"/>
      </g>
     </g>
     <g id="text_19">
      <!-- 5000 -->
      <g transform="translate(415.070646 278.638438) scale(0.1 -0.1)">
       <use xlink:href="#DejaVuSans-35"/>
       <use xlink:href="#DejaVuSans-30" x="63.623047"/>
       <use xlink:href="#DejaVuSans-30" x="127.246094"/>
       <use xlink:href="#DejaVuSans-30" x="190.869141"/>
      </g>
     </g>
    </g>
    <g id="text_20">
     <!-- Time (ms) -->
     <g transform="translate(249.490781 292.316563) scale(0.1 -0.1)">
      <use xlink:href="#DejaVuSans-54"/>
      <use xlink:href="#DejaVuSans-69" x="57.958984"/>
      <use xlink:href="#DejaVuSans-6d" x="85.742188"/>
      <use xlink:href="#DejaVuSans-65" x="183.154297"/>
      <use xlink:href="#DejaVuSans-20" x="244.677734"/>
      <use xlink:href="#DejaVuSans-28" x="276.464844"/>
      <use xlink:href="#DejaVuSans-6d" x="315.478516"/>
      <use xlink:href="#DejaVuSans-73" x="412.890625"/>
      <use xlink:href="#DejaVuSans-29" x="464.990234"/>
     </g>
    </g>
   </g>
   <g id="matplotlib.axis_4">
    <g id="ytick_6">
     <g id="line2d_20">
      <g>
       <use xlink:href="#mdb129deab8" x="56.18" y="259.238182" style="stroke: #000000; stroke-width: 0.8"/>
      </g>
     </g>
     <g id="text_21">
      <!-- −1.0 -->
      <g transform="translate(24.897188 263.037401) scale(0.1 -0.1)">
       <use xlink:href="#DejaVuSans-2212"/>
       <use xlink:href="#DejaVuSans-31" x="83.789062"/>
       <use xlink:href="#DejaVuSans-2e" x="147.412109"/>
       <use xlink:href="#DejaVuSans-30" x="179.199219"/>
      </g>
     </g>
    </g>
    <g id="ytick_7">
     <g id="line2d_21">
      <g>
       <use xlink:href="#mdb129deab8" x="56.18" y="235.229091" style="stroke: #000000; stroke-width: 0.8"/>
      </g>
     </g>
     <g id="text_22">
      <!-- −0.5 -->
      <g transform="translate(24.897188 239.02831) scale(0.1 -0.1)">
       <use xlink:href="#DejaVuSans-2212"/>
       <use xlink:href="#DejaVuSans-30" x="83.789062"/>
       <use xlink:href="#DejaVuSans-2e" x="147.412109"/>
       <use xlink:href="#DejaVuSans-35" x="179.199219"/>
      </g>
     </g>
    </g>
    <g id="ytick_8">
     <g id="line2d_22">
      <g>
       <use xlink:href="#mdb129deab8" x="56.18" y="211.22" style="stroke: #000000; stroke-width: 0.8"/>
      </g>
     </g>
     <g id="text_23">
      <!-- 0.0 -->
      <g transform="translate(33.276875 215.019219) scale(0.1 -0.1)">
       <use xlink:href="#DejaVuSans-30"/>
       <use xlink:href="#DejaVuSans-2e" x="63.623047"/>
       <use xlink:href="#DejaVuSans-30" x="95.410156"/>
      </g>
     </g>
    </g>
    <g id="ytick_9">
     <g id="line2d_23">
      <g>
       <use xlink:href="#mdb129deab8" x="56.18" y="187.210909" style="stroke: #000000; stroke-width: 0.8"/>
      </g>
     </g>
     <g id="text_24">
      <!-- 0.5 -->
      <g transform="translate(33.276875 191.010128) scale(0.1 -0.1)">
       <use xlink:href="#DejaVuSans-30"/>
       <use xlink:href="#DejaVuSans-2e" x="63.623047"/>
       <use xlink:href="#DejaVuSans-35" x="95.410156"/>
      </g>
     </g>
    </g>
    <g id="ytick_10">
     <g id="line2d_24">
      <g>
       <use xlink:href="#mdb129deab8" x="56.18" y="163.201818" style="stroke: #000000; stroke-width: 0.8"/>
      </g>
     </g>
     <g id="text_25">
      <!-- 1.0 -->
      <g transform="translate(33.276875 167.001037) scale(0.1 -0.1)">
       <use xlink:href="#DejaVuSans-31"/>
       <use xlink:href="#DejaVuSans-2e" x="63.623047"/>
       <use xlink:href="#DejaVuSans-30" x="95.410156"/>
      </g>
     </g>
    </g>
    <g id="text_26">
     <!-- Y-Axis Value -->
     <g transform="translate(18.8175 241.065313) rotate(-90) scale(0.1 -0.1)">
      <defs>
       <path id="DejaVuSans-59" d="M -13 4666 
L 666 4666 
L 1959 2747 
L 3244 4666 
L 3922 4666 
L 2272 2222 
L 2272 0 
L 1638 0 
L 1638 2222 
L -13 4666 
z
" transform="scale(0.015625)"/>
      </defs>
      <use xlink:href="#DejaVuSans-59"/>
      <use xlink:href="#DejaVuSans-2d" x="49.208984"/>
      <use xlink:href="#DejaVuSans-41" x="83.042969"/>
      <use xlink:href="#DejaVuSans-78" x="151.451172"/>
      <use xlink:href="#DejaVuSans-69" x="210.630859"/>
      <use xlink:href="#DejaVuSans-73" x="238.414062"/>
      <use xlink:href="#DejaVuSans-20" x="290.513672"/>
      <use xlink:href="#DejaVuSans-56" x="322.300781"/>
      <use xlink:href="#DejaVuSans-61" x="382.958984"/>
      <use xlink:href="#DejaVuSans-6c" x="444.238281"/>
      <use xlink:href="#DejaVuSans-75" x="472.021484"/>
      <use xlink:href="#DejaVuSans-65" x="535.400391"/>
     </g>
    </g>
   </g>
   <g id="line2d_25">
    <path d="M 56.18 206.898364 
L 56.923231 206.898364 
L 57.666463 206.418182 
L 58.409694 206.418182 
L 59.152925 206.898364 
L 62.869082 206.898364 
L 63.612313 206.418182 
L 64.355544 206.898364 
L 67.328469 206.898364 
L 68.071701 206.418182 
L 71.787857 206.418182 
L 72.531088 206.898364 
L 77.733707 206.898364 
L 78.476939 206.418182 
L 79.22017 206.418182 
L 81.449864 204.977636 
L 82.193095 204.977636 
L 82.936327 204.017273 
L 83.679558 204.017273 
L 85.909252 202.576727 
L 88.138946 199.695636 
L 88.882177 199.215455 
L 89.625408 198.255091 
L 90.368639 197.774909 
L 91.111871 196.814545 
L 93.341565 195.374 
L 94.084796 194.413636 
L 95.571259 193.453273 
L 96.31449 192.492909 
L 97.057721 192.012727 
L 97.800952 191.052364 
L 98.544184 190.572182 
L 99.287415 189.611818 
L 100.773878 188.651455 
L 101.517109 188.651455 
L 102.26034 188.171273 
L 111.179116 188.171273 
L 111.922347 187.210909 
L 114.152041 187.210909 
L 114.895272 187.691091 
L 132.732823 187.691091 
L 133.476054 188.171273 
L 134.219286 187.691091 
L 146.110986 187.691091 
L 146.854218 186.730727 
L 147.597449 186.250545 
L 150.570374 186.250545 
L 151.313605 185.770364 
L 155.029762 185.770364 
L 155.772993 186.250545 
L 156.516224 185.770364 
L 157.259456 186.250545 
L 160.975612 186.250545 
L 161.718844 186.730727 
L 170.637619 186.730727 
L 171.38085 187.210909 
L 172.124082 187.210909 
L 172.867313 187.691091 
L 176.583469 187.691091 
L 177.326701 188.171273 
L 181.786088 188.171273 
L 182.52932 189.131636 
L 183.272551 189.131636 
L 189.961633 193.453273 
L 190.704864 194.413636 
L 192.191327 195.374 
L 193.677789 197.294727 
L 194.42102 197.774909 
L 195.164252 198.735273 
L 195.907483 200.175818 
L 196.650714 201.136182 
L 197.393946 201.616364 
L 198.880408 203.537091 
L 200.366871 204.497455 
L 201.110102 205.457818 
L 202.596565 206.418182 
L 203.339796 207.378545 
L 204.083027 207.858727 
L 204.826259 208.819091 
L 206.312721 209.779455 
L 207.055952 210.739818 
L 207.799184 210.739818 
L 208.542415 211.700182 
L 217.46119 217.462364 
L 218.204422 217.462364 
L 221.920578 219.863273 
L 222.66381 220.823636 
L 226.379966 223.224545 
L 229.352891 223.224545 
L 230.096122 223.704727 
L 233.069048 223.704727 
L 233.812279 224.184909 
L 236.041973 224.184909 
L 236.785204 224.665091 
L 237.528435 224.665091 
L 238.271667 225.145273 
L 240.501361 225.145273 
L 241.244592 225.625455 
L 244.960748 225.625455 
L 245.70398 226.105636 
L 247.933673 226.105636 
L 248.676905 225.625455 
L 249.420136 225.625455 
L 250.163367 225.145273 
L 251.64983 225.145273 
L 252.393061 224.665091 
L 253.879524 224.665091 
L 254.622755 225.145273 
L 255.365986 224.665091 
L 261.311837 224.665091 
L 262.055068 224.184909 
L 263.541531 224.184909 
L 264.284762 223.704727 
L 272.460306 223.704727 
L 273.203537 224.184909 
L 277.662925 224.184909 
L 279.892619 225.625455 
L 282.865544 225.625455 
L 283.608776 226.105636 
L 284.352007 226.105636 
L 285.095238 225.625455 
L 285.838469 225.625455 
L 288.068163 224.184909 
L 289.554626 224.184909 
L 290.297857 223.704727 
L 291.041088 223.704727 
L 294.757245 221.303818 
L 295.500476 221.303818 
L 296.986939 220.343455 
L 297.73017 219.383091 
L 299.216633 218.422727 
L 301.446327 215.541636 
L 302.932789 214.581273 
L 303.67602 214.581273 
L 304.419252 214.101091 
L 305.162483 214.101091 
L 305.905714 213.620909 
L 306.648946 213.620909 
L 307.392177 213.140727 
L 308.135408 213.140727 
L 312.594796 210.259636 
L 314.82449 210.259636 
L 315.567721 209.779455 
L 316.310952 209.779455 
L 317.797415 208.819091 
L 318.540646 208.819091 
L 321.513571 206.898364 
L 323.743265 204.017273 
L 324.486497 203.537091 
L 325.229728 202.576727 
L 325.972959 202.096545 
L 326.71619 201.136182 
L 327.459422 200.656 
L 328.202653 199.695636 
L 328.945884 199.215455 
L 329.689116 198.255091 
L 330.432347 197.774909 
L 331.91881 195.854182 
L 332.662041 195.374 
L 334.148503 193.453273 
L 334.891735 192.973091 
L 337.121429 190.092 
L 337.86466 190.092 
L 338.607891 189.611818 
L 339.351122 189.611818 
L 340.094354 189.131636 
L 340.837585 189.131636 
L 341.580816 188.651455 
L 349.013129 188.651455 
L 349.756361 188.171273 
L 355.702211 188.171273 
L 356.445442 187.691091 
L 359.418367 187.691091 
L 360.161599 187.210909 
L 363.134524 187.210909 
L 363.877755 186.730727 
L 373.539762 186.730727 
L 374.282993 186.250545 
L 375.026224 186.730727 
L 378.742381 186.730727 
L 379.485612 186.250545 
L 380.228844 186.730727 
L 382.458537 186.730727 
L 383.201769 186.250545 
L 383.945 186.250545 
L 384.688231 186.730727 
L 385.431463 186.250545 
L 386.174694 186.730727 
L 386.917925 186.730727 
L 387.661156 186.250545 
L 388.404388 186.730727 
L 389.147619 186.250545 
L 391.377313 186.250545 
L 392.120544 186.730727 
L 392.863776 186.250545 
L 393.607007 186.730727 
L 394.350238 186.250545 
L 400.296088 186.250545 
L 401.03932 185.770364 
L 404.012245 185.770364 
L 404.755476 185.290182 
L 407.728401 185.290182 
L 408.471633 184.81 
L 411.444558 184.81 
L 412.187789 185.290182 
L 412.93102 185.290182 
L 414.417483 186.250545 
L 415.160714 186.250545 
L 415.903946 187.210909 
L 418.133639 188.651455 
L 418.876871 189.611818 
L 420.363333 190.572182 
L 423.336259 194.413636 
L 424.07949 194.893818 
L 424.822721 196.334364 
L 426.309184 198.255091 
L 427.052415 198.735273 
L 428.538878 200.656 
L 429.282109 201.136182 
L 430.02534 202.096545 
L 430.768571 202.576727 
L 431.511803 203.537091 
L 434.484728 205.457818 
L 435.227959 205.457818 
L 435.97119 205.938 
L 441.17381 205.938 
L 441.917041 205.457818 
L 447.862891 205.457818 
L 448.606122 205.938 
L 449.349354 205.457818 
L 450.092585 205.938 
L 460.497823 205.938 
L 461.241054 206.418182 
L 461.984286 205.938 
L 465.700442 205.938 
L 466.443673 206.418182 
L 467.186905 205.938 
L 467.930136 205.938 
L 468.673367 206.418182 
L 469.416599 205.938 
L 471.646293 205.938 
L 472.389524 206.418182 
L 473.132755 205.938 
L 474.619218 205.938 
L 475.362449 206.418182 
L 476.10568 206.418182 
L 476.848912 205.938 
L 479.078605 205.938 
L 479.821837 206.418182 
L 480.565068 205.938 
L 485.767687 205.938 
L 486.510918 206.418182 
L 487.25415 205.938 
L 488.740612 205.938 
L 489.483844 206.418182 
L 490.227075 205.938 
L 490.970306 205.938 
L 491.713537 206.418182 
L 492.456769 206.418182 
L 493.2 205.938 
L 493.2 205.938 
" clip-path="url(#pc1906d1ba7)" style="fill: none; stroke: #1f77b4; stroke-width: 1.5; stroke-linecap: square"/>
   </g>
   <g id="line2d_26">
    <path d="M 56.18 211.22 
L 493.2 211.22 
" clip-path="url(#pc1906d1ba7)" style="fill: none; stroke-dasharray: 2.96,1.28; stroke-dashoffset: 0; stroke: #808080; stroke-width: 0.8"/>
   </g>
   <g id="patch_6">
    <path d="M 56.18 264.04 
L 56.18 158.4 
" style="fill: none; stroke: #000000; stroke-width: 0.8; stroke-linejoin: miter; stroke-linecap: square"/>
   </g>
   <g id="patch_7">
    <path d="M 56.18 264.04 
L 493.2 264.04 
" style="fill: none; stroke: #000000; stroke-width: 0.8; stroke-linejoin: miter; stroke-linecap: square"/>
   </g>
  </g>
 </g>
 <defs>
  <clipPath id="pd22ce8c32d">
   <rect x="56.18" y="10.8" width="437.02" height="105.64"/>
  </clipPath>
  <clipPath id="pc1906d1ba7">
   <rect x="56.18" y="158.4" width="437.02" height="105.64"/>
  </clipPath>
 </defs>
</svg>
