<?xml version="1.0" encoding="utf-8" standalone="no"?>
<!DOCTYPE svg PUBLIC "-//W3C//DTD SVG 1.1//EN"
  "http://www.w3.org/Graphics/SVG/1.1/DTD/svg11.dtd">
<svg xmlns:xlink="http://www.w3.org/1999/xlink" width="504pt" height="306pt" viewBox="0 0 504 306" xmlns="http://www.w3.org/2000/svg" version="1.1">
 <metadata>
  <rdf:RDF xmlns:dc="http://purl.org/dc/elements/1.1/" xmlns:cc="http://creativecommons.org/ns#" xmlns:rdf="http://www.w3.org/1999/02/22-rdf-syntax-ns#">
   <cc:Work>
    <dc:type rdf:resource="http://purl.org/dc/dcmitype/StillImage"/>
    <dc:date>2024-06-16T21:02:01.237329</dc:date>
    <dc:format>image/svg+xml</dc:format>
    <dc:creator>
     <cc:Agent>
      <dc:title>Matplotlib v3.8.3, https://matplotlib.org/</dc:title>
     </cc:Agent>
    </dc:creator>
   </cc:Work>
  </rdf:RDF>
 </metadata>
 <defs>
  <style type="text/css">*{stroke-linejoin: round; stroke-linecap: butt}</style>
 </defs>
 <g id="figure_1">
  <g id="patch_1">
   <path d="M 0 306 
L 504 306 
L 504 0 
L 0 0 
z
" style="fill: #ffffff"/>
  </g>
  <g id="axes_1">
   <g id="patch_2">
    <path d="M 56.18 116.44 
L 493.2 116.44 
L 493.2 10.8 
L 56.18 10.8 
z
" style="fill: #ffffff"/>
   </g>
   <g id="matplotlib.axis_1">
    <g id="xtick_1">
     <g id="line2d_1">
      <defs>
       <path id="m93731cf15b" d="M 0 0 
L 0 3.5 
" style="stroke: #000000; stroke-width: 0.8"/>
      </defs>
      <g>
       <use xlink:href="#m93731cf15b" x="56.18" y="116.44" style="stroke: #000000; stroke-width: 0.8"/>
      </g>
     </g>
     <g id="text_1">
      <!-- 0 -->
      <g transform="translate(52.99875 131.038437) scale(0.1 -0.1)">
       <defs>
        <path id="DejaVuSans-30" d="M 2034 4250 
Q 1547 4250 1301 3770 
Q 1056 3291 1056 2328 
Q 1056 1369 1301 889 
Q 1547 409 2034 409 
Q 2525 409 2770 889 
Q 3016 1369 3016 2328 
Q 3016 3291 2770 3770 
Q 2525 4250 2034 4250 
z
M 2034 4750 
Q 2819 4750 3233 4129 
Q 3647 3509 3647 2328 
Q 3647 1150 3233 529 
Q 2819 -91 2034 -91 
Q 1250 -91 836 529 
Q 422 1150 422 2328 
Q 422 3509 836 4129 
Q 1250 4750 2034 4750 
z
" transform="scale(0.015625)"/>
       </defs>
       <use xlink:href="#DejaVuSans-30"/>
      </g>
     </g>
    </g>
    <g id="xtick_2">
     <g id="line2d_2">
      <g>
       <use xlink:href="#m93731cf15b" x="108.517725" y="116.44" style="stroke: #000000; stroke-width: 0.8"/>
      </g>
     </g>
     <g id="text_2">
      <!-- 1000 -->
      <g transform="translate(95.792725 131.038437) scale(0.1 -0.1)">
       <defs>
        <path id="DejaVuSans-31" d="M 794 531 
L 1825 531 
L 1825 4091 
L 703 3866 
L 703 4441 
L 1819 4666 
L 2450 4666 
L 2450 531 
L 3481 531 
L 3481 0 
L 794 0 
L 794 531 
z
" transform="scale(0.015625)"/>
       </defs>
       <use xlink:href="#DejaVuSans-31"/>
       <use xlink:href="#DejaVuSans-30" x="63.623047"/>
       <use xlink:href="#DejaVuSans-30" x="127.246094"/>
       <use xlink:href="#DejaVuSans-30" x="190.869141"/>
      </g>
     </g>
    </g>
    <g id="xtick_3">
     <g id="line2d_3">
      <g>
       <use xlink:href="#m93731cf15b" x="160.855449" y="116.44" style="stroke: #000000; stroke-width: 0.8"/>
      </g>
     </g>
     <g id="text_3">
      <!-- 2000 -->
      <g transform="translate(148.130449 131.038437) scale(0.1 -0.1)">
       <defs>
        <path id="DejaVuSans-32" d="M 1228 531 
L 3431 531 
L 3431 0 
L 469 0 
L 469 531 
Q 828 903 1448 1529 
Q 2069 2156 2228 2338 
Q 2531 2678 2651 2914 
Q 2772 3150 2772 3378 
Q 2772 3750 2511 3984 
Q 2250 4219 1831 4219 
Q 1534 4219 1204 4116 
Q 875 4013 500 3803 
L 500 4441 
Q 881 4594 1212 4672 
Q 1544 4750 1819 4750 
Q 2544 4750 2975 4387 
Q 3406 4025 3406 3419 
Q 3406 3131 3298 2873 
Q 3191 2616 2906 2266 
Q 2828 2175 2409 1742 
Q 1991 1309 1228 531 
z
" transform="scale(0.015625)"/>
       </defs>
       <use xlink:href="#DejaVuSans-32"/>
       <use xlink:href="#DejaVuSans-30" x="63.623047"/>
       <use xlink:href="#DejaVuSans-30" x="127.246094"/>
       <use xlink:href="#DejaVuSans-30" x="190.869141"/>
      </g>
     </g>
    </g>
    <g id="xtick_4">
     <g id="line2d_4">
      <g>
       <use xlink:href="#m93731cf15b" x="213.193174" y="116.44" style="stroke: #000000; stroke-width: 0.8"/>
      </g>
     </g>
     <g id="text_4">
      <!-- 3000 -->
      <g transform="translate(200.468174 131.038437) scale(0.1 -0.1)">
       <defs>
        <path id="DejaVuSans-33" d="M 2597 2516 
Q 3050 2419 3304 2112 
Q 3559 1806 3559 1356 
Q 3559 666 3084 287 
Q 2609 -91 1734 -91 
Q 1441 -91 1130 -33 
Q 819 25 488 141 
L 488 750 
Q 750 597 1062 519 
Q 1375 441 1716 441 
Q 2309 441 2620 675 
Q 2931 909 2931 1356 
Q 2931 1769 2642 2001 
Q 2353 2234 1838 2234 
L 1294 2234 
L 1294 2753 
L 1863 2753 
Q 2328 2753 2575 2939 
Q 2822 3125 2822 3475 
Q 2822 3834 2567 4026 
Q 2313 4219 1838 4219 
Q 1578 4219 1281 4162 
Q 984 4106 628 3988 
L 628 4550 
Q 988 4650 1302 4700 
Q 1616 4750 1894 4750 
Q 2613 4750 3031 4423 
Q 3450 4097 3450 3541 
Q 3450 3153 3228 2886 
Q 3006 2619 2597 2516 
z
" transform="scale(0.015625)"/>
       </defs>
       <use xlink:href="#DejaVuSans-33"/>
       <use xlink:href="#DejaVuSans-30" x="63.623047"/>
       <use xlink:href="#DejaVuSans-30" x="127.246094"/>
       <use xlink:href="#DejaVuSans-30" x="190.869141"/>
      </g>
     </g>
    </g>
    <g id="xtick_5">
     <g id="line2d_5">
      <g>
       <use xlink:href="#m93731cf15b" x="265.530898" y="116.44" style="stroke: #000000; stroke-width: 0.8"/>
      </g>
     </g>
     <g id="text_5">
      <!-- 4000 -->
      <g transform="translate(252.805898 131.038437) scale(0.1 -0.1)">
       <defs>
        <path id="DejaVuSans-34" d="M 2419 4116 
L 825 1625 
L 2419 1625 
L 2419 4116 
z
M 2253 4666 
L 3047 4666 
L 3047 1625 
L 3713 1625 
L 3713 1100 
L 3047 1100 
L 3047 0 
L 2419 0 
L 2419 1100 
L 313 1100 
L 313 1709 
L 2253 4666 
z
" transform="scale(0.015625)"/>
       </defs>
       <use xlink:href="#DejaVuSans-34"/>
       <use xlink:href="#DejaVuSans-30" x="63.623047"/>
       <use xlink:href="#DejaVuSans-30" x="127.246094"/>
       <use xlink:href="#DejaVuSans-30" x="190.869141"/>
      </g>
     </g>
    </g>
    <g id="xtick_6">
     <g id="line2d_6">
      <g>
       <use xlink:href="#m93731cf15b" x="317.868623" y="116.44" style="stroke: #000000; stroke-width: 0.8"/>
      </g>
     </g>
     <g id="text_6">
      <!-- 5000 -->
      <g transform="translate(305.143623 131.038437) scale(0.1 -0.1)">
       <defs>
        <path id="DejaVuSans-35" d="M 691 4666 
L 3169 4666 
L 3169 4134 
L 1269 4134 
L 1269 2991 
Q 1406 3038 1543 3061 
Q 1681 3084 1819 3084 
Q 2600 3084 3056 2656 
Q 3513 2228 3513 1497 
Q 3513 744 3044 326 
Q 2575 -91 1722 -91 
Q 1428 -91 1123 -41 
Q 819 9 494 109 
L 494 744 
Q 775 591 1075 516 
Q 1375 441 1709 441 
Q 2250 441 2565 725 
Q 2881 1009 2881 1497 
Q 2881 1984 2565 2268 
Q 2250 2553 1709 2553 
Q 1456 2553 1204 2497 
Q 953 2441 691 2322 
L 691 4666 
z
" transform="scale(0.015625)"/>
       </defs>
       <use xlink:href="#DejaVuSans-35"/>
       <use xlink:href="#DejaVuSans-30" x="63.623047"/>
       <use xlink:href="#DejaVuSans-30" x="127.246094"/>
       <use xlink:href="#DejaVuSans-30" x="190.869141"/>
      </g>
     </g>
    </g>
    <g id="xtick_7">
     <g id="line2d_7">
      <g>
       <use xlink:href="#m93731cf15b" x="370.206347" y="116.44" style="stroke: #000000; stroke-width: 0.8"/>
      </g>
     </g>
     <g id="text_7">
      <!-- 6000 -->
      <g transform="translate(357.481347 131.038437) scale(0.1 -0.1)">
       <defs>
        <path id="DejaVuSans-36" d="M 2113 2584 
Q 1688 2584 1439 2293 
Q 1191 2003 1191 1497 
Q 1191 994 1439 701 
Q 1688 409 2113 409 
Q 2538 409 2786 701 
Q 3034 994 3034 1497 
Q 3034 2003 2786 2293 
Q 2538 2584 2113 2584 
z
M 3366 4563 
L 3366 3988 
Q 3128 4100 2886 4159 
Q 2644 4219 2406 4219 
Q 1781 4219 1451 3797 
Q 1122 3375 1075 2522 
Q 1259 2794 1537 2939 
Q 1816 3084 2150 3084 
Q 2853 3084 3261 2657 
Q 3669 2231 3669 1497 
Q 3669 778 3244 343 
Q 2819 -91 2113 -91 
Q 1303 -91 875 529 
Q 447 1150 447 2328 
Q 447 3434 972 4092 
Q 1497 4750 2381 4750 
Q 2619 4750 2861 4703 
Q 3103 4656 3366 4563 
z
" transform="scale(0.015625)"/>
       </defs>
       <use xlink:href="#DejaVuSans-36"/>
       <use xlink:href="#DejaVuSans-30" x="63.623047"/>
       <use xlink:href="#DejaVuSans-30" x="127.246094"/>
       <use xlink:href="#DejaVuSans-30" x="190.869141"/>
      </g>
     </g>
    </g>
    <g id="xtick_8">
     <g id="line2d_8">
      <g>
       <use xlink:href="#m93731cf15b" x="422.544072" y="116.44" style="stroke: #000000; stroke-width: 0.8"/>
      </g>
     </g>
     <g id="text_8">
      <!-- 7000 -->
      <g transform="translate(409.819072 131.038437) scale(0.1 -0.1)">
       <defs>
        <path id="DejaVuSans-37" d="M 525 4666 
L 3525 4666 
L 3525 4397 
L 1831 0 
L 1172 0 
L 2766 4134 
L 525 4134 
L 525 4666 
z
" transform="scale(0.015625)"/>
       </defs>
       <use xlink:href="#DejaVuSans-37"/>
       <use xlink:href="#DejaVuSans-30" x="63.623047"/>
       <use xlink:href="#DejaVuSans-30" x="127.246094"/>
       <use xlink:href="#DejaVuSans-30" x="190.869141"/>
      </g>
     </g>
    </g>
    <g id="xtick_9">
     <g id="line2d_9">
      <g>
       <use xlink:href="#m93731cf15b" x="474.881796" y="116.44" style="stroke: #000000; stroke-width: 0.8"/>
      </g>
     </g>
     <g id="text_9">
      <!-- 8000 -->
      <g transform="translate(462.156796 131.038437) scale(0.1 -0.1)">
       <defs>
        <path id="DejaVuSans-38" d="M 2034 2216 
Q 1584 2216 1326 1975 
Q 1069 1734 1069 1313 
Q 1069 891 1326 650 
Q 1584 409 2034 409 
Q 2484 409 2743 651 
Q 3003 894 3003 1313 
Q 3003 1734 2745 1975 
Q 2488 2216 2034 2216 
z
M 1403 2484 
Q 997 2584 770 2862 
Q 544 3141 544 3541 
Q 544 4100 942 4425 
Q 1341 4750 2034 4750 
Q 2731 4750 3128 4425 
Q 3525 4100 3525 3541 
Q 3525 3141 3298 2862 
Q 3072 2584 2669 2484 
Q 3125 2378 3379 2068 
Q 3634 1759 3634 1313 
Q 3634 634 3220 271 
Q 2806 -91 2034 -91 
Q 1263 -91 848 271 
Q 434 634 434 1313 
Q 434 1759 690 2068 
Q 947 2378 1403 2484 
z
M 1172 3481 
Q 1172 3119 1398 2916 
Q 1625 2713 2034 2713 
Q 2441 2713 2670 2916 
Q 2900 3119 2900 3481 
Q 2900 3844 2670 4047 
Q 2441 4250 2034 4250 
Q 1625 4250 1398 4047 
Q 1172 3844 1172 3481 
z
" transform="scale(0.015625)"/>
       </defs>
       <use xlink:href="#DejaVuSans-38"/>
       <use xlink:href="#DejaVuSans-30" x="63.623047"/>
       <use xlink:href="#DejaVuSans-30" x="127.246094"/>
       <use xlink:href="#DejaVuSans-30" x="190.869141"/>
      </g>
     </g>
    </g>
    <g id="text_10">
     <!-- Time (ms) -->
     <g transform="translate(249.490781 144.716562) scale(0.1 -0.1)">
      <defs>
       <path id="DejaVuSans-54" d="M -19 4666 
L 3928 4666 
L 3928 4134 
L 2272 4134 
L 2272 0 
L 1638 0 
L 1638 4134 
L -19 4134 
L -19 4666 
z
" transform="scale(0.015625)"/>
       <path id="DejaVuSans-69" d="M 603 3500 
L 1178 3500 
L 1178 0 
L 603 0 
L 603 3500 
z
M 603 4863 
L 1178 4863 
L 1178 4134 
L 603 4134 
L 603 4863 
z
" transform="scale(0.015625)"/>
       <path id="DejaVuSans-6d" d="M 3328 2828 
Q 3544 3216 3844 3400 
Q 4144 3584 4550 3584 
Q 5097 3584 5394 3201 
Q 5691 2819 5691 2113 
L 5691 0 
L 5113 0 
L 5113 2094 
Q 5113 2597 4934 2840 
Q 4756 3084 4391 3084 
Q 3944 3084 3684 2787 
Q 3425 2491 3425 1978 
L 3425 0 
L 2847 0 
L 2847 2094 
Q 2847 2600 2669 2842 
Q 2491 3084 2119 3084 
Q 1678 3084 1418 2786 
Q 1159 2488 1159 1978 
L 1159 0 
L 581 0 
L 581 3500 
L 1159 3500 
L 1159 2956 
Q 1356 3278 1631 3431 
Q 1906 3584 2284 3584 
Q 2666 3584 2933 3390 
Q 3200 3197 3328 2828 
z
" transform="scale(0.015625)"/>
       <path id="DejaVuSans-65" d="M 3597 1894 
L 3597 1613 
L 953 1613 
Q 991 1019 1311 708 
Q 1631 397 2203 397 
Q 2534 397 2845 478 
Q 3156 559 3463 722 
L 3463 178 
Q 3153 47 2828 -22 
Q 2503 -91 2169 -91 
Q 1331 -91 842 396 
Q 353 884 353 1716 
Q 353 2575 817 3079 
Q 1281 3584 2069 3584 
Q 2775 3584 3186 3129 
Q 3597 2675 3597 1894 
z
M 3022 2063 
Q 3016 2534 2758 2815 
Q 2500 3097 2075 3097 
Q 1594 3097 1305 2825 
Q 1016 2553 972 2059 
L 3022 2063 
z
" transform="scale(0.015625)"/>
       <path id="DejaVuSans-20" transform="scale(0.015625)"/>
       <path id="DejaVuSans-28" d="M 1984 4856 
Q 1566 4138 1362 3434 
Q 1159 2731 1159 2009 
Q 1159 1288 1364 580 
Q 1569 -128 1984 -844 
L 1484 -844 
Q 1016 -109 783 600 
Q 550 1309 550 2009 
Q 550 2706 781 3412 
Q 1013 4119 1484 4856 
L 1984 4856 
z
" transform="scale(0.015625)"/>
       <path id="DejaVuSans-73" d="M 2834 3397 
L 2834 2853 
Q 2591 2978 2328 3040 
Q 2066 3103 1784 3103 
Q 1356 3103 1142 2972 
Q 928 2841 928 2578 
Q 928 2378 1081 2264 
Q 1234 2150 1697 2047 
L 1894 2003 
Q 2506 1872 2764 1633 
Q 3022 1394 3022 966 
Q 3022 478 2636 193 
Q 2250 -91 1575 -91 
Q 1294 -91 989 -36 
Q 684 19 347 128 
L 347 722 
Q 666 556 975 473 
Q 1284 391 1588 391 
Q 1994 391 2212 530 
Q 2431 669 2431 922 
Q 2431 1156 2273 1281 
Q 2116 1406 1581 1522 
L 1381 1569 
Q 847 1681 609 1914 
Q 372 2147 372 2553 
Q 372 3047 722 3315 
Q 1072 3584 1716 3584 
Q 2034 3584 2315 3537 
Q 2597 3491 2834 3397 
z
" transform="scale(0.015625)"/>
       <path id="DejaVuSans-29" d="M 513 4856 
L 1013 4856 
Q 1481 4119 1714 3412 
Q 1947 2706 1947 2009 
Q 1947 1309 1714 600 
Q 1481 -109 1013 -844 
L 513 -844 
Q 928 -128 1133 580 
Q 1338 1288 1338 2009 
Q 1338 2731 1133 3434 
Q 928 4138 513 4856 
z
" transform="scale(0.015625)"/>
      </defs>
      <use xlink:href="#DejaVuSans-54"/>
      <use xlink:href="#DejaVuSans-69" x="57.958984"/>
      <use xlink:href="#DejaVuSans-6d" x="85.742188"/>
      <use xlink:href="#DejaVuSans-65" x="183.154297"/>
      <use xlink:href="#DejaVuSans-20" x="244.677734"/>
      <use xlink:href="#DejaVuSans-28" x="276.464844"/>
      <use xlink:href="#DejaVuSans-6d" x="315.478516"/>
      <use xlink:href="#DejaVuSans-73" x="412.890625"/>
      <use xlink:href="#DejaVuSans-29" x="464.990234"/>
     </g>
    </g>
   </g>
   <g id="matplotlib.axis_2">
    <g id="ytick_1">
     <g id="line2d_10">
      <defs>
       <path id="m2653bc1a2f" d="M 0 0 
L -3.5 0 
" style="stroke: #000000; stroke-width: 0.8"/>
      </defs>
      <g>
       <use xlink:href="#m2653bc1a2f" x="56.18" y="111.638182" style="stroke: #000000; stroke-width: 0.8"/>
      </g>
     </g>
     <g id="text_11">
      <!-- −1.0 -->
      <g transform="translate(24.897188 115.437401) scale(0.1 -0.1)">
       <defs>
        <path id="DejaVuSans-2212" d="M 678 2272 
L 4684 2272 
L 4684 1741 
L 678 1741 
L 678 2272 
z
" transform="scale(0.015625)"/>
        <path id="DejaVuSans-2e" d="M 684 794 
L 1344 794 
L 1344 0 
L 684 0 
L 684 794 
z
" transform="scale(0.015625)"/>
       </defs>
       <use xlink:href="#DejaVuSans-2212"/>
       <use xlink:href="#DejaVuSans-31" x="83.789062"/>
       <use xlink:href="#DejaVuSans-2e" x="147.412109"/>
       <use xlink:href="#DejaVuSans-30" x="179.199219"/>
      </g>
     </g>
    </g>
    <g id="ytick_2">
     <g id="line2d_11">
      <g>
       <use xlink:href="#m2653bc1a2f" x="56.18" y="87.629091" style="stroke: #000000; stroke-width: 0.8"/>
      </g>
     </g>
     <g id="text_12">
      <!-- −0.5 -->
      <g transform="translate(24.897188 91.42831) scale(0.1 -0.1)">
       <use xlink:href="#DejaVuSans-2212"/>
       <use xlink:href="#DejaVuSans-30" x="83.789062"/>
       <use xlink:href="#DejaVuSans-2e" x="147.412109"/>
       <use xlink:href="#DejaVuSans-35" x="179.199219"/>
      </g>
     </g>
    </g>
    <g id="ytick_3">
     <g id="line2d_12">
      <g>
       <use xlink:href="#m2653bc1a2f" x="56.18" y="63.62" style="stroke: #000000; stroke-width: 0.8"/>
      </g>
     </g>
     <g id="text_13">
      <!-- 0.0 -->
      <g transform="translate(33.276875 67.419219) scale(0.1 -0.1)">
       <use xlink:href="#DejaVuSans-30"/>
       <use xlink:href="#DejaVuSans-2e" x="63.623047"/>
       <use xlink:href="#DejaVuSans-30" x="95.410156"/>
      </g>
     </g>
    </g>
    <g id="ytick_4">
     <g id="line2d_13">
      <g>
       <use xlink:href="#m2653bc1a2f" x="56.18" y="39.610909" style="stroke: #000000; stroke-width: 0.8"/>
      </g>
     </g>
     <g id="text_14">
      <!-- 0.5 -->
      <g transform="translate(33.276875 43.410128) scale(0.1 -0.1)">
       <use xlink:href="#DejaVuSans-30"/>
       <use xlink:href="#DejaVuSans-2e" x="63.623047"/>
       <use xlink:href="#DejaVuSans-35" x="95.410156"/>
      </g>
     </g>
    </g>
    <g id="ytick_5">
     <g id="line2d_14">
      <g>
       <use xlink:href="#m2653bc1a2f" x="56.18" y="15.601818" style="stroke: #000000; stroke-width: 0.8"/>
      </g>
     </g>
     <g id="text_15">
      <!-- 1.0 -->
      <g transform="translate(33.276875 19.401037) scale(0.1 -0.1)">
       <use xlink:href="#DejaVuSans-31"/>
       <use xlink:href="#DejaVuSans-2e" x="63.623047"/>
       <use xlink:href="#DejaVuSans-30" x="95.410156"/>
      </g>
     </g>
    </g>
    <g id="text_16">
     <!-- X-Axis Value -->
     <g transform="translate(18.8175 94.180156) rotate(-90) scale(0.1 -0.1)">
      <defs>
       <path id="DejaVuSans-58" d="M 403 4666 
L 1081 4666 
L 2241 2931 
L 3406 4666 
L 4084 4666 
L 2584 2425 
L 4184 0 
L 3506 0 
L 2194 1984 
L 872 0 
L 191 0 
L 1856 2491 
L 403 4666 
z
" transform="scale(0.015625)"/>
       <path id="DejaVuSans-2d" d="M 313 2009 
L 1997 2009 
L 1997 1497 
L 313 1497 
L 313 2009 
z
" transform="scale(0.015625)"/>
       <path id="DejaVuSans-41" d="M 2188 4044 
L 1331 1722 
L 3047 1722 
L 2188 4044 
z
M 1831 4666 
L 2547 4666 
L 4325 0 
L 3669 0 
L 3244 1197 
L 1141 1197 
L 716 0 
L 50 0 
L 1831 4666 
z
" transform="scale(0.015625)"/>
       <path id="DejaVuSans-78" d="M 3513 3500 
L 2247 1797 
L 3578 0 
L 2900 0 
L 1881 1375 
L 863 0 
L 184 0 
L 1544 1831 
L 300 3500 
L 978 3500 
L 1906 2253 
L 2834 3500 
L 3513 3500 
z
" transform="scale(0.015625)"/>
       <path id="DejaVuSans-56" d="M 1831 0 
L 50 4666 
L 709 4666 
L 2188 738 
L 3669 4666 
L 4325 4666 
L 2547 0 
L 1831 0 
z
" transform="scale(0.015625)"/>
       <path id="DejaVuSans-61" d="M 2194 1759 
Q 1497 1759 1228 1600 
Q 959 1441 959 1056 
Q 959 750 1161 570 
Q 1363 391 1709 391 
Q 2188 391 2477 730 
Q 2766 1069 2766 1631 
L 2766 1759 
L 2194 1759 
z
M 3341 1997 
L 3341 0 
L 2766 0 
L 2766 531 
Q 2569 213 2275 61 
Q 1981 -91 1556 -91 
Q 1019 -91 701 211 
Q 384 513 384 1019 
Q 384 1609 779 1909 
Q 1175 2209 1959 2209 
L 2766 2209 
L 2766 2266 
Q 2766 2663 2505 2880 
Q 2244 3097 1772 3097 
Q 1472 3097 1187 3025 
Q 903 2953 641 2809 
L 641 3341 
Q 956 3463 1253 3523 
Q 1550 3584 1831 3584 
Q 2591 3584 2966 3190 
Q 3341 2797 3341 1997 
z
" transform="scale(0.015625)"/>
       <path id="DejaVuSans-6c" d="M 603 4863 
L 1178 4863 
L 1178 0 
L 603 0 
L 603 4863 
z
" transform="scale(0.015625)"/>
       <path id="DejaVuSans-75" d="M 544 1381 
L 544 3500 
L 1119 3500 
L 1119 1403 
Q 1119 906 1312 657 
Q 1506 409 1894 409 
Q 2359 409 2629 706 
Q 2900 1003 2900 1516 
L 2900 3500 
L 3475 3500 
L 3475 0 
L 2900 0 
L 2900 538 
Q 2691 219 2414 64 
Q 2138 -91 1772 -91 
Q 1169 -91 856 284 
Q 544 659 544 1381 
z
M 1991 3584 
L 1991 3584 
z
" transform="scale(0.015625)"/>
      </defs>
      <use xlink:href="#DejaVuSans-58"/>
      <use xlink:href="#DejaVuSans-2d" x="63.505859"/>
      <use xlink:href="#DejaVuSans-41" x="97.339844"/>
      <use xlink:href="#DejaVuSans-78" x="165.748047"/>
      <use xlink:href="#DejaVuSans-69" x="224.927734"/>
      <use xlink:href="#DejaVuSans-73" x="252.710938"/>
      <use xlink:href="#DejaVuSans-20" x="304.810547"/>
      <use xlink:href="#DejaVuSans-56" x="336.597656"/>
      <use xlink:href="#DejaVuSans-61" x="397.255859"/>
      <use xlink:href="#DejaVuSans-6c" x="458.535156"/>
      <use xlink:href="#DejaVuSans-75" x="486.318359"/>
      <use xlink:href="#DejaVuSans-65" x="549.697266"/>
     </g>
    </g>
   </g>
   <g id="line2d_15">
    <path d="M 56.18 64.100182 
L 65.077413 64.100182 
L 65.60079 63.62 
L 66.124168 63.62 
L 66.647545 64.100182 
L 67.694299 64.100182 
L 68.217677 63.62 
L 68.741054 64.100182 
L 70.311186 64.100182 
L 70.834563 63.62 
L 71.35794 64.100182 
L 80.778731 64.100182 
L 81.302108 64.580364 
L 81.825485 64.580364 
L 82.348862 64.100182 
L 82.87224 64.580364 
L 83.395617 64.100182 
L 83.918994 64.100182 
L 84.442371 64.580364 
L 84.965749 64.580364 
L 85.489126 64.100182 
L 86.012503 64.580364 
L 86.53588 64.100182 
L 91.246275 64.100182 
L 91.769653 63.62 
L 92.29303 64.100182 
L 102.760575 64.100182 
L 103.283952 63.62 
L 103.807329 64.100182 
L 104.330707 63.62 
L 105.900838 63.62 
L 106.424216 63.139818 
L 107.994347 63.139818 
L 108.517725 62.659636 
L 109.564479 62.659636 
L 110.087856 62.179455 
L 110.611234 62.179455 
L 111.134611 61.699273 
L 112.704743 61.699273 
L 113.22812 61.219091 
L 118.461892 61.219091 
L 118.985269 61.699273 
L 119.508647 61.219091 
L 120.032024 61.219091 
L 120.555401 61.699273 
L 121.078778 61.219091 
L 134.16321 61.219091 
L 134.686587 61.699273 
L 135.209964 61.219091 
L 137.82685 61.219091 
L 138.350228 61.699273 
L 138.873605 61.219091 
L 139.396982 61.219091 
L 139.920359 61.699273 
L 140.443737 61.699273 
L 140.967114 61.219091 
L 143.060623 61.219091 
L 144.107377 60.258727 
L 146.724263 60.258727 
L 147.771018 59.298364 
L 148.294395 59.298364 
L 148.817772 58.818182 
L 149.864527 58.818182 
L 150.387904 58.338 
L 151.958036 58.338 
L 152.481413 57.857818 
L 153.00479 57.857818 
L 153.528168 57.377636 
L 154.051545 57.377636 
L 154.574922 56.897455 
L 155.098299 56.897455 
L 156.668431 55.456909 
L 157.191808 54.496545 
L 158.238563 53.536182 
L 158.76194 52.575818 
L 159.285317 52.095636 
L 159.808695 52.095636 
L 160.855449 51.135273 
L 161.378826 51.135273 
L 162.425581 50.174909 
L 163.472335 50.174909 
L 165.565844 48.254182 
L 166.089222 48.254182 
L 167.659353 46.813636 
L 168.706108 46.813636 
L 169.229485 46.333455 
L 175.510012 46.333455 
L 176.033389 45.853273 
L 176.556766 46.333455 
L 177.080144 45.853273 
L 178.126898 45.853273 
L 178.650275 46.333455 
L 179.69703 46.333455 
L 180.220407 45.853273 
L 180.743784 46.333455 
L 181.267162 45.853273 
L 186.500934 45.853273 
L 187.024311 45.373091 
L 188.071066 45.373091 
L 188.594443 44.892909 
L 189.11782 44.892909 
L 189.641198 44.412727 
L 190.164575 44.412727 
L 190.687952 43.932545 
L 191.211329 43.932545 
L 191.734707 43.452364 
L 193.304838 43.452364 
L 193.828216 42.972182 
L 195.398347 42.972182 
L 195.921725 42.492 
L 196.968479 42.492 
L 197.491856 42.011818 
L 198.015234 42.492 
L 198.538611 42.011818 
L 201.155497 42.011818 
L 201.678874 41.531636 
L 212.669796 41.531636 
L 213.193174 42.011818 
L 216.333437 42.011818 
L 216.856814 42.492 
L 218.950323 42.492 
L 219.473701 42.972182 
L 221.043832 42.972182 
L 221.56721 43.452364 
L 222.613964 43.452364 
L 223.137341 43.932545 
L 224.707473 43.932545 
L 225.23085 44.412727 
L 225.754228 44.412727 
L 226.800982 45.373091 
L 227.324359 45.373091 
L 227.847737 45.853273 
L 228.371114 45.853273 
L 229.417868 46.813636 
L 229.941246 46.813636 
L 230.464623 47.293818 
L 230.988 47.293818 
L 231.511377 47.774 
L 232.034754 47.774 
L 232.558132 48.254182 
L 234.128263 48.254182 
L 234.651641 48.734364 
L 236.74515 48.734364 
L 237.268527 49.214545 
L 239.885413 49.214545 
L 240.40879 49.694727 
L 241.455545 49.694727 
L 241.978922 50.174909 
L 242.502299 50.174909 
L 243.025677 50.655091 
L 244.595808 50.655091 
L 245.119186 51.135273 
L 246.16594 51.135273 
L 246.689317 51.615455 
L 247.212695 51.615455 
L 247.736072 52.095636 
L 248.259449 52.095636 
L 249.306204 53.056 
L 249.829581 53.056 
L 250.876335 54.016364 
L 251.399713 54.016364 
L 251.92309 54.496545 
L 252.446467 54.496545 
L 252.969844 54.976727 
L 253.493222 54.496545 
L 254.016599 54.976727 
L 254.539976 54.976727 
L 255.063353 55.456909 
L 255.586731 55.456909 
L 257.156862 56.897455 
L 257.68024 56.897455 
L 258.203617 57.377636 
L 258.726994 57.377636 
L 259.250371 57.857818 
L 259.773749 57.857818 
L 260.297126 58.338 
L 260.820503 58.338 
L 261.34388 58.818182 
L 262.390635 58.818182 
L 264.484144 60.738909 
L 265.007521 60.738909 
L 266.054275 61.699273 
L 266.577653 62.659636 
L 268.147784 64.100182 
L 268.671162 64.100182 
L 269.194539 64.580364 
L 270.241293 64.580364 
L 271.288048 65.540727 
L 271.811425 65.540727 
L 272.334802 66.020909 
L 276.52182 66.020909 
L 277.045198 66.501091 
L 277.568575 66.020909 
L 278.615329 66.020909 
L 279.662084 66.981273 
L 282.802347 66.981273 
L 283.325725 67.461455 
L 285.419234 67.461455 
L 286.989365 68.902 
L 287.512743 68.902 
L 288.559497 69.862364 
L 290.653006 69.862364 
L 291.176383 70.342545 
L 291.69976 70.342545 
L 292.746515 71.302909 
L 294.840024 71.302909 
L 295.363401 71.783091 
L 296.410156 71.783091 
L 297.45691 72.743455 
L 297.980287 72.743455 
L 298.503665 73.223636 
L 299.027042 73.223636 
L 300.073796 74.184 
L 300.597174 74.184 
L 301.120551 74.664182 
L 301.643928 74.664182 
L 302.167305 75.144364 
L 303.21406 75.144364 
L 304.260814 76.104727 
L 304.784192 76.104727 
L 305.307569 77.065091 
L 305.830946 77.065091 
L 308.447832 79.466 
L 308.97121 79.466 
L 310.017964 80.426364 
L 312.111473 80.426364 
L 312.63485 80.906545 
L 315.251737 80.906545 
L 315.775114 81.386727 
L 316.821868 81.386727 
L 317.868623 82.347091 
L 318.915377 82.347091 
L 319.438754 82.827273 
L 321.008886 82.827273 
L 321.532263 83.307455 
L 322.579018 83.307455 
L 323.102395 83.787636 
L 327.289413 83.787636 
L 327.81279 84.267818 
L 328.859545 84.267818 
L 329.382922 84.748 
L 340.373844 84.748 
L 340.897222 84.267818 
L 341.420599 84.748 
L 341.943976 84.748 
L 342.467353 84.267818 
L 346.654371 84.267818 
L 347.177749 83.787636 
L 349.794635 83.787636 
L 350.318012 83.307455 
L 350.841389 83.787636 
L 351.364766 83.307455 
L 352.934898 83.307455 
L 353.458275 82.827273 
L 354.50503 82.827273 
L 355.028407 82.347091 
L 356.075162 82.347091 
L 356.598539 81.866909 
L 357.645293 81.866909 
L 358.168671 81.386727 
L 359.738802 81.386727 
L 360.26218 80.906545 
L 361.308934 80.906545 
L 361.832311 80.426364 
L 363.402443 80.426364 
L 363.92582 79.946182 
L 364.972575 79.946182 
L 365.495952 79.466 
L 367.066084 79.466 
L 367.589461 78.985818 
L 369.68297 78.985818 
L 370.206347 78.505636 
L 371.253102 78.505636 
L 371.776479 78.025455 
L 372.823234 78.025455 
L 373.346611 77.065091 
L 373.869988 77.065091 
L 375.44012 75.624545 
L 375.963497 75.624545 
L 376.486874 75.144364 
L 377.010251 74.184 
L 378.580383 72.743455 
L 379.10376 72.743455 
L 379.627138 72.263273 
L 380.150515 72.263273 
L 380.673892 71.783091 
L 381.197269 71.783091 
L 382.244024 70.822727 
L 382.767401 70.822727 
L 383.814156 69.862364 
L 384.337533 69.862364 
L 384.86091 69.382182 
L 385.384287 69.382182 
L 385.907665 68.902 
L 386.431042 68.902 
L 389.571305 66.020909 
L 390.094683 66.020909 
L 391.664814 64.580364 
L 395.851832 64.580364 
L 396.37521 64.100182 
L 396.898587 64.580364 
L 397.421964 64.580364 
L 397.945341 64.100182 
L 398.468719 64.100182 
L 398.992096 64.580364 
L 400.562228 64.580364 
L 401.085605 64.100182 
L 401.608982 64.100182 
L 402.132359 64.580364 
L 402.655737 64.580364 
L 403.179114 64.100182 
L 403.702491 64.580364 
L 404.225868 64.100182 
L 404.749246 64.580364 
L 405.272623 64.100182 
L 405.796 64.100182 
L 406.319377 64.580364 
L 406.842754 64.100182 
L 407.366132 64.580364 
L 407.889509 64.100182 
L 408.412886 64.100182 
L 408.936263 64.580364 
L 409.459641 64.100182 
L 411.55315 64.100182 
L 412.076527 64.580364 
L 412.599904 64.100182 
L 413.123281 64.580364 
L 413.646659 64.580364 
L 414.170036 64.100182 
L 414.693413 64.580364 
L 417.310299 64.580364 
L 417.833677 64.100182 
L 418.357054 64.580364 
L 419.403808 64.580364 
L 419.927186 64.100182 
L 421.497317 64.100182 
L 422.020695 64.580364 
L 422.544072 64.100182 
L 423.067449 64.580364 
L 423.590826 64.100182 
L 425.160958 64.100182 
L 425.684335 64.580364 
L 426.207713 64.100182 
L 426.73109 64.580364 
L 427.254467 64.100182 
L 429.871353 64.100182 
L 430.394731 63.62 
L 430.918108 64.100182 
L 431.441485 63.62 
L 432.48824 63.62 
L 433.011617 63.139818 
L 433.534994 63.62 
L 434.058371 63.139818 
L 435.105126 63.139818 
L 435.628503 62.659636 
L 436.15188 63.139818 
L 437.722012 63.139818 
L 438.245389 63.62 
L 439.292144 63.62 
L 439.815521 64.100182 
L 441.385653 64.100182 
L 441.90903 63.62 
L 442.432407 64.100182 
L 442.955784 63.62 
L 445.049293 63.62 
L 445.572671 64.100182 
L 446.096048 63.62 
L 446.619425 64.100182 
L 462.84412 64.100182 
L 463.367497 64.580364 
L 463.890874 64.100182 
L 470.171401 64.100182 
L 470.694778 63.62 
L 471.218156 64.100182 
L 472.788287 64.100182 
L 473.311665 63.62 
L 474.358419 63.62 
L 474.881796 64.100182 
L 475.405174 63.62 
L 476.451928 63.62 
L 476.975305 64.100182 
L 477.498683 64.100182 
L 478.02206 63.62 
L 481.162323 63.62 
L 481.685701 64.100182 
L 482.209078 63.62 
L 482.732455 64.100182 
L 483.255832 63.62 
L 483.77921 63.62 
L 484.302587 64.100182 
L 484.825964 63.62 
L 485.349341 64.100182 
L 485.872719 64.100182 
L 486.396096 63.62 
L 486.919473 64.100182 
L 487.44285 63.62 
L 487.966228 63.62 
L 488.489605 64.100182 
L 489.012982 64.100182 
L 489.536359 63.62 
L 490.059737 64.100182 
L 490.583114 64.100182 
L 491.106491 63.62 
L 491.629868 63.62 
L 492.153246 64.100182 
L 492.676623 63.62 
L 493.2 63.62 
L 493.2 63.62 
" clip-path="url(#p4abdfaaaef)" style="fill: none; stroke: #1f77b4; stroke-width: 1.5; stroke-linecap: square"/>
   </g>
   <g id="line2d_16">
    <path d="M 56.18 63.62 
L 493.2 63.62 
" clip-path="url(#p4abdfaaaef)" style="fill: none; stroke-dasharray: 2.96,1.28; stroke-dashoffset: 0; stroke: #808080; stroke-width: 0.8"/>
   </g>
   <g id="patch_3">
    <path d="M 56.18 116.44 
L 56.18 10.8 
" style="fill: none; stroke: #000000; stroke-width: 0.8; stroke-linejoin: miter; stroke-linecap: square"/>
   </g>
   <g id="patch_4">
    <path d="M 56.18 116.44 
L 493.2 116.44 
" style="fill: none; stroke: #000000; stroke-width: 0.8; stroke-linejoin: miter; stroke-linecap: square"/>
   </g>
  </g>
  <g id="axes_2">
   <g id="patch_5">
    <path d="M 56.18 264.04 
L 493.2 264.04 
L 493.2 158.4 
L 56.18 158.4 
z
" style="fill: #ffffff"/>
   </g>
   <g id="matplotlib.axis_3">
    <g id="xtick_10">
     <g id="line2d_17">
      <g>
       <use xlink:href="#m93731cf15b" x="56.18" y="264.04" style="stroke: #000000; stroke-width: 0.8"/>
      </g>
     </g>
     <g id="text_17">
      <!-- 0 -->
      <g transform="translate(52.99875 278.638438) scale(0.1 -0.1)">
       <use xlink:href="#DejaVuSans-30"/>
      </g>
     </g>
    </g>
    <g id="xtick_11">
     <g id="line2d_18">
      <g>
       <use xlink:href="#m93731cf15b" x="108.517725" y="264.04" style="stroke: #000000; stroke-width: 0.8"/>
      </g>
     </g>
     <g id="text_18">
      <!-- 1000 -->
      <g transform="translate(95.792725 278.638438) scale(0.1 -0.1)">
       <use xlink:href="#DejaVuSans-31"/>
       <use xlink:href="#DejaVuSans-30" x="63.623047"/>
       <use xlink:href="#DejaVuSans-30" x="127.246094"/>
       <use xlink:href="#DejaVuSans-30" x="190.869141"/>
      </g>
     </g>
    </g>
    <g id="xtick_12">
     <g id="line2d_19">
      <g>
       <use xlink:href="#m93731cf15b" x="160.855449" y="264.04" style="stroke: #000000; stroke-width: 0.8"/>
      </g>
     </g>
     <g id="text_19">
      <!-- 2000 -->
      <g transform="translate(148.130449 278.638438) scale(0.1 -0.1)">
       <use xlink:href="#DejaVuSans-32"/>
       <use xlink:href="#DejaVuSans-30" x="63.623047"/>
       <use xlink:href="#DejaVuSans-30" x="127.246094"/>
       <use xlink:href="#DejaVuSans-30" x="190.869141"/>
      </g>
     </g>
    </g>
    <g id="xtick_13">
     <g id="line2d_20">
      <g>
       <use xlink:href="#m93731cf15b" x="213.193174" y="264.04" style="stroke: #000000; stroke-width: 0.8"/>
      </g>
     </g>
     <g id="text_20">
      <!-- 3000 -->
      <g transform="translate(200.468174 278.638438) scale(0.1 -0.1)">
       <use xlink:href="#DejaVuSans-33"/>
       <use xlink:href="#DejaVuSans-30" x="63.623047"/>
       <use xlink:href="#DejaVuSans-30" x="127.246094"/>
       <use xlink:href="#DejaVuSans-30" x="190.869141"/>
      </g>
     </g>
    </g>
    <g id="xtick_14">
     <g id="line2d_21">
      <g>
       <use xlink:href="#m93731cf15b" x="265.530898" y="264.04" style="stroke: #000000; stroke-width: 0.8"/>
      </g>
     </g>
     <g id="text_21">
      <!-- 4000 -->
      <g transform="translate(252.805898 278.638438) scale(0.1 -0.1)">
       <use xlink:href="#DejaVuSans-34"/>
       <use xlink:href="#DejaVuSans-30" x="63.623047"/>
       <use xlink:href="#DejaVuSans-30" x="127.246094"/>
       <use xlink:href="#DejaVuSans-30" x="190.869141"/>
      </g>
     </g>
    </g>
    <g id="xtick_15">
     <g id="line2d_22">
      <g>
       <use xlink:href="#m93731cf15b" x="317.868623" y="264.04" style="stroke: #000000; stroke-width: 0.8"/>
      </g>
     </g>
     <g id="text_22">
      <!-- 5000 -->
      <g transform="translate(305.143623 278.638438) scale(0.1 -0.1)">
       <use xlink:href="#DejaVuSans-35"/>
       <use xlink:href="#DejaVuSans-30" x="63.623047"/>
       <use xlink:href="#DejaVuSans-30" x="127.246094"/>
       <use xlink:href="#DejaVuSans-30" x="190.869141"/>
      </g>
     </g>
    </g>
    <g id="xtick_16">
     <g id="line2d_23">
      <g>
       <use xlink:href="#m93731cf15b" x="370.206347" y="264.04" style="stroke: #000000; stroke-width: 0.8"/>
      </g>
     </g>
     <g id="text_23">
      <!-- 6000 -->
      <g transform="translate(357.481347 278.638438) scale(0.1 -0.1)">
       <use xlink:href="#DejaVuSans-36"/>
       <use xlink:href="#DejaVuSans-30" x="63.623047"/>
       <use xlink:href="#DejaVuSans-30" x="127.246094"/>
       <use xlink:href="#DejaVuSans-30" x="190.869141"/>
      </g>
     </g>
    </g>
    <g id="xtick_17">
     <g id="line2d_24">
      <g>
       <use xlink:href="#m93731cf15b" x="422.544072" y="264.04" style="stroke: #000000; stroke-width: 0.8"/>
      </g>
     </g>
     <g id="text_24">
      <!-- 7000 -->
      <g transform="translate(409.819072 278.638438) scale(0.1 -0.1)">
       <use xlink:href="#DejaVuSans-37"/>
       <use xlink:href="#DejaVuSans-30" x="63.623047"/>
       <use xlink:href="#DejaVuSans-30" x="127.246094"/>
       <use xlink:href="#DejaVuSans-30" x="190.869141"/>
      </g>
     </g>
    </g>
    <g id="xtick_18">
     <g id="line2d_25">
      <g>
       <use xlink:href="#m93731cf15b" x="474.881796" y="264.04" style="stroke: #000000; stroke-width: 0.8"/>
      </g>
     </g>
     <g id="text_25">
      <!-- 8000 -->
      <g transform="translate(462.156796 278.638438) scale(0.1 -0.1)">
       <use xlink:href="#DejaVuSans-38"/>
       <use xlink:href="#DejaVuSans-30" x="63.623047"/>
       <use xlink:href="#DejaVuSans-30" x="127.246094"/>
       <use xlink:href="#DejaVuSans-30" x="190.869141"/>
      </g>
     </g>
    </g>
    <g id="text_26">
     <!-- Time (ms) -->
     <g transform="translate(249.490781 292.316563) scale(0.1 -0.1)">
      <use xlink:href="#DejaVuSans-54"/>
      <use xlink:href="#DejaVuSans-69" x="57.958984"/>
      <use xlink:href="#DejaVuSans-6d" x="85.742188"/>
      <use xlink:href="#DejaVuSans-65" x="183.154297"/>
      <use xlink:href="#DejaVuSans-20" x="244.677734"/>
      <use xlink:href="#DejaVuSans-28" x="276.464844"/>
      <use xlink:href="#DejaVuSans-6d" x="315.478516"/>
      <use xlink:href="#DejaVuSans-73" x="412.890625"/>
      <use xlink:href="#DejaVuSans-29" x="464.990234"/>
     </g>
    </g>
   </g>
   <g id="matplotlib.axis_4">
    <g id="ytick_6">
     <g id="line2d_26">
      <g>
       <use xlink:href="#m2653bc1a2f" x="56.18" y="259.238182" style="stroke: #000000; stroke-width: 0.8"/>
      </g>
     </g>
     <g id="text_27">
      <!-- −1.0 -->
      <g transform="translate(24.897188 263.037401) scale(0.1 -0.1)">
       <use xlink:href="#DejaVuSans-2212"/>
       <use xlink:href="#DejaVuSans-31" x="83.789062"/>
       <use xlink:href="#DejaVuSans-2e" x="147.412109"/>
       <use xlink:href="#DejaVuSans-30" x="179.199219"/>
      </g>
     </g>
    </g>
    <g id="ytick_7">
     <g id="line2d_27">
      <g>
       <use xlink:href="#m2653bc1a2f" x="56.18" y="235.229091" style="stroke: #000000; stroke-width: 0.8"/>
      </g>
     </g>
     <g id="text_28">
      <!-- −0.5 -->
      <g transform="translate(24.897188 239.02831) scale(0.1 -0.1)">
       <use xlink:href="#DejaVuSans-2212"/>
       <use xlink:href="#DejaVuSans-30" x="83.789062"/>
       <use xlink:href="#DejaVuSans-2e" x="147.412109"/>
       <use xlink:href="#DejaVuSans-35" x="179.199219"/>
      </g>
     </g>
    </g>
    <g id="ytick_8">
     <g id="line2d_28">
      <g>
       <use xlink:href="#m2653bc1a2f" x="56.18" y="211.22" style="stroke: #000000; stroke-width: 0.8"/>
      </g>
     </g>
     <g id="text_29">
      <!-- 0.0 -->
      <g transform="translate(33.276875 215.019219) scale(0.1 -0.1)">
       <use xlink:href="#DejaVuSans-30"/>
       <use xlink:href="#DejaVuSans-2e" x="63.623047"/>
       <use xlink:href="#DejaVuSans-30" x="95.410156"/>
      </g>
     </g>
    </g>
    <g id="ytick_9">
     <g id="line2d_29">
      <g>
       <use xlink:href="#m2653bc1a2f" x="56.18" y="187.210909" style="stroke: #000000; stroke-width: 0.8"/>
      </g>
     </g>
     <g id="text_30">
      <!-- 0.5 -->
      <g transform="translate(33.276875 191.010128) scale(0.1 -0.1)">
       <use xlink:href="#DejaVuSans-30"/>
       <use xlink:href="#DejaVuSans-2e" x="63.623047"/>
       <use xlink:href="#DejaVuSans-35" x="95.410156"/>
      </g>
     </g>
    </g>
    <g id="ytick_10">
     <g id="line2d_30">
      <g>
       <use xlink:href="#m2653bc1a2f" x="56.18" y="163.201818" style="stroke: #000000; stroke-width: 0.8"/>
      </g>
     </g>
     <g id="text_31">
      <!-- 1.0 -->
      <g transform="translate(33.276875 167.001037) scale(0.1 -0.1)">
       <use xlink:href="#DejaVuSans-31"/>
       <use xlink:href="#DejaVuSans-2e" x="63.623047"/>
       <use xlink:href="#DejaVuSans-30" x="95.410156"/>
      </g>
     </g>
    </g>
    <g id="text_32">
     <!-- Y-Axis Value -->
     <g transform="translate(18.8175 241.065313) rotate(-90) scale(0.1 -0.1)">
      <defs>
       <path id="DejaVuSans-59" d="M -13 4666 
L 666 4666 
L 1959 2747 
L 3244 4666 
L 3922 4666 
L 2272 2222 
L 2272 0 
L 1638 0 
L 1638 2222 
L -13 4666 
z
" transform="scale(0.015625)"/>
      </defs>
      <use xlink:href="#DejaVuSans-59"/>
      <use xlink:href="#DejaVuSans-2d" x="49.208984"/>
      <use xlink:href="#DejaVuSans-41" x="83.042969"/>
      <use xlink:href="#DejaVuSans-78" x="151.451172"/>
      <use xlink:href="#DejaVuSans-69" x="210.630859"/>
      <use xlink:href="#DejaVuSans-73" x="238.414062"/>
      <use xlink:href="#DejaVuSans-20" x="290.513672"/>
      <use xlink:href="#DejaVuSans-56" x="322.300781"/>
      <use xlink:href="#DejaVuSans-61" x="382.958984"/>
      <use xlink:href="#DejaVuSans-6c" x="444.238281"/>
      <use xlink:href="#DejaVuSans-75" x="472.021484"/>
      <use xlink:href="#DejaVuSans-65" x="535.400391"/>
     </g>
    </g>
   </g>
   <g id="line2d_31">
    <path d="M 56.18 205.938 
L 57.750132 205.938 
L 58.273509 206.418182 
L 58.796886 205.938 
L 62.983904 205.938 
L 63.507281 206.418182 
L 64.030659 205.938 
L 64.554036 205.938 
L 65.077413 206.418182 
L 65.60079 205.938 
L 66.124168 206.418182 
L 66.647545 206.418182 
L 67.170922 205.938 
L 81.302108 205.938 
L 81.825485 205.457818 
L 82.348862 205.938 
L 82.87224 205.457818 
L 83.918994 205.457818 
L 84.442371 205.938 
L 84.965749 205.457818 
L 85.489126 205.938 
L 86.012503 205.457818 
L 86.53588 205.457818 
L 87.059257 205.938 
L 91.769653 205.938 
L 92.29303 206.418182 
L 98.573557 206.418182 
L 99.620311 205.457818 
L 100.143689 205.457818 
L 101.190443 204.497455 
L 101.71382 204.497455 
L 102.760575 203.537091 
L 103.283952 203.537091 
L 103.807329 203.056909 
L 104.330707 202.096545 
L 105.900838 200.656 
L 106.424216 199.695636 
L 107.47097 198.735273 
L 107.994347 197.774909 
L 108.517725 197.294727 
L 109.041102 196.334364 
L 109.564479 195.854182 
L 110.087856 194.413636 
L 111.134611 193.453273 
L 112.181365 191.532545 
L 112.704743 191.052364 
L 113.22812 190.092 
L 114.274874 189.131636 
L 114.798251 188.171273 
L 115.845006 187.210909 
L 117.415138 187.210909 
L 117.938515 186.730727 
L 118.461892 187.210909 
L 118.985269 186.730727 
L 119.508647 187.210909 
L 124.742419 187.210909 
L 125.265796 187.691091 
L 126.312551 187.691091 
L 126.835928 187.210909 
L 127.359305 187.691091 
L 128.40606 187.691091 
L 128.929437 187.210909 
L 129.976192 187.210909 
L 130.499569 187.691091 
L 131.022946 187.210909 
L 132.593078 187.210909 
L 133.116455 187.691091 
L 133.639832 187.691091 
L 134.16321 187.210909 
L 134.686587 187.691091 
L 135.209964 187.210909 
L 136.256719 187.210909 
L 136.780096 187.691091 
L 137.303473 187.210909 
L 143.060623 187.210909 
L 143.584 186.250545 
L 144.107377 185.770364 
L 145.677509 185.770364 
L 146.200886 185.290182 
L 146.724263 185.770364 
L 147.247641 185.290182 
L 157.191808 185.290182 
L 157.715186 185.770364 
L 159.285317 185.770364 
L 159.808695 186.250545 
L 163.995713 186.250545 
L 164.51909 186.730727 
L 165.565844 186.730727 
L 166.089222 187.210909 
L 166.612599 187.210909 
L 167.135976 187.691091 
L 167.659353 187.691091 
L 168.182731 188.171273 
L 168.706108 187.691091 
L 169.229485 188.171273 
L 169.752862 187.691091 
L 170.27624 188.171273 
L 170.799617 187.691091 
L 171.322994 187.691091 
L 171.846371 188.171273 
L 172.369749 187.691091 
L 173.416503 187.691091 
L 173.93988 188.171273 
L 174.463257 187.691091 
L 174.986635 188.171273 
L 184.407425 188.171273 
L 184.930802 188.651455 
L 187.024311 188.651455 
L 187.547689 189.131636 
L 188.594443 189.131636 
L 190.687952 191.052364 
L 191.211329 191.052364 
L 192.258084 192.012727 
L 192.781461 192.012727 
L 193.304838 192.492909 
L 193.828216 192.492909 
L 195.921725 194.413636 
L 196.445102 194.413636 
L 198.015234 195.854182 
L 198.538611 195.854182 
L 200.108743 197.294727 
L 200.63212 197.294727 
L 201.155497 198.255091 
L 206.912647 203.537091 
L 207.436024 203.537091 
L 209.006156 204.977636 
L 209.529533 204.977636 
L 210.576287 205.938 
L 211.099665 205.938 
L 211.623042 206.898364 
L 212.146419 206.898364 
L 216.333437 210.739818 
L 216.856814 210.739818 
L 217.380192 211.700182 
L 217.903569 211.700182 
L 219.473701 213.140727 
L 219.997078 213.140727 
L 222.090587 215.061455 
L 222.613964 215.061455 
L 224.184096 216.502 
L 224.707473 216.502 
L 227.324359 218.902909 
L 227.847737 219.863273 
L 230.464623 222.264182 
L 230.988 222.264182 
L 231.511377 222.744364 
L 232.558132 222.744364 
L 233.081509 223.224545 
L 234.651641 223.224545 
L 235.175018 223.704727 
L 240.40879 223.704727 
L 240.932168 224.184909 
L 242.502299 224.184909 
L 243.025677 224.665091 
L 246.16594 224.665091 
L 246.689317 225.145273 
L 247.212695 224.665091 
L 247.736072 225.145273 
L 249.306204 225.145273 
L 249.829581 225.625455 
L 252.446467 225.625455 
L 252.969844 226.105636 
L 256.110108 226.105636 
L 256.633485 226.585818 
L 257.156862 226.105636 
L 257.68024 226.585818 
L 260.297126 226.585818 
L 260.820503 227.066 
L 263.960766 227.066 
L 264.484144 227.546182 
L 268.147784 227.546182 
L 268.671162 228.026364 
L 269.194539 227.546182 
L 269.717916 228.026364 
L 270.241293 227.546182 
L 270.764671 228.026364 
L 292.223138 228.026364 
L 292.746515 227.546182 
L 293.269892 228.026364 
L 295.886778 228.026364 
L 296.410156 227.546182 
L 296.933533 228.026364 
L 297.45691 228.026364 
L 297.980287 227.546182 
L 301.643928 227.546182 
L 302.167305 227.066 
L 304.260814 227.066 
L 304.784192 226.585818 
L 305.830946 226.585818 
L 306.354323 226.105636 
L 307.401078 226.105636 
L 307.924455 225.625455 
L 308.447832 225.625455 
L 308.97121 225.145273 
L 311.064719 225.145273 
L 311.588096 224.665091 
L 314.204982 224.665091 
L 314.728359 224.184909 
L 315.251737 224.184909 
L 319.438754 220.343455 
L 319.962132 220.343455 
L 322.055641 218.422727 
L 322.579018 218.422727 
L 324.14915 216.982182 
L 324.672527 216.982182 
L 325.195904 216.502 
L 325.719281 216.502 
L 326.242659 216.021818 
L 326.766036 216.021818 
L 331.476431 211.700182 
L 331.999808 211.700182 
L 333.046563 210.739818 
L 334.093317 210.739818 
L 334.616695 210.259636 
L 335.140072 210.259636 
L 336.186826 209.299273 
L 336.710204 209.299273 
L 337.756958 208.338909 
L 338.280335 208.338909 
L 338.803713 207.858727 
L 339.32709 207.858727 
L 339.850467 207.378545 
L 340.373844 207.378545 
L 340.897222 206.898364 
L 341.420599 206.898364 
L 342.467353 204.977636 
L 343.514108 204.017273 
L 344.037485 204.017273 
L 347.701126 200.656 
L 348.224503 200.656 
L 351.364766 197.774909 
L 351.888144 197.774909 
L 353.981653 195.854182 
L 354.50503 195.854182 
L 356.598539 193.933455 
L 357.121916 193.933455 
L 358.168671 192.973091 
L 358.692048 192.973091 
L 359.215425 192.492909 
L 359.738802 192.492909 
L 360.785557 191.532545 
L 361.308934 191.532545 
L 361.832311 191.052364 
L 362.355689 191.052364 
L 362.879066 190.572182 
L 364.449198 190.572182 
L 364.972575 190.092 
L 366.542707 190.092 
L 367.066084 189.611818 
L 368.636216 189.611818 
L 369.159593 189.131636 
L 371.253102 189.131636 
L 371.776479 188.651455 
L 372.823234 188.651455 
L 373.346611 188.171273 
L 373.869988 188.171273 
L 374.393365 187.691091 
L 374.916743 187.691091 
L 375.963497 186.730727 
L 376.486874 186.730727 
L 377.010251 186.250545 
L 377.533629 186.250545 
L 378.057006 185.770364 
L 379.10376 185.770364 
L 379.627138 185.290182 
L 380.150515 185.770364 
L 380.673892 185.290182 
L 383.290778 185.290182 
L 383.814156 184.81 
L 385.384287 184.81 
L 385.907665 184.329818 
L 386.431042 184.81 
L 386.954419 184.329818 
L 390.094683 184.329818 
L 390.61806 183.849636 
L 415.21679 183.849636 
L 415.740168 183.369455 
L 416.263545 183.849636 
L 416.786922 183.369455 
L 417.310299 183.849636 
L 421.497317 183.849636 
L 422.020695 183.369455 
L 422.544072 183.849636 
L 426.207713 183.849636 
L 426.73109 183.369455 
L 427.254467 183.849636 
L 428.301222 183.849636 
L 429.871353 185.290182 
L 430.394731 185.290182 
L 431.964862 186.730727 
L 432.48824 187.691091 
L 433.534994 188.651455 
L 434.058371 189.611818 
L 434.581749 190.092 
L 436.15188 192.973091 
L 436.675257 193.453273 
L 437.198635 194.893818 
L 437.722012 195.374 
L 439.292144 198.255091 
L 440.338898 199.215455 
L 441.385653 201.136182 
L 442.432407 202.096545 
L 442.955784 203.056909 
L 443.479162 203.537091 
L 444.002539 203.537091 
L 445.572671 204.977636 
L 446.619425 204.977636 
L 447.142802 205.457818 
L 447.66618 205.457818 
L 448.189557 205.938 
L 460.750611 205.938 
L 461.273988 206.418182 
L 461.797365 205.938 
L 462.320743 206.418182 
L 462.84412 206.418182 
L 463.367497 205.938 
L 463.890874 206.418182 
L 473.311665 206.418182 
L 473.835042 206.898364 
L 474.358419 206.418182 
L 474.881796 206.898364 
L 476.451928 206.898364 
L 476.975305 206.418182 
L 479.068814 206.418182 
L 479.592192 206.898364 
L 480.115569 206.418182 
L 480.638946 206.898364 
L 481.162323 206.418182 
L 481.685701 206.898364 
L 482.209078 206.418182 
L 482.732455 206.898364 
L 483.255832 206.418182 
L 483.77921 206.898364 
L 484.302587 206.418182 
L 484.825964 206.898364 
L 486.396096 206.898364 
L 486.919473 206.418182 
L 487.44285 206.418182 
L 487.966228 206.898364 
L 489.012982 206.898364 
L 489.536359 206.418182 
L 490.059737 206.898364 
L 490.583114 206.898364 
L 491.106491 206.418182 
L 491.629868 206.418182 
L 492.153246 206.898364 
L 493.2 206.898364 
L 493.2 206.898364 
" clip-path="url(#p1263088033)" style="fill: none; stroke: #1f77b4; stroke-width: 1.5; stroke-linecap: square"/>
   </g>
   <g id="line2d_32">
    <path d="M 56.18 211.22 
L 493.2 211.22 
" clip-path="url(#p1263088033)" style="fill: none; stroke-dasharray: 2.96,1.28; stroke-dashoffset: 0; stroke: #808080; stroke-width: 0.8"/>
   </g>
   <g id="patch_6">
    <path d="M 56.18 264.04 
L 56.18 158.4 
" style="fill: none; stroke: #000000; stroke-width: 0.8; stroke-linejoin: miter; stroke-linecap: square"/>
   </g>
   <g id="patch_7">
    <path d="M 56.18 264.04 
L 493.2 264.04 
" style="fill: none; stroke: #000000; stroke-width: 0.8; stroke-linejoin: miter; stroke-linecap: square"/>
   </g>
  </g>
 </g>
 <defs>
  <clipPath id="p4abdfaaaef">
   <rect x="56.18" y="10.8" width="437.02" height="105.64"/>
  </clipPath>
  <clipPath id="p1263088033">
   <rect x="56.18" y="158.4" width="437.02" height="105.64"/>
  </clipPath>
 </defs>
</svg>
