<?xml version="1.0" encoding="utf-8" standalone="no"?>
<!DOCTYPE svg PUBLIC "-//W3C//DTD SVG 1.1//EN"
  "http://www.w3.org/Graphics/SVG/1.1/DTD/svg11.dtd">
<svg xmlns:xlink="http://www.w3.org/1999/xlink" width="504pt" height="306pt" viewBox="0 0 504 306" xmlns="http://www.w3.org/2000/svg" version="1.1">
 <metadata>
  <rdf:RDF xmlns:dc="http://purl.org/dc/elements/1.1/" xmlns:cc="http://creativecommons.org/ns#" xmlns:rdf="http://www.w3.org/1999/02/22-rdf-syntax-ns#">
   <cc:Work>
    <dc:type rdf:resource="http://purl.org/dc/dcmitype/StillImage"/>
    <dc:date>2024-06-16T21:02:29.871312</dc:date>
    <dc:format>image/svg+xml</dc:format>
    <dc:creator>
     <cc:Agent>
      <dc:title>Matplotlib v3.8.3, https://matplotlib.org/</dc:title>
     </cc:Agent>
    </dc:creator>
   </cc:Work>
  </rdf:RDF>
 </metadata>
 <defs>
  <style type="text/css">*{stroke-linejoin: round; stroke-linecap: butt}</style>
 </defs>
 <g id="figure_1">
  <g id="patch_1">
   <path d="M 0 306 
L 504 306 
L 504 0 
L 0 0 
z
" style="fill: #ffffff"/>
  </g>
  <g id="axes_1">
   <g id="patch_2">
    <path d="M 56.18 116.44 
L 493.2 116.44 
L 493.2 10.8 
L 56.18 10.8 
z
" style="fill: #ffffff"/>
   </g>
   <g id="matplotlib.axis_1">
    <g id="xtick_1">
     <g id="line2d_1">
      <defs>
       <path id="mbc9fcc5b42" d="M 0 0 
L 0 3.5 
" style="stroke: #000000; stroke-width: 0.8"/>
      </defs>
      <g>
       <use xlink:href="#mbc9fcc5b42" x="56.18" y="116.44" style="stroke: #000000; stroke-width: 0.8"/>
      </g>
     </g>
     <g id="text_1">
      <!-- 0 -->
      <g transform="translate(52.99875 131.038437) scale(0.1 -0.1)">
       <defs>
        <path id="DejaVuSans-30" d="M 2034 4250 
Q 1547 4250 1301 3770 
Q 1056 3291 1056 2328 
Q 1056 1369 1301 889 
Q 1547 409 2034 409 
Q 2525 409 2770 889 
Q 3016 1369 3016 2328 
Q 3016 3291 2770 3770 
Q 2525 4250 2034 4250 
z
M 2034 4750 
Q 2819 4750 3233 4129 
Q 3647 3509 3647 2328 
Q 3647 1150 3233 529 
Q 2819 -91 2034 -91 
Q 1250 -91 836 529 
Q 422 1150 422 2328 
Q 422 3509 836 4129 
Q 1250 4750 2034 4750 
z
" transform="scale(0.015625)"/>
       </defs>
       <use xlink:href="#DejaVuSans-30"/>
      </g>
     </g>
    </g>
    <g id="xtick_2">
     <g id="line2d_2">
      <g>
       <use xlink:href="#mbc9fcc5b42" x="146.923355" y="116.44" style="stroke: #000000; stroke-width: 0.8"/>
      </g>
     </g>
     <g id="text_2">
      <!-- 5000 -->
      <g transform="translate(134.198355 131.038437) scale(0.1 -0.1)">
       <defs>
        <path id="DejaVuSans-35" d="M 691 4666 
L 3169 4666 
L 3169 4134 
L 1269 4134 
L 1269 2991 
Q 1406 3038 1543 3061 
Q 1681 3084 1819 3084 
Q 2600 3084 3056 2656 
Q 3513 2228 3513 1497 
Q 3513 744 3044 326 
Q 2575 -91 1722 -91 
Q 1428 -91 1123 -41 
Q 819 9 494 109 
L 494 744 
Q 775 591 1075 516 
Q 1375 441 1709 441 
Q 2250 441 2565 725 
Q 2881 1009 2881 1497 
Q 2881 1984 2565 2268 
Q 2250 2553 1709 2553 
Q 1456 2553 1204 2497 
Q 953 2441 691 2322 
L 691 4666 
z
" transform="scale(0.015625)"/>
       </defs>
       <use xlink:href="#DejaVuSans-35"/>
       <use xlink:href="#DejaVuSans-30" x="63.623047"/>
       <use xlink:href="#DejaVuSans-30" x="127.246094"/>
       <use xlink:href="#DejaVuSans-30" x="190.869141"/>
      </g>
     </g>
    </g>
    <g id="xtick_3">
     <g id="line2d_3">
      <g>
       <use xlink:href="#mbc9fcc5b42" x="237.666711" y="116.44" style="stroke: #000000; stroke-width: 0.8"/>
      </g>
     </g>
     <g id="text_3">
      <!-- 10000 -->
      <g transform="translate(221.760461 131.038437) scale(0.1 -0.1)">
       <defs>
        <path id="DejaVuSans-31" d="M 794 531 
L 1825 531 
L 1825 4091 
L 703 3866 
L 703 4441 
L 1819 4666 
L 2450 4666 
L 2450 531 
L 3481 531 
L 3481 0 
L 794 0 
L 794 531 
z
" transform="scale(0.015625)"/>
       </defs>
       <use xlink:href="#DejaVuSans-31"/>
       <use xlink:href="#DejaVuSans-30" x="63.623047"/>
       <use xlink:href="#DejaVuSans-30" x="127.246094"/>
       <use xlink:href="#DejaVuSans-30" x="190.869141"/>
       <use xlink:href="#DejaVuSans-30" x="254.492188"/>
      </g>
     </g>
    </g>
    <g id="xtick_4">
     <g id="line2d_4">
      <g>
       <use xlink:href="#mbc9fcc5b42" x="328.410066" y="116.44" style="stroke: #000000; stroke-width: 0.8"/>
      </g>
     </g>
     <g id="text_4">
      <!-- 15000 -->
      <g transform="translate(312.503816 131.038437) scale(0.1 -0.1)">
       <use xlink:href="#DejaVuSans-31"/>
       <use xlink:href="#DejaVuSans-35" x="63.623047"/>
       <use xlink:href="#DejaVuSans-30" x="127.246094"/>
       <use xlink:href="#DejaVuSans-30" x="190.869141"/>
       <use xlink:href="#DejaVuSans-30" x="254.492188"/>
      </g>
     </g>
    </g>
    <g id="xtick_5">
     <g id="line2d_5">
      <g>
       <use xlink:href="#mbc9fcc5b42" x="419.153422" y="116.44" style="stroke: #000000; stroke-width: 0.8"/>
      </g>
     </g>
     <g id="text_5">
      <!-- 20000 -->
      <g transform="translate(403.247172 131.038437) scale(0.1 -0.1)">
       <defs>
        <path id="DejaVuSans-32" d="M 1228 531 
L 3431 531 
L 3431 0 
L 469 0 
L 469 531 
Q 828 903 1448 1529 
Q 2069 2156 2228 2338 
Q 2531 2678 2651 2914 
Q 2772 3150 2772 3378 
Q 2772 3750 2511 3984 
Q 2250 4219 1831 4219 
Q 1534 4219 1204 4116 
Q 875 4013 500 3803 
L 500 4441 
Q 881 4594 1212 4672 
Q 1544 4750 1819 4750 
Q 2544 4750 2975 4387 
Q 3406 4025 3406 3419 
Q 3406 3131 3298 2873 
Q 3191 2616 2906 2266 
Q 2828 2175 2409 1742 
Q 1991 1309 1228 531 
z
" transform="scale(0.015625)"/>
       </defs>
       <use xlink:href="#DejaVuSans-32"/>
       <use xlink:href="#DejaVuSans-30" x="63.623047"/>
       <use xlink:href="#DejaVuSans-30" x="127.246094"/>
       <use xlink:href="#DejaVuSans-30" x="190.869141"/>
       <use xlink:href="#DejaVuSans-30" x="254.492188"/>
      </g>
     </g>
    </g>
    <g id="text_6">
     <!-- Time (ms) -->
     <g transform="translate(249.490781 144.716562) scale(0.1 -0.1)">
      <defs>
       <path id="DejaVuSans-54" d="M -19 4666 
L 3928 4666 
L 3928 4134 
L 2272 4134 
L 2272 0 
L 1638 0 
L 1638 4134 
L -19 4134 
L -19 4666 
z
" transform="scale(0.015625)"/>
       <path id="DejaVuSans-69" d="M 603 3500 
L 1178 3500 
L 1178 0 
L 603 0 
L 603 3500 
z
M 603 4863 
L 1178 4863 
L 1178 4134 
L 603 4134 
L 603 4863 
z
" transform="scale(0.015625)"/>
       <path id="DejaVuSans-6d" d="M 3328 2828 
Q 3544 3216 3844 3400 
Q 4144 3584 4550 3584 
Q 5097 3584 5394 3201 
Q 5691 2819 5691 2113 
L 5691 0 
L 5113 0 
L 5113 2094 
Q 5113 2597 4934 2840 
Q 4756 3084 4391 3084 
Q 3944 3084 3684 2787 
Q 3425 2491 3425 1978 
L 3425 0 
L 2847 0 
L 2847 2094 
Q 2847 2600 2669 2842 
Q 2491 3084 2119 3084 
Q 1678 3084 1418 2786 
Q 1159 2488 1159 1978 
L 1159 0 
L 581 0 
L 581 3500 
L 1159 3500 
L 1159 2956 
Q 1356 3278 1631 3431 
Q 1906 3584 2284 3584 
Q 2666 3584 2933 3390 
Q 3200 3197 3328 2828 
z
" transform="scale(0.015625)"/>
       <path id="DejaVuSans-65" d="M 3597 1894 
L 3597 1613 
L 953 1613 
Q 991 1019 1311 708 
Q 1631 397 2203 397 
Q 2534 397 2845 478 
Q 3156 559 3463 722 
L 3463 178 
Q 3153 47 2828 -22 
Q 2503 -91 2169 -91 
Q 1331 -91 842 396 
Q 353 884 353 1716 
Q 353 2575 817 3079 
Q 1281 3584 2069 3584 
Q 2775 3584 3186 3129 
Q 3597 2675 3597 1894 
z
M 3022 2063 
Q 3016 2534 2758 2815 
Q 2500 3097 2075 3097 
Q 1594 3097 1305 2825 
Q 1016 2553 972 2059 
L 3022 2063 
z
" transform="scale(0.015625)"/>
       <path id="DejaVuSans-20" transform="scale(0.015625)"/>
       <path id="DejaVuSans-28" d="M 1984 4856 
Q 1566 4138 1362 3434 
Q 1159 2731 1159 2009 
Q 1159 1288 1364 580 
Q 1569 -128 1984 -844 
L 1484 -844 
Q 1016 -109 783 600 
Q 550 1309 550 2009 
Q 550 2706 781 3412 
Q 1013 4119 1484 4856 
L 1984 4856 
z
" transform="scale(0.015625)"/>
       <path id="DejaVuSans-73" d="M 2834 3397 
L 2834 2853 
Q 2591 2978 2328 3040 
Q 2066 3103 1784 3103 
Q 1356 3103 1142 2972 
Q 928 2841 928 2578 
Q 928 2378 1081 2264 
Q 1234 2150 1697 2047 
L 1894 2003 
Q 2506 1872 2764 1633 
Q 3022 1394 3022 966 
Q 3022 478 2636 193 
Q 2250 -91 1575 -91 
Q 1294 -91 989 -36 
Q 684 19 347 128 
L 347 722 
Q 666 556 975 473 
Q 1284 391 1588 391 
Q 1994 391 2212 530 
Q 2431 669 2431 922 
Q 2431 1156 2273 1281 
Q 2116 1406 1581 1522 
L 1381 1569 
Q 847 1681 609 1914 
Q 372 2147 372 2553 
Q 372 3047 722 3315 
Q 1072 3584 1716 3584 
Q 2034 3584 2315 3537 
Q 2597 3491 2834 3397 
z
" transform="scale(0.015625)"/>
       <path id="DejaVuSans-29" d="M 513 4856 
L 1013 4856 
Q 1481 4119 1714 3412 
Q 1947 2706 1947 2009 
Q 1947 1309 1714 600 
Q 1481 -109 1013 -844 
L 513 -844 
Q 928 -128 1133 580 
Q 1338 1288 1338 2009 
Q 1338 2731 1133 3434 
Q 928 4138 513 4856 
z
" transform="scale(0.015625)"/>
      </defs>
      <use xlink:href="#DejaVuSans-54"/>
      <use xlink:href="#DejaVuSans-69" x="57.958984"/>
      <use xlink:href="#DejaVuSans-6d" x="85.742188"/>
      <use xlink:href="#DejaVuSans-65" x="183.154297"/>
      <use xlink:href="#DejaVuSans-20" x="244.677734"/>
      <use xlink:href="#DejaVuSans-28" x="276.464844"/>
      <use xlink:href="#DejaVuSans-6d" x="315.478516"/>
      <use xlink:href="#DejaVuSans-73" x="412.890625"/>
      <use xlink:href="#DejaVuSans-29" x="464.990234"/>
     </g>
    </g>
   </g>
   <g id="matplotlib.axis_2">
    <g id="ytick_1">
     <g id="line2d_6">
      <defs>
       <path id="mdad855db45" d="M 0 0 
L -3.5 0 
" style="stroke: #000000; stroke-width: 0.8"/>
      </defs>
      <g>
       <use xlink:href="#mdad855db45" x="56.18" y="111.638182" style="stroke: #000000; stroke-width: 0.8"/>
      </g>
     </g>
     <g id="text_7">
      <!-- −1.0 -->
      <g transform="translate(24.897188 115.437401) scale(0.1 -0.1)">
       <defs>
        <path id="DejaVuSans-2212" d="M 678 2272 
L 4684 2272 
L 4684 1741 
L 678 1741 
L 678 2272 
z
" transform="scale(0.015625)"/>
        <path id="DejaVuSans-2e" d="M 684 794 
L 1344 794 
L 1344 0 
L 684 0 
L 684 794 
z
" transform="scale(0.015625)"/>
       </defs>
       <use xlink:href="#DejaVuSans-2212"/>
       <use xlink:href="#DejaVuSans-31" x="83.789062"/>
       <use xlink:href="#DejaVuSans-2e" x="147.412109"/>
       <use xlink:href="#DejaVuSans-30" x="179.199219"/>
      </g>
     </g>
    </g>
    <g id="ytick_2">
     <g id="line2d_7">
      <g>
       <use xlink:href="#mdad855db45" x="56.18" y="87.629091" style="stroke: #000000; stroke-width: 0.8"/>
      </g>
     </g>
     <g id="text_8">
      <!-- −0.5 -->
      <g transform="translate(24.897188 91.42831) scale(0.1 -0.1)">
       <use xlink:href="#DejaVuSans-2212"/>
       <use xlink:href="#DejaVuSans-30" x="83.789062"/>
       <use xlink:href="#DejaVuSans-2e" x="147.412109"/>
       <use xlink:href="#DejaVuSans-35" x="179.199219"/>
      </g>
     </g>
    </g>
    <g id="ytick_3">
     <g id="line2d_8">
      <g>
       <use xlink:href="#mdad855db45" x="56.18" y="63.62" style="stroke: #000000; stroke-width: 0.8"/>
      </g>
     </g>
     <g id="text_9">
      <!-- 0.0 -->
      <g transform="translate(33.276875 67.419219) scale(0.1 -0.1)">
       <use xlink:href="#DejaVuSans-30"/>
       <use xlink:href="#DejaVuSans-2e" x="63.623047"/>
       <use xlink:href="#DejaVuSans-30" x="95.410156"/>
      </g>
     </g>
    </g>
    <g id="ytick_4">
     <g id="line2d_9">
      <g>
       <use xlink:href="#mdad855db45" x="56.18" y="39.610909" style="stroke: #000000; stroke-width: 0.8"/>
      </g>
     </g>
     <g id="text_10">
      <!-- 0.5 -->
      <g transform="translate(33.276875 43.410128) scale(0.1 -0.1)">
       <use xlink:href="#DejaVuSans-30"/>
       <use xlink:href="#DejaVuSans-2e" x="63.623047"/>
       <use xlink:href="#DejaVuSans-35" x="95.410156"/>
      </g>
     </g>
    </g>
    <g id="ytick_5">
     <g id="line2d_10">
      <g>
       <use xlink:href="#mdad855db45" x="56.18" y="15.601818" style="stroke: #000000; stroke-width: 0.8"/>
      </g>
     </g>
     <g id="text_11">
      <!-- 1.0 -->
      <g transform="translate(33.276875 19.401037) scale(0.1 -0.1)">
       <use xlink:href="#DejaVuSans-31"/>
       <use xlink:href="#DejaVuSans-2e" x="63.623047"/>
       <use xlink:href="#DejaVuSans-30" x="95.410156"/>
      </g>
     </g>
    </g>
    <g id="text_12">
     <!-- X-Axis Value -->
     <g transform="translate(18.8175 94.180156) rotate(-90) scale(0.1 -0.1)">
      <defs>
       <path id="DejaVuSans-58" d="M 403 4666 
L 1081 4666 
L 2241 2931 
L 3406 4666 
L 4084 4666 
L 2584 2425 
L 4184 0 
L 3506 0 
L 2194 1984 
L 872 0 
L 191 0 
L 1856 2491 
L 403 4666 
z
" transform="scale(0.015625)"/>
       <path id="DejaVuSans-2d" d="M 313 2009 
L 1997 2009 
L 1997 1497 
L 313 1497 
L 313 2009 
z
" transform="scale(0.015625)"/>
       <path id="DejaVuSans-41" d="M 2188 4044 
L 1331 1722 
L 3047 1722 
L 2188 4044 
z
M 1831 4666 
L 2547 4666 
L 4325 0 
L 3669 0 
L 3244 1197 
L 1141 1197 
L 716 0 
L 50 0 
L 1831 4666 
z
" transform="scale(0.015625)"/>
       <path id="DejaVuSans-78" d="M 3513 3500 
L 2247 1797 
L 3578 0 
L 2900 0 
L 1881 1375 
L 863 0 
L 184 0 
L 1544 1831 
L 300 3500 
L 978 3500 
L 1906 2253 
L 2834 3500 
L 3513 3500 
z
" transform="scale(0.015625)"/>
       <path id="DejaVuSans-56" d="M 1831 0 
L 50 4666 
L 709 4666 
L 2188 738 
L 3669 4666 
L 4325 4666 
L 2547 0 
L 1831 0 
z
" transform="scale(0.015625)"/>
       <path id="DejaVuSans-61" d="M 2194 1759 
Q 1497 1759 1228 1600 
Q 959 1441 959 1056 
Q 959 750 1161 570 
Q 1363 391 1709 391 
Q 2188 391 2477 730 
Q 2766 1069 2766 1631 
L 2766 1759 
L 2194 1759 
z
M 3341 1997 
L 3341 0 
L 2766 0 
L 2766 531 
Q 2569 213 2275 61 
Q 1981 -91 1556 -91 
Q 1019 -91 701 211 
Q 384 513 384 1019 
Q 384 1609 779 1909 
Q 1175 2209 1959 2209 
L 2766 2209 
L 2766 2266 
Q 2766 2663 2505 2880 
Q 2244 3097 1772 3097 
Q 1472 3097 1187 3025 
Q 903 2953 641 2809 
L 641 3341 
Q 956 3463 1253 3523 
Q 1550 3584 1831 3584 
Q 2591 3584 2966 3190 
Q 3341 2797 3341 1997 
z
" transform="scale(0.015625)"/>
       <path id="DejaVuSans-6c" d="M 603 4863 
L 1178 4863 
L 1178 0 
L 603 0 
L 603 4863 
z
" transform="scale(0.015625)"/>
       <path id="DejaVuSans-75" d="M 544 1381 
L 544 3500 
L 1119 3500 
L 1119 1403 
Q 1119 906 1312 657 
Q 1506 409 1894 409 
Q 2359 409 2629 706 
Q 2900 1003 2900 1516 
L 2900 3500 
L 3475 3500 
L 3475 0 
L 2900 0 
L 2900 538 
Q 2691 219 2414 64 
Q 2138 -91 1772 -91 
Q 1169 -91 856 284 
Q 544 659 544 1381 
z
M 1991 3584 
L 1991 3584 
z
" transform="scale(0.015625)"/>
      </defs>
      <use xlink:href="#DejaVuSans-58"/>
      <use xlink:href="#DejaVuSans-2d" x="63.505859"/>
      <use xlink:href="#DejaVuSans-41" x="97.339844"/>
      <use xlink:href="#DejaVuSans-78" x="165.748047"/>
      <use xlink:href="#DejaVuSans-69" x="224.927734"/>
      <use xlink:href="#DejaVuSans-73" x="252.710938"/>
      <use xlink:href="#DejaVuSans-20" x="304.810547"/>
      <use xlink:href="#DejaVuSans-56" x="336.597656"/>
      <use xlink:href="#DejaVuSans-61" x="397.255859"/>
      <use xlink:href="#DejaVuSans-6c" x="458.535156"/>
      <use xlink:href="#DejaVuSans-75" x="486.318359"/>
      <use xlink:href="#DejaVuSans-65" x="549.697266"/>
     </g>
    </g>
   </g>
   <g id="line2d_11">
    <path d="M 56.18 63.139818 
L 60.354194 63.139818 
L 60.535681 62.659636 
L 60.717168 63.139818 
L 60.898654 62.659636 
L 61.443115 62.659636 
L 61.624601 62.179455 
L 61.806088 62.179455 
L 61.987575 62.659636 
L 62.169061 62.179455 
L 62.350548 62.179455 
L 62.532035 62.659636 
L 62.713522 62.179455 
L 64.346902 62.179455 
L 64.528389 62.659636 
L 64.709875 62.179455 
L 64.891362 62.659636 
L 65.072849 62.659636 
L 65.254336 62.179455 
L 65.435822 62.659636 
L 65.617309 62.179455 
L 65.798796 62.659636 
L 65.980282 62.659636 
L 66.161769 62.179455 
L 66.343256 62.659636 
L 66.524743 62.659636 
L 66.706229 62.179455 
L 66.887716 62.179455 
L 67.069203 62.659636 
L 67.250689 62.659636 
L 67.432176 62.179455 
L 67.613663 62.659636 
L 67.79515 62.659636 
L 67.976636 62.179455 
L 68.158123 62.179455 
L 68.33961 62.659636 
L 68.521096 62.179455 
L 68.702583 62.659636 
L 71.06191 62.659636 
L 71.243397 63.139818 
L 71.60637 63.139818 
L 71.787857 63.62 
L 71.969344 63.139818 
L 72.150831 63.139818 
L 72.332317 63.62 
L 72.513804 63.139818 
L 73.239751 63.139818 
L 73.421238 63.62 
L 73.784211 63.62 
L 73.965698 64.100182 
L 75.962051 64.100182 
L 76.143538 63.62 
L 80.317733 63.62 
L 80.499219 63.139818 
L 80.680706 63.62 
L 87.032741 63.62 
L 87.214228 63.139818 
L 87.395714 63.62 
L 87.758688 63.62 
L 87.940174 63.139818 
L 88.121661 63.62 
L 90.118015 63.62 
L 90.299502 63.139818 
L 90.480988 63.62 
L 90.843962 63.62 
L 91.025449 63.139818 
L 91.388422 63.139818 
L 91.569909 63.62 
L 91.751395 63.139818 
L 91.932882 63.62 
L 92.114369 63.139818 
L 92.295855 63.62 
L 92.840316 63.62 
L 93.021802 63.139818 
L 93.203289 63.62 
L 93.384776 63.62 
L 93.566262 63.139818 
L 93.747749 63.62 
L 98.10343 63.62 
L 98.284917 63.139818 
L 101.370191 63.139818 
L 101.551678 63.62 
L 101.733164 63.139818 
L 101.914651 63.62 
L 105.907359 63.62 
L 106.088846 63.139818 
L 106.270332 63.62 
L 106.451819 63.139818 
L 106.633306 63.62 
L 106.814792 63.139818 
L 106.996279 63.62 
L 107.177766 63.139818 
L 107.359252 63.62 
L 107.540739 63.139818 
L 107.722226 63.62 
L 107.903713 63.139818 
L 108.085199 63.62 
L 108.992633 63.62 
L 109.17412 63.139818 
L 109.537093 63.139818 
L 109.71858 63.62 
L 110.26304 63.62 
L 110.444527 63.139818 
L 110.626013 63.62 
L 112.985341 63.62 
L 113.166827 63.139818 
L 113.348314 63.62 
L 115.163181 63.62 
L 115.707641 62.179455 
L 116.433588 57.857818 
L 116.978048 53.056 
L 117.341022 50.174909 
L 117.885482 45.853273 
L 119.881836 45.853273 
L 120.063322 46.333455 
L 120.244809 45.853273 
L 120.426296 46.333455 
L 120.607782 45.853273 
L 120.789269 45.853273 
L 120.970756 46.333455 
L 121.152243 45.853273 
L 121.333729 45.853273 
L 121.515216 46.333455 
L 121.878189 46.333455 
L 122.059676 45.853273 
L 122.241163 46.333455 
L 122.42265 46.333455 
L 122.604136 45.853273 
L 123.148596 45.853273 
L 123.330083 46.333455 
L 123.51157 45.853273 
L 123.693056 46.333455 
L 123.874543 45.853273 
L 124.05603 46.333455 
L 124.237517 45.853273 
L 124.963463 45.853273 
L 125.14495 46.333455 
L 125.326437 45.853273 
L 125.507924 45.853273 
L 125.68941 46.333455 
L 125.870897 45.853273 
L 126.052384 46.333455 
L 126.23387 46.333455 
L 126.415357 45.853273 
L 128.411711 45.853273 
L 128.593198 46.333455 
L 128.774684 45.853273 
L 129.319145 45.853273 
L 129.500631 46.333455 
L 129.682118 45.853273 
L 130.589551 45.853273 
L 130.771038 46.333455 
L 130.952525 45.853273 
L 134.763746 45.853273 
L 134.945233 46.333455 
L 135.126719 45.853273 
L 145.289975 45.853273 
L 145.471462 46.333455 
L 145.652949 45.853273 
L 146.015922 46.813636 
L 146.741869 50.174909 
L 146.923355 50.655091 
L 147.649302 54.016364 
L 147.830789 54.496545 
L 148.556736 57.857818 
L 149.827143 61.219091 
L 150.00863 62.179455 
L 150.190116 62.179455 
L 150.371603 62.659636 
L 150.55309 62.659636 
L 150.734576 63.139818 
L 151.460523 63.139818 
L 151.64201 63.62 
L 152.18647 63.62 
L 152.367957 64.100182 
L 152.912417 64.100182 
L 153.093904 63.62 
L 153.27539 64.100182 
L 153.456877 64.100182 
L 153.638364 63.62 
L 153.81985 63.62 
L 154.001337 64.100182 
L 154.727284 64.100182 
L 154.908771 63.62 
L 155.090257 64.100182 
L 155.453231 64.100182 
L 155.634718 63.62 
L 155.816204 64.100182 
L 155.997691 63.62 
L 156.542151 63.62 
L 156.723638 64.100182 
L 156.905125 64.100182 
L 157.086611 63.62 
L 157.268098 64.100182 
L 157.449585 63.62 
L 157.631071 64.100182 
L 158.175532 64.100182 
L 158.357018 63.62 
L 158.538505 63.62 
L 158.719992 64.100182 
L 158.901478 63.62 
L 159.082965 64.100182 
L 160.171885 64.100182 
L 160.353372 63.62 
L 160.534859 64.100182 
L 160.716346 64.100182 
L 160.897832 63.62 
L 161.079319 63.62 
L 161.260806 64.100182 
L 161.805266 64.100182 
L 161.986752 63.62 
L 162.349726 63.62 
L 162.531213 64.100182 
L 162.712699 63.62 
L 162.894186 64.100182 
L 163.075673 63.62 
L 163.257159 64.100182 
L 163.438646 64.100182 
L 163.620133 63.62 
L 163.80162 63.62 
L 163.983106 64.100182 
L 164.164593 64.100182 
L 164.34608 63.62 
L 164.527566 64.100182 
L 164.709053 64.100182 
L 164.89054 63.62 
L 165.435 63.62 
L 165.616487 64.100182 
L 165.797973 64.100182 
L 165.97946 64.580364 
L 166.160947 64.580364 
L 166.342434 64.100182 
L 166.52392 64.100182 
L 166.705407 63.62 
L 167.249867 63.62 
L 167.794327 62.179455 
L 168.338787 58.818182 
L 169.064734 47.774 
L 169.246221 44.412727 
L 169.427708 43.932545 
L 171.424061 43.932545 
L 171.605548 44.412727 
L 171.787035 43.932545 
L 171.968522 43.932545 
L 172.150008 44.412727 
L 172.331495 43.932545 
L 172.694468 43.932545 
L 172.875955 44.412727 
L 173.057442 43.932545 
L 173.420415 43.932545 
L 173.601902 44.412727 
L 173.783389 43.932545 
L 173.964875 44.412727 
L 174.146362 43.932545 
L 174.690822 43.932545 
L 174.872309 44.412727 
L 175.053796 43.932545 
L 175.235282 44.412727 
L 176.687176 44.412727 
L 176.868663 43.932545 
L 177.05015 44.412727 
L 179.409477 44.412727 
L 179.590963 43.932545 
L 179.77245 44.412727 
L 181.768804 44.412727 
L 181.950291 43.932545 
L 182.131777 44.412727 
L 183.583671 44.412727 
L 183.765158 43.932545 
L 183.946645 44.412727 
L 186.305972 44.412727 
L 186.487458 43.932545 
L 186.668945 44.412727 
L 186.850432 43.932545 
L 187.031919 44.412727 
L 187.213405 44.412727 
L 187.394892 43.932545 
L 187.576379 44.412727 
L 187.757865 43.932545 
L 187.939352 44.412727 
L 188.120839 44.412727 
L 188.302326 43.932545 
L 188.483812 43.932545 
L 188.665299 44.412727 
L 188.846786 43.932545 
L 189.028272 44.412727 
L 189.209759 43.932545 
L 189.391246 44.412727 
L 189.572733 43.932545 
L 189.935706 43.932545 
L 190.117193 44.412727 
L 190.298679 43.932545 
L 190.84314 43.932545 
L 191.024626 44.412727 
L 191.206113 43.932545 
L 192.658007 43.932545 
L 192.839493 44.412727 
L 193.02098 43.932545 
L 193.928414 43.932545 
L 194.1099 44.412727 
L 194.291387 44.412727 
L 194.835847 45.853273 
L 195.924767 45.853273 
L 196.106254 46.333455 
L 196.832201 49.694727 
L 197.013688 50.174909 
L 198.102608 56.417273 
L 198.465581 58.818182 
L 199.010042 61.219091 
L 199.735988 63.139818 
L 201.006395 63.139818 
L 201.187882 62.659636 
L 201.369369 62.659636 
L 201.550855 63.139818 
L 203.728696 63.139818 
L 203.910183 63.62 
L 204.63613 63.62 
L 204.817616 63.139818 
L 204.999103 63.62 
L 205.18059 63.139818 
L 205.72505 63.139818 
L 205.906537 63.62 
L 206.450997 63.62 
L 206.632483 63.139818 
L 206.81397 63.139818 
L 206.995457 63.62 
L 207.176944 63.139818 
L 207.35843 63.62 
L 210.262218 63.62 
L 210.443704 63.139818 
L 210.625191 63.62 
L 211.895598 63.62 
L 212.077085 63.139818 
L 212.258571 63.139818 
L 212.440058 63.62 
L 212.621545 63.139818 
L 212.803032 63.139818 
L 212.984518 63.62 
L 213.166005 63.139818 
L 213.347492 63.139818 
L 213.528978 63.62 
L 214.073439 63.62 
L 214.254925 64.100182 
L 214.617899 64.100182 
L 214.799385 64.580364 
L 214.980872 64.100182 
L 215.525332 64.100182 
L 215.706819 64.580364 
L 216.069792 64.580364 
L 216.251279 64.100182 
L 216.432766 64.100182 
L 217.158713 62.179455 
L 217.340199 62.179455 
L 217.703173 61.219091 
L 218.247633 57.857818 
L 218.97358 49.214545 
L 219.155066 49.694727 
L 221.514394 49.694727 
L 221.69588 50.174909 
L 221.877367 49.694727 
L 222.784801 49.694727 
L 222.966287 50.174909 
L 223.147774 50.174909 
L 223.329261 49.694727 
L 223.510748 49.694727 
L 223.692234 50.174909 
L 223.873721 50.174909 
L 224.055208 49.694727 
L 224.236694 50.174909 
L 224.418181 50.174909 
L 224.599668 49.694727 
L 224.781154 50.174909 
L 224.962641 49.694727 
L 225.144128 49.694727 
L 225.325615 50.174909 
L 225.507101 49.694727 
L 225.688588 50.174909 
L 225.870075 49.694727 
L 226.051561 50.174909 
L 226.596022 50.174909 
L 226.777508 49.694727 
L 226.958995 50.174909 
L 227.140482 50.174909 
L 227.321968 49.694727 
L 227.503455 50.174909 
L 229.136836 50.174909 
L 229.318322 49.694727 
L 229.499809 50.174909 
L 229.681296 50.174909 
L 229.862782 49.694727 
L 230.044269 49.694727 
L 230.225756 50.174909 
L 230.407243 49.694727 
L 230.770216 49.694727 
L 230.951703 50.174909 
L 231.133189 50.174909 
L 231.314676 49.694727 
L 231.496163 50.174909 
L 232.22211 50.174909 
L 232.403596 49.694727 
L 232.585083 50.174909 
L 233.129543 50.174909 
L 233.31103 49.694727 
L 233.492517 50.174909 
L 233.674003 49.694727 
L 233.85549 50.174909 
L 234.036977 50.174909 
L 234.218463 49.694727 
L 234.39995 50.174909 
L 234.581437 49.694727 
L 234.94441 49.694727 
L 235.125897 50.174909 
L 235.307384 49.694727 
L 235.48887 50.174909 
L 235.670357 50.174909 
L 235.851844 49.694727 
L 236.033331 50.174909 
L 236.396304 50.174909 
L 236.577791 49.694727 
L 236.759277 49.694727 
L 236.940764 50.174909 
L 237.122251 49.694727 
L 237.303738 50.174909 
L 237.666711 50.174909 
L 237.848198 49.694727 
L 238.029684 50.174909 
L 238.574145 50.174909 
L 238.755631 49.694727 
L 238.937118 50.174909 
L 239.118605 50.174909 
L 239.300091 49.694727 
L 239.481578 50.174909 
L 239.663065 49.694727 
L 239.844551 49.694727 
L 240.026038 50.174909 
L 240.207525 50.174909 
L 240.389012 49.694727 
L 240.570498 50.174909 
L 240.751985 49.694727 
L 240.933472 50.174909 
L 241.114958 50.174909 
L 241.296445 49.694727 
L 241.477932 50.174909 
L 241.659419 49.694727 
L 241.840905 49.694727 
L 242.022392 50.174909 
L 242.203879 50.174909 
L 242.385365 49.694727 
L 242.566852 49.694727 
L 242.748339 50.174909 
L 243.111312 50.174909 
L 243.292799 49.694727 
L 243.474286 49.694727 
L 243.655772 50.174909 
L 243.837259 49.694727 
L 244.018746 50.174909 
L 244.200233 49.694727 
L 244.381719 50.174909 
L 244.563206 49.694727 
L 249.463347 49.694727 
L 249.644834 49.214545 
L 250.733754 49.214545 
L 250.915241 49.694727 
L 251.096728 49.694727 
L 251.278214 50.174909 
L 251.459701 50.174909 
L 252.367135 52.575818 
L 252.548621 52.575818 
L 253.637542 55.456909 
L 254.182002 57.857818 
L 254.363488 58.338 
L 254.726462 59.778545 
L 254.907949 60.258727 
L 255.089435 61.219091 
L 255.270922 61.219091 
L 255.815382 63.62 
L 255.996869 64.100182 
L 256.178355 64.100182 
L 256.359842 63.62 
L 256.722816 63.62 
L 256.904302 63.139818 
L 257.448762 63.139818 
L 257.630249 63.62 
L 261.622957 63.62 
L 261.804444 64.100182 
L 262.53039 64.100182 
L 262.711877 63.62 
L 263.619311 63.62 
L 263.800797 64.100182 
L 263.982284 63.62 
L 264.163771 64.100182 
L 264.345257 63.62 
L 264.526744 64.100182 
L 264.708231 63.62 
L 264.889718 64.100182 
L 265.071204 63.62 
L 265.252691 63.62 
L 265.434178 64.100182 
L 265.615664 63.62 
L 265.797151 63.62 
L 265.978638 64.100182 
L 266.160125 64.100182 
L 266.341611 63.62 
L 266.886071 63.62 
L 267.067558 64.100182 
L 267.249045 64.100182 
L 267.430532 64.580364 
L 269.971346 64.580364 
L 270.152832 65.060545 
L 270.878779 65.060545 
L 271.060266 64.580364 
L 271.241752 65.060545 
L 271.423239 64.580364 
L 271.967699 64.580364 
L 272.149186 64.100182 
L 272.693646 64.100182 
L 273.05662 65.060545 
L 273.782566 65.060545 
L 273.964053 65.540727 
L 274.14554 65.060545 
L 274.508513 65.060545 
L 274.69 65.540727 
L 274.871487 65.060545 
L 275.415947 65.060545 
L 275.597434 65.540727 
L 275.77892 65.060545 
L 276.504867 65.060545 
L 276.686354 65.540727 
L 276.867841 65.060545 
L 277.412301 65.060545 
L 277.593787 65.540727 
L 277.775274 65.540727 
L 277.956761 65.060545 
L 278.138248 65.540727 
L 278.319734 65.060545 
L 278.501221 65.540727 
L 278.682708 65.540727 
L 278.864194 65.060545 
L 279.227168 65.060545 
L 279.408654 65.540727 
L 279.590141 65.060545 
L 280.134601 65.060545 
L 280.316088 65.540727 
L 280.497575 65.060545 
L 281.042035 65.060545 
L 281.223522 65.540727 
L 281.405008 65.060545 
L 282.130955 65.060545 
L 282.312442 65.540727 
L 282.493929 65.060545 
L 283.038389 65.060545 
L 283.219875 65.540727 
L 283.401362 65.060545 
L 283.764336 65.060545 
L 283.945822 65.540727 
L 284.308796 65.540727 
L 284.490282 65.060545 
L 284.853256 65.060545 
L 285.034743 65.540727 
L 285.216229 65.060545 
L 286.84961 65.060545 
L 287.031096 65.540727 
L 287.212583 65.540727 
L 287.39407 65.060545 
L 287.757043 65.060545 
L 287.93853 65.540727 
L 288.120017 65.540727 
L 288.301503 65.060545 
L 288.48299 65.540727 
L 288.664477 65.540727 
L 288.845963 65.060545 
L 289.02745 65.540727 
L 289.208937 65.060545 
L 289.57191 65.060545 
L 289.753397 65.540727 
L 289.934884 65.060545 
L 290.11637 65.540727 
L 290.297857 65.540727 
L 290.479344 65.060545 
L 290.842317 65.060545 
L 291.023804 65.540727 
L 291.205291 65.540727 
L 291.386777 65.060545 
L 291.568264 65.540727 
L 291.749751 65.060545 
L 291.931238 65.060545 
L 292.112724 65.540727 
L 292.294211 65.060545 
L 292.475698 65.540727 
L 292.838671 65.540727 
L 293.020158 65.060545 
L 293.383131 65.060545 
L 293.564618 65.540727 
L 293.746105 65.540727 
L 293.927591 65.060545 
L 294.835025 65.060545 
L 295.016512 65.540727 
L 295.197998 65.060545 
L 295.379485 65.540727 
L 295.560972 65.060545 
L 296.286919 65.060545 
L 296.468405 65.540727 
L 296.649892 65.540727 
L 296.831379 65.060545 
L 297.375839 65.060545 
L 297.557326 65.540727 
L 297.738812 65.540727 
L 297.920299 65.060545 
L 299.372193 65.060545 
L 299.553679 65.540727 
L 299.735166 65.060545 
L 301.73152 65.060545 
L 301.913007 64.580364 
L 302.638953 64.580364 
L 302.82044 64.100182 
L 303.001927 64.100182 
L 303.183414 64.580364 
L 303.3649 64.100182 
L 305.724228 64.100182 
L 305.905714 64.580364 
L 306.087201 64.100182 
L 306.268688 64.100182 
L 306.450174 64.580364 
L 310.261395 64.580364 
L 310.442882 64.100182 
L 310.987342 64.100182 
L 311.168829 63.62 
L 311.350316 64.100182 
L 311.531802 63.62 
L 311.713289 63.62 
L 311.894776 64.100182 
L 312.076262 64.100182 
L 312.257749 63.62 
L 312.983696 63.62 
L 313.165183 64.100182 
L 313.346669 63.62 
L 313.528156 63.62 
L 313.709643 64.100182 
L 313.89113 63.62 
L 314.072616 64.100182 
L 314.254103 63.62 
L 314.43559 64.100182 
L 314.617076 64.100182 
L 314.798563 63.62 
L 314.98005 64.100182 
L 316.06897 64.100182 
L 316.250457 63.62 
L 316.431944 64.100182 
L 317.15789 64.100182 
L 317.339377 63.62 
L 317.520864 64.100182 
L 317.70235 63.62 
L 317.883837 64.100182 
L 319.154244 64.100182 
L 319.335731 63.62 
L 319.698704 63.62 
L 319.880191 64.100182 
L 321.513571 64.100182 
L 321.695058 64.580364 
L 322.058032 64.580364 
L 322.239518 65.060545 
L 322.965465 65.060545 
L 323.146952 65.540727 
L 323.328439 65.540727 
L 323.872899 68.902 
L 324.054385 70.342545 
L 324.780332 81.866909 
L 324.961819 82.347091 
L 325.687766 82.347091 
L 325.869252 82.827273 
L 327.321146 82.827273 
L 327.502633 83.307455 
L 327.68412 83.307455 
L 327.865606 82.827273 
L 328.047093 83.307455 
L 328.410066 83.307455 
L 328.591553 82.827273 
L 328.77304 83.307455 
L 329.136013 83.307455 
L 329.3175 82.827273 
L 329.498987 82.827273 
L 329.680473 83.307455 
L 330.043447 83.307455 
L 330.224934 82.827273 
L 330.40642 83.307455 
L 330.587907 82.827273 
L 330.769394 83.307455 
L 330.95088 82.827273 
L 331.132367 83.307455 
L 331.313854 83.307455 
L 331.495341 82.827273 
L 331.676827 83.307455 
L 332.765748 83.307455 
L 332.947234 82.827273 
L 333.128721 82.827273 
L 333.310208 83.307455 
L 333.491694 82.827273 
L 333.673181 83.307455 
L 334.036154 83.307455 
L 334.217641 82.827273 
L 334.399128 83.307455 
L 335.306561 83.307455 
L 335.488048 82.827273 
L 335.851022 82.827273 
L 336.032508 83.307455 
L 336.213995 82.827273 
L 336.395482 82.827273 
L 336.576968 83.307455 
L 336.939942 83.307455 
L 337.121429 82.827273 
L 337.302915 83.307455 
L 337.484402 82.827273 
L 337.665889 82.827273 
L 337.847375 83.307455 
L 338.028862 83.307455 
L 338.210349 82.827273 
L 338.391836 83.307455 
L 338.573322 82.827273 
L 338.754809 83.307455 
L 340.206703 83.307455 
L 340.388189 82.827273 
L 340.569676 83.307455 
L 341.295623 83.307455 
L 341.47711 82.827273 
L 341.658596 83.307455 
L 342.56603 83.307455 
L 342.747517 82.827273 
L 343.11049 82.827273 
L 343.291977 83.307455 
L 343.65495 83.307455 
L 343.836437 82.827273 
L 344.017924 83.307455 
L 344.19941 82.827273 
L 344.380897 82.827273 
L 344.562384 83.307455 
L 344.74387 82.827273 
L 344.925357 83.307455 
L 345.106844 83.307455 
L 345.288331 82.827273 
L 345.469817 83.307455 
L 346.195764 83.307455 
L 346.377251 82.827273 
L 346.558738 82.827273 
L 346.740224 83.307455 
L 346.921711 82.827273 
L 347.103198 83.307455 
L 347.284684 82.827273 
L 347.466171 82.827273 
L 347.647658 83.307455 
L 348.010631 83.307455 
L 348.192118 82.827273 
L 350.732932 82.827273 
L 350.914419 82.347091 
L 355.088613 82.347091 
L 355.2701 81.866909 
L 356.177533 81.866909 
L 356.540507 80.906545 
L 356.721993 80.906545 
L 356.90348 80.426364 
L 357.084967 80.426364 
L 357.266453 79.946182 
L 357.44794 79.946182 
L 357.9924 78.505636 
L 358.355374 78.505636 
L 358.53686 78.025455 
L 358.718347 78.025455 
L 359.444294 76.104727 
L 359.988754 73.703818 
L 360.170241 73.703818 
L 360.533214 72.263273 
L 361.803621 68.902 
L 362.529568 65.540727 
L 362.892542 64.580364 
L 363.437002 64.580364 
L 363.618488 64.100182 
L 365.614842 64.100182 
L 365.796329 64.580364 
L 365.977816 64.100182 
L 367.066736 64.100182 
L 367.248223 64.580364 
L 367.429709 64.580364 
L 367.611196 64.100182 
L 375.415125 64.100182 
L 375.596611 64.580364 
L 376.504045 64.580364 
L 376.867018 65.540727 
L 377.048505 65.540727 
L 377.229992 66.020909 
L 377.592965 68.421818 
L 377.955939 71.302909 
L 378.863372 81.866909 
L 379.952292 81.866909 
L 380.133779 81.386727 
L 380.315266 81.866909 
L 380.496752 81.386727 
L 380.678239 81.866909 
L 381.222699 81.866909 
L 381.404186 81.386727 
L 381.585673 81.386727 
L 381.767159 81.866909 
L 382.130133 81.866909 
L 382.31162 81.386727 
L 399.37137 81.386727 
L 399.552857 81.866909 
L 399.734344 81.386727 
L 406.993812 81.386727 
L 407.175299 81.866909 
L 407.356786 81.386727 
L 407.538272 81.386727 
L 407.719759 81.866909 
L 407.901246 81.386727 
L 411.712467 81.386727 
L 411.893953 80.906545 
L 412.07544 80.906545 
L 412.982874 78.505636 
L 413.16436 78.505636 
L 413.708821 77.065091 
L 415.886661 66.020909 
L 416.431121 64.580364 
L 416.612608 64.580364 
L 416.975581 63.62 
L 418.064502 63.62 
L 418.245988 63.139818 
L 418.427475 63.62 
L 420.423829 63.62 
L 420.605316 63.139818 
L 420.786802 63.62 
L 421.512749 63.62 
L 421.694236 63.139818 
L 421.875723 63.62 
L 422.601669 63.62 
L 422.783156 63.139818 
L 422.964643 63.62 
L 423.69059 63.62 
L 423.872076 63.139818 
L 424.053563 63.62 
L 424.416537 63.62 
L 424.598023 63.139818 
L 424.77951 63.62 
L 424.960997 63.62 
L 425.142483 63.139818 
L 425.32397 63.62 
L 425.686944 63.62 
L 425.86843 63.139818 
L 426.049917 63.139818 
L 426.231404 63.62 
L 426.41289 63.139818 
L 426.594377 63.62 
L 426.775864 63.139818 
L 426.95735 63.139818 
L 427.138837 63.62 
L 427.320324 63.62 
L 427.501811 63.139818 
L 427.683297 63.62 
L 428.590731 63.62 
L 428.772218 63.139818 
L 428.953704 63.62 
L 429.135191 63.139818 
L 429.316678 63.62 
L 431.131545 63.62 
L 431.313032 63.139818 
L 431.494518 63.62 
L 433.672359 63.62 
L 433.853846 64.100182 
L 434.035332 64.100182 
L 434.216819 65.060545 
L 434.579792 65.060545 
L 435.124252 68.421818 
L 435.487226 71.783091 
L 436.213173 78.985818 
L 436.394659 78.985818 
L 436.93912 77.545273 
L 437.48358 77.545273 
L 437.665066 77.065091 
L 438.02804 77.065091 
L 438.209527 76.584909 
L 439.11696 76.584909 
L 439.298447 76.104727 
L 439.479934 76.584909 
L 439.66142 76.104727 
L 439.842907 76.104727 
L 440.024394 76.584909 
L 440.20588 76.104727 
L 441.476287 76.104727 
L 441.657774 75.624545 
L 441.839261 76.104727 
L 442.020748 75.624545 
L 442.202234 76.104727 
L 442.565208 76.104727 
L 442.746694 75.624545 
L 444.017101 75.624545 
L 444.198588 76.104727 
L 444.380075 75.624545 
L 444.561561 75.624545 
L 444.743048 76.104727 
L 444.924535 75.624545 
L 445.287508 75.624545 
L 445.468995 76.104727 
L 445.650482 75.624545 
L 446.557915 75.624545 
L 446.739402 76.104727 
L 446.920889 75.624545 
L 448.372782 75.624545 
L 448.554269 76.104727 
L 448.735756 75.624545 
L 450.18765 75.624545 
L 450.369136 76.104727 
L 450.550623 76.104727 
L 450.73211 75.624545 
L 451.639543 75.624545 
L 451.82103 76.104727 
L 452.002517 75.624545 
L 452.546977 75.624545 
L 452.728463 76.104727 
L 452.90995 75.624545 
L 453.99887 75.624545 
L 454.180357 76.104727 
L 454.361844 75.624545 
L 454.543331 76.104727 
L 454.724817 76.104727 
L 454.906304 75.624545 
L 455.087791 76.104727 
L 455.269277 75.624545 
L 455.450764 76.104727 
L 455.632251 75.624545 
L 455.995224 75.624545 
L 456.176711 76.104727 
L 456.358198 76.104727 
L 456.539684 75.624545 
L 456.721171 75.624545 
L 456.902658 76.104727 
L 457.084145 75.624545 
L 457.265631 76.104727 
L 458.173065 76.104727 
L 458.354551 75.624545 
L 458.536038 75.624545 
L 458.717525 76.104727 
L 459.261985 76.104727 
L 459.443472 75.624545 
L 459.624958 76.104727 
L 459.987932 76.104727 
L 460.169419 75.624545 
L 460.532392 75.624545 
L 460.713879 76.104727 
L 461.802799 76.104727 
L 461.984286 75.624545 
L 462.165772 76.104727 
L 462.347259 75.624545 
L 463.98064 75.624545 
L 464.162126 75.144364 
L 464.888073 75.144364 
L 465.06956 74.664182 
L 465.432533 74.664182 
L 465.795507 73.703818 
L 466.15848 73.703818 
L 467.79186 69.382182 
L 468.154834 67.941636 
L 468.699294 66.501091 
L 469.425241 63.139818 
L 469.788214 62.179455 
L 470.514161 62.179455 
L 470.695648 61.699273 
L 470.877135 62.179455 
L 471.058621 62.179455 
L 471.240108 61.699273 
L 472.510515 61.699273 
L 472.692002 62.179455 
L 472.873488 61.699273 
L 473.236462 61.699273 
L 473.417949 62.179455 
L 473.599435 61.699273 
L 473.780922 61.699273 
L 473.962409 62.179455 
L 474.143895 61.699273 
L 476.321736 61.699273 
L 476.503223 62.179455 
L 493.2 62.179455 
L 493.2 62.179455 
" clip-path="url(#p7fa1b782cb)" style="fill: none; stroke: #1f77b4; stroke-width: 1.5; stroke-linecap: square"/>
   </g>
   <g id="line2d_12">
    <path d="M 56.18 63.62 
L 493.2 63.62 
" clip-path="url(#p7fa1b782cb)" style="fill: none; stroke-dasharray: 2.96,1.28; stroke-dashoffset: 0; stroke: #808080; stroke-width: 0.8"/>
   </g>
   <g id="patch_3">
    <path d="M 56.18 116.44 
L 56.18 10.8 
" style="fill: none; stroke: #000000; stroke-width: 0.8; stroke-linejoin: miter; stroke-linecap: square"/>
   </g>
   <g id="patch_4">
    <path d="M 56.18 116.44 
L 493.2 116.44 
" style="fill: none; stroke: #000000; stroke-width: 0.8; stroke-linejoin: miter; stroke-linecap: square"/>
   </g>
  </g>
  <g id="axes_2">
   <g id="patch_5">
    <path d="M 56.18 264.04 
L 493.2 264.04 
L 493.2 158.4 
L 56.18 158.4 
z
" style="fill: #ffffff"/>
   </g>
   <g id="matplotlib.axis_3">
    <g id="xtick_6">
     <g id="line2d_13">
      <g>
       <use xlink:href="#mbc9fcc5b42" x="56.18" y="264.04" style="stroke: #000000; stroke-width: 0.8"/>
      </g>
     </g>
     <g id="text_13">
      <!-- 0 -->
      <g transform="translate(52.99875 278.638438) scale(0.1 -0.1)">
       <use xlink:href="#DejaVuSans-30"/>
      </g>
     </g>
    </g>
    <g id="xtick_7">
     <g id="line2d_14">
      <g>
       <use xlink:href="#mbc9fcc5b42" x="146.923355" y="264.04" style="stroke: #000000; stroke-width: 0.8"/>
      </g>
     </g>
     <g id="text_14">
      <!-- 5000 -->
      <g transform="translate(134.198355 278.638438) scale(0.1 -0.1)">
       <use xlink:href="#DejaVuSans-35"/>
       <use xlink:href="#DejaVuSans-30" x="63.623047"/>
       <use xlink:href="#DejaVuSans-30" x="127.246094"/>
       <use xlink:href="#DejaVuSans-30" x="190.869141"/>
      </g>
     </g>
    </g>
    <g id="xtick_8">
     <g id="line2d_15">
      <g>
       <use xlink:href="#mbc9fcc5b42" x="237.666711" y="264.04" style="stroke: #000000; stroke-width: 0.8"/>
      </g>
     </g>
     <g id="text_15">
      <!-- 10000 -->
      <g transform="translate(221.760461 278.638438) scale(0.1 -0.1)">
       <use xlink:href="#DejaVuSans-31"/>
       <use xlink:href="#DejaVuSans-30" x="63.623047"/>
       <use xlink:href="#DejaVuSans-30" x="127.246094"/>
       <use xlink:href="#DejaVuSans-30" x="190.869141"/>
       <use xlink:href="#DejaVuSans-30" x="254.492188"/>
      </g>
     </g>
    </g>
    <g id="xtick_9">
     <g id="line2d_16">
      <g>
       <use xlink:href="#mbc9fcc5b42" x="328.410066" y="264.04" style="stroke: #000000; stroke-width: 0.8"/>
      </g>
     </g>
     <g id="text_16">
      <!-- 15000 -->
      <g transform="translate(312.503816 278.638438) scale(0.1 -0.1)">
       <use xlink:href="#DejaVuSans-31"/>
       <use xlink:href="#DejaVuSans-35" x="63.623047"/>
       <use xlink:href="#DejaVuSans-30" x="127.246094"/>
       <use xlink:href="#DejaVuSans-30" x="190.869141"/>
       <use xlink:href="#DejaVuSans-30" x="254.492188"/>
      </g>
     </g>
    </g>
    <g id="xtick_10">
     <g id="line2d_17">
      <g>
       <use xlink:href="#mbc9fcc5b42" x="419.153422" y="264.04" style="stroke: #000000; stroke-width: 0.8"/>
      </g>
     </g>
     <g id="text_17">
      <!-- 20000 -->
      <g transform="translate(403.247172 278.638438) scale(0.1 -0.1)">
       <use xlink:href="#DejaVuSans-32"/>
       <use xlink:href="#DejaVuSans-30" x="63.623047"/>
       <use xlink:href="#DejaVuSans-30" x="127.246094"/>
       <use xlink:href="#DejaVuSans-30" x="190.869141"/>
       <use xlink:href="#DejaVuSans-30" x="254.492188"/>
      </g>
     </g>
    </g>
    <g id="text_18">
     <!-- Time (ms) -->
     <g transform="translate(249.490781 292.316563) scale(0.1 -0.1)">
      <use xlink:href="#DejaVuSans-54"/>
      <use xlink:href="#DejaVuSans-69" x="57.958984"/>
      <use xlink:href="#DejaVuSans-6d" x="85.742188"/>
      <use xlink:href="#DejaVuSans-65" x="183.154297"/>
      <use xlink:href="#DejaVuSans-20" x="244.677734"/>
      <use xlink:href="#DejaVuSans-28" x="276.464844"/>
      <use xlink:href="#DejaVuSans-6d" x="315.478516"/>
      <use xlink:href="#DejaVuSans-73" x="412.890625"/>
      <use xlink:href="#DejaVuSans-29" x="464.990234"/>
     </g>
    </g>
   </g>
   <g id="matplotlib.axis_4">
    <g id="ytick_6">
     <g id="line2d_18">
      <g>
       <use xlink:href="#mdad855db45" x="56.18" y="259.238182" style="stroke: #000000; stroke-width: 0.8"/>
      </g>
     </g>
     <g id="text_19">
      <!-- −1.0 -->
      <g transform="translate(24.897188 263.037401) scale(0.1 -0.1)">
       <use xlink:href="#DejaVuSans-2212"/>
       <use xlink:href="#DejaVuSans-31" x="83.789062"/>
       <use xlink:href="#DejaVuSans-2e" x="147.412109"/>
       <use xlink:href="#DejaVuSans-30" x="179.199219"/>
      </g>
     </g>
    </g>
    <g id="ytick_7">
     <g id="line2d_19">
      <g>
       <use xlink:href="#mdad855db45" x="56.18" y="235.229091" style="stroke: #000000; stroke-width: 0.8"/>
      </g>
     </g>
     <g id="text_20">
      <!-- −0.5 -->
      <g transform="translate(24.897188 239.02831) scale(0.1 -0.1)">
       <use xlink:href="#DejaVuSans-2212"/>
       <use xlink:href="#DejaVuSans-30" x="83.789062"/>
       <use xlink:href="#DejaVuSans-2e" x="147.412109"/>
       <use xlink:href="#DejaVuSans-35" x="179.199219"/>
      </g>
     </g>
    </g>
    <g id="ytick_8">
     <g id="line2d_20">
      <g>
       <use xlink:href="#mdad855db45" x="56.18" y="211.22" style="stroke: #000000; stroke-width: 0.8"/>
      </g>
     </g>
     <g id="text_21">
      <!-- 0.0 -->
      <g transform="translate(33.276875 215.019219) scale(0.1 -0.1)">
       <use xlink:href="#DejaVuSans-30"/>
       <use xlink:href="#DejaVuSans-2e" x="63.623047"/>
       <use xlink:href="#DejaVuSans-30" x="95.410156"/>
      </g>
     </g>
    </g>
    <g id="ytick_9">
     <g id="line2d_21">
      <g>
       <use xlink:href="#mdad855db45" x="56.18" y="187.210909" style="stroke: #000000; stroke-width: 0.8"/>
      </g>
     </g>
     <g id="text_22">
      <!-- 0.5 -->
      <g transform="translate(33.276875 191.010128) scale(0.1 -0.1)">
       <use xlink:href="#DejaVuSans-30"/>
       <use xlink:href="#DejaVuSans-2e" x="63.623047"/>
       <use xlink:href="#DejaVuSans-35" x="95.410156"/>
      </g>
     </g>
    </g>
    <g id="ytick_10">
     <g id="line2d_22">
      <g>
       <use xlink:href="#mdad855db45" x="56.18" y="163.201818" style="stroke: #000000; stroke-width: 0.8"/>
      </g>
     </g>
     <g id="text_23">
      <!-- 1.0 -->
      <g transform="translate(33.276875 167.001037) scale(0.1 -0.1)">
       <use xlink:href="#DejaVuSans-31"/>
       <use xlink:href="#DejaVuSans-2e" x="63.623047"/>
       <use xlink:href="#DejaVuSans-30" x="95.410156"/>
      </g>
     </g>
    </g>
    <g id="text_24">
     <!-- Y-Axis Value -->
     <g transform="translate(18.8175 241.065313) rotate(-90) scale(0.1 -0.1)">
      <defs>
       <path id="DejaVuSans-59" d="M -13 4666 
L 666 4666 
L 1959 2747 
L 3244 4666 
L 3922 4666 
L 2272 2222 
L 2272 0 
L 1638 0 
L 1638 2222 
L -13 4666 
z
" transform="scale(0.015625)"/>
      </defs>
      <use xlink:href="#DejaVuSans-59"/>
      <use xlink:href="#DejaVuSans-2d" x="49.208984"/>
      <use xlink:href="#DejaVuSans-41" x="83.042969"/>
      <use xlink:href="#DejaVuSans-78" x="151.451172"/>
      <use xlink:href="#DejaVuSans-69" x="210.630859"/>
      <use xlink:href="#DejaVuSans-73" x="238.414062"/>
      <use xlink:href="#DejaVuSans-20" x="290.513672"/>
      <use xlink:href="#DejaVuSans-56" x="322.300781"/>
      <use xlink:href="#DejaVuSans-61" x="382.958984"/>
      <use xlink:href="#DejaVuSans-6c" x="444.238281"/>
      <use xlink:href="#DejaVuSans-75" x="472.021484"/>
      <use xlink:href="#DejaVuSans-65" x="535.400391"/>
     </g>
    </g>
   </g>
   <g id="line2d_23">
    <path d="M 56.18 206.418182 
L 57.087434 206.418182 
L 57.26892 205.938 
L 57.450407 206.418182 
L 60.535681 206.418182 
L 60.717168 206.898364 
L 61.443115 206.898364 
L 61.624601 207.378545 
L 62.713522 207.378545 
L 62.895008 207.858727 
L 63.076495 207.378545 
L 65.617309 207.378545 
L 65.798796 207.858727 
L 69.791503 207.858727 
L 69.97299 208.338909 
L 70.154477 208.338909 
L 70.335963 207.858727 
L 70.51745 208.338909 
L 70.880424 208.338909 
L 71.06191 207.858727 
L 71.424884 207.858727 
L 71.787857 206.898364 
L 71.969344 206.898364 
L 72.513804 205.457818 
L 72.876777 205.457818 
L 73.784211 200.656 
L 75.054618 187.210909 
L 75.236105 187.691091 
L 75.780565 187.691091 
L 75.962051 187.210909 
L 77.776919 187.210909 
L 77.958405 187.691091 
L 78.139892 187.210909 
L 81.225166 187.210909 
L 81.406653 186.730727 
L 81.58814 187.210909 
L 84.128953 187.210909 
L 84.31044 186.730727 
L 84.491927 187.210909 
L 85.217874 187.210909 
L 85.39936 186.730727 
L 85.580847 187.210909 
L 86.488281 187.210909 
L 86.669767 186.730727 
L 86.851254 187.210909 
L 87.940174 187.210909 
L 88.121661 186.730727 
L 88.303148 187.210909 
L 88.484635 186.730727 
L 88.666121 187.210909 
L 88.847608 187.210909 
L 89.029095 186.730727 
L 89.210581 187.210909 
L 89.573555 187.210909 
L 89.755042 186.730727 
L 89.936528 186.730727 
L 90.118015 187.210909 
L 90.299502 187.210909 
L 90.480988 186.730727 
L 90.662475 186.730727 
L 90.843962 187.210909 
L 91.025449 187.210909 
L 91.206935 186.730727 
L 91.388422 187.210909 
L 91.569909 186.730727 
L 91.751395 186.730727 
L 91.932882 187.210909 
L 92.477342 187.210909 
L 92.658829 186.730727 
L 92.840316 187.210909 
L 93.384776 187.210909 
L 93.566262 186.730727 
L 93.747749 187.210909 
L 93.929236 186.730727 
L 95.562616 186.730727 
L 95.744103 186.250545 
L 95.92559 186.730727 
L 96.833023 186.730727 
L 97.195997 187.691091 
L 97.377483 187.691091 
L 97.921944 190.092 
L 98.284917 191.052364 
L 101.188704 205.938 
L 101.370191 206.418182 
L 101.551678 206.418182 
L 101.733164 206.898364 
L 115.163181 206.898364 
L 115.526154 205.938 
L 116.433588 200.656 
L 116.978048 195.854182 
L 117.885482 191.052364 
L 119.881836 191.052364 
L 120.063322 191.532545 
L 120.244809 191.052364 
L 121.878189 191.052364 
L 122.059676 191.532545 
L 122.241163 191.052364 
L 122.42265 191.532545 
L 122.604136 191.052364 
L 122.785623 191.532545 
L 122.96711 191.052364 
L 123.148596 191.052364 
L 123.330083 191.532545 
L 123.51157 191.052364 
L 123.693056 191.532545 
L 123.874543 191.052364 
L 124.419003 191.052364 
L 124.60049 191.532545 
L 124.781977 191.052364 
L 124.963463 191.532545 
L 125.14495 191.052364 
L 125.326437 191.532545 
L 125.507924 191.052364 
L 125.68941 191.532545 
L 125.870897 191.052364 
L 126.596844 191.052364 
L 126.778331 191.532545 
L 126.959817 191.052364 
L 127.141304 191.532545 
L 127.322791 191.052364 
L 128.774684 191.052364 
L 128.956171 191.532545 
L 129.137658 191.532545 
L 129.319145 191.052364 
L 129.863605 191.052364 
L 130.045091 191.532545 
L 130.226578 191.052364 
L 130.408065 191.532545 
L 130.589551 191.532545 
L 130.771038 191.052364 
L 131.315498 191.052364 
L 131.496985 191.532545 
L 131.678472 191.052364 
L 132.222932 191.052364 
L 132.404419 191.532545 
L 132.585905 191.532545 
L 132.767392 191.052364 
L 134.219286 191.052364 
L 134.400772 191.532545 
L 134.582259 191.052364 
L 141.115781 191.052364 
L 141.297267 190.572182 
L 141.478754 191.052364 
L 144.745515 191.052364 
L 144.927002 190.572182 
L 145.108488 191.052364 
L 145.471462 191.052364 
L 146.015922 192.492909 
L 146.378895 193.933455 
L 146.741869 194.893818 
L 147.104842 196.334364 
L 147.286329 196.814545 
L 147.830789 199.215455 
L 148.012276 199.695636 
L 148.375249 201.136182 
L 148.919709 202.576727 
L 149.101196 202.576727 
L 149.464169 203.537091 
L 149.645656 203.537091 
L 149.827143 204.017273 
L 150.00863 204.017273 
L 150.371603 204.977636 
L 150.55309 204.977636 
L 150.734576 205.457818 
L 151.460523 205.457818 
L 151.64201 205.938 
L 152.18647 205.938 
L 152.367957 206.418182 
L 152.549444 205.938 
L 153.093904 205.938 
L 153.27539 206.418182 
L 153.638364 206.418182 
L 153.81985 205.938 
L 154.001337 206.418182 
L 154.182824 205.938 
L 154.364311 206.418182 
L 154.545797 205.938 
L 154.727284 206.418182 
L 154.908771 205.938 
L 155.090257 206.418182 
L 155.271744 205.938 
L 155.453231 206.418182 
L 156.723638 206.418182 
L 156.905125 205.938 
L 157.086611 206.418182 
L 157.449585 206.418182 
L 157.631071 205.938 
L 157.812558 206.418182 
L 158.538505 206.418182 
L 158.719992 205.938 
L 158.901478 206.418182 
L 162.894186 206.418182 
L 163.075673 205.938 
L 163.257159 206.418182 
L 165.435 206.418182 
L 165.616487 205.938 
L 168.520274 205.938 
L 168.883248 206.898364 
L 169.064734 206.898364 
L 169.246221 207.378545 
L 169.427708 206.898364 
L 169.609194 207.378545 
L 170.153654 207.378545 
L 170.335141 206.898364 
L 182.494751 206.898364 
L 182.676238 206.418182 
L 182.857724 206.898364 
L 185.580025 206.898364 
L 185.761512 206.418182 
L 185.942998 206.898364 
L 189.209759 206.898364 
L 189.391246 206.418182 
L 189.572733 206.898364 
L 191.569086 206.898364 
L 191.750573 206.418182 
L 191.93206 206.898364 
L 192.658007 206.898364 
L 192.839493 206.418182 
L 193.02098 206.418182 
L 193.202467 206.898364 
L 193.383953 206.898364 
L 193.56544 206.418182 
L 193.746927 206.898364 
L 193.928414 206.418182 
L 194.472874 206.418182 
L 194.65436 205.938 
L 194.835847 206.418182 
L 195.017334 205.938 
L 195.743281 205.938 
L 195.924767 206.418182 
L 196.106254 206.418182 
L 196.287741 205.938 
L 196.832201 205.938 
L 197.013688 205.457818 
L 199.554502 205.457818 
L 199.735988 205.938 
L 200.098962 205.938 
L 200.280449 206.418182 
L 201.006395 206.418182 
L 201.187882 206.898364 
L 204.454643 206.898364 
L 204.63613 206.418182 
L 204.999103 206.418182 
L 205.18059 206.898364 
L 205.362076 206.898364 
L 205.543563 206.418182 
L 205.72505 206.898364 
L 206.088023 206.898364 
L 206.26951 206.418182 
L 206.450997 206.898364 
L 206.632483 206.898364 
L 206.81397 206.418182 
L 206.995457 206.898364 
L 207.176944 206.418182 
L 207.35843 206.898364 
L 207.539917 206.418182 
L 207.721404 206.898364 
L 207.90289 206.418182 
L 208.628837 206.418182 
L 208.810324 206.898364 
L 208.991811 206.418182 
L 209.536271 206.418182 
L 209.717757 206.898364 
L 209.899244 206.418182 
L 210.080731 206.898364 
L 210.262218 206.898364 
L 210.443704 206.418182 
L 210.625191 206.898364 
L 212.440058 206.898364 
L 212.621545 206.418182 
L 212.803032 206.898364 
L 212.984518 206.898364 
L 213.166005 206.418182 
L 214.254925 206.418182 
L 214.436412 205.938 
L 215.162359 205.938 
L 215.343846 205.457818 
L 215.525332 205.938 
L 216.069792 205.938 
L 216.251279 206.418182 
L 216.432766 206.418182 
L 216.614252 206.898364 
L 216.795739 206.898364 
L 217.884659 209.779455 
L 218.42912 212.660545 
L 218.97358 218.902909 
L 219.881013 218.902909 
L 220.0625 218.422727 
L 222.603314 218.422727 
L 222.784801 218.902909 
L 222.966287 218.902909 
L 223.147774 218.422727 
L 223.329261 218.902909 
L 223.510748 218.422727 
L 223.873721 218.422727 
L 224.055208 218.902909 
L 224.236694 218.422727 
L 224.418181 218.902909 
L 226.414535 218.902909 
L 226.596022 218.422727 
L 226.777508 218.902909 
L 235.48887 218.902909 
L 235.670357 218.422727 
L 235.851844 218.902909 
L 246.922533 218.902909 
L 247.10402 219.383091 
L 247.285507 218.902909 
L 247.466993 219.383091 
L 247.64848 218.902909 
L 249.28186 218.902909 
L 249.463347 219.383091 
L 249.644834 219.383091 
L 249.826321 218.902909 
L 250.007807 219.383091 
L 250.733754 219.383091 
L 250.915241 218.902909 
L 251.096728 218.902909 
L 251.278214 218.422727 
L 251.459701 218.422727 
L 252.185648 216.502 
L 252.367135 216.502 
L 255.089435 209.299273 
L 255.270922 208.338909 
L 255.452409 208.338909 
L 255.815382 206.898364 
L 255.996869 206.418182 
L 256.359842 206.418182 
L 256.541329 206.898364 
L 256.722816 206.898364 
L 256.904302 207.378545 
L 263.256337 207.378545 
L 263.437824 206.898364 
L 264.345257 206.898364 
L 264.526744 207.378545 
L 264.889718 207.378545 
L 265.071204 206.898364 
L 265.434178 206.898364 
L 265.615664 207.378545 
L 265.978638 207.378545 
L 266.160125 206.898364 
L 266.523098 206.898364 
L 266.704585 207.378545 
L 266.886071 206.898364 
L 267.430532 206.898364 
L 267.612018 206.418182 
L 268.156478 206.418182 
L 268.337965 205.938 
L 268.519452 206.418182 
L 269.608372 206.418182 
L 269.789859 206.898364 
L 269.971346 206.898364 
L 270.697292 208.819091 
L 271.786213 217.942545 
L 272.512159 226.585818 
L 272.693646 226.585818 
L 272.875133 227.066 
L 273.05662 227.066 
L 273.238106 226.585818 
L 274.69 226.585818 
L 274.871487 226.105636 
L 275.23446 226.105636 
L 275.415947 226.585818 
L 275.597434 226.105636 
L 275.77892 226.585818 
L 276.141894 226.585818 
L 276.32338 226.105636 
L 276.686354 226.105636 
L 276.867841 226.585818 
L 281.586495 226.585818 
L 281.767982 226.105636 
L 281.949468 226.585818 
L 282.130955 226.105636 
L 282.312442 226.585818 
L 282.493929 226.105636 
L 282.675415 226.585818 
L 282.856902 226.585818 
L 283.038389 226.105636 
L 283.219875 226.585818 
L 284.671769 226.585818 
L 284.853256 226.105636 
L 285.034743 226.585818 
L 285.216229 226.585818 
L 285.397716 226.105636 
L 285.579203 226.585818 
L 286.123663 226.585818 
L 286.30515 226.105636 
L 286.486636 226.105636 
L 286.668123 226.585818 
L 289.57191 226.585818 
L 289.753397 226.105636 
L 289.934884 226.105636 
L 290.11637 226.585818 
L 291.205291 226.585818 
L 291.386777 226.105636 
L 291.568264 226.585818 
L 301.368547 226.585818 
L 301.550033 226.105636 
L 301.913007 226.105636 
L 302.094493 225.625455 
L 302.27598 225.625455 
L 302.82044 224.184909 
L 303.001927 224.184909 
L 303.3649 222.744364 
L 303.90936 221.303818 
L 304.453821 218.902909 
L 304.998281 217.462364 
L 305.179767 217.462364 
L 305.724228 216.021818 
L 305.905714 216.021818 
L 306.268688 215.061455 
L 306.450174 215.061455 
L 306.631661 214.581273 
L 306.813148 214.581273 
L 307.720581 212.180364 
L 308.265042 209.779455 
L 308.446528 209.299273 
L 308.809502 207.858727 
L 308.990988 207.858727 
L 309.353962 206.898364 
L 309.716935 206.898364 
L 309.898422 207.378545 
L 310.079909 207.378545 
L 310.261395 207.858727 
L 310.805855 207.858727 
L 310.987342 208.338909 
L 311.531802 208.338909 
L 311.713289 207.858727 
L 311.894776 208.338909 
L 313.709643 208.338909 
L 313.89113 207.858727 
L 322.058032 207.858727 
L 322.239518 208.338909 
L 323.146952 208.338909 
L 323.691412 209.779455 
L 324.235872 213.140727 
L 324.598846 215.541636 
L 324.780332 216.502 
L 325.324792 216.502 
L 325.506279 216.982182 
L 326.232226 216.982182 
L 326.413713 217.462364 
L 327.321146 217.462364 
L 327.502633 217.942545 
L 350.732932 217.942545 
L 350.914419 217.462364 
L 351.095905 217.942545 
L 352.003339 217.942545 
L 352.184826 217.462364 
L 353.999693 217.462364 
L 354.181179 217.942545 
L 354.362666 217.462364 
L 354.544153 217.462364 
L 354.72564 217.942545 
L 354.907126 217.942545 
L 355.088613 217.462364 
L 355.633073 217.462364 
L 355.81456 216.982182 
L 355.996047 217.462364 
L 356.177533 216.982182 
L 356.35902 216.982182 
L 356.540507 216.502 
L 356.90348 216.502 
L 357.084967 216.021818 
L 357.44794 216.021818 
L 357.629427 215.541636 
L 357.810914 215.541636 
L 357.9924 215.061455 
L 358.53686 215.061455 
L 358.718347 214.581273 
L 358.899834 214.581273 
L 359.262807 213.620909 
L 359.444294 213.620909 
L 360.351728 211.22 
L 360.533214 211.22 
L 360.714701 210.739818 
L 360.896188 209.779455 
L 361.077674 209.779455 
L 361.622135 208.338909 
L 361.985108 208.338909 
L 362.166595 207.858727 
L 362.711055 207.858727 
L 362.892542 207.378545 
L 363.618488 207.378545 
L 363.799975 207.858727 
L 363.981462 207.378545 
L 364.162949 207.378545 
L 364.344435 207.858727 
L 364.525922 207.858727 
L 364.707409 207.378545 
L 364.888895 207.858727 
L 365.070382 207.378545 
L 365.251869 207.858727 
L 365.433355 207.858727 
L 365.614842 207.378545 
L 365.977816 207.378545 
L 366.159302 207.858727 
L 366.340789 207.378545 
L 366.522276 207.378545 
L 366.703762 207.858727 
L 366.885249 207.378545 
L 372.692824 207.378545 
L 372.874311 206.898364 
L 373.055797 207.378545 
L 374.870664 207.378545 
L 375.052151 206.898364 
L 375.233638 207.378545 
L 375.778098 207.378545 
L 375.959585 207.858727 
L 377.411478 207.858727 
L 377.592965 208.338909 
L 377.774452 208.338909 
L 377.955939 207.858727 
L 378.137425 207.858727 
L 378.318912 208.338909 
L 378.500399 208.338909 
L 378.681885 207.858727 
L 378.863372 207.858727 
L 379.044859 208.338909 
L 382.130133 208.338909 
L 382.31162 207.858727 
L 382.493106 208.338909 
L 394.471229 208.338909 
L 394.652716 207.858727 
L 394.834203 208.338909 
L 396.64907 208.338909 
L 396.830556 207.858727 
L 397.012043 207.858727 
L 397.19353 208.338909 
L 399.734344 208.338909 
L 399.915831 207.858727 
L 400.097317 208.338909 
L 404.090025 208.338909 
L 404.271512 207.858727 
L 404.452998 208.338909 
L 408.990166 208.338909 
L 409.171653 207.858727 
L 409.35314 208.338909 
L 411.53098 208.338909 
L 411.712467 207.858727 
L 411.893953 208.338909 
L 412.07544 207.858727 
L 413.527334 207.858727 
L 413.708821 207.378545 
L 414.253281 207.378545 
L 414.434767 207.858727 
L 415.160714 207.858727 
L 415.342201 208.338909 
L 415.705174 208.338909 
L 415.886661 207.858727 
L 416.068148 208.338909 
L 416.431121 208.338909 
L 416.612608 207.858727 
L 416.975581 207.858727 
L 417.157068 208.338909 
L 417.338555 207.858727 
L 417.520042 208.338909 
L 417.701528 207.858727 
L 417.883015 208.338909 
L 418.064502 207.858727 
L 418.427475 207.858727 
L 418.608962 208.338909 
L 418.790449 207.858727 
L 419.334909 207.858727 
L 419.516395 208.338909 
L 419.697882 208.338909 
L 419.879369 207.858727 
L 427.501811 207.858727 
L 427.683297 208.338909 
L 427.864784 208.338909 
L 428.046271 207.858727 
L 428.227757 208.338909 
L 428.409244 207.858727 
L 428.953704 207.858727 
L 429.135191 208.338909 
L 429.498164 208.338909 
L 429.679651 207.858727 
L 429.861138 208.338909 
L 430.042625 207.858727 
L 430.224111 208.338909 
L 430.405598 207.858727 
L 430.587085 208.338909 
L 431.494518 208.338909 
L 431.676005 207.858727 
L 431.857492 208.338909 
L 432.220465 208.338909 
L 432.401952 207.858727 
L 432.583439 207.858727 
L 432.764925 208.338909 
L 432.946412 207.858727 
L 433.127899 208.338909 
L 433.309385 208.338909 
L 433.490872 208.819091 
L 433.853846 207.858727 
L 434.035332 207.858727 
L 434.761279 205.938 
L 435.124252 203.537091 
L 435.305739 202.576727 
L 436.031686 195.374 
L 436.213173 194.893818 
L 436.757633 194.893818 
L 436.93912 195.374 
L 437.665066 195.374 
L 437.846553 194.893818 
L 438.02804 195.374 
L 438.935473 195.374 
L 439.11696 195.854182 
L 439.298447 195.374 
L 439.66142 195.374 
L 439.842907 195.854182 
L 440.387367 195.854182 
L 440.568854 195.374 
L 440.750341 195.854182 
L 440.931827 195.374 
L 441.839261 195.374 
L 442.020748 195.854182 
L 442.202234 195.374 
L 442.383721 195.374 
L 442.565208 195.854182 
L 442.746694 195.374 
L 443.291154 195.374 
L 443.472641 195.854182 
L 443.654128 195.854182 
L 443.835615 195.374 
L 464.162126 195.374 
L 464.343613 194.893818 
L 465.976993 194.893818 
L 466.15848 195.374 
L 466.339967 195.374 
L 466.521453 195.854182 
L 466.70294 195.854182 
L 467.065914 196.814545 
L 467.2474 196.814545 
L 467.610374 197.774909 
L 467.79186 197.774909 
L 468.154834 198.735273 
L 468.336321 198.735273 
L 468.699294 199.695636 
L 468.880781 199.695636 
L 469.243754 200.656 
L 469.606728 202.096545 
L 469.969701 203.056909 
L 470.151188 203.056909 
L 470.332674 203.537091 
L 470.514161 203.537091 
L 470.877135 204.497455 
L 471.058621 204.497455 
L 471.240108 204.977636 
L 471.421595 204.977636 
L 471.603081 205.457818 
L 471.784568 205.457818 
L 471.966055 205.938 
L 472.329028 205.938 
L 472.510515 206.418182 
L 474.143895 206.418182 
L 474.325382 206.898364 
L 474.506869 206.418182 
L 474.688355 206.898364 
L 475.051329 206.898364 
L 475.232816 206.418182 
L 475.595789 206.418182 
L 475.777276 206.898364 
L 475.958762 206.418182 
L 476.140249 206.898364 
L 476.321736 206.898364 
L 476.503223 207.378545 
L 479.225523 207.378545 
L 479.40701 206.898364 
L 479.588497 207.378545 
L 481.04039 207.378545 
L 481.221877 206.898364 
L 481.403364 207.378545 
L 481.58485 206.898364 
L 481.766337 207.378545 
L 481.947824 206.898364 
L 482.129311 207.378545 
L 482.310797 206.898364 
L 482.492284 207.378545 
L 483.036744 207.378545 
L 483.218231 206.898364 
L 483.944178 206.898364 
L 484.125664 207.378545 
L 484.307151 206.898364 
L 493.2 206.898364 
L 493.2 206.898364 
" clip-path="url(#pef3d02f8b7)" style="fill: none; stroke: #1f77b4; stroke-width: 1.5; stroke-linecap: square"/>
   </g>
   <g id="line2d_24">
    <path d="M 56.18 211.22 
L 493.2 211.22 
" clip-path="url(#pef3d02f8b7)" style="fill: none; stroke-dasharray: 2.96,1.28; stroke-dashoffset: 0; stroke: #808080; stroke-width: 0.8"/>
   </g>
   <g id="patch_6">
    <path d="M 56.18 264.04 
L 56.18 158.4 
" style="fill: none; stroke: #000000; stroke-width: 0.8; stroke-linejoin: miter; stroke-linecap: square"/>
   </g>
   <g id="patch_7">
    <path d="M 56.18 264.04 
L 493.2 264.04 
" style="fill: none; stroke: #000000; stroke-width: 0.8; stroke-linejoin: miter; stroke-linecap: square"/>
   </g>
  </g>
 </g>
 <defs>
  <clipPath id="p7fa1b782cb">
   <rect x="56.18" y="10.8" width="437.02" height="105.64"/>
  </clipPath>
  <clipPath id="pef3d02f8b7">
   <rect x="56.18" y="158.4" width="437.02" height="105.64"/>
  </clipPath>
 </defs>
</svg>
