<?xml version="1.0" encoding="utf-8" standalone="no"?>
<!DOCTYPE svg PUBLIC "-//W3C//DTD SVG 1.1//EN"
  "http://www.w3.org/Graphics/SVG/1.1/DTD/svg11.dtd">
<svg xmlns:xlink="http://www.w3.org/1999/xlink" width="504pt" height="306pt" viewBox="0 0 504 306" xmlns="http://www.w3.org/2000/svg" version="1.1">
 <metadata>
  <rdf:RDF xmlns:dc="http://purl.org/dc/elements/1.1/" xmlns:cc="http://creativecommons.org/ns#" xmlns:rdf="http://www.w3.org/1999/02/22-rdf-syntax-ns#">
   <cc:Work>
    <dc:type rdf:resource="http://purl.org/dc/dcmitype/StillImage"/>
    <dc:date>2024-06-16T21:02:26.610286</dc:date>
    <dc:format>image/svg+xml</dc:format>
    <dc:creator>
     <cc:Agent>
      <dc:title>Matplotlib v3.8.3, https://matplotlib.org/</dc:title>
     </cc:Agent>
    </dc:creator>
   </cc:Work>
  </rdf:RDF>
 </metadata>
 <defs>
  <style type="text/css">*{stroke-linejoin: round; stroke-linecap: butt}</style>
 </defs>
 <g id="figure_1">
  <g id="patch_1">
   <path d="M 0 306 
L 504 306 
L 504 0 
L 0 0 
z
" style="fill: #ffffff"/>
  </g>
  <g id="axes_1">
   <g id="patch_2">
    <path d="M 56.18 116.44 
L 493.2 116.44 
L 493.2 10.8 
L 56.18 10.8 
z
" style="fill: #ffffff"/>
   </g>
   <g id="matplotlib.axis_1">
    <g id="xtick_1">
     <g id="line2d_1">
      <defs>
       <path id="mbeac45da17" d="M 0 0 
L 0 3.5 
" style="stroke: #000000; stroke-width: 0.8"/>
      </defs>
      <g>
       <use xlink:href="#mbeac45da17" x="56.18" y="116.44" style="stroke: #000000; stroke-width: 0.8"/>
      </g>
     </g>
     <g id="text_1">
      <!-- 0 -->
      <g transform="translate(52.99875 131.038437) scale(0.1 -0.1)">
       <defs>
        <path id="DejaVuSans-30" d="M 2034 4250 
Q 1547 4250 1301 3770 
Q 1056 3291 1056 2328 
Q 1056 1369 1301 889 
Q 1547 409 2034 409 
Q 2525 409 2770 889 
Q 3016 1369 3016 2328 
Q 3016 3291 2770 3770 
Q 2525 4250 2034 4250 
z
M 2034 4750 
Q 2819 4750 3233 4129 
Q 3647 3509 3647 2328 
Q 3647 1150 3233 529 
Q 2819 -91 2034 -91 
Q 1250 -91 836 529 
Q 422 1150 422 2328 
Q 422 3509 836 4129 
Q 1250 4750 2034 4750 
z
" transform="scale(0.015625)"/>
       </defs>
       <use xlink:href="#DejaVuSans-30"/>
      </g>
     </g>
    </g>
    <g id="xtick_2">
     <g id="line2d_2">
      <g>
       <use xlink:href="#mbeac45da17" x="152.908641" y="116.44" style="stroke: #000000; stroke-width: 0.8"/>
      </g>
     </g>
     <g id="text_2">
      <!-- 5000 -->
      <g transform="translate(140.183641 131.038437) scale(0.1 -0.1)">
       <defs>
        <path id="DejaVuSans-35" d="M 691 4666 
L 3169 4666 
L 3169 4134 
L 1269 4134 
L 1269 2991 
Q 1406 3038 1543 3061 
Q 1681 3084 1819 3084 
Q 2600 3084 3056 2656 
Q 3513 2228 3513 1497 
Q 3513 744 3044 326 
Q 2575 -91 1722 -91 
Q 1428 -91 1123 -41 
Q 819 9 494 109 
L 494 744 
Q 775 591 1075 516 
Q 1375 441 1709 441 
Q 2250 441 2565 725 
Q 2881 1009 2881 1497 
Q 2881 1984 2565 2268 
Q 2250 2553 1709 2553 
Q 1456 2553 1204 2497 
Q 953 2441 691 2322 
L 691 4666 
z
" transform="scale(0.015625)"/>
       </defs>
       <use xlink:href="#DejaVuSans-35"/>
       <use xlink:href="#DejaVuSans-30" x="63.623047"/>
       <use xlink:href="#DejaVuSans-30" x="127.246094"/>
       <use xlink:href="#DejaVuSans-30" x="190.869141"/>
      </g>
     </g>
    </g>
    <g id="xtick_3">
     <g id="line2d_3">
      <g>
       <use xlink:href="#mbeac45da17" x="249.637282" y="116.44" style="stroke: #000000; stroke-width: 0.8"/>
      </g>
     </g>
     <g id="text_3">
      <!-- 10000 -->
      <g transform="translate(233.731032 131.038437) scale(0.1 -0.1)">
       <defs>
        <path id="DejaVuSans-31" d="M 794 531 
L 1825 531 
L 1825 4091 
L 703 3866 
L 703 4441 
L 1819 4666 
L 2450 4666 
L 2450 531 
L 3481 531 
L 3481 0 
L 794 0 
L 794 531 
z
" transform="scale(0.015625)"/>
       </defs>
       <use xlink:href="#DejaVuSans-31"/>
       <use xlink:href="#DejaVuSans-30" x="63.623047"/>
       <use xlink:href="#DejaVuSans-30" x="127.246094"/>
       <use xlink:href="#DejaVuSans-30" x="190.869141"/>
       <use xlink:href="#DejaVuSans-30" x="254.492188"/>
      </g>
     </g>
    </g>
    <g id="xtick_4">
     <g id="line2d_4">
      <g>
       <use xlink:href="#mbeac45da17" x="346.365923" y="116.44" style="stroke: #000000; stroke-width: 0.8"/>
      </g>
     </g>
     <g id="text_4">
      <!-- 15000 -->
      <g transform="translate(330.459673 131.038437) scale(0.1 -0.1)">
       <use xlink:href="#DejaVuSans-31"/>
       <use xlink:href="#DejaVuSans-35" x="63.623047"/>
       <use xlink:href="#DejaVuSans-30" x="127.246094"/>
       <use xlink:href="#DejaVuSans-30" x="190.869141"/>
       <use xlink:href="#DejaVuSans-30" x="254.492188"/>
      </g>
     </g>
    </g>
    <g id="xtick_5">
     <g id="line2d_5">
      <g>
       <use xlink:href="#mbeac45da17" x="443.094564" y="116.44" style="stroke: #000000; stroke-width: 0.8"/>
      </g>
     </g>
     <g id="text_5">
      <!-- 20000 -->
      <g transform="translate(427.188314 131.038437) scale(0.1 -0.1)">
       <defs>
        <path id="DejaVuSans-32" d="M 1228 531 
L 3431 531 
L 3431 0 
L 469 0 
L 469 531 
Q 828 903 1448 1529 
Q 2069 2156 2228 2338 
Q 2531 2678 2651 2914 
Q 2772 3150 2772 3378 
Q 2772 3750 2511 3984 
Q 2250 4219 1831 4219 
Q 1534 4219 1204 4116 
Q 875 4013 500 3803 
L 500 4441 
Q 881 4594 1212 4672 
Q 1544 4750 1819 4750 
Q 2544 4750 2975 4387 
Q 3406 4025 3406 3419 
Q 3406 3131 3298 2873 
Q 3191 2616 2906 2266 
Q 2828 2175 2409 1742 
Q 1991 1309 1228 531 
z
" transform="scale(0.015625)"/>
       </defs>
       <use xlink:href="#DejaVuSans-32"/>
       <use xlink:href="#DejaVuSans-30" x="63.623047"/>
       <use xlink:href="#DejaVuSans-30" x="127.246094"/>
       <use xlink:href="#DejaVuSans-30" x="190.869141"/>
       <use xlink:href="#DejaVuSans-30" x="254.492188"/>
      </g>
     </g>
    </g>
    <g id="text_6">
     <!-- Time (ms) -->
     <g transform="translate(249.490781 144.716562) scale(0.1 -0.1)">
      <defs>
       <path id="DejaVuSans-54" d="M -19 4666 
L 3928 4666 
L 3928 4134 
L 2272 4134 
L 2272 0 
L 1638 0 
L 1638 4134 
L -19 4134 
L -19 4666 
z
" transform="scale(0.015625)"/>
       <path id="DejaVuSans-69" d="M 603 3500 
L 1178 3500 
L 1178 0 
L 603 0 
L 603 3500 
z
M 603 4863 
L 1178 4863 
L 1178 4134 
L 603 4134 
L 603 4863 
z
" transform="scale(0.015625)"/>
       <path id="DejaVuSans-6d" d="M 3328 2828 
Q 3544 3216 3844 3400 
Q 4144 3584 4550 3584 
Q 5097 3584 5394 3201 
Q 5691 2819 5691 2113 
L 5691 0 
L 5113 0 
L 5113 2094 
Q 5113 2597 4934 2840 
Q 4756 3084 4391 3084 
Q 3944 3084 3684 2787 
Q 3425 2491 3425 1978 
L 3425 0 
L 2847 0 
L 2847 2094 
Q 2847 2600 2669 2842 
Q 2491 3084 2119 3084 
Q 1678 3084 1418 2786 
Q 1159 2488 1159 1978 
L 1159 0 
L 581 0 
L 581 3500 
L 1159 3500 
L 1159 2956 
Q 1356 3278 1631 3431 
Q 1906 3584 2284 3584 
Q 2666 3584 2933 3390 
Q 3200 3197 3328 2828 
z
" transform="scale(0.015625)"/>
       <path id="DejaVuSans-65" d="M 3597 1894 
L 3597 1613 
L 953 1613 
Q 991 1019 1311 708 
Q 1631 397 2203 397 
Q 2534 397 2845 478 
Q 3156 559 3463 722 
L 3463 178 
Q 3153 47 2828 -22 
Q 2503 -91 2169 -91 
Q 1331 -91 842 396 
Q 353 884 353 1716 
Q 353 2575 817 3079 
Q 1281 3584 2069 3584 
Q 2775 3584 3186 3129 
Q 3597 2675 3597 1894 
z
M 3022 2063 
Q 3016 2534 2758 2815 
Q 2500 3097 2075 3097 
Q 1594 3097 1305 2825 
Q 1016 2553 972 2059 
L 3022 2063 
z
" transform="scale(0.015625)"/>
       <path id="DejaVuSans-20" transform="scale(0.015625)"/>
       <path id="DejaVuSans-28" d="M 1984 4856 
Q 1566 4138 1362 3434 
Q 1159 2731 1159 2009 
Q 1159 1288 1364 580 
Q 1569 -128 1984 -844 
L 1484 -844 
Q 1016 -109 783 600 
Q 550 1309 550 2009 
Q 550 2706 781 3412 
Q 1013 4119 1484 4856 
L 1984 4856 
z
" transform="scale(0.015625)"/>
       <path id="DejaVuSans-73" d="M 2834 3397 
L 2834 2853 
Q 2591 2978 2328 3040 
Q 2066 3103 1784 3103 
Q 1356 3103 1142 2972 
Q 928 2841 928 2578 
Q 928 2378 1081 2264 
Q 1234 2150 1697 2047 
L 1894 2003 
Q 2506 1872 2764 1633 
Q 3022 1394 3022 966 
Q 3022 478 2636 193 
Q 2250 -91 1575 -91 
Q 1294 -91 989 -36 
Q 684 19 347 128 
L 347 722 
Q 666 556 975 473 
Q 1284 391 1588 391 
Q 1994 391 2212 530 
Q 2431 669 2431 922 
Q 2431 1156 2273 1281 
Q 2116 1406 1581 1522 
L 1381 1569 
Q 847 1681 609 1914 
Q 372 2147 372 2553 
Q 372 3047 722 3315 
Q 1072 3584 1716 3584 
Q 2034 3584 2315 3537 
Q 2597 3491 2834 3397 
z
" transform="scale(0.015625)"/>
       <path id="DejaVuSans-29" d="M 513 4856 
L 1013 4856 
Q 1481 4119 1714 3412 
Q 1947 2706 1947 2009 
Q 1947 1309 1714 600 
Q 1481 -109 1013 -844 
L 513 -844 
Q 928 -128 1133 580 
Q 1338 1288 1338 2009 
Q 1338 2731 1133 3434 
Q 928 4138 513 4856 
z
" transform="scale(0.015625)"/>
      </defs>
      <use xlink:href="#DejaVuSans-54"/>
      <use xlink:href="#DejaVuSans-69" x="57.958984"/>
      <use xlink:href="#DejaVuSans-6d" x="85.742188"/>
      <use xlink:href="#DejaVuSans-65" x="183.154297"/>
      <use xlink:href="#DejaVuSans-20" x="244.677734"/>
      <use xlink:href="#DejaVuSans-28" x="276.464844"/>
      <use xlink:href="#DejaVuSans-6d" x="315.478516"/>
      <use xlink:href="#DejaVuSans-73" x="412.890625"/>
      <use xlink:href="#DejaVuSans-29" x="464.990234"/>
     </g>
    </g>
   </g>
   <g id="matplotlib.axis_2">
    <g id="ytick_1">
     <g id="line2d_6">
      <defs>
       <path id="m160056238f" d="M 0 0 
L -3.5 0 
" style="stroke: #000000; stroke-width: 0.8"/>
      </defs>
      <g>
       <use xlink:href="#m160056238f" x="56.18" y="111.638182" style="stroke: #000000; stroke-width: 0.8"/>
      </g>
     </g>
     <g id="text_7">
      <!-- −1.0 -->
      <g transform="translate(24.897188 115.437401) scale(0.1 -0.1)">
       <defs>
        <path id="DejaVuSans-2212" d="M 678 2272 
L 4684 2272 
L 4684 1741 
L 678 1741 
L 678 2272 
z
" transform="scale(0.015625)"/>
        <path id="DejaVuSans-2e" d="M 684 794 
L 1344 794 
L 1344 0 
L 684 0 
L 684 794 
z
" transform="scale(0.015625)"/>
       </defs>
       <use xlink:href="#DejaVuSans-2212"/>
       <use xlink:href="#DejaVuSans-31" x="83.789062"/>
       <use xlink:href="#DejaVuSans-2e" x="147.412109"/>
       <use xlink:href="#DejaVuSans-30" x="179.199219"/>
      </g>
     </g>
    </g>
    <g id="ytick_2">
     <g id="line2d_7">
      <g>
       <use xlink:href="#m160056238f" x="56.18" y="87.629091" style="stroke: #000000; stroke-width: 0.8"/>
      </g>
     </g>
     <g id="text_8">
      <!-- −0.5 -->
      <g transform="translate(24.897188 91.42831) scale(0.1 -0.1)">
       <use xlink:href="#DejaVuSans-2212"/>
       <use xlink:href="#DejaVuSans-30" x="83.789062"/>
       <use xlink:href="#DejaVuSans-2e" x="147.412109"/>
       <use xlink:href="#DejaVuSans-35" x="179.199219"/>
      </g>
     </g>
    </g>
    <g id="ytick_3">
     <g id="line2d_8">
      <g>
       <use xlink:href="#m160056238f" x="56.18" y="63.62" style="stroke: #000000; stroke-width: 0.8"/>
      </g>
     </g>
     <g id="text_9">
      <!-- 0.0 -->
      <g transform="translate(33.276875 67.419219) scale(0.1 -0.1)">
       <use xlink:href="#DejaVuSans-30"/>
       <use xlink:href="#DejaVuSans-2e" x="63.623047"/>
       <use xlink:href="#DejaVuSans-30" x="95.410156"/>
      </g>
     </g>
    </g>
    <g id="ytick_4">
     <g id="line2d_9">
      <g>
       <use xlink:href="#m160056238f" x="56.18" y="39.610909" style="stroke: #000000; stroke-width: 0.8"/>
      </g>
     </g>
     <g id="text_10">
      <!-- 0.5 -->
      <g transform="translate(33.276875 43.410128) scale(0.1 -0.1)">
       <use xlink:href="#DejaVuSans-30"/>
       <use xlink:href="#DejaVuSans-2e" x="63.623047"/>
       <use xlink:href="#DejaVuSans-35" x="95.410156"/>
      </g>
     </g>
    </g>
    <g id="ytick_5">
     <g id="line2d_10">
      <g>
       <use xlink:href="#m160056238f" x="56.18" y="15.601818" style="stroke: #000000; stroke-width: 0.8"/>
      </g>
     </g>
     <g id="text_11">
      <!-- 1.0 -->
      <g transform="translate(33.276875 19.401037) scale(0.1 -0.1)">
       <use xlink:href="#DejaVuSans-31"/>
       <use xlink:href="#DejaVuSans-2e" x="63.623047"/>
       <use xlink:href="#DejaVuSans-30" x="95.410156"/>
      </g>
     </g>
    </g>
    <g id="text_12">
     <!-- X-Axis Value -->
     <g transform="translate(18.8175 94.180156) rotate(-90) scale(0.1 -0.1)">
      <defs>
       <path id="DejaVuSans-58" d="M 403 4666 
L 1081 4666 
L 2241 2931 
L 3406 4666 
L 4084 4666 
L 2584 2425 
L 4184 0 
L 3506 0 
L 2194 1984 
L 872 0 
L 191 0 
L 1856 2491 
L 403 4666 
z
" transform="scale(0.015625)"/>
       <path id="DejaVuSans-2d" d="M 313 2009 
L 1997 2009 
L 1997 1497 
L 313 1497 
L 313 2009 
z
" transform="scale(0.015625)"/>
       <path id="DejaVuSans-41" d="M 2188 4044 
L 1331 1722 
L 3047 1722 
L 2188 4044 
z
M 1831 4666 
L 2547 4666 
L 4325 0 
L 3669 0 
L 3244 1197 
L 1141 1197 
L 716 0 
L 50 0 
L 1831 4666 
z
" transform="scale(0.015625)"/>
       <path id="DejaVuSans-78" d="M 3513 3500 
L 2247 1797 
L 3578 0 
L 2900 0 
L 1881 1375 
L 863 0 
L 184 0 
L 1544 1831 
L 300 3500 
L 978 3500 
L 1906 2253 
L 2834 3500 
L 3513 3500 
z
" transform="scale(0.015625)"/>
       <path id="DejaVuSans-56" d="M 1831 0 
L 50 4666 
L 709 4666 
L 2188 738 
L 3669 4666 
L 4325 4666 
L 2547 0 
L 1831 0 
z
" transform="scale(0.015625)"/>
       <path id="DejaVuSans-61" d="M 2194 1759 
Q 1497 1759 1228 1600 
Q 959 1441 959 1056 
Q 959 750 1161 570 
Q 1363 391 1709 391 
Q 2188 391 2477 730 
Q 2766 1069 2766 1631 
L 2766 1759 
L 2194 1759 
z
M 3341 1997 
L 3341 0 
L 2766 0 
L 2766 531 
Q 2569 213 2275 61 
Q 1981 -91 1556 -91 
Q 1019 -91 701 211 
Q 384 513 384 1019 
Q 384 1609 779 1909 
Q 1175 2209 1959 2209 
L 2766 2209 
L 2766 2266 
Q 2766 2663 2505 2880 
Q 2244 3097 1772 3097 
Q 1472 3097 1187 3025 
Q 903 2953 641 2809 
L 641 3341 
Q 956 3463 1253 3523 
Q 1550 3584 1831 3584 
Q 2591 3584 2966 3190 
Q 3341 2797 3341 1997 
z
" transform="scale(0.015625)"/>
       <path id="DejaVuSans-6c" d="M 603 4863 
L 1178 4863 
L 1178 0 
L 603 0 
L 603 4863 
z
" transform="scale(0.015625)"/>
       <path id="DejaVuSans-75" d="M 544 1381 
L 544 3500 
L 1119 3500 
L 1119 1403 
Q 1119 906 1312 657 
Q 1506 409 1894 409 
Q 2359 409 2629 706 
Q 2900 1003 2900 1516 
L 2900 3500 
L 3475 3500 
L 3475 0 
L 2900 0 
L 2900 538 
Q 2691 219 2414 64 
Q 2138 -91 1772 -91 
Q 1169 -91 856 284 
Q 544 659 544 1381 
z
M 1991 3584 
L 1991 3584 
z
" transform="scale(0.015625)"/>
      </defs>
      <use xlink:href="#DejaVuSans-58"/>
      <use xlink:href="#DejaVuSans-2d" x="63.505859"/>
      <use xlink:href="#DejaVuSans-41" x="97.339844"/>
      <use xlink:href="#DejaVuSans-78" x="165.748047"/>
      <use xlink:href="#DejaVuSans-69" x="224.927734"/>
      <use xlink:href="#DejaVuSans-73" x="252.710938"/>
      <use xlink:href="#DejaVuSans-20" x="304.810547"/>
      <use xlink:href="#DejaVuSans-56" x="336.597656"/>
      <use xlink:href="#DejaVuSans-61" x="397.255859"/>
      <use xlink:href="#DejaVuSans-6c" x="458.535156"/>
      <use xlink:href="#DejaVuSans-75" x="486.318359"/>
      <use xlink:href="#DejaVuSans-65" x="549.697266"/>
     </g>
    </g>
   </g>
   <g id="line2d_11">
    <path d="M 56.18 63.139818 
L 56.566915 63.139818 
L 56.760372 63.62 
L 56.953829 63.62 
L 57.147286 63.139818 
L 59.468774 63.139818 
L 59.662231 63.62 
L 59.855688 63.139818 
L 66.046321 63.139818 
L 66.239779 62.659636 
L 68.561266 62.659636 
L 68.754723 63.139818 
L 70.302382 63.139818 
L 70.495839 62.659636 
L 70.882753 62.659636 
L 71.076211 62.179455 
L 71.656583 62.179455 
L 71.85004 61.699273 
L 73.204241 61.699273 
L 73.397698 61.219091 
L 73.591155 61.219091 
L 73.784613 61.699273 
L 73.97807 61.699273 
L 74.171527 61.219091 
L 74.364985 61.699273 
L 74.751899 61.699273 
L 74.945356 61.219091 
L 75.138814 61.219091 
L 75.332271 61.699273 
L 75.525728 61.219091 
L 75.719185 61.699273 
L 75.912643 61.219091 
L 76.1061 61.219091 
L 76.299557 61.699273 
L 76.686472 61.699273 
L 76.879929 61.219091 
L 77.073386 61.699273 
L 77.653758 61.699273 
L 77.847216 61.219091 
L 78.040673 61.219091 
L 78.23413 61.699273 
L 78.427587 61.219091 
L 78.621045 61.219091 
L 78.814502 61.699273 
L 79.007959 61.699273 
L 79.201417 61.219091 
L 79.394874 61.699273 
L 79.781788 61.699273 
L 79.975246 61.219091 
L 80.168703 61.699273 
L 80.36216 61.219091 
L 80.555618 61.699273 
L 80.749075 61.699273 
L 80.942532 61.219091 
L 81.135989 61.699273 
L 81.329447 61.699273 
L 81.522904 61.219091 
L 81.909819 61.219091 
L 82.103276 61.699273 
L 82.296733 61.219091 
L 83.457477 61.219091 
L 83.650934 61.699273 
L 83.844391 61.219091 
L 84.037849 61.699273 
L 84.231306 61.219091 
L 84.424763 61.699273 
L 84.61822 61.219091 
L 84.811678 61.699273 
L 85.005135 61.219091 
L 85.198592 61.699273 
L 85.39205 61.219091 
L 85.585507 61.699273 
L 85.972421 61.699273 
L 86.165879 61.219091 
L 86.359336 61.699273 
L 86.552793 61.699273 
L 86.746251 61.219091 
L 87.326622 61.219091 
L 87.52008 61.699273 
L 87.713537 61.219091 
L 88.100452 61.219091 
L 88.293909 61.699273 
L 88.487366 61.699273 
L 88.680823 61.219091 
L 91.002311 61.219091 
L 91.195768 61.699273 
L 91.389225 61.219091 
L 91.582683 61.219091 
L 91.77614 61.699273 
L 91.969597 61.219091 
L 92.163054 61.219091 
L 92.356512 61.699273 
L 92.549969 61.219091 
L 92.743426 61.699273 
L 92.936884 61.699273 
L 93.130341 61.219091 
L 94.677999 61.219091 
L 94.871456 61.699273 
L 95.064914 61.219091 
L 95.645286 61.219091 
L 95.838743 61.699273 
L 96.0322 61.219091 
L 97.579858 61.219091 
L 97.773316 61.699273 
L 97.966773 61.219091 
L 98.16023 61.699273 
L 98.353687 61.219091 
L 100.481718 61.219091 
L 100.675175 61.699273 
L 100.868632 61.219091 
L 101.062089 61.219091 
L 101.255547 61.699273 
L 101.642461 61.699273 
L 101.835919 62.179455 
L 102.222833 62.179455 
L 102.41629 62.659636 
L 102.996662 62.659636 
L 103.19012 63.139818 
L 112.089154 63.139818 
L 112.282612 62.659636 
L 112.476069 63.139818 
L 113.056441 63.139818 
L 113.249898 62.659636 
L 113.443355 63.139818 
L 114.604099 63.139818 
L 114.797556 62.659636 
L 114.991014 63.139818 
L 116.732129 63.139818 
L 116.925587 63.62 
L 117.505958 63.62 
L 117.892873 62.659636 
L 118.279788 62.659636 
L 118.860159 61.219091 
L 120.407818 53.056 
L 121.181647 47.774 
L 121.762019 46.333455 
L 123.890049 46.333455 
L 124.083506 46.813636 
L 124.470421 46.813636 
L 124.663878 46.333455 
L 125.050792 46.333455 
L 125.24425 45.853273 
L 125.437707 46.333455 
L 125.631164 45.853273 
L 126.018079 45.853273 
L 126.211536 46.333455 
L 126.404993 45.853273 
L 126.598451 45.853273 
L 126.791908 46.333455 
L 126.985365 45.853273 
L 127.178822 46.333455 
L 127.565737 46.333455 
L 127.759194 45.853273 
L 127.952652 46.333455 
L 128.146109 45.853273 
L 128.339566 46.333455 
L 128.533023 46.333455 
L 128.726481 45.853273 
L 129.113395 45.853273 
L 129.306853 46.333455 
L 129.50031 45.853273 
L 129.693767 45.853273 
L 129.887224 46.333455 
L 130.080682 45.853273 
L 130.274139 46.333455 
L 130.467596 46.333455 
L 130.661054 45.853273 
L 130.854511 46.333455 
L 131.047968 45.853273 
L 131.821797 45.853273 
L 132.015255 46.333455 
L 132.208712 45.853273 
L 132.402169 45.853273 
L 132.595626 46.333455 
L 132.789084 45.853273 
L 132.982541 46.333455 
L 133.175998 45.853273 
L 133.369456 46.333455 
L 133.75637 46.333455 
L 133.949827 45.853273 
L 134.143285 46.333455 
L 134.336742 46.333455 
L 134.530199 45.853273 
L 134.723656 46.333455 
L 134.917114 45.853273 
L 135.110571 46.333455 
L 135.304028 45.853273 
L 135.8844 45.853273 
L 136.077857 46.333455 
L 136.271315 46.333455 
L 136.464772 45.853273 
L 137.432058 45.853273 
L 137.625516 46.333455 
L 137.818973 45.853273 
L 138.01243 46.333455 
L 138.205888 45.853273 
L 140.720832 45.853273 
L 140.91429 46.333455 
L 141.107747 45.853273 
L 141.688119 45.853273 
L 141.881576 46.333455 
L 142.075033 45.853273 
L 146.137636 45.853273 
L 146.331093 46.333455 
L 146.524551 45.853273 
L 146.718008 46.333455 
L 146.911465 45.853273 
L 147.104923 45.853273 
L 147.29838 46.333455 
L 147.491837 45.853273 
L 148.652581 45.853273 
L 148.846038 46.333455 
L 149.813324 46.333455 
L 150.006782 46.813636 
L 150.200239 46.813636 
L 150.393696 47.293818 
L 150.780611 47.293818 
L 150.974068 47.774 
L 151.167525 47.774 
L 151.360983 48.254182 
L 151.55444 48.254182 
L 152.134812 49.694727 
L 152.521726 51.135273 
L 152.715184 51.615455 
L 152.908641 51.615455 
L 153.295556 53.056 
L 154.456299 55.937091 
L 154.843214 57.377636 
L 155.423586 58.818182 
L 155.617043 58.818182 
L 155.8105 59.298364 
L 156.003958 59.298364 
L 157.164701 62.179455 
L 158.131988 62.179455 
L 158.325445 62.659636 
L 158.518902 62.179455 
L 158.712359 62.659636 
L 165.09645 62.659636 
L 165.289907 62.179455 
L 165.483364 62.659636 
L 166.450651 62.659636 
L 166.644108 62.179455 
L 166.837565 62.659636 
L 170.126339 62.659636 
L 170.319796 63.139818 
L 171.867455 63.139818 
L 172.060912 63.62 
L 172.447826 63.62 
L 172.641284 63.139818 
L 172.834741 63.139818 
L 173.221656 61.699273 
L 173.415113 61.219091 
L 173.802027 58.818182 
L 174.188942 54.016364 
L 174.769314 44.412727 
L 174.962771 44.412727 
L 175.156228 44.892909 
L 175.7366 44.892909 
L 175.930058 45.373091 
L 176.123515 45.373091 
L 176.316972 44.892909 
L 176.510429 45.373091 
L 176.703887 45.373091 
L 176.897344 44.892909 
L 177.090801 45.373091 
L 178.251545 45.373091 
L 178.445002 44.892909 
L 178.638459 44.892909 
L 178.831917 45.373091 
L 180.573032 45.373091 
L 180.76649 44.892909 
L 180.959947 45.373091 
L 181.346861 45.373091 
L 181.540319 44.892909 
L 181.733776 44.892909 
L 181.927233 45.373091 
L 182.701062 45.373091 
L 182.89452 44.892909 
L 183.087977 45.373091 
L 183.861806 45.373091 
L 184.055263 44.892909 
L 184.248721 45.373091 
L 185.602922 45.373091 
L 185.796379 44.892909 
L 185.989836 44.892909 
L 186.183293 45.373091 
L 186.957123 45.373091 
L 187.15058 44.892909 
L 187.344037 44.892909 
L 187.537494 45.373091 
L 187.730952 45.373091 
L 187.924409 44.892909 
L 188.117866 45.373091 
L 188.504781 45.373091 
L 188.698238 44.892909 
L 188.891695 44.892909 
L 189.085153 45.373091 
L 189.27861 44.892909 
L 189.472067 44.892909 
L 189.665525 45.373091 
L 189.858982 44.892909 
L 190.052439 45.373091 
L 190.245896 44.892909 
L 190.439354 44.892909 
L 190.632811 45.373091 
L 190.826268 44.892909 
L 191.793555 44.892909 
L 191.987012 45.373091 
L 192.180469 45.373091 
L 192.373927 44.892909 
L 192.567384 45.373091 
L 192.760841 44.892909 
L 192.954298 45.373091 
L 193.147756 44.892909 
L 193.341213 45.373091 
L 193.53467 44.892909 
L 193.921585 44.892909 
L 194.115042 45.373091 
L 194.308499 44.892909 
L 195.6627 44.892909 
L 195.856158 45.373091 
L 196.243072 45.373091 
L 196.436529 44.892909 
L 198.177645 44.892909 
L 198.371102 45.373091 
L 198.56456 44.892909 
L 199.144931 44.892909 
L 199.338389 45.373091 
L 200.305675 45.373091 
L 200.499132 44.892909 
L 200.69259 45.373091 
L 201.272961 45.373091 
L 201.466419 44.892909 
L 201.659876 45.373091 
L 202.82062 45.373091 
L 203.014077 45.853273 
L 203.207534 45.853273 
L 203.981363 47.774 
L 205.335564 54.016364 
L 205.529022 54.496545 
L 205.915936 55.937091 
L 206.302851 56.897455 
L 206.883223 59.298364 
L 207.07668 59.778545 
L 207.463595 61.219091 
L 207.850509 62.179455 
L 208.043966 62.179455 
L 208.430881 63.139818 
L 208.817795 63.139818 
L 209.011253 63.62 
L 209.398167 63.62 
L 209.591625 64.100182 
L 210.365454 64.100182 
L 210.558911 63.62 
L 210.752368 64.100182 
L 211.139283 64.100182 
L 211.33274 63.62 
L 212.300027 63.62 
L 212.493484 64.100182 
L 212.686941 63.62 
L 218.49066 63.62 
L 218.684117 63.139818 
L 218.877574 63.62 
L 219.457946 63.62 
L 219.651403 63.139818 
L 219.844861 63.62 
L 220.038318 63.139818 
L 220.231775 63.62 
L 220.425232 63.139818 
L 223.714006 63.139818 
L 223.907463 63.62 
L 224.294378 63.62 
L 224.487835 63.139818 
L 224.681293 63.139818 
L 224.87475 63.62 
L 225.455122 63.62 
L 225.648579 64.100182 
L 226.228951 64.100182 
L 226.422408 64.580364 
L 226.615865 64.100182 
L 226.809323 64.580364 
L 227.196237 64.580364 
L 228.163524 62.179455 
L 228.743896 58.818182 
L 228.937353 56.897455 
L 229.324267 50.655091 
L 230.098097 50.655091 
L 230.291554 51.135273 
L 230.678468 51.135273 
L 230.871926 51.615455 
L 231.065383 51.135273 
L 231.452297 51.135273 
L 231.645755 51.615455 
L 257.955945 51.615455 
L 258.149402 51.135273 
L 260.277432 51.135273 
L 260.47089 51.615455 
L 260.664347 51.615455 
L 260.857804 52.095636 
L 261.051262 52.095636 
L 261.438176 53.536182 
L 261.631633 54.016364 
L 262.018548 55.456909 
L 262.212005 55.937091 
L 262.405463 55.937091 
L 262.792377 57.377636 
L 263.953121 60.258727 
L 264.340035 61.699273 
L 265.500779 64.580364 
L 265.694236 64.580364 
L 265.887694 65.060545 
L 267.048437 65.060545 
L 267.241895 64.580364 
L 267.822266 64.580364 
L 268.015724 64.100182 
L 276.721301 64.100182 
L 276.914759 64.580364 
L 277.882045 64.580364 
L 278.075502 65.060545 
L 278.26896 64.580364 
L 279.623161 64.580364 
L 279.816618 65.060545 
L 282.138105 65.060545 
L 282.331563 65.540727 
L 282.718477 65.540727 
L 282.911934 66.020909 
L 286.200708 66.020909 
L 286.394166 65.540727 
L 286.587623 66.020909 
L 286.78108 66.020909 
L 286.974537 65.540727 
L 287.167995 66.020909 
L 287.361452 65.540727 
L 287.554909 66.020909 
L 289.296025 66.020909 
L 289.489482 65.540727 
L 289.682939 66.020909 
L 291.230598 66.020909 
L 291.424055 65.540727 
L 291.617512 66.020909 
L 292.391341 66.020909 
L 292.584799 65.540727 
L 292.778256 66.020909 
L 293.16517 66.020909 
L 293.358628 65.540727 
L 293.552085 66.020909 
L 293.745542 65.540727 
L 293.939 66.020909 
L 303.031492 66.020909 
L 303.224949 65.540727 
L 303.418406 66.020909 
L 311.737069 66.020909 
L 311.930527 65.540727 
L 312.123984 66.020909 
L 312.317441 65.540727 
L 312.510899 65.540727 
L 312.704356 65.060545 
L 313.8651 65.060545 
L 314.058557 64.580364 
L 314.252014 65.060545 
L 315.025843 65.060545 
L 315.219301 64.580364 
L 315.412758 65.060545 
L 315.606215 65.060545 
L 315.799672 64.580364 
L 315.99313 64.580364 
L 316.186587 64.100182 
L 316.380044 64.580364 
L 318.508074 64.580364 
L 318.701532 64.100182 
L 318.894989 64.580364 
L 319.475361 64.580364 
L 319.668818 64.100182 
L 319.862275 64.100182 
L 320.055733 64.580364 
L 320.24919 64.100182 
L 323.151049 64.100182 
L 323.344506 64.580364 
L 324.698707 64.580364 
L 324.892165 65.060545 
L 325.085622 64.580364 
L 325.279079 64.580364 
L 325.472537 65.060545 
L 325.665994 64.580364 
L 326.052908 64.580364 
L 326.246366 65.060545 
L 326.439823 64.580364 
L 326.63328 64.580364 
L 326.826737 65.060545 
L 327.020195 64.580364 
L 329.922054 64.580364 
L 330.308969 65.540727 
L 330.695883 65.540727 
L 330.88934 66.020909 
L 331.66317 70.342545 
L 332.050084 73.223636 
L 332.630456 79.466 
L 333.017371 80.426364 
L 333.7912 80.426364 
L 333.984657 80.906545 
L 341.336034 80.906545 
L 341.529491 80.426364 
L 341.722948 80.906545 
L 345.011722 80.906545 
L 345.205179 80.426364 
L 345.398637 80.906545 
L 355.458415 80.906545 
L 355.651873 80.426364 
L 356.038787 80.426364 
L 356.232244 80.906545 
L 356.425702 80.426364 
L 356.619159 80.906545 
L 356.812616 80.426364 
L 359.134104 80.426364 
L 359.327561 79.946182 
L 360.294847 79.946182 
L 360.488305 79.466 
L 361.068676 79.466 
L 361.262134 78.985818 
L 361.455591 78.985818 
L 361.842506 78.025455 
L 363.583621 68.902 
L 363.777078 66.981273 
L 363.970536 63.62 
L 371.321912 63.62 
L 371.51537 64.100182 
L 371.708827 63.62 
L 373.256485 63.62 
L 373.449942 64.100182 
L 373.6434 63.62 
L 374.030314 63.62 
L 374.223772 64.100182 
L 374.417229 63.62 
L 377.512545 63.62 
L 377.706003 64.100182 
L 378.479832 64.100182 
L 378.673289 63.62 
L 378.866746 64.100182 
L 379.253661 64.100182 
L 379.447118 63.62 
L 379.640575 63.62 
L 379.834033 64.100182 
L 380.607862 64.100182 
L 380.801319 64.580364 
L 381.188234 64.580364 
L 381.381691 65.060545 
L 381.768606 65.060545 
L 382.542435 66.981273 
L 383.122807 73.703818 
L 383.703178 82.347091 
L 383.896636 82.827273 
L 384.477008 82.827273 
L 384.670465 83.307455 
L 384.863922 83.307455 
L 385.057379 82.827273 
L 385.250837 83.307455 
L 385.444294 83.307455 
L 385.637751 82.827273 
L 398.986304 82.827273 
L 399.179761 83.307455 
L 399.373218 82.827273 
L 399.95359 82.827273 
L 400.147047 83.307455 
L 400.340505 82.827273 
L 404.403108 82.827273 
L 404.596565 83.307455 
L 404.790022 82.827273 
L 408.078796 82.827273 
L 408.272253 83.307455 
L 408.46571 83.307455 
L 408.659168 82.827273 
L 408.852625 82.827273 
L 409.046082 83.307455 
L 409.23954 82.827273 
L 410.013369 82.827273 
L 410.206826 83.307455 
L 410.400283 82.827273 
L 414.462886 82.827273 
L 414.849801 81.866909 
L 415.043258 81.866909 
L 415.236715 81.386727 
L 415.430173 81.386727 
L 416.204002 78.025455 
L 416.397459 77.545273 
L 416.977831 77.545273 
L 417.171288 77.065091 
L 417.558203 75.624545 
L 417.75166 75.144364 
L 420.073147 64.100182 
L 421.040434 64.100182 
L 421.233891 63.62 
L 421.427348 64.100182 
L 421.620806 64.100182 
L 421.814263 63.62 
L 423.748836 63.62 
L 423.942293 64.100182 
L 424.909579 64.100182 
L 425.103037 63.62 
L 432.260956 63.62 
L 432.454413 63.139818 
L 432.647871 63.62 
L 434.582444 63.62 
L 434.775901 64.100182 
L 435.356273 64.100182 
L 435.54973 64.580364 
L 435.743187 64.580364 
L 435.936645 65.060545 
L 436.323559 66.981273 
L 437.67776 79.946182 
L 439.031961 79.946182 
L 439.225418 79.466 
L 439.418876 79.946182 
L 439.612333 79.946182 
L 439.80579 79.466 
L 459.925347 79.466 
L 460.118805 79.946182 
L 460.312262 79.466 
L 460.505719 79.466 
L 460.699177 79.946182 
L 464.181408 79.946182 
L 464.374865 79.466 
L 464.568322 79.946182 
L 465.342151 79.946182 
L 465.535609 79.466 
L 465.729066 79.466 
L 465.922523 79.946182 
L 466.115981 79.466 
L 466.696352 79.466 
L 466.88981 78.985818 
L 467.083267 78.985818 
L 467.663639 77.545273 
L 468.630925 72.263273 
L 469.01784 69.862364 
L 469.598212 66.501091 
L 469.791669 65.060545 
L 470.372041 63.62 
L 470.565498 63.62 
L 470.758955 62.659636 
L 470.952413 63.139818 
L 471.14587 62.659636 
L 471.339327 63.139818 
L 471.726242 63.139818 
L 471.919699 62.659636 
L 472.113156 63.139818 
L 472.306614 63.139818 
L 472.500071 62.659636 
L 472.886985 62.659636 
L 473.080443 63.139818 
L 473.2739 62.659636 
L 473.467357 62.659636 
L 473.854272 63.62 
L 479.65799 63.62 
L 479.851448 63.139818 
L 480.044905 63.62 
L 481.592563 63.62 
L 481.78602 63.139818 
L 481.979478 63.62 
L 482.559849 63.62 
L 482.753307 63.139818 
L 482.946764 63.62 
L 484.107508 63.62 
L 484.300965 63.139818 
L 484.494422 63.62 
L 493.2 63.62 
L 493.2 63.62 
" clip-path="url(#pefbe80c2c3)" style="fill: none; stroke: #1f77b4; stroke-width: 1.5; stroke-linecap: square"/>
   </g>
   <g id="line2d_12">
    <path d="M 56.18 63.62 
L 493.2 63.62 
" clip-path="url(#pefbe80c2c3)" style="fill: none; stroke-dasharray: 2.96,1.28; stroke-dashoffset: 0; stroke: #808080; stroke-width: 0.8"/>
   </g>
   <g id="patch_3">
    <path d="M 56.18 116.44 
L 56.18 10.8 
" style="fill: none; stroke: #000000; stroke-width: 0.8; stroke-linejoin: miter; stroke-linecap: square"/>
   </g>
   <g id="patch_4">
    <path d="M 56.18 116.44 
L 493.2 116.44 
" style="fill: none; stroke: #000000; stroke-width: 0.8; stroke-linejoin: miter; stroke-linecap: square"/>
   </g>
  </g>
  <g id="axes_2">
   <g id="patch_5">
    <path d="M 56.18 264.04 
L 493.2 264.04 
L 493.2 158.4 
L 56.18 158.4 
z
" style="fill: #ffffff"/>
   </g>
   <g id="matplotlib.axis_3">
    <g id="xtick_6">
     <g id="line2d_13">
      <g>
       <use xlink:href="#mbeac45da17" x="56.18" y="264.04" style="stroke: #000000; stroke-width: 0.8"/>
      </g>
     </g>
     <g id="text_13">
      <!-- 0 -->
      <g transform="translate(52.99875 278.638438) scale(0.1 -0.1)">
       <use xlink:href="#DejaVuSans-30"/>
      </g>
     </g>
    </g>
    <g id="xtick_7">
     <g id="line2d_14">
      <g>
       <use xlink:href="#mbeac45da17" x="152.908641" y="264.04" style="stroke: #000000; stroke-width: 0.8"/>
      </g>
     </g>
     <g id="text_14">
      <!-- 5000 -->
      <g transform="translate(140.183641 278.638438) scale(0.1 -0.1)">
       <use xlink:href="#DejaVuSans-35"/>
       <use xlink:href="#DejaVuSans-30" x="63.623047"/>
       <use xlink:href="#DejaVuSans-30" x="127.246094"/>
       <use xlink:href="#DejaVuSans-30" x="190.869141"/>
      </g>
     </g>
    </g>
    <g id="xtick_8">
     <g id="line2d_15">
      <g>
       <use xlink:href="#mbeac45da17" x="249.637282" y="264.04" style="stroke: #000000; stroke-width: 0.8"/>
      </g>
     </g>
     <g id="text_15">
      <!-- 10000 -->
      <g transform="translate(233.731032 278.638438) scale(0.1 -0.1)">
       <use xlink:href="#DejaVuSans-31"/>
       <use xlink:href="#DejaVuSans-30" x="63.623047"/>
       <use xlink:href="#DejaVuSans-30" x="127.246094"/>
       <use xlink:href="#DejaVuSans-30" x="190.869141"/>
       <use xlink:href="#DejaVuSans-30" x="254.492188"/>
      </g>
     </g>
    </g>
    <g id="xtick_9">
     <g id="line2d_16">
      <g>
       <use xlink:href="#mbeac45da17" x="346.365923" y="264.04" style="stroke: #000000; stroke-width: 0.8"/>
      </g>
     </g>
     <g id="text_16">
      <!-- 15000 -->
      <g transform="translate(330.459673 278.638438) scale(0.1 -0.1)">
       <use xlink:href="#DejaVuSans-31"/>
       <use xlink:href="#DejaVuSans-35" x="63.623047"/>
       <use xlink:href="#DejaVuSans-30" x="127.246094"/>
       <use xlink:href="#DejaVuSans-30" x="190.869141"/>
       <use xlink:href="#DejaVuSans-30" x="254.492188"/>
      </g>
     </g>
    </g>
    <g id="xtick_10">
     <g id="line2d_17">
      <g>
       <use xlink:href="#mbeac45da17" x="443.094564" y="264.04" style="stroke: #000000; stroke-width: 0.8"/>
      </g>
     </g>
     <g id="text_17">
      <!-- 20000 -->
      <g transform="translate(427.188314 278.638438) scale(0.1 -0.1)">
       <use xlink:href="#DejaVuSans-32"/>
       <use xlink:href="#DejaVuSans-30" x="63.623047"/>
       <use xlink:href="#DejaVuSans-30" x="127.246094"/>
       <use xlink:href="#DejaVuSans-30" x="190.869141"/>
       <use xlink:href="#DejaVuSans-30" x="254.492188"/>
      </g>
     </g>
    </g>
    <g id="text_18">
     <!-- Time (ms) -->
     <g transform="translate(249.490781 292.316563) scale(0.1 -0.1)">
      <use xlink:href="#DejaVuSans-54"/>
      <use xlink:href="#DejaVuSans-69" x="57.958984"/>
      <use xlink:href="#DejaVuSans-6d" x="85.742188"/>
      <use xlink:href="#DejaVuSans-65" x="183.154297"/>
      <use xlink:href="#DejaVuSans-20" x="244.677734"/>
      <use xlink:href="#DejaVuSans-28" x="276.464844"/>
      <use xlink:href="#DejaVuSans-6d" x="315.478516"/>
      <use xlink:href="#DejaVuSans-73" x="412.890625"/>
      <use xlink:href="#DejaVuSans-29" x="464.990234"/>
     </g>
    </g>
   </g>
   <g id="matplotlib.axis_4">
    <g id="ytick_6">
     <g id="line2d_18">
      <g>
       <use xlink:href="#m160056238f" x="56.18" y="259.238182" style="stroke: #000000; stroke-width: 0.8"/>
      </g>
     </g>
     <g id="text_19">
      <!-- −1.0 -->
      <g transform="translate(24.897188 263.037401) scale(0.1 -0.1)">
       <use xlink:href="#DejaVuSans-2212"/>
       <use xlink:href="#DejaVuSans-31" x="83.789062"/>
       <use xlink:href="#DejaVuSans-2e" x="147.412109"/>
       <use xlink:href="#DejaVuSans-30" x="179.199219"/>
      </g>
     </g>
    </g>
    <g id="ytick_7">
     <g id="line2d_19">
      <g>
       <use xlink:href="#m160056238f" x="56.18" y="235.229091" style="stroke: #000000; stroke-width: 0.8"/>
      </g>
     </g>
     <g id="text_20">
      <!-- −0.5 -->
      <g transform="translate(24.897188 239.02831) scale(0.1 -0.1)">
       <use xlink:href="#DejaVuSans-2212"/>
       <use xlink:href="#DejaVuSans-30" x="83.789062"/>
       <use xlink:href="#DejaVuSans-2e" x="147.412109"/>
       <use xlink:href="#DejaVuSans-35" x="179.199219"/>
      </g>
     </g>
    </g>
    <g id="ytick_8">
     <g id="line2d_20">
      <g>
       <use xlink:href="#m160056238f" x="56.18" y="211.22" style="stroke: #000000; stroke-width: 0.8"/>
      </g>
     </g>
     <g id="text_21">
      <!-- 0.0 -->
      <g transform="translate(33.276875 215.019219) scale(0.1 -0.1)">
       <use xlink:href="#DejaVuSans-30"/>
       <use xlink:href="#DejaVuSans-2e" x="63.623047"/>
       <use xlink:href="#DejaVuSans-30" x="95.410156"/>
      </g>
     </g>
    </g>
    <g id="ytick_9">
     <g id="line2d_21">
      <g>
       <use xlink:href="#m160056238f" x="56.18" y="187.210909" style="stroke: #000000; stroke-width: 0.8"/>
      </g>
     </g>
     <g id="text_22">
      <!-- 0.5 -->
      <g transform="translate(33.276875 191.010128) scale(0.1 -0.1)">
       <use xlink:href="#DejaVuSans-30"/>
       <use xlink:href="#DejaVuSans-2e" x="63.623047"/>
       <use xlink:href="#DejaVuSans-35" x="95.410156"/>
      </g>
     </g>
    </g>
    <g id="ytick_10">
     <g id="line2d_22">
      <g>
       <use xlink:href="#m160056238f" x="56.18" y="163.201818" style="stroke: #000000; stroke-width: 0.8"/>
      </g>
     </g>
     <g id="text_23">
      <!-- 1.0 -->
      <g transform="translate(33.276875 167.001037) scale(0.1 -0.1)">
       <use xlink:href="#DejaVuSans-31"/>
       <use xlink:href="#DejaVuSans-2e" x="63.623047"/>
       <use xlink:href="#DejaVuSans-30" x="95.410156"/>
      </g>
     </g>
    </g>
    <g id="text_24">
     <!-- Y-Axis Value -->
     <g transform="translate(18.8175 241.065313) rotate(-90) scale(0.1 -0.1)">
      <defs>
       <path id="DejaVuSans-59" d="M -13 4666 
L 666 4666 
L 1959 2747 
L 3244 4666 
L 3922 4666 
L 2272 2222 
L 2272 0 
L 1638 0 
L 1638 2222 
L -13 4666 
z
" transform="scale(0.015625)"/>
      </defs>
      <use xlink:href="#DejaVuSans-59"/>
      <use xlink:href="#DejaVuSans-2d" x="49.208984"/>
      <use xlink:href="#DejaVuSans-41" x="83.042969"/>
      <use xlink:href="#DejaVuSans-78" x="151.451172"/>
      <use xlink:href="#DejaVuSans-69" x="210.630859"/>
      <use xlink:href="#DejaVuSans-73" x="238.414062"/>
      <use xlink:href="#DejaVuSans-20" x="290.513672"/>
      <use xlink:href="#DejaVuSans-56" x="322.300781"/>
      <use xlink:href="#DejaVuSans-61" x="382.958984"/>
      <use xlink:href="#DejaVuSans-6c" x="444.238281"/>
      <use xlink:href="#DejaVuSans-75" x="472.021484"/>
      <use xlink:href="#DejaVuSans-65" x="535.400391"/>
     </g>
    </g>
   </g>
   <g id="line2d_23">
    <path d="M 56.18 204.977636 
L 64.111749 204.977636 
L 64.305206 205.457818 
L 65.46595 205.457818 
L 65.659407 205.938 
L 66.239779 205.938 
L 66.433236 206.418182 
L 67.59398 206.418182 
L 67.787437 206.898364 
L 69.335095 206.898364 
L 69.528552 207.378545 
L 69.915467 206.418182 
L 70.689296 202.096545 
L 72.043497 189.611818 
L 72.430412 187.210909 
L 72.623869 186.730727 
L 72.817326 187.210909 
L 73.010784 186.730727 
L 73.591155 186.730727 
L 73.784613 187.210909 
L 73.97807 188.171273 
L 74.171527 187.691091 
L 74.364985 188.171273 
L 74.558442 187.691091 
L 74.751899 188.171273 
L 74.945356 188.171273 
L 75.138814 187.691091 
L 75.719185 187.691091 
L 75.912643 188.171273 
L 76.493015 188.171273 
L 76.686472 187.691091 
L 76.879929 188.171273 
L 77.847216 188.171273 
L 78.040673 188.651455 
L 78.427587 187.691091 
L 78.621045 188.171273 
L 79.007959 188.171273 
L 79.201417 188.651455 
L 79.588331 188.651455 
L 79.781788 188.171273 
L 80.168703 188.171273 
L 80.36216 188.651455 
L 80.749075 188.651455 
L 80.942532 189.131636 
L 81.135989 188.651455 
L 81.329447 189.131636 
L 81.522904 189.131636 
L 81.716361 189.611818 
L 81.909819 188.651455 
L 84.424763 188.651455 
L 84.61822 188.171273 
L 84.811678 188.651455 
L 85.39205 188.651455 
L 85.585507 189.131636 
L 85.778964 188.651455 
L 85.972421 188.651455 
L 86.165879 189.131636 
L 86.552793 189.131636 
L 86.746251 188.651455 
L 87.326622 188.651455 
L 87.52008 189.131636 
L 88.100452 189.131636 
L 88.293909 189.611818 
L 88.487366 189.611818 
L 88.680823 190.092 
L 88.874281 189.611818 
L 89.067738 189.611818 
L 89.261195 190.092 
L 89.64811 190.092 
L 90.035024 188.651455 
L 90.421939 188.651455 
L 90.615396 188.171273 
L 91.002311 189.131636 
L 91.195768 188.651455 
L 91.77614 188.651455 
L 91.969597 189.131636 
L 92.163054 189.131636 
L 92.356512 188.651455 
L 92.549969 188.651455 
L 92.743426 188.171273 
L 92.936884 188.651455 
L 93.323798 188.651455 
L 93.517255 189.131636 
L 93.710713 188.651455 
L 94.677999 188.651455 
L 94.871456 188.171273 
L 98.547145 188.171273 
L 98.740602 188.651455 
L 98.934059 188.651455 
L 99.127517 188.171273 
L 100.094803 190.572182 
L 100.28826 191.532545 
L 100.481718 191.532545 
L 100.868632 192.492909 
L 101.835919 197.774909 
L 102.222833 200.656 
L 103.19012 204.977636 
L 103.577034 205.938 
L 103.963949 207.378545 
L 104.157406 206.898364 
L 104.350863 206.898364 
L 104.54432 207.858727 
L 104.737778 207.378545 
L 105.31815 207.378545 
L 105.511607 207.858727 
L 105.705064 207.378545 
L 106.285436 207.378545 
L 106.478893 207.858727 
L 106.672351 207.858727 
L 106.865808 207.378545 
L 107.059265 207.378545 
L 107.252722 207.858727 
L 107.44618 207.378545 
L 107.639637 207.858727 
L 108.026552 207.858727 
L 108.220009 207.378545 
L 108.413466 207.858727 
L 108.606923 207.378545 
L 110.348039 207.378545 
L 110.541496 206.898364 
L 110.928411 206.898364 
L 111.121868 207.378545 
L 111.315325 206.898364 
L 111.70224 206.898364 
L 111.895697 207.378545 
L 112.089154 206.898364 
L 112.476069 206.898364 
L 112.669526 207.378545 
L 112.862984 206.898364 
L 113.443355 206.898364 
L 113.636813 207.378545 
L 113.83027 207.378545 
L 114.023727 206.898364 
L 114.217185 207.378545 
L 117.505958 207.378545 
L 117.699416 206.898364 
L 118.08633 206.898364 
L 118.473245 205.457818 
L 118.860159 204.497455 
L 119.440531 201.136182 
L 119.827446 198.735273 
L 120.020903 198.255091 
L 120.601275 195.854182 
L 120.794732 195.374 
L 121.181647 193.933455 
L 121.375104 193.453273 
L 121.568561 193.453273 
L 121.955476 192.492909 
L 122.535848 192.492909 
L 122.729305 192.973091 
L 124.276963 192.973091 
L 124.470421 193.453273 
L 124.663878 192.492909 
L 124.857335 192.492909 
L 125.050792 192.973091 
L 125.24425 192.492909 
L 125.437707 192.492909 
L 125.631164 192.973091 
L 125.824622 192.973091 
L 126.018079 192.492909 
L 126.791908 192.492909 
L 126.985365 192.973091 
L 127.178822 192.492909 
L 127.37228 192.492909 
L 127.565737 192.973091 
L 127.759194 192.492909 
L 130.854511 192.492909 
L 131.047968 192.973091 
L 131.241425 192.492909 
L 148.652581 192.492909 
L 148.846038 192.012727 
L 149.42641 192.012727 
L 149.619867 192.492909 
L 149.813324 192.492909 
L 150.006782 192.973091 
L 150.200239 192.973091 
L 150.587154 193.933455 
L 150.780611 193.933455 
L 150.974068 194.413636 
L 151.360983 194.413636 
L 151.747897 195.374 
L 151.941355 195.374 
L 152.328269 196.814545 
L 154.649757 202.576727 
L 154.843214 202.576727 
L 155.036671 203.537091 
L 155.423586 203.537091 
L 155.617043 204.497455 
L 156.003958 204.497455 
L 156.584329 205.938 
L 156.777787 205.938 
L 157.164701 206.898364 
L 157.358158 206.898364 
L 157.551616 207.378545 
L 158.905817 207.378545 
L 159.099274 207.858727 
L 160.06656 207.858727 
L 160.260018 207.378545 
L 160.453475 207.858727 
L 162.388048 207.858727 
L 162.581505 207.378545 
L 162.774962 207.858727 
L 163.935706 207.858727 
L 164.129163 207.378545 
L 164.322621 207.858727 
L 164.516078 207.378545 
L 164.709535 207.858727 
L 164.902992 207.378545 
L 169.739425 207.378545 
L 169.932882 206.898364 
L 170.513254 206.898364 
L 170.706711 207.378545 
L 170.900168 206.898364 
L 171.673997 206.898364 
L 171.867455 207.378545 
L 172.060912 206.898364 
L 172.254369 206.898364 
L 172.834741 205.457818 
L 173.028198 205.938 
L 173.802027 205.938 
L 173.995485 206.418182 
L 174.188942 206.418182 
L 174.382399 206.898364 
L 174.575857 206.898364 
L 174.769314 206.418182 
L 174.962771 206.418182 
L 175.156228 205.938 
L 176.123515 205.938 
L 176.316972 205.457818 
L 176.510429 205.938 
L 176.703887 205.457818 
L 203.207534 205.457818 
L 203.400992 205.938 
L 203.594449 205.457818 
L 203.787906 205.457818 
L 203.981363 205.938 
L 204.561735 205.938 
L 204.755193 205.457818 
L 208.817795 205.457818 
L 209.011253 205.938 
L 213.267313 205.938 
L 213.46077 206.418182 
L 213.654228 205.938 
L 214.234599 205.938 
L 214.428057 206.418182 
L 214.621514 205.938 
L 214.814971 205.938 
L 215.008429 206.418182 
L 215.201886 205.938 
L 216.169172 205.938 
L 216.362629 206.418182 
L 223.520549 206.418182 
L 223.714006 205.938 
L 223.907463 206.418182 
L 224.294378 206.418182 
L 224.487835 205.938 
L 225.455122 205.938 
L 225.648579 205.457818 
L 226.615865 205.457818 
L 226.809323 205.938 
L 227.00278 205.938 
L 227.196237 206.418182 
L 227.389695 206.418182 
L 227.970066 207.858727 
L 228.163524 207.858727 
L 228.356981 208.338909 
L 228.743896 210.739818 
L 228.937353 212.180364 
L 229.324267 217.942545 
L 229.517725 218.422727 
L 231.25884 218.422727 
L 231.452297 218.902909 
L 255.441 218.902909 
L 255.634458 219.383091 
L 255.827915 218.902909 
L 256.988659 218.902909 
L 257.182116 219.383091 
L 257.762488 219.383091 
L 257.955945 218.902909 
L 258.149402 219.383091 
L 260.277432 219.383091 
L 260.664347 218.422727 
L 260.857804 218.422727 
L 261.244719 217.462364 
L 261.631633 216.021818 
L 263.953121 210.259636 
L 264.340035 208.819091 
L 264.72695 207.858727 
L 264.920407 207.858727 
L 265.113865 207.378545 
L 265.500779 207.378545 
L 265.887694 206.418182 
L 266.274608 206.418182 
L 266.468066 206.898364 
L 266.661523 206.898364 
L 266.85498 206.418182 
L 267.048437 206.418182 
L 267.241895 206.898364 
L 267.435352 206.898364 
L 267.628809 207.378545 
L 267.822266 207.378545 
L 268.015724 207.858727 
L 276.721301 207.858727 
L 276.914759 207.378545 
L 277.301673 207.378545 
L 277.495131 206.898364 
L 278.075502 206.898364 
L 278.26896 206.418182 
L 278.462417 206.898364 
L 278.655874 206.418182 
L 279.236246 206.418182 
L 279.429703 206.898364 
L 279.816618 206.898364 
L 280.010075 207.378545 
L 280.203533 207.378545 
L 280.39699 207.858727 
L 280.783904 209.779455 
L 282.331563 225.625455 
L 282.52502 225.625455 
L 282.718477 226.105636 
L 282.911934 226.105636 
L 283.105392 225.625455 
L 283.298849 225.625455 
L 283.492306 225.145273 
L 283.879221 225.145273 
L 284.072678 224.665091 
L 284.846507 224.665091 
L 285.039965 224.184909 
L 285.233422 224.665091 
L 285.426879 224.665091 
L 285.620336 224.184909 
L 286.007251 224.184909 
L 286.200708 224.665091 
L 286.974537 224.665091 
L 287.167995 224.184909 
L 287.361452 224.665091 
L 289.489482 224.665091 
L 289.682939 224.184909 
L 289.876397 224.665091 
L 290.069854 224.665091 
L 290.263311 224.184909 
L 290.456768 224.665091 
L 290.650226 224.665091 
L 290.843683 224.184909 
L 291.03714 224.665091 
L 293.552085 224.665091 
L 293.745542 224.184909 
L 293.939 224.665091 
L 297.808145 224.665091 
L 298.001602 224.184909 
L 298.19506 224.665091 
L 298.388517 224.184909 
L 298.581974 224.665091 
L 305.546436 224.665091 
L 305.739894 225.145273 
L 306.900637 225.145273 
L 307.094095 225.625455 
L 307.481009 225.625455 
L 307.674467 226.105636 
L 308.254838 226.105636 
L 308.448296 226.585818 
L 310.576326 226.585818 
L 310.769783 226.105636 
L 311.543612 226.105636 
L 311.930527 225.145273 
L 312.123984 225.145273 
L 312.704356 221.303818 
L 313.8651 216.021818 
L 314.058557 215.541636 
L 314.252014 215.541636 
L 314.638929 214.581273 
L 314.832386 214.581273 
L 315.412758 213.140727 
L 315.799672 211.700182 
L 316.186587 207.378545 
L 316.380044 206.898364 
L 317.734245 206.898364 
L 317.927703 207.378545 
L 318.12116 206.898364 
L 318.314617 207.378545 
L 318.508074 206.898364 
L 318.894989 206.898364 
L 319.088446 207.378545 
L 319.281903 206.898364 
L 319.475361 207.378545 
L 319.862275 207.378545 
L 320.055733 206.898364 
L 320.24919 206.898364 
L 320.442647 207.378545 
L 323.537964 207.378545 
L 323.731421 206.898364 
L 324.892165 206.898364 
L 325.085622 206.418182 
L 325.279079 206.898364 
L 325.472537 206.898364 
L 325.665994 206.418182 
L 325.859451 206.898364 
L 326.052908 206.898364 
L 326.246366 206.418182 
L 326.439823 206.418182 
L 326.63328 206.898364 
L 326.826737 206.418182 
L 327.213652 206.418182 
L 327.407109 206.898364 
L 329.728597 206.898364 
L 329.922054 207.378545 
L 330.115511 207.378545 
L 330.308969 207.858727 
L 330.502426 207.858727 
L 330.88934 208.819091 
L 331.66317 213.140727 
L 332.243541 217.942545 
L 332.630456 221.303818 
L 333.017371 222.264182 
L 333.7912 222.264182 
L 333.984657 222.744364 
L 351.782727 222.744364 
L 351.976184 223.224545 
L 352.169641 222.744364 
L 353.7173 222.744364 
L 353.910757 223.224545 
L 354.104214 222.744364 
L 355.651873 222.744364 
L 355.84533 223.224545 
L 356.038787 222.744364 
L 359.327561 222.744364 
L 359.521018 222.264182 
L 360.488305 222.264182 
L 360.681762 221.784 
L 361.068676 221.784 
L 361.842506 219.863273 
L 362.035963 218.422727 
L 362.22942 217.942545 
L 363.777078 210.259636 
L 363.970536 207.858727 
L 377.512545 207.858727 
L 377.706003 207.378545 
L 378.092917 207.378545 
L 378.286375 207.858727 
L 378.479832 207.378545 
L 378.673289 207.858727 
L 379.834033 207.858727 
L 380.02749 207.378545 
L 380.220947 207.378545 
L 380.414405 207.858727 
L 381.188234 207.858727 
L 381.381691 208.338909 
L 381.575148 207.858727 
L 382.735892 207.858727 
L 382.929349 207.378545 
L 383.122807 207.378545 
L 383.316264 207.858727 
L 383.509721 207.858727 
L 383.703178 208.338909 
L 384.090093 208.338909 
L 384.28355 208.819091 
L 414.462886 208.819091 
L 414.656344 208.338909 
L 415.817087 208.338909 
L 416.010544 207.858727 
L 416.204002 208.338909 
L 416.397459 207.858727 
L 417.945117 207.858727 
L 418.138575 207.378545 
L 418.332032 207.378545 
L 418.525489 207.858727 
L 423.942293 207.858727 
L 424.13575 207.378545 
L 424.716122 207.378545 
L 424.909579 207.858727 
L 428.198353 207.858727 
L 428.391811 207.378545 
L 428.585268 207.378545 
L 428.778725 207.858727 
L 435.54973 207.858727 
L 435.936645 206.898364 
L 436.517016 203.537091 
L 437.290846 197.294727 
L 437.484303 195.374 
L 437.871217 194.413636 
L 439.999247 194.413636 
L 440.192705 194.893818 
L 440.386162 194.413636 
L 441.93382 194.413636 
L 442.127278 194.893818 
L 446.18988 194.893818 
L 446.383338 194.413636 
L 446.576795 194.893818 
L 447.930996 194.893818 
L 448.124453 194.413636 
L 448.317911 194.893818 
L 448.704825 194.893818 
L 448.898282 194.413636 
L 449.09174 194.413636 
L 449.285197 194.893818 
L 450.059026 194.893818 
L 450.252483 194.413636 
L 450.445941 194.893818 
L 450.639398 194.893818 
L 450.832855 194.413636 
L 451.21977 194.413636 
L 451.413227 194.893818 
L 451.606684 194.413636 
L 451.800142 194.893818 
L 455.47583 194.893818 
L 455.669287 194.413636 
L 455.862745 194.893818 
L 456.249659 194.893818 
L 456.443116 194.413636 
L 456.636574 194.893818 
L 457.216946 194.893818 
L 457.410403 194.413636 
L 457.60386 194.893818 
L 457.797317 194.413636 
L 457.990775 194.893818 
L 458.571147 194.893818 
L 458.764604 194.413636 
L 458.958061 194.893818 
L 459.151518 194.893818 
L 459.344976 194.413636 
L 462.440292 194.413636 
L 462.633749 193.933455 
L 462.827207 193.933455 
L 463.020664 194.413636 
L 463.214121 193.933455 
L 465.148694 193.933455 
L 465.342151 194.413636 
L 465.535609 193.933455 
L 465.922523 193.933455 
L 466.115981 194.413636 
L 466.309438 194.413636 
L 466.502895 193.933455 
L 466.696352 194.413636 
L 467.276724 194.413636 
L 468.050553 196.334364 
L 468.630925 198.735273 
L 468.824382 199.215455 
L 469.211297 200.656 
L 469.404754 201.136182 
L 469.791669 202.576727 
L 470.178583 203.537091 
L 470.565498 204.977636 
L 470.758955 205.457818 
L 470.952413 206.418182 
L 471.919699 206.418182 
L 472.113156 206.898364 
L 473.660815 206.898364 
L 474.047729 207.858727 
L 474.241186 207.378545 
L 474.434644 207.858727 
L 474.628101 207.378545 
L 475.982302 207.378545 
L 476.175759 207.858727 
L 476.369216 207.858727 
L 476.562674 207.378545 
L 476.949588 207.378545 
L 477.143046 207.858727 
L 477.336503 207.378545 
L 480.044905 207.378545 
L 480.238362 207.858727 
L 480.431819 207.378545 
L 482.366392 207.378545 
L 482.559849 207.858727 
L 482.753307 207.378545 
L 485.461709 207.378545 
L 485.655166 207.858727 
L 485.848623 207.378545 
L 486.042081 207.378545 
L 486.235538 207.858727 
L 486.428995 207.378545 
L 487.783196 207.378545 
L 487.976653 207.858727 
L 488.170111 207.378545 
L 489.911226 207.378545 
L 490.104683 207.858727 
L 490.298141 207.378545 
L 493.2 207.378545 
L 493.2 207.378545 
" clip-path="url(#p491251def0)" style="fill: none; stroke: #1f77b4; stroke-width: 1.5; stroke-linecap: square"/>
   </g>
   <g id="line2d_24">
    <path d="M 56.18 211.22 
L 493.2 211.22 
" clip-path="url(#p491251def0)" style="fill: none; stroke-dasharray: 2.96,1.28; stroke-dashoffset: 0; stroke: #808080; stroke-width: 0.8"/>
   </g>
   <g id="patch_6">
    <path d="M 56.18 264.04 
L 56.18 158.4 
" style="fill: none; stroke: #000000; stroke-width: 0.8; stroke-linejoin: miter; stroke-linecap: square"/>
   </g>
   <g id="patch_7">
    <path d="M 56.18 264.04 
L 493.2 264.04 
" style="fill: none; stroke: #000000; stroke-width: 0.8; stroke-linejoin: miter; stroke-linecap: square"/>
   </g>
  </g>
 </g>
 <defs>
  <clipPath id="pefbe80c2c3">
   <rect x="56.18" y="10.8" width="437.02" height="105.64"/>
  </clipPath>
  <clipPath id="p491251def0">
   <rect x="56.18" y="158.4" width="437.02" height="105.64"/>
  </clipPath>
 </defs>
</svg>
