<?xml version="1.0" encoding="utf-8" standalone="no"?>
<!DOCTYPE svg PUBLIC "-//W3C//DTD SVG 1.1//EN"
  "http://www.w3.org/Graphics/SVG/1.1/DTD/svg11.dtd">
<svg xmlns:xlink="http://www.w3.org/1999/xlink" width="504pt" height="306pt" viewBox="0 0 504 306" xmlns="http://www.w3.org/2000/svg" version="1.1">
 <metadata>
  <rdf:RDF xmlns:dc="http://purl.org/dc/elements/1.1/" xmlns:cc="http://creativecommons.org/ns#" xmlns:rdf="http://www.w3.org/1999/02/22-rdf-syntax-ns#">
   <cc:Work>
    <dc:type rdf:resource="http://purl.org/dc/dcmitype/StillImage"/>
    <dc:date>2024-06-16T21:02:06.755529</dc:date>
    <dc:format>image/svg+xml</dc:format>
    <dc:creator>
     <cc:Agent>
      <dc:title>Matplotlib v3.8.3, https://matplotlib.org/</dc:title>
     </cc:Agent>
    </dc:creator>
   </cc:Work>
  </rdf:RDF>
 </metadata>
 <defs>
  <style type="text/css">*{stroke-linejoin: round; stroke-linecap: butt}</style>
 </defs>
 <g id="figure_1">
  <g id="patch_1">
   <path d="M 0 306 
L 504 306 
L 504 0 
L 0 0 
z
" style="fill: #ffffff"/>
  </g>
  <g id="axes_1">
   <g id="patch_2">
    <path d="M 56.18 116.44 
L 493.2 116.44 
L 493.2 10.8 
L 56.18 10.8 
z
" style="fill: #ffffff"/>
   </g>
   <g id="matplotlib.axis_1">
    <g id="xtick_1">
     <g id="line2d_1">
      <defs>
       <path id="m2614bf73f2" d="M 0 0 
L 0 3.5 
" style="stroke: #000000; stroke-width: 0.8"/>
      </defs>
      <g>
       <use xlink:href="#m2614bf73f2" x="56.18" y="116.44" style="stroke: #000000; stroke-width: 0.8"/>
      </g>
     </g>
     <g id="text_1">
      <!-- 0 -->
      <g transform="translate(52.99875 131.038437) scale(0.1 -0.1)">
       <defs>
        <path id="DejaVuSans-30" d="M 2034 4250 
Q 1547 4250 1301 3770 
Q 1056 3291 1056 2328 
Q 1056 1369 1301 889 
Q 1547 409 2034 409 
Q 2525 409 2770 889 
Q 3016 1369 3016 2328 
Q 3016 3291 2770 3770 
Q 2525 4250 2034 4250 
z
M 2034 4750 
Q 2819 4750 3233 4129 
Q 3647 3509 3647 2328 
Q 3647 1150 3233 529 
Q 2819 -91 2034 -91 
Q 1250 -91 836 529 
Q 422 1150 422 2328 
Q 422 3509 836 4129 
Q 1250 4750 2034 4750 
z
" transform="scale(0.015625)"/>
       </defs>
       <use xlink:href="#DejaVuSans-30"/>
      </g>
     </g>
    </g>
    <g id="xtick_2">
     <g id="line2d_2">
      <g>
       <use xlink:href="#m2614bf73f2" x="135.928175" y="116.44" style="stroke: #000000; stroke-width: 0.8"/>
      </g>
     </g>
     <g id="text_2">
      <!-- 1000 -->
      <g transform="translate(123.203175 131.038437) scale(0.1 -0.1)">
       <defs>
        <path id="DejaVuSans-31" d="M 794 531 
L 1825 531 
L 1825 4091 
L 703 3866 
L 703 4441 
L 1819 4666 
L 2450 4666 
L 2450 531 
L 3481 531 
L 3481 0 
L 794 0 
L 794 531 
z
" transform="scale(0.015625)"/>
       </defs>
       <use xlink:href="#DejaVuSans-31"/>
       <use xlink:href="#DejaVuSans-30" x="63.623047"/>
       <use xlink:href="#DejaVuSans-30" x="127.246094"/>
       <use xlink:href="#DejaVuSans-30" x="190.869141"/>
      </g>
     </g>
    </g>
    <g id="xtick_3">
     <g id="line2d_3">
      <g>
       <use xlink:href="#m2614bf73f2" x="215.67635" y="116.44" style="stroke: #000000; stroke-width: 0.8"/>
      </g>
     </g>
     <g id="text_3">
      <!-- 2000 -->
      <g transform="translate(202.95135 131.038437) scale(0.1 -0.1)">
       <defs>
        <path id="DejaVuSans-32" d="M 1228 531 
L 3431 531 
L 3431 0 
L 469 0 
L 469 531 
Q 828 903 1448 1529 
Q 2069 2156 2228 2338 
Q 2531 2678 2651 2914 
Q 2772 3150 2772 3378 
Q 2772 3750 2511 3984 
Q 2250 4219 1831 4219 
Q 1534 4219 1204 4116 
Q 875 4013 500 3803 
L 500 4441 
Q 881 4594 1212 4672 
Q 1544 4750 1819 4750 
Q 2544 4750 2975 4387 
Q 3406 4025 3406 3419 
Q 3406 3131 3298 2873 
Q 3191 2616 2906 2266 
Q 2828 2175 2409 1742 
Q 1991 1309 1228 531 
z
" transform="scale(0.015625)"/>
       </defs>
       <use xlink:href="#DejaVuSans-32"/>
       <use xlink:href="#DejaVuSans-30" x="63.623047"/>
       <use xlink:href="#DejaVuSans-30" x="127.246094"/>
       <use xlink:href="#DejaVuSans-30" x="190.869141"/>
      </g>
     </g>
    </g>
    <g id="xtick_4">
     <g id="line2d_4">
      <g>
       <use xlink:href="#m2614bf73f2" x="295.424526" y="116.44" style="stroke: #000000; stroke-width: 0.8"/>
      </g>
     </g>
     <g id="text_4">
      <!-- 3000 -->
      <g transform="translate(282.699526 131.038437) scale(0.1 -0.1)">
       <defs>
        <path id="DejaVuSans-33" d="M 2597 2516 
Q 3050 2419 3304 2112 
Q 3559 1806 3559 1356 
Q 3559 666 3084 287 
Q 2609 -91 1734 -91 
Q 1441 -91 1130 -33 
Q 819 25 488 141 
L 488 750 
Q 750 597 1062 519 
Q 1375 441 1716 441 
Q 2309 441 2620 675 
Q 2931 909 2931 1356 
Q 2931 1769 2642 2001 
Q 2353 2234 1838 2234 
L 1294 2234 
L 1294 2753 
L 1863 2753 
Q 2328 2753 2575 2939 
Q 2822 3125 2822 3475 
Q 2822 3834 2567 4026 
Q 2313 4219 1838 4219 
Q 1578 4219 1281 4162 
Q 984 4106 628 3988 
L 628 4550 
Q 988 4650 1302 4700 
Q 1616 4750 1894 4750 
Q 2613 4750 3031 4423 
Q 3450 4097 3450 3541 
Q 3450 3153 3228 2886 
Q 3006 2619 2597 2516 
z
" transform="scale(0.015625)"/>
       </defs>
       <use xlink:href="#DejaVuSans-33"/>
       <use xlink:href="#DejaVuSans-30" x="63.623047"/>
       <use xlink:href="#DejaVuSans-30" x="127.246094"/>
       <use xlink:href="#DejaVuSans-30" x="190.869141"/>
      </g>
     </g>
    </g>
    <g id="xtick_5">
     <g id="line2d_5">
      <g>
       <use xlink:href="#m2614bf73f2" x="375.172701" y="116.44" style="stroke: #000000; stroke-width: 0.8"/>
      </g>
     </g>
     <g id="text_5">
      <!-- 4000 -->
      <g transform="translate(362.447701 131.038437) scale(0.1 -0.1)">
       <defs>
        <path id="DejaVuSans-34" d="M 2419 4116 
L 825 1625 
L 2419 1625 
L 2419 4116 
z
M 2253 4666 
L 3047 4666 
L 3047 1625 
L 3713 1625 
L 3713 1100 
L 3047 1100 
L 3047 0 
L 2419 0 
L 2419 1100 
L 313 1100 
L 313 1709 
L 2253 4666 
z
" transform="scale(0.015625)"/>
       </defs>
       <use xlink:href="#DejaVuSans-34"/>
       <use xlink:href="#DejaVuSans-30" x="63.623047"/>
       <use xlink:href="#DejaVuSans-30" x="127.246094"/>
       <use xlink:href="#DejaVuSans-30" x="190.869141"/>
      </g>
     </g>
    </g>
    <g id="xtick_6">
     <g id="line2d_6">
      <g>
       <use xlink:href="#m2614bf73f2" x="454.920876" y="116.44" style="stroke: #000000; stroke-width: 0.8"/>
      </g>
     </g>
     <g id="text_6">
      <!-- 5000 -->
      <g transform="translate(442.195876 131.038437) scale(0.1 -0.1)">
       <defs>
        <path id="DejaVuSans-35" d="M 691 4666 
L 3169 4666 
L 3169 4134 
L 1269 4134 
L 1269 2991 
Q 1406 3038 1543 3061 
Q 1681 3084 1819 3084 
Q 2600 3084 3056 2656 
Q 3513 2228 3513 1497 
Q 3513 744 3044 326 
Q 2575 -91 1722 -91 
Q 1428 -91 1123 -41 
Q 819 9 494 109 
L 494 744 
Q 775 591 1075 516 
Q 1375 441 1709 441 
Q 2250 441 2565 725 
Q 2881 1009 2881 1497 
Q 2881 1984 2565 2268 
Q 2250 2553 1709 2553 
Q 1456 2553 1204 2497 
Q 953 2441 691 2322 
L 691 4666 
z
" transform="scale(0.015625)"/>
       </defs>
       <use xlink:href="#DejaVuSans-35"/>
       <use xlink:href="#DejaVuSans-30" x="63.623047"/>
       <use xlink:href="#DejaVuSans-30" x="127.246094"/>
       <use xlink:href="#DejaVuSans-30" x="190.869141"/>
      </g>
     </g>
    </g>
    <g id="text_7">
     <!-- Time (ms) -->
     <g transform="translate(249.490781 144.716562) scale(0.1 -0.1)">
      <defs>
       <path id="DejaVuSans-54" d="M -19 4666 
L 3928 4666 
L 3928 4134 
L 2272 4134 
L 2272 0 
L 1638 0 
L 1638 4134 
L -19 4134 
L -19 4666 
z
" transform="scale(0.015625)"/>
       <path id="DejaVuSans-69" d="M 603 3500 
L 1178 3500 
L 1178 0 
L 603 0 
L 603 3500 
z
M 603 4863 
L 1178 4863 
L 1178 4134 
L 603 4134 
L 603 4863 
z
" transform="scale(0.015625)"/>
       <path id="DejaVuSans-6d" d="M 3328 2828 
Q 3544 3216 3844 3400 
Q 4144 3584 4550 3584 
Q 5097 3584 5394 3201 
Q 5691 2819 5691 2113 
L 5691 0 
L 5113 0 
L 5113 2094 
Q 5113 2597 4934 2840 
Q 4756 3084 4391 3084 
Q 3944 3084 3684 2787 
Q 3425 2491 3425 1978 
L 3425 0 
L 2847 0 
L 2847 2094 
Q 2847 2600 2669 2842 
Q 2491 3084 2119 3084 
Q 1678 3084 1418 2786 
Q 1159 2488 1159 1978 
L 1159 0 
L 581 0 
L 581 3500 
L 1159 3500 
L 1159 2956 
Q 1356 3278 1631 3431 
Q 1906 3584 2284 3584 
Q 2666 3584 2933 3390 
Q 3200 3197 3328 2828 
z
" transform="scale(0.015625)"/>
       <path id="DejaVuSans-65" d="M 3597 1894 
L 3597 1613 
L 953 1613 
Q 991 1019 1311 708 
Q 1631 397 2203 397 
Q 2534 397 2845 478 
Q 3156 559 3463 722 
L 3463 178 
Q 3153 47 2828 -22 
Q 2503 -91 2169 -91 
Q 1331 -91 842 396 
Q 353 884 353 1716 
Q 353 2575 817 3079 
Q 1281 3584 2069 3584 
Q 2775 3584 3186 3129 
Q 3597 2675 3597 1894 
z
M 3022 2063 
Q 3016 2534 2758 2815 
Q 2500 3097 2075 3097 
Q 1594 3097 1305 2825 
Q 1016 2553 972 2059 
L 3022 2063 
z
" transform="scale(0.015625)"/>
       <path id="DejaVuSans-20" transform="scale(0.015625)"/>
       <path id="DejaVuSans-28" d="M 1984 4856 
Q 1566 4138 1362 3434 
Q 1159 2731 1159 2009 
Q 1159 1288 1364 580 
Q 1569 -128 1984 -844 
L 1484 -844 
Q 1016 -109 783 600 
Q 550 1309 550 2009 
Q 550 2706 781 3412 
Q 1013 4119 1484 4856 
L 1984 4856 
z
" transform="scale(0.015625)"/>
       <path id="DejaVuSans-73" d="M 2834 3397 
L 2834 2853 
Q 2591 2978 2328 3040 
Q 2066 3103 1784 3103 
Q 1356 3103 1142 2972 
Q 928 2841 928 2578 
Q 928 2378 1081 2264 
Q 1234 2150 1697 2047 
L 1894 2003 
Q 2506 1872 2764 1633 
Q 3022 1394 3022 966 
Q 3022 478 2636 193 
Q 2250 -91 1575 -91 
Q 1294 -91 989 -36 
Q 684 19 347 128 
L 347 722 
Q 666 556 975 473 
Q 1284 391 1588 391 
Q 1994 391 2212 530 
Q 2431 669 2431 922 
Q 2431 1156 2273 1281 
Q 2116 1406 1581 1522 
L 1381 1569 
Q 847 1681 609 1914 
Q 372 2147 372 2553 
Q 372 3047 722 3315 
Q 1072 3584 1716 3584 
Q 2034 3584 2315 3537 
Q 2597 3491 2834 3397 
z
" transform="scale(0.015625)"/>
       <path id="DejaVuSans-29" d="M 513 4856 
L 1013 4856 
Q 1481 4119 1714 3412 
Q 1947 2706 1947 2009 
Q 1947 1309 1714 600 
Q 1481 -109 1013 -844 
L 513 -844 
Q 928 -128 1133 580 
Q 1338 1288 1338 2009 
Q 1338 2731 1133 3434 
Q 928 4138 513 4856 
z
" transform="scale(0.015625)"/>
      </defs>
      <use xlink:href="#DejaVuSans-54"/>
      <use xlink:href="#DejaVuSans-69" x="57.958984"/>
      <use xlink:href="#DejaVuSans-6d" x="85.742188"/>
      <use xlink:href="#DejaVuSans-65" x="183.154297"/>
      <use xlink:href="#DejaVuSans-20" x="244.677734"/>
      <use xlink:href="#DejaVuSans-28" x="276.464844"/>
      <use xlink:href="#DejaVuSans-6d" x="315.478516"/>
      <use xlink:href="#DejaVuSans-73" x="412.890625"/>
      <use xlink:href="#DejaVuSans-29" x="464.990234"/>
     </g>
    </g>
   </g>
   <g id="matplotlib.axis_2">
    <g id="ytick_1">
     <g id="line2d_7">
      <defs>
       <path id="m3468a28566" d="M 0 0 
L -3.5 0 
" style="stroke: #000000; stroke-width: 0.8"/>
      </defs>
      <g>
       <use xlink:href="#m3468a28566" x="56.18" y="111.638182" style="stroke: #000000; stroke-width: 0.8"/>
      </g>
     </g>
     <g id="text_8">
      <!-- −1.0 -->
      <g transform="translate(24.897188 115.437401) scale(0.1 -0.1)">
       <defs>
        <path id="DejaVuSans-2212" d="M 678 2272 
L 4684 2272 
L 4684 1741 
L 678 1741 
L 678 2272 
z
" transform="scale(0.015625)"/>
        <path id="DejaVuSans-2e" d="M 684 794 
L 1344 794 
L 1344 0 
L 684 0 
L 684 794 
z
" transform="scale(0.015625)"/>
       </defs>
       <use xlink:href="#DejaVuSans-2212"/>
       <use xlink:href="#DejaVuSans-31" x="83.789062"/>
       <use xlink:href="#DejaVuSans-2e" x="147.412109"/>
       <use xlink:href="#DejaVuSans-30" x="179.199219"/>
      </g>
     </g>
    </g>
    <g id="ytick_2">
     <g id="line2d_8">
      <g>
       <use xlink:href="#m3468a28566" x="56.18" y="87.629091" style="stroke: #000000; stroke-width: 0.8"/>
      </g>
     </g>
     <g id="text_9">
      <!-- −0.5 -->
      <g transform="translate(24.897188 91.42831) scale(0.1 -0.1)">
       <use xlink:href="#DejaVuSans-2212"/>
       <use xlink:href="#DejaVuSans-30" x="83.789062"/>
       <use xlink:href="#DejaVuSans-2e" x="147.412109"/>
       <use xlink:href="#DejaVuSans-35" x="179.199219"/>
      </g>
     </g>
    </g>
    <g id="ytick_3">
     <g id="line2d_9">
      <g>
       <use xlink:href="#m3468a28566" x="56.18" y="63.62" style="stroke: #000000; stroke-width: 0.8"/>
      </g>
     </g>
     <g id="text_10">
      <!-- 0.0 -->
      <g transform="translate(33.276875 67.419219) scale(0.1 -0.1)">
       <use xlink:href="#DejaVuSans-30"/>
       <use xlink:href="#DejaVuSans-2e" x="63.623047"/>
       <use xlink:href="#DejaVuSans-30" x="95.410156"/>
      </g>
     </g>
    </g>
    <g id="ytick_4">
     <g id="line2d_10">
      <g>
       <use xlink:href="#m3468a28566" x="56.18" y="39.610909" style="stroke: #000000; stroke-width: 0.8"/>
      </g>
     </g>
     <g id="text_11">
      <!-- 0.5 -->
      <g transform="translate(33.276875 43.410128) scale(0.1 -0.1)">
       <use xlink:href="#DejaVuSans-30"/>
       <use xlink:href="#DejaVuSans-2e" x="63.623047"/>
       <use xlink:href="#DejaVuSans-35" x="95.410156"/>
      </g>
     </g>
    </g>
    <g id="ytick_5">
     <g id="line2d_11">
      <g>
       <use xlink:href="#m3468a28566" x="56.18" y="15.601818" style="stroke: #000000; stroke-width: 0.8"/>
      </g>
     </g>
     <g id="text_12">
      <!-- 1.0 -->
      <g transform="translate(33.276875 19.401037) scale(0.1 -0.1)">
       <use xlink:href="#DejaVuSans-31"/>
       <use xlink:href="#DejaVuSans-2e" x="63.623047"/>
       <use xlink:href="#DejaVuSans-30" x="95.410156"/>
      </g>
     </g>
    </g>
    <g id="text_13">
     <!-- X-Axis Value -->
     <g transform="translate(18.8175 94.180156) rotate(-90) scale(0.1 -0.1)">
      <defs>
       <path id="DejaVuSans-58" d="M 403 4666 
L 1081 4666 
L 2241 2931 
L 3406 4666 
L 4084 4666 
L 2584 2425 
L 4184 0 
L 3506 0 
L 2194 1984 
L 872 0 
L 191 0 
L 1856 2491 
L 403 4666 
z
" transform="scale(0.015625)"/>
       <path id="DejaVuSans-2d" d="M 313 2009 
L 1997 2009 
L 1997 1497 
L 313 1497 
L 313 2009 
z
" transform="scale(0.015625)"/>
       <path id="DejaVuSans-41" d="M 2188 4044 
L 1331 1722 
L 3047 1722 
L 2188 4044 
z
M 1831 4666 
L 2547 4666 
L 4325 0 
L 3669 0 
L 3244 1197 
L 1141 1197 
L 716 0 
L 50 0 
L 1831 4666 
z
" transform="scale(0.015625)"/>
       <path id="DejaVuSans-78" d="M 3513 3500 
L 2247 1797 
L 3578 0 
L 2900 0 
L 1881 1375 
L 863 0 
L 184 0 
L 1544 1831 
L 300 3500 
L 978 3500 
L 1906 2253 
L 2834 3500 
L 3513 3500 
z
" transform="scale(0.015625)"/>
       <path id="DejaVuSans-56" d="M 1831 0 
L 50 4666 
L 709 4666 
L 2188 738 
L 3669 4666 
L 4325 4666 
L 2547 0 
L 1831 0 
z
" transform="scale(0.015625)"/>
       <path id="DejaVuSans-61" d="M 2194 1759 
Q 1497 1759 1228 1600 
Q 959 1441 959 1056 
Q 959 750 1161 570 
Q 1363 391 1709 391 
Q 2188 391 2477 730 
Q 2766 1069 2766 1631 
L 2766 1759 
L 2194 1759 
z
M 3341 1997 
L 3341 0 
L 2766 0 
L 2766 531 
Q 2569 213 2275 61 
Q 1981 -91 1556 -91 
Q 1019 -91 701 211 
Q 384 513 384 1019 
Q 384 1609 779 1909 
Q 1175 2209 1959 2209 
L 2766 2209 
L 2766 2266 
Q 2766 2663 2505 2880 
Q 2244 3097 1772 3097 
Q 1472 3097 1187 3025 
Q 903 2953 641 2809 
L 641 3341 
Q 956 3463 1253 3523 
Q 1550 3584 1831 3584 
Q 2591 3584 2966 3190 
Q 3341 2797 3341 1997 
z
" transform="scale(0.015625)"/>
       <path id="DejaVuSans-6c" d="M 603 4863 
L 1178 4863 
L 1178 0 
L 603 0 
L 603 4863 
z
" transform="scale(0.015625)"/>
       <path id="DejaVuSans-75" d="M 544 1381 
L 544 3500 
L 1119 3500 
L 1119 1403 
Q 1119 906 1312 657 
Q 1506 409 1894 409 
Q 2359 409 2629 706 
Q 2900 1003 2900 1516 
L 2900 3500 
L 3475 3500 
L 3475 0 
L 2900 0 
L 2900 538 
Q 2691 219 2414 64 
Q 2138 -91 1772 -91 
Q 1169 -91 856 284 
Q 544 659 544 1381 
z
M 1991 3584 
L 1991 3584 
z
" transform="scale(0.015625)"/>
      </defs>
      <use xlink:href="#DejaVuSans-58"/>
      <use xlink:href="#DejaVuSans-2d" x="63.505859"/>
      <use xlink:href="#DejaVuSans-41" x="97.339844"/>
      <use xlink:href="#DejaVuSans-78" x="165.748047"/>
      <use xlink:href="#DejaVuSans-69" x="224.927734"/>
      <use xlink:href="#DejaVuSans-73" x="252.710938"/>
      <use xlink:href="#DejaVuSans-20" x="304.810547"/>
      <use xlink:href="#DejaVuSans-56" x="336.597656"/>
      <use xlink:href="#DejaVuSans-61" x="397.255859"/>
      <use xlink:href="#DejaVuSans-6c" x="458.535156"/>
      <use xlink:href="#DejaVuSans-75" x="486.318359"/>
      <use xlink:href="#DejaVuSans-65" x="549.697266"/>
     </g>
    </g>
   </g>
   <g id="line2d_12">
    <path d="M 56.18 63.62 
L 56.977482 64.100182 
L 57.774964 64.100182 
L 58.572445 63.62 
L 59.369927 63.62 
L 60.167409 64.100182 
L 62.559854 64.100182 
L 63.357336 63.62 
L 64.154818 64.100182 
L 72.927117 64.100182 
L 73.724599 63.62 
L 74.52208 64.100182 
L 75.319562 63.62 
L 84.091861 63.62 
L 84.889343 64.100182 
L 85.686825 63.62 
L 90.471715 63.62 
L 91.269197 63.139818 
L 94.459124 63.139818 
L 95.256606 62.659636 
L 96.054088 62.659636 
L 96.851569 62.179455 
L 97.649051 62.179455 
L 98.446533 61.699273 
L 100.041496 61.699273 
L 100.838978 61.219091 
L 102.433942 61.219091 
L 103.231423 60.738909 
L 107.218832 60.738909 
L 108.016314 60.258727 
L 111.206241 60.258727 
L 112.003723 60.738909 
L 112.801204 60.258727 
L 123.168467 60.258727 
L 123.965949 59.778545 
L 124.763431 59.778545 
L 125.560912 60.258727 
L 126.358394 59.778545 
L 127.155876 60.258727 
L 127.953358 59.778545 
L 130.345803 59.778545 
L 131.143285 60.258727 
L 131.940766 60.258727 
L 132.738248 59.778545 
L 133.53573 60.258727 
L 134.333212 59.778545 
L 135.130693 60.258727 
L 137.523139 60.258727 
L 138.32062 59.778545 
L 139.118102 60.258727 
L 139.915584 60.258727 
L 140.713066 59.778545 
L 141.510547 60.258727 
L 142.308029 59.778545 
L 143.105511 60.258727 
L 143.902993 59.778545 
L 144.700474 59.778545 
L 145.497956 60.258727 
L 150.282847 60.258727 
L 151.080328 59.778545 
L 151.87781 60.258727 
L 152.675292 59.778545 
L 153.472774 60.258727 
L 154.270255 59.778545 
L 156.662701 59.778545 
L 157.460182 58.818182 
L 161.447591 56.417273 
L 162.245073 55.456909 
L 166.232482 53.056 
L 167.029964 52.095636 
L 167.827445 52.095636 
L 168.624927 51.135273 
L 171.814854 49.214545 
L 172.612336 49.214545 
L 173.409818 48.734364 
L 174.207299 48.734364 
L 175.004781 48.254182 
L 175.802263 48.254182 
L 176.599745 47.774 
L 178.194708 47.774 
L 179.789672 46.813636 
L 181.384635 46.813636 
L 182.182117 46.333455 
L 183.77708 46.333455 
L 184.574562 45.853273 
L 185.372044 46.333455 
L 186.169526 45.853273 
L 188.561971 45.853273 
L 189.359453 45.373091 
L 190.156934 45.373091 
L 191.751898 44.412727 
L 192.54938 44.412727 
L 193.346861 43.932545 
L 194.144343 43.932545 
L 195.739307 42.972182 
L 197.33427 42.972182 
L 198.131752 42.492 
L 201.321679 42.492 
L 202.119161 42.011818 
L 205.309088 42.011818 
L 206.106569 41.531636 
L 206.904051 41.531636 
L 207.701533 42.011818 
L 208.499015 41.531636 
L 221.258723 41.531636 
L 222.056204 42.011818 
L 223.651168 42.011818 
L 224.44865 42.492 
L 226.043613 42.492 
L 226.841095 42.972182 
L 229.23354 42.972182 
L 230.828504 43.932545 
L 231.625985 43.932545 
L 232.423467 44.412727 
L 233.220949 44.412727 
L 234.018431 44.892909 
L 234.815912 45.853273 
L 235.613394 45.853273 
L 238.005839 47.293818 
L 238.803321 47.293818 
L 239.600803 47.774 
L 240.398285 47.774 
L 241.993248 48.734364 
L 244.385693 48.734364 
L 245.183175 49.214545 
L 245.980657 49.214545 
L 247.57562 50.174909 
L 248.373102 50.174909 
L 249.170584 50.655091 
L 249.968066 50.655091 
L 251.563029 51.615455 
L 253.157993 51.615455 
L 253.955474 52.095636 
L 254.752956 52.095636 
L 255.550438 52.575818 
L 256.34792 52.575818 
L 257.145401 53.536182 
L 257.942883 54.016364 
L 258.740365 54.976727 
L 260.335328 58.818182 
L 261.930292 63.62 
L 262.727774 65.540727 
L 263.525255 66.501091 
L 265.120219 66.501091 
L 265.917701 66.981273 
L 266.715182 66.981273 
L 267.512664 67.461455 
L 268.310146 67.461455 
L 269.107628 67.941636 
L 270.702591 67.941636 
L 271.500073 68.421818 
L 272.297555 68.421818 
L 273.095036 68.902 
L 273.892518 68.902 
L 274.69 69.382182 
L 275.487482 69.382182 
L 276.284964 69.862364 
L 277.082445 69.862364 
L 277.879927 70.342545 
L 278.677409 70.342545 
L 283.462299 73.223636 
L 284.259781 73.223636 
L 285.057263 74.184 
L 285.854745 74.184 
L 288.24719 75.624545 
L 289.044672 75.624545 
L 293.03208 78.025455 
L 293.829562 78.025455 
L 297.816971 80.426364 
L 299.411934 80.426364 
L 300.209416 80.906545 
L 301.80438 80.906545 
L 304.196825 82.347091 
L 304.994307 82.347091 
L 305.791788 82.827273 
L 307.386752 82.827273 
L 308.184234 83.307455 
L 308.981715 83.307455 
L 309.779197 83.787636 
L 312.171642 83.787636 
L 312.969124 84.267818 
L 314.564088 84.267818 
L 315.361569 84.748 
L 316.159051 84.267818 
L 321.741423 84.267818 
L 322.538905 83.787636 
L 328.121277 83.787636 
L 328.918759 83.307455 
L 332.906168 83.307455 
L 333.70365 82.827273 
L 334.501131 82.827273 
L 335.298613 82.347091 
L 336.096095 82.347091 
L 344.868394 77.065091 
L 346.463358 77.065091 
L 347.260839 76.584909 
L 348.058321 76.584909 
L 348.855803 76.104727 
L 350.450766 76.104727 
L 351.248248 75.624545 
L 352.04573 75.624545 
L 353.640693 74.664182 
L 355.235657 74.664182 
L 356.033139 74.184 
L 356.83062 74.184 
L 357.628102 73.703818 
L 358.425584 73.703818 
L 360.020547 72.743455 
L 360.818029 72.743455 
L 361.615511 72.263273 
L 362.412993 72.263273 
L 365.60292 70.342545 
L 366.400401 70.342545 
L 369.590328 68.421818 
L 370.38781 68.421818 
L 371.982774 67.461455 
L 372.780255 66.501091 
L 375.172701 65.060545 
L 375.970182 65.060545 
L 376.767664 64.580364 
L 377.565146 64.580364 
L 379.160109 63.62 
L 379.957591 62.659636 
L 380.755073 62.659636 
L 382.350036 61.699273 
L 383.945 61.699273 
L 384.742482 61.219091 
L 389.527372 61.219091 
L 390.324854 60.738909 
L 391.122336 61.219091 
L 391.919818 61.219091 
L 392.717299 60.738909 
L 400.692117 60.738909 
L 401.489599 61.219091 
L 402.28708 60.738909 
L 407.869453 60.738909 
L 408.666934 61.219091 
L 409.464416 60.738909 
L 411.856861 60.738909 
L 412.654343 61.219091 
L 413.451825 60.738909 
L 415.046788 60.738909 
L 415.84427 61.219091 
L 424.616569 61.219091 
L 425.414051 60.738909 
L 427.009015 60.738909 
L 427.806496 60.258727 
L 431.793905 60.258727 
L 432.591387 60.738909 
L 433.388869 60.738909 
L 434.18635 61.219091 
L 434.983832 61.219091 
L 435.781314 61.699273 
L 436.578796 61.699273 
L 438.173759 62.659636 
L 438.971241 62.659636 
L 439.768723 63.139818 
L 440.566204 63.139818 
L 441.363686 63.62 
L 444.553613 63.62 
L 445.351095 64.100182 
L 450.135985 64.100182 
L 450.933467 64.580364 
L 493.2 64.580364 
L 493.2 64.580364 
" clip-path="url(#p7be42f6b54)" style="fill: none; stroke: #1f77b4; stroke-width: 1.5; stroke-linecap: square"/>
   </g>
   <g id="line2d_13">
    <path d="M 56.18 63.62 
L 493.2 63.62 
" clip-path="url(#p7be42f6b54)" style="fill: none; stroke-dasharray: 2.96,1.28; stroke-dashoffset: 0; stroke: #808080; stroke-width: 0.8"/>
   </g>
   <g id="patch_3">
    <path d="M 56.18 116.44 
L 56.18 10.8 
" style="fill: none; stroke: #000000; stroke-width: 0.8; stroke-linejoin: miter; stroke-linecap: square"/>
   </g>
   <g id="patch_4">
    <path d="M 56.18 116.44 
L 493.2 116.44 
" style="fill: none; stroke: #000000; stroke-width: 0.8; stroke-linejoin: miter; stroke-linecap: square"/>
   </g>
  </g>
  <g id="axes_2">
   <g id="patch_5">
    <path d="M 56.18 264.04 
L 493.2 264.04 
L 493.2 158.4 
L 56.18 158.4 
z
" style="fill: #ffffff"/>
   </g>
   <g id="matplotlib.axis_3">
    <g id="xtick_7">
     <g id="line2d_14">
      <g>
       <use xlink:href="#m2614bf73f2" x="56.18" y="264.04" style="stroke: #000000; stroke-width: 0.8"/>
      </g>
     </g>
     <g id="text_14">
      <!-- 0 -->
      <g transform="translate(52.99875 278.638438) scale(0.1 -0.1)">
       <use xlink:href="#DejaVuSans-30"/>
      </g>
     </g>
    </g>
    <g id="xtick_8">
     <g id="line2d_15">
      <g>
       <use xlink:href="#m2614bf73f2" x="135.928175" y="264.04" style="stroke: #000000; stroke-width: 0.8"/>
      </g>
     </g>
     <g id="text_15">
      <!-- 1000 -->
      <g transform="translate(123.203175 278.638438) scale(0.1 -0.1)">
       <use xlink:href="#DejaVuSans-31"/>
       <use xlink:href="#DejaVuSans-30" x="63.623047"/>
       <use xlink:href="#DejaVuSans-30" x="127.246094"/>
       <use xlink:href="#DejaVuSans-30" x="190.869141"/>
      </g>
     </g>
    </g>
    <g id="xtick_9">
     <g id="line2d_16">
      <g>
       <use xlink:href="#m2614bf73f2" x="215.67635" y="264.04" style="stroke: #000000; stroke-width: 0.8"/>
      </g>
     </g>
     <g id="text_16">
      <!-- 2000 -->
      <g transform="translate(202.95135 278.638438) scale(0.1 -0.1)">
       <use xlink:href="#DejaVuSans-32"/>
       <use xlink:href="#DejaVuSans-30" x="63.623047"/>
       <use xlink:href="#DejaVuSans-30" x="127.246094"/>
       <use xlink:href="#DejaVuSans-30" x="190.869141"/>
      </g>
     </g>
    </g>
    <g id="xtick_10">
     <g id="line2d_17">
      <g>
       <use xlink:href="#m2614bf73f2" x="295.424526" y="264.04" style="stroke: #000000; stroke-width: 0.8"/>
      </g>
     </g>
     <g id="text_17">
      <!-- 3000 -->
      <g transform="translate(282.699526 278.638438) scale(0.1 -0.1)">
       <use xlink:href="#DejaVuSans-33"/>
       <use xlink:href="#DejaVuSans-30" x="63.623047"/>
       <use xlink:href="#DejaVuSans-30" x="127.246094"/>
       <use xlink:href="#DejaVuSans-30" x="190.869141"/>
      </g>
     </g>
    </g>
    <g id="xtick_11">
     <g id="line2d_18">
      <g>
       <use xlink:href="#m2614bf73f2" x="375.172701" y="264.04" style="stroke: #000000; stroke-width: 0.8"/>
      </g>
     </g>
     <g id="text_18">
      <!-- 4000 -->
      <g transform="translate(362.447701 278.638438) scale(0.1 -0.1)">
       <use xlink:href="#DejaVuSans-34"/>
       <use xlink:href="#DejaVuSans-30" x="63.623047"/>
       <use xlink:href="#DejaVuSans-30" x="127.246094"/>
       <use xlink:href="#DejaVuSans-30" x="190.869141"/>
      </g>
     </g>
    </g>
    <g id="xtick_12">
     <g id="line2d_19">
      <g>
       <use xlink:href="#m2614bf73f2" x="454.920876" y="264.04" style="stroke: #000000; stroke-width: 0.8"/>
      </g>
     </g>
     <g id="text_19">
      <!-- 5000 -->
      <g transform="translate(442.195876 278.638438) scale(0.1 -0.1)">
       <use xlink:href="#DejaVuSans-35"/>
       <use xlink:href="#DejaVuSans-30" x="63.623047"/>
       <use xlink:href="#DejaVuSans-30" x="127.246094"/>
       <use xlink:href="#DejaVuSans-30" x="190.869141"/>
      </g>
     </g>
    </g>
    <g id="text_20">
     <!-- Time (ms) -->
     <g transform="translate(249.490781 292.316563) scale(0.1 -0.1)">
      <use xlink:href="#DejaVuSans-54"/>
      <use xlink:href="#DejaVuSans-69" x="57.958984"/>
      <use xlink:href="#DejaVuSans-6d" x="85.742188"/>
      <use xlink:href="#DejaVuSans-65" x="183.154297"/>
      <use xlink:href="#DejaVuSans-20" x="244.677734"/>
      <use xlink:href="#DejaVuSans-28" x="276.464844"/>
      <use xlink:href="#DejaVuSans-6d" x="315.478516"/>
      <use xlink:href="#DejaVuSans-73" x="412.890625"/>
      <use xlink:href="#DejaVuSans-29" x="464.990234"/>
     </g>
    </g>
   </g>
   <g id="matplotlib.axis_4">
    <g id="ytick_6">
     <g id="line2d_20">
      <g>
       <use xlink:href="#m3468a28566" x="56.18" y="259.238182" style="stroke: #000000; stroke-width: 0.8"/>
      </g>
     </g>
     <g id="text_21">
      <!-- −1.0 -->
      <g transform="translate(24.897188 263.037401) scale(0.1 -0.1)">
       <use xlink:href="#DejaVuSans-2212"/>
       <use xlink:href="#DejaVuSans-31" x="83.789062"/>
       <use xlink:href="#DejaVuSans-2e" x="147.412109"/>
       <use xlink:href="#DejaVuSans-30" x="179.199219"/>
      </g>
     </g>
    </g>
    <g id="ytick_7">
     <g id="line2d_21">
      <g>
       <use xlink:href="#m3468a28566" x="56.18" y="235.229091" style="stroke: #000000; stroke-width: 0.8"/>
      </g>
     </g>
     <g id="text_22">
      <!-- −0.5 -->
      <g transform="translate(24.897188 239.02831) scale(0.1 -0.1)">
       <use xlink:href="#DejaVuSans-2212"/>
       <use xlink:href="#DejaVuSans-30" x="83.789062"/>
       <use xlink:href="#DejaVuSans-2e" x="147.412109"/>
       <use xlink:href="#DejaVuSans-35" x="179.199219"/>
      </g>
     </g>
    </g>
    <g id="ytick_8">
     <g id="line2d_22">
      <g>
       <use xlink:href="#m3468a28566" x="56.18" y="211.22" style="stroke: #000000; stroke-width: 0.8"/>
      </g>
     </g>
     <g id="text_23">
      <!-- 0.0 -->
      <g transform="translate(33.276875 215.019219) scale(0.1 -0.1)">
       <use xlink:href="#DejaVuSans-30"/>
       <use xlink:href="#DejaVuSans-2e" x="63.623047"/>
       <use xlink:href="#DejaVuSans-30" x="95.410156"/>
      </g>
     </g>
    </g>
    <g id="ytick_9">
     <g id="line2d_23">
      <g>
       <use xlink:href="#m3468a28566" x="56.18" y="187.210909" style="stroke: #000000; stroke-width: 0.8"/>
      </g>
     </g>
     <g id="text_24">
      <!-- 0.5 -->
      <g transform="translate(33.276875 191.010128) scale(0.1 -0.1)">
       <use xlink:href="#DejaVuSans-30"/>
       <use xlink:href="#DejaVuSans-2e" x="63.623047"/>
       <use xlink:href="#DejaVuSans-35" x="95.410156"/>
      </g>
     </g>
    </g>
    <g id="ytick_10">
     <g id="line2d_24">
      <g>
       <use xlink:href="#m3468a28566" x="56.18" y="163.201818" style="stroke: #000000; stroke-width: 0.8"/>
      </g>
     </g>
     <g id="text_25">
      <!-- 1.0 -->
      <g transform="translate(33.276875 167.001037) scale(0.1 -0.1)">
       <use xlink:href="#DejaVuSans-31"/>
       <use xlink:href="#DejaVuSans-2e" x="63.623047"/>
       <use xlink:href="#DejaVuSans-30" x="95.410156"/>
      </g>
     </g>
    </g>
    <g id="text_26">
     <!-- Y-Axis Value -->
     <g transform="translate(18.8175 241.065313) rotate(-90) scale(0.1 -0.1)">
      <defs>
       <path id="DejaVuSans-59" d="M -13 4666 
L 666 4666 
L 1959 2747 
L 3244 4666 
L 3922 4666 
L 2272 2222 
L 2272 0 
L 1638 0 
L 1638 2222 
L -13 4666 
z
" transform="scale(0.015625)"/>
      </defs>
      <use xlink:href="#DejaVuSans-59"/>
      <use xlink:href="#DejaVuSans-2d" x="49.208984"/>
      <use xlink:href="#DejaVuSans-41" x="83.042969"/>
      <use xlink:href="#DejaVuSans-78" x="151.451172"/>
      <use xlink:href="#DejaVuSans-69" x="210.630859"/>
      <use xlink:href="#DejaVuSans-73" x="238.414062"/>
      <use xlink:href="#DejaVuSans-20" x="290.513672"/>
      <use xlink:href="#DejaVuSans-56" x="322.300781"/>
      <use xlink:href="#DejaVuSans-61" x="382.958984"/>
      <use xlink:href="#DejaVuSans-6c" x="444.238281"/>
      <use xlink:href="#DejaVuSans-75" x="472.021484"/>
      <use xlink:href="#DejaVuSans-65" x="535.400391"/>
     </g>
    </g>
   </g>
   <g id="line2d_25">
    <path d="M 56.18 206.418182 
L 56.977482 205.938 
L 57.774964 206.418182 
L 59.369927 206.418182 
L 60.167409 205.938 
L 60.964891 206.418182 
L 63.357336 206.418182 
L 64.154818 205.938 
L 64.952299 206.418182 
L 74.52208 206.418182 
L 75.319562 205.938 
L 78.509489 205.938 
L 79.306971 205.457818 
L 80.104453 205.457818 
L 80.901934 204.977636 
L 83.29438 204.977636 
L 84.091861 204.497455 
L 85.686825 204.497455 
L 86.484307 204.017273 
L 87.281788 204.017273 
L 92.864161 200.656 
L 93.661642 199.695636 
L 94.459124 199.215455 
L 95.256606 198.255091 
L 96.054088 197.774909 
L 96.851569 196.814545 
L 97.649051 196.334364 
L 98.446533 195.374 
L 99.244015 194.893818 
L 102.433942 191.052364 
L 103.231423 190.572182 
L 104.826387 188.651455 
L 105.623869 188.171273 
L 106.42135 187.210909 
L 108.016314 186.250545 
L 108.813796 186.250545 
L 109.611277 186.730727 
L 112.801204 186.730727 
L 113.598686 187.210909 
L 119.97854 187.210909 
L 120.776022 187.691091 
L 121.573504 187.210909 
L 122.370985 187.210909 
L 123.168467 186.730727 
L 124.763431 186.730727 
L 125.560912 187.210909 
L 126.358394 186.730727 
L 163.042555 186.730727 
L 163.840036 187.210909 
L 167.029964 187.210909 
L 167.827445 187.691091 
L 169.422409 187.691091 
L 170.219891 188.171273 
L 171.017372 188.171273 
L 171.814854 188.651455 
L 174.207299 188.651455 
L 175.004781 189.131636 
L 177.397226 189.131636 
L 178.194708 188.651455 
L 178.99219 189.131636 
L 179.789672 188.651455 
L 180.587153 188.651455 
L 181.384635 188.171273 
L 186.967007 188.171273 
L 187.764489 188.651455 
L 189.359453 188.651455 
L 190.954416 189.611818 
L 191.751898 189.611818 
L 192.54938 190.572182 
L 193.346861 190.572182 
L 194.144343 191.532545 
L 195.739307 192.492909 
L 196.536788 193.453273 
L 197.33427 193.453273 
L 203.714124 197.294727 
L 204.511606 198.255091 
L 205.309088 198.255091 
L 206.904051 200.175818 
L 207.701533 200.656 
L 208.499015 201.616364 
L 210.093978 202.576727 
L 210.89146 202.576727 
L 211.688942 203.056909 
L 212.486423 203.056909 
L 214.878869 204.497455 
L 215.67635 204.497455 
L 221.258723 207.858727 
L 222.056204 208.819091 
L 226.043613 211.22 
L 226.841095 212.180364 
L 230.031022 214.101091 
L 230.828504 215.061455 
L 231.625985 215.541636 
L 232.423467 216.502 
L 233.220949 216.982182 
L 234.815912 218.902909 
L 235.613394 219.383091 
L 236.410876 220.343455 
L 239.600803 222.264182 
L 240.398285 222.264182 
L 241.993248 223.224545 
L 244.385693 223.224545 
L 245.183175 223.704727 
L 248.373102 223.704727 
L 249.170584 224.184909 
L 252.360511 224.184909 
L 253.157993 224.665091 
L 257.145401 224.665091 
L 257.942883 225.145273 
L 258.740365 225.145273 
L 259.537847 225.625455 
L 260.335328 226.585818 
L 261.13281 226.585818 
L 261.930292 227.066 
L 280.272372 227.066 
L 281.069854 226.585818 
L 285.057263 226.585818 
L 285.854745 226.105636 
L 286.652226 226.585818 
L 287.449708 226.105636 
L 289.842153 226.105636 
L 290.639635 225.625455 
L 291.437117 225.625455 
L 292.234599 225.145273 
L 293.03208 225.625455 
L 294.627044 225.625455 
L 297.816971 223.704727 
L 299.411934 223.704727 
L 300.209416 222.744364 
L 301.006898 222.744364 
L 302.601861 221.784 
L 303.399343 220.823636 
L 304.994307 219.863273 
L 307.386752 216.982182 
L 308.184234 216.502 
L 308.981715 215.541636 
L 309.779197 215.061455 
L 310.576679 214.101091 
L 311.374161 213.620909 
L 312.171642 212.660545 
L 312.969124 212.180364 
L 313.766606 211.22 
L 315.361569 210.259636 
L 316.159051 210.259636 
L 320.14646 207.858727 
L 320.943942 206.898364 
L 321.741423 206.418182 
L 322.538905 206.418182 
L 323.336387 205.457818 
L 326.526314 203.537091 
L 327.323796 202.576727 
L 332.108686 199.695636 
L 332.906168 198.735273 
L 334.501131 197.774909 
L 335.298613 196.814545 
L 336.096095 196.334364 
L 341.678467 189.611818 
L 344.070912 189.611818 
L 344.868394 189.131636 
L 347.260839 189.131636 
L 348.058321 188.651455 
L 352.04573 188.651455 
L 352.843212 188.171273 
L 353.640693 188.651455 
L 354.438175 188.171273 
L 355.235657 188.651455 
L 360.818029 188.651455 
L 361.615511 188.171273 
L 364.007956 188.171273 
L 364.805438 187.691091 
L 366.400401 187.691091 
L 367.197883 187.210909 
L 371.185292 187.210909 
L 371.982774 186.730727 
L 375.172701 186.730727 
L 375.970182 186.250545 
L 379.160109 186.250545 
L 379.957591 185.770364 
L 380.755073 185.770364 
L 381.552555 186.250545 
L 382.350036 185.770364 
L 383.147518 185.770364 
L 383.945 186.250545 
L 384.742482 185.770364 
L 386.337445 185.770364 
L 387.134927 186.250545 
L 389.527372 186.250545 
L 390.324854 185.770364 
L 391.122336 185.770364 
L 391.919818 186.250545 
L 392.717299 185.770364 
L 408.666934 185.770364 
L 409.464416 185.290182 
L 411.856861 185.290182 
L 412.654343 184.81 
L 415.84427 184.81 
L 416.641752 184.329818 
L 419.831679 184.329818 
L 420.629161 183.849636 
L 421.426642 184.329818 
L 422.224124 183.849636 
L 423.021606 184.329818 
L 424.616569 184.329818 
L 425.414051 184.81 
L 426.211533 185.770364 
L 427.009015 186.250545 
L 427.806496 187.691091 
L 428.603978 188.171273 
L 429.40146 189.131636 
L 430.198942 189.611818 
L 430.996423 190.572182 
L 431.793905 191.052364 
L 432.591387 192.012727 
L 433.388869 192.492909 
L 434.18635 193.453273 
L 434.983832 193.933455 
L 435.781314 194.893818 
L 436.578796 196.334364 
L 442.161168 203.056909 
L 442.95865 203.537091 
L 443.756131 204.497455 
L 445.351095 205.457818 
L 446.148577 205.457818 
L 446.946058 205.938 
L 463.693175 205.938 
L 464.490657 206.418182 
L 469.275547 206.418182 
L 470.073029 205.938 
L 470.870511 206.418182 
L 471.667993 205.938 
L 472.465474 206.418182 
L 474.85792 206.418182 
L 475.655401 205.938 
L 477.250365 205.938 
L 478.047847 206.418182 
L 493.2 206.418182 
L 493.2 206.418182 
" clip-path="url(#p815369ac14)" style="fill: none; stroke: #1f77b4; stroke-width: 1.5; stroke-linecap: square"/>
   </g>
   <g id="line2d_26">
    <path d="M 56.18 211.22 
L 493.2 211.22 
" clip-path="url(#p815369ac14)" style="fill: none; stroke-dasharray: 2.96,1.28; stroke-dashoffset: 0; stroke: #808080; stroke-width: 0.8"/>
   </g>
   <g id="patch_6">
    <path d="M 56.18 264.04 
L 56.18 158.4 
" style="fill: none; stroke: #000000; stroke-width: 0.8; stroke-linejoin: miter; stroke-linecap: square"/>
   </g>
   <g id="patch_7">
    <path d="M 56.18 264.04 
L 493.2 264.04 
" style="fill: none; stroke: #000000; stroke-width: 0.8; stroke-linejoin: miter; stroke-linecap: square"/>
   </g>
  </g>
 </g>
 <defs>
  <clipPath id="p7be42f6b54">
   <rect x="56.18" y="10.8" width="437.02" height="105.64"/>
  </clipPath>
  <clipPath id="p815369ac14">
   <rect x="56.18" y="158.4" width="437.02" height="105.64"/>
  </clipPath>
 </defs>
</svg>
