<?xml version="1.0" encoding="utf-8" standalone="no"?>
<!DOCTYPE svg PUBLIC "-//W3C//DTD SVG 1.1//EN"
  "http://www.w3.org/Graphics/SVG/1.1/DTD/svg11.dtd">
<svg xmlns:xlink="http://www.w3.org/1999/xlink" width="504pt" height="306pt" viewBox="0 0 504 306" xmlns="http://www.w3.org/2000/svg" version="1.1">
 <metadata>
  <rdf:RDF xmlns:dc="http://purl.org/dc/elements/1.1/" xmlns:cc="http://creativecommons.org/ns#" xmlns:rdf="http://www.w3.org/1999/02/22-rdf-syntax-ns#">
   <cc:Work>
    <dc:type rdf:resource="http://purl.org/dc/dcmitype/StillImage"/>
    <dc:date>2024-06-16T21:02:23.180624</dc:date>
    <dc:format>image/svg+xml</dc:format>
    <dc:creator>
     <cc:Agent>
      <dc:title>Matplotlib v3.8.3, https://matplotlib.org/</dc:title>
     </cc:Agent>
    </dc:creator>
   </cc:Work>
  </rdf:RDF>
 </metadata>
 <defs>
  <style type="text/css">*{stroke-linejoin: round; stroke-linecap: butt}</style>
 </defs>
 <g id="figure_1">
  <g id="patch_1">
   <path d="M 0 306 
L 504 306 
L 504 0 
L 0 0 
z
" style="fill: #ffffff"/>
  </g>
  <g id="axes_1">
   <g id="patch_2">
    <path d="M 56.18 116.44 
L 493.2 116.44 
L 493.2 10.8 
L 56.18 10.8 
z
" style="fill: #ffffff"/>
   </g>
   <g id="matplotlib.axis_1">
    <g id="xtick_1">
     <g id="line2d_1">
      <defs>
       <path id="m7f0059ad23" d="M 0 0 
L 0 3.5 
" style="stroke: #000000; stroke-width: 0.8"/>
      </defs>
      <g>
       <use xlink:href="#m7f0059ad23" x="56.18" y="116.44" style="stroke: #000000; stroke-width: 0.8"/>
      </g>
     </g>
     <g id="text_1">
      <!-- 0 -->
      <g transform="translate(52.99875 131.038437) scale(0.1 -0.1)">
       <defs>
        <path id="DejaVuSans-30" d="M 2034 4250 
Q 1547 4250 1301 3770 
Q 1056 3291 1056 2328 
Q 1056 1369 1301 889 
Q 1547 409 2034 409 
Q 2525 409 2770 889 
Q 3016 1369 3016 2328 
Q 3016 3291 2770 3770 
Q 2525 4250 2034 4250 
z
M 2034 4750 
Q 2819 4750 3233 4129 
Q 3647 3509 3647 2328 
Q 3647 1150 3233 529 
Q 2819 -91 2034 -91 
Q 1250 -91 836 529 
Q 422 1150 422 2328 
Q 422 3509 836 4129 
Q 1250 4750 2034 4750 
z
" transform="scale(0.015625)"/>
       </defs>
       <use xlink:href="#DejaVuSans-30"/>
      </g>
     </g>
    </g>
    <g id="xtick_2">
     <g id="line2d_2">
      <g>
       <use xlink:href="#m7f0059ad23" x="145.295008" y="116.44" style="stroke: #000000; stroke-width: 0.8"/>
      </g>
     </g>
     <g id="text_2">
      <!-- 5000 -->
      <g transform="translate(132.570008 131.038437) scale(0.1 -0.1)">
       <defs>
        <path id="DejaVuSans-35" d="M 691 4666 
L 3169 4666 
L 3169 4134 
L 1269 4134 
L 1269 2991 
Q 1406 3038 1543 3061 
Q 1681 3084 1819 3084 
Q 2600 3084 3056 2656 
Q 3513 2228 3513 1497 
Q 3513 744 3044 326 
Q 2575 -91 1722 -91 
Q 1428 -91 1123 -41 
Q 819 9 494 109 
L 494 744 
Q 775 591 1075 516 
Q 1375 441 1709 441 
Q 2250 441 2565 725 
Q 2881 1009 2881 1497 
Q 2881 1984 2565 2268 
Q 2250 2553 1709 2553 
Q 1456 2553 1204 2497 
Q 953 2441 691 2322 
L 691 4666 
z
" transform="scale(0.015625)"/>
       </defs>
       <use xlink:href="#DejaVuSans-35"/>
       <use xlink:href="#DejaVuSans-30" x="63.623047"/>
       <use xlink:href="#DejaVuSans-30" x="127.246094"/>
       <use xlink:href="#DejaVuSans-30" x="190.869141"/>
      </g>
     </g>
    </g>
    <g id="xtick_3">
     <g id="line2d_3">
      <g>
       <use xlink:href="#m7f0059ad23" x="234.410016" y="116.44" style="stroke: #000000; stroke-width: 0.8"/>
      </g>
     </g>
     <g id="text_3">
      <!-- 10000 -->
      <g transform="translate(218.503766 131.038437) scale(0.1 -0.1)">
       <defs>
        <path id="DejaVuSans-31" d="M 794 531 
L 1825 531 
L 1825 4091 
L 703 3866 
L 703 4441 
L 1819 4666 
L 2450 4666 
L 2450 531 
L 3481 531 
L 3481 0 
L 794 0 
L 794 531 
z
" transform="scale(0.015625)"/>
       </defs>
       <use xlink:href="#DejaVuSans-31"/>
       <use xlink:href="#DejaVuSans-30" x="63.623047"/>
       <use xlink:href="#DejaVuSans-30" x="127.246094"/>
       <use xlink:href="#DejaVuSans-30" x="190.869141"/>
       <use xlink:href="#DejaVuSans-30" x="254.492188"/>
      </g>
     </g>
    </g>
    <g id="xtick_4">
     <g id="line2d_4">
      <g>
       <use xlink:href="#m7f0059ad23" x="323.525024" y="116.44" style="stroke: #000000; stroke-width: 0.8"/>
      </g>
     </g>
     <g id="text_4">
      <!-- 15000 -->
      <g transform="translate(307.618774 131.038437) scale(0.1 -0.1)">
       <use xlink:href="#DejaVuSans-31"/>
       <use xlink:href="#DejaVuSans-35" x="63.623047"/>
       <use xlink:href="#DejaVuSans-30" x="127.246094"/>
       <use xlink:href="#DejaVuSans-30" x="190.869141"/>
       <use xlink:href="#DejaVuSans-30" x="254.492188"/>
      </g>
     </g>
    </g>
    <g id="xtick_5">
     <g id="line2d_5">
      <g>
       <use xlink:href="#m7f0059ad23" x="412.640033" y="116.44" style="stroke: #000000; stroke-width: 0.8"/>
      </g>
     </g>
     <g id="text_5">
      <!-- 20000 -->
      <g transform="translate(396.733783 131.038437) scale(0.1 -0.1)">
       <defs>
        <path id="DejaVuSans-32" d="M 1228 531 
L 3431 531 
L 3431 0 
L 469 0 
L 469 531 
Q 828 903 1448 1529 
Q 2069 2156 2228 2338 
Q 2531 2678 2651 2914 
Q 2772 3150 2772 3378 
Q 2772 3750 2511 3984 
Q 2250 4219 1831 4219 
Q 1534 4219 1204 4116 
Q 875 4013 500 3803 
L 500 4441 
Q 881 4594 1212 4672 
Q 1544 4750 1819 4750 
Q 2544 4750 2975 4387 
Q 3406 4025 3406 3419 
Q 3406 3131 3298 2873 
Q 3191 2616 2906 2266 
Q 2828 2175 2409 1742 
Q 1991 1309 1228 531 
z
" transform="scale(0.015625)"/>
       </defs>
       <use xlink:href="#DejaVuSans-32"/>
       <use xlink:href="#DejaVuSans-30" x="63.623047"/>
       <use xlink:href="#DejaVuSans-30" x="127.246094"/>
       <use xlink:href="#DejaVuSans-30" x="190.869141"/>
       <use xlink:href="#DejaVuSans-30" x="254.492188"/>
      </g>
     </g>
    </g>
    <g id="text_6">
     <!-- Time (ms) -->
     <g transform="translate(249.490781 144.716562) scale(0.1 -0.1)">
      <defs>
       <path id="DejaVuSans-54" d="M -19 4666 
L 3928 4666 
L 3928 4134 
L 2272 4134 
L 2272 0 
L 1638 0 
L 1638 4134 
L -19 4134 
L -19 4666 
z
" transform="scale(0.015625)"/>
       <path id="DejaVuSans-69" d="M 603 3500 
L 1178 3500 
L 1178 0 
L 603 0 
L 603 3500 
z
M 603 4863 
L 1178 4863 
L 1178 4134 
L 603 4134 
L 603 4863 
z
" transform="scale(0.015625)"/>
       <path id="DejaVuSans-6d" d="M 3328 2828 
Q 3544 3216 3844 3400 
Q 4144 3584 4550 3584 
Q 5097 3584 5394 3201 
Q 5691 2819 5691 2113 
L 5691 0 
L 5113 0 
L 5113 2094 
Q 5113 2597 4934 2840 
Q 4756 3084 4391 3084 
Q 3944 3084 3684 2787 
Q 3425 2491 3425 1978 
L 3425 0 
L 2847 0 
L 2847 2094 
Q 2847 2600 2669 2842 
Q 2491 3084 2119 3084 
Q 1678 3084 1418 2786 
Q 1159 2488 1159 1978 
L 1159 0 
L 581 0 
L 581 3500 
L 1159 3500 
L 1159 2956 
Q 1356 3278 1631 3431 
Q 1906 3584 2284 3584 
Q 2666 3584 2933 3390 
Q 3200 3197 3328 2828 
z
" transform="scale(0.015625)"/>
       <path id="DejaVuSans-65" d="M 3597 1894 
L 3597 1613 
L 953 1613 
Q 991 1019 1311 708 
Q 1631 397 2203 397 
Q 2534 397 2845 478 
Q 3156 559 3463 722 
L 3463 178 
Q 3153 47 2828 -22 
Q 2503 -91 2169 -91 
Q 1331 -91 842 396 
Q 353 884 353 1716 
Q 353 2575 817 3079 
Q 1281 3584 2069 3584 
Q 2775 3584 3186 3129 
Q 3597 2675 3597 1894 
z
M 3022 2063 
Q 3016 2534 2758 2815 
Q 2500 3097 2075 3097 
Q 1594 3097 1305 2825 
Q 1016 2553 972 2059 
L 3022 2063 
z
" transform="scale(0.015625)"/>
       <path id="DejaVuSans-20" transform="scale(0.015625)"/>
       <path id="DejaVuSans-28" d="M 1984 4856 
Q 1566 4138 1362 3434 
Q 1159 2731 1159 2009 
Q 1159 1288 1364 580 
Q 1569 -128 1984 -844 
L 1484 -844 
Q 1016 -109 783 600 
Q 550 1309 550 2009 
Q 550 2706 781 3412 
Q 1013 4119 1484 4856 
L 1984 4856 
z
" transform="scale(0.015625)"/>
       <path id="DejaVuSans-73" d="M 2834 3397 
L 2834 2853 
Q 2591 2978 2328 3040 
Q 2066 3103 1784 3103 
Q 1356 3103 1142 2972 
Q 928 2841 928 2578 
Q 928 2378 1081 2264 
Q 1234 2150 1697 2047 
L 1894 2003 
Q 2506 1872 2764 1633 
Q 3022 1394 3022 966 
Q 3022 478 2636 193 
Q 2250 -91 1575 -91 
Q 1294 -91 989 -36 
Q 684 19 347 128 
L 347 722 
Q 666 556 975 473 
Q 1284 391 1588 391 
Q 1994 391 2212 530 
Q 2431 669 2431 922 
Q 2431 1156 2273 1281 
Q 2116 1406 1581 1522 
L 1381 1569 
Q 847 1681 609 1914 
Q 372 2147 372 2553 
Q 372 3047 722 3315 
Q 1072 3584 1716 3584 
Q 2034 3584 2315 3537 
Q 2597 3491 2834 3397 
z
" transform="scale(0.015625)"/>
       <path id="DejaVuSans-29" d="M 513 4856 
L 1013 4856 
Q 1481 4119 1714 3412 
Q 1947 2706 1947 2009 
Q 1947 1309 1714 600 
Q 1481 -109 1013 -844 
L 513 -844 
Q 928 -128 1133 580 
Q 1338 1288 1338 2009 
Q 1338 2731 1133 3434 
Q 928 4138 513 4856 
z
" transform="scale(0.015625)"/>
      </defs>
      <use xlink:href="#DejaVuSans-54"/>
      <use xlink:href="#DejaVuSans-69" x="57.958984"/>
      <use xlink:href="#DejaVuSans-6d" x="85.742188"/>
      <use xlink:href="#DejaVuSans-65" x="183.154297"/>
      <use xlink:href="#DejaVuSans-20" x="244.677734"/>
      <use xlink:href="#DejaVuSans-28" x="276.464844"/>
      <use xlink:href="#DejaVuSans-6d" x="315.478516"/>
      <use xlink:href="#DejaVuSans-73" x="412.890625"/>
      <use xlink:href="#DejaVuSans-29" x="464.990234"/>
     </g>
    </g>
   </g>
   <g id="matplotlib.axis_2">
    <g id="ytick_1">
     <g id="line2d_6">
      <defs>
       <path id="m0d7c8efe8d" d="M 0 0 
L -3.5 0 
" style="stroke: #000000; stroke-width: 0.8"/>
      </defs>
      <g>
       <use xlink:href="#m0d7c8efe8d" x="56.18" y="111.638182" style="stroke: #000000; stroke-width: 0.8"/>
      </g>
     </g>
     <g id="text_7">
      <!-- −1.0 -->
      <g transform="translate(24.897188 115.437401) scale(0.1 -0.1)">
       <defs>
        <path id="DejaVuSans-2212" d="M 678 2272 
L 4684 2272 
L 4684 1741 
L 678 1741 
L 678 2272 
z
" transform="scale(0.015625)"/>
        <path id="DejaVuSans-2e" d="M 684 794 
L 1344 794 
L 1344 0 
L 684 0 
L 684 794 
z
" transform="scale(0.015625)"/>
       </defs>
       <use xlink:href="#DejaVuSans-2212"/>
       <use xlink:href="#DejaVuSans-31" x="83.789062"/>
       <use xlink:href="#DejaVuSans-2e" x="147.412109"/>
       <use xlink:href="#DejaVuSans-30" x="179.199219"/>
      </g>
     </g>
    </g>
    <g id="ytick_2">
     <g id="line2d_7">
      <g>
       <use xlink:href="#m0d7c8efe8d" x="56.18" y="87.629091" style="stroke: #000000; stroke-width: 0.8"/>
      </g>
     </g>
     <g id="text_8">
      <!-- −0.5 -->
      <g transform="translate(24.897188 91.42831) scale(0.1 -0.1)">
       <use xlink:href="#DejaVuSans-2212"/>
       <use xlink:href="#DejaVuSans-30" x="83.789062"/>
       <use xlink:href="#DejaVuSans-2e" x="147.412109"/>
       <use xlink:href="#DejaVuSans-35" x="179.199219"/>
      </g>
     </g>
    </g>
    <g id="ytick_3">
     <g id="line2d_8">
      <g>
       <use xlink:href="#m0d7c8efe8d" x="56.18" y="63.62" style="stroke: #000000; stroke-width: 0.8"/>
      </g>
     </g>
     <g id="text_9">
      <!-- 0.0 -->
      <g transform="translate(33.276875 67.419219) scale(0.1 -0.1)">
       <use xlink:href="#DejaVuSans-30"/>
       <use xlink:href="#DejaVuSans-2e" x="63.623047"/>
       <use xlink:href="#DejaVuSans-30" x="95.410156"/>
      </g>
     </g>
    </g>
    <g id="ytick_4">
     <g id="line2d_9">
      <g>
       <use xlink:href="#m0d7c8efe8d" x="56.18" y="39.610909" style="stroke: #000000; stroke-width: 0.8"/>
      </g>
     </g>
     <g id="text_10">
      <!-- 0.5 -->
      <g transform="translate(33.276875 43.410128) scale(0.1 -0.1)">
       <use xlink:href="#DejaVuSans-30"/>
       <use xlink:href="#DejaVuSans-2e" x="63.623047"/>
       <use xlink:href="#DejaVuSans-35" x="95.410156"/>
      </g>
     </g>
    </g>
    <g id="ytick_5">
     <g id="line2d_10">
      <g>
       <use xlink:href="#m0d7c8efe8d" x="56.18" y="15.601818" style="stroke: #000000; stroke-width: 0.8"/>
      </g>
     </g>
     <g id="text_11">
      <!-- 1.0 -->
      <g transform="translate(33.276875 19.401037) scale(0.1 -0.1)">
       <use xlink:href="#DejaVuSans-31"/>
       <use xlink:href="#DejaVuSans-2e" x="63.623047"/>
       <use xlink:href="#DejaVuSans-30" x="95.410156"/>
      </g>
     </g>
    </g>
    <g id="text_12">
     <!-- X-Axis Value -->
     <g transform="translate(18.8175 94.180156) rotate(-90) scale(0.1 -0.1)">
      <defs>
       <path id="DejaVuSans-58" d="M 403 4666 
L 1081 4666 
L 2241 2931 
L 3406 4666 
L 4084 4666 
L 2584 2425 
L 4184 0 
L 3506 0 
L 2194 1984 
L 872 0 
L 191 0 
L 1856 2491 
L 403 4666 
z
" transform="scale(0.015625)"/>
       <path id="DejaVuSans-2d" d="M 313 2009 
L 1997 2009 
L 1997 1497 
L 313 1497 
L 313 2009 
z
" transform="scale(0.015625)"/>
       <path id="DejaVuSans-41" d="M 2188 4044 
L 1331 1722 
L 3047 1722 
L 2188 4044 
z
M 1831 4666 
L 2547 4666 
L 4325 0 
L 3669 0 
L 3244 1197 
L 1141 1197 
L 716 0 
L 50 0 
L 1831 4666 
z
" transform="scale(0.015625)"/>
       <path id="DejaVuSans-78" d="M 3513 3500 
L 2247 1797 
L 3578 0 
L 2900 0 
L 1881 1375 
L 863 0 
L 184 0 
L 1544 1831 
L 300 3500 
L 978 3500 
L 1906 2253 
L 2834 3500 
L 3513 3500 
z
" transform="scale(0.015625)"/>
       <path id="DejaVuSans-56" d="M 1831 0 
L 50 4666 
L 709 4666 
L 2188 738 
L 3669 4666 
L 4325 4666 
L 2547 0 
L 1831 0 
z
" transform="scale(0.015625)"/>
       <path id="DejaVuSans-61" d="M 2194 1759 
Q 1497 1759 1228 1600 
Q 959 1441 959 1056 
Q 959 750 1161 570 
Q 1363 391 1709 391 
Q 2188 391 2477 730 
Q 2766 1069 2766 1631 
L 2766 1759 
L 2194 1759 
z
M 3341 1997 
L 3341 0 
L 2766 0 
L 2766 531 
Q 2569 213 2275 61 
Q 1981 -91 1556 -91 
Q 1019 -91 701 211 
Q 384 513 384 1019 
Q 384 1609 779 1909 
Q 1175 2209 1959 2209 
L 2766 2209 
L 2766 2266 
Q 2766 2663 2505 2880 
Q 2244 3097 1772 3097 
Q 1472 3097 1187 3025 
Q 903 2953 641 2809 
L 641 3341 
Q 956 3463 1253 3523 
Q 1550 3584 1831 3584 
Q 2591 3584 2966 3190 
Q 3341 2797 3341 1997 
z
" transform="scale(0.015625)"/>
       <path id="DejaVuSans-6c" d="M 603 4863 
L 1178 4863 
L 1178 0 
L 603 0 
L 603 4863 
z
" transform="scale(0.015625)"/>
       <path id="DejaVuSans-75" d="M 544 1381 
L 544 3500 
L 1119 3500 
L 1119 1403 
Q 1119 906 1312 657 
Q 1506 409 1894 409 
Q 2359 409 2629 706 
Q 2900 1003 2900 1516 
L 2900 3500 
L 3475 3500 
L 3475 0 
L 2900 0 
L 2900 538 
Q 2691 219 2414 64 
Q 2138 -91 1772 -91 
Q 1169 -91 856 284 
Q 544 659 544 1381 
z
M 1991 3584 
L 1991 3584 
z
" transform="scale(0.015625)"/>
      </defs>
      <use xlink:href="#DejaVuSans-58"/>
      <use xlink:href="#DejaVuSans-2d" x="63.505859"/>
      <use xlink:href="#DejaVuSans-41" x="97.339844"/>
      <use xlink:href="#DejaVuSans-78" x="165.748047"/>
      <use xlink:href="#DejaVuSans-69" x="224.927734"/>
      <use xlink:href="#DejaVuSans-73" x="252.710938"/>
      <use xlink:href="#DejaVuSans-20" x="304.810547"/>
      <use xlink:href="#DejaVuSans-56" x="336.597656"/>
      <use xlink:href="#DejaVuSans-61" x="397.255859"/>
      <use xlink:href="#DejaVuSans-6c" x="458.535156"/>
      <use xlink:href="#DejaVuSans-75" x="486.318359"/>
      <use xlink:href="#DejaVuSans-65" x="549.697266"/>
     </g>
    </g>
   </g>
   <g id="line2d_11">
    <path d="M 56.18 62.659636 
L 60.81398 62.659636 
L 60.99221 63.139818 
L 61.17044 62.659636 
L 62.418051 62.659636 
L 62.596281 63.139818 
L 63.309201 63.139818 
L 63.487431 62.659636 
L 65.804421 62.659636 
L 65.982651 63.139818 
L 66.160881 62.659636 
L 66.517341 62.659636 
L 66.695571 63.139818 
L 68.477871 63.139818 
L 68.656101 63.62 
L 68.834331 63.139818 
L 69.012561 63.62 
L 70.081941 63.62 
L 70.260171 63.139818 
L 71.864241 63.139818 
L 72.042471 63.62 
L 72.220701 63.139818 
L 72.933622 63.139818 
L 73.111852 63.62 
L 73.290082 63.139818 
L 77.211142 63.139818 
L 77.567602 62.179455 
L 78.102292 62.179455 
L 78.280522 61.699273 
L 79.171672 61.699273 
L 79.349902 62.179455 
L 85.587953 62.179455 
L 85.766183 61.699273 
L 85.944413 62.179455 
L 101.628654 62.179455 
L 101.806884 61.699273 
L 103.054494 61.699273 
L 103.232724 62.179455 
L 103.410954 61.699273 
L 103.589184 62.179455 
L 104.302104 62.179455 
L 104.480334 62.659636 
L 105.727945 62.659636 
L 105.906175 63.139818 
L 106.797325 63.139818 
L 106.975555 62.659636 
L 107.153785 63.139818 
L 107.332015 62.659636 
L 107.510245 63.139818 
L 107.688475 63.139818 
L 107.866705 62.659636 
L 108.401395 62.659636 
L 108.579625 63.139818 
L 108.757855 62.659636 
L 108.936085 62.659636 
L 109.114315 63.139818 
L 109.292545 62.659636 
L 109.470775 63.139818 
L 109.649005 62.659636 
L 109.827235 63.139818 
L 110.005465 62.659636 
L 111.074845 62.659636 
L 111.253075 63.139818 
L 111.431305 62.659636 
L 111.965995 62.659636 
L 112.144225 63.139818 
L 112.322455 62.659636 
L 112.857145 62.659636 
L 113.035375 63.139818 
L 113.213605 62.659636 
L 117.134666 62.659636 
L 117.312896 63.139818 
L 117.847586 63.139818 
L 118.025816 62.659636 
L 118.382276 62.659636 
L 118.560506 63.139818 
L 118.738736 63.139818 
L 118.916966 62.659636 
L 119.095196 63.139818 
L 119.629886 63.139818 
L 119.808116 63.62 
L 119.986346 63.62 
L 120.164576 63.139818 
L 120.342806 63.139818 
L 120.699266 62.179455 
L 120.877496 62.179455 
L 121.055726 61.699273 
L 121.233956 61.699273 
L 121.412186 61.219091 
L 121.590416 61.219091 
L 122.303336 59.298364 
L 122.838026 54.976727 
L 123.194486 51.135273 
L 123.907406 45.853273 
L 124.085636 45.373091 
L 129.254307 45.373091 
L 129.432537 45.853273 
L 129.610767 45.853273 
L 129.788997 45.373091 
L 129.967227 45.853273 
L 130.145457 45.373091 
L 130.858377 45.373091 
L 131.036607 45.853273 
L 131.214837 45.853273 
L 131.393067 45.373091 
L 132.105987 45.373091 
L 132.284217 45.853273 
L 132.462447 45.373091 
L 132.640677 45.373091 
L 132.818907 45.853273 
L 132.997137 45.373091 
L 139.948108 45.373091 
L 140.126338 45.853273 
L 140.304568 45.373091 
L 146.720848 45.373091 
L 146.899078 45.853273 
L 147.077308 45.373091 
L 147.255538 45.853273 
L 147.433768 45.853273 
L 147.611998 45.373091 
L 147.790228 45.853273 
L 147.968458 45.373091 
L 148.146688 45.373091 
L 148.324918 45.853273 
L 148.503148 45.373091 
L 148.859608 45.373091 
L 149.037838 45.853273 
L 150.285449 45.853273 
L 150.463679 46.333455 
L 150.641909 46.333455 
L 150.998369 47.293818 
L 151.176599 47.293818 
L 152.424209 50.655091 
L 153.315359 54.976727 
L 153.493589 55.456909 
L 153.850049 56.897455 
L 154.028279 57.377636 
L 154.384739 58.818182 
L 154.562969 59.298364 
L 154.919429 60.738909 
L 155.275889 61.699273 
L 155.454119 61.699273 
L 155.632349 62.179455 
L 156.167039 62.179455 
L 156.345269 62.659636 
L 156.879959 62.659636 
L 157.058189 63.139818 
L 157.236419 62.659636 
L 157.414649 62.659636 
L 157.592879 63.139818 
L 158.305799 63.139818 
L 158.484029 62.659636 
L 158.662259 63.139818 
L 159.553409 63.139818 
L 159.731639 62.659636 
L 159.909869 62.659636 
L 160.0881 63.139818 
L 160.26633 62.659636 
L 160.44456 63.139818 
L 160.62279 62.659636 
L 160.80102 63.139818 
L 160.97925 62.659636 
L 161.33571 62.659636 
L 161.51394 63.139818 
L 161.69217 63.139818 
L 161.8704 62.659636 
L 162.04863 63.139818 
L 162.22686 63.139818 
L 162.40509 62.659636 
L 162.58332 63.139818 
L 162.76155 63.139818 
L 162.93978 62.659636 
L 163.47447 62.659636 
L 163.6527 63.139818 
L 163.83093 63.139818 
L 164.00916 62.659636 
L 164.18739 63.139818 
L 164.54385 63.139818 
L 164.72208 62.659636 
L 164.90031 63.139818 
L 165.07854 62.659636 
L 165.25677 62.659636 
L 165.435 63.139818 
L 165.61323 62.659636 
L 165.79146 63.139818 
L 165.96969 62.659636 
L 166.14792 63.139818 
L 166.32615 62.659636 
L 166.50438 63.139818 
L 166.68261 63.139818 
L 166.86084 62.659636 
L 167.03907 63.139818 
L 167.2173 62.659636 
L 167.39553 63.139818 
L 167.75199 63.139818 
L 167.93022 62.659636 
L 168.10845 63.139818 
L 168.9996 63.139818 
L 169.17783 63.62 
L 170.24721 63.62 
L 170.60367 62.659636 
L 171.316591 58.338 
L 171.851281 52.095636 
L 172.385971 43.932545 
L 172.564201 44.412727 
L 195.734103 44.412727 
L 195.912333 43.932545 
L 196.090563 44.412727 
L 196.268793 43.932545 
L 196.447023 43.932545 
L 196.625253 44.412727 
L 196.981713 44.412727 
L 197.159943 43.932545 
L 197.872863 43.932545 
L 198.051093 44.412727 
L 198.229323 43.932545 
L 198.764013 43.932545 
L 198.942243 44.412727 
L 199.120473 44.412727 
L 199.298703 43.932545 
L 199.476933 44.412727 
L 199.655163 43.932545 
L 200.011623 43.932545 
L 200.189853 44.412727 
L 200.546313 44.412727 
L 200.724543 43.932545 
L 201.437463 43.932545 
L 201.615693 44.412727 
L 201.793923 43.932545 
L 201.972153 44.412727 
L 202.150383 44.412727 
L 202.328613 44.892909 
L 202.863303 47.774 
L 203.219763 51.135273 
L 203.576223 53.536182 
L 203.932684 55.937091 
L 204.110914 56.417273 
L 204.467374 57.857818 
L 205.714984 61.219091 
L 205.893214 61.219091 
L 206.249674 62.179455 
L 206.427904 62.179455 
L 206.784364 63.139818 
L 206.962594 63.139818 
L 207.140824 63.62 
L 207.319054 63.62 
L 207.497284 63.139818 
L 207.675514 63.62 
L 207.853744 63.139818 
L 211.774804 63.139818 
L 211.953034 62.659636 
L 212.131264 63.139818 
L 212.309494 62.659636 
L 212.665954 62.659636 
L 212.844184 63.139818 
L 213.022414 62.659636 
L 217.121705 62.659636 
L 217.299935 63.139818 
L 220.329845 63.139818 
L 220.508075 63.62 
L 222.290375 63.62 
L 222.468605 63.139818 
L 222.646835 63.62 
L 223.716215 63.62 
L 223.894445 64.100182 
L 224.250905 64.100182 
L 224.429135 64.580364 
L 224.607365 64.100182 
L 225.142055 64.100182 
L 225.320285 63.139818 
L 225.854976 63.139818 
L 226.211436 62.179455 
L 226.567896 60.258727 
L 226.924356 55.937091 
L 227.280816 50.655091 
L 227.459046 51.135273 
L 228.528426 51.135273 
L 228.706656 51.615455 
L 229.419576 51.615455 
L 229.597806 51.135273 
L 229.776036 51.615455 
L 230.667186 51.615455 
L 230.845416 51.135273 
L 231.023646 51.615455 
L 231.201876 51.615455 
L 231.380106 51.135273 
L 231.558336 51.615455 
L 237.796387 51.615455 
L 237.974617 51.135273 
L 238.152847 51.615455 
L 250.272488 51.615455 
L 250.450718 51.135273 
L 250.628948 51.615455 
L 250.985408 51.615455 
L 251.163638 51.135273 
L 251.341868 51.615455 
L 251.698328 51.615455 
L 251.876558 51.135273 
L 252.054788 51.615455 
L 252.767708 51.615455 
L 252.945938 51.135273 
L 253.124168 51.615455 
L 253.302398 51.135273 
L 253.480628 51.615455 
L 254.193548 51.615455 
L 254.371778 51.135273 
L 254.550008 51.615455 
L 255.084698 51.615455 
L 255.262928 51.135273 
L 255.441158 51.615455 
L 256.332308 51.615455 
L 256.510538 51.135273 
L 256.688768 51.615455 
L 257.401688 51.615455 
L 257.579918 51.135273 
L 260.431599 51.135273 
L 260.609829 51.615455 
L 260.788059 51.615455 
L 260.966289 52.095636 
L 261.679209 55.456909 
L 261.857439 55.937091 
L 262.035669 55.937091 
L 262.748589 57.857818 
L 263.461509 61.219091 
L 264.352659 63.62 
L 264.530889 63.62 
L 264.709119 64.100182 
L 264.887349 64.100182 
L 265.065579 64.580364 
L 266.313189 64.580364 
L 266.491419 64.100182 
L 266.847879 64.100182 
L 267.026109 63.62 
L 267.204339 63.62 
L 267.382569 63.139818 
L 267.739029 63.139818 
L 267.917259 62.659636 
L 268.095489 63.139818 
L 268.808409 63.139818 
L 268.986639 63.62 
L 274.69 63.62 
L 274.86823 63.139818 
L 275.04646 63.62 
L 275.93761 63.62 
L 276.11584 64.100182 
L 277.71991 64.100182 
L 277.89814 64.580364 
L 278.2546 64.580364 
L 278.43283 65.060545 
L 279.85867 65.060545 
L 280.0369 65.540727 
L 280.393361 65.540727 
L 280.571591 66.020909 
L 288.948401 66.020909 
L 289.126631 65.540727 
L 289.304861 66.020909 
L 291.443622 66.020909 
L 291.621852 65.540727 
L 291.800082 66.020909 
L 291.978312 66.020909 
L 292.156542 65.540727 
L 292.334772 66.020909 
L 292.691232 66.020909 
L 292.869462 65.540727 
L 293.047692 66.020909 
L 293.225922 66.020909 
L 293.404152 65.540727 
L 293.582382 65.540727 
L 293.760612 66.020909 
L 293.938842 65.540727 
L 294.117072 66.020909 
L 304.097953 66.020909 
L 304.276183 65.540727 
L 304.454413 66.020909 
L 306.771403 66.020909 
L 306.949633 65.540727 
L 307.127863 66.020909 
L 309.979543 66.020909 
L 310.157773 65.540727 
L 310.336003 66.020909 
L 314.078834 66.020909 
L 314.257064 65.540727 
L 315.326444 65.540727 
L 315.682904 64.580364 
L 323.168564 64.580364 
L 323.346794 64.100182 
L 323.525024 64.580364 
L 323.703254 64.100182 
L 324.237945 64.100182 
L 324.416175 64.580364 
L 324.594405 64.580364 
L 324.772635 64.100182 
L 324.950865 64.100182 
L 325.129095 64.580364 
L 325.307325 64.100182 
L 327.089625 64.100182 
L 327.267855 64.580364 
L 330.832455 64.580364 
L 331.010685 65.060545 
L 331.367145 65.060545 
L 331.723605 66.020909 
L 332.258295 69.382182 
L 333.327675 79.946182 
L 333.505905 80.426364 
L 334.218825 80.426364 
L 334.397055 80.906545 
L 334.575285 80.426364 
L 334.753515 80.906545 
L 338.674576 80.906545 
L 338.852806 80.426364 
L 339.031036 80.906545 
L 339.743956 80.906545 
L 339.922186 80.426364 
L 340.100416 80.906545 
L 340.278646 80.426364 
L 340.456876 80.426364 
L 340.635106 80.906545 
L 343.130326 80.906545 
L 343.308556 80.426364 
L 343.486786 80.906545 
L 343.665016 80.906545 
L 343.843246 80.426364 
L 344.021476 80.906545 
L 344.199706 80.426364 
L 344.377936 80.906545 
L 345.269086 80.906545 
L 345.447316 80.426364 
L 345.625546 80.426364 
L 345.803777 80.906545 
L 345.982007 80.426364 
L 346.160237 80.906545 
L 346.338467 80.426364 
L 346.516697 80.426364 
L 346.694927 80.906545 
L 348.120767 80.906545 
L 348.298997 80.426364 
L 348.477227 80.426364 
L 348.655457 80.906545 
L 348.833687 80.426364 
L 349.011917 80.906545 
L 349.546607 80.906545 
L 349.724837 80.426364 
L 349.903067 80.426364 
L 350.081297 80.906545 
L 350.615987 80.906545 
L 350.794217 80.426364 
L 351.150677 80.426364 
L 351.328907 80.906545 
L 351.507137 80.426364 
L 351.685367 80.426364 
L 351.863597 80.906545 
L 352.398287 80.906545 
L 352.576517 80.426364 
L 352.754747 80.426364 
L 352.932977 80.906545 
L 353.111207 80.426364 
L 353.289437 80.906545 
L 353.645897 80.906545 
L 353.824127 80.426364 
L 354.002357 80.906545 
L 355.071737 80.906545 
L 355.249967 80.426364 
L 355.428197 80.426364 
L 355.606427 80.906545 
L 357.745188 80.906545 
L 357.923418 80.426364 
L 358.101648 80.906545 
L 358.814568 80.906545 
L 358.992798 80.426364 
L 359.171028 80.906545 
L 359.349258 80.426364 
L 359.527488 80.906545 
L 359.705718 80.906545 
L 359.883948 80.426364 
L 360.418638 80.426364 
L 360.596868 80.906545 
L 360.775098 80.906545 
L 360.953328 80.426364 
L 361.131558 80.906545 
L 361.309788 80.426364 
L 362.200938 80.426364 
L 362.379168 80.906545 
L 362.735628 80.906545 
L 362.913858 80.426364 
L 365.230848 80.426364 
L 365.409078 79.946182 
L 365.765538 79.946182 
L 365.943768 79.466 
L 366.300228 79.466 
L 366.478458 78.985818 
L 368.617219 78.985818 
L 368.795449 78.505636 
L 368.973679 78.505636 
L 369.151909 78.025455 
L 369.330139 78.025455 
L 369.864829 76.584909 
L 370.577749 73.223636 
L 371.112439 71.783091 
L 371.290669 71.783091 
L 371.468899 71.302909 
L 371.647129 71.302909 
L 372.716509 68.421818 
L 373.607659 64.100182 
L 384.12323 64.100182 
L 384.65792 65.540727 
L 384.83615 66.501091 
L 385.37084 71.302909 
L 386.26199 78.025455 
L 386.44022 78.505636 
L 387.15314 78.505636 
L 387.33137 79.946182 
L 387.5096 80.426364 
L 388.04429 80.426364 
L 388.22252 80.906545 
L 388.75721 80.906545 
L 388.93544 81.386727 
L 389.11367 80.906545 
L 389.2919 80.906545 
L 389.470131 81.386727 
L 389.826591 81.386727 
L 390.004821 80.906545 
L 390.183051 81.386727 
L 390.361281 80.906545 
L 390.539511 81.386727 
L 390.717741 81.386727 
L 390.895971 80.906545 
L 391.074201 81.386727 
L 391.965351 81.386727 
L 392.143581 80.906545 
L 392.321811 81.386727 
L 392.500041 81.386727 
L 392.678271 80.906545 
L 392.856501 81.386727 
L 393.034731 80.906545 
L 393.212961 81.386727 
L 393.569421 81.386727 
L 393.747651 80.906545 
L 393.925881 81.386727 
L 394.638801 81.386727 
L 394.817031 80.906545 
L 394.995261 80.906545 
L 395.173491 81.386727 
L 397.668711 81.386727 
L 397.846941 80.906545 
L 398.025171 80.906545 
L 398.203401 81.386727 
L 398.559861 81.386727 
L 398.738091 80.906545 
L 399.094551 80.906545 
L 399.272781 81.386727 
L 399.985701 81.386727 
L 400.163931 80.906545 
L 400.342162 81.386727 
L 401.589772 81.386727 
L 401.768002 80.906545 
L 401.946232 80.906545 
L 402.124462 81.386727 
L 403.372072 81.386727 
L 403.550302 80.906545 
L 403.728532 81.386727 
L 408.006052 81.386727 
L 408.184282 80.906545 
L 408.362512 80.906545 
L 408.540742 81.386727 
L 409.966582 81.386727 
L 410.144812 80.906545 
L 410.323042 81.386727 
L 411.035962 81.386727 
L 411.214192 80.906545 
L 411.392423 81.386727 
L 422.086223 81.386727 
L 422.264454 80.906545 
L 422.442684 80.906545 
L 422.620914 81.386727 
L 422.799144 81.386727 
L 422.977374 80.906545 
L 423.155604 80.906545 
L 423.333834 80.426364 
L 423.512064 80.426364 
L 423.690294 79.946182 
L 423.868524 79.946182 
L 424.403214 78.505636 
L 424.581444 78.505636 
L 424.937904 77.065091 
L 425.472594 75.624545 
L 425.650824 75.624545 
L 426.185514 73.223636 
L 426.363744 72.743455 
L 427.076664 68.421818 
L 427.433124 66.020909 
L 427.967814 63.62 
L 428.146044 63.139818 
L 428.324274 63.62 
L 428.502504 63.62 
L 428.680734 63.139818 
L 430.463034 63.139818 
L 430.641264 62.659636 
L 430.997724 62.659636 
L 431.175954 63.139818 
L 431.354184 62.659636 
L 431.888874 62.659636 
L 432.067104 63.139818 
L 432.245334 63.139818 
L 432.423564 62.659636 
L 433.492945 62.659636 
L 433.671175 63.139818 
L 433.849405 62.659636 
L 435.453475 62.659636 
L 435.631705 63.139818 
L 435.809935 62.659636 
L 435.988165 63.139818 
L 436.166395 62.659636 
L 436.879315 62.659636 
L 437.057545 63.139818 
L 437.592235 63.139818 
L 437.770465 62.659636 
L 438.483385 62.659636 
L 438.661615 63.139818 
L 438.839845 63.139818 
L 439.018075 62.659636 
L 439.730995 62.659636 
L 439.909225 63.139818 
L 440.087455 62.659636 
L 440.265685 62.659636 
L 440.443915 63.139818 
L 440.622145 62.659636 
L 440.800375 63.139818 
L 440.978605 62.659636 
L 441.156835 63.139818 
L 441.691525 63.139818 
L 441.869755 63.62 
L 442.226215 63.62 
L 442.404445 64.100182 
L 442.760905 64.100182 
L 443.295595 67.461455 
L 443.830285 71.302909 
L 444.186746 73.223636 
L 444.364976 72.743455 
L 444.543206 73.223636 
L 444.721436 73.223636 
L 444.899666 72.743455 
L 445.256126 72.743455 
L 445.434356 73.223636 
L 445.612586 72.743455 
L 445.790816 73.223636 
L 449.890106 73.223636 
L 450.068336 72.743455 
L 450.246566 73.223636 
L 450.424796 73.223636 
L 450.603026 72.743455 
L 450.781256 73.223636 
L 476.268148 73.223636 
L 476.624608 70.822727 
L 476.981069 68.421818 
L 477.159299 67.941636 
L 477.337529 66.981273 
L 477.515759 66.981273 
L 477.872219 66.020909 
L 478.050449 66.020909 
L 478.406909 65.060545 
L 478.585139 65.060545 
L 479.832749 61.699273 
L 480.545669 61.699273 
L 480.723899 62.179455 
L 483.040889 62.179455 
L 483.219119 61.699273 
L 483.397349 62.179455 
L 485.179649 62.179455 
L 485.357879 61.699273 
L 485.536109 62.179455 
L 486.249029 62.179455 
L 486.427259 61.699273 
L 486.605489 62.179455 
L 486.783719 62.179455 
L 486.961949 61.699273 
L 487.318409 61.699273 
L 487.496639 62.179455 
L 488.92248 62.179455 
L 489.10071 61.699273 
L 489.27894 61.699273 
L 489.45717 62.179455 
L 491.59593 62.179455 
L 491.77416 61.699273 
L 491.95239 62.179455 
L 492.13062 61.699273 
L 492.30885 61.699273 
L 492.48708 62.179455 
L 493.2 62.179455 
L 493.2 62.179455 
" clip-path="url(#pee94aa7084)" style="fill: none; stroke: #1f77b4; stroke-width: 1.5; stroke-linecap: square"/>
   </g>
   <g id="line2d_12">
    <path d="M 56.18 63.62 
L 493.2 63.62 
" clip-path="url(#pee94aa7084)" style="fill: none; stroke-dasharray: 2.96,1.28; stroke-dashoffset: 0; stroke: #808080; stroke-width: 0.8"/>
   </g>
   <g id="patch_3">
    <path d="M 56.18 116.44 
L 56.18 10.8 
" style="fill: none; stroke: #000000; stroke-width: 0.8; stroke-linejoin: miter; stroke-linecap: square"/>
   </g>
   <g id="patch_4">
    <path d="M 56.18 116.44 
L 493.2 116.44 
" style="fill: none; stroke: #000000; stroke-width: 0.8; stroke-linejoin: miter; stroke-linecap: square"/>
   </g>
  </g>
  <g id="axes_2">
   <g id="patch_5">
    <path d="M 56.18 264.04 
L 493.2 264.04 
L 493.2 158.4 
L 56.18 158.4 
z
" style="fill: #ffffff"/>
   </g>
   <g id="matplotlib.axis_3">
    <g id="xtick_6">
     <g id="line2d_13">
      <g>
       <use xlink:href="#m7f0059ad23" x="56.18" y="264.04" style="stroke: #000000; stroke-width: 0.8"/>
      </g>
     </g>
     <g id="text_13">
      <!-- 0 -->
      <g transform="translate(52.99875 278.638438) scale(0.1 -0.1)">
       <use xlink:href="#DejaVuSans-30"/>
      </g>
     </g>
    </g>
    <g id="xtick_7">
     <g id="line2d_14">
      <g>
       <use xlink:href="#m7f0059ad23" x="145.295008" y="264.04" style="stroke: #000000; stroke-width: 0.8"/>
      </g>
     </g>
     <g id="text_14">
      <!-- 5000 -->
      <g transform="translate(132.570008 278.638438) scale(0.1 -0.1)">
       <use xlink:href="#DejaVuSans-35"/>
       <use xlink:href="#DejaVuSans-30" x="63.623047"/>
       <use xlink:href="#DejaVuSans-30" x="127.246094"/>
       <use xlink:href="#DejaVuSans-30" x="190.869141"/>
      </g>
     </g>
    </g>
    <g id="xtick_8">
     <g id="line2d_15">
      <g>
       <use xlink:href="#m7f0059ad23" x="234.410016" y="264.04" style="stroke: #000000; stroke-width: 0.8"/>
      </g>
     </g>
     <g id="text_15">
      <!-- 10000 -->
      <g transform="translate(218.503766 278.638438) scale(0.1 -0.1)">
       <use xlink:href="#DejaVuSans-31"/>
       <use xlink:href="#DejaVuSans-30" x="63.623047"/>
       <use xlink:href="#DejaVuSans-30" x="127.246094"/>
       <use xlink:href="#DejaVuSans-30" x="190.869141"/>
       <use xlink:href="#DejaVuSans-30" x="254.492188"/>
      </g>
     </g>
    </g>
    <g id="xtick_9">
     <g id="line2d_16">
      <g>
       <use xlink:href="#m7f0059ad23" x="323.525024" y="264.04" style="stroke: #000000; stroke-width: 0.8"/>
      </g>
     </g>
     <g id="text_16">
      <!-- 15000 -->
      <g transform="translate(307.618774 278.638438) scale(0.1 -0.1)">
       <use xlink:href="#DejaVuSans-31"/>
       <use xlink:href="#DejaVuSans-35" x="63.623047"/>
       <use xlink:href="#DejaVuSans-30" x="127.246094"/>
       <use xlink:href="#DejaVuSans-30" x="190.869141"/>
       <use xlink:href="#DejaVuSans-30" x="254.492188"/>
      </g>
     </g>
    </g>
    <g id="xtick_10">
     <g id="line2d_17">
      <g>
       <use xlink:href="#m7f0059ad23" x="412.640033" y="264.04" style="stroke: #000000; stroke-width: 0.8"/>
      </g>
     </g>
     <g id="text_17">
      <!-- 20000 -->
      <g transform="translate(396.733783 278.638438) scale(0.1 -0.1)">
       <use xlink:href="#DejaVuSans-32"/>
       <use xlink:href="#DejaVuSans-30" x="63.623047"/>
       <use xlink:href="#DejaVuSans-30" x="127.246094"/>
       <use xlink:href="#DejaVuSans-30" x="190.869141"/>
       <use xlink:href="#DejaVuSans-30" x="254.492188"/>
      </g>
     </g>
    </g>
    <g id="text_18">
     <!-- Time (ms) -->
     <g transform="translate(249.490781 292.316563) scale(0.1 -0.1)">
      <use xlink:href="#DejaVuSans-54"/>
      <use xlink:href="#DejaVuSans-69" x="57.958984"/>
      <use xlink:href="#DejaVuSans-6d" x="85.742188"/>
      <use xlink:href="#DejaVuSans-65" x="183.154297"/>
      <use xlink:href="#DejaVuSans-20" x="244.677734"/>
      <use xlink:href="#DejaVuSans-28" x="276.464844"/>
      <use xlink:href="#DejaVuSans-6d" x="315.478516"/>
      <use xlink:href="#DejaVuSans-73" x="412.890625"/>
      <use xlink:href="#DejaVuSans-29" x="464.990234"/>
     </g>
    </g>
   </g>
   <g id="matplotlib.axis_4">
    <g id="ytick_6">
     <g id="line2d_18">
      <g>
       <use xlink:href="#m0d7c8efe8d" x="56.18" y="259.238182" style="stroke: #000000; stroke-width: 0.8"/>
      </g>
     </g>
     <g id="text_19">
      <!-- −1.0 -->
      <g transform="translate(24.897188 263.037401) scale(0.1 -0.1)">
       <use xlink:href="#DejaVuSans-2212"/>
       <use xlink:href="#DejaVuSans-31" x="83.789062"/>
       <use xlink:href="#DejaVuSans-2e" x="147.412109"/>
       <use xlink:href="#DejaVuSans-30" x="179.199219"/>
      </g>
     </g>
    </g>
    <g id="ytick_7">
     <g id="line2d_19">
      <g>
       <use xlink:href="#m0d7c8efe8d" x="56.18" y="235.229091" style="stroke: #000000; stroke-width: 0.8"/>
      </g>
     </g>
     <g id="text_20">
      <!-- −0.5 -->
      <g transform="translate(24.897188 239.02831) scale(0.1 -0.1)">
       <use xlink:href="#DejaVuSans-2212"/>
       <use xlink:href="#DejaVuSans-30" x="83.789062"/>
       <use xlink:href="#DejaVuSans-2e" x="147.412109"/>
       <use xlink:href="#DejaVuSans-35" x="179.199219"/>
      </g>
     </g>
    </g>
    <g id="ytick_8">
     <g id="line2d_20">
      <g>
       <use xlink:href="#m0d7c8efe8d" x="56.18" y="211.22" style="stroke: #000000; stroke-width: 0.8"/>
      </g>
     </g>
     <g id="text_21">
      <!-- 0.0 -->
      <g transform="translate(33.276875 215.019219) scale(0.1 -0.1)">
       <use xlink:href="#DejaVuSans-30"/>
       <use xlink:href="#DejaVuSans-2e" x="63.623047"/>
       <use xlink:href="#DejaVuSans-30" x="95.410156"/>
      </g>
     </g>
    </g>
    <g id="ytick_9">
     <g id="line2d_21">
      <g>
       <use xlink:href="#m0d7c8efe8d" x="56.18" y="187.210909" style="stroke: #000000; stroke-width: 0.8"/>
      </g>
     </g>
     <g id="text_22">
      <!-- 0.5 -->
      <g transform="translate(33.276875 191.010128) scale(0.1 -0.1)">
       <use xlink:href="#DejaVuSans-30"/>
       <use xlink:href="#DejaVuSans-2e" x="63.623047"/>
       <use xlink:href="#DejaVuSans-35" x="95.410156"/>
      </g>
     </g>
    </g>
    <g id="ytick_10">
     <g id="line2d_22">
      <g>
       <use xlink:href="#m0d7c8efe8d" x="56.18" y="163.201818" style="stroke: #000000; stroke-width: 0.8"/>
      </g>
     </g>
     <g id="text_23">
      <!-- 1.0 -->
      <g transform="translate(33.276875 167.001037) scale(0.1 -0.1)">
       <use xlink:href="#DejaVuSans-31"/>
       <use xlink:href="#DejaVuSans-2e" x="63.623047"/>
       <use xlink:href="#DejaVuSans-30" x="95.410156"/>
      </g>
     </g>
    </g>
    <g id="text_24">
     <!-- Y-Axis Value -->
     <g transform="translate(18.8175 241.065313) rotate(-90) scale(0.1 -0.1)">
      <defs>
       <path id="DejaVuSans-59" d="M -13 4666 
L 666 4666 
L 1959 2747 
L 3244 4666 
L 3922 4666 
L 2272 2222 
L 2272 0 
L 1638 0 
L 1638 2222 
L -13 4666 
z
" transform="scale(0.015625)"/>
      </defs>
      <use xlink:href="#DejaVuSans-59"/>
      <use xlink:href="#DejaVuSans-2d" x="49.208984"/>
      <use xlink:href="#DejaVuSans-41" x="83.042969"/>
      <use xlink:href="#DejaVuSans-78" x="151.451172"/>
      <use xlink:href="#DejaVuSans-69" x="210.630859"/>
      <use xlink:href="#DejaVuSans-73" x="238.414062"/>
      <use xlink:href="#DejaVuSans-20" x="290.513672"/>
      <use xlink:href="#DejaVuSans-56" x="322.300781"/>
      <use xlink:href="#DejaVuSans-61" x="382.958984"/>
      <use xlink:href="#DejaVuSans-6c" x="444.238281"/>
      <use xlink:href="#DejaVuSans-75" x="472.021484"/>
      <use xlink:href="#DejaVuSans-65" x="535.400391"/>
     </g>
    </g>
   </g>
   <g id="line2d_23">
    <path d="M 56.18 205.938 
L 58.49699 205.938 
L 58.67522 205.457818 
L 58.85345 205.938 
L 60.27929 205.938 
L 60.45752 205.457818 
L 60.63575 205.938 
L 60.81398 205.457818 
L 62.596281 205.457818 
L 62.774511 204.977636 
L 62.952741 205.457818 
L 64.022121 205.457818 
L 64.200351 205.938 
L 64.378581 205.457818 
L 64.735041 205.457818 
L 64.913271 205.938 
L 65.447961 205.938 
L 65.626191 205.457818 
L 65.804421 205.457818 
L 65.982651 205.938 
L 66.160881 205.457818 
L 68.656101 205.457818 
L 68.834331 204.977636 
L 70.973091 204.977636 
L 71.151321 205.457818 
L 71.686011 205.457818 
L 71.864241 205.938 
L 72.042471 205.457818 
L 72.220701 205.938 
L 74.003002 205.938 
L 74.181232 206.418182 
L 74.537692 206.418182 
L 74.715922 206.898364 
L 75.607072 206.898364 
L 75.785302 207.378545 
L 75.963532 206.898364 
L 76.141762 206.898364 
L 76.319992 206.418182 
L 76.498222 206.418182 
L 77.211142 204.497455 
L 77.745832 201.136182 
L 79.171672 189.131636 
L 79.349902 187.210909 
L 79.528132 186.730727 
L 79.706362 186.730727 
L 79.884592 186.250545 
L 80.062822 186.730727 
L 81.666892 186.730727 
L 81.845122 187.210909 
L 82.023352 186.730727 
L 82.201582 186.730727 
L 82.379812 187.210909 
L 82.558042 186.730727 
L 82.736272 187.210909 
L 83.805653 187.210909 
L 83.983883 186.730727 
L 84.162113 187.210909 
L 84.340343 186.730727 
L 84.518573 186.730727 
L 84.696803 187.210909 
L 85.053263 187.210909 
L 85.231493 186.730727 
L 85.409723 186.730727 
L 85.587953 187.210909 
L 85.766183 186.730727 
L 85.944413 187.210909 
L 86.300873 187.210909 
L 86.479103 186.730727 
L 86.657333 187.210909 
L 87.013793 187.210909 
L 87.192023 186.730727 
L 87.726713 186.730727 
L 87.904943 187.210909 
L 88.083173 186.730727 
L 88.261403 187.210909 
L 89.330783 187.210909 
L 89.509013 186.730727 
L 89.687243 186.730727 
L 89.865473 187.210909 
L 90.043703 187.210909 
L 90.221933 186.730727 
L 90.400163 186.730727 
L 90.578393 187.210909 
L 90.756623 187.210909 
L 90.934853 186.730727 
L 91.113083 186.730727 
L 91.291313 187.210909 
L 91.469543 187.210909 
L 91.647773 186.730727 
L 91.826003 187.210909 
L 92.004233 186.730727 
L 92.182463 187.210909 
L 92.360693 187.210909 
L 92.538923 186.730727 
L 93.073613 186.730727 
L 93.251843 187.210909 
L 93.430073 186.730727 
L 93.608303 186.730727 
L 93.786533 187.210909 
L 93.964763 186.730727 
L 94.142993 187.210909 
L 94.321223 187.210909 
L 94.499454 186.730727 
L 94.677684 187.210909 
L 94.855914 186.730727 
L 95.034144 187.210909 
L 95.212374 186.730727 
L 95.390604 187.210909 
L 95.568834 186.730727 
L 97.172904 186.730727 
L 97.351134 187.210909 
L 97.529364 186.730727 
L 99.133434 186.730727 
L 99.311664 187.210909 
L 99.489894 186.730727 
L 99.668124 187.210909 
L 99.846354 187.210909 
L 100.024584 186.730727 
L 100.202814 187.210909 
L 101.272194 187.210909 
L 101.806884 188.651455 
L 102.876264 193.933455 
L 103.054494 194.413636 
L 103.945644 198.735273 
L 104.123874 199.215455 
L 105.015024 203.537091 
L 105.371485 204.497455 
L 105.549715 204.497455 
L 105.727945 204.977636 
L 105.906175 204.977636 
L 106.262635 205.938 
L 106.619095 205.938 
L 106.797325 206.418182 
L 107.332015 206.418182 
L 107.510245 206.898364 
L 108.579625 206.898364 
L 108.757855 206.418182 
L 108.936085 206.898364 
L 109.114315 206.418182 
L 109.292545 206.898364 
L 116.421746 206.898364 
L 116.599976 206.418182 
L 116.778206 206.898364 
L 116.956436 206.418182 
L 117.134666 206.898364 
L 119.986346 206.898364 
L 120.164576 206.418182 
L 120.342806 206.418182 
L 120.521036 205.938 
L 120.699266 205.938 
L 120.877496 205.457818 
L 121.055726 205.457818 
L 121.412186 204.497455 
L 121.590416 204.497455 
L 121.946876 203.537091 
L 122.125106 203.537091 
L 122.303336 203.056909 
L 123.016256 198.735273 
L 123.729176 192.973091 
L 124.085636 192.012727 
L 124.442096 192.012727 
L 124.620326 191.532545 
L 126.402626 191.532545 
L 126.580856 192.012727 
L 126.759086 192.012727 
L 126.937316 191.532545 
L 135.314127 191.532545 
L 135.492357 191.052364 
L 135.670587 191.532545 
L 146.542618 191.532545 
L 146.720848 191.052364 
L 146.899078 191.532545 
L 147.255538 191.532545 
L 147.433768 191.052364 
L 149.928989 191.052364 
L 150.107219 191.532545 
L 150.285449 191.532545 
L 150.463679 192.012727 
L 150.641909 192.012727 
L 151.176599 193.453273 
L 151.354829 193.453273 
L 152.602439 196.814545 
L 153.315359 200.175818 
L 155.097659 204.977636 
L 155.275889 204.977636 
L 155.454119 205.457818 
L 155.810579 205.457818 
L 155.988809 205.938 
L 157.058189 205.938 
L 157.236419 206.418182 
L 157.592879 206.418182 
L 157.771109 205.938 
L 157.949339 205.938 
L 158.127569 206.418182 
L 159.553409 206.418182 
L 159.731639 205.938 
L 159.909869 206.418182 
L 160.97925 206.418182 
L 161.15748 205.938 
L 161.51394 205.938 
L 161.69217 206.418182 
L 161.8704 205.938 
L 162.04863 206.418182 
L 162.22686 205.938 
L 162.40509 206.418182 
L 162.58332 206.418182 
L 162.76155 205.938 
L 162.93978 205.938 
L 163.11801 206.418182 
L 163.29624 205.938 
L 163.47447 206.418182 
L 163.6527 205.938 
L 163.83093 206.418182 
L 164.00916 205.938 
L 164.18739 206.418182 
L 164.36562 205.938 
L 164.54385 206.418182 
L 165.07854 206.418182 
L 165.25677 205.938 
L 165.435 206.418182 
L 165.61323 205.938 
L 165.96969 205.938 
L 166.14792 206.418182 
L 166.86084 206.418182 
L 167.03907 205.938 
L 167.57376 205.938 
L 167.75199 206.418182 
L 167.93022 205.938 
L 168.10845 205.938 
L 168.28668 206.418182 
L 168.46491 205.938 
L 168.64314 205.938 
L 168.82137 205.457818 
L 171.316591 205.457818 
L 171.494821 205.938 
L 171.851281 205.938 
L 172.029511 206.418182 
L 172.742431 206.418182 
L 172.920661 205.938 
L 180.762781 205.938 
L 180.941011 206.418182 
L 181.119241 205.938 
L 202.150383 205.938 
L 202.328613 205.457818 
L 202.506843 205.457818 
L 202.863303 204.497455 
L 203.041533 204.497455 
L 203.219763 204.017273 
L 205.536754 204.017273 
L 205.714984 204.497455 
L 205.893214 204.497455 
L 206.071444 204.977636 
L 206.249674 204.977636 
L 206.427904 205.457818 
L 206.784364 205.457818 
L 206.962594 205.938 
L 207.497284 205.938 
L 207.675514 205.457818 
L 207.853744 205.938 
L 217.478165 205.938 
L 217.656395 205.457818 
L 218.191085 205.457818 
L 218.369315 205.938 
L 218.725775 205.938 
L 218.904005 205.457818 
L 220.329845 205.457818 
L 220.508075 204.977636 
L 224.250905 204.977636 
L 224.429135 205.457818 
L 224.785595 205.457818 
L 224.963825 205.938 
L 225.142055 205.938 
L 225.498515 206.898364 
L 225.854976 206.898364 
L 226.211436 207.858727 
L 226.746126 210.739818 
L 227.102586 215.061455 
L 227.280816 217.942545 
L 227.459046 217.462364 
L 227.993736 217.462364 
L 228.171966 216.982182 
L 229.063116 216.982182 
L 229.241346 217.462364 
L 229.597806 217.462364 
L 229.776036 216.982182 
L 229.954266 216.982182 
L 230.132496 217.462364 
L 258.114608 217.462364 
L 258.292838 217.942545 
L 259.183989 217.942545 
L 259.362219 217.462364 
L 259.540449 217.942545 
L 260.075139 217.942545 
L 260.253369 217.462364 
L 260.609829 217.462364 
L 260.966289 216.502 
L 261.500979 214.101091 
L 262.035669 212.660545 
L 262.213899 212.660545 
L 262.926819 210.739818 
L 263.283279 209.299273 
L 263.996199 207.378545 
L 264.174429 207.378545 
L 264.709119 205.938 
L 266.134959 205.938 
L 266.313189 206.418182 
L 266.491419 206.418182 
L 266.669649 206.898364 
L 266.847879 206.898364 
L 267.204339 207.858727 
L 267.560799 207.858727 
L 267.739029 208.338909 
L 268.451949 208.338909 
L 268.630179 207.858727 
L 268.808409 207.858727 
L 268.986639 207.378545 
L 270.94717 207.378545 
L 271.1254 206.898364 
L 271.30363 207.378545 
L 272.19478 207.378545 
L 272.37301 206.898364 
L 272.55124 207.378545 
L 274.69 207.378545 
L 274.86823 206.898364 
L 275.04646 207.378545 
L 275.58115 207.378545 
L 275.75938 206.898364 
L 276.11584 206.898364 
L 276.29407 206.418182 
L 276.4723 206.898364 
L 276.65053 206.418182 
L 276.82876 206.418182 
L 277.00699 205.938 
L 278.07637 205.938 
L 278.43283 206.898364 
L 278.61106 206.898364 
L 278.78929 207.378545 
L 279.14575 210.259636 
L 279.68044 218.902909 
L 280.0369 224.665091 
L 280.215131 225.625455 
L 280.393361 225.625455 
L 280.571591 226.105636 
L 280.749821 226.105636 
L 280.928051 225.625455 
L 281.284511 225.625455 
L 281.462741 225.145273 
L 281.819201 225.145273 
L 281.997431 224.665091 
L 298.929282 224.665091 
L 299.107512 225.145273 
L 299.285742 224.665091 
L 301.602732 224.665091 
L 301.780962 225.145273 
L 301.959192 225.145273 
L 302.137423 224.665091 
L 302.315653 224.665091 
L 302.493883 225.145273 
L 302.672113 224.665091 
L 302.850343 225.145273 
L 303.028573 224.665091 
L 303.385033 224.665091 
L 303.563263 225.145273 
L 303.919723 225.145273 
L 304.097953 224.665091 
L 304.276183 225.145273 
L 305.167333 225.145273 
L 305.345563 225.625455 
L 305.523793 225.145273 
L 305.702023 225.625455 
L 307.662553 225.625455 
L 307.840783 226.105636 
L 308.019013 226.105636 
L 308.197243 225.625455 
L 308.553703 225.625455 
L 308.731933 226.105636 
L 308.910163 225.625455 
L 309.088393 226.105636 
L 309.444853 226.105636 
L 309.623083 225.625455 
L 309.801313 225.625455 
L 309.979543 226.105636 
L 314.791754 226.105636 
L 314.969984 225.625455 
L 315.148214 226.105636 
L 315.326444 226.105636 
L 315.504674 225.145273 
L 315.682904 225.145273 
L 315.861134 224.665091 
L 316.752284 219.383091 
L 317.465204 214.101091 
L 318.891044 206.418182 
L 319.425734 206.418182 
L 319.603964 206.898364 
L 319.782194 206.898364 
L 319.960424 206.418182 
L 320.138654 206.898364 
L 321.208034 206.898364 
L 321.386264 206.418182 
L 321.564494 206.898364 
L 325.307325 206.898364 
L 325.485555 207.378545 
L 325.663785 206.898364 
L 326.020245 206.898364 
L 326.198475 207.378545 
L 326.733165 207.378545 
L 326.911395 206.898364 
L 327.802545 206.898364 
L 327.980775 206.418182 
L 328.515465 206.418182 
L 328.693695 206.898364 
L 328.871925 206.418182 
L 329.050155 206.418182 
L 329.228385 206.898364 
L 329.406615 206.418182 
L 329.584845 206.898364 
L 329.763075 206.418182 
L 330.832455 206.418182 
L 331.010685 206.898364 
L 331.188915 206.898364 
L 331.367145 207.378545 
L 331.545375 207.378545 
L 331.901835 209.299273 
L 332.436525 214.101091 
L 333.327675 221.303818 
L 333.505905 221.303818 
L 333.684135 221.784 
L 333.862365 221.784 
L 334.040595 222.264182 
L 334.218825 222.264182 
L 334.397055 222.744364 
L 335.644666 222.744364 
L 335.822896 222.264182 
L 336.001126 222.744364 
L 349.011917 222.744364 
L 349.190147 223.224545 
L 349.368377 222.744364 
L 350.259527 222.744364 
L 350.437757 223.224545 
L 350.615987 222.744364 
L 350.972447 222.744364 
L 351.150677 223.224545 
L 351.328907 222.744364 
L 351.507137 223.224545 
L 351.685367 222.744364 
L 351.863597 223.224545 
L 352.754747 223.224545 
L 352.932977 222.744364 
L 353.111207 222.744364 
L 353.289437 223.224545 
L 353.645897 223.224545 
L 353.824127 222.744364 
L 354.002357 223.224545 
L 355.784657 223.224545 
L 355.962887 222.744364 
L 356.141117 222.744364 
L 356.319347 223.224545 
L 358.101648 223.224545 
L 358.279878 222.744364 
L 358.458108 223.224545 
L 360.240408 223.224545 
L 360.418638 222.744364 
L 360.596868 222.744364 
L 360.775098 223.224545 
L 360.953328 222.744364 
L 361.131558 223.224545 
L 361.309788 222.744364 
L 361.488018 223.224545 
L 362.557398 223.224545 
L 362.735628 222.744364 
L 362.913858 223.224545 
L 363.270318 223.224545 
L 363.448548 222.744364 
L 363.805008 222.744364 
L 363.983238 223.224545 
L 364.161468 223.224545 
L 364.339698 222.744364 
L 365.230848 222.744364 
L 365.409078 222.264182 
L 366.121998 222.264182 
L 366.300228 221.784 
L 366.834918 221.784 
L 367.013148 221.303818 
L 367.191378 221.784 
L 367.369608 221.303818 
L 367.547838 221.784 
L 367.726069 221.303818 
L 367.904299 221.784 
L 368.082529 221.784 
L 368.260759 221.303818 
L 368.795449 221.303818 
L 368.973679 220.823636 
L 369.330139 220.823636 
L 369.508369 220.343455 
L 370.399519 216.021818 
L 370.934209 214.581273 
L 371.112439 214.581273 
L 372.181819 211.700182 
L 372.360049 211.700182 
L 372.538279 210.739818 
L 372.716509 210.739818 
L 372.894739 210.259636 
L 373.429429 207.858727 
L 373.607659 207.378545 
L 374.498809 207.378545 
L 374.677039 207.858727 
L 374.855269 207.378545 
L 385.90553 207.378545 
L 386.08376 206.898364 
L 389.648361 206.898364 
L 389.826591 207.378545 
L 390.004821 207.378545 
L 390.183051 206.898364 
L 390.361281 207.378545 
L 390.539511 206.898364 
L 390.717741 206.898364 
L 390.895971 207.378545 
L 391.074201 206.898364 
L 391.252431 207.378545 
L 391.965351 207.378545 
L 392.143581 206.898364 
L 392.321811 207.378545 
L 392.678271 207.378545 
L 392.856501 206.898364 
L 393.034731 207.378545 
L 393.569421 207.378545 
L 393.747651 206.898364 
L 393.925881 207.378545 
L 394.282341 207.378545 
L 394.460571 206.898364 
L 394.638801 207.378545 
L 394.817031 207.378545 
L 394.995261 206.898364 
L 395.173491 207.378545 
L 395.351721 206.898364 
L 395.529951 207.378545 
L 395.708181 207.378545 
L 395.886411 206.898364 
L 396.421101 206.898364 
L 396.599331 207.378545 
L 396.955791 207.378545 
L 397.134021 206.898364 
L 397.312251 207.378545 
L 397.490481 206.898364 
L 397.668711 207.378545 
L 397.846941 206.898364 
L 398.025171 206.898364 
L 398.203401 207.378545 
L 398.559861 207.378545 
L 398.738091 206.898364 
L 398.916321 207.378545 
L 399.272781 207.378545 
L 399.451011 206.898364 
L 399.629241 207.378545 
L 399.807471 206.898364 
L 399.985701 207.378545 
L 400.698622 207.378545 
L 400.876852 206.898364 
L 401.055082 207.378545 
L 401.411542 207.378545 
L 401.589772 206.898364 
L 401.768002 207.378545 
L 408.897202 207.378545 
L 409.075432 206.898364 
L 409.253662 207.378545 
L 409.431892 206.898364 
L 409.610122 207.378545 
L 412.283573 207.378545 
L 412.461803 206.898364 
L 412.640033 207.378545 
L 413.352953 207.378545 
L 413.531183 206.898364 
L 413.709413 207.378545 
L 414.600563 207.378545 
L 414.778793 206.898364 
L 414.957023 207.378545 
L 415.135253 207.378545 
L 415.313483 206.898364 
L 415.491713 207.378545 
L 415.669943 207.378545 
L 415.848173 206.898364 
L 416.204633 206.898364 
L 416.382863 207.378545 
L 416.739323 207.378545 
L 416.917553 206.898364 
L 417.095783 207.378545 
L 417.274013 206.898364 
L 417.452243 207.378545 
L 418.878083 207.378545 
L 419.056313 206.898364 
L 419.412773 206.898364 
L 419.591003 207.378545 
L 419.769233 207.378545 
L 419.947463 206.898364 
L 420.125693 206.898364 
L 420.303923 207.378545 
L 421.373303 207.378545 
L 421.551533 206.898364 
L 421.729763 206.898364 
L 421.907993 207.378545 
L 422.086223 207.378545 
L 422.264454 206.898364 
L 422.442684 207.378545 
L 423.868524 207.378545 
L 424.046754 206.898364 
L 424.403214 206.898364 
L 424.581444 206.418182 
L 425.116134 206.418182 
L 425.294364 205.938 
L 426.898434 205.938 
L 427.076664 206.418182 
L 427.254894 206.418182 
L 427.433124 206.898364 
L 427.611354 206.898364 
L 427.789584 207.378545 
L 427.967814 207.378545 
L 428.146044 207.858727 
L 428.502504 207.858727 
L 428.680734 207.378545 
L 428.858964 207.378545 
L 429.037194 207.858727 
L 431.710644 207.858727 
L 431.888874 207.378545 
L 432.245334 207.378545 
L 432.423564 207.858727 
L 432.780024 207.858727 
L 432.958254 207.378545 
L 433.136485 207.858727 
L 433.314715 207.378545 
L 433.492945 207.858727 
L 434.205865 207.858727 
L 434.384095 207.378545 
L 434.740555 207.378545 
L 434.918785 207.858727 
L 436.344625 207.858727 
L 436.522855 207.378545 
L 436.701085 207.858727 
L 440.978605 207.858727 
L 441.156835 208.338909 
L 441.691525 208.338909 
L 442.226215 206.898364 
L 442.939135 203.056909 
L 444.008515 192.492909 
L 444.364976 191.052364 
L 445.077896 191.052364 
L 445.256126 190.572182 
L 446.325506 190.572182 
L 446.503736 191.052364 
L 446.681966 190.572182 
L 446.860196 191.052364 
L 447.038426 191.052364 
L 447.216656 191.532545 
L 447.394886 191.052364 
L 448.286036 191.052364 
L 448.464266 191.532545 
L 448.642496 191.052364 
L 448.820726 191.052364 
L 448.998956 191.532545 
L 449.177186 191.052364 
L 449.355416 191.052364 
L 449.533646 191.532545 
L 449.890106 191.532545 
L 450.068336 192.012727 
L 464.148507 192.012727 
L 464.326737 192.492909 
L 464.504967 192.492909 
L 464.683197 192.012727 
L 465.039657 192.012727 
L 465.217887 192.492909 
L 465.396117 192.492909 
L 465.574347 192.012727 
L 465.930808 192.012727 
L 466.109038 192.492909 
L 466.643728 192.492909 
L 466.821958 192.012727 
L 467.534878 192.012727 
L 467.713108 192.492909 
L 468.069568 192.492909 
L 468.247798 192.012727 
L 468.426028 192.492909 
L 468.604258 192.012727 
L 468.960718 192.012727 
L 469.138948 192.492909 
L 469.317178 192.492909 
L 469.495408 192.012727 
L 469.673638 192.492909 
L 469.851868 192.492909 
L 470.030098 192.012727 
L 471.634168 192.012727 
L 471.812398 192.492909 
L 471.990628 192.012727 
L 472.525318 192.012727 
L 472.703548 192.492909 
L 472.881778 192.012727 
L 475.376998 192.012727 
L 475.555228 192.492909 
L 475.733458 192.012727 
L 476.268148 192.012727 
L 476.446378 192.492909 
L 476.802838 193.933455 
L 476.981069 194.413636 
L 477.159299 194.413636 
L 477.515759 195.374 
L 477.693989 195.374 
L 478.406909 197.294727 
L 478.585139 197.294727 
L 478.763369 197.774909 
L 479.119829 199.215455 
L 479.298059 199.695636 
L 479.832749 202.096545 
L 480.010979 202.576727 
L 480.902129 206.898364 
L 481.258589 206.898364 
L 481.436819 207.378545 
L 482.149739 207.378545 
L 482.327969 206.898364 
L 482.506199 207.378545 
L 482.684429 206.898364 
L 482.862659 207.378545 
L 483.040889 207.378545 
L 483.219119 206.898364 
L 493.2 206.898364 
L 493.2 206.898364 
" clip-path="url(#p1b1d289293)" style="fill: none; stroke: #1f77b4; stroke-width: 1.5; stroke-linecap: square"/>
   </g>
   <g id="line2d_24">
    <path d="M 56.18 211.22 
L 493.2 211.22 
" clip-path="url(#p1b1d289293)" style="fill: none; stroke-dasharray: 2.96,1.28; stroke-dashoffset: 0; stroke: #808080; stroke-width: 0.8"/>
   </g>
   <g id="patch_6">
    <path d="M 56.18 264.04 
L 56.18 158.4 
" style="fill: none; stroke: #000000; stroke-width: 0.8; stroke-linejoin: miter; stroke-linecap: square"/>
   </g>
   <g id="patch_7">
    <path d="M 56.18 264.04 
L 493.2 264.04 
" style="fill: none; stroke: #000000; stroke-width: 0.8; stroke-linejoin: miter; stroke-linecap: square"/>
   </g>
  </g>
 </g>
 <defs>
  <clipPath id="pee94aa7084">
   <rect x="56.18" y="10.8" width="437.02" height="105.64"/>
  </clipPath>
  <clipPath id="p1b1d289293">
   <rect x="56.18" y="158.4" width="437.02" height="105.64"/>
  </clipPath>
 </defs>
</svg>
