<?xml version="1.0" encoding="utf-8" standalone="no"?>
<!DOCTYPE svg PUBLIC "-//W3C//DTD SVG 1.1//EN"
  "http://www.w3.org/Graphics/SVG/1.1/DTD/svg11.dtd">
<svg xmlns:xlink="http://www.w3.org/1999/xlink" width="504pt" height="306pt" viewBox="0 0 504 306" xmlns="http://www.w3.org/2000/svg" version="1.1">
 <metadata>
  <rdf:RDF xmlns:dc="http://purl.org/dc/elements/1.1/" xmlns:cc="http://creativecommons.org/ns#" xmlns:rdf="http://www.w3.org/1999/02/22-rdf-syntax-ns#">
   <cc:Work>
    <dc:type rdf:resource="http://purl.org/dc/dcmitype/StillImage"/>
    <dc:date>2024-06-16T21:02:10.236239</dc:date>
    <dc:format>image/svg+xml</dc:format>
    <dc:creator>
     <cc:Agent>
      <dc:title>Matplotlib v3.8.3, https://matplotlib.org/</dc:title>
     </cc:Agent>
    </dc:creator>
   </cc:Work>
  </rdf:RDF>
 </metadata>
 <defs>
  <style type="text/css">*{stroke-linejoin: round; stroke-linecap: butt}</style>
 </defs>
 <g id="figure_1">
  <g id="patch_1">
   <path d="M 0 306 
L 504 306 
L 504 0 
L 0 0 
z
" style="fill: #ffffff"/>
  </g>
  <g id="axes_1">
   <g id="patch_2">
    <path d="M 56.18 116.44 
L 493.2 116.44 
L 493.2 10.8 
L 56.18 10.8 
z
" style="fill: #ffffff"/>
   </g>
   <g id="matplotlib.axis_1">
    <g id="xtick_1">
     <g id="line2d_1">
      <defs>
       <path id="m3aabe3123a" d="M 0 0 
L 0 3.5 
" style="stroke: #000000; stroke-width: 0.8"/>
      </defs>
      <g>
       <use xlink:href="#m3aabe3123a" x="56.18" y="116.44" style="stroke: #000000; stroke-width: 0.8"/>
      </g>
     </g>
     <g id="text_1">
      <!-- 0 -->
      <g transform="translate(52.99875 131.038437) scale(0.1 -0.1)">
       <defs>
        <path id="DejaVuSans-30" d="M 2034 4250 
Q 1547 4250 1301 3770 
Q 1056 3291 1056 2328 
Q 1056 1369 1301 889 
Q 1547 409 2034 409 
Q 2525 409 2770 889 
Q 3016 1369 3016 2328 
Q 3016 3291 2770 3770 
Q 2525 4250 2034 4250 
z
M 2034 4750 
Q 2819 4750 3233 4129 
Q 3647 3509 3647 2328 
Q 3647 1150 3233 529 
Q 2819 -91 2034 -91 
Q 1250 -91 836 529 
Q 422 1150 422 2328 
Q 422 3509 836 4129 
Q 1250 4750 2034 4750 
z
" transform="scale(0.015625)"/>
       </defs>
       <use xlink:href="#DejaVuSans-30"/>
      </g>
     </g>
    </g>
    <g id="xtick_2">
     <g id="line2d_2">
      <g>
       <use xlink:href="#m3aabe3123a" x="123.310568" y="116.44" style="stroke: #000000; stroke-width: 0.8"/>
      </g>
     </g>
     <g id="text_2">
      <!-- 1000 -->
      <g transform="translate(110.585568 131.038437) scale(0.1 -0.1)">
       <defs>
        <path id="DejaVuSans-31" d="M 794 531 
L 1825 531 
L 1825 4091 
L 703 3866 
L 703 4441 
L 1819 4666 
L 2450 4666 
L 2450 531 
L 3481 531 
L 3481 0 
L 794 0 
L 794 531 
z
" transform="scale(0.015625)"/>
       </defs>
       <use xlink:href="#DejaVuSans-31"/>
       <use xlink:href="#DejaVuSans-30" x="63.623047"/>
       <use xlink:href="#DejaVuSans-30" x="127.246094"/>
       <use xlink:href="#DejaVuSans-30" x="190.869141"/>
      </g>
     </g>
    </g>
    <g id="xtick_3">
     <g id="line2d_3">
      <g>
       <use xlink:href="#m3aabe3123a" x="190.441137" y="116.44" style="stroke: #000000; stroke-width: 0.8"/>
      </g>
     </g>
     <g id="text_3">
      <!-- 2000 -->
      <g transform="translate(177.716137 131.038437) scale(0.1 -0.1)">
       <defs>
        <path id="DejaVuSans-32" d="M 1228 531 
L 3431 531 
L 3431 0 
L 469 0 
L 469 531 
Q 828 903 1448 1529 
Q 2069 2156 2228 2338 
Q 2531 2678 2651 2914 
Q 2772 3150 2772 3378 
Q 2772 3750 2511 3984 
Q 2250 4219 1831 4219 
Q 1534 4219 1204 4116 
Q 875 4013 500 3803 
L 500 4441 
Q 881 4594 1212 4672 
Q 1544 4750 1819 4750 
Q 2544 4750 2975 4387 
Q 3406 4025 3406 3419 
Q 3406 3131 3298 2873 
Q 3191 2616 2906 2266 
Q 2828 2175 2409 1742 
Q 1991 1309 1228 531 
z
" transform="scale(0.015625)"/>
       </defs>
       <use xlink:href="#DejaVuSans-32"/>
       <use xlink:href="#DejaVuSans-30" x="63.623047"/>
       <use xlink:href="#DejaVuSans-30" x="127.246094"/>
       <use xlink:href="#DejaVuSans-30" x="190.869141"/>
      </g>
     </g>
    </g>
    <g id="xtick_4">
     <g id="line2d_4">
      <g>
       <use xlink:href="#m3aabe3123a" x="257.571705" y="116.44" style="stroke: #000000; stroke-width: 0.8"/>
      </g>
     </g>
     <g id="text_4">
      <!-- 3000 -->
      <g transform="translate(244.846705 131.038437) scale(0.1 -0.1)">
       <defs>
        <path id="DejaVuSans-33" d="M 2597 2516 
Q 3050 2419 3304 2112 
Q 3559 1806 3559 1356 
Q 3559 666 3084 287 
Q 2609 -91 1734 -91 
Q 1441 -91 1130 -33 
Q 819 25 488 141 
L 488 750 
Q 750 597 1062 519 
Q 1375 441 1716 441 
Q 2309 441 2620 675 
Q 2931 909 2931 1356 
Q 2931 1769 2642 2001 
Q 2353 2234 1838 2234 
L 1294 2234 
L 1294 2753 
L 1863 2753 
Q 2328 2753 2575 2939 
Q 2822 3125 2822 3475 
Q 2822 3834 2567 4026 
Q 2313 4219 1838 4219 
Q 1578 4219 1281 4162 
Q 984 4106 628 3988 
L 628 4550 
Q 988 4650 1302 4700 
Q 1616 4750 1894 4750 
Q 2613 4750 3031 4423 
Q 3450 4097 3450 3541 
Q 3450 3153 3228 2886 
Q 3006 2619 2597 2516 
z
" transform="scale(0.015625)"/>
       </defs>
       <use xlink:href="#DejaVuSans-33"/>
       <use xlink:href="#DejaVuSans-30" x="63.623047"/>
       <use xlink:href="#DejaVuSans-30" x="127.246094"/>
       <use xlink:href="#DejaVuSans-30" x="190.869141"/>
      </g>
     </g>
    </g>
    <g id="xtick_5">
     <g id="line2d_5">
      <g>
       <use xlink:href="#m3aabe3123a" x="324.702273" y="116.44" style="stroke: #000000; stroke-width: 0.8"/>
      </g>
     </g>
     <g id="text_5">
      <!-- 4000 -->
      <g transform="translate(311.977273 131.038437) scale(0.1 -0.1)">
       <defs>
        <path id="DejaVuSans-34" d="M 2419 4116 
L 825 1625 
L 2419 1625 
L 2419 4116 
z
M 2253 4666 
L 3047 4666 
L 3047 1625 
L 3713 1625 
L 3713 1100 
L 3047 1100 
L 3047 0 
L 2419 0 
L 2419 1100 
L 313 1100 
L 313 1709 
L 2253 4666 
z
" transform="scale(0.015625)"/>
       </defs>
       <use xlink:href="#DejaVuSans-34"/>
       <use xlink:href="#DejaVuSans-30" x="63.623047"/>
       <use xlink:href="#DejaVuSans-30" x="127.246094"/>
       <use xlink:href="#DejaVuSans-30" x="190.869141"/>
      </g>
     </g>
    </g>
    <g id="xtick_6">
     <g id="line2d_6">
      <g>
       <use xlink:href="#m3aabe3123a" x="391.832842" y="116.44" style="stroke: #000000; stroke-width: 0.8"/>
      </g>
     </g>
     <g id="text_6">
      <!-- 5000 -->
      <g transform="translate(379.107842 131.038437) scale(0.1 -0.1)">
       <defs>
        <path id="DejaVuSans-35" d="M 691 4666 
L 3169 4666 
L 3169 4134 
L 1269 4134 
L 1269 2991 
Q 1406 3038 1543 3061 
Q 1681 3084 1819 3084 
Q 2600 3084 3056 2656 
Q 3513 2228 3513 1497 
Q 3513 744 3044 326 
Q 2575 -91 1722 -91 
Q 1428 -91 1123 -41 
Q 819 9 494 109 
L 494 744 
Q 775 591 1075 516 
Q 1375 441 1709 441 
Q 2250 441 2565 725 
Q 2881 1009 2881 1497 
Q 2881 1984 2565 2268 
Q 2250 2553 1709 2553 
Q 1456 2553 1204 2497 
Q 953 2441 691 2322 
L 691 4666 
z
" transform="scale(0.015625)"/>
       </defs>
       <use xlink:href="#DejaVuSans-35"/>
       <use xlink:href="#DejaVuSans-30" x="63.623047"/>
       <use xlink:href="#DejaVuSans-30" x="127.246094"/>
       <use xlink:href="#DejaVuSans-30" x="190.869141"/>
      </g>
     </g>
    </g>
    <g id="xtick_7">
     <g id="line2d_7">
      <g>
       <use xlink:href="#m3aabe3123a" x="458.96341" y="116.44" style="stroke: #000000; stroke-width: 0.8"/>
      </g>
     </g>
     <g id="text_7">
      <!-- 6000 -->
      <g transform="translate(446.23841 131.038437) scale(0.1 -0.1)">
       <defs>
        <path id="DejaVuSans-36" d="M 2113 2584 
Q 1688 2584 1439 2293 
Q 1191 2003 1191 1497 
Q 1191 994 1439 701 
Q 1688 409 2113 409 
Q 2538 409 2786 701 
Q 3034 994 3034 1497 
Q 3034 2003 2786 2293 
Q 2538 2584 2113 2584 
z
M 3366 4563 
L 3366 3988 
Q 3128 4100 2886 4159 
Q 2644 4219 2406 4219 
Q 1781 4219 1451 3797 
Q 1122 3375 1075 2522 
Q 1259 2794 1537 2939 
Q 1816 3084 2150 3084 
Q 2853 3084 3261 2657 
Q 3669 2231 3669 1497 
Q 3669 778 3244 343 
Q 2819 -91 2113 -91 
Q 1303 -91 875 529 
Q 447 1150 447 2328 
Q 447 3434 972 4092 
Q 1497 4750 2381 4750 
Q 2619 4750 2861 4703 
Q 3103 4656 3366 4563 
z
" transform="scale(0.015625)"/>
       </defs>
       <use xlink:href="#DejaVuSans-36"/>
       <use xlink:href="#DejaVuSans-30" x="63.623047"/>
       <use xlink:href="#DejaVuSans-30" x="127.246094"/>
       <use xlink:href="#DejaVuSans-30" x="190.869141"/>
      </g>
     </g>
    </g>
    <g id="text_8">
     <!-- Time (ms) -->
     <g transform="translate(249.490781 144.716562) scale(0.1 -0.1)">
      <defs>
       <path id="DejaVuSans-54" d="M -19 4666 
L 3928 4666 
L 3928 4134 
L 2272 4134 
L 2272 0 
L 1638 0 
L 1638 4134 
L -19 4134 
L -19 4666 
z
" transform="scale(0.015625)"/>
       <path id="DejaVuSans-69" d="M 603 3500 
L 1178 3500 
L 1178 0 
L 603 0 
L 603 3500 
z
M 603 4863 
L 1178 4863 
L 1178 4134 
L 603 4134 
L 603 4863 
z
" transform="scale(0.015625)"/>
       <path id="DejaVuSans-6d" d="M 3328 2828 
Q 3544 3216 3844 3400 
Q 4144 3584 4550 3584 
Q 5097 3584 5394 3201 
Q 5691 2819 5691 2113 
L 5691 0 
L 5113 0 
L 5113 2094 
Q 5113 2597 4934 2840 
Q 4756 3084 4391 3084 
Q 3944 3084 3684 2787 
Q 3425 2491 3425 1978 
L 3425 0 
L 2847 0 
L 2847 2094 
Q 2847 2600 2669 2842 
Q 2491 3084 2119 3084 
Q 1678 3084 1418 2786 
Q 1159 2488 1159 1978 
L 1159 0 
L 581 0 
L 581 3500 
L 1159 3500 
L 1159 2956 
Q 1356 3278 1631 3431 
Q 1906 3584 2284 3584 
Q 2666 3584 2933 3390 
Q 3200 3197 3328 2828 
z
" transform="scale(0.015625)"/>
       <path id="DejaVuSans-65" d="M 3597 1894 
L 3597 1613 
L 953 1613 
Q 991 1019 1311 708 
Q 1631 397 2203 397 
Q 2534 397 2845 478 
Q 3156 559 3463 722 
L 3463 178 
Q 3153 47 2828 -22 
Q 2503 -91 2169 -91 
Q 1331 -91 842 396 
Q 353 884 353 1716 
Q 353 2575 817 3079 
Q 1281 3584 2069 3584 
Q 2775 3584 3186 3129 
Q 3597 2675 3597 1894 
z
M 3022 2063 
Q 3016 2534 2758 2815 
Q 2500 3097 2075 3097 
Q 1594 3097 1305 2825 
Q 1016 2553 972 2059 
L 3022 2063 
z
" transform="scale(0.015625)"/>
       <path id="DejaVuSans-20" transform="scale(0.015625)"/>
       <path id="DejaVuSans-28" d="M 1984 4856 
Q 1566 4138 1362 3434 
Q 1159 2731 1159 2009 
Q 1159 1288 1364 580 
Q 1569 -128 1984 -844 
L 1484 -844 
Q 1016 -109 783 600 
Q 550 1309 550 2009 
Q 550 2706 781 3412 
Q 1013 4119 1484 4856 
L 1984 4856 
z
" transform="scale(0.015625)"/>
       <path id="DejaVuSans-73" d="M 2834 3397 
L 2834 2853 
Q 2591 2978 2328 3040 
Q 2066 3103 1784 3103 
Q 1356 3103 1142 2972 
Q 928 2841 928 2578 
Q 928 2378 1081 2264 
Q 1234 2150 1697 2047 
L 1894 2003 
Q 2506 1872 2764 1633 
Q 3022 1394 3022 966 
Q 3022 478 2636 193 
Q 2250 -91 1575 -91 
Q 1294 -91 989 -36 
Q 684 19 347 128 
L 347 722 
Q 666 556 975 473 
Q 1284 391 1588 391 
Q 1994 391 2212 530 
Q 2431 669 2431 922 
Q 2431 1156 2273 1281 
Q 2116 1406 1581 1522 
L 1381 1569 
Q 847 1681 609 1914 
Q 372 2147 372 2553 
Q 372 3047 722 3315 
Q 1072 3584 1716 3584 
Q 2034 3584 2315 3537 
Q 2597 3491 2834 3397 
z
" transform="scale(0.015625)"/>
       <path id="DejaVuSans-29" d="M 513 4856 
L 1013 4856 
Q 1481 4119 1714 3412 
Q 1947 2706 1947 2009 
Q 1947 1309 1714 600 
Q 1481 -109 1013 -844 
L 513 -844 
Q 928 -128 1133 580 
Q 1338 1288 1338 2009 
Q 1338 2731 1133 3434 
Q 928 4138 513 4856 
z
" transform="scale(0.015625)"/>
      </defs>
      <use xlink:href="#DejaVuSans-54"/>
      <use xlink:href="#DejaVuSans-69" x="57.958984"/>
      <use xlink:href="#DejaVuSans-6d" x="85.742188"/>
      <use xlink:href="#DejaVuSans-65" x="183.154297"/>
      <use xlink:href="#DejaVuSans-20" x="244.677734"/>
      <use xlink:href="#DejaVuSans-28" x="276.464844"/>
      <use xlink:href="#DejaVuSans-6d" x="315.478516"/>
      <use xlink:href="#DejaVuSans-73" x="412.890625"/>
      <use xlink:href="#DejaVuSans-29" x="464.990234"/>
     </g>
    </g>
   </g>
   <g id="matplotlib.axis_2">
    <g id="ytick_1">
     <g id="line2d_8">
      <defs>
       <path id="m16acabe68b" d="M 0 0 
L -3.5 0 
" style="stroke: #000000; stroke-width: 0.8"/>
      </defs>
      <g>
       <use xlink:href="#m16acabe68b" x="56.18" y="111.638182" style="stroke: #000000; stroke-width: 0.8"/>
      </g>
     </g>
     <g id="text_9">
      <!-- −1.0 -->
      <g transform="translate(24.897188 115.437401) scale(0.1 -0.1)">
       <defs>
        <path id="DejaVuSans-2212" d="M 678 2272 
L 4684 2272 
L 4684 1741 
L 678 1741 
L 678 2272 
z
" transform="scale(0.015625)"/>
        <path id="DejaVuSans-2e" d="M 684 794 
L 1344 794 
L 1344 0 
L 684 0 
L 684 794 
z
" transform="scale(0.015625)"/>
       </defs>
       <use xlink:href="#DejaVuSans-2212"/>
       <use xlink:href="#DejaVuSans-31" x="83.789062"/>
       <use xlink:href="#DejaVuSans-2e" x="147.412109"/>
       <use xlink:href="#DejaVuSans-30" x="179.199219"/>
      </g>
     </g>
    </g>
    <g id="ytick_2">
     <g id="line2d_9">
      <g>
       <use xlink:href="#m16acabe68b" x="56.18" y="87.629091" style="stroke: #000000; stroke-width: 0.8"/>
      </g>
     </g>
     <g id="text_10">
      <!-- −0.5 -->
      <g transform="translate(24.897188 91.42831) scale(0.1 -0.1)">
       <use xlink:href="#DejaVuSans-2212"/>
       <use xlink:href="#DejaVuSans-30" x="83.789062"/>
       <use xlink:href="#DejaVuSans-2e" x="147.412109"/>
       <use xlink:href="#DejaVuSans-35" x="179.199219"/>
      </g>
     </g>
    </g>
    <g id="ytick_3">
     <g id="line2d_10">
      <g>
       <use xlink:href="#m16acabe68b" x="56.18" y="63.62" style="stroke: #000000; stroke-width: 0.8"/>
      </g>
     </g>
     <g id="text_11">
      <!-- 0.0 -->
      <g transform="translate(33.276875 67.419219) scale(0.1 -0.1)">
       <use xlink:href="#DejaVuSans-30"/>
       <use xlink:href="#DejaVuSans-2e" x="63.623047"/>
       <use xlink:href="#DejaVuSans-30" x="95.410156"/>
      </g>
     </g>
    </g>
    <g id="ytick_4">
     <g id="line2d_11">
      <g>
       <use xlink:href="#m16acabe68b" x="56.18" y="39.610909" style="stroke: #000000; stroke-width: 0.8"/>
      </g>
     </g>
     <g id="text_12">
      <!-- 0.5 -->
      <g transform="translate(33.276875 43.410128) scale(0.1 -0.1)">
       <use xlink:href="#DejaVuSans-30"/>
       <use xlink:href="#DejaVuSans-2e" x="63.623047"/>
       <use xlink:href="#DejaVuSans-35" x="95.410156"/>
      </g>
     </g>
    </g>
    <g id="ytick_5">
     <g id="line2d_12">
      <g>
       <use xlink:href="#m16acabe68b" x="56.18" y="15.601818" style="stroke: #000000; stroke-width: 0.8"/>
      </g>
     </g>
     <g id="text_13">
      <!-- 1.0 -->
      <g transform="translate(33.276875 19.401037) scale(0.1 -0.1)">
       <use xlink:href="#DejaVuSans-31"/>
       <use xlink:href="#DejaVuSans-2e" x="63.623047"/>
       <use xlink:href="#DejaVuSans-30" x="95.410156"/>
      </g>
     </g>
    </g>
    <g id="text_14">
     <!-- X-Axis Value -->
     <g transform="translate(18.8175 94.180156) rotate(-90) scale(0.1 -0.1)">
      <defs>
       <path id="DejaVuSans-58" d="M 403 4666 
L 1081 4666 
L 2241 2931 
L 3406 4666 
L 4084 4666 
L 2584 2425 
L 4184 0 
L 3506 0 
L 2194 1984 
L 872 0 
L 191 0 
L 1856 2491 
L 403 4666 
z
" transform="scale(0.015625)"/>
       <path id="DejaVuSans-2d" d="M 313 2009 
L 1997 2009 
L 1997 1497 
L 313 1497 
L 313 2009 
z
" transform="scale(0.015625)"/>
       <path id="DejaVuSans-41" d="M 2188 4044 
L 1331 1722 
L 3047 1722 
L 2188 4044 
z
M 1831 4666 
L 2547 4666 
L 4325 0 
L 3669 0 
L 3244 1197 
L 1141 1197 
L 716 0 
L 50 0 
L 1831 4666 
z
" transform="scale(0.015625)"/>
       <path id="DejaVuSans-78" d="M 3513 3500 
L 2247 1797 
L 3578 0 
L 2900 0 
L 1881 1375 
L 863 0 
L 184 0 
L 1544 1831 
L 300 3500 
L 978 3500 
L 1906 2253 
L 2834 3500 
L 3513 3500 
z
" transform="scale(0.015625)"/>
       <path id="DejaVuSans-56" d="M 1831 0 
L 50 4666 
L 709 4666 
L 2188 738 
L 3669 4666 
L 4325 4666 
L 2547 0 
L 1831 0 
z
" transform="scale(0.015625)"/>
       <path id="DejaVuSans-61" d="M 2194 1759 
Q 1497 1759 1228 1600 
Q 959 1441 959 1056 
Q 959 750 1161 570 
Q 1363 391 1709 391 
Q 2188 391 2477 730 
Q 2766 1069 2766 1631 
L 2766 1759 
L 2194 1759 
z
M 3341 1997 
L 3341 0 
L 2766 0 
L 2766 531 
Q 2569 213 2275 61 
Q 1981 -91 1556 -91 
Q 1019 -91 701 211 
Q 384 513 384 1019 
Q 384 1609 779 1909 
Q 1175 2209 1959 2209 
L 2766 2209 
L 2766 2266 
Q 2766 2663 2505 2880 
Q 2244 3097 1772 3097 
Q 1472 3097 1187 3025 
Q 903 2953 641 2809 
L 641 3341 
Q 956 3463 1253 3523 
Q 1550 3584 1831 3584 
Q 2591 3584 2966 3190 
Q 3341 2797 3341 1997 
z
" transform="scale(0.015625)"/>
       <path id="DejaVuSans-6c" d="M 603 4863 
L 1178 4863 
L 1178 0 
L 603 0 
L 603 4863 
z
" transform="scale(0.015625)"/>
       <path id="DejaVuSans-75" d="M 544 1381 
L 544 3500 
L 1119 3500 
L 1119 1403 
Q 1119 906 1312 657 
Q 1506 409 1894 409 
Q 2359 409 2629 706 
Q 2900 1003 2900 1516 
L 2900 3500 
L 3475 3500 
L 3475 0 
L 2900 0 
L 2900 538 
Q 2691 219 2414 64 
Q 2138 -91 1772 -91 
Q 1169 -91 856 284 
Q 544 659 544 1381 
z
M 1991 3584 
L 1991 3584 
z
" transform="scale(0.015625)"/>
      </defs>
      <use xlink:href="#DejaVuSans-58"/>
      <use xlink:href="#DejaVuSans-2d" x="63.505859"/>
      <use xlink:href="#DejaVuSans-41" x="97.339844"/>
      <use xlink:href="#DejaVuSans-78" x="165.748047"/>
      <use xlink:href="#DejaVuSans-69" x="224.927734"/>
      <use xlink:href="#DejaVuSans-73" x="252.710938"/>
      <use xlink:href="#DejaVuSans-20" x="304.810547"/>
      <use xlink:href="#DejaVuSans-56" x="336.597656"/>
      <use xlink:href="#DejaVuSans-61" x="397.255859"/>
      <use xlink:href="#DejaVuSans-6c" x="458.535156"/>
      <use xlink:href="#DejaVuSans-75" x="486.318359"/>
      <use xlink:href="#DejaVuSans-65" x="549.697266"/>
     </g>
    </g>
   </g>
   <g id="line2d_13">
    <path d="M 56.18 64.580364 
L 68.263502 64.580364 
L 68.934808 65.060545 
L 69.606114 64.580364 
L 70.277419 64.580364 
L 70.948725 65.060545 
L 71.620031 65.060545 
L 72.291336 64.580364 
L 79.004393 64.580364 
L 79.675699 64.100182 
L 80.347005 64.580364 
L 83.032227 64.580364 
L 83.703533 64.100182 
L 85.046144 64.100182 
L 85.71745 64.580364 
L 86.388756 64.100182 
L 111.227066 64.100182 
L 112.569677 63.139818 
L 113.240983 63.139818 
L 113.912289 62.659636 
L 114.583594 62.659636 
L 115.2549 61.699273 
L 117.940123 61.699273 
L 118.611429 61.219091 
L 157.547158 61.219091 
L 159.561075 59.778545 
L 160.903687 59.778545 
L 161.574992 59.298364 
L 162.246298 58.338 
L 162.917604 58.338 
L 163.588909 57.377636 
L 165.602826 55.937091 
L 166.274132 55.937091 
L 168.288049 54.496545 
L 168.959355 54.496545 
L 170.973272 53.056 
L 171.644578 53.056 
L 172.315883 52.575818 
L 172.987189 51.615455 
L 173.658495 51.615455 
L 175.001106 50.655091 
L 175.672412 49.694727 
L 178.357634 47.774 
L 179.02894 47.774 
L 180.371551 46.813636 
L 181.042857 46.813636 
L 181.714163 46.333455 
L 183.056774 46.333455 
L 183.72808 45.853273 
L 186.413303 45.853273 
L 187.084608 45.373091 
L 187.755914 45.373091 
L 188.42722 44.892909 
L 189.098525 44.892909 
L 189.769831 44.412727 
L 191.112442 44.412727 
L 191.783748 43.932545 
L 192.455054 43.932545 
L 193.126359 43.452364 
L 193.797665 43.452364 
L 194.468971 42.972182 
L 195.140276 42.972182 
L 195.811582 42.492 
L 197.154194 42.492 
L 197.825499 42.011818 
L 199.839416 42.011818 
L 200.510722 41.531636 
L 201.182028 42.011818 
L 201.853333 41.531636 
L 208.56639 41.531636 
L 209.237696 41.051455 
L 209.909002 41.531636 
L 216.622058 41.531636 
L 217.293364 42.011818 
L 219.978587 42.011818 
L 220.649892 42.492 
L 221.992504 42.492 
L 222.66381 42.972182 
L 223.335115 42.972182 
L 224.677727 43.932545 
L 225.349032 43.932545 
L 227.362949 45.373091 
L 228.705561 45.373091 
L 229.376866 45.853273 
L 230.048172 45.853273 
L 230.719478 46.333455 
L 232.062089 46.333455 
L 232.733395 46.813636 
L 233.4047 46.813636 
L 234.076006 47.293818 
L 234.747312 47.293818 
L 235.418618 47.774 
L 236.761229 47.774 
L 238.10384 48.734364 
L 238.775146 48.254182 
L 239.446452 48.734364 
L 240.789063 48.734364 
L 241.460369 49.214545 
L 242.80298 49.214545 
L 244.145591 50.174909 
L 244.816897 50.174909 
L 246.159508 51.135273 
L 247.50212 51.135273 
L 248.173425 51.615455 
L 248.844731 51.615455 
L 249.516037 52.095636 
L 250.187343 52.095636 
L 250.858648 52.575818 
L 251.529954 53.536182 
L 252.20126 54.016364 
L 252.872565 54.976727 
L 255.557788 60.738909 
L 258.914316 65.540727 
L 260.256928 66.501091 
L 260.928233 66.501091 
L 261.599539 66.981273 
L 262.270845 66.981273 
L 262.942151 67.461455 
L 263.613456 67.461455 
L 264.956068 68.421818 
L 266.298679 68.421818 
L 268.312596 69.862364 
L 268.983902 69.862364 
L 273.011736 72.743455 
L 273.683041 72.743455 
L 275.025653 73.703818 
L 276.368264 73.703818 
L 277.03957 74.184 
L 277.710876 74.184 
L 283.081321 78.025455 
L 283.752627 78.025455 
L 284.423932 78.505636 
L 285.095238 78.505636 
L 285.766544 78.985818 
L 286.437849 78.985818 
L 288.451767 80.426364 
L 289.794378 80.426364 
L 290.465684 80.906545 
L 291.136989 80.906545 
L 291.808295 81.386727 
L 292.479601 81.386727 
L 293.150906 81.866909 
L 293.822212 81.866909 
L 294.493518 82.347091 
L 295.836129 82.347091 
L 296.507435 82.827273 
L 297.17874 82.827273 
L 297.850046 83.307455 
L 299.192657 83.307455 
L 299.863963 83.787636 
L 301.206575 83.787636 
L 301.87788 84.267818 
L 303.220492 84.267818 
L 303.891797 84.748 
L 316.646605 84.748 
L 317.317911 84.267818 
L 320.003134 84.267818 
L 320.674439 83.787636 
L 322.017051 83.787636 
L 322.688356 83.307455 
L 324.702273 83.307455 
L 325.373579 82.827273 
L 326.044885 82.827273 
L 328.730108 80.906545 
L 329.401413 79.946182 
L 330.072719 79.466 
L 330.744025 79.466 
L 331.41533 78.505636 
L 332.086636 78.025455 
L 332.757942 78.025455 
L 336.11447 75.624545 
L 336.785776 75.624545 
L 338.128387 74.664182 
L 338.799693 74.664182 
L 340.81361 73.223636 
L 341.484916 73.223636 
L 342.156221 72.263273 
L 344.841444 70.342545 
L 345.51275 70.342545 
L 346.855361 69.382182 
L 347.526667 69.382182 
L 349.540584 67.941636 
L 350.211889 67.941636 
L 357.596252 62.659636 
L 358.267558 62.659636 
L 358.938863 62.179455 
L 372.364977 62.179455 
L 373.036283 61.699273 
L 373.707588 62.179455 
L 392.504147 62.179455 
L 393.175453 62.659636 
L 393.846759 62.179455 
L 395.18937 62.179455 
L 395.860676 62.659636 
L 399.217204 62.659636 
L 399.88851 63.139818 
L 400.559816 63.139818 
L 401.231121 63.62 
L 412.643318 63.62 
L 413.314624 64.100182 
L 413.985929 63.62 
L 414.657235 64.100182 
L 420.698986 64.100182 
L 421.370292 64.580364 
L 422.041598 64.100182 
L 422.712903 64.580364 
L 428.754654 64.580364 
L 429.42596 65.060545 
L 430.097266 64.580364 
L 430.768571 64.580364 
L 431.439877 65.060545 
L 432.111183 64.580364 
L 453.592965 64.580364 
L 454.26427 64.100182 
L 454.935576 64.580364 
L 455.606882 64.100182 
L 456.278187 64.100182 
L 456.949493 64.580364 
L 457.620799 64.100182 
L 458.292104 64.580364 
L 459.634716 64.580364 
L 460.306022 64.100182 
L 462.319939 64.100182 
L 462.991244 64.580364 
L 463.66255 64.580364 
L 464.333856 64.100182 
L 465.005161 64.100182 
L 465.676467 64.580364 
L 471.046912 64.580364 
L 471.718218 64.100182 
L 472.389524 64.100182 
L 473.060829 64.580364 
L 473.732135 64.580364 
L 474.403441 64.100182 
L 475.074747 64.580364 
L 476.417358 64.580364 
L 477.088664 64.100182 
L 478.431275 64.100182 
L 479.102581 64.580364 
L 479.773886 64.100182 
L 480.445192 64.580364 
L 481.116498 64.580364 
L 481.787803 64.100182 
L 482.459109 64.580364 
L 483.130415 64.100182 
L 483.80172 64.580364 
L 484.473026 64.100182 
L 485.144332 64.100182 
L 485.815637 64.580364 
L 486.486943 64.100182 
L 487.829555 64.100182 
L 488.50086 64.580364 
L 490.514777 64.580364 
L 491.186083 64.100182 
L 493.2 64.100182 
L 493.2 64.100182 
" clip-path="url(#pe9829dd421)" style="fill: none; stroke: #1f77b4; stroke-width: 1.5; stroke-linecap: square"/>
   </g>
   <g id="line2d_14">
    <path d="M 56.18 63.62 
L 493.2 63.62 
" clip-path="url(#pe9829dd421)" style="fill: none; stroke-dasharray: 2.96,1.28; stroke-dashoffset: 0; stroke: #808080; stroke-width: 0.8"/>
   </g>
   <g id="patch_3">
    <path d="M 56.18 116.44 
L 56.18 10.8 
" style="fill: none; stroke: #000000; stroke-width: 0.8; stroke-linejoin: miter; stroke-linecap: square"/>
   </g>
   <g id="patch_4">
    <path d="M 56.18 116.44 
L 493.2 116.44 
" style="fill: none; stroke: #000000; stroke-width: 0.8; stroke-linejoin: miter; stroke-linecap: square"/>
   </g>
  </g>
  <g id="axes_2">
   <g id="patch_5">
    <path d="M 56.18 264.04 
L 493.2 264.04 
L 493.2 158.4 
L 56.18 158.4 
z
" style="fill: #ffffff"/>
   </g>
   <g id="matplotlib.axis_3">
    <g id="xtick_8">
     <g id="line2d_15">
      <g>
       <use xlink:href="#m3aabe3123a" x="56.18" y="264.04" style="stroke: #000000; stroke-width: 0.8"/>
      </g>
     </g>
     <g id="text_15">
      <!-- 0 -->
      <g transform="translate(52.99875 278.638438) scale(0.1 -0.1)">
       <use xlink:href="#DejaVuSans-30"/>
      </g>
     </g>
    </g>
    <g id="xtick_9">
     <g id="line2d_16">
      <g>
       <use xlink:href="#m3aabe3123a" x="123.310568" y="264.04" style="stroke: #000000; stroke-width: 0.8"/>
      </g>
     </g>
     <g id="text_16">
      <!-- 1000 -->
      <g transform="translate(110.585568 278.638438) scale(0.1 -0.1)">
       <use xlink:href="#DejaVuSans-31"/>
       <use xlink:href="#DejaVuSans-30" x="63.623047"/>
       <use xlink:href="#DejaVuSans-30" x="127.246094"/>
       <use xlink:href="#DejaVuSans-30" x="190.869141"/>
      </g>
     </g>
    </g>
    <g id="xtick_10">
     <g id="line2d_17">
      <g>
       <use xlink:href="#m3aabe3123a" x="190.441137" y="264.04" style="stroke: #000000; stroke-width: 0.8"/>
      </g>
     </g>
     <g id="text_17">
      <!-- 2000 -->
      <g transform="translate(177.716137 278.638438) scale(0.1 -0.1)">
       <use xlink:href="#DejaVuSans-32"/>
       <use xlink:href="#DejaVuSans-30" x="63.623047"/>
       <use xlink:href="#DejaVuSans-30" x="127.246094"/>
       <use xlink:href="#DejaVuSans-30" x="190.869141"/>
      </g>
     </g>
    </g>
    <g id="xtick_11">
     <g id="line2d_18">
      <g>
       <use xlink:href="#m3aabe3123a" x="257.571705" y="264.04" style="stroke: #000000; stroke-width: 0.8"/>
      </g>
     </g>
     <g id="text_18">
      <!-- 3000 -->
      <g transform="translate(244.846705 278.638438) scale(0.1 -0.1)">
       <use xlink:href="#DejaVuSans-33"/>
       <use xlink:href="#DejaVuSans-30" x="63.623047"/>
       <use xlink:href="#DejaVuSans-30" x="127.246094"/>
       <use xlink:href="#DejaVuSans-30" x="190.869141"/>
      </g>
     </g>
    </g>
    <g id="xtick_12">
     <g id="line2d_19">
      <g>
       <use xlink:href="#m3aabe3123a" x="324.702273" y="264.04" style="stroke: #000000; stroke-width: 0.8"/>
      </g>
     </g>
     <g id="text_19">
      <!-- 4000 -->
      <g transform="translate(311.977273 278.638438) scale(0.1 -0.1)">
       <use xlink:href="#DejaVuSans-34"/>
       <use xlink:href="#DejaVuSans-30" x="63.623047"/>
       <use xlink:href="#DejaVuSans-30" x="127.246094"/>
       <use xlink:href="#DejaVuSans-30" x="190.869141"/>
      </g>
     </g>
    </g>
    <g id="xtick_13">
     <g id="line2d_20">
      <g>
       <use xlink:href="#m3aabe3123a" x="391.832842" y="264.04" style="stroke: #000000; stroke-width: 0.8"/>
      </g>
     </g>
     <g id="text_20">
      <!-- 5000 -->
      <g transform="translate(379.107842 278.638438) scale(0.1 -0.1)">
       <use xlink:href="#DejaVuSans-35"/>
       <use xlink:href="#DejaVuSans-30" x="63.623047"/>
       <use xlink:href="#DejaVuSans-30" x="127.246094"/>
       <use xlink:href="#DejaVuSans-30" x="190.869141"/>
      </g>
     </g>
    </g>
    <g id="xtick_14">
     <g id="line2d_21">
      <g>
       <use xlink:href="#m3aabe3123a" x="458.96341" y="264.04" style="stroke: #000000; stroke-width: 0.8"/>
      </g>
     </g>
     <g id="text_21">
      <!-- 6000 -->
      <g transform="translate(446.23841 278.638438) scale(0.1 -0.1)">
       <use xlink:href="#DejaVuSans-36"/>
       <use xlink:href="#DejaVuSans-30" x="63.623047"/>
       <use xlink:href="#DejaVuSans-30" x="127.246094"/>
       <use xlink:href="#DejaVuSans-30" x="190.869141"/>
      </g>
     </g>
    </g>
    <g id="text_22">
     <!-- Time (ms) -->
     <g transform="translate(249.490781 292.316563) scale(0.1 -0.1)">
      <use xlink:href="#DejaVuSans-54"/>
      <use xlink:href="#DejaVuSans-69" x="57.958984"/>
      <use xlink:href="#DejaVuSans-6d" x="85.742188"/>
      <use xlink:href="#DejaVuSans-65" x="183.154297"/>
      <use xlink:href="#DejaVuSans-20" x="244.677734"/>
      <use xlink:href="#DejaVuSans-28" x="276.464844"/>
      <use xlink:href="#DejaVuSans-6d" x="315.478516"/>
      <use xlink:href="#DejaVuSans-73" x="412.890625"/>
      <use xlink:href="#DejaVuSans-29" x="464.990234"/>
     </g>
    </g>
   </g>
   <g id="matplotlib.axis_4">
    <g id="ytick_6">
     <g id="line2d_22">
      <g>
       <use xlink:href="#m16acabe68b" x="56.18" y="259.238182" style="stroke: #000000; stroke-width: 0.8"/>
      </g>
     </g>
     <g id="text_23">
      <!-- −1.0 -->
      <g transform="translate(24.897188 263.037401) scale(0.1 -0.1)">
       <use xlink:href="#DejaVuSans-2212"/>
       <use xlink:href="#DejaVuSans-31" x="83.789062"/>
       <use xlink:href="#DejaVuSans-2e" x="147.412109"/>
       <use xlink:href="#DejaVuSans-30" x="179.199219"/>
      </g>
     </g>
    </g>
    <g id="ytick_7">
     <g id="line2d_23">
      <g>
       <use xlink:href="#m16acabe68b" x="56.18" y="235.229091" style="stroke: #000000; stroke-width: 0.8"/>
      </g>
     </g>
     <g id="text_24">
      <!-- −0.5 -->
      <g transform="translate(24.897188 239.02831) scale(0.1 -0.1)">
       <use xlink:href="#DejaVuSans-2212"/>
       <use xlink:href="#DejaVuSans-30" x="83.789062"/>
       <use xlink:href="#DejaVuSans-2e" x="147.412109"/>
       <use xlink:href="#DejaVuSans-35" x="179.199219"/>
      </g>
     </g>
    </g>
    <g id="ytick_8">
     <g id="line2d_24">
      <g>
       <use xlink:href="#m16acabe68b" x="56.18" y="211.22" style="stroke: #000000; stroke-width: 0.8"/>
      </g>
     </g>
     <g id="text_25">
      <!-- 0.0 -->
      <g transform="translate(33.276875 215.019219) scale(0.1 -0.1)">
       <use xlink:href="#DejaVuSans-30"/>
       <use xlink:href="#DejaVuSans-2e" x="63.623047"/>
       <use xlink:href="#DejaVuSans-30" x="95.410156"/>
      </g>
     </g>
    </g>
    <g id="ytick_9">
     <g id="line2d_25">
      <g>
       <use xlink:href="#m16acabe68b" x="56.18" y="187.210909" style="stroke: #000000; stroke-width: 0.8"/>
      </g>
     </g>
     <g id="text_26">
      <!-- 0.5 -->
      <g transform="translate(33.276875 191.010128) scale(0.1 -0.1)">
       <use xlink:href="#DejaVuSans-30"/>
       <use xlink:href="#DejaVuSans-2e" x="63.623047"/>
       <use xlink:href="#DejaVuSans-35" x="95.410156"/>
      </g>
     </g>
    </g>
    <g id="ytick_10">
     <g id="line2d_26">
      <g>
       <use xlink:href="#m16acabe68b" x="56.18" y="163.201818" style="stroke: #000000; stroke-width: 0.8"/>
      </g>
     </g>
     <g id="text_27">
      <!-- 1.0 -->
      <g transform="translate(33.276875 167.001037) scale(0.1 -0.1)">
       <use xlink:href="#DejaVuSans-31"/>
       <use xlink:href="#DejaVuSans-2e" x="63.623047"/>
       <use xlink:href="#DejaVuSans-30" x="95.410156"/>
      </g>
     </g>
    </g>
    <g id="text_28">
     <!-- Y-Axis Value -->
     <g transform="translate(18.8175 241.065313) rotate(-90) scale(0.1 -0.1)">
      <defs>
       <path id="DejaVuSans-59" d="M -13 4666 
L 666 4666 
L 1959 2747 
L 3244 4666 
L 3922 4666 
L 2272 2222 
L 2272 0 
L 1638 0 
L 1638 2222 
L -13 4666 
z
" transform="scale(0.015625)"/>
      </defs>
      <use xlink:href="#DejaVuSans-59"/>
      <use xlink:href="#DejaVuSans-2d" x="49.208984"/>
      <use xlink:href="#DejaVuSans-41" x="83.042969"/>
      <use xlink:href="#DejaVuSans-78" x="151.451172"/>
      <use xlink:href="#DejaVuSans-69" x="210.630859"/>
      <use xlink:href="#DejaVuSans-73" x="238.414062"/>
      <use xlink:href="#DejaVuSans-20" x="290.513672"/>
      <use xlink:href="#DejaVuSans-56" x="322.300781"/>
      <use xlink:href="#DejaVuSans-61" x="382.958984"/>
      <use xlink:href="#DejaVuSans-6c" x="444.238281"/>
      <use xlink:href="#DejaVuSans-75" x="472.021484"/>
      <use xlink:href="#DejaVuSans-65" x="535.400391"/>
     </g>
    </g>
   </g>
   <g id="line2d_27">
    <path d="M 56.18 206.418182 
L 60.207834 206.418182 
L 60.87914 205.938 
L 61.550445 206.418182 
L 64.906974 206.418182 
L 65.57828 205.938 
L 72.962642 205.938 
L 73.633948 206.418182 
L 86.388756 206.418182 
L 87.060061 206.898364 
L 98.472258 206.898364 
L 99.143564 206.418182 
L 99.814869 206.418182 
L 100.486175 205.938 
L 101.157481 205.938 
L 101.828786 205.457818 
L 102.500092 205.457818 
L 104.514009 204.017273 
L 105.185315 204.017273 
L 105.856621 203.537091 
L 107.199232 203.537091 
L 108.541843 201.616364 
L 109.213149 201.136182 
L 111.227066 198.255091 
L 111.898372 196.814545 
L 112.569677 196.334364 
L 113.240983 194.893818 
L 113.912289 194.413636 
L 114.583594 192.973091 
L 117.940123 188.171273 
L 118.611429 187.691091 
L 119.282734 186.730727 
L 119.95404 186.250545 
L 120.625346 186.250545 
L 121.296651 186.730727 
L 123.310568 186.730727 
L 123.981874 187.210909 
L 126.667097 187.210909 
L 127.338402 187.691091 
L 128.009708 187.210909 
L 129.35232 187.210909 
L 130.023625 187.691091 
L 130.694931 187.210909 
L 132.037542 187.210909 
L 132.708848 187.691091 
L 134.722765 187.691091 
L 135.394071 187.210909 
L 136.065376 187.210909 
L 136.736682 187.691091 
L 137.407988 187.210909 
L 138.079293 187.691091 
L 138.750599 187.691091 
L 139.421905 187.210909 
L 141.435822 187.210909 
L 142.107127 187.691091 
L 142.778433 187.210909 
L 150.162796 187.210909 
L 150.834101 187.691091 
L 151.505407 187.210909 
L 157.547158 187.210909 
L 158.218464 186.730727 
L 158.88977 186.730727 
L 159.561075 186.250545 
L 160.232381 186.730727 
L 160.903687 186.250545 
L 168.288049 186.250545 
L 168.959355 185.770364 
L 169.630661 186.250545 
L 175.001106 186.250545 
L 175.672412 186.730727 
L 176.343717 186.730727 
L 177.015023 187.210909 
L 178.357634 187.210909 
L 179.02894 187.691091 
L 179.700246 187.210909 
L 180.371551 187.691091 
L 183.056774 187.691091 
L 183.72808 188.171273 
L 186.413303 188.171273 
L 187.084608 188.651455 
L 188.42722 188.651455 
L 189.098525 189.131636 
L 189.769831 189.131636 
L 191.112442 190.092 
L 191.783748 190.092 
L 192.455054 191.052364 
L 193.126359 191.532545 
L 193.797665 191.532545 
L 197.825499 194.413636 
L 198.496805 194.413636 
L 202.524639 197.294727 
L 203.195945 197.294727 
L 203.86725 198.255091 
L 207.223779 200.656 
L 207.895084 201.616364 
L 222.66381 212.180364 
L 223.335115 213.140727 
L 224.006421 213.620909 
L 225.349032 215.541636 
L 226.020338 216.021818 
L 226.691644 216.982182 
L 228.705561 218.422727 
L 229.376866 219.383091 
L 230.048172 219.383091 
L 230.719478 219.863273 
L 231.390783 219.863273 
L 232.733395 220.823636 
L 233.4047 220.823636 
L 234.747312 221.784 
L 235.418618 221.784 
L 236.089923 222.264182 
L 236.761229 222.264182 
L 237.432535 222.744364 
L 238.775146 222.744364 
L 239.446452 223.224545 
L 240.789063 223.224545 
L 241.460369 223.704727 
L 243.474286 223.704727 
L 244.145591 224.184909 
L 245.488203 224.184909 
L 246.159508 224.665091 
L 249.516037 224.665091 
L 250.187343 225.145273 
L 251.529954 225.145273 
L 252.872565 226.105636 
L 253.543871 226.105636 
L 254.886482 227.066 
L 256.900399 227.066 
L 257.571705 227.546182 
L 258.914316 227.546182 
L 259.585622 228.026364 
L 260.256928 227.546182 
L 261.599539 227.546182 
L 262.270845 228.026364 
L 264.284762 228.026364 
L 264.956068 227.546182 
L 265.627373 227.546182 
L 266.298679 228.026364 
L 266.969985 228.026364 
L 267.64129 227.546182 
L 268.312596 228.026364 
L 268.983902 228.026364 
L 269.655207 227.546182 
L 270.326513 228.026364 
L 270.997819 227.546182 
L 274.354347 227.546182 
L 275.025653 227.066 
L 278.382181 227.066 
L 279.053487 226.585818 
L 281.067404 226.585818 
L 281.73871 226.105636 
L 285.766544 226.105636 
L 286.437849 225.625455 
L 287.109155 225.625455 
L 288.451767 224.665091 
L 289.123072 224.665091 
L 289.794378 224.184909 
L 290.465684 224.184909 
L 292.479601 222.744364 
L 293.150906 221.784 
L 293.822212 221.784 
L 297.17874 219.383091 
L 299.192657 216.502 
L 299.863963 216.021818 
L 300.535269 215.061455 
L 301.206575 214.581273 
L 301.87788 213.620909 
L 303.220492 212.660545 
L 303.891797 211.700182 
L 305.234409 210.739818 
L 306.57702 210.739818 
L 307.248326 210.259636 
L 307.919631 210.259636 
L 308.590937 209.779455 
L 309.262243 209.779455 
L 310.604854 208.819091 
L 311.27616 208.819091 
L 312.618771 207.858727 
L 313.290077 207.858727 
L 317.317911 204.977636 
L 320.674439 200.175818 
L 322.017051 199.215455 
L 322.688356 198.255091 
L 324.030968 197.294727 
L 324.702273 196.334364 
L 325.373579 196.334364 
L 326.044885 195.854182 
L 327.387496 193.933455 
L 328.058802 192.492909 
L 330.072719 189.611818 
L 330.744025 189.611818 
L 332.086636 188.651455 
L 332.757942 188.651455 
L 333.429247 188.171273 
L 334.100553 188.171273 
L 334.771859 187.691091 
L 341.484916 187.691091 
L 342.156221 187.210909 
L 343.498833 187.210909 
L 344.170138 186.730727 
L 348.197972 186.730727 
L 348.869278 186.250545 
L 350.211889 186.250545 
L 350.883195 185.770364 
L 353.568418 185.770364 
L 354.239724 185.290182 
L 370.35106 185.290182 
L 371.022366 184.81 
L 371.693671 185.290182 
L 372.364977 184.81 
L 376.392811 184.81 
L 377.064117 184.329818 
L 385.119785 184.329818 
L 385.791091 183.849636 
L 396.531982 183.849636 
L 397.874593 184.81 
L 398.545899 185.770364 
L 399.217204 186.250545 
L 399.88851 187.210909 
L 400.559816 187.691091 
L 401.231121 188.651455 
L 401.902427 189.131636 
L 403.245038 191.052364 
L 403.916344 191.532545 
L 405.258955 193.453273 
L 405.930261 194.893818 
L 410.629401 201.616364 
L 411.972012 202.576727 
L 412.643318 203.537091 
L 415.328541 205.457818 
L 415.999846 205.457818 
L 416.671152 205.938 
L 417.342458 205.938 
L 418.013763 206.418182 
L 420.02768 206.418182 
L 420.698986 206.898364 
L 422.712903 206.898364 
L 423.384209 207.378545 
L 425.398126 207.378545 
L 426.069432 206.898364 
L 426.740737 207.378545 
L 448.222519 207.378545 
L 448.893825 206.898364 
L 449.565131 207.378545 
L 484.473026 207.378545 
L 485.144332 207.858727 
L 485.815637 207.378545 
L 487.158249 207.378545 
L 487.829555 207.858727 
L 488.50086 207.378545 
L 493.2 207.378545 
L 493.2 207.378545 
" clip-path="url(#p12273d4002)" style="fill: none; stroke: #1f77b4; stroke-width: 1.5; stroke-linecap: square"/>
   </g>
   <g id="line2d_28">
    <path d="M 56.18 211.22 
L 493.2 211.22 
" clip-path="url(#p12273d4002)" style="fill: none; stroke-dasharray: 2.96,1.28; stroke-dashoffset: 0; stroke: #808080; stroke-width: 0.8"/>
   </g>
   <g id="patch_6">
    <path d="M 56.18 264.04 
L 56.18 158.4 
" style="fill: none; stroke: #000000; stroke-width: 0.8; stroke-linejoin: miter; stroke-linecap: square"/>
   </g>
   <g id="patch_7">
    <path d="M 56.18 264.04 
L 493.2 264.04 
" style="fill: none; stroke: #000000; stroke-width: 0.8; stroke-linejoin: miter; stroke-linecap: square"/>
   </g>
  </g>
 </g>
 <defs>
  <clipPath id="pe9829dd421">
   <rect x="56.18" y="10.8" width="437.02" height="105.64"/>
  </clipPath>
  <clipPath id="p12273d4002">
   <rect x="56.18" y="158.4" width="437.02" height="105.64"/>
  </clipPath>
 </defs>
</svg>
