<?xml version="1.0" encoding="utf-8" standalone="no"?>
<!DOCTYPE svg PUBLIC "-//W3C//DTD SVG 1.1//EN"
  "http://www.w3.org/Graphics/SVG/1.1/DTD/svg11.dtd">
<svg xmlns:xlink="http://www.w3.org/1999/xlink" width="504pt" height="306pt" viewBox="0 0 504 306" xmlns="http://www.w3.org/2000/svg" version="1.1">
 <metadata>
  <rdf:RDF xmlns:dc="http://purl.org/dc/elements/1.1/" xmlns:cc="http://creativecommons.org/ns#" xmlns:rdf="http://www.w3.org/1999/02/22-rdf-syntax-ns#">
   <cc:Work>
    <dc:type rdf:resource="http://purl.org/dc/dcmitype/StillImage"/>
    <dc:date>2024-06-16T22:16:41.987904</dc:date>
    <dc:format>image/svg+xml</dc:format>
    <dc:creator>
     <cc:Agent>
      <dc:title>Matplotlib v3.8.3, https://matplotlib.org/</dc:title>
     </cc:Agent>
    </dc:creator>
   </cc:Work>
  </rdf:RDF>
 </metadata>
 <defs>
  <style type="text/css">*{stroke-linejoin: round; stroke-linecap: butt}</style>
 </defs>
 <g id="figure_1">
  <g id="patch_1">
   <path d="M 0 306 
L 504 306 
L 504 0 
L 0 0 
z
" style="fill: #ffffff"/>
  </g>
  <g id="axes_1">
   <g id="patch_2">
    <path d="M 56.18 116.44 
L 493.2 116.44 
L 493.2 10.8 
L 56.18 10.8 
z
" style="fill: #ffffff"/>
   </g>
   <g id="matplotlib.axis_1">
    <g id="xtick_1">
     <g id="line2d_1">
      <defs>
       <path id="m018c6c43c3" d="M 0 0 
L 0 3.5 
" style="stroke: #000000; stroke-width: 0.8"/>
      </defs>
      <g>
       <use xlink:href="#m018c6c43c3" x="56.18" y="116.44" style="stroke: #000000; stroke-width: 0.8"/>
      </g>
     </g>
     <g id="text_1">
      <!-- 0 -->
      <g transform="translate(52.99875 131.038437) scale(0.1 -0.1)">
       <defs>
        <path id="DejaVuSans-30" d="M 2034 4250 
Q 1547 4250 1301 3770 
Q 1056 3291 1056 2328 
Q 1056 1369 1301 889 
Q 1547 409 2034 409 
Q 2525 409 2770 889 
Q 3016 1369 3016 2328 
Q 3016 3291 2770 3770 
Q 2525 4250 2034 4250 
z
M 2034 4750 
Q 2819 4750 3233 4129 
Q 3647 3509 3647 2328 
Q 3647 1150 3233 529 
Q 2819 -91 2034 -91 
Q 1250 -91 836 529 
Q 422 1150 422 2328 
Q 422 3509 836 4129 
Q 1250 4750 2034 4750 
z
" transform="scale(0.015625)"/>
       </defs>
       <use xlink:href="#DejaVuSans-30"/>
      </g>
     </g>
    </g>
    <g id="xtick_2">
     <g id="line2d_2">
      <g>
       <use xlink:href="#m018c6c43c3" x="151.557564" y="116.44" style="stroke: #000000; stroke-width: 0.8"/>
      </g>
     </g>
     <g id="text_2">
      <!-- 5000 -->
      <g transform="translate(138.832564 131.038437) scale(0.1 -0.1)">
       <defs>
        <path id="DejaVuSans-35" d="M 691 4666 
L 3169 4666 
L 3169 4134 
L 1269 4134 
L 1269 2991 
Q 1406 3038 1543 3061 
Q 1681 3084 1819 3084 
Q 2600 3084 3056 2656 
Q 3513 2228 3513 1497 
Q 3513 744 3044 326 
Q 2575 -91 1722 -91 
Q 1428 -91 1123 -41 
Q 819 9 494 109 
L 494 744 
Q 775 591 1075 516 
Q 1375 441 1709 441 
Q 2250 441 2565 725 
Q 2881 1009 2881 1497 
Q 2881 1984 2565 2268 
Q 2250 2553 1709 2553 
Q 1456 2553 1204 2497 
Q 953 2441 691 2322 
L 691 4666 
z
" transform="scale(0.015625)"/>
       </defs>
       <use xlink:href="#DejaVuSans-35"/>
       <use xlink:href="#DejaVuSans-30" x="63.623047"/>
       <use xlink:href="#DejaVuSans-30" x="127.246094"/>
       <use xlink:href="#DejaVuSans-30" x="190.869141"/>
      </g>
     </g>
    </g>
    <g id="xtick_3">
     <g id="line2d_3">
      <g>
       <use xlink:href="#m018c6c43c3" x="246.935129" y="116.44" style="stroke: #000000; stroke-width: 0.8"/>
      </g>
     </g>
     <g id="text_3">
      <!-- 10000 -->
      <g transform="translate(231.028879 131.038437) scale(0.1 -0.1)">
       <defs>
        <path id="DejaVuSans-31" d="M 794 531 
L 1825 531 
L 1825 4091 
L 703 3866 
L 703 4441 
L 1819 4666 
L 2450 4666 
L 2450 531 
L 3481 531 
L 3481 0 
L 794 0 
L 794 531 
z
" transform="scale(0.015625)"/>
       </defs>
       <use xlink:href="#DejaVuSans-31"/>
       <use xlink:href="#DejaVuSans-30" x="63.623047"/>
       <use xlink:href="#DejaVuSans-30" x="127.246094"/>
       <use xlink:href="#DejaVuSans-30" x="190.869141"/>
       <use xlink:href="#DejaVuSans-30" x="254.492188"/>
      </g>
     </g>
    </g>
    <g id="xtick_4">
     <g id="line2d_4">
      <g>
       <use xlink:href="#m018c6c43c3" x="342.312693" y="116.44" style="stroke: #000000; stroke-width: 0.8"/>
      </g>
     </g>
     <g id="text_4">
      <!-- 15000 -->
      <g transform="translate(326.406443 131.038437) scale(0.1 -0.1)">
       <use xlink:href="#DejaVuSans-31"/>
       <use xlink:href="#DejaVuSans-35" x="63.623047"/>
       <use xlink:href="#DejaVuSans-30" x="127.246094"/>
       <use xlink:href="#DejaVuSans-30" x="190.869141"/>
       <use xlink:href="#DejaVuSans-30" x="254.492188"/>
      </g>
     </g>
    </g>
    <g id="xtick_5">
     <g id="line2d_5">
      <g>
       <use xlink:href="#m018c6c43c3" x="437.690258" y="116.44" style="stroke: #000000; stroke-width: 0.8"/>
      </g>
     </g>
     <g id="text_5">
      <!-- 20000 -->
      <g transform="translate(421.784008 131.038437) scale(0.1 -0.1)">
       <defs>
        <path id="DejaVuSans-32" d="M 1228 531 
L 3431 531 
L 3431 0 
L 469 0 
L 469 531 
Q 828 903 1448 1529 
Q 2069 2156 2228 2338 
Q 2531 2678 2651 2914 
Q 2772 3150 2772 3378 
Q 2772 3750 2511 3984 
Q 2250 4219 1831 4219 
Q 1534 4219 1204 4116 
Q 875 4013 500 3803 
L 500 4441 
Q 881 4594 1212 4672 
Q 1544 4750 1819 4750 
Q 2544 4750 2975 4387 
Q 3406 4025 3406 3419 
Q 3406 3131 3298 2873 
Q 3191 2616 2906 2266 
Q 2828 2175 2409 1742 
Q 1991 1309 1228 531 
z
" transform="scale(0.015625)"/>
       </defs>
       <use xlink:href="#DejaVuSans-32"/>
       <use xlink:href="#DejaVuSans-30" x="63.623047"/>
       <use xlink:href="#DejaVuSans-30" x="127.246094"/>
       <use xlink:href="#DejaVuSans-30" x="190.869141"/>
       <use xlink:href="#DejaVuSans-30" x="254.492188"/>
      </g>
     </g>
    </g>
    <g id="text_6">
     <!-- Time (ms) -->
     <g transform="translate(249.490781 144.716562) scale(0.1 -0.1)">
      <defs>
       <path id="DejaVuSans-54" d="M -19 4666 
L 3928 4666 
L 3928 4134 
L 2272 4134 
L 2272 0 
L 1638 0 
L 1638 4134 
L -19 4134 
L -19 4666 
z
" transform="scale(0.015625)"/>
       <path id="DejaVuSans-69" d="M 603 3500 
L 1178 3500 
L 1178 0 
L 603 0 
L 603 3500 
z
M 603 4863 
L 1178 4863 
L 1178 4134 
L 603 4134 
L 603 4863 
z
" transform="scale(0.015625)"/>
       <path id="DejaVuSans-6d" d="M 3328 2828 
Q 3544 3216 3844 3400 
Q 4144 3584 4550 3584 
Q 5097 3584 5394 3201 
Q 5691 2819 5691 2113 
L 5691 0 
L 5113 0 
L 5113 2094 
Q 5113 2597 4934 2840 
Q 4756 3084 4391 3084 
Q 3944 3084 3684 2787 
Q 3425 2491 3425 1978 
L 3425 0 
L 2847 0 
L 2847 2094 
Q 2847 2600 2669 2842 
Q 2491 3084 2119 3084 
Q 1678 3084 1418 2786 
Q 1159 2488 1159 1978 
L 1159 0 
L 581 0 
L 581 3500 
L 1159 3500 
L 1159 2956 
Q 1356 3278 1631 3431 
Q 1906 3584 2284 3584 
Q 2666 3584 2933 3390 
Q 3200 3197 3328 2828 
z
" transform="scale(0.015625)"/>
       <path id="DejaVuSans-65" d="M 3597 1894 
L 3597 1613 
L 953 1613 
Q 991 1019 1311 708 
Q 1631 397 2203 397 
Q 2534 397 2845 478 
Q 3156 559 3463 722 
L 3463 178 
Q 3153 47 2828 -22 
Q 2503 -91 2169 -91 
Q 1331 -91 842 396 
Q 353 884 353 1716 
Q 353 2575 817 3079 
Q 1281 3584 2069 3584 
Q 2775 3584 3186 3129 
Q 3597 2675 3597 1894 
z
M 3022 2063 
Q 3016 2534 2758 2815 
Q 2500 3097 2075 3097 
Q 1594 3097 1305 2825 
Q 1016 2553 972 2059 
L 3022 2063 
z
" transform="scale(0.015625)"/>
       <path id="DejaVuSans-20" transform="scale(0.015625)"/>
       <path id="DejaVuSans-28" d="M 1984 4856 
Q 1566 4138 1362 3434 
Q 1159 2731 1159 2009 
Q 1159 1288 1364 580 
Q 1569 -128 1984 -844 
L 1484 -844 
Q 1016 -109 783 600 
Q 550 1309 550 2009 
Q 550 2706 781 3412 
Q 1013 4119 1484 4856 
L 1984 4856 
z
" transform="scale(0.015625)"/>
       <path id="DejaVuSans-73" d="M 2834 3397 
L 2834 2853 
Q 2591 2978 2328 3040 
Q 2066 3103 1784 3103 
Q 1356 3103 1142 2972 
Q 928 2841 928 2578 
Q 928 2378 1081 2264 
Q 1234 2150 1697 2047 
L 1894 2003 
Q 2506 1872 2764 1633 
Q 3022 1394 3022 966 
Q 3022 478 2636 193 
Q 2250 -91 1575 -91 
Q 1294 -91 989 -36 
Q 684 19 347 128 
L 347 722 
Q 666 556 975 473 
Q 1284 391 1588 391 
Q 1994 391 2212 530 
Q 2431 669 2431 922 
Q 2431 1156 2273 1281 
Q 2116 1406 1581 1522 
L 1381 1569 
Q 847 1681 609 1914 
Q 372 2147 372 2553 
Q 372 3047 722 3315 
Q 1072 3584 1716 3584 
Q 2034 3584 2315 3537 
Q 2597 3491 2834 3397 
z
" transform="scale(0.015625)"/>
       <path id="DejaVuSans-29" d="M 513 4856 
L 1013 4856 
Q 1481 4119 1714 3412 
Q 1947 2706 1947 2009 
Q 1947 1309 1714 600 
Q 1481 -109 1013 -844 
L 513 -844 
Q 928 -128 1133 580 
Q 1338 1288 1338 2009 
Q 1338 2731 1133 3434 
Q 928 4138 513 4856 
z
" transform="scale(0.015625)"/>
      </defs>
      <use xlink:href="#DejaVuSans-54"/>
      <use xlink:href="#DejaVuSans-69" x="57.958984"/>
      <use xlink:href="#DejaVuSans-6d" x="85.742188"/>
      <use xlink:href="#DejaVuSans-65" x="183.154297"/>
      <use xlink:href="#DejaVuSans-20" x="244.677734"/>
      <use xlink:href="#DejaVuSans-28" x="276.464844"/>
      <use xlink:href="#DejaVuSans-6d" x="315.478516"/>
      <use xlink:href="#DejaVuSans-73" x="412.890625"/>
      <use xlink:href="#DejaVuSans-29" x="464.990234"/>
     </g>
    </g>
   </g>
   <g id="matplotlib.axis_2">
    <g id="ytick_1">
     <g id="line2d_6">
      <defs>
       <path id="mdc163fb883" d="M 0 0 
L -3.5 0 
" style="stroke: #000000; stroke-width: 0.8"/>
      </defs>
      <g>
       <use xlink:href="#mdc163fb883" x="56.18" y="111.638182" style="stroke: #000000; stroke-width: 0.8"/>
      </g>
     </g>
     <g id="text_7">
      <!-- −1.0 -->
      <g transform="translate(24.897188 115.437401) scale(0.1 -0.1)">
       <defs>
        <path id="DejaVuSans-2212" d="M 678 2272 
L 4684 2272 
L 4684 1741 
L 678 1741 
L 678 2272 
z
" transform="scale(0.015625)"/>
        <path id="DejaVuSans-2e" d="M 684 794 
L 1344 794 
L 1344 0 
L 684 0 
L 684 794 
z
" transform="scale(0.015625)"/>
       </defs>
       <use xlink:href="#DejaVuSans-2212"/>
       <use xlink:href="#DejaVuSans-31" x="83.789062"/>
       <use xlink:href="#DejaVuSans-2e" x="147.412109"/>
       <use xlink:href="#DejaVuSans-30" x="179.199219"/>
      </g>
     </g>
    </g>
    <g id="ytick_2">
     <g id="line2d_7">
      <g>
       <use xlink:href="#mdc163fb883" x="56.18" y="87.629091" style="stroke: #000000; stroke-width: 0.8"/>
      </g>
     </g>
     <g id="text_8">
      <!-- −0.5 -->
      <g transform="translate(24.897188 91.42831) scale(0.1 -0.1)">
       <use xlink:href="#DejaVuSans-2212"/>
       <use xlink:href="#DejaVuSans-30" x="83.789062"/>
       <use xlink:href="#DejaVuSans-2e" x="147.412109"/>
       <use xlink:href="#DejaVuSans-35" x="179.199219"/>
      </g>
     </g>
    </g>
    <g id="ytick_3">
     <g id="line2d_8">
      <g>
       <use xlink:href="#mdc163fb883" x="56.18" y="63.62" style="stroke: #000000; stroke-width: 0.8"/>
      </g>
     </g>
     <g id="text_9">
      <!-- 0.0 -->
      <g transform="translate(33.276875 67.419219) scale(0.1 -0.1)">
       <use xlink:href="#DejaVuSans-30"/>
       <use xlink:href="#DejaVuSans-2e" x="63.623047"/>
       <use xlink:href="#DejaVuSans-30" x="95.410156"/>
      </g>
     </g>
    </g>
    <g id="ytick_4">
     <g id="line2d_9">
      <g>
       <use xlink:href="#mdc163fb883" x="56.18" y="39.610909" style="stroke: #000000; stroke-width: 0.8"/>
      </g>
     </g>
     <g id="text_10">
      <!-- 0.5 -->
      <g transform="translate(33.276875 43.410128) scale(0.1 -0.1)">
       <use xlink:href="#DejaVuSans-30"/>
       <use xlink:href="#DejaVuSans-2e" x="63.623047"/>
       <use xlink:href="#DejaVuSans-35" x="95.410156"/>
      </g>
     </g>
    </g>
    <g id="ytick_5">
     <g id="line2d_10">
      <g>
       <use xlink:href="#mdc163fb883" x="56.18" y="15.601818" style="stroke: #000000; stroke-width: 0.8"/>
      </g>
     </g>
     <g id="text_11">
      <!-- 1.0 -->
      <g transform="translate(33.276875 19.401037) scale(0.1 -0.1)">
       <use xlink:href="#DejaVuSans-31"/>
       <use xlink:href="#DejaVuSans-2e" x="63.623047"/>
       <use xlink:href="#DejaVuSans-30" x="95.410156"/>
      </g>
     </g>
    </g>
    <g id="text_12">
     <!-- X-Axis Value -->
     <g transform="translate(18.8175 94.180156) rotate(-90) scale(0.1 -0.1)">
      <defs>
       <path id="DejaVuSans-58" d="M 403 4666 
L 1081 4666 
L 2241 2931 
L 3406 4666 
L 4084 4666 
L 2584 2425 
L 4184 0 
L 3506 0 
L 2194 1984 
L 872 0 
L 191 0 
L 1856 2491 
L 403 4666 
z
" transform="scale(0.015625)"/>
       <path id="DejaVuSans-2d" d="M 313 2009 
L 1997 2009 
L 1997 1497 
L 313 1497 
L 313 2009 
z
" transform="scale(0.015625)"/>
       <path id="DejaVuSans-41" d="M 2188 4044 
L 1331 1722 
L 3047 1722 
L 2188 4044 
z
M 1831 4666 
L 2547 4666 
L 4325 0 
L 3669 0 
L 3244 1197 
L 1141 1197 
L 716 0 
L 50 0 
L 1831 4666 
z
" transform="scale(0.015625)"/>
       <path id="DejaVuSans-78" d="M 3513 3500 
L 2247 1797 
L 3578 0 
L 2900 0 
L 1881 1375 
L 863 0 
L 184 0 
L 1544 1831 
L 300 3500 
L 978 3500 
L 1906 2253 
L 2834 3500 
L 3513 3500 
z
" transform="scale(0.015625)"/>
       <path id="DejaVuSans-56" d="M 1831 0 
L 50 4666 
L 709 4666 
L 2188 738 
L 3669 4666 
L 4325 4666 
L 2547 0 
L 1831 0 
z
" transform="scale(0.015625)"/>
       <path id="DejaVuSans-61" d="M 2194 1759 
Q 1497 1759 1228 1600 
Q 959 1441 959 1056 
Q 959 750 1161 570 
Q 1363 391 1709 391 
Q 2188 391 2477 730 
Q 2766 1069 2766 1631 
L 2766 1759 
L 2194 1759 
z
M 3341 1997 
L 3341 0 
L 2766 0 
L 2766 531 
Q 2569 213 2275 61 
Q 1981 -91 1556 -91 
Q 1019 -91 701 211 
Q 384 513 384 1019 
Q 384 1609 779 1909 
Q 1175 2209 1959 2209 
L 2766 2209 
L 2766 2266 
Q 2766 2663 2505 2880 
Q 2244 3097 1772 3097 
Q 1472 3097 1187 3025 
Q 903 2953 641 2809 
L 641 3341 
Q 956 3463 1253 3523 
Q 1550 3584 1831 3584 
Q 2591 3584 2966 3190 
Q 3341 2797 3341 1997 
z
" transform="scale(0.015625)"/>
       <path id="DejaVuSans-6c" d="M 603 4863 
L 1178 4863 
L 1178 0 
L 603 0 
L 603 4863 
z
" transform="scale(0.015625)"/>
       <path id="DejaVuSans-75" d="M 544 1381 
L 544 3500 
L 1119 3500 
L 1119 1403 
Q 1119 906 1312 657 
Q 1506 409 1894 409 
Q 2359 409 2629 706 
Q 2900 1003 2900 1516 
L 2900 3500 
L 3475 3500 
L 3475 0 
L 2900 0 
L 2900 538 
Q 2691 219 2414 64 
Q 2138 -91 1772 -91 
Q 1169 -91 856 284 
Q 544 659 544 1381 
z
M 1991 3584 
L 1991 3584 
z
" transform="scale(0.015625)"/>
      </defs>
      <use xlink:href="#DejaVuSans-58"/>
      <use xlink:href="#DejaVuSans-2d" x="63.505859"/>
      <use xlink:href="#DejaVuSans-41" x="97.339844"/>
      <use xlink:href="#DejaVuSans-78" x="165.748047"/>
      <use xlink:href="#DejaVuSans-69" x="224.927734"/>
      <use xlink:href="#DejaVuSans-73" x="252.710938"/>
      <use xlink:href="#DejaVuSans-20" x="304.810547"/>
      <use xlink:href="#DejaVuSans-56" x="336.597656"/>
      <use xlink:href="#DejaVuSans-61" x="397.255859"/>
      <use xlink:href="#DejaVuSans-6c" x="458.535156"/>
      <use xlink:href="#DejaVuSans-75" x="486.318359"/>
      <use xlink:href="#DejaVuSans-65" x="549.697266"/>
     </g>
    </g>
   </g>
   <g id="line2d_11">
    <path d="M 56.18 66.020909 
L 66.480777 66.020909 
L 66.671532 65.540727 
L 66.862287 66.020909 
L 69.532859 66.020909 
L 69.723614 65.540727 
L 69.914369 66.020909 
L 83.267228 66.020909 
L 83.457983 65.540727 
L 86.31931 65.540727 
L 86.510065 66.020909 
L 87.082331 66.020909 
L 88.036107 68.421818 
L 88.417617 68.421818 
L 89.180637 70.342545 
L 89.752903 70.342545 
L 89.943658 70.822727 
L 90.325168 70.822727 
L 90.515923 71.783091 
L 90.706678 71.783091 
L 90.897433 71.302909 
L 91.088189 71.783091 
L 92.61423 71.783091 
L 92.804985 71.302909 
L 92.99574 71.783091 
L 95.094046 71.783091 
L 95.284801 71.302909 
L 95.475557 71.783091 
L 96.620087 71.783091 
L 96.810842 71.302909 
L 97.001598 71.783091 
L 97.764618 71.783091 
L 97.955373 71.302909 
L 98.146128 71.783091 
L 99.099904 71.783091 
L 99.290659 71.302909 
L 99.481414 71.783091 
L 100.244435 71.783091 
L 100.43519 71.302909 
L 100.625945 71.783091 
L 101.961231 71.783091 
L 102.151986 71.302909 
L 102.342741 71.302909 
L 102.533496 71.783091 
L 103.487272 71.783091 
L 103.678027 71.302909 
L 103.868782 71.783091 
L 104.250292 71.783091 
L 104.441048 71.302909 
L 104.631803 71.783091 
L 107.683885 71.783091 
L 107.87464 71.302909 
L 108.446905 71.302909 
L 109.019171 69.862364 
L 109.209926 69.862364 
L 109.400681 69.382182 
L 122.944295 69.382182 
L 123.13505 68.902 
L 123.898071 68.902 
L 124.088826 69.382182 
L 124.661091 69.382182 
L 124.851846 68.902 
L 125.042601 68.902 
L 125.233357 68.421818 
L 125.424112 68.421818 
L 125.614867 67.941636 
L 125.996377 67.941636 
L 126.187132 67.461455 
L 126.377887 67.941636 
L 126.568643 67.461455 
L 127.522418 67.461455 
L 127.713173 66.981273 
L 128.476194 66.981273 
L 128.666949 66.501091 
L 128.857704 66.501091 
L 129.048459 66.981273 
L 129.239214 66.981273 
L 129.429969 66.501091 
L 129.620725 66.981273 
L 129.81148 66.501091 
L 130.002235 66.501091 
L 130.19299 66.981273 
L 130.383745 66.501091 
L 133.054317 66.501091 
L 133.245072 66.981273 
L 133.435827 66.501091 
L 135.915644 66.501091 
L 136.297154 65.060545 
L 137.441685 65.060545 
L 137.63244 64.580364 
L 138.01395 64.580364 
L 138.39546 63.62 
L 139.158481 59.298364 
L 140.493767 44.892909 
L 141.638298 30.007273 
L 141.829053 29.527091 
L 142.401318 29.527091 
L 142.592073 30.007273 
L 142.782828 29.527091 
L 163.956648 29.527091 
L 164.147403 30.007273 
L 164.338158 30.007273 
L 164.528913 29.527091 
L 167.199485 29.527091 
L 167.39024 30.007273 
L 167.580995 30.007273 
L 167.77175 29.527091 
L 168.725526 29.527091 
L 168.916281 30.007273 
L 169.107036 29.527091 
L 169.297791 30.007273 
L 169.679302 30.007273 
L 169.870057 29.527091 
L 170.060812 30.007273 
L 171.014588 30.007273 
L 171.205343 30.487455 
L 171.396098 30.487455 
L 171.586853 30.967636 
L 171.777608 30.967636 
L 171.968363 31.447818 
L 172.159118 30.967636 
L 172.349873 31.447818 
L 172.731384 31.447818 
L 172.922139 31.928 
L 173.112894 32.888364 
L 173.303649 32.888364 
L 173.494404 33.368545 
L 173.875914 36.249636 
L 175.020445 52.575818 
L 175.783466 59.298364 
L 176.546486 64.580364 
L 177.881772 64.580364 
L 178.072527 65.060545 
L 179.407813 65.060545 
L 179.598568 65.540727 
L 179.789323 65.060545 
L 179.980079 65.540727 
L 180.170834 65.540727 
L 180.361589 65.060545 
L 180.552344 65.540727 
L 180.743099 65.540727 
L 180.933854 65.060545 
L 181.124609 65.540727 
L 181.315364 65.540727 
L 181.50612 65.060545 
L 181.88763 65.060545 
L 182.078385 65.540727 
L 182.26914 65.060545 
L 182.65065 65.060545 
L 182.841405 65.540727 
L 183.032161 65.060545 
L 183.222916 65.540727 
L 183.413671 65.060545 
L 183.795181 65.060545 
L 183.985936 65.540727 
L 184.176691 65.540727 
L 184.367447 65.060545 
L 184.748957 65.060545 
L 184.939712 65.540727 
L 185.130467 65.540727 
L 185.321222 65.060545 
L 186.084243 65.060545 
L 186.274998 65.540727 
L 186.465753 65.540727 
L 186.656508 65.060545 
L 187.228773 65.060545 
L 187.419529 64.580364 
L 187.610284 65.060545 
L 187.801039 64.580364 
L 188.754814 64.580364 
L 188.94557 64.100182 
L 189.517835 64.100182 
L 189.70859 63.62 
L 189.899345 63.62 
L 190.471611 60.738909 
L 191.806897 48.254182 
L 192.569917 42.011818 
L 193.523693 29.527091 
L 193.714448 25.685636 
L 194.668223 25.685636 
L 194.858979 25.205455 
L 195.049734 25.205455 
L 195.240489 25.685636 
L 195.431244 25.205455 
L 195.621999 25.685636 
L 195.812754 25.685636 
L 196.003509 25.205455 
L 197.52955 25.205455 
L 197.720306 25.685636 
L 197.911061 25.205455 
L 198.292571 25.205455 
L 198.483326 25.685636 
L 198.674081 25.205455 
L 200.009367 25.205455 
L 200.200122 25.685636 
L 200.390877 25.205455 
L 201.535408 25.205455 
L 201.726163 25.685636 
L 201.916918 25.685636 
L 202.107674 25.205455 
L 202.298429 25.685636 
L 202.489184 25.205455 
L 204.396735 25.205455 
L 204.58749 25.685636 
L 204.778245 25.205455 
L 206.304286 25.205455 
L 206.495041 25.685636 
L 206.685797 25.205455 
L 207.258062 25.205455 
L 207.448817 25.685636 
L 207.639572 25.205455 
L 207.830327 25.685636 
L 208.021082 25.205455 
L 210.500899 25.205455 
L 210.691654 25.685636 
L 210.882409 25.205455 
L 211.26392 25.205455 
L 211.454675 25.685636 
L 211.64543 25.205455 
L 211.836185 25.685636 
L 212.02694 25.205455 
L 213.362226 25.205455 
L 213.552981 25.685636 
L 213.743736 25.205455 
L 214.125247 25.205455 
L 214.316002 25.685636 
L 214.506757 25.205455 
L 215.079022 25.205455 
L 215.269777 25.685636 
L 215.460533 25.205455 
L 217.749594 25.205455 
L 217.940349 25.685636 
L 218.131104 25.205455 
L 220.801676 25.205455 
L 220.992431 25.685636 
L 221.183186 25.205455 
L 221.755452 25.205455 
L 221.946207 25.685636 
L 222.136962 25.205455 
L 222.518472 25.205455 
L 222.709227 25.685636 
L 222.899983 25.205455 
L 224.426024 25.205455 
L 224.616779 25.685636 
L 224.807534 25.205455 
L 226.715085 25.205455 
L 226.90584 25.685636 
L 227.668861 29.527091 
L 228.622636 42.492 
L 229.004147 46.813636 
L 229.576412 51.615455 
L 231.293208 64.100182 
L 231.483963 64.580364 
L 232.056229 64.580364 
L 232.246984 65.060545 
L 232.437739 64.580364 
L 232.628494 65.060545 
L 234.726801 65.060545 
L 234.917556 65.540727 
L 235.108311 65.060545 
L 236.825107 65.060545 
L 237.015862 65.540727 
L 237.206617 65.060545 
L 237.588127 65.060545 
L 237.778883 65.540727 
L 237.969638 65.540727 
L 238.160393 65.060545 
L 241.40323 65.060545 
L 241.593985 64.580364 
L 243.310781 64.580364 
L 243.501536 64.100182 
L 244.455312 59.778545 
L 244.646067 59.298364 
L 245.218333 55.937091 
L 246.172108 48.254182 
L 247.507394 35.289273 
L 247.698149 31.447818 
L 249.033435 31.447818 
L 249.22419 30.967636 
L 249.414945 31.447818 
L 250.177966 31.447818 
L 250.368721 30.967636 
L 250.559476 31.447818 
L 250.940986 31.447818 
L 251.131742 30.967636 
L 251.322497 31.447818 
L 252.085517 31.447818 
L 252.276272 30.967636 
L 252.467027 31.447818 
L 253.611558 31.447818 
L 253.802313 30.967636 
L 253.993069 31.447818 
L 254.374579 31.447818 
L 254.565334 30.967636 
L 254.756089 31.447818 
L 255.328354 31.447818 
L 255.51911 30.967636 
L 255.709865 31.447818 
L 255.90062 30.967636 
L 256.091375 31.447818 
L 258.189681 31.447818 
L 258.380436 30.967636 
L 258.571192 31.447818 
L 260.860253 31.447818 
L 261.051008 30.967636 
L 261.241763 30.967636 
L 261.432519 31.447818 
L 261.623274 30.967636 
L 261.814029 31.447818 
L 262.195539 31.447818 
L 262.386294 30.967636 
L 262.577049 31.447818 
L 262.767804 30.967636 
L 262.95856 31.447818 
L 263.149315 31.447818 
L 263.34007 30.967636 
L 263.530825 31.447818 
L 263.912335 31.447818 
L 264.10309 30.967636 
L 264.293845 31.447818 
L 264.675356 31.447818 
L 264.866111 30.967636 
L 265.056866 31.447818 
L 265.819887 31.447818 
L 266.010642 30.967636 
L 266.201397 30.967636 
L 266.392152 31.447818 
L 266.582907 31.447818 
L 266.773662 30.967636 
L 266.964417 31.447818 
L 267.727438 31.447818 
L 267.918193 30.967636 
L 268.108948 30.967636 
L 268.299703 31.447818 
L 269.634989 31.447818 
L 269.825744 30.967636 
L 270.016499 31.447818 
L 270.77952 31.447818 
L 270.970275 30.967636 
L 271.16103 31.447818 
L 272.877826 31.447818 
L 273.068581 30.967636 
L 273.259337 31.447818 
L 273.640847 31.447818 
L 273.831602 30.967636 
L 274.022357 31.447818 
L 274.213112 31.447818 
L 274.403867 30.967636 
L 274.976133 30.967636 
L 275.166888 31.447818 
L 275.739153 31.447818 
L 275.929908 30.967636 
L 276.120663 31.447818 
L 276.311419 31.447818 
L 276.502174 33.848727 
L 277.074439 44.412727 
L 277.646704 52.095636 
L 278.60048 58.818182 
L 279.554256 63.62 
L 279.935766 63.62 
L 280.126521 64.100182 
L 280.508031 64.100182 
L 280.698787 64.580364 
L 280.889542 64.580364 
L 281.080297 65.060545 
L 292.334849 65.060545 
L 292.525605 64.580364 
L 293.288625 60.258727 
L 293.670135 55.937091 
L 321.329629 55.937091 
L 321.520384 56.417273 
L 321.711139 57.857818 
L 321.901894 58.338 
L 322.283405 59.778545 
L 322.85567 61.219091 
L 323.046425 60.738909 
L 323.23718 61.219091 
L 324.000201 61.219091 
L 324.572466 64.100182 
L 325.526242 64.100182 
L 325.716997 64.580364 
L 326.480017 64.580364 
L 326.670773 65.060545 
L 326.861528 64.580364 
L 327.052283 65.060545 
L 327.243038 65.060545 
L 327.433793 64.580364 
L 328.387569 64.580364 
L 328.578324 65.060545 
L 328.769079 64.580364 
L 328.959834 65.060545 
L 329.150589 64.580364 
L 330.104365 64.580364 
L 330.29512 65.060545 
L 330.485875 65.060545 
L 330.67663 64.580364 
L 331.058141 64.580364 
L 331.248896 65.060545 
L 331.439651 64.580364 
L 331.630406 65.060545 
L 331.821161 64.580364 
L 332.011916 65.060545 
L 332.202671 65.060545 
L 332.393426 64.580364 
L 333.156447 64.580364 
L 333.347202 65.060545 
L 333.537957 65.060545 
L 333.919467 66.020909 
L 334.682488 66.020909 
L 335.063998 66.981273 
L 335.636264 70.342545 
L 335.827019 71.783091 
L 336.590039 80.426364 
L 337.35306 87.148909 
L 337.925325 91.470545 
L 338.497591 97.712909 
L 366.72935 97.712909 
L 367.11086 96.752545 
L 367.49237 96.752545 
L 368.064636 93.871455 
L 369.590677 75.624545 
L 370.544452 66.501091 
L 371.116718 65.060545 
L 371.307473 65.060545 
L 371.498228 64.580364 
L 379.509943 64.580364 
L 379.700698 65.060545 
L 379.891454 65.060545 
L 380.082209 66.020909 
L 380.463719 66.020909 
L 380.654474 66.501091 
L 381.226739 66.501091 
L 381.417495 66.981273 
L 381.98976 70.342545 
L 382.37127 73.703818 
L 383.897311 90.03 
L 384.660332 100.594 
L 385.041842 106.836364 
L 411.36605 106.836364 
L 411.556805 106.356182 
L 412.701336 106.356182 
L 412.892091 105.876 
L 413.082846 105.876 
L 413.273601 105.395818 
L 413.655111 105.395818 
L 414.036622 104.435455 
L 414.608887 101.074182 
L 415.181152 92.911091 
L 416.516438 74.184 
L 417.088704 67.461455 
L 417.279459 66.501091 
L 417.470214 66.501091 
L 417.660969 66.020909 
L 418.042479 66.020909 
L 418.233234 65.540727 
L 418.42399 65.540727 
L 418.614745 65.060545 
L 418.996255 65.060545 
L 419.18701 64.580364 
L 423.002113 64.580364 
L 423.192868 64.100182 
L 423.383623 64.580364 
L 423.574378 64.580364 
L 423.765133 64.100182 
L 423.955888 64.580364 
L 424.146643 64.580364 
L 424.337399 64.100182 
L 424.528154 64.580364 
L 424.718909 64.580364 
L 424.909664 64.100182 
L 425.100419 64.580364 
L 425.86344 64.580364 
L 426.054195 64.100182 
L 426.24495 64.580364 
L 427.580236 64.580364 
L 427.770991 64.100182 
L 427.961746 64.580364 
L 428.724766 64.580364 
L 429.297032 66.020909 
L 429.678542 66.020909 
L 429.869297 66.501091 
L 430.441563 66.501091 
L 430.632318 66.981273 
L 431.395338 70.822727 
L 431.967604 76.104727 
L 432.158359 77.065091 
L 432.921379 83.787636 
L 433.6844 90.03 
L 434.44742 99.153455 
L 434.638175 99.633636 
L 434.828931 99.153455 
L 435.019686 99.633636 
L 435.210441 99.633636 
L 435.401196 99.153455 
L 435.591951 99.633636 
L 435.782706 99.153455 
L 435.973461 99.633636 
L 457.338036 99.633636 
L 457.528791 99.153455 
L 457.719546 99.633636 
L 458.864077 99.633636 
L 459.054832 99.153455 
L 459.245587 99.633636 
L 460.199363 99.633636 
L 460.390118 99.153455 
L 461.534649 99.153455 
L 461.725404 99.633636 
L 461.916159 99.153455 
L 463.82371 99.153455 
L 464.014465 98.673273 
L 464.20522 98.673273 
L 464.395976 97.712909 
L 464.777486 97.712909 
L 465.731261 93.391273 
L 466.685037 82.347091 
L 467.448058 75.624545 
L 468.783344 69.382182 
L 468.974099 68.902 
L 469.355609 67.461455 
L 469.737119 66.501091 
L 469.927874 66.501091 
L 470.118629 66.020909 
L 470.50014 66.020909 
L 470.690895 65.540727 
L 470.88165 65.540727 
L 471.072405 65.060545 
L 472.026181 65.060545 
L 472.216936 64.580364 
L 472.407691 65.060545 
L 472.789201 65.060545 
L 472.979956 64.580364 
L 473.170711 65.060545 
L 473.361467 65.060545 
L 473.552222 64.580364 
L 473.742977 65.060545 
L 473.933732 64.580364 
L 474.124487 65.060545 
L 475.269018 65.060545 
L 475.459773 64.580364 
L 475.650528 64.580364 
L 475.841283 65.060545 
L 476.032038 65.060545 
L 476.222794 64.580364 
L 476.413549 65.060545 
L 477.558079 65.060545 
L 477.748835 64.580364 
L 477.93959 65.060545 
L 478.130345 65.060545 
L 478.3211 64.580364 
L 478.511855 65.060545 
L 478.70261 64.580364 
L 478.893365 65.060545 
L 479.274876 65.060545 
L 479.465631 64.580364 
L 479.656386 65.060545 
L 480.419406 65.060545 
L 480.610162 64.580364 
L 480.800917 65.060545 
L 482.899223 65.060545 
L 483.089978 64.580364 
L 483.280733 65.060545 
L 483.852999 65.060545 
L 484.043754 64.580364 
L 484.234509 65.060545 
L 486.14206 65.060545 
L 486.332815 64.580364 
L 486.52357 65.060545 
L 487.477346 65.060545 
L 487.668101 64.580364 
L 487.858856 65.060545 
L 488.240367 65.060545 
L 488.431122 64.580364 
L 488.621877 65.060545 
L 488.812632 64.580364 
L 489.003387 64.580364 
L 489.194142 65.060545 
L 491.101694 65.060545 
L 491.292449 64.580364 
L 491.483204 64.580364 
L 491.673959 65.060545 
L 492.436979 65.060545 
L 492.627735 64.580364 
L 492.81849 65.060545 
L 493.2 65.060545 
L 493.2 65.060545 
" clip-path="url(#p501d498554)" style="fill: none; stroke: #1f77b4; stroke-width: 1.5; stroke-linecap: square"/>
   </g>
   <g id="line2d_12">
    <path d="M 56.18 63.62 
L 493.2 63.62 
" clip-path="url(#p501d498554)" style="fill: none; stroke-dasharray: 2.96,1.28; stroke-dashoffset: 0; stroke: #808080; stroke-width: 0.8"/>
   </g>
   <g id="patch_3">
    <path d="M 56.18 116.44 
L 56.18 10.8 
" style="fill: none; stroke: #000000; stroke-width: 0.8; stroke-linejoin: miter; stroke-linecap: square"/>
   </g>
   <g id="patch_4">
    <path d="M 56.18 116.44 
L 493.2 116.44 
" style="fill: none; stroke: #000000; stroke-width: 0.8; stroke-linejoin: miter; stroke-linecap: square"/>
   </g>
  </g>
  <g id="axes_2">
   <g id="patch_5">
    <path d="M 56.18 264.04 
L 493.2 264.04 
L 493.2 158.4 
L 56.18 158.4 
z
" style="fill: #ffffff"/>
   </g>
   <g id="matplotlib.axis_3">
    <g id="xtick_6">
     <g id="line2d_13">
      <g>
       <use xlink:href="#m018c6c43c3" x="56.18" y="264.04" style="stroke: #000000; stroke-width: 0.8"/>
      </g>
     </g>
     <g id="text_13">
      <!-- 0 -->
      <g transform="translate(52.99875 278.638438) scale(0.1 -0.1)">
       <use xlink:href="#DejaVuSans-30"/>
      </g>
     </g>
    </g>
    <g id="xtick_7">
     <g id="line2d_14">
      <g>
       <use xlink:href="#m018c6c43c3" x="151.557564" y="264.04" style="stroke: #000000; stroke-width: 0.8"/>
      </g>
     </g>
     <g id="text_14">
      <!-- 5000 -->
      <g transform="translate(138.832564 278.638438) scale(0.1 -0.1)">
       <use xlink:href="#DejaVuSans-35"/>
       <use xlink:href="#DejaVuSans-30" x="63.623047"/>
       <use xlink:href="#DejaVuSans-30" x="127.246094"/>
       <use xlink:href="#DejaVuSans-30" x="190.869141"/>
      </g>
     </g>
    </g>
    <g id="xtick_8">
     <g id="line2d_15">
      <g>
       <use xlink:href="#m018c6c43c3" x="246.935129" y="264.04" style="stroke: #000000; stroke-width: 0.8"/>
      </g>
     </g>
     <g id="text_15">
      <!-- 10000 -->
      <g transform="translate(231.028879 278.638438) scale(0.1 -0.1)">
       <use xlink:href="#DejaVuSans-31"/>
       <use xlink:href="#DejaVuSans-30" x="63.623047"/>
       <use xlink:href="#DejaVuSans-30" x="127.246094"/>
       <use xlink:href="#DejaVuSans-30" x="190.869141"/>
       <use xlink:href="#DejaVuSans-30" x="254.492188"/>
      </g>
     </g>
    </g>
    <g id="xtick_9">
     <g id="line2d_16">
      <g>
       <use xlink:href="#m018c6c43c3" x="342.312693" y="264.04" style="stroke: #000000; stroke-width: 0.8"/>
      </g>
     </g>
     <g id="text_16">
      <!-- 15000 -->
      <g transform="translate(326.406443 278.638438) scale(0.1 -0.1)">
       <use xlink:href="#DejaVuSans-31"/>
       <use xlink:href="#DejaVuSans-35" x="63.623047"/>
       <use xlink:href="#DejaVuSans-30" x="127.246094"/>
       <use xlink:href="#DejaVuSans-30" x="190.869141"/>
       <use xlink:href="#DejaVuSans-30" x="254.492188"/>
      </g>
     </g>
    </g>
    <g id="xtick_10">
     <g id="line2d_17">
      <g>
       <use xlink:href="#m018c6c43c3" x="437.690258" y="264.04" style="stroke: #000000; stroke-width: 0.8"/>
      </g>
     </g>
     <g id="text_17">
      <!-- 20000 -->
      <g transform="translate(421.784008 278.638438) scale(0.1 -0.1)">
       <use xlink:href="#DejaVuSans-32"/>
       <use xlink:href="#DejaVuSans-30" x="63.623047"/>
       <use xlink:href="#DejaVuSans-30" x="127.246094"/>
       <use xlink:href="#DejaVuSans-30" x="190.869141"/>
       <use xlink:href="#DejaVuSans-30" x="254.492188"/>
      </g>
     </g>
    </g>
    <g id="text_18">
     <!-- Time (ms) -->
     <g transform="translate(249.490781 292.316563) scale(0.1 -0.1)">
      <use xlink:href="#DejaVuSans-54"/>
      <use xlink:href="#DejaVuSans-69" x="57.958984"/>
      <use xlink:href="#DejaVuSans-6d" x="85.742188"/>
      <use xlink:href="#DejaVuSans-65" x="183.154297"/>
      <use xlink:href="#DejaVuSans-20" x="244.677734"/>
      <use xlink:href="#DejaVuSans-28" x="276.464844"/>
      <use xlink:href="#DejaVuSans-6d" x="315.478516"/>
      <use xlink:href="#DejaVuSans-73" x="412.890625"/>
      <use xlink:href="#DejaVuSans-29" x="464.990234"/>
     </g>
    </g>
   </g>
   <g id="matplotlib.axis_4">
    <g id="ytick_6">
     <g id="line2d_18">
      <g>
       <use xlink:href="#mdc163fb883" x="56.18" y="259.238182" style="stroke: #000000; stroke-width: 0.8"/>
      </g>
     </g>
     <g id="text_19">
      <!-- −1.0 -->
      <g transform="translate(24.897188 263.037401) scale(0.1 -0.1)">
       <use xlink:href="#DejaVuSans-2212"/>
       <use xlink:href="#DejaVuSans-31" x="83.789062"/>
       <use xlink:href="#DejaVuSans-2e" x="147.412109"/>
       <use xlink:href="#DejaVuSans-30" x="179.199219"/>
      </g>
     </g>
    </g>
    <g id="ytick_7">
     <g id="line2d_19">
      <g>
       <use xlink:href="#mdc163fb883" x="56.18" y="235.229091" style="stroke: #000000; stroke-width: 0.8"/>
      </g>
     </g>
     <g id="text_20">
      <!-- −0.5 -->
      <g transform="translate(24.897188 239.02831) scale(0.1 -0.1)">
       <use xlink:href="#DejaVuSans-2212"/>
       <use xlink:href="#DejaVuSans-30" x="83.789062"/>
       <use xlink:href="#DejaVuSans-2e" x="147.412109"/>
       <use xlink:href="#DejaVuSans-35" x="179.199219"/>
      </g>
     </g>
    </g>
    <g id="ytick_8">
     <g id="line2d_20">
      <g>
       <use xlink:href="#mdc163fb883" x="56.18" y="211.22" style="stroke: #000000; stroke-width: 0.8"/>
      </g>
     </g>
     <g id="text_21">
      <!-- 0.0 -->
      <g transform="translate(33.276875 215.019219) scale(0.1 -0.1)">
       <use xlink:href="#DejaVuSans-30"/>
       <use xlink:href="#DejaVuSans-2e" x="63.623047"/>
       <use xlink:href="#DejaVuSans-30" x="95.410156"/>
      </g>
     </g>
    </g>
    <g id="ytick_9">
     <g id="line2d_21">
      <g>
       <use xlink:href="#mdc163fb883" x="56.18" y="187.210909" style="stroke: #000000; stroke-width: 0.8"/>
      </g>
     </g>
     <g id="text_22">
      <!-- 0.5 -->
      <g transform="translate(33.276875 191.010128) scale(0.1 -0.1)">
       <use xlink:href="#DejaVuSans-30"/>
       <use xlink:href="#DejaVuSans-2e" x="63.623047"/>
       <use xlink:href="#DejaVuSans-35" x="95.410156"/>
      </g>
     </g>
    </g>
    <g id="ytick_10">
     <g id="line2d_22">
      <g>
       <use xlink:href="#mdc163fb883" x="56.18" y="163.201818" style="stroke: #000000; stroke-width: 0.8"/>
      </g>
     </g>
     <g id="text_23">
      <!-- 1.0 -->
      <g transform="translate(33.276875 167.001037) scale(0.1 -0.1)">
       <use xlink:href="#DejaVuSans-31"/>
       <use xlink:href="#DejaVuSans-2e" x="63.623047"/>
       <use xlink:href="#DejaVuSans-30" x="95.410156"/>
      </g>
     </g>
    </g>
    <g id="text_24">
     <!-- Y-Axis Value -->
     <g transform="translate(18.8175 241.065313) rotate(-90) scale(0.1 -0.1)">
      <defs>
       <path id="DejaVuSans-59" d="M -13 4666 
L 666 4666 
L 1959 2747 
L 3244 4666 
L 3922 4666 
L 2272 2222 
L 2272 0 
L 1638 0 
L 1638 2222 
L -13 4666 
z
" transform="scale(0.015625)"/>
      </defs>
      <use xlink:href="#DejaVuSans-59"/>
      <use xlink:href="#DejaVuSans-2d" x="49.208984"/>
      <use xlink:href="#DejaVuSans-41" x="83.042969"/>
      <use xlink:href="#DejaVuSans-78" x="151.451172"/>
      <use xlink:href="#DejaVuSans-69" x="210.630859"/>
      <use xlink:href="#DejaVuSans-73" x="238.414062"/>
      <use xlink:href="#DejaVuSans-20" x="290.513672"/>
      <use xlink:href="#DejaVuSans-56" x="322.300781"/>
      <use xlink:href="#DejaVuSans-61" x="382.958984"/>
      <use xlink:href="#DejaVuSans-6c" x="444.238281"/>
      <use xlink:href="#DejaVuSans-75" x="472.021484"/>
      <use xlink:href="#DejaVuSans-65" x="535.400391"/>
     </g>
    </g>
   </g>
   <g id="line2d_23">
    <path d="M 56.18 210.259636 
L 83.076473 210.259636 
L 83.267228 209.779455 
L 84.221004 209.779455 
L 84.411759 209.299273 
L 84.984024 209.299273 
L 85.17478 208.819091 
L 85.55629 208.819091 
L 85.9378 207.858727 
L 86.128555 207.858727 
L 86.31931 207.378545 
L 86.510065 207.378545 
L 87.654596 198.255091 
L 88.226862 193.453273 
L 88.608372 191.052364 
L 89.180637 186.250545 
L 89.943658 177.607273 
L 90.325168 172.325273 
L 90.515923 168.483818 
L 112.262008 168.483818 
L 112.452763 168.003636 
L 112.643518 168.483818 
L 112.834273 168.003636 
L 113.025028 168.003636 
L 113.215784 168.483818 
L 113.597294 168.483818 
L 113.788049 168.003636 
L 113.978804 168.483818 
L 114.93258 168.483818 
L 115.123335 168.003636 
L 115.31409 168.003636 
L 115.504845 168.483818 
L 115.6956 168.483818 
L 115.886355 168.003636 
L 116.07711 168.483818 
L 116.267866 168.003636 
L 116.649376 168.003636 
L 116.840131 168.483818 
L 117.030886 168.003636 
L 117.221641 168.483818 
L 117.412396 168.003636 
L 117.984662 168.003636 
L 118.175417 168.483818 
L 118.747682 168.483818 
L 118.938437 168.003636 
L 119.129192 168.483818 
L 121.036744 168.483818 
L 121.227499 168.003636 
L 121.418254 168.003636 
L 121.609009 168.483818 
L 121.799764 168.003636 
L 121.990519 168.483818 
L 122.37203 168.483818 
L 122.75354 170.884727 
L 123.13505 176.646909 
L 124.088826 192.492909 
L 124.470336 199.215455 
L 125.042601 205.938 
L 125.233357 207.378545 
L 125.996377 209.299273 
L 126.759398 209.299273 
L 126.950153 209.779455 
L 138.39546 209.779455 
L 138.967726 207.378545 
L 139.158481 206.898364 
L 141.066032 192.012727 
L 141.447543 187.691091 
L 141.638298 186.250545 
L 142.019808 186.250545 
L 142.210563 185.770364 
L 153.846626 185.770364 
L 154.037381 185.290182 
L 154.800402 185.290182 
L 154.991157 184.81 
L 161.095321 184.81 
L 161.286076 184.329818 
L 161.476831 184.81 
L 161.667586 184.81 
L 161.858341 184.329818 
L 162.049096 184.329818 
L 162.239852 184.81 
L 162.621362 184.81 
L 162.812117 184.329818 
L 163.575137 184.329818 
L 163.765893 184.81 
L 163.956648 184.329818 
L 164.147403 184.81 
L 164.719668 184.81 
L 164.910423 184.329818 
L 165.101179 184.81 
L 165.291934 184.329818 
L 166.245709 184.329818 
L 166.436464 184.81 
L 166.62722 184.329818 
L 166.817975 184.81 
L 167.00873 184.81 
L 167.199485 184.329818 
L 167.39024 184.329818 
L 167.580995 184.81 
L 167.77175 184.329818 
L 167.962505 184.81 
L 168.153261 184.81 
L 168.344016 184.329818 
L 168.916281 184.329818 
L 169.107036 184.81 
L 169.297791 184.329818 
L 174.06667 184.329818 
L 174.44818 188.171273 
L 174.638935 189.611818 
L 175.592711 200.656 
L 176.355731 207.858727 
L 176.737241 208.819091 
L 184.367447 208.819091 
L 184.558202 209.299273 
L 184.748957 208.819091 
L 184.939712 208.819091 
L 185.130467 209.299273 
L 185.321222 208.819091 
L 185.511977 209.299273 
L 186.084243 209.299273 
L 186.274998 208.819091 
L 186.465753 209.299273 
L 187.038018 209.299273 
L 187.228773 208.819091 
L 187.419529 209.299273 
L 189.70859 209.299273 
L 189.899345 209.779455 
L 192.569917 209.779455 
L 193.523693 207.378545 
L 194.477468 207.378545 
L 194.668223 206.898364 
L 194.858979 206.898364 
L 195.049734 207.378545 
L 195.240489 207.378545 
L 195.431244 206.898364 
L 206.495041 206.898364 
L 206.685797 207.378545 
L 206.876552 206.898364 
L 224.616779 206.898364 
L 224.807534 206.418182 
L 226.14282 206.418182 
L 226.333575 205.938 
L 226.715085 205.938 
L 227.287351 204.497455 
L 227.668861 204.497455 
L 227.859616 204.017273 
L 229.957922 204.017273 
L 230.148677 204.497455 
L 230.339433 204.497455 
L 230.720943 205.938 
L 230.911698 206.418182 
L 231.102453 207.378545 
L 231.483963 207.378545 
L 231.674718 207.858727 
L 235.680576 207.858727 
L 235.871331 208.338909 
L 236.634352 208.338909 
L 236.825107 208.819091 
L 240.830965 208.819091 
L 241.02172 209.299273 
L 241.40323 209.299273 
L 241.593985 209.779455 
L 241.975495 209.779455 
L 242.166251 210.259636 
L 242.929271 210.259636 
L 243.120026 210.739818 
L 243.310781 210.739818 
L 243.692292 211.700182 
L 244.836822 216.982182 
L 245.027577 217.462364 
L 246.362863 224.665091 
L 247.316639 231.867818 
L 247.698149 237.149818 
L 248.07966 238.110182 
L 248.270415 238.110182 
L 248.46117 238.590364 
L 249.605701 238.590364 
L 249.796456 239.070545 
L 274.403867 239.070545 
L 274.594622 238.590364 
L 274.785378 238.590364 
L 275.166888 237.63 
L 275.739153 235.229091 
L 276.120663 234.268727 
L 276.311419 232.828182 
L 277.646704 216.982182 
L 278.028215 214.581273 
L 279.172746 211.700182 
L 280.126521 211.700182 
L 280.317276 211.22 
L 280.698787 211.22 
L 280.889542 210.739818 
L 281.080297 210.739818 
L 281.271052 210.259636 
L 282.606338 210.259636 
L 282.797093 209.779455 
L 282.987848 209.779455 
L 283.178603 210.259636 
L 283.369358 209.779455 
L 283.560113 210.259636 
L 287.756726 210.259636 
L 287.947481 209.779455 
L 288.138237 210.259636 
L 289.282767 210.259636 
L 289.473522 210.739818 
L 289.855033 210.739818 
L 290.045788 211.22 
L 290.808808 211.22 
L 290.999564 211.700182 
L 291.381074 211.700182 
L 291.762584 214.101091 
L 292.144094 217.462364 
L 292.525605 224.665091 
L 293.288625 243.872364 
L 293.670135 255.396727 
L 320.375853 255.396727 
L 320.948119 253.956182 
L 321.138874 252.995818 
L 321.520384 248.674182 
L 322.092649 239.070545 
L 322.85567 228.986727 
L 323.427935 222.744364 
L 324.572466 212.180364 
L 324.763221 211.700182 
L 325.144732 211.700182 
L 325.716997 210.259636 
L 326.480017 210.259636 
L 326.670773 209.779455 
L 327.052283 209.779455 
L 327.243038 210.259636 
L 327.433793 210.259636 
L 327.624548 209.779455 
L 331.630406 209.779455 
L 331.821161 210.259636 
L 332.011916 209.779455 
L 333.728712 209.779455 
L 333.919467 210.259636 
L 334.682488 210.259636 
L 335.445509 212.180364 
L 335.827019 214.581273 
L 336.208529 216.982182 
L 336.590039 220.343455 
L 338.11608 236.669636 
L 338.497591 241.471455 
L 338.879101 241.471455 
L 339.069856 241.951636 
L 340.405142 241.951636 
L 340.595897 241.471455 
L 340.786652 241.951636 
L 351.659694 241.951636 
L 351.85045 241.471455 
L 352.041205 241.951636 
L 353.567246 241.951636 
L 353.758001 241.471455 
L 353.948756 241.951636 
L 359.099144 241.951636 
L 359.2899 241.471455 
L 359.480655 241.951636 
L 367.301615 241.951636 
L 367.49237 241.471455 
L 368.064636 238.590364 
L 369.209166 226.105636 
L 369.781432 219.863273 
L 370.162942 216.502 
L 370.735207 211.700182 
L 371.498228 211.700182 
L 371.688983 211.22 
L 372.070493 211.22 
L 372.261248 210.739818 
L 377.411637 210.739818 
L 377.602392 210.259636 
L 384.660332 210.259636 
L 384.851087 210.739818 
L 385.041842 211.700182 
L 416.134928 211.700182 
L 416.325683 211.22 
L 416.516438 211.22 
L 416.707193 210.739818 
L 416.897948 210.739818 
L 417.088704 210.259636 
L 430.632318 210.259636 
L 430.823073 209.779455 
L 431.967604 203.537091 
L 432.730624 196.814545 
L 433.30289 192.012727 
L 433.6844 189.131636 
L 434.06591 186.250545 
L 434.44742 181.448727 
L 437.117992 181.448727 
L 437.308747 180.968545 
L 437.499502 181.448727 
L 438.071768 181.448727 
L 438.262523 180.968545 
L 438.453278 181.448727 
L 438.644033 180.968545 
L 438.834788 181.448727 
L 439.025543 180.968545 
L 439.788564 180.968545 
L 439.979319 181.448727 
L 440.360829 181.448727 
L 440.551584 180.968545 
L 440.74234 180.968545 
L 440.933095 181.448727 
L 441.12385 181.448727 
L 441.314605 180.968545 
L 441.50536 180.968545 
L 441.696115 181.448727 
L 441.88687 180.968545 
L 442.840646 180.968545 
L 443.031401 181.448727 
L 443.222156 180.968545 
L 443.412911 181.448727 
L 443.794422 181.448727 
L 443.985177 180.968545 
L 444.557442 180.968545 
L 444.748197 181.448727 
L 445.320463 181.448727 
L 445.511218 180.968545 
L 445.701973 180.968545 
L 445.892728 181.448727 
L 446.083483 180.968545 
L 446.274238 181.448727 
L 446.464993 180.968545 
L 447.228014 180.968545 
L 447.418769 181.448727 
L 447.609524 180.968545 
L 447.800279 180.968545 
L 447.991034 181.448727 
L 448.18179 180.968545 
L 449.707831 180.968545 
L 449.898586 181.448727 
L 450.089341 181.448727 
L 450.280096 180.968545 
L 451.806137 180.968545 
L 451.996892 181.448727 
L 452.187647 180.968545 
L 453.904443 180.968545 
L 454.095199 181.448727 
L 454.285954 180.968545 
L 454.667464 180.968545 
L 454.858219 181.448727 
L 455.048974 180.968545 
L 455.430485 180.968545 
L 455.62124 181.448727 
L 455.811995 180.968545 
L 456.193505 180.968545 
L 456.38426 181.448727 
L 456.575015 181.448727 
L 456.76577 180.968545 
L 460.199363 180.968545 
L 460.390118 181.448727 
L 460.580873 180.968545 
L 460.771628 181.448727 
L 460.962383 180.968545 
L 463.06069 180.968545 
L 463.251445 181.448727 
L 463.4422 180.968545 
L 464.20522 180.968545 
L 464.395976 181.448727 
L 464.586731 181.448727 
L 464.777486 180.968545 
L 465.349751 180.968545 
L 465.540506 181.448727 
L 465.731261 180.968545 
L 465.922017 181.448727 
L 466.685037 188.651455 
L 466.875792 189.611818 
L 467.257302 192.973091 
L 469.164854 203.056909 
L 469.737119 206.898364 
L 470.118629 207.858727 
L 470.690895 207.858727 
L 470.88165 208.338909 
L 471.072405 208.338909 
L 471.26316 208.819091 
L 471.453915 208.819091 
L 471.64467 209.299273 
L 471.835426 209.299273 
L 472.026181 209.779455 
L 472.598446 209.779455 
L 472.789201 210.259636 
L 472.979956 209.779455 
L 473.552222 209.779455 
L 473.742977 210.259636 
L 473.933732 209.779455 
L 493.2 209.779455 
L 493.2 209.779455 
" clip-path="url(#p80227a0547)" style="fill: none; stroke: #1f77b4; stroke-width: 1.5; stroke-linecap: square"/>
   </g>
   <g id="line2d_24">
    <path d="M 56.18 211.22 
L 493.2 211.22 
" clip-path="url(#p80227a0547)" style="fill: none; stroke-dasharray: 2.96,1.28; stroke-dashoffset: 0; stroke: #808080; stroke-width: 0.8"/>
   </g>
   <g id="patch_6">
    <path d="M 56.18 264.04 
L 56.18 158.4 
" style="fill: none; stroke: #000000; stroke-width: 0.8; stroke-linejoin: miter; stroke-linecap: square"/>
   </g>
   <g id="patch_7">
    <path d="M 56.18 264.04 
L 493.2 264.04 
" style="fill: none; stroke: #000000; stroke-width: 0.8; stroke-linejoin: miter; stroke-linecap: square"/>
   </g>
  </g>
 </g>
 <defs>
  <clipPath id="p501d498554">
   <rect x="56.18" y="10.8" width="437.02" height="105.64"/>
  </clipPath>
  <clipPath id="p80227a0547">
   <rect x="56.18" y="158.4" width="437.02" height="105.64"/>
  </clipPath>
 </defs>
</svg>
