<?xml version="1.0" encoding="utf-8" standalone="no"?>
<!DOCTYPE svg PUBLIC "-//W3C//DTD SVG 1.1//EN"
  "http://www.w3.org/Graphics/SVG/1.1/DTD/svg11.dtd">
<svg xmlns:xlink="http://www.w3.org/1999/xlink" width="504pt" height="306pt" viewBox="0 0 504 306" xmlns="http://www.w3.org/2000/svg" version="1.1">
 <metadata>
  <rdf:RDF xmlns:dc="http://purl.org/dc/elements/1.1/" xmlns:cc="http://creativecommons.org/ns#" xmlns:rdf="http://www.w3.org/1999/02/22-rdf-syntax-ns#">
   <cc:Work>
    <dc:type rdf:resource="http://purl.org/dc/dcmitype/StillImage"/>
    <dc:date>2024-06-16T22:16:18.630479</dc:date>
    <dc:format>image/svg+xml</dc:format>
    <dc:creator>
     <cc:Agent>
      <dc:title>Matplotlib v3.8.3, https://matplotlib.org/</dc:title>
     </cc:Agent>
    </dc:creator>
   </cc:Work>
  </rdf:RDF>
 </metadata>
 <defs>
  <style type="text/css">*{stroke-linejoin: round; stroke-linecap: butt}</style>
 </defs>
 <g id="figure_1">
  <g id="patch_1">
   <path d="M 0 306 
L 504 306 
L 504 0 
L 0 0 
z
" style="fill: #ffffff"/>
  </g>
  <g id="axes_1">
   <g id="patch_2">
    <path d="M 56.18 116.44 
L 493.2 116.44 
L 493.2 10.8 
L 56.18 10.8 
z
" style="fill: #ffffff"/>
   </g>
   <g id="matplotlib.axis_1">
    <g id="xtick_1">
     <g id="line2d_1">
      <defs>
       <path id="m9b0bbca925" d="M 0 0 
L 0 3.5 
" style="stroke: #000000; stroke-width: 0.8"/>
      </defs>
      <g>
       <use xlink:href="#m9b0bbca925" x="56.18" y="116.44" style="stroke: #000000; stroke-width: 0.8"/>
      </g>
     </g>
     <g id="text_1">
      <!-- 0 -->
      <g transform="translate(52.99875 131.038437) scale(0.1 -0.1)">
       <defs>
        <path id="DejaVuSans-30" d="M 2034 4250 
Q 1547 4250 1301 3770 
Q 1056 3291 1056 2328 
Q 1056 1369 1301 889 
Q 1547 409 2034 409 
Q 2525 409 2770 889 
Q 3016 1369 3016 2328 
Q 3016 3291 2770 3770 
Q 2525 4250 2034 4250 
z
M 2034 4750 
Q 2819 4750 3233 4129 
Q 3647 3509 3647 2328 
Q 3647 1150 3233 529 
Q 2819 -91 2034 -91 
Q 1250 -91 836 529 
Q 422 1150 422 2328 
Q 422 3509 836 4129 
Q 1250 4750 2034 4750 
z
" transform="scale(0.015625)"/>
       </defs>
       <use xlink:href="#DejaVuSans-30"/>
      </g>
     </g>
    </g>
    <g id="xtick_2">
     <g id="line2d_2">
      <g>
       <use xlink:href="#m9b0bbca925" x="138.018951" y="116.44" style="stroke: #000000; stroke-width: 0.8"/>
      </g>
     </g>
     <g id="text_2">
      <!-- 2000 -->
      <g transform="translate(125.293951 131.038437) scale(0.1 -0.1)">
       <defs>
        <path id="DejaVuSans-32" d="M 1228 531 
L 3431 531 
L 3431 0 
L 469 0 
L 469 531 
Q 828 903 1448 1529 
Q 2069 2156 2228 2338 
Q 2531 2678 2651 2914 
Q 2772 3150 2772 3378 
Q 2772 3750 2511 3984 
Q 2250 4219 1831 4219 
Q 1534 4219 1204 4116 
Q 875 4013 500 3803 
L 500 4441 
Q 881 4594 1212 4672 
Q 1544 4750 1819 4750 
Q 2544 4750 2975 4387 
Q 3406 4025 3406 3419 
Q 3406 3131 3298 2873 
Q 3191 2616 2906 2266 
Q 2828 2175 2409 1742 
Q 1991 1309 1228 531 
z
" transform="scale(0.015625)"/>
       </defs>
       <use xlink:href="#DejaVuSans-32"/>
       <use xlink:href="#DejaVuSans-30" x="63.623047"/>
       <use xlink:href="#DejaVuSans-30" x="127.246094"/>
       <use xlink:href="#DejaVuSans-30" x="190.869141"/>
      </g>
     </g>
    </g>
    <g id="xtick_3">
     <g id="line2d_3">
      <g>
       <use xlink:href="#m9b0bbca925" x="219.857903" y="116.44" style="stroke: #000000; stroke-width: 0.8"/>
      </g>
     </g>
     <g id="text_3">
      <!-- 4000 -->
      <g transform="translate(207.132903 131.038437) scale(0.1 -0.1)">
       <defs>
        <path id="DejaVuSans-34" d="M 2419 4116 
L 825 1625 
L 2419 1625 
L 2419 4116 
z
M 2253 4666 
L 3047 4666 
L 3047 1625 
L 3713 1625 
L 3713 1100 
L 3047 1100 
L 3047 0 
L 2419 0 
L 2419 1100 
L 313 1100 
L 313 1709 
L 2253 4666 
z
" transform="scale(0.015625)"/>
       </defs>
       <use xlink:href="#DejaVuSans-34"/>
       <use xlink:href="#DejaVuSans-30" x="63.623047"/>
       <use xlink:href="#DejaVuSans-30" x="127.246094"/>
       <use xlink:href="#DejaVuSans-30" x="190.869141"/>
      </g>
     </g>
    </g>
    <g id="xtick_4">
     <g id="line2d_4">
      <g>
       <use xlink:href="#m9b0bbca925" x="301.696854" y="116.44" style="stroke: #000000; stroke-width: 0.8"/>
      </g>
     </g>
     <g id="text_4">
      <!-- 6000 -->
      <g transform="translate(288.971854 131.038437) scale(0.1 -0.1)">
       <defs>
        <path id="DejaVuSans-36" d="M 2113 2584 
Q 1688 2584 1439 2293 
Q 1191 2003 1191 1497 
Q 1191 994 1439 701 
Q 1688 409 2113 409 
Q 2538 409 2786 701 
Q 3034 994 3034 1497 
Q 3034 2003 2786 2293 
Q 2538 2584 2113 2584 
z
M 3366 4563 
L 3366 3988 
Q 3128 4100 2886 4159 
Q 2644 4219 2406 4219 
Q 1781 4219 1451 3797 
Q 1122 3375 1075 2522 
Q 1259 2794 1537 2939 
Q 1816 3084 2150 3084 
Q 2853 3084 3261 2657 
Q 3669 2231 3669 1497 
Q 3669 778 3244 343 
Q 2819 -91 2113 -91 
Q 1303 -91 875 529 
Q 447 1150 447 2328 
Q 447 3434 972 4092 
Q 1497 4750 2381 4750 
Q 2619 4750 2861 4703 
Q 3103 4656 3366 4563 
z
" transform="scale(0.015625)"/>
       </defs>
       <use xlink:href="#DejaVuSans-36"/>
       <use xlink:href="#DejaVuSans-30" x="63.623047"/>
       <use xlink:href="#DejaVuSans-30" x="127.246094"/>
       <use xlink:href="#DejaVuSans-30" x="190.869141"/>
      </g>
     </g>
    </g>
    <g id="xtick_5">
     <g id="line2d_5">
      <g>
       <use xlink:href="#m9b0bbca925" x="383.535805" y="116.44" style="stroke: #000000; stroke-width: 0.8"/>
      </g>
     </g>
     <g id="text_5">
      <!-- 8000 -->
      <g transform="translate(370.810805 131.038437) scale(0.1 -0.1)">
       <defs>
        <path id="DejaVuSans-38" d="M 2034 2216 
Q 1584 2216 1326 1975 
Q 1069 1734 1069 1313 
Q 1069 891 1326 650 
Q 1584 409 2034 409 
Q 2484 409 2743 651 
Q 3003 894 3003 1313 
Q 3003 1734 2745 1975 
Q 2488 2216 2034 2216 
z
M 1403 2484 
Q 997 2584 770 2862 
Q 544 3141 544 3541 
Q 544 4100 942 4425 
Q 1341 4750 2034 4750 
Q 2731 4750 3128 4425 
Q 3525 4100 3525 3541 
Q 3525 3141 3298 2862 
Q 3072 2584 2669 2484 
Q 3125 2378 3379 2068 
Q 3634 1759 3634 1313 
Q 3634 634 3220 271 
Q 2806 -91 2034 -91 
Q 1263 -91 848 271 
Q 434 634 434 1313 
Q 434 1759 690 2068 
Q 947 2378 1403 2484 
z
M 1172 3481 
Q 1172 3119 1398 2916 
Q 1625 2713 2034 2713 
Q 2441 2713 2670 2916 
Q 2900 3119 2900 3481 
Q 2900 3844 2670 4047 
Q 2441 4250 2034 4250 
Q 1625 4250 1398 4047 
Q 1172 3844 1172 3481 
z
" transform="scale(0.015625)"/>
       </defs>
       <use xlink:href="#DejaVuSans-38"/>
       <use xlink:href="#DejaVuSans-30" x="63.623047"/>
       <use xlink:href="#DejaVuSans-30" x="127.246094"/>
       <use xlink:href="#DejaVuSans-30" x="190.869141"/>
      </g>
     </g>
    </g>
    <g id="xtick_6">
     <g id="line2d_6">
      <g>
       <use xlink:href="#m9b0bbca925" x="465.374757" y="116.44" style="stroke: #000000; stroke-width: 0.8"/>
      </g>
     </g>
     <g id="text_6">
      <!-- 10000 -->
      <g transform="translate(449.468507 131.038437) scale(0.1 -0.1)">
       <defs>
        <path id="DejaVuSans-31" d="M 794 531 
L 1825 531 
L 1825 4091 
L 703 3866 
L 703 4441 
L 1819 4666 
L 2450 4666 
L 2450 531 
L 3481 531 
L 3481 0 
L 794 0 
L 794 531 
z
" transform="scale(0.015625)"/>
       </defs>
       <use xlink:href="#DejaVuSans-31"/>
       <use xlink:href="#DejaVuSans-30" x="63.623047"/>
       <use xlink:href="#DejaVuSans-30" x="127.246094"/>
       <use xlink:href="#DejaVuSans-30" x="190.869141"/>
       <use xlink:href="#DejaVuSans-30" x="254.492188"/>
      </g>
     </g>
    </g>
    <g id="text_7">
     <!-- Time (ms) -->
     <g transform="translate(249.490781 144.716562) scale(0.1 -0.1)">
      <defs>
       <path id="DejaVuSans-54" d="M -19 4666 
L 3928 4666 
L 3928 4134 
L 2272 4134 
L 2272 0 
L 1638 0 
L 1638 4134 
L -19 4134 
L -19 4666 
z
" transform="scale(0.015625)"/>
       <path id="DejaVuSans-69" d="M 603 3500 
L 1178 3500 
L 1178 0 
L 603 0 
L 603 3500 
z
M 603 4863 
L 1178 4863 
L 1178 4134 
L 603 4134 
L 603 4863 
z
" transform="scale(0.015625)"/>
       <path id="DejaVuSans-6d" d="M 3328 2828 
Q 3544 3216 3844 3400 
Q 4144 3584 4550 3584 
Q 5097 3584 5394 3201 
Q 5691 2819 5691 2113 
L 5691 0 
L 5113 0 
L 5113 2094 
Q 5113 2597 4934 2840 
Q 4756 3084 4391 3084 
Q 3944 3084 3684 2787 
Q 3425 2491 3425 1978 
L 3425 0 
L 2847 0 
L 2847 2094 
Q 2847 2600 2669 2842 
Q 2491 3084 2119 3084 
Q 1678 3084 1418 2786 
Q 1159 2488 1159 1978 
L 1159 0 
L 581 0 
L 581 3500 
L 1159 3500 
L 1159 2956 
Q 1356 3278 1631 3431 
Q 1906 3584 2284 3584 
Q 2666 3584 2933 3390 
Q 3200 3197 3328 2828 
z
" transform="scale(0.015625)"/>
       <path id="DejaVuSans-65" d="M 3597 1894 
L 3597 1613 
L 953 1613 
Q 991 1019 1311 708 
Q 1631 397 2203 397 
Q 2534 397 2845 478 
Q 3156 559 3463 722 
L 3463 178 
Q 3153 47 2828 -22 
Q 2503 -91 2169 -91 
Q 1331 -91 842 396 
Q 353 884 353 1716 
Q 353 2575 817 3079 
Q 1281 3584 2069 3584 
Q 2775 3584 3186 3129 
Q 3597 2675 3597 1894 
z
M 3022 2063 
Q 3016 2534 2758 2815 
Q 2500 3097 2075 3097 
Q 1594 3097 1305 2825 
Q 1016 2553 972 2059 
L 3022 2063 
z
" transform="scale(0.015625)"/>
       <path id="DejaVuSans-20" transform="scale(0.015625)"/>
       <path id="DejaVuSans-28" d="M 1984 4856 
Q 1566 4138 1362 3434 
Q 1159 2731 1159 2009 
Q 1159 1288 1364 580 
Q 1569 -128 1984 -844 
L 1484 -844 
Q 1016 -109 783 600 
Q 550 1309 550 2009 
Q 550 2706 781 3412 
Q 1013 4119 1484 4856 
L 1984 4856 
z
" transform="scale(0.015625)"/>
       <path id="DejaVuSans-73" d="M 2834 3397 
L 2834 2853 
Q 2591 2978 2328 3040 
Q 2066 3103 1784 3103 
Q 1356 3103 1142 2972 
Q 928 2841 928 2578 
Q 928 2378 1081 2264 
Q 1234 2150 1697 2047 
L 1894 2003 
Q 2506 1872 2764 1633 
Q 3022 1394 3022 966 
Q 3022 478 2636 193 
Q 2250 -91 1575 -91 
Q 1294 -91 989 -36 
Q 684 19 347 128 
L 347 722 
Q 666 556 975 473 
Q 1284 391 1588 391 
Q 1994 391 2212 530 
Q 2431 669 2431 922 
Q 2431 1156 2273 1281 
Q 2116 1406 1581 1522 
L 1381 1569 
Q 847 1681 609 1914 
Q 372 2147 372 2553 
Q 372 3047 722 3315 
Q 1072 3584 1716 3584 
Q 2034 3584 2315 3537 
Q 2597 3491 2834 3397 
z
" transform="scale(0.015625)"/>
       <path id="DejaVuSans-29" d="M 513 4856 
L 1013 4856 
Q 1481 4119 1714 3412 
Q 1947 2706 1947 2009 
Q 1947 1309 1714 600 
Q 1481 -109 1013 -844 
L 513 -844 
Q 928 -128 1133 580 
Q 1338 1288 1338 2009 
Q 1338 2731 1133 3434 
Q 928 4138 513 4856 
z
" transform="scale(0.015625)"/>
      </defs>
      <use xlink:href="#DejaVuSans-54"/>
      <use xlink:href="#DejaVuSans-69" x="57.958984"/>
      <use xlink:href="#DejaVuSans-6d" x="85.742188"/>
      <use xlink:href="#DejaVuSans-65" x="183.154297"/>
      <use xlink:href="#DejaVuSans-20" x="244.677734"/>
      <use xlink:href="#DejaVuSans-28" x="276.464844"/>
      <use xlink:href="#DejaVuSans-6d" x="315.478516"/>
      <use xlink:href="#DejaVuSans-73" x="412.890625"/>
      <use xlink:href="#DejaVuSans-29" x="464.990234"/>
     </g>
    </g>
   </g>
   <g id="matplotlib.axis_2">
    <g id="ytick_1">
     <g id="line2d_7">
      <defs>
       <path id="mbcb69e511f" d="M 0 0 
L -3.5 0 
" style="stroke: #000000; stroke-width: 0.8"/>
      </defs>
      <g>
       <use xlink:href="#mbcb69e511f" x="56.18" y="111.638182" style="stroke: #000000; stroke-width: 0.8"/>
      </g>
     </g>
     <g id="text_8">
      <!-- −1.0 -->
      <g transform="translate(24.897188 115.437401) scale(0.1 -0.1)">
       <defs>
        <path id="DejaVuSans-2212" d="M 678 2272 
L 4684 2272 
L 4684 1741 
L 678 1741 
L 678 2272 
z
" transform="scale(0.015625)"/>
        <path id="DejaVuSans-2e" d="M 684 794 
L 1344 794 
L 1344 0 
L 684 0 
L 684 794 
z
" transform="scale(0.015625)"/>
       </defs>
       <use xlink:href="#DejaVuSans-2212"/>
       <use xlink:href="#DejaVuSans-31" x="83.789062"/>
       <use xlink:href="#DejaVuSans-2e" x="147.412109"/>
       <use xlink:href="#DejaVuSans-30" x="179.199219"/>
      </g>
     </g>
    </g>
    <g id="ytick_2">
     <g id="line2d_8">
      <g>
       <use xlink:href="#mbcb69e511f" x="56.18" y="87.629091" style="stroke: #000000; stroke-width: 0.8"/>
      </g>
     </g>
     <g id="text_9">
      <!-- −0.5 -->
      <g transform="translate(24.897188 91.42831) scale(0.1 -0.1)">
       <defs>
        <path id="DejaVuSans-35" d="M 691 4666 
L 3169 4666 
L 3169 4134 
L 1269 4134 
L 1269 2991 
Q 1406 3038 1543 3061 
Q 1681 3084 1819 3084 
Q 2600 3084 3056 2656 
Q 3513 2228 3513 1497 
Q 3513 744 3044 326 
Q 2575 -91 1722 -91 
Q 1428 -91 1123 -41 
Q 819 9 494 109 
L 494 744 
Q 775 591 1075 516 
Q 1375 441 1709 441 
Q 2250 441 2565 725 
Q 2881 1009 2881 1497 
Q 2881 1984 2565 2268 
Q 2250 2553 1709 2553 
Q 1456 2553 1204 2497 
Q 953 2441 691 2322 
L 691 4666 
z
" transform="scale(0.015625)"/>
       </defs>
       <use xlink:href="#DejaVuSans-2212"/>
       <use xlink:href="#DejaVuSans-30" x="83.789062"/>
       <use xlink:href="#DejaVuSans-2e" x="147.412109"/>
       <use xlink:href="#DejaVuSans-35" x="179.199219"/>
      </g>
     </g>
    </g>
    <g id="ytick_3">
     <g id="line2d_9">
      <g>
       <use xlink:href="#mbcb69e511f" x="56.18" y="63.62" style="stroke: #000000; stroke-width: 0.8"/>
      </g>
     </g>
     <g id="text_10">
      <!-- 0.0 -->
      <g transform="translate(33.276875 67.419219) scale(0.1 -0.1)">
       <use xlink:href="#DejaVuSans-30"/>
       <use xlink:href="#DejaVuSans-2e" x="63.623047"/>
       <use xlink:href="#DejaVuSans-30" x="95.410156"/>
      </g>
     </g>
    </g>
    <g id="ytick_4">
     <g id="line2d_10">
      <g>
       <use xlink:href="#mbcb69e511f" x="56.18" y="39.610909" style="stroke: #000000; stroke-width: 0.8"/>
      </g>
     </g>
     <g id="text_11">
      <!-- 0.5 -->
      <g transform="translate(33.276875 43.410128) scale(0.1 -0.1)">
       <use xlink:href="#DejaVuSans-30"/>
       <use xlink:href="#DejaVuSans-2e" x="63.623047"/>
       <use xlink:href="#DejaVuSans-35" x="95.410156"/>
      </g>
     </g>
    </g>
    <g id="ytick_5">
     <g id="line2d_11">
      <g>
       <use xlink:href="#mbcb69e511f" x="56.18" y="15.601818" style="stroke: #000000; stroke-width: 0.8"/>
      </g>
     </g>
     <g id="text_12">
      <!-- 1.0 -->
      <g transform="translate(33.276875 19.401037) scale(0.1 -0.1)">
       <use xlink:href="#DejaVuSans-31"/>
       <use xlink:href="#DejaVuSans-2e" x="63.623047"/>
       <use xlink:href="#DejaVuSans-30" x="95.410156"/>
      </g>
     </g>
    </g>
    <g id="text_13">
     <!-- X-Axis Value -->
     <g transform="translate(18.8175 94.180156) rotate(-90) scale(0.1 -0.1)">
      <defs>
       <path id="DejaVuSans-58" d="M 403 4666 
L 1081 4666 
L 2241 2931 
L 3406 4666 
L 4084 4666 
L 2584 2425 
L 4184 0 
L 3506 0 
L 2194 1984 
L 872 0 
L 191 0 
L 1856 2491 
L 403 4666 
z
" transform="scale(0.015625)"/>
       <path id="DejaVuSans-2d" d="M 313 2009 
L 1997 2009 
L 1997 1497 
L 313 1497 
L 313 2009 
z
" transform="scale(0.015625)"/>
       <path id="DejaVuSans-41" d="M 2188 4044 
L 1331 1722 
L 3047 1722 
L 2188 4044 
z
M 1831 4666 
L 2547 4666 
L 4325 0 
L 3669 0 
L 3244 1197 
L 1141 1197 
L 716 0 
L 50 0 
L 1831 4666 
z
" transform="scale(0.015625)"/>
       <path id="DejaVuSans-78" d="M 3513 3500 
L 2247 1797 
L 3578 0 
L 2900 0 
L 1881 1375 
L 863 0 
L 184 0 
L 1544 1831 
L 300 3500 
L 978 3500 
L 1906 2253 
L 2834 3500 
L 3513 3500 
z
" transform="scale(0.015625)"/>
       <path id="DejaVuSans-56" d="M 1831 0 
L 50 4666 
L 709 4666 
L 2188 738 
L 3669 4666 
L 4325 4666 
L 2547 0 
L 1831 0 
z
" transform="scale(0.015625)"/>
       <path id="DejaVuSans-61" d="M 2194 1759 
Q 1497 1759 1228 1600 
Q 959 1441 959 1056 
Q 959 750 1161 570 
Q 1363 391 1709 391 
Q 2188 391 2477 730 
Q 2766 1069 2766 1631 
L 2766 1759 
L 2194 1759 
z
M 3341 1997 
L 3341 0 
L 2766 0 
L 2766 531 
Q 2569 213 2275 61 
Q 1981 -91 1556 -91 
Q 1019 -91 701 211 
Q 384 513 384 1019 
Q 384 1609 779 1909 
Q 1175 2209 1959 2209 
L 2766 2209 
L 2766 2266 
Q 2766 2663 2505 2880 
Q 2244 3097 1772 3097 
Q 1472 3097 1187 3025 
Q 903 2953 641 2809 
L 641 3341 
Q 956 3463 1253 3523 
Q 1550 3584 1831 3584 
Q 2591 3584 2966 3190 
Q 3341 2797 3341 1997 
z
" transform="scale(0.015625)"/>
       <path id="DejaVuSans-6c" d="M 603 4863 
L 1178 4863 
L 1178 0 
L 603 0 
L 603 4863 
z
" transform="scale(0.015625)"/>
       <path id="DejaVuSans-75" d="M 544 1381 
L 544 3500 
L 1119 3500 
L 1119 1403 
Q 1119 906 1312 657 
Q 1506 409 1894 409 
Q 2359 409 2629 706 
Q 2900 1003 2900 1516 
L 2900 3500 
L 3475 3500 
L 3475 0 
L 2900 0 
L 2900 538 
Q 2691 219 2414 64 
Q 2138 -91 1772 -91 
Q 1169 -91 856 284 
Q 544 659 544 1381 
z
M 1991 3584 
L 1991 3584 
z
" transform="scale(0.015625)"/>
      </defs>
      <use xlink:href="#DejaVuSans-58"/>
      <use xlink:href="#DejaVuSans-2d" x="63.505859"/>
      <use xlink:href="#DejaVuSans-41" x="97.339844"/>
      <use xlink:href="#DejaVuSans-78" x="165.748047"/>
      <use xlink:href="#DejaVuSans-69" x="224.927734"/>
      <use xlink:href="#DejaVuSans-73" x="252.710938"/>
      <use xlink:href="#DejaVuSans-20" x="304.810547"/>
      <use xlink:href="#DejaVuSans-56" x="336.597656"/>
      <use xlink:href="#DejaVuSans-61" x="397.255859"/>
      <use xlink:href="#DejaVuSans-6c" x="458.535156"/>
      <use xlink:href="#DejaVuSans-75" x="486.318359"/>
      <use xlink:href="#DejaVuSans-65" x="549.697266"/>
     </g>
    </g>
   </g>
   <g id="line2d_12">
    <path d="M 56.18 65.060545 
L 134.745393 65.060545 
L 135.563783 66.020909 
L 137.200562 66.020909 
L 137.609757 66.501091 
L 138.018951 66.501091 
L 138.428146 66.981273 
L 142.929288 66.981273 
L 143.338483 67.461455 
L 144.566067 67.461455 
L 144.975262 66.981273 
L 145.384457 67.461455 
L 161.343052 67.461455 
L 162.161442 66.501091 
L 162.570637 65.540727 
L 163.798221 64.100182 
L 164.207416 62.659636 
L 165.025805 60.738909 
L 165.844195 59.778545 
L 166.25339 59.778545 
L 167.890169 57.857818 
L 168.299363 57.857818 
L 168.708558 56.417273 
L 169.117753 55.456909 
L 169.526948 54.016364 
L 170.345337 52.095636 
L 171.572921 50.655091 
L 171.982116 49.694727 
L 172.391311 49.214545 
L 172.800506 49.214545 
L 173.2097 48.734364 
L 174.02809 48.734364 
L 174.437285 48.254182 
L 174.846479 48.254182 
L 175.255674 47.774 
L 175.664869 47.774 
L 176.074064 46.813636 
L 177.301648 45.373091 
L 177.710843 45.373091 
L 178.120037 44.892909 
L 178.938427 44.892909 
L 179.347622 44.412727 
L 179.756816 44.412727 
L 181.80279 42.011818 
L 182.211985 42.011818 
L 182.62118 41.051455 
L 183.030375 41.051455 
L 184.257959 39.610909 
L 184.667154 39.610909 
L 186.303933 37.690182 
L 186.713127 37.690182 
L 187.122322 37.21 
L 187.531517 36.249636 
L 188.349906 36.249636 
L 188.759101 35.769455 
L 189.986685 35.769455 
L 190.39588 35.289273 
L 191.21427 35.289273 
L 194.078633 31.928 
L 194.487828 31.928 
L 194.897022 31.447818 
L 195.306217 31.447818 
L 195.715412 30.967636 
L 196.124607 30.967636 
L 196.533801 29.527091 
L 196.942996 29.527091 
L 197.352191 29.046909 
L 198.170581 29.046909 
L 198.579775 28.566727 
L 198.98897 28.566727 
L 199.80736 27.606364 
L 200.625749 27.606364 
L 201.034944 27.126182 
L 201.853333 27.126182 
L 202.262528 26.646 
L 202.671723 26.646 
L 203.490112 25.685636 
L 204.308502 25.685636 
L 204.717697 25.205455 
L 205.126891 25.205455 
L 205.536086 24.725273 
L 207.58206 24.725273 
L 207.991255 24.245091 
L 208.809644 24.245091 
L 209.218839 23.764909 
L 209.628034 23.764909 
L 210.037228 23.284727 
L 215.765955 23.284727 
L 216.17515 22.804545 
L 244.818783 22.804545 
L 245.227978 23.284727 
L 246.046367 23.284727 
L 246.864757 24.245091 
L 247.273951 24.245091 
L 247.683146 24.725273 
L 248.092341 24.725273 
L 248.501536 25.205455 
L 248.91073 25.205455 
L 249.319925 25.685636 
L 249.72912 25.685636 
L 250.547509 26.646 
L 250.956704 26.646 
L 251.775094 27.606364 
L 252.184288 27.606364 
L 252.593483 28.086545 
L 253.002678 29.046909 
L 254.639457 30.967636 
L 255.048652 31.928 
L 255.457846 31.928 
L 255.867041 32.408182 
L 257.094625 35.289273 
L 258.32221 36.729818 
L 258.731404 37.690182 
L 260.777378 40.091091 
L 261.186573 41.531636 
L 262.414157 42.972182 
L 263.641742 45.853273 
L 264.050936 47.293818 
L 264.460131 48.254182 
L 264.869326 48.734364 
L 265.278521 49.694727 
L 265.687715 50.174909 
L 266.09691 51.615455 
L 266.506105 52.575818 
L 266.9153 53.056 
L 267.324494 54.016364 
L 267.733689 55.456909 
L 268.142884 55.937091 
L 268.552079 55.937091 
L 269.779663 57.377636 
L 270.188858 58.818182 
L 271.007247 60.738909 
L 271.825637 61.699273 
L 272.234831 62.659636 
L 273.462416 64.100182 
L 274.280805 66.020909 
L 274.69 67.941636 
L 275.917584 69.382182 
L 276.735974 71.302909 
L 277.145169 71.783091 
L 277.963558 73.703818 
L 280.009532 76.104727 
L 280.418727 77.065091 
L 280.827921 77.065091 
L 281.646311 78.025455 
L 282.055506 78.985818 
L 282.873895 79.946182 
L 283.28309 80.906545 
L 284.510674 82.347091 
L 284.919869 83.307455 
L 285.329064 83.307455 
L 286.556648 84.748 
L 287.784232 87.629091 
L 289.011816 89.069636 
L 289.421011 89.069636 
L 289.830206 89.549818 
L 290.239401 89.549818 
L 290.648596 90.03 
L 291.05779 90.03 
L 291.466985 90.510182 
L 291.87618 91.470545 
L 293.103764 92.911091 
L 293.512959 93.871455 
L 293.922154 93.871455 
L 295.968127 96.272364 
L 296.786517 96.272364 
L 298.423296 98.193091 
L 298.832491 98.193091 
L 299.241685 98.673273 
L 300.060075 98.673273 
L 300.46927 99.153455 
L 300.878464 99.153455 
L 301.696854 100.113818 
L 302.106049 101.074182 
L 302.924438 102.034545 
L 303.333633 102.034545 
L 304.152022 102.994909 
L 305.379607 102.994909 
L 305.788801 103.475091 
L 306.197996 103.475091 
L 306.607191 104.435455 
L 307.016386 104.915636 
L 307.834775 104.915636 
L 309.06236 106.356182 
L 309.880749 106.356182 
L 310.289944 106.836364 
L 312.335918 106.836364 
L 312.745112 107.316545 
L 313.154307 107.316545 
L 313.563502 107.796727 
L 313.972697 107.796727 
L 314.381891 108.276909 
L 315.200281 108.276909 
L 315.609476 108.757091 
L 320.110618 108.757091 
L 320.519813 109.237273 
L 343.025524 109.237273 
L 343.843914 108.276909 
L 344.253109 108.276909 
L 345.480693 106.836364 
L 345.889888 106.836364 
L 347.526667 104.915636 
L 347.935861 104.915636 
L 348.345056 104.435455 
L 348.754251 104.435455 
L 349.163446 103.955273 
L 349.57264 103.955273 
L 349.981835 103.475091 
L 351.209419 103.475091 
L 351.618614 102.994909 
L 352.027809 102.994909 
L 352.846199 102.034545 
L 353.255393 102.034545 
L 354.073783 101.074182 
L 354.482978 100.113818 
L 354.892172 99.633636 
L 355.301367 99.633636 
L 356.938146 97.712909 
L 357.756536 97.712909 
L 358.574925 96.752545 
L 359.393315 94.831818 
L 359.802509 94.351636 
L 360.211704 94.351636 
L 360.620899 93.871455 
L 361.030094 93.871455 
L 361.439288 92.911091 
L 361.848483 92.430909 
L 362.666873 90.510182 
L 363.894457 89.069636 
L 364.303652 87.629091 
L 364.712846 87.629091 
L 365.531236 86.668727 
L 366.349625 84.748 
L 367.168015 83.787636 
L 367.57721 82.827273 
L 368.395599 81.866909 
L 368.804794 80.906545 
L 369.213989 80.426364 
L 369.623184 79.466 
L 370.441573 78.505636 
L 370.850768 77.545273 
L 371.259963 77.065091 
L 371.669157 77.065091 
L 372.078352 76.104727 
L 372.487547 75.624545 
L 373.305936 73.703818 
L 373.715131 72.263273 
L 376.988689 68.421818 
L 377.397884 68.421818 
L 377.807079 67.941636 
L 378.216273 67.941636 
L 379.034663 66.981273 
L 379.443858 66.981273 
L 380.262247 66.020909 
L 409.72427 66.020909 
L 410.133464 65.540727 
L 418.726554 65.540727 
L 419.135749 65.060545 
L 424.455281 65.060545 
L 424.864476 64.580364 
L 425.27367 65.060545 
L 425.682865 65.060545 
L 426.09206 64.580364 
L 426.501255 65.060545 
L 426.910449 64.580364 
L 427.319644 65.060545 
L 427.728839 64.580364 
L 428.138034 65.060545 
L 440.413876 65.060545 
L 440.823071 64.580364 
L 441.232266 65.060545 
L 462.919588 65.060545 
L 463.328783 64.580364 
L 463.737978 65.060545 
L 493.2 65.060545 
L 493.2 65.060545 
" clip-path="url(#p1ff6c42e0a)" style="fill: none; stroke: #1f77b4; stroke-width: 1.5; stroke-linecap: square"/>
   </g>
   <g id="line2d_13">
    <path d="M 56.18 63.62 
L 493.2 63.62 
" clip-path="url(#p1ff6c42e0a)" style="fill: none; stroke-dasharray: 2.96,1.28; stroke-dashoffset: 0; stroke: #808080; stroke-width: 0.8"/>
   </g>
   <g id="patch_3">
    <path d="M 56.18 116.44 
L 56.18 10.8 
" style="fill: none; stroke: #000000; stroke-width: 0.8; stroke-linejoin: miter; stroke-linecap: square"/>
   </g>
   <g id="patch_4">
    <path d="M 56.18 116.44 
L 493.2 116.44 
" style="fill: none; stroke: #000000; stroke-width: 0.8; stroke-linejoin: miter; stroke-linecap: square"/>
   </g>
  </g>
  <g id="axes_2">
   <g id="patch_5">
    <path d="M 56.18 264.04 
L 493.2 264.04 
L 493.2 158.4 
L 56.18 158.4 
z
" style="fill: #ffffff"/>
   </g>
   <g id="matplotlib.axis_3">
    <g id="xtick_7">
     <g id="line2d_14">
      <g>
       <use xlink:href="#m9b0bbca925" x="56.18" y="264.04" style="stroke: #000000; stroke-width: 0.8"/>
      </g>
     </g>
     <g id="text_14">
      <!-- 0 -->
      <g transform="translate(52.99875 278.638438) scale(0.1 -0.1)">
       <use xlink:href="#DejaVuSans-30"/>
      </g>
     </g>
    </g>
    <g id="xtick_8">
     <g id="line2d_15">
      <g>
       <use xlink:href="#m9b0bbca925" x="138.018951" y="264.04" style="stroke: #000000; stroke-width: 0.8"/>
      </g>
     </g>
     <g id="text_15">
      <!-- 2000 -->
      <g transform="translate(125.293951 278.638438) scale(0.1 -0.1)">
       <use xlink:href="#DejaVuSans-32"/>
       <use xlink:href="#DejaVuSans-30" x="63.623047"/>
       <use xlink:href="#DejaVuSans-30" x="127.246094"/>
       <use xlink:href="#DejaVuSans-30" x="190.869141"/>
      </g>
     </g>
    </g>
    <g id="xtick_9">
     <g id="line2d_16">
      <g>
       <use xlink:href="#m9b0bbca925" x="219.857903" y="264.04" style="stroke: #000000; stroke-width: 0.8"/>
      </g>
     </g>
     <g id="text_16">
      <!-- 4000 -->
      <g transform="translate(207.132903 278.638438) scale(0.1 -0.1)">
       <use xlink:href="#DejaVuSans-34"/>
       <use xlink:href="#DejaVuSans-30" x="63.623047"/>
       <use xlink:href="#DejaVuSans-30" x="127.246094"/>
       <use xlink:href="#DejaVuSans-30" x="190.869141"/>
      </g>
     </g>
    </g>
    <g id="xtick_10">
     <g id="line2d_17">
      <g>
       <use xlink:href="#m9b0bbca925" x="301.696854" y="264.04" style="stroke: #000000; stroke-width: 0.8"/>
      </g>
     </g>
     <g id="text_17">
      <!-- 6000 -->
      <g transform="translate(288.971854 278.638438) scale(0.1 -0.1)">
       <use xlink:href="#DejaVuSans-36"/>
       <use xlink:href="#DejaVuSans-30" x="63.623047"/>
       <use xlink:href="#DejaVuSans-30" x="127.246094"/>
       <use xlink:href="#DejaVuSans-30" x="190.869141"/>
      </g>
     </g>
    </g>
    <g id="xtick_11">
     <g id="line2d_18">
      <g>
       <use xlink:href="#m9b0bbca925" x="383.535805" y="264.04" style="stroke: #000000; stroke-width: 0.8"/>
      </g>
     </g>
     <g id="text_18">
      <!-- 8000 -->
      <g transform="translate(370.810805 278.638438) scale(0.1 -0.1)">
       <use xlink:href="#DejaVuSans-38"/>
       <use xlink:href="#DejaVuSans-30" x="63.623047"/>
       <use xlink:href="#DejaVuSans-30" x="127.246094"/>
       <use xlink:href="#DejaVuSans-30" x="190.869141"/>
      </g>
     </g>
    </g>
    <g id="xtick_12">
     <g id="line2d_19">
      <g>
       <use xlink:href="#m9b0bbca925" x="465.374757" y="264.04" style="stroke: #000000; stroke-width: 0.8"/>
      </g>
     </g>
     <g id="text_19">
      <!-- 10000 -->
      <g transform="translate(449.468507 278.638438) scale(0.1 -0.1)">
       <use xlink:href="#DejaVuSans-31"/>
       <use xlink:href="#DejaVuSans-30" x="63.623047"/>
       <use xlink:href="#DejaVuSans-30" x="127.246094"/>
       <use xlink:href="#DejaVuSans-30" x="190.869141"/>
       <use xlink:href="#DejaVuSans-30" x="254.492188"/>
      </g>
     </g>
    </g>
    <g id="text_20">
     <!-- Time (ms) -->
     <g transform="translate(249.490781 292.316563) scale(0.1 -0.1)">
      <use xlink:href="#DejaVuSans-54"/>
      <use xlink:href="#DejaVuSans-69" x="57.958984"/>
      <use xlink:href="#DejaVuSans-6d" x="85.742188"/>
      <use xlink:href="#DejaVuSans-65" x="183.154297"/>
      <use xlink:href="#DejaVuSans-20" x="244.677734"/>
      <use xlink:href="#DejaVuSans-28" x="276.464844"/>
      <use xlink:href="#DejaVuSans-6d" x="315.478516"/>
      <use xlink:href="#DejaVuSans-73" x="412.890625"/>
      <use xlink:href="#DejaVuSans-29" x="464.990234"/>
     </g>
    </g>
   </g>
   <g id="matplotlib.axis_4">
    <g id="ytick_6">
     <g id="line2d_20">
      <g>
       <use xlink:href="#mbcb69e511f" x="56.18" y="259.238182" style="stroke: #000000; stroke-width: 0.8"/>
      </g>
     </g>
     <g id="text_21">
      <!-- −1.0 -->
      <g transform="translate(24.897188 263.037401) scale(0.1 -0.1)">
       <use xlink:href="#DejaVuSans-2212"/>
       <use xlink:href="#DejaVuSans-31" x="83.789062"/>
       <use xlink:href="#DejaVuSans-2e" x="147.412109"/>
       <use xlink:href="#DejaVuSans-30" x="179.199219"/>
      </g>
     </g>
    </g>
    <g id="ytick_7">
     <g id="line2d_21">
      <g>
       <use xlink:href="#mbcb69e511f" x="56.18" y="235.229091" style="stroke: #000000; stroke-width: 0.8"/>
      </g>
     </g>
     <g id="text_22">
      <!-- −0.5 -->
      <g transform="translate(24.897188 239.02831) scale(0.1 -0.1)">
       <use xlink:href="#DejaVuSans-2212"/>
       <use xlink:href="#DejaVuSans-30" x="83.789062"/>
       <use xlink:href="#DejaVuSans-2e" x="147.412109"/>
       <use xlink:href="#DejaVuSans-35" x="179.199219"/>
      </g>
     </g>
    </g>
    <g id="ytick_8">
     <g id="line2d_22">
      <g>
       <use xlink:href="#mbcb69e511f" x="56.18" y="211.22" style="stroke: #000000; stroke-width: 0.8"/>
      </g>
     </g>
     <g id="text_23">
      <!-- 0.0 -->
      <g transform="translate(33.276875 215.019219) scale(0.1 -0.1)">
       <use xlink:href="#DejaVuSans-30"/>
       <use xlink:href="#DejaVuSans-2e" x="63.623047"/>
       <use xlink:href="#DejaVuSans-30" x="95.410156"/>
      </g>
     </g>
    </g>
    <g id="ytick_9">
     <g id="line2d_23">
      <g>
       <use xlink:href="#mbcb69e511f" x="56.18" y="187.210909" style="stroke: #000000; stroke-width: 0.8"/>
      </g>
     </g>
     <g id="text_24">
      <!-- 0.5 -->
      <g transform="translate(33.276875 191.010128) scale(0.1 -0.1)">
       <use xlink:href="#DejaVuSans-30"/>
       <use xlink:href="#DejaVuSans-2e" x="63.623047"/>
       <use xlink:href="#DejaVuSans-35" x="95.410156"/>
      </g>
     </g>
    </g>
    <g id="ytick_10">
     <g id="line2d_24">
      <g>
       <use xlink:href="#mbcb69e511f" x="56.18" y="163.201818" style="stroke: #000000; stroke-width: 0.8"/>
      </g>
     </g>
     <g id="text_25">
      <!-- 1.0 -->
      <g transform="translate(33.276875 167.001037) scale(0.1 -0.1)">
       <use xlink:href="#DejaVuSans-31"/>
       <use xlink:href="#DejaVuSans-2e" x="63.623047"/>
       <use xlink:href="#DejaVuSans-30" x="95.410156"/>
      </g>
     </g>
    </g>
    <g id="text_26">
     <!-- Y-Axis Value -->
     <g transform="translate(18.8175 241.065313) rotate(-90) scale(0.1 -0.1)">
      <defs>
       <path id="DejaVuSans-59" d="M -13 4666 
L 666 4666 
L 1959 2747 
L 3244 4666 
L 3922 4666 
L 2272 2222 
L 2272 0 
L 1638 0 
L 1638 2222 
L -13 4666 
z
" transform="scale(0.015625)"/>
      </defs>
      <use xlink:href="#DejaVuSans-59"/>
      <use xlink:href="#DejaVuSans-2d" x="49.208984"/>
      <use xlink:href="#DejaVuSans-41" x="83.042969"/>
      <use xlink:href="#DejaVuSans-78" x="151.451172"/>
      <use xlink:href="#DejaVuSans-69" x="210.630859"/>
      <use xlink:href="#DejaVuSans-73" x="238.414062"/>
      <use xlink:href="#DejaVuSans-20" x="290.513672"/>
      <use xlink:href="#DejaVuSans-56" x="322.300781"/>
      <use xlink:href="#DejaVuSans-61" x="382.958984"/>
      <use xlink:href="#DejaVuSans-6c" x="444.238281"/>
      <use xlink:href="#DejaVuSans-75" x="472.021484"/>
      <use xlink:href="#DejaVuSans-65" x="535.400391"/>
     </g>
    </g>
   </g>
   <g id="line2d_25">
    <path d="M 56.18 209.779455 
L 122.469551 209.779455 
L 122.878745 209.299273 
L 124.10633 209.299273 
L 125.333914 207.858727 
L 126.152303 207.858727 
L 126.561498 207.378545 
L 127.789082 207.378545 
L 128.198277 206.418182 
L 128.607472 204.497455 
L 129.016667 203.537091 
L 129.835056 200.175818 
L 130.244251 199.215455 
L 130.653446 197.774909 
L 131.471835 195.854182 
L 132.290225 192.973091 
L 132.699419 192.492909 
L 133.108614 191.532545 
L 133.517809 191.532545 
L 133.927004 190.092 
L 134.336199 189.611818 
L 135.154588 186.730727 
L 137.200562 177.607273 
L 137.609757 176.166727 
L 138.018951 173.765818 
L 138.428146 169.444182 
L 138.837341 166.563091 
L 139.246536 166.082909 
L 161.343052 166.082909 
L 161.752247 165.602727 
L 171.572921 165.602727 
L 171.982116 166.082909 
L 175.664869 166.082909 
L 176.483258 167.043273 
L 178.529232 167.043273 
L 178.938427 167.523455 
L 180.575206 167.523455 
L 181.393596 168.483818 
L 181.80279 168.483818 
L 182.211985 168.964 
L 183.439569 168.964 
L 183.848764 169.444182 
L 184.257959 169.444182 
L 184.667154 169.924364 
L 185.076348 169.924364 
L 185.485543 170.404545 
L 186.303933 170.404545 
L 187.122322 171.364909 
L 187.531517 171.364909 
L 187.940712 171.845091 
L 189.577491 171.845091 
L 189.986685 172.325273 
L 191.21427 172.325273 
L 191.623464 172.805455 
L 192.032659 172.805455 
L 192.851049 173.765818 
L 193.260243 173.765818 
L 194.078633 174.726182 
L 194.897022 174.726182 
L 196.942996 177.127091 
L 197.761386 177.127091 
L 198.170581 177.607273 
L 198.579775 177.607273 
L 198.98897 178.087455 
L 199.398165 178.087455 
L 199.80736 179.047818 
L 200.216554 179.047818 
L 200.625749 179.528 
L 201.034944 179.528 
L 201.444139 180.008182 
L 202.262528 180.008182 
L 202.671723 180.968545 
L 203.080918 180.968545 
L 203.899307 181.928909 
L 204.308502 181.928909 
L 204.717697 182.889273 
L 205.945281 184.329818 
L 206.76367 184.329818 
L 207.172865 184.81 
L 208.400449 184.81 
L 209.628034 186.250545 
L 210.037228 186.250545 
L 210.446423 186.730727 
L 210.855618 186.730727 
L 211.264813 187.210909 
L 215.765955 187.210909 
L 216.17515 187.691091 
L 218.221124 187.691091 
L 218.630318 188.171273 
L 219.448708 188.171273 
L 219.857903 188.651455 
L 221.903876 188.651455 
L 222.313071 189.131636 
L 222.722266 189.131636 
L 223.131461 189.611818 
L 223.540655 189.611818 
L 223.94985 190.092 
L 224.76824 192.012727 
L 225.586629 192.973091 
L 225.995824 193.933455 
L 226.405019 194.413636 
L 227.223408 196.334364 
L 227.632603 196.814545 
L 229.269382 200.656 
L 230.087772 201.616364 
L 231.315356 204.497455 
L 231.724551 205.938 
L 232.133745 206.418182 
L 232.54294 207.378545 
L 232.952135 207.378545 
L 233.36133 208.338909 
L 233.770524 209.779455 
L 234.588914 210.739818 
L 234.998109 211.700182 
L 235.407303 212.180364 
L 235.816498 213.140727 
L 236.225693 214.581273 
L 236.634888 215.061455 
L 237.044082 216.021818 
L 237.453277 217.462364 
L 237.862472 218.422727 
L 239.908446 225.625455 
L 240.31764 226.585818 
L 240.726835 228.026364 
L 241.13603 229.947091 
L 241.545225 230.907455 
L 241.954419 230.907455 
L 242.772809 231.867818 
L 243.591199 231.867818 
L 244.409588 232.828182 
L 245.227978 232.828182 
L 245.637172 233.308364 
L 246.455562 233.308364 
L 248.092341 235.229091 
L 248.501536 235.229091 
L 248.91073 236.189455 
L 249.319925 236.189455 
L 250.956704 238.110182 
L 251.775094 238.110182 
L 253.821067 240.511091 
L 254.230262 241.471455 
L 254.639457 241.951636 
L 255.048652 242.912 
L 255.867041 243.872364 
L 257.094625 246.753455 
L 257.50382 247.233636 
L 257.913015 248.194 
L 261.186573 252.035455 
L 261.595768 252.035455 
L 262.414157 252.995818 
L 262.823352 252.995818 
L 263.641742 253.956182 
L 264.050936 253.956182 
L 264.460131 254.916545 
L 264.869326 254.916545 
L 265.278521 255.396727 
L 266.506105 255.396727 
L 266.9153 255.876909 
L 268.142884 255.876909 
L 268.552079 256.357091 
L 273.87161 256.357091 
L 274.280805 256.837273 
L 274.69 256.357091 
L 277.145169 256.357091 
L 277.554363 256.837273 
L 277.963558 256.357091 
L 281.237116 256.357091 
L 281.646311 255.876909 
L 282.055506 255.876909 
L 282.4647 255.396727 
L 284.510674 255.396727 
L 285.738258 253.956182 
L 286.556648 253.956182 
L 288.193427 252.035455 
L 289.421011 252.035455 
L 289.830206 251.555273 
L 290.648596 251.555273 
L 291.466985 250.594909 
L 291.87618 250.594909 
L 292.285375 249.634545 
L 292.694569 249.634545 
L 293.103764 249.154364 
L 293.512959 249.154364 
L 294.331348 248.194 
L 294.740543 248.194 
L 295.149738 247.713818 
L 295.558933 247.713818 
L 295.968127 247.233636 
L 296.377322 247.233636 
L 298.423296 244.832727 
L 298.832491 244.832727 
L 299.241685 244.352545 
L 300.060075 244.352545 
L 300.46927 243.872364 
L 301.287659 243.872364 
L 301.696854 242.431818 
L 302.515243 241.471455 
L 302.924438 240.511091 
L 303.333633 240.511091 
L 303.742828 240.030909 
L 304.152022 240.030909 
L 304.561217 239.070545 
L 304.970412 238.590364 
L 305.379607 238.590364 
L 306.197996 237.63 
L 306.607191 236.669636 
L 307.425581 235.709273 
L 307.834775 234.748909 
L 309.06236 233.308364 
L 309.471554 233.308364 
L 310.699139 231.867818 
L 311.926723 231.867818 
L 313.154307 230.427273 
L 313.563502 230.427273 
L 315.609476 228.026364 
L 317.655449 228.026364 
L 318.064644 227.546182 
L 318.473839 227.546182 
L 318.883034 228.026364 
L 319.292228 227.546182 
L 325.43015 227.546182 
L 326.657734 226.105636 
L 327.066929 226.105636 
L 327.476124 225.145273 
L 328.294513 224.184909 
L 328.703708 223.224545 
L 329.112903 222.744364 
L 329.522097 221.784 
L 329.931292 220.343455 
L 330.340487 219.863273 
L 331.158876 216.982182 
L 331.568071 216.021818 
L 333.20485 210.259636 
L 333.614045 208.338909 
L 334.02324 207.378545 
L 334.432434 205.938 
L 336.478408 196.334364 
L 336.887603 196.334364 
L 337.296798 195.854182 
L 338.524382 195.854182 
L 338.933577 195.374 
L 340.979551 195.374 
L 341.79794 194.413636 
L 342.207135 194.413636 
L 342.61633 193.933455 
L 343.025524 192.973091 
L 343.434719 192.973091 
L 343.843914 192.012727 
L 344.253109 192.012727 
L 345.480693 189.131636 
L 345.889888 188.651455 
L 346.299082 187.691091 
L 346.708277 187.210909 
L 347.117472 187.210909 
L 347.526667 186.250545 
L 347.935861 186.250545 
L 348.345056 185.290182 
L 349.163446 184.329818 
L 349.57264 184.329818 
L 349.981835 183.849636 
L 350.800225 183.849636 
L 351.209419 183.369455 
L 351.618614 183.369455 
L 352.027809 182.409091 
L 352.437004 181.928909 
L 352.846199 181.928909 
L 353.255393 181.448727 
L 354.073783 179.528 
L 355.301367 178.087455 
L 355.710562 177.127091 
L 356.528951 177.127091 
L 356.938146 176.646909 
L 357.347341 176.646909 
L 357.756536 176.166727 
L 358.16573 175.206364 
L 358.98412 174.246 
L 359.393315 173.285636 
L 359.802509 172.805455 
L 360.211704 172.805455 
L 360.620899 172.325273 
L 361.030094 172.325273 
L 361.439288 171.845091 
L 361.848483 171.845091 
L 362.666873 170.884727 
L 363.076067 170.884727 
L 363.894457 169.924364 
L 364.303652 169.924364 
L 364.712846 169.444182 
L 365.531236 169.444182 
L 366.349625 168.483818 
L 367.168015 168.483818 
L 367.57721 168.003636 
L 367.986404 168.003636 
L 368.395599 167.523455 
L 368.804794 167.523455 
L 369.213989 167.043273 
L 370.032378 167.043273 
L 370.441573 166.563091 
L 372.487547 166.563091 
L 372.896742 166.082909 
L 374.533521 166.082909 
L 374.942715 165.602727 
L 406.041517 165.602727 
L 406.450712 165.122545 
L 418.726554 165.122545 
L 419.544944 166.082909 
L 419.954139 167.043273 
L 420.363333 168.483818 
L 420.772528 170.404545 
L 423.227697 187.210909 
L 423.636891 188.651455 
L 424.046086 191.532545 
L 424.455281 192.973091 
L 425.27367 196.334364 
L 425.682865 196.814545 
L 426.910449 199.695636 
L 427.319644 201.136182 
L 427.728839 202.096545 
L 428.138034 204.497455 
L 428.547228 205.457818 
L 428.956423 207.378545 
L 429.774813 207.378545 
L 430.184007 207.858727 
L 431.820787 207.858727 
L 432.229981 208.338909 
L 433.048371 208.338909 
L 433.457566 208.819091 
L 433.86676 208.819091 
L 434.275955 209.299273 
L 434.68515 209.299273 
L 435.094345 209.779455 
L 435.503539 209.779455 
L 435.912734 210.259636 
L 436.321929 209.779455 
L 436.731124 210.259636 
L 446.142603 210.259636 
L 446.551798 210.739818 
L 446.960993 210.259636 
L 493.2 210.259636 
L 493.2 210.259636 
" clip-path="url(#pf323fde21e)" style="fill: none; stroke: #1f77b4; stroke-width: 1.5; stroke-linecap: square"/>
   </g>
   <g id="line2d_26">
    <path d="M 56.18 211.22 
L 493.2 211.22 
" clip-path="url(#pf323fde21e)" style="fill: none; stroke-dasharray: 2.96,1.28; stroke-dashoffset: 0; stroke: #808080; stroke-width: 0.8"/>
   </g>
   <g id="patch_6">
    <path d="M 56.18 264.04 
L 56.18 158.4 
" style="fill: none; stroke: #000000; stroke-width: 0.8; stroke-linejoin: miter; stroke-linecap: square"/>
   </g>
   <g id="patch_7">
    <path d="M 56.18 264.04 
L 493.2 264.04 
" style="fill: none; stroke: #000000; stroke-width: 0.8; stroke-linejoin: miter; stroke-linecap: square"/>
   </g>
  </g>
 </g>
 <defs>
  <clipPath id="p1ff6c42e0a">
   <rect x="56.18" y="10.8" width="437.02" height="105.64"/>
  </clipPath>
  <clipPath id="pf323fde21e">
   <rect x="56.18" y="158.4" width="437.02" height="105.64"/>
  </clipPath>
 </defs>
</svg>
