<?xml version="1.0" encoding="utf-8" standalone="no"?>
<!DOCTYPE svg PUBLIC "-//W3C//DTD SVG 1.1//EN"
  "http://www.w3.org/Graphics/SVG/1.1/DTD/svg11.dtd">
<svg xmlns:xlink="http://www.w3.org/1999/xlink" width="504pt" height="306pt" viewBox="0 0 504 306" xmlns="http://www.w3.org/2000/svg" version="1.1">
 <metadata>
  <rdf:RDF xmlns:dc="http://purl.org/dc/elements/1.1/" xmlns:cc="http://creativecommons.org/ns#" xmlns:rdf="http://www.w3.org/1999/02/22-rdf-syntax-ns#">
   <cc:Work>
    <dc:type rdf:resource="http://purl.org/dc/dcmitype/StillImage"/>
    <dc:date>2024-06-16T23:02:08.911617</dc:date>
    <dc:format>image/svg+xml</dc:format>
    <dc:creator>
     <cc:Agent>
      <dc:title>Matplotlib v3.8.3, https://matplotlib.org/</dc:title>
     </cc:Agent>
    </dc:creator>
   </cc:Work>
  </rdf:RDF>
 </metadata>
 <defs>
  <style type="text/css">*{stroke-linejoin: round; stroke-linecap: butt}</style>
 </defs>
 <g id="figure_1">
  <g id="patch_1">
   <path d="M 0 306 
L 504 306 
L 504 0 
L 0 0 
z
" style="fill: #ffffff"/>
  </g>
  <g id="axes_1">
   <g id="patch_2">
    <path d="M 56.18 116.44 
L 493.2 116.44 
L 493.2 10.8 
L 56.18 10.8 
z
" style="fill: #ffffff"/>
   </g>
   <g id="matplotlib.axis_1">
    <g id="xtick_1">
     <g id="line2d_1">
      <defs>
       <path id="mfd81a05b65" d="M 0 0 
L 0 3.5 
" style="stroke: #000000; stroke-width: 0.8"/>
      </defs>
      <g>
       <use xlink:href="#mfd81a05b65" x="56.18" y="116.44" style="stroke: #000000; stroke-width: 0.8"/>
      </g>
     </g>
     <g id="text_1">
      <!-- 0 -->
      <g transform="translate(52.99875 131.038437) scale(0.1 -0.1)">
       <defs>
        <path id="DejaVuSans-30" d="M 2034 4250 
Q 1547 4250 1301 3770 
Q 1056 3291 1056 2328 
Q 1056 1369 1301 889 
Q 1547 409 2034 409 
Q 2525 409 2770 889 
Q 3016 1369 3016 2328 
Q 3016 3291 2770 3770 
Q 2525 4250 2034 4250 
z
M 2034 4750 
Q 2819 4750 3233 4129 
Q 3647 3509 3647 2328 
Q 3647 1150 3233 529 
Q 2819 -91 2034 -91 
Q 1250 -91 836 529 
Q 422 1150 422 2328 
Q 422 3509 836 4129 
Q 1250 4750 2034 4750 
z
" transform="scale(0.015625)"/>
       </defs>
       <use xlink:href="#DejaVuSans-30"/>
      </g>
     </g>
    </g>
    <g id="xtick_2">
     <g id="line2d_2">
      <g>
       <use xlink:href="#mfd81a05b65" x="151.01941" y="116.44" style="stroke: #000000; stroke-width: 0.8"/>
      </g>
     </g>
     <g id="text_2">
      <!-- 5000 -->
      <g transform="translate(138.29441 131.038437) scale(0.1 -0.1)">
       <defs>
        <path id="DejaVuSans-35" d="M 691 4666 
L 3169 4666 
L 3169 4134 
L 1269 4134 
L 1269 2991 
Q 1406 3038 1543 3061 
Q 1681 3084 1819 3084 
Q 2600 3084 3056 2656 
Q 3513 2228 3513 1497 
Q 3513 744 3044 326 
Q 2575 -91 1722 -91 
Q 1428 -91 1123 -41 
Q 819 9 494 109 
L 494 744 
Q 775 591 1075 516 
Q 1375 441 1709 441 
Q 2250 441 2565 725 
Q 2881 1009 2881 1497 
Q 2881 1984 2565 2268 
Q 2250 2553 1709 2553 
Q 1456 2553 1204 2497 
Q 953 2441 691 2322 
L 691 4666 
z
" transform="scale(0.015625)"/>
       </defs>
       <use xlink:href="#DejaVuSans-35"/>
       <use xlink:href="#DejaVuSans-30" x="63.623047"/>
       <use xlink:href="#DejaVuSans-30" x="127.246094"/>
       <use xlink:href="#DejaVuSans-30" x="190.869141"/>
      </g>
     </g>
    </g>
    <g id="xtick_3">
     <g id="line2d_3">
      <g>
       <use xlink:href="#mfd81a05b65" x="245.858819" y="116.44" style="stroke: #000000; stroke-width: 0.8"/>
      </g>
     </g>
     <g id="text_3">
      <!-- 10000 -->
      <g transform="translate(229.952569 131.038437) scale(0.1 -0.1)">
       <defs>
        <path id="DejaVuSans-31" d="M 794 531 
L 1825 531 
L 1825 4091 
L 703 3866 
L 703 4441 
L 1819 4666 
L 2450 4666 
L 2450 531 
L 3481 531 
L 3481 0 
L 794 0 
L 794 531 
z
" transform="scale(0.015625)"/>
       </defs>
       <use xlink:href="#DejaVuSans-31"/>
       <use xlink:href="#DejaVuSans-30" x="63.623047"/>
       <use xlink:href="#DejaVuSans-30" x="127.246094"/>
       <use xlink:href="#DejaVuSans-30" x="190.869141"/>
       <use xlink:href="#DejaVuSans-30" x="254.492188"/>
      </g>
     </g>
    </g>
    <g id="xtick_4">
     <g id="line2d_4">
      <g>
       <use xlink:href="#mfd81a05b65" x="340.698229" y="116.44" style="stroke: #000000; stroke-width: 0.8"/>
      </g>
     </g>
     <g id="text_4">
      <!-- 15000 -->
      <g transform="translate(324.791979 131.038437) scale(0.1 -0.1)">
       <use xlink:href="#DejaVuSans-31"/>
       <use xlink:href="#DejaVuSans-35" x="63.623047"/>
       <use xlink:href="#DejaVuSans-30" x="127.246094"/>
       <use xlink:href="#DejaVuSans-30" x="190.869141"/>
       <use xlink:href="#DejaVuSans-30" x="254.492188"/>
      </g>
     </g>
    </g>
    <g id="xtick_5">
     <g id="line2d_5">
      <g>
       <use xlink:href="#mfd81a05b65" x="435.537639" y="116.44" style="stroke: #000000; stroke-width: 0.8"/>
      </g>
     </g>
     <g id="text_5">
      <!-- 20000 -->
      <g transform="translate(419.631389 131.038437) scale(0.1 -0.1)">
       <defs>
        <path id="DejaVuSans-32" d="M 1228 531 
L 3431 531 
L 3431 0 
L 469 0 
L 469 531 
Q 828 903 1448 1529 
Q 2069 2156 2228 2338 
Q 2531 2678 2651 2914 
Q 2772 3150 2772 3378 
Q 2772 3750 2511 3984 
Q 2250 4219 1831 4219 
Q 1534 4219 1204 4116 
Q 875 4013 500 3803 
L 500 4441 
Q 881 4594 1212 4672 
Q 1544 4750 1819 4750 
Q 2544 4750 2975 4387 
Q 3406 4025 3406 3419 
Q 3406 3131 3298 2873 
Q 3191 2616 2906 2266 
Q 2828 2175 2409 1742 
Q 1991 1309 1228 531 
z
" transform="scale(0.015625)"/>
       </defs>
       <use xlink:href="#DejaVuSans-32"/>
       <use xlink:href="#DejaVuSans-30" x="63.623047"/>
       <use xlink:href="#DejaVuSans-30" x="127.246094"/>
       <use xlink:href="#DejaVuSans-30" x="190.869141"/>
       <use xlink:href="#DejaVuSans-30" x="254.492188"/>
      </g>
     </g>
    </g>
    <g id="text_6">
     <!-- Time (ms) -->
     <g transform="translate(249.490781 144.716562) scale(0.1 -0.1)">
      <defs>
       <path id="DejaVuSans-54" d="M -19 4666 
L 3928 4666 
L 3928 4134 
L 2272 4134 
L 2272 0 
L 1638 0 
L 1638 4134 
L -19 4134 
L -19 4666 
z
" transform="scale(0.015625)"/>
       <path id="DejaVuSans-69" d="M 603 3500 
L 1178 3500 
L 1178 0 
L 603 0 
L 603 3500 
z
M 603 4863 
L 1178 4863 
L 1178 4134 
L 603 4134 
L 603 4863 
z
" transform="scale(0.015625)"/>
       <path id="DejaVuSans-6d" d="M 3328 2828 
Q 3544 3216 3844 3400 
Q 4144 3584 4550 3584 
Q 5097 3584 5394 3201 
Q 5691 2819 5691 2113 
L 5691 0 
L 5113 0 
L 5113 2094 
Q 5113 2597 4934 2840 
Q 4756 3084 4391 3084 
Q 3944 3084 3684 2787 
Q 3425 2491 3425 1978 
L 3425 0 
L 2847 0 
L 2847 2094 
Q 2847 2600 2669 2842 
Q 2491 3084 2119 3084 
Q 1678 3084 1418 2786 
Q 1159 2488 1159 1978 
L 1159 0 
L 581 0 
L 581 3500 
L 1159 3500 
L 1159 2956 
Q 1356 3278 1631 3431 
Q 1906 3584 2284 3584 
Q 2666 3584 2933 3390 
Q 3200 3197 3328 2828 
z
" transform="scale(0.015625)"/>
       <path id="DejaVuSans-65" d="M 3597 1894 
L 3597 1613 
L 953 1613 
Q 991 1019 1311 708 
Q 1631 397 2203 397 
Q 2534 397 2845 478 
Q 3156 559 3463 722 
L 3463 178 
Q 3153 47 2828 -22 
Q 2503 -91 2169 -91 
Q 1331 -91 842 396 
Q 353 884 353 1716 
Q 353 2575 817 3079 
Q 1281 3584 2069 3584 
Q 2775 3584 3186 3129 
Q 3597 2675 3597 1894 
z
M 3022 2063 
Q 3016 2534 2758 2815 
Q 2500 3097 2075 3097 
Q 1594 3097 1305 2825 
Q 1016 2553 972 2059 
L 3022 2063 
z
" transform="scale(0.015625)"/>
       <path id="DejaVuSans-20" transform="scale(0.015625)"/>
       <path id="DejaVuSans-28" d="M 1984 4856 
Q 1566 4138 1362 3434 
Q 1159 2731 1159 2009 
Q 1159 1288 1364 580 
Q 1569 -128 1984 -844 
L 1484 -844 
Q 1016 -109 783 600 
Q 550 1309 550 2009 
Q 550 2706 781 3412 
Q 1013 4119 1484 4856 
L 1984 4856 
z
" transform="scale(0.015625)"/>
       <path id="DejaVuSans-73" d="M 2834 3397 
L 2834 2853 
Q 2591 2978 2328 3040 
Q 2066 3103 1784 3103 
Q 1356 3103 1142 2972 
Q 928 2841 928 2578 
Q 928 2378 1081 2264 
Q 1234 2150 1697 2047 
L 1894 2003 
Q 2506 1872 2764 1633 
Q 3022 1394 3022 966 
Q 3022 478 2636 193 
Q 2250 -91 1575 -91 
Q 1294 -91 989 -36 
Q 684 19 347 128 
L 347 722 
Q 666 556 975 473 
Q 1284 391 1588 391 
Q 1994 391 2212 530 
Q 2431 669 2431 922 
Q 2431 1156 2273 1281 
Q 2116 1406 1581 1522 
L 1381 1569 
Q 847 1681 609 1914 
Q 372 2147 372 2553 
Q 372 3047 722 3315 
Q 1072 3584 1716 3584 
Q 2034 3584 2315 3537 
Q 2597 3491 2834 3397 
z
" transform="scale(0.015625)"/>
       <path id="DejaVuSans-29" d="M 513 4856 
L 1013 4856 
Q 1481 4119 1714 3412 
Q 1947 2706 1947 2009 
Q 1947 1309 1714 600 
Q 1481 -109 1013 -844 
L 513 -844 
Q 928 -128 1133 580 
Q 1338 1288 1338 2009 
Q 1338 2731 1133 3434 
Q 928 4138 513 4856 
z
" transform="scale(0.015625)"/>
      </defs>
      <use xlink:href="#DejaVuSans-54"/>
      <use xlink:href="#DejaVuSans-69" x="57.958984"/>
      <use xlink:href="#DejaVuSans-6d" x="85.742188"/>
      <use xlink:href="#DejaVuSans-65" x="183.154297"/>
      <use xlink:href="#DejaVuSans-20" x="244.677734"/>
      <use xlink:href="#DejaVuSans-28" x="276.464844"/>
      <use xlink:href="#DejaVuSans-6d" x="315.478516"/>
      <use xlink:href="#DejaVuSans-73" x="412.890625"/>
      <use xlink:href="#DejaVuSans-29" x="464.990234"/>
     </g>
    </g>
   </g>
   <g id="matplotlib.axis_2">
    <g id="ytick_1">
     <g id="line2d_6">
      <defs>
       <path id="m2822580b96" d="M 0 0 
L -3.5 0 
" style="stroke: #000000; stroke-width: 0.8"/>
      </defs>
      <g>
       <use xlink:href="#m2822580b96" x="56.18" y="111.638182" style="stroke: #000000; stroke-width: 0.8"/>
      </g>
     </g>
     <g id="text_7">
      <!-- −1.0 -->
      <g transform="translate(24.897188 115.437401) scale(0.1 -0.1)">
       <defs>
        <path id="DejaVuSans-2212" d="M 678 2272 
L 4684 2272 
L 4684 1741 
L 678 1741 
L 678 2272 
z
" transform="scale(0.015625)"/>
        <path id="DejaVuSans-2e" d="M 684 794 
L 1344 794 
L 1344 0 
L 684 0 
L 684 794 
z
" transform="scale(0.015625)"/>
       </defs>
       <use xlink:href="#DejaVuSans-2212"/>
       <use xlink:href="#DejaVuSans-31" x="83.789062"/>
       <use xlink:href="#DejaVuSans-2e" x="147.412109"/>
       <use xlink:href="#DejaVuSans-30" x="179.199219"/>
      </g>
     </g>
    </g>
    <g id="ytick_2">
     <g id="line2d_7">
      <g>
       <use xlink:href="#m2822580b96" x="56.18" y="87.629091" style="stroke: #000000; stroke-width: 0.8"/>
      </g>
     </g>
     <g id="text_8">
      <!-- −0.5 -->
      <g transform="translate(24.897188 91.42831) scale(0.1 -0.1)">
       <use xlink:href="#DejaVuSans-2212"/>
       <use xlink:href="#DejaVuSans-30" x="83.789062"/>
       <use xlink:href="#DejaVuSans-2e" x="147.412109"/>
       <use xlink:href="#DejaVuSans-35" x="179.199219"/>
      </g>
     </g>
    </g>
    <g id="ytick_3">
     <g id="line2d_8">
      <g>
       <use xlink:href="#m2822580b96" x="56.18" y="63.62" style="stroke: #000000; stroke-width: 0.8"/>
      </g>
     </g>
     <g id="text_9">
      <!-- 0.0 -->
      <g transform="translate(33.276875 67.419219) scale(0.1 -0.1)">
       <use xlink:href="#DejaVuSans-30"/>
       <use xlink:href="#DejaVuSans-2e" x="63.623047"/>
       <use xlink:href="#DejaVuSans-30" x="95.410156"/>
      </g>
     </g>
    </g>
    <g id="ytick_4">
     <g id="line2d_9">
      <g>
       <use xlink:href="#m2822580b96" x="56.18" y="39.610909" style="stroke: #000000; stroke-width: 0.8"/>
      </g>
     </g>
     <g id="text_10">
      <!-- 0.5 -->
      <g transform="translate(33.276875 43.410128) scale(0.1 -0.1)">
       <use xlink:href="#DejaVuSans-30"/>
       <use xlink:href="#DejaVuSans-2e" x="63.623047"/>
       <use xlink:href="#DejaVuSans-35" x="95.410156"/>
      </g>
     </g>
    </g>
    <g id="ytick_5">
     <g id="line2d_10">
      <g>
       <use xlink:href="#m2822580b96" x="56.18" y="15.601818" style="stroke: #000000; stroke-width: 0.8"/>
      </g>
     </g>
     <g id="text_11">
      <!-- 1.0 -->
      <g transform="translate(33.276875 19.401037) scale(0.1 -0.1)">
       <use xlink:href="#DejaVuSans-31"/>
       <use xlink:href="#DejaVuSans-2e" x="63.623047"/>
       <use xlink:href="#DejaVuSans-30" x="95.410156"/>
      </g>
     </g>
    </g>
    <g id="text_12">
     <!-- X-Axis Value -->
     <g transform="translate(18.8175 94.180156) rotate(-90) scale(0.1 -0.1)">
      <defs>
       <path id="DejaVuSans-58" d="M 403 4666 
L 1081 4666 
L 2241 2931 
L 3406 4666 
L 4084 4666 
L 2584 2425 
L 4184 0 
L 3506 0 
L 2194 1984 
L 872 0 
L 191 0 
L 1856 2491 
L 403 4666 
z
" transform="scale(0.015625)"/>
       <path id="DejaVuSans-2d" d="M 313 2009 
L 1997 2009 
L 1997 1497 
L 313 1497 
L 313 2009 
z
" transform="scale(0.015625)"/>
       <path id="DejaVuSans-41" d="M 2188 4044 
L 1331 1722 
L 3047 1722 
L 2188 4044 
z
M 1831 4666 
L 2547 4666 
L 4325 0 
L 3669 0 
L 3244 1197 
L 1141 1197 
L 716 0 
L 50 0 
L 1831 4666 
z
" transform="scale(0.015625)"/>
       <path id="DejaVuSans-78" d="M 3513 3500 
L 2247 1797 
L 3578 0 
L 2900 0 
L 1881 1375 
L 863 0 
L 184 0 
L 1544 1831 
L 300 3500 
L 978 3500 
L 1906 2253 
L 2834 3500 
L 3513 3500 
z
" transform="scale(0.015625)"/>
       <path id="DejaVuSans-56" d="M 1831 0 
L 50 4666 
L 709 4666 
L 2188 738 
L 3669 4666 
L 4325 4666 
L 2547 0 
L 1831 0 
z
" transform="scale(0.015625)"/>
       <path id="DejaVuSans-61" d="M 2194 1759 
Q 1497 1759 1228 1600 
Q 959 1441 959 1056 
Q 959 750 1161 570 
Q 1363 391 1709 391 
Q 2188 391 2477 730 
Q 2766 1069 2766 1631 
L 2766 1759 
L 2194 1759 
z
M 3341 1997 
L 3341 0 
L 2766 0 
L 2766 531 
Q 2569 213 2275 61 
Q 1981 -91 1556 -91 
Q 1019 -91 701 211 
Q 384 513 384 1019 
Q 384 1609 779 1909 
Q 1175 2209 1959 2209 
L 2766 2209 
L 2766 2266 
Q 2766 2663 2505 2880 
Q 2244 3097 1772 3097 
Q 1472 3097 1187 3025 
Q 903 2953 641 2809 
L 641 3341 
Q 956 3463 1253 3523 
Q 1550 3584 1831 3584 
Q 2591 3584 2966 3190 
Q 3341 2797 3341 1997 
z
" transform="scale(0.015625)"/>
       <path id="DejaVuSans-6c" d="M 603 4863 
L 1178 4863 
L 1178 0 
L 603 0 
L 603 4863 
z
" transform="scale(0.015625)"/>
       <path id="DejaVuSans-75" d="M 544 1381 
L 544 3500 
L 1119 3500 
L 1119 1403 
Q 1119 906 1312 657 
Q 1506 409 1894 409 
Q 2359 409 2629 706 
Q 2900 1003 2900 1516 
L 2900 3500 
L 3475 3500 
L 3475 0 
L 2900 0 
L 2900 538 
Q 2691 219 2414 64 
Q 2138 -91 1772 -91 
Q 1169 -91 856 284 
Q 544 659 544 1381 
z
M 1991 3584 
L 1991 3584 
z
" transform="scale(0.015625)"/>
      </defs>
      <use xlink:href="#DejaVuSans-58"/>
      <use xlink:href="#DejaVuSans-2d" x="63.505859"/>
      <use xlink:href="#DejaVuSans-41" x="97.339844"/>
      <use xlink:href="#DejaVuSans-78" x="165.748047"/>
      <use xlink:href="#DejaVuSans-69" x="224.927734"/>
      <use xlink:href="#DejaVuSans-73" x="252.710938"/>
      <use xlink:href="#DejaVuSans-20" x="304.810547"/>
      <use xlink:href="#DejaVuSans-56" x="336.597656"/>
      <use xlink:href="#DejaVuSans-61" x="397.255859"/>
      <use xlink:href="#DejaVuSans-6c" x="458.535156"/>
      <use xlink:href="#DejaVuSans-75" x="486.318359"/>
      <use xlink:href="#DejaVuSans-65" x="549.697266"/>
     </g>
    </g>
   </g>
   <g id="line2d_11">
    <path d="M 56.18 65.060545 
L 57.318073 65.060545 
L 57.507752 63.62 
L 57.697431 65.060545 
L 61.491007 65.060545 
L 61.680686 64.100182 
L 61.870365 65.060545 
L 62.060043 65.060545 
L 62.249722 64.580364 
L 62.439401 65.060545 
L 62.62908 64.580364 
L 63.008438 64.580364 
L 63.198116 65.060545 
L 63.577474 65.060545 
L 63.767153 64.100182 
L 63.956832 65.060545 
L 64.14651 64.580364 
L 64.336189 65.060545 
L 67.750408 65.060545 
L 67.940087 64.580364 
L 68.129766 65.060545 
L 75.147882 65.060545 
L 75.337561 64.580364 
L 75.52724 65.060545 
L 76.475634 65.060545 
L 76.665313 64.580364 
L 76.854991 65.060545 
L 77.424028 65.060545 
L 77.613707 64.580364 
L 77.803385 65.060545 
L 77.993064 64.580364 
L 78.182743 65.060545 
L 84.062786 65.060545 
L 84.252465 64.580364 
L 84.442144 65.060545 
L 84.631823 64.580364 
L 84.821502 65.060545 
L 86.71829 65.060545 
L 86.907969 64.580364 
L 87.097648 65.060545 
L 95.064158 65.060545 
L 95.253837 65.540727 
L 95.443516 65.540727 
L 95.633194 65.060545 
L 95.822873 65.540727 
L 96.012552 65.060545 
L 99.61645 65.060545 
L 99.806128 66.501091 
L 99.995807 65.540727 
L 100.185486 65.540727 
L 100.375165 65.060545 
L 103.979063 65.060545 
L 104.168741 62.179455 
L 104.35842 65.060545 
L 104.548099 64.580364 
L 104.737778 65.060545 
L 108.151997 65.060545 
L 108.341675 64.580364 
L 108.531354 65.060545 
L 110.428142 65.060545 
L 110.617821 64.100182 
L 110.8075 65.060545 
L 111.186858 65.060545 
L 111.376536 64.580364 
L 111.566215 65.060545 
L 114.601076 65.060545 
L 114.790755 64.580364 
L 114.980434 65.060545 
L 115.739149 65.060545 
L 115.928828 65.540727 
L 116.118507 65.060545 
L 117.25658 65.060545 
L 117.446259 65.540727 
L 117.635938 65.060545 
L 117.825616 65.060545 
L 118.015295 65.540727 
L 118.394653 65.540727 
L 118.584332 65.060545 
L 118.77401 65.060545 
L 118.963689 63.139818 
L 119.153368 65.060545 
L 119.722405 65.060545 
L 119.912083 65.540727 
L 120.101762 65.540727 
L 120.291441 65.060545 
L 120.48112 65.540727 
L 120.670799 65.060545 
L 123.136623 65.060545 
L 123.326302 65.540727 
L 123.515981 65.060545 
L 124.085017 65.060545 
L 124.274696 65.540727 
L 124.464375 65.060545 
L 125.033411 65.060545 
L 125.22309 64.580364 
L 125.412769 65.060545 
L 127.119878 65.060545 
L 127.309557 63.139818 
L 127.499236 65.540727 
L 127.688915 65.060545 
L 128.257951 65.060545 
L 128.44763 65.540727 
L 128.637309 65.060545 
L 137.552214 65.060545 
L 137.741892 65.540727 
L 137.931571 65.060545 
L 138.310929 65.060545 
L 138.500608 65.540727 
L 138.690286 65.060545 
L 138.879965 65.540727 
L 139.449002 65.540727 
L 139.638681 65.060545 
L 139.828359 65.060545 
L 140.018038 65.540727 
L 140.207717 65.060545 
L 140.966432 65.060545 
L 141.156111 62.179455 
L 141.725148 38.170364 
L 142.104505 16.562182 
L 142.294184 16.082 
L 143.242578 16.082 
L 143.432257 15.601818 
L 143.621936 16.082 
L 146.08776 16.082 
L 146.277439 15.601818 
L 146.467118 16.082 
L 147.984549 16.082 
L 148.174227 15.601818 
L 148.363906 16.082 
L 148.743264 16.082 
L 148.932943 15.601818 
L 149.122622 16.082 
L 149.691658 16.082 
L 149.881337 15.601818 
L 150.071016 16.082 
L 152.347161 16.082 
L 152.53684 16.562182 
L 152.726519 16.082 
L 154.623307 16.082 
L 154.812986 15.601818 
L 155.002665 16.082 
L 155.951059 16.082 
L 156.140738 16.562182 
L 156.330417 16.082 
L 158.227205 16.082 
L 158.416884 15.601818 
L 158.606563 16.082 
L 159.744635 16.082 
L 159.934314 15.601818 
L 160.123993 16.082 
L 160.313672 16.082 
L 160.503351 16.562182 
L 160.69303 16.082 
L 164.486606 16.082 
L 164.676285 16.562182 
L 164.865964 16.082 
L 165.624679 16.082 
L 165.814358 16.562182 
L 166.004036 16.082 
L 166.383394 23.284727 
L 166.573073 24.725273 
L 167.142109 38.650545 
L 167.331788 40.091091 
L 168.280182 58.338 
L 168.469861 64.100182 
L 168.65954 65.060545 
L 168.849219 65.060545 
L 169.038898 65.540727 
L 169.228576 65.060545 
L 170.17697 65.060545 
L 170.366649 65.540727 
L 170.556328 65.060545 
L 176.436372 65.060545 
L 176.62605 64.580364 
L 176.815729 65.060545 
L 181.5577 65.060545 
L 181.747378 66.020909 
L 181.937057 65.060545 
L 186.868707 65.060545 
L 187.058385 64.100182 
L 188.386137 16.082 
L 189.144852 16.082 
L 189.334531 15.601818 
L 189.52421 17.522545 
L 189.713889 51.135273 
L 189.903568 59.298364 
L 190.093247 25.205455 
L 190.282925 43.452364 
L 190.472604 33.848727 
L 190.851962 44.892909 
L 191.041641 42.972182 
L 191.231319 38.170364 
L 191.420998 36.249636 
L 191.610677 38.170364 
L 191.800356 36.249636 
L 191.990035 32.888364 
L 192.179714 35.289273 
L 192.369392 35.289273 
L 192.559071 35.769455 
L 192.938429 31.928 
L 193.128108 31.928 
L 193.317786 33.368545 
L 193.507465 31.447818 
L 193.886823 33.848727 
L 194.076502 34.328909 
L 194.266181 31.447818 
L 194.455859 32.888364 
L 194.645538 31.447818 
L 194.835217 32.408182 
L 195.024896 31.928 
L 195.404253 31.928 
L 195.593932 30.967636 
L 195.783611 28.566727 
L 195.97329 30.487455 
L 196.162969 30.487455 
L 196.352648 28.566727 
L 196.542326 28.566727 
L 196.732005 27.126182 
L 196.921684 30.487455 
L 197.111363 30.967636 
L 197.301042 30.967636 
L 197.49072 30.487455 
L 197.680399 30.967636 
L 197.870078 30.967636 
L 198.059757 30.487455 
L 198.249436 29.046909 
L 198.439115 30.007273 
L 198.628793 29.046909 
L 198.818472 29.046909 
L 199.008151 29.527091 
L 199.19783 29.046909 
L 199.577188 29.046909 
L 199.766866 28.566727 
L 199.956545 28.566727 
L 200.335903 29.527091 
L 200.525582 29.527091 
L 200.71526 29.046909 
L 201.094618 29.046909 
L 201.284297 28.566727 
L 201.473976 27.606364 
L 201.853333 28.566727 
L 202.043012 26.646 
L 202.232691 27.606364 
L 202.42237 29.527091 
L 202.612049 29.527091 
L 202.801727 28.566727 
L 203.181085 29.527091 
L 203.370764 29.046909 
L 203.560443 29.046909 
L 203.750122 29.527091 
L 204.129479 29.527091 
L 204.319158 30.007273 
L 204.508837 28.086545 
L 204.698516 29.527091 
L 204.888194 30.007273 
L 205.077873 29.527091 
L 205.267552 29.527091 
L 205.457231 29.046909 
L 205.64691 29.046909 
L 205.836589 29.527091 
L 206.405625 29.527091 
L 206.595304 30.007273 
L 206.784983 29.046909 
L 206.974661 29.046909 
L 207.16434 28.086545 
L 207.354019 28.086545 
L 207.543698 23.764909 
L 207.733377 29.527091 
L 207.923056 31.447818 
L 208.112734 31.928 
L 208.302413 31.447818 
L 208.492092 31.447818 
L 208.681771 54.976727 
L 209.061128 16.082 
L 209.250807 15.601818 
L 209.440486 15.601818 
L 209.630165 16.082 
L 210.009523 16.082 
L 210.199201 15.601818 
L 210.38888 15.601818 
L 210.578559 16.082 
L 210.768238 15.601818 
L 210.957917 16.082 
L 211.147595 16.082 
L 211.337274 15.601818 
L 211.526953 15.601818 
L 211.716632 16.082 
L 211.906311 16.082 
L 212.285668 25.205455 
L 212.665026 39.610909 
L 212.854705 43.932545 
L 213.234063 54.496545 
L 213.803099 65.540727 
L 213.992778 65.060545 
L 214.751493 65.060545 
L 214.941172 64.580364 
L 215.130851 65.060545 
L 216.268924 65.060545 
L 216.458602 64.580364 
L 216.648281 65.060545 
L 219.114106 65.060545 
L 219.303785 66.501091 
L 219.493464 65.060545 
L 226.890938 65.060545 
L 227.080616 65.540727 
L 227.270295 65.060545 
L 228.598047 65.060545 
L 228.787726 65.540727 
L 228.977405 65.060545 
L 229.167083 65.060545 
L 229.356762 61.699273 
L 229.546441 65.060545 
L 233.150339 65.060545 
L 233.340017 67.941636 
L 233.529696 64.580364 
L 233.719375 65.060545 
L 235.805842 65.060545 
L 235.995521 64.580364 
L 236.1852 63.62 
L 236.754236 55.937091 
L 237.133594 53.536182 
L 237.512951 51.135273 
L 237.892309 47.293818 
L 238.271667 42.492 
L 238.651024 38.650545 
L 238.840703 37.690182 
L 239.220061 30.487455 
L 239.40974 28.566727 
L 239.599418 24.245091 
L 239.978776 22.804545 
L 240.737491 22.804545 
L 240.92717 22.324364 
L 241.116849 22.804545 
L 241.306528 22.324364 
L 241.496207 22.804545 
L 241.875564 22.804545 
L 242.065243 22.324364 
L 242.254922 22.804545 
L 242.444601 22.324364 
L 242.63428 22.324364 
L 242.823958 22.804545 
L 243.013637 22.324364 
L 243.203316 22.804545 
L 243.772352 22.804545 
L 243.962031 22.324364 
L 244.15171 22.804545 
L 244.341389 22.324364 
L 249.842075 22.324364 
L 250.031753 22.804545 
L 250.221432 22.324364 
L 251.359505 22.324364 
L 251.549184 22.804545 
L 251.738863 22.324364 
L 253.066615 22.324364 
L 253.256293 22.804545 
L 253.445972 22.324364 
L 255.153082 22.324364 
L 255.34276 22.804545 
L 255.532439 22.324364 
L 259.136337 22.324364 
L 259.515694 23.284727 
L 259.705373 23.284727 
L 259.895052 23.764909 
L 260.27441 23.764909 
L 260.464089 24.245091 
L 261.033125 29.046909 
L 261.412483 34.809091 
L 262.550556 54.016364 
L 262.740234 54.496545 
L 262.929913 55.456909 
L 263.309271 59.298364 
L 263.688628 62.659636 
L 263.878307 64.580364 
L 264.067986 65.060545 
L 265.01638 65.060545 
L 265.206059 63.139818 
L 265.395738 65.060545 
L 269.189314 65.060545 
L 269.378993 65.540727 
L 269.568672 65.060545 
L 275.638394 65.060545 
L 275.828073 66.501091 
L 276.017752 65.540727 
L 276.207431 65.540727 
L 276.397109 65.060545 
L 277.535182 65.060545 
L 277.724861 64.100182 
L 277.91454 65.060545 
L 292.519809 65.060545 
L 292.709488 65.540727 
L 292.899167 65.060545 
L 296.503064 65.060545 
L 296.692743 65.540727 
L 296.882422 65.060545 
L 307.314757 65.060545 
L 307.504436 64.580364 
L 307.694115 65.060545 
L 308.263151 65.060545 
L 308.45283 64.580364 
L 308.642509 65.060545 
L 309.211545 65.060545 
L 309.401224 65.540727 
L 309.590903 65.060545 
L 313.953516 65.060545 
L 314.143194 65.540727 
L 315.091589 65.540727 
L 315.281267 65.060545 
L 315.850304 65.060545 
L 316.039983 65.540727 
L 316.229661 65.060545 
L 320.023238 65.060545 
L 320.212917 64.580364 
L 320.402595 65.060545 
L 320.781953 65.060545 
L 320.971632 64.580364 
L 321.161311 65.060545 
L 323.247778 65.060545 
L 323.437457 65.540727 
L 323.627135 65.060545 
L 324.196172 65.060545 
L 324.385851 66.501091 
L 324.57553 65.060545 
L 328.179427 65.060545 
L 328.369106 66.981273 
L 328.558785 65.060545 
L 328.748464 65.060545 
L 328.938142 65.540727 
L 329.127821 65.060545 
L 329.3175 65.540727 
L 329.507179 65.060545 
L 329.696858 65.540727 
L 330.076215 65.540727 
L 330.265894 65.060545 
L 331.024609 65.060545 
L 331.214288 66.020909 
L 331.593646 76.104727 
L 331.973003 83.307455 
L 332.731719 104.915636 
L 332.921398 111.158 
L 333.111076 111.638182 
L 356.63125 111.638182 
L 356.820929 110.677818 
L 357.389965 104.915636 
L 357.769323 103.955273 
L 358.148681 101.554364 
L 358.338359 101.074182 
L 358.717717 96.272364 
L 358.907396 94.831818 
L 359.097075 91.470545 
L 359.286753 90.510182 
L 360.045469 81.866909 
L 360.993863 66.501091 
L 361.183542 65.060545 
L 361.562899 65.060545 
L 361.752578 65.540727 
L 361.942257 65.540727 
L 362.131936 64.100182 
L 362.321615 65.540727 
L 362.511293 64.580364 
L 362.700972 65.540727 
L 362.890651 65.060545 
L 363.08033 65.060545 
L 363.270009 65.540727 
L 363.839045 65.540727 
L 364.028724 65.060545 
L 364.218403 65.540727 
L 364.408082 65.060545 
L 364.59776 65.060545 
L 364.787439 65.540727 
L 364.977118 65.060545 
L 372.374592 65.060545 
L 372.564271 63.62 
L 372.75395 65.060545 
L 377.116563 65.060545 
L 377.306241 65.540727 
L 377.49592 65.060545 
L 378.064957 65.060545 
L 378.254635 65.540727 
L 378.633993 65.540727 
L 378.823672 65.060545 
L 380.151424 65.060545 
L 380.341102 65.540727 
L 380.530781 65.060545 
L 381.099818 65.060545 
L 381.289497 64.580364 
L 381.479175 65.060545 
L 381.858533 65.060545 
L 382.048212 65.540727 
L 382.427569 65.540727 
L 382.996606 69.862364 
L 384.134679 90.990364 
L 384.514036 98.193091 
L 385.272752 111.638182 
L 394.946372 111.638182 
L 395.13605 110.197636 
L 395.325729 111.638182 
L 401.395451 111.638182 
L 401.58513 111.158 
L 401.774809 111.638182 
L 410.879392 111.638182 
L 411.069071 110.677818 
L 412.017465 87.148909 
L 412.586502 76.584909 
L 412.776181 74.664182 
L 413.155538 65.060545 
L 414.48329 65.060545 
L 414.672969 65.540727 
L 415.052326 65.540727 
L 415.242005 65.060545 
L 415.431684 65.060545 
L 415.621363 65.540727 
L 415.811042 65.540727 
L 416.00072 65.060545 
L 416.190399 65.540727 
L 416.380078 65.540727 
L 416.569757 65.060545 
L 424.725946 65.060545 
L 424.915625 66.020909 
L 425.105304 65.060545 
L 427.191771 65.060545 
L 427.38145 65.540727 
L 427.571128 65.060545 
L 427.950486 65.060545 
L 428.140165 65.540727 
L 428.329844 65.060545 
L 431.175026 65.060545 
L 431.364705 65.540727 
L 431.554384 65.060545 
L 432.12342 65.060545 
L 432.313099 64.580364 
L 432.502778 65.540727 
L 432.882135 75.144364 
L 434.020208 95.792182 
L 434.589245 111.638182 
L 449.384193 111.638182 
L 449.573872 111.158 
L 449.76355 111.638182 
L 458.868134 111.638182 
L 459.626849 101.554364 
L 460.006207 95.312 
L 460.385564 89.069636 
L 460.575243 87.148909 
L 461.333958 70.342545 
L 461.523637 65.060545 
L 463.420425 65.060545 
L 463.610104 65.540727 
L 463.799783 65.060545 
L 466.644965 65.060545 
L 466.834644 64.580364 
L 467.024323 65.060545 
L 479.353446 65.060545 
L 479.543125 64.580364 
L 479.732804 65.060545 
L 483.147023 65.060545 
L 483.336701 64.580364 
L 483.52638 65.060545 
L 484.095417 65.060545 
L 484.285095 66.020909 
L 484.664453 65.060545 
L 489.216745 65.060545 
L 489.406424 64.580364 
L 489.596102 65.060545 
L 493.2 65.060545 
L 493.2 65.060545 
" clip-path="url(#pf490a6eb99)" style="fill: none; stroke: #1f77b4; stroke-width: 1.5; stroke-linecap: square"/>
   </g>
   <g id="line2d_12">
    <path d="M 56.18 63.62 
L 493.2 63.62 
" clip-path="url(#pf490a6eb99)" style="fill: none; stroke-dasharray: 2.96,1.28; stroke-dashoffset: 0; stroke: #808080; stroke-width: 0.8"/>
   </g>
   <g id="patch_3">
    <path d="M 56.18 116.44 
L 56.18 10.8 
" style="fill: none; stroke: #000000; stroke-width: 0.8; stroke-linejoin: miter; stroke-linecap: square"/>
   </g>
   <g id="patch_4">
    <path d="M 56.18 116.44 
L 493.2 116.44 
" style="fill: none; stroke: #000000; stroke-width: 0.8; stroke-linejoin: miter; stroke-linecap: square"/>
   </g>
  </g>
  <g id="axes_2">
   <g id="patch_5">
    <path d="M 56.18 264.04 
L 493.2 264.04 
L 493.2 158.4 
L 56.18 158.4 
z
" style="fill: #ffffff"/>
   </g>
   <g id="matplotlib.axis_3">
    <g id="xtick_6">
     <g id="line2d_13">
      <g>
       <use xlink:href="#mfd81a05b65" x="56.18" y="264.04" style="stroke: #000000; stroke-width: 0.8"/>
      </g>
     </g>
     <g id="text_13">
      <!-- 0 -->
      <g transform="translate(52.99875 278.638438) scale(0.1 -0.1)">
       <use xlink:href="#DejaVuSans-30"/>
      </g>
     </g>
    </g>
    <g id="xtick_7">
     <g id="line2d_14">
      <g>
       <use xlink:href="#mfd81a05b65" x="151.01941" y="264.04" style="stroke: #000000; stroke-width: 0.8"/>
      </g>
     </g>
     <g id="text_14">
      <!-- 5000 -->
      <g transform="translate(138.29441 278.638438) scale(0.1 -0.1)">
       <use xlink:href="#DejaVuSans-35"/>
       <use xlink:href="#DejaVuSans-30" x="63.623047"/>
       <use xlink:href="#DejaVuSans-30" x="127.246094"/>
       <use xlink:href="#DejaVuSans-30" x="190.869141"/>
      </g>
     </g>
    </g>
    <g id="xtick_8">
     <g id="line2d_15">
      <g>
       <use xlink:href="#mfd81a05b65" x="245.858819" y="264.04" style="stroke: #000000; stroke-width: 0.8"/>
      </g>
     </g>
     <g id="text_15">
      <!-- 10000 -->
      <g transform="translate(229.952569 278.638438) scale(0.1 -0.1)">
       <use xlink:href="#DejaVuSans-31"/>
       <use xlink:href="#DejaVuSans-30" x="63.623047"/>
       <use xlink:href="#DejaVuSans-30" x="127.246094"/>
       <use xlink:href="#DejaVuSans-30" x="190.869141"/>
       <use xlink:href="#DejaVuSans-30" x="254.492188"/>
      </g>
     </g>
    </g>
    <g id="xtick_9">
     <g id="line2d_16">
      <g>
       <use xlink:href="#mfd81a05b65" x="340.698229" y="264.04" style="stroke: #000000; stroke-width: 0.8"/>
      </g>
     </g>
     <g id="text_16">
      <!-- 15000 -->
      <g transform="translate(324.791979 278.638438) scale(0.1 -0.1)">
       <use xlink:href="#DejaVuSans-31"/>
       <use xlink:href="#DejaVuSans-35" x="63.623047"/>
       <use xlink:href="#DejaVuSans-30" x="127.246094"/>
       <use xlink:href="#DejaVuSans-30" x="190.869141"/>
       <use xlink:href="#DejaVuSans-30" x="254.492188"/>
      </g>
     </g>
    </g>
    <g id="xtick_10">
     <g id="line2d_17">
      <g>
       <use xlink:href="#mfd81a05b65" x="435.537639" y="264.04" style="stroke: #000000; stroke-width: 0.8"/>
      </g>
     </g>
     <g id="text_17">
      <!-- 20000 -->
      <g transform="translate(419.631389 278.638438) scale(0.1 -0.1)">
       <use xlink:href="#DejaVuSans-32"/>
       <use xlink:href="#DejaVuSans-30" x="63.623047"/>
       <use xlink:href="#DejaVuSans-30" x="127.246094"/>
       <use xlink:href="#DejaVuSans-30" x="190.869141"/>
       <use xlink:href="#DejaVuSans-30" x="254.492188"/>
      </g>
     </g>
    </g>
    <g id="text_18">
     <!-- Time (ms) -->
     <g transform="translate(249.490781 292.316563) scale(0.1 -0.1)">
      <use xlink:href="#DejaVuSans-54"/>
      <use xlink:href="#DejaVuSans-69" x="57.958984"/>
      <use xlink:href="#DejaVuSans-6d" x="85.742188"/>
      <use xlink:href="#DejaVuSans-65" x="183.154297"/>
      <use xlink:href="#DejaVuSans-20" x="244.677734"/>
      <use xlink:href="#DejaVuSans-28" x="276.464844"/>
      <use xlink:href="#DejaVuSans-6d" x="315.478516"/>
      <use xlink:href="#DejaVuSans-73" x="412.890625"/>
      <use xlink:href="#DejaVuSans-29" x="464.990234"/>
     </g>
    </g>
   </g>
   <g id="matplotlib.axis_4">
    <g id="ytick_6">
     <g id="line2d_18">
      <g>
       <use xlink:href="#m2822580b96" x="56.18" y="259.238182" style="stroke: #000000; stroke-width: 0.8"/>
      </g>
     </g>
     <g id="text_19">
      <!-- −1.0 -->
      <g transform="translate(24.897188 263.037401) scale(0.1 -0.1)">
       <use xlink:href="#DejaVuSans-2212"/>
       <use xlink:href="#DejaVuSans-31" x="83.789062"/>
       <use xlink:href="#DejaVuSans-2e" x="147.412109"/>
       <use xlink:href="#DejaVuSans-30" x="179.199219"/>
      </g>
     </g>
    </g>
    <g id="ytick_7">
     <g id="line2d_19">
      <g>
       <use xlink:href="#m2822580b96" x="56.18" y="235.229091" style="stroke: #000000; stroke-width: 0.8"/>
      </g>
     </g>
     <g id="text_20">
      <!-- −0.5 -->
      <g transform="translate(24.897188 239.02831) scale(0.1 -0.1)">
       <use xlink:href="#DejaVuSans-2212"/>
       <use xlink:href="#DejaVuSans-30" x="83.789062"/>
       <use xlink:href="#DejaVuSans-2e" x="147.412109"/>
       <use xlink:href="#DejaVuSans-35" x="179.199219"/>
      </g>
     </g>
    </g>
    <g id="ytick_8">
     <g id="line2d_20">
      <g>
       <use xlink:href="#m2822580b96" x="56.18" y="211.22" style="stroke: #000000; stroke-width: 0.8"/>
      </g>
     </g>
     <g id="text_21">
      <!-- 0.0 -->
      <g transform="translate(33.276875 215.019219) scale(0.1 -0.1)">
       <use xlink:href="#DejaVuSans-30"/>
       <use xlink:href="#DejaVuSans-2e" x="63.623047"/>
       <use xlink:href="#DejaVuSans-30" x="95.410156"/>
      </g>
     </g>
    </g>
    <g id="ytick_9">
     <g id="line2d_21">
      <g>
       <use xlink:href="#m2822580b96" x="56.18" y="187.210909" style="stroke: #000000; stroke-width: 0.8"/>
      </g>
     </g>
     <g id="text_22">
      <!-- 0.5 -->
      <g transform="translate(33.276875 191.010128) scale(0.1 -0.1)">
       <use xlink:href="#DejaVuSans-30"/>
       <use xlink:href="#DejaVuSans-2e" x="63.623047"/>
       <use xlink:href="#DejaVuSans-35" x="95.410156"/>
      </g>
     </g>
    </g>
    <g id="ytick_10">
     <g id="line2d_22">
      <g>
       <use xlink:href="#m2822580b96" x="56.18" y="163.201818" style="stroke: #000000; stroke-width: 0.8"/>
      </g>
     </g>
     <g id="text_23">
      <!-- 1.0 -->
      <g transform="translate(33.276875 167.001037) scale(0.1 -0.1)">
       <use xlink:href="#DejaVuSans-31"/>
       <use xlink:href="#DejaVuSans-2e" x="63.623047"/>
       <use xlink:href="#DejaVuSans-30" x="95.410156"/>
      </g>
     </g>
    </g>
    <g id="text_24">
     <!-- Y-Axis Value -->
     <g transform="translate(18.8175 241.065313) rotate(-90) scale(0.1 -0.1)">
      <defs>
       <path id="DejaVuSans-59" d="M -13 4666 
L 666 4666 
L 1959 2747 
L 3244 4666 
L 3922 4666 
L 2272 2222 
L 2272 0 
L 1638 0 
L 1638 2222 
L -13 4666 
z
" transform="scale(0.015625)"/>
      </defs>
      <use xlink:href="#DejaVuSans-59"/>
      <use xlink:href="#DejaVuSans-2d" x="49.208984"/>
      <use xlink:href="#DejaVuSans-41" x="83.042969"/>
      <use xlink:href="#DejaVuSans-78" x="151.451172"/>
      <use xlink:href="#DejaVuSans-69" x="210.630859"/>
      <use xlink:href="#DejaVuSans-73" x="238.414062"/>
      <use xlink:href="#DejaVuSans-20" x="290.513672"/>
      <use xlink:href="#DejaVuSans-56" x="322.300781"/>
      <use xlink:href="#DejaVuSans-61" x="382.958984"/>
      <use xlink:href="#DejaVuSans-6c" x="444.238281"/>
      <use xlink:href="#DejaVuSans-75" x="472.021484"/>
      <use xlink:href="#DejaVuSans-65" x="535.400391"/>
     </g>
    </g>
   </g>
   <g id="line2d_23">
    <path d="M 56.18 209.779455 
L 80.648568 209.779455 
L 80.838247 209.299273 
L 81.027925 209.779455 
L 86.528611 209.779455 
L 86.71829 209.299273 
L 86.907969 209.779455 
L 89.753151 209.779455 
L 89.94283 209.299273 
L 90.132509 209.779455 
L 96.581589 209.779455 
L 96.771267 207.858727 
L 97.719661 188.651455 
L 98.478377 173.285636 
L 98.668056 165.602727 
L 98.857734 163.682 
L 99.237092 163.682 
L 99.426771 163.201818 
L 99.61645 163.201818 
L 99.806128 163.682 
L 100.754523 163.682 
L 100.944201 163.201818 
L 101.13388 163.682 
L 101.892595 163.682 
L 102.082274 163.201818 
L 102.271953 163.682 
L 102.461632 163.682 
L 102.651311 163.201818 
L 102.84099 163.682 
L 103.030668 163.682 
L 103.220347 164.162182 
L 103.410026 163.682 
L 103.599705 163.682 
L 103.789384 164.162182 
L 103.979063 163.682 
L 105.117135 163.682 
L 105.306814 164.162182 
L 105.496493 163.201818 
L 105.686172 163.682 
L 107.772639 163.682 
L 107.962318 163.201818 
L 108.151997 163.682 
L 111.566215 163.682 
L 111.755894 163.201818 
L 111.945573 163.682 
L 112.893967 163.682 
L 113.083646 163.201818 
L 113.463003 163.201818 
L 113.652682 163.682 
L 113.842361 163.201818 
L 114.03204 163.682 
L 115.170113 163.682 
L 115.359792 163.201818 
L 115.54947 163.682 
L 116.308186 163.682 
L 116.497865 163.201818 
L 116.877222 163.201818 
L 117.066901 163.682 
L 117.446259 163.682 
L 117.635938 163.201818 
L 117.825616 163.682 
L 118.584332 163.682 
L 118.77401 166.563091 
L 119.343047 185.290182 
L 120.101762 209.779455 
L 121.050156 209.779455 
L 121.239835 210.259636 
L 121.429514 209.779455 
L 141.156111 209.779455 
L 141.725148 184.329818 
L 142.104505 163.682 
L 145.139366 163.682 
L 145.329045 163.201818 
L 145.518724 163.682 
L 145.708403 163.682 
L 145.898082 163.201818 
L 146.08776 163.682 
L 146.277439 163.682 
L 146.467118 163.201818 
L 146.656797 163.682 
L 146.846476 163.682 
L 147.036155 163.201818 
L 147.225833 163.201818 
L 147.415512 163.682 
L 147.605191 163.682 
L 147.79487 163.201818 
L 147.984549 164.162182 
L 148.174227 163.201818 
L 148.363906 163.682 
L 148.553585 163.201818 
L 148.743264 163.682 
L 148.932943 163.201818 
L 149.122622 163.682 
L 149.691658 163.682 
L 149.881337 163.201818 
L 150.071016 163.682 
L 150.640052 163.682 
L 150.829731 163.201818 
L 151.01941 163.682 
L 151.778125 163.682 
L 151.967804 163.201818 
L 152.157483 163.682 
L 155.192344 163.682 
L 155.382023 163.201818 
L 155.571701 163.682 
L 157.089132 163.682 
L 157.278811 163.201818 
L 157.46849 163.682 
L 158.037526 163.682 
L 158.227205 163.201818 
L 158.416884 163.682 
L 158.606563 163.682 
L 158.796241 163.201818 
L 158.98592 163.682 
L 159.175599 163.201818 
L 159.365278 163.201818 
L 159.554957 163.682 
L 159.744635 163.682 
L 159.934314 163.201818 
L 160.503351 163.201818 
L 160.69303 163.682 
L 161.831102 163.682 
L 162.020781 163.201818 
L 162.21046 165.602727 
L 162.400139 163.682 
L 162.589818 163.201818 
L 162.779497 163.201818 
L 162.969175 163.682 
L 163.158854 163.201818 
L 163.348533 163.682 
L 163.538212 163.682 
L 163.727891 163.201818 
L 163.917569 163.682 
L 166.383394 163.682 
L 166.952431 174.246 
L 167.142109 174.726182 
L 167.521467 179.528 
L 168.090503 187.210909 
L 168.849219 204.497455 
L 169.038898 209.779455 
L 175.677656 209.779455 
L 175.867335 209.299273 
L 176.057014 209.779455 
L 177.764123 209.779455 
L 177.953802 210.259636 
L 178.143481 209.779455 
L 191.420998 209.779455 
L 191.610677 210.259636 
L 191.800356 209.779455 
L 194.076502 209.779455 
L 194.266181 210.259636 
L 194.455859 209.779455 
L 207.923056 209.779455 
L 208.112734 209.299273 
L 208.302413 209.779455 
L 208.492092 209.779455 
L 208.681771 210.259636 
L 208.87145 209.779455 
L 220.441858 209.779455 
L 220.631536 209.299273 
L 220.821215 209.779455 
L 227.270295 209.779455 
L 227.459974 208.819091 
L 227.649653 209.779455 
L 235.616163 209.779455 
L 235.805842 211.700182 
L 236.1852 221.303818 
L 237.892309 249.634545 
L 238.461345 259.238182 
L 261.79184 259.238182 
L 262.550556 248.674182 
L 264.826701 215.541636 
L 265.206059 210.259636 
L 265.395738 209.779455 
L 267.292526 209.779455 
L 267.482205 210.259636 
L 267.671884 209.779455 
L 267.861563 210.259636 
L 268.051241 209.779455 
L 275.828073 209.779455 
L 276.017752 210.259636 
L 276.207431 209.779455 
L 282.466832 209.779455 
L 282.65651 210.259636 
L 282.846189 209.779455 
L 284.173941 209.779455 
L 284.36362 210.259636 
L 284.932656 238.110182 
L 285.501693 259.238182 
L 294.985634 259.238182 
L 295.175313 258.758 
L 295.364991 259.238182 
L 308.073472 259.238182 
L 308.263151 258.758 
L 308.45283 259.238182 
L 308.832188 259.238182 
L 309.021866 258.758 
L 309.590903 248.674182 
L 310.159939 237.63 
L 311.108333 210.259636 
L 311.298012 209.779455 
L 313.384479 209.779455 
L 313.574158 209.299273 
L 313.763837 209.779455 
L 327.231033 209.779455 
L 327.420712 210.259636 
L 327.610391 209.779455 
L 327.800069 209.779455 
L 327.989748 209.299273 
L 328.179427 209.779455 
L 331.024609 209.779455 
L 331.214288 211.22 
L 331.973003 239.550727 
L 332.731719 259.238182 
L 359.097075 259.238182 
L 359.476432 254.436364 
L 361.942257 210.259636 
L 362.131936 209.779455 
L 367.063585 209.779455 
L 367.253264 210.259636 
L 367.442943 209.779455 
L 385.652109 209.779455 
L 385.841788 210.259636 
L 386.031467 209.779455 
L 395.13605 209.779455 
L 395.325729 208.819091 
L 395.515408 209.779455 
L 395.705087 208.819091 
L 395.894766 209.779455 
L 398.36059 209.779455 
L 398.550269 212.180364 
L 398.739948 209.779455 
L 408.792925 209.779455 
L 408.982604 210.259636 
L 409.172283 209.779455 
L 428.329844 209.779455 
L 428.519523 210.259636 
L 428.709201 209.779455 
L 432.882135 209.779455 
L 433.451172 196.334364 
L 434.399566 173.765818 
L 434.778924 163.682 
L 437.244748 163.682 
L 437.434427 164.162182 
L 437.624106 163.682 
L 440.658967 163.682 
L 440.848646 164.162182 
L 441.228003 163.201818 
L 441.417682 163.682 
L 442.366076 163.682 
L 442.555755 163.201818 
L 442.745434 163.682 
L 442.935113 163.682 
L 443.124792 163.201818 
L 443.31447 163.682 
L 443.504149 163.682 
L 443.693828 163.201818 
L 443.883507 163.682 
L 444.642222 163.682 
L 444.831901 163.201818 
L 445.02158 163.682 
L 445.211259 163.201818 
L 445.400937 163.682 
L 446.349332 163.682 
L 446.53901 163.201818 
L 446.728689 163.682 
L 446.918368 163.201818 
L 447.108047 163.682 
L 450.901623 163.682 
L 451.091302 164.162182 
L 451.280981 163.682 
L 453.557127 163.682 
L 453.746806 163.201818 
L 453.936484 163.682 
L 454.126163 163.682 
L 454.315842 163.201818 
L 454.505521 163.682 
L 457.161024 163.682 
L 457.350703 164.162182 
L 457.540382 163.682 
L 458.678455 163.682 
L 458.868134 163.201818 
L 459.057813 163.682 
L 459.247491 165.122545 
L 459.626849 172.805455 
L 460.006207 175.686545 
L 460.954601 190.572182 
L 461.523637 209.779455 
L 462.092674 209.779455 
L 462.282352 208.819091 
L 462.472031 209.779455 
L 466.265608 209.779455 
L 466.455286 210.259636 
L 466.644965 209.779455 
L 469.490148 209.779455 
L 469.679826 209.299273 
L 469.869505 209.779455 
L 471.576615 209.779455 
L 471.766293 209.299273 
L 471.955972 209.779455 
L 472.33533 209.779455 
L 472.525009 210.259636 
L 472.714688 209.779455 
L 482.00895 209.779455 
L 482.198628 210.259636 
L 482.388307 209.779455 
L 493.2 209.779455 
L 493.2 209.779455 
" clip-path="url(#p68948138bc)" style="fill: none; stroke: #1f77b4; stroke-width: 1.5; stroke-linecap: square"/>
   </g>
   <g id="line2d_24">
    <path d="M 56.18 211.22 
L 493.2 211.22 
" clip-path="url(#p68948138bc)" style="fill: none; stroke-dasharray: 2.96,1.28; stroke-dashoffset: 0; stroke: #808080; stroke-width: 0.8"/>
   </g>
   <g id="patch_6">
    <path d="M 56.18 264.04 
L 56.18 158.4 
" style="fill: none; stroke: #000000; stroke-width: 0.8; stroke-linejoin: miter; stroke-linecap: square"/>
   </g>
   <g id="patch_7">
    <path d="M 56.18 264.04 
L 493.2 264.04 
" style="fill: none; stroke: #000000; stroke-width: 0.8; stroke-linejoin: miter; stroke-linecap: square"/>
   </g>
  </g>
 </g>
 <defs>
  <clipPath id="pf490a6eb99">
   <rect x="56.18" y="10.8" width="437.02" height="105.64"/>
  </clipPath>
  <clipPath id="p68948138bc">
   <rect x="56.18" y="158.4" width="437.02" height="105.64"/>
  </clipPath>
 </defs>
</svg>
