<?xml version="1.0" encoding="utf-8" standalone="no"?>
<!DOCTYPE svg PUBLIC "-//W3C//DTD SVG 1.1//EN"
  "http://www.w3.org/Graphics/SVG/1.1/DTD/svg11.dtd">
<svg xmlns:xlink="http://www.w3.org/1999/xlink" width="504pt" height="306pt" viewBox="0 0 504 306" xmlns="http://www.w3.org/2000/svg" version="1.1">
 <metadata>
  <rdf:RDF xmlns:dc="http://purl.org/dc/elements/1.1/" xmlns:cc="http://creativecommons.org/ns#" xmlns:rdf="http://www.w3.org/1999/02/22-rdf-syntax-ns#">
   <cc:Work>
    <dc:type rdf:resource="http://purl.org/dc/dcmitype/StillImage"/>
    <dc:date>2024-06-16T23:02:11.780811</dc:date>
    <dc:format>image/svg+xml</dc:format>
    <dc:creator>
     <cc:Agent>
      <dc:title>Matplotlib v3.8.3, https://matplotlib.org/</dc:title>
     </cc:Agent>
    </dc:creator>
   </cc:Work>
  </rdf:RDF>
 </metadata>
 <defs>
  <style type="text/css">*{stroke-linejoin: round; stroke-linecap: butt}</style>
 </defs>
 <g id="figure_1">
  <g id="patch_1">
   <path d="M 0 306 
L 504 306 
L 504 0 
L 0 0 
z
" style="fill: #ffffff"/>
  </g>
  <g id="axes_1">
   <g id="patch_2">
    <path d="M 56.18 116.44 
L 493.2 116.44 
L 493.2 10.8 
L 56.18 10.8 
z
" style="fill: #ffffff"/>
   </g>
   <g id="matplotlib.axis_1">
    <g id="xtick_1">
     <g id="line2d_1">
      <defs>
       <path id="mff3cd356ea" d="M 0 0 
L 0 3.5 
" style="stroke: #000000; stroke-width: 0.8"/>
      </defs>
      <g>
       <use xlink:href="#mff3cd356ea" x="56.18" y="116.44" style="stroke: #000000; stroke-width: 0.8"/>
      </g>
     </g>
     <g id="text_1">
      <!-- 0 -->
      <g transform="translate(52.99875 131.038437) scale(0.1 -0.1)">
       <defs>
        <path id="DejaVuSans-30" d="M 2034 4250 
Q 1547 4250 1301 3770 
Q 1056 3291 1056 2328 
Q 1056 1369 1301 889 
Q 1547 409 2034 409 
Q 2525 409 2770 889 
Q 3016 1369 3016 2328 
Q 3016 3291 2770 3770 
Q 2525 4250 2034 4250 
z
M 2034 4750 
Q 2819 4750 3233 4129 
Q 3647 3509 3647 2328 
Q 3647 1150 3233 529 
Q 2819 -91 2034 -91 
Q 1250 -91 836 529 
Q 422 1150 422 2328 
Q 422 3509 836 4129 
Q 1250 4750 2034 4750 
z
" transform="scale(0.015625)"/>
       </defs>
       <use xlink:href="#DejaVuSans-30"/>
      </g>
     </g>
    </g>
    <g id="xtick_2">
     <g id="line2d_2">
      <g>
       <use xlink:href="#mff3cd356ea" x="151.724381" y="116.44" style="stroke: #000000; stroke-width: 0.8"/>
      </g>
     </g>
     <g id="text_2">
      <!-- 5000 -->
      <g transform="translate(138.999381 131.038437) scale(0.1 -0.1)">
       <defs>
        <path id="DejaVuSans-35" d="M 691 4666 
L 3169 4666 
L 3169 4134 
L 1269 4134 
L 1269 2991 
Q 1406 3038 1543 3061 
Q 1681 3084 1819 3084 
Q 2600 3084 3056 2656 
Q 3513 2228 3513 1497 
Q 3513 744 3044 326 
Q 2575 -91 1722 -91 
Q 1428 -91 1123 -41 
Q 819 9 494 109 
L 494 744 
Q 775 591 1075 516 
Q 1375 441 1709 441 
Q 2250 441 2565 725 
Q 2881 1009 2881 1497 
Q 2881 1984 2565 2268 
Q 2250 2553 1709 2553 
Q 1456 2553 1204 2497 
Q 953 2441 691 2322 
L 691 4666 
z
" transform="scale(0.015625)"/>
       </defs>
       <use xlink:href="#DejaVuSans-35"/>
       <use xlink:href="#DejaVuSans-30" x="63.623047"/>
       <use xlink:href="#DejaVuSans-30" x="127.246094"/>
       <use xlink:href="#DejaVuSans-30" x="190.869141"/>
      </g>
     </g>
    </g>
    <g id="xtick_3">
     <g id="line2d_3">
      <g>
       <use xlink:href="#mff3cd356ea" x="247.268763" y="116.44" style="stroke: #000000; stroke-width: 0.8"/>
      </g>
     </g>
     <g id="text_3">
      <!-- 10000 -->
      <g transform="translate(231.362513 131.038437) scale(0.1 -0.1)">
       <defs>
        <path id="DejaVuSans-31" d="M 794 531 
L 1825 531 
L 1825 4091 
L 703 3866 
L 703 4441 
L 1819 4666 
L 2450 4666 
L 2450 531 
L 3481 531 
L 3481 0 
L 794 0 
L 794 531 
z
" transform="scale(0.015625)"/>
       </defs>
       <use xlink:href="#DejaVuSans-31"/>
       <use xlink:href="#DejaVuSans-30" x="63.623047"/>
       <use xlink:href="#DejaVuSans-30" x="127.246094"/>
       <use xlink:href="#DejaVuSans-30" x="190.869141"/>
       <use xlink:href="#DejaVuSans-30" x="254.492188"/>
      </g>
     </g>
    </g>
    <g id="xtick_4">
     <g id="line2d_4">
      <g>
       <use xlink:href="#mff3cd356ea" x="342.813144" y="116.44" style="stroke: #000000; stroke-width: 0.8"/>
      </g>
     </g>
     <g id="text_4">
      <!-- 15000 -->
      <g transform="translate(326.906894 131.038437) scale(0.1 -0.1)">
       <use xlink:href="#DejaVuSans-31"/>
       <use xlink:href="#DejaVuSans-35" x="63.623047"/>
       <use xlink:href="#DejaVuSans-30" x="127.246094"/>
       <use xlink:href="#DejaVuSans-30" x="190.869141"/>
       <use xlink:href="#DejaVuSans-30" x="254.492188"/>
      </g>
     </g>
    </g>
    <g id="xtick_5">
     <g id="line2d_5">
      <g>
       <use xlink:href="#mff3cd356ea" x="438.357525" y="116.44" style="stroke: #000000; stroke-width: 0.8"/>
      </g>
     </g>
     <g id="text_5">
      <!-- 20000 -->
      <g transform="translate(422.451275 131.038437) scale(0.1 -0.1)">
       <defs>
        <path id="DejaVuSans-32" d="M 1228 531 
L 3431 531 
L 3431 0 
L 469 0 
L 469 531 
Q 828 903 1448 1529 
Q 2069 2156 2228 2338 
Q 2531 2678 2651 2914 
Q 2772 3150 2772 3378 
Q 2772 3750 2511 3984 
Q 2250 4219 1831 4219 
Q 1534 4219 1204 4116 
Q 875 4013 500 3803 
L 500 4441 
Q 881 4594 1212 4672 
Q 1544 4750 1819 4750 
Q 2544 4750 2975 4387 
Q 3406 4025 3406 3419 
Q 3406 3131 3298 2873 
Q 3191 2616 2906 2266 
Q 2828 2175 2409 1742 
Q 1991 1309 1228 531 
z
" transform="scale(0.015625)"/>
       </defs>
       <use xlink:href="#DejaVuSans-32"/>
       <use xlink:href="#DejaVuSans-30" x="63.623047"/>
       <use xlink:href="#DejaVuSans-30" x="127.246094"/>
       <use xlink:href="#DejaVuSans-30" x="190.869141"/>
       <use xlink:href="#DejaVuSans-30" x="254.492188"/>
      </g>
     </g>
    </g>
    <g id="text_6">
     <!-- Time (ms) -->
     <g transform="translate(249.490781 144.716562) scale(0.1 -0.1)">
      <defs>
       <path id="DejaVuSans-54" d="M -19 4666 
L 3928 4666 
L 3928 4134 
L 2272 4134 
L 2272 0 
L 1638 0 
L 1638 4134 
L -19 4134 
L -19 4666 
z
" transform="scale(0.015625)"/>
       <path id="DejaVuSans-69" d="M 603 3500 
L 1178 3500 
L 1178 0 
L 603 0 
L 603 3500 
z
M 603 4863 
L 1178 4863 
L 1178 4134 
L 603 4134 
L 603 4863 
z
" transform="scale(0.015625)"/>
       <path id="DejaVuSans-6d" d="M 3328 2828 
Q 3544 3216 3844 3400 
Q 4144 3584 4550 3584 
Q 5097 3584 5394 3201 
Q 5691 2819 5691 2113 
L 5691 0 
L 5113 0 
L 5113 2094 
Q 5113 2597 4934 2840 
Q 4756 3084 4391 3084 
Q 3944 3084 3684 2787 
Q 3425 2491 3425 1978 
L 3425 0 
L 2847 0 
L 2847 2094 
Q 2847 2600 2669 2842 
Q 2491 3084 2119 3084 
Q 1678 3084 1418 2786 
Q 1159 2488 1159 1978 
L 1159 0 
L 581 0 
L 581 3500 
L 1159 3500 
L 1159 2956 
Q 1356 3278 1631 3431 
Q 1906 3584 2284 3584 
Q 2666 3584 2933 3390 
Q 3200 3197 3328 2828 
z
" transform="scale(0.015625)"/>
       <path id="DejaVuSans-65" d="M 3597 1894 
L 3597 1613 
L 953 1613 
Q 991 1019 1311 708 
Q 1631 397 2203 397 
Q 2534 397 2845 478 
Q 3156 559 3463 722 
L 3463 178 
Q 3153 47 2828 -22 
Q 2503 -91 2169 -91 
Q 1331 -91 842 396 
Q 353 884 353 1716 
Q 353 2575 817 3079 
Q 1281 3584 2069 3584 
Q 2775 3584 3186 3129 
Q 3597 2675 3597 1894 
z
M 3022 2063 
Q 3016 2534 2758 2815 
Q 2500 3097 2075 3097 
Q 1594 3097 1305 2825 
Q 1016 2553 972 2059 
L 3022 2063 
z
" transform="scale(0.015625)"/>
       <path id="DejaVuSans-20" transform="scale(0.015625)"/>
       <path id="DejaVuSans-28" d="M 1984 4856 
Q 1566 4138 1362 3434 
Q 1159 2731 1159 2009 
Q 1159 1288 1364 580 
Q 1569 -128 1984 -844 
L 1484 -844 
Q 1016 -109 783 600 
Q 550 1309 550 2009 
Q 550 2706 781 3412 
Q 1013 4119 1484 4856 
L 1984 4856 
z
" transform="scale(0.015625)"/>
       <path id="DejaVuSans-73" d="M 2834 3397 
L 2834 2853 
Q 2591 2978 2328 3040 
Q 2066 3103 1784 3103 
Q 1356 3103 1142 2972 
Q 928 2841 928 2578 
Q 928 2378 1081 2264 
Q 1234 2150 1697 2047 
L 1894 2003 
Q 2506 1872 2764 1633 
Q 3022 1394 3022 966 
Q 3022 478 2636 193 
Q 2250 -91 1575 -91 
Q 1294 -91 989 -36 
Q 684 19 347 128 
L 347 722 
Q 666 556 975 473 
Q 1284 391 1588 391 
Q 1994 391 2212 530 
Q 2431 669 2431 922 
Q 2431 1156 2273 1281 
Q 2116 1406 1581 1522 
L 1381 1569 
Q 847 1681 609 1914 
Q 372 2147 372 2553 
Q 372 3047 722 3315 
Q 1072 3584 1716 3584 
Q 2034 3584 2315 3537 
Q 2597 3491 2834 3397 
z
" transform="scale(0.015625)"/>
       <path id="DejaVuSans-29" d="M 513 4856 
L 1013 4856 
Q 1481 4119 1714 3412 
Q 1947 2706 1947 2009 
Q 1947 1309 1714 600 
Q 1481 -109 1013 -844 
L 513 -844 
Q 928 -128 1133 580 
Q 1338 1288 1338 2009 
Q 1338 2731 1133 3434 
Q 928 4138 513 4856 
z
" transform="scale(0.015625)"/>
      </defs>
      <use xlink:href="#DejaVuSans-54"/>
      <use xlink:href="#DejaVuSans-69" x="57.958984"/>
      <use xlink:href="#DejaVuSans-6d" x="85.742188"/>
      <use xlink:href="#DejaVuSans-65" x="183.154297"/>
      <use xlink:href="#DejaVuSans-20" x="244.677734"/>
      <use xlink:href="#DejaVuSans-28" x="276.464844"/>
      <use xlink:href="#DejaVuSans-6d" x="315.478516"/>
      <use xlink:href="#DejaVuSans-73" x="412.890625"/>
      <use xlink:href="#DejaVuSans-29" x="464.990234"/>
     </g>
    </g>
   </g>
   <g id="matplotlib.axis_2">
    <g id="ytick_1">
     <g id="line2d_6">
      <defs>
       <path id="md92d75dff1" d="M 0 0 
L -3.5 0 
" style="stroke: #000000; stroke-width: 0.8"/>
      </defs>
      <g>
       <use xlink:href="#md92d75dff1" x="56.18" y="111.638182" style="stroke: #000000; stroke-width: 0.8"/>
      </g>
     </g>
     <g id="text_7">
      <!-- −1.0 -->
      <g transform="translate(24.897188 115.437401) scale(0.1 -0.1)">
       <defs>
        <path id="DejaVuSans-2212" d="M 678 2272 
L 4684 2272 
L 4684 1741 
L 678 1741 
L 678 2272 
z
" transform="scale(0.015625)"/>
        <path id="DejaVuSans-2e" d="M 684 794 
L 1344 794 
L 1344 0 
L 684 0 
L 684 794 
z
" transform="scale(0.015625)"/>
       </defs>
       <use xlink:href="#DejaVuSans-2212"/>
       <use xlink:href="#DejaVuSans-31" x="83.789062"/>
       <use xlink:href="#DejaVuSans-2e" x="147.412109"/>
       <use xlink:href="#DejaVuSans-30" x="179.199219"/>
      </g>
     </g>
    </g>
    <g id="ytick_2">
     <g id="line2d_7">
      <g>
       <use xlink:href="#md92d75dff1" x="56.18" y="87.629091" style="stroke: #000000; stroke-width: 0.8"/>
      </g>
     </g>
     <g id="text_8">
      <!-- −0.5 -->
      <g transform="translate(24.897188 91.42831) scale(0.1 -0.1)">
       <use xlink:href="#DejaVuSans-2212"/>
       <use xlink:href="#DejaVuSans-30" x="83.789062"/>
       <use xlink:href="#DejaVuSans-2e" x="147.412109"/>
       <use xlink:href="#DejaVuSans-35" x="179.199219"/>
      </g>
     </g>
    </g>
    <g id="ytick_3">
     <g id="line2d_8">
      <g>
       <use xlink:href="#md92d75dff1" x="56.18" y="63.62" style="stroke: #000000; stroke-width: 0.8"/>
      </g>
     </g>
     <g id="text_9">
      <!-- 0.0 -->
      <g transform="translate(33.276875 67.419219) scale(0.1 -0.1)">
       <use xlink:href="#DejaVuSans-30"/>
       <use xlink:href="#DejaVuSans-2e" x="63.623047"/>
       <use xlink:href="#DejaVuSans-30" x="95.410156"/>
      </g>
     </g>
    </g>
    <g id="ytick_4">
     <g id="line2d_9">
      <g>
       <use xlink:href="#md92d75dff1" x="56.18" y="39.610909" style="stroke: #000000; stroke-width: 0.8"/>
      </g>
     </g>
     <g id="text_10">
      <!-- 0.5 -->
      <g transform="translate(33.276875 43.410128) scale(0.1 -0.1)">
       <use xlink:href="#DejaVuSans-30"/>
       <use xlink:href="#DejaVuSans-2e" x="63.623047"/>
       <use xlink:href="#DejaVuSans-35" x="95.410156"/>
      </g>
     </g>
    </g>
    <g id="ytick_5">
     <g id="line2d_10">
      <g>
       <use xlink:href="#md92d75dff1" x="56.18" y="15.601818" style="stroke: #000000; stroke-width: 0.8"/>
      </g>
     </g>
     <g id="text_11">
      <!-- 1.0 -->
      <g transform="translate(33.276875 19.401037) scale(0.1 -0.1)">
       <use xlink:href="#DejaVuSans-31"/>
       <use xlink:href="#DejaVuSans-2e" x="63.623047"/>
       <use xlink:href="#DejaVuSans-30" x="95.410156"/>
      </g>
     </g>
    </g>
    <g id="text_12">
     <!-- X-Axis Value -->
     <g transform="translate(18.8175 94.180156) rotate(-90) scale(0.1 -0.1)">
      <defs>
       <path id="DejaVuSans-58" d="M 403 4666 
L 1081 4666 
L 2241 2931 
L 3406 4666 
L 4084 4666 
L 2584 2425 
L 4184 0 
L 3506 0 
L 2194 1984 
L 872 0 
L 191 0 
L 1856 2491 
L 403 4666 
z
" transform="scale(0.015625)"/>
       <path id="DejaVuSans-2d" d="M 313 2009 
L 1997 2009 
L 1997 1497 
L 313 1497 
L 313 2009 
z
" transform="scale(0.015625)"/>
       <path id="DejaVuSans-41" d="M 2188 4044 
L 1331 1722 
L 3047 1722 
L 2188 4044 
z
M 1831 4666 
L 2547 4666 
L 4325 0 
L 3669 0 
L 3244 1197 
L 1141 1197 
L 716 0 
L 50 0 
L 1831 4666 
z
" transform="scale(0.015625)"/>
       <path id="DejaVuSans-78" d="M 3513 3500 
L 2247 1797 
L 3578 0 
L 2900 0 
L 1881 1375 
L 863 0 
L 184 0 
L 1544 1831 
L 300 3500 
L 978 3500 
L 1906 2253 
L 2834 3500 
L 3513 3500 
z
" transform="scale(0.015625)"/>
       <path id="DejaVuSans-56" d="M 1831 0 
L 50 4666 
L 709 4666 
L 2188 738 
L 3669 4666 
L 4325 4666 
L 2547 0 
L 1831 0 
z
" transform="scale(0.015625)"/>
       <path id="DejaVuSans-61" d="M 2194 1759 
Q 1497 1759 1228 1600 
Q 959 1441 959 1056 
Q 959 750 1161 570 
Q 1363 391 1709 391 
Q 2188 391 2477 730 
Q 2766 1069 2766 1631 
L 2766 1759 
L 2194 1759 
z
M 3341 1997 
L 3341 0 
L 2766 0 
L 2766 531 
Q 2569 213 2275 61 
Q 1981 -91 1556 -91 
Q 1019 -91 701 211 
Q 384 513 384 1019 
Q 384 1609 779 1909 
Q 1175 2209 1959 2209 
L 2766 2209 
L 2766 2266 
Q 2766 2663 2505 2880 
Q 2244 3097 1772 3097 
Q 1472 3097 1187 3025 
Q 903 2953 641 2809 
L 641 3341 
Q 956 3463 1253 3523 
Q 1550 3584 1831 3584 
Q 2591 3584 2966 3190 
Q 3341 2797 3341 1997 
z
" transform="scale(0.015625)"/>
       <path id="DejaVuSans-6c" d="M 603 4863 
L 1178 4863 
L 1178 0 
L 603 0 
L 603 4863 
z
" transform="scale(0.015625)"/>
       <path id="DejaVuSans-75" d="M 544 1381 
L 544 3500 
L 1119 3500 
L 1119 1403 
Q 1119 906 1312 657 
Q 1506 409 1894 409 
Q 2359 409 2629 706 
Q 2900 1003 2900 1516 
L 2900 3500 
L 3475 3500 
L 3475 0 
L 2900 0 
L 2900 538 
Q 2691 219 2414 64 
Q 2138 -91 1772 -91 
Q 1169 -91 856 284 
Q 544 659 544 1381 
z
M 1991 3584 
L 1991 3584 
z
" transform="scale(0.015625)"/>
      </defs>
      <use xlink:href="#DejaVuSans-58"/>
      <use xlink:href="#DejaVuSans-2d" x="63.505859"/>
      <use xlink:href="#DejaVuSans-41" x="97.339844"/>
      <use xlink:href="#DejaVuSans-78" x="165.748047"/>
      <use xlink:href="#DejaVuSans-69" x="224.927734"/>
      <use xlink:href="#DejaVuSans-73" x="252.710938"/>
      <use xlink:href="#DejaVuSans-20" x="304.810547"/>
      <use xlink:href="#DejaVuSans-56" x="336.597656"/>
      <use xlink:href="#DejaVuSans-61" x="397.255859"/>
      <use xlink:href="#DejaVuSans-6c" x="458.535156"/>
      <use xlink:href="#DejaVuSans-75" x="486.318359"/>
      <use xlink:href="#DejaVuSans-65" x="549.697266"/>
     </g>
    </g>
   </g>
   <g id="line2d_11">
    <path d="M 56.18 65.060545 
L 60.383953 65.060545 
L 60.575042 64.100182 
L 60.76613 65.060545 
L 61.339397 65.060545 
L 61.530485 64.580364 
L 61.721574 65.060545 
L 61.912663 64.580364 
L 62.103752 64.580364 
L 62.29484 65.060545 
L 62.485929 65.060545 
L 62.677018 64.580364 
L 62.868107 65.060545 
L 63.441373 65.060545 
L 63.632462 64.580364 
L 63.823551 65.060545 
L 73.760166 65.060545 
L 73.951255 64.580364 
L 74.142344 65.060545 
L 76.24432 65.060545 
L 76.435409 64.580364 
L 76.626498 65.060545 
L 77.964119 65.060545 
L 78.155208 64.580364 
L 78.346296 65.060545 
L 91.72251 65.060545 
L 92.104687 66.020909 
L 92.295776 65.540727 
L 92.486865 66.020909 
L 92.677954 67.461455 
L 92.869042 66.020909 
L 93.060131 65.540727 
L 94.588841 65.540727 
L 94.77993 66.981273 
L 94.971019 65.540727 
L 96.499729 65.540727 
L 96.690818 65.060545 
L 97.072995 66.020909 
L 97.264084 65.540727 
L 100.703682 65.540727 
L 100.89477 66.501091 
L 101.085859 65.540727 
L 101.468037 65.540727 
L 101.659125 64.580364 
L 101.850214 65.540727 
L 102.041303 65.540727 
L 102.232392 65.060545 
L 106.818522 65.060545 
L 107.009611 66.501091 
L 107.2007 65.060545 
L 108.156143 65.060545 
L 108.347232 64.580364 
L 108.538321 65.060545 
L 108.920498 65.060545 
L 109.111587 65.540727 
L 109.302676 65.060545 
L 113.506629 65.060545 
L 113.697718 64.100182 
L 113.888806 65.060545 
L 115.226428 65.060545 
L 115.417516 64.580364 
L 115.608605 65.060545 
L 118.474937 65.060545 
L 118.666025 64.580364 
L 118.857114 65.060545 
L 124.207599 65.060545 
L 124.398688 63.62 
L 124.589777 65.060545 
L 133.570949 65.060545 
L 133.762038 64.580364 
L 134.144215 65.540727 
L 134.335304 65.060545 
L 137.201635 65.060545 
L 137.392724 65.540727 
L 137.583813 65.060545 
L 137.96599 65.060545 
L 138.157079 65.540727 
L 138.348168 65.060545 
L 141.214499 65.060545 
L 141.405588 64.580364 
L 141.596677 65.060545 
L 141.978854 65.060545 
L 142.361032 57.857818 
L 142.934298 45.373091 
L 144.080831 16.082 
L 144.27192 16.562182 
L 144.463008 16.562182 
L 144.654097 16.082 
L 145.609541 16.082 
L 145.80063 15.601818 
L 145.991718 16.082 
L 146.756073 16.082 
L 146.947162 15.601818 
L 147.138251 16.082 
L 147.32934 16.082 
L 147.520429 15.601818 
L 147.711517 16.082 
L 147.902606 15.601818 
L 148.284784 15.601818 
L 148.475872 16.082 
L 148.666961 16.082 
L 148.85805 15.601818 
L 149.240227 15.601818 
L 149.431316 17.042364 
L 149.813494 15.601818 
L 150.004582 15.601818 
L 150.195671 16.082 
L 150.38676 15.601818 
L 150.577849 16.082 
L 150.768937 15.601818 
L 151.151115 15.601818 
L 151.342204 16.082 
L 151.533293 15.601818 
L 151.724381 16.082 
L 152.106559 16.082 
L 152.297648 15.601818 
L 152.488736 15.601818 
L 152.679825 16.082 
L 152.870914 15.601818 
L 153.826358 15.601818 
L 154.017446 16.082 
L 156.119423 16.082 
L 156.310512 16.562182 
L 156.5016 16.082 
L 156.883778 16.082 
L 157.074867 15.601818 
L 157.265955 16.082 
L 157.457044 15.601818 
L 157.648133 15.601818 
L 157.839222 16.082 
L 158.03031 15.601818 
L 158.221399 16.082 
L 158.603577 16.082 
L 158.794666 15.601818 
L 158.985754 16.082 
L 159.750109 16.082 
L 159.941198 15.601818 
L 160.132287 16.082 
L 160.323376 15.601818 
L 160.514464 15.601818 
L 160.705553 16.082 
L 160.896642 15.601818 
L 161.087731 15.601818 
L 161.278819 16.082 
L 161.469908 15.601818 
L 161.660997 16.082 
L 161.852086 16.082 
L 162.043174 15.601818 
L 162.234263 16.082 
L 162.425352 15.601818 
L 163.380796 15.601818 
L 163.571885 16.562182 
L 163.762973 15.601818 
L 163.954062 15.601818 
L 164.145151 16.082 
L 164.33624 16.082 
L 164.527328 15.601818 
L 164.718417 15.601818 
L 164.909506 16.082 
L 165.100595 15.601818 
L 165.291683 15.601818 
L 165.482772 16.082 
L 165.673861 15.601818 
L 165.86495 15.601818 
L 166.056038 16.082 
L 166.247127 15.601818 
L 166.438216 16.082 
L 166.629305 15.601818 
L 166.820394 16.082 
L 167.39366 16.082 
L 167.584749 16.562182 
L 167.966926 16.562182 
L 168.349104 23.284727 
L 168.540192 24.245091 
L 169.304547 40.091091 
L 169.877814 57.377636 
L 170.259991 64.100182 
L 170.45108 64.580364 
L 170.642169 64.580364 
L 170.833258 65.060545 
L 174.655033 65.060545 
L 174.846122 64.580364 
L 175.03721 66.981273 
L 175.228299 65.060545 
L 179.050074 65.060545 
L 179.241163 65.540727 
L 179.432252 65.060545 
L 188.222335 65.060545 
L 188.413424 64.580364 
L 188.604512 65.060545 
L 190.324311 65.060545 
L 190.5154 64.580364 
L 190.706489 65.060545 
L 193.763909 65.060545 
L 193.954998 64.580364 
L 194.146087 61.219091 
L 194.337175 60.258727 
L 194.528264 58.338 
L 195.483708 40.091091 
L 195.674797 38.170364 
L 196.63024 16.082 
L 196.821329 16.082 
L 197.012418 16.562182 
L 197.203507 16.082 
L 197.585684 16.082 
L 197.776773 15.601818 
L 197.967862 16.082 
L 198.158951 15.601818 
L 198.350039 16.082 
L 198.541128 16.082 
L 198.732217 21.364 
L 199.114394 51.615455 
L 199.496572 30.007273 
L 199.687661 36.249636 
L 199.878749 34.809091 
L 200.069838 30.967636 
L 200.260927 33.368545 
L 200.452016 29.527091 
L 200.643105 29.046909 
L 200.834193 28.086545 
L 201.025282 29.046909 
L 201.216371 28.086545 
L 201.40746 28.566727 
L 201.598548 28.566727 
L 201.789637 28.086545 
L 201.980726 29.046909 
L 202.171815 33.368545 
L 202.553992 25.685636 
L 202.745081 29.046909 
L 203.127258 26.646 
L 203.700525 26.646 
L 203.891613 27.126182 
L 204.273791 25.685636 
L 204.46488 26.646 
L 205.038146 26.646 
L 205.229235 28.566727 
L 205.420324 28.566727 
L 205.611412 29.046909 
L 205.802501 28.566727 
L 205.99359 29.046909 
L 206.184679 29.046909 
L 206.566856 30.007273 
L 206.757945 30.007273 
L 206.949034 29.527091 
L 207.5223 29.527091 
L 207.904477 28.566727 
L 208.095566 28.566727 
L 208.286655 27.606364 
L 208.668833 27.606364 
L 208.859921 28.566727 
L 209.05101 28.086545 
L 209.433188 25.205455 
L 209.624276 27.126182 
L 209.815365 27.126182 
L 210.006454 27.606364 
L 210.197543 27.126182 
L 210.388631 26.165818 
L 210.770809 27.126182 
L 211.152986 26.165818 
L 211.344075 26.646 
L 211.535164 26.165818 
L 211.726253 26.646 
L 211.917341 26.646 
L 212.10843 26.165818 
L 212.299519 26.646 
L 213.063874 26.646 
L 213.254963 26.165818 
L 213.446052 21.844182 
L 213.828229 26.165818 
L 214.019318 26.646 
L 214.592584 26.646 
L 214.783673 27.606364 
L 214.974762 27.606364 
L 215.16585 28.566727 
L 215.356939 28.086545 
L 215.548028 28.086545 
L 215.739117 28.566727 
L 215.930206 29.527091 
L 216.121294 29.046909 
L 216.312383 29.046909 
L 216.503472 29.527091 
L 216.694561 35.769455 
L 216.885649 63.139818 
L 217.076738 66.020909 
L 217.267827 26.646 
L 217.458916 18.963091 
L 217.650004 16.562182 
L 217.841093 16.082 
L 218.223271 16.082 
L 218.414359 15.601818 
L 218.605448 16.082 
L 218.987626 16.082 
L 219.178714 15.601818 
L 219.369803 16.082 
L 220.134158 16.082 
L 220.325247 16.562182 
L 220.516336 16.562182 
L 221.280691 31.928 
L 221.47178 38.170364 
L 221.662868 40.091091 
L 222.427223 54.496545 
L 223.00049 60.738909 
L 223.382667 64.100182 
L 223.573756 65.060545 
L 224.5292 65.060545 
L 224.720289 64.580364 
L 224.911377 65.060545 
L 230.452951 65.060545 
L 230.64404 64.580364 
L 230.835129 65.060545 
L 233.70146 65.060545 
L 233.892549 65.540727 
L 234.083638 65.060545 
L 239.051946 65.060545 
L 239.243035 64.580364 
L 239.434123 65.060545 
L 242.491544 65.060545 
L 242.682632 64.580364 
L 242.873721 63.62 
L 243.255899 56.897455 
L 243.638076 52.575818 
L 245.166786 27.606364 
L 245.548964 23.284727 
L 245.740052 22.804545 
L 245.931141 20.883818 
L 246.12223 16.082 
L 246.313319 16.562182 
L 246.504408 16.082 
L 246.886585 16.082 
L 247.077674 15.601818 
L 247.268763 16.082 
L 247.65094 16.082 
L 247.842029 15.601818 
L 248.033118 16.082 
L 248.224206 15.601818 
L 248.415295 16.082 
L 248.606384 16.082 
L 248.797473 15.601818 
L 248.988561 16.082 
L 249.561828 16.082 
L 249.752916 15.601818 
L 250.135094 15.601818 
L 250.326183 16.082 
L 250.517272 16.082 
L 250.70836 15.601818 
L 250.899449 16.082 
L 251.090538 16.082 
L 251.281627 15.601818 
L 251.472715 17.522545 
L 251.663804 16.082 
L 252.619248 16.082 
L 252.810337 15.601818 
L 253.001425 16.082 
L 255.867757 16.082 
L 256.058846 16.562182 
L 256.249934 16.082 
L 259.307355 16.082 
L 259.498443 15.601818 
L 259.689532 16.082 
L 260.262798 16.082 
L 260.453887 15.601818 
L 260.644976 16.082 
L 261.027153 16.082 
L 261.218242 15.601818 
L 261.60042 15.601818 
L 261.791509 16.082 
L 261.982597 16.082 
L 262.173686 15.601818 
L 262.364775 16.082 
L 262.938041 16.082 
L 263.12913 15.601818 
L 263.320219 16.082 
L 263.511307 16.082 
L 263.702396 15.601818 
L 263.893485 16.082 
L 264.275662 16.082 
L 264.466751 15.601818 
L 264.65784 16.082 
L 265.995461 16.082 
L 266.18655 16.562182 
L 266.377639 16.082 
L 266.568728 16.562182 
L 266.759816 21.844182 
L 266.950905 22.804545 
L 267.141994 22.804545 
L 267.524171 24.245091 
L 267.71526 24.725273 
L 268.288526 31.447818 
L 270.008325 59.778545 
L 270.77268 65.060545 
L 273.830101 65.060545 
L 274.021189 65.540727 
L 274.212278 65.060545 
L 274.403367 65.540727 
L 274.594456 65.540727 
L 274.785544 65.060545 
L 275.167722 65.060545 
L 275.358811 65.540727 
L 275.549899 65.540727 
L 275.740988 65.060545 
L 276.505343 65.060545 
L 276.696432 67.461455 
L 276.887521 65.060545 
L 280.900385 65.060545 
L 281.091474 65.540727 
L 281.282562 65.060545 
L 283.002361 65.060545 
L 283.19345 65.540727 
L 283.384539 65.060545 
L 289.30829 65.060545 
L 289.499379 65.540727 
L 289.690468 65.060545 
L 291.410267 65.060545 
L 291.601355 64.580364 
L 291.792444 65.060545 
L 292.747888 65.060545 
L 292.938977 65.540727 
L 293.130066 65.540727 
L 293.321154 63.139818 
L 293.512243 65.540727 
L 293.703332 65.540727 
L 293.894421 65.060545 
L 294.276598 65.060545 
L 294.467687 65.540727 
L 294.849864 64.580364 
L 295.040953 65.060545 
L 295.423131 65.060545 
L 295.61422 65.540727 
L 295.805308 65.060545 
L 295.996397 65.060545 
L 296.187486 65.540727 
L 296.378575 65.060545 
L 301.537971 65.060545 
L 301.72906 66.981273 
L 301.920149 65.060545 
L 302.302326 65.060545 
L 302.493415 65.540727 
L 302.684504 65.060545 
L 302.875592 65.060545 
L 303.066681 65.540727 
L 303.25777 65.060545 
L 303.448859 65.540727 
L 303.639948 65.060545 
L 310.710232 65.060545 
L 310.901321 66.020909 
L 311.092409 65.060545 
L 318.353782 65.060545 
L 318.544871 68.421818 
L 318.73596 65.060545 
L 326.188422 65.060545 
L 326.37951 65.540727 
L 326.761688 65.540727 
L 326.952777 65.060545 
L 327.143865 65.540727 
L 327.334954 65.540727 
L 327.526043 65.060545 
L 327.717132 65.540727 
L 329.245842 65.540727 
L 329.43693 65.060545 
L 329.819108 65.060545 
L 330.010197 65.540727 
L 330.201286 65.540727 
L 330.392374 65.060545 
L 330.583463 65.060545 
L 330.774552 65.540727 
L 330.965641 65.060545 
L 331.156729 65.540727 
L 331.347818 65.060545 
L 333.067617 65.060545 
L 333.258706 65.540727 
L 333.449794 65.060545 
L 335.360682 65.060545 
L 335.551771 63.139818 
L 335.74286 65.060545 
L 335.933948 65.060545 
L 336.125037 65.540727 
L 336.507215 64.580364 
L 336.698303 65.060545 
L 336.889392 65.060545 
L 337.080481 65.540727 
L 342.622055 65.540727 
L 342.813144 65.060545 
L 343.004233 65.060545 
L 343.195321 65.540727 
L 343.577499 75.624545 
L 343.959676 82.827273 
L 345.297298 110.677818 
L 345.488387 111.638182 
L 368.036861 111.638182 
L 368.801216 101.074182 
L 368.992304 96.752545 
L 369.183393 95.312 
L 369.374482 90.990364 
L 369.565571 90.03 
L 370.903192 76.104727 
L 371.667547 65.060545 
L 372.431902 65.060545 
L 372.622991 65.540727 
L 373.005168 65.540727 
L 373.196257 65.060545 
L 373.387346 64.100182 
L 373.578435 65.060545 
L 375.680411 65.060545 
L 375.8715 65.540727 
L 376.062589 65.060545 
L 377.591299 65.060545 
L 377.782387 64.100182 
L 377.973476 65.060545 
L 379.693275 65.060545 
L 379.884364 63.139818 
L 380.075453 65.060545 
L 381.604163 65.060545 
L 381.795251 64.580364 
L 381.98634 65.060545 
L 390.012068 65.060545 
L 390.203157 65.540727 
L 390.585334 71.302909 
L 391.34969 86.668727 
L 391.922956 96.272364 
L 392.305133 102.034545 
L 392.8784 111.638182 
L 395.171465 111.638182 
L 395.362554 110.197636 
L 395.553642 111.638182 
L 406.827879 111.638182 
L 407.018968 111.158 
L 407.210057 111.638182 
L 419.630826 111.638182 
L 420.58627 95.792182 
L 421.159537 86.188545 
L 421.541714 80.906545 
L 422.306069 71.302909 
L 422.497158 65.540727 
L 422.688247 65.060545 
L 429.567442 65.060545 
L 429.758531 66.020909 
L 429.94962 65.060545 
L 440.077324 65.060545 
L 440.268413 65.540727 
L 440.459502 67.941636 
L 440.841679 73.703818 
L 442.1793 90.990364 
L 442.370389 95.312 
L 442.561478 96.752545 
L 443.325833 111.638182 
L 444.090188 111.638182 
L 444.281277 111.158 
L 444.472366 111.638182 
L 454.60007 111.638182 
L 454.791159 111.158 
L 454.982247 111.638182 
L 455.555514 111.638182 
L 455.746603 111.158 
L 455.937691 111.638182 
L 464.536686 111.638182 
L 464.727774 110.677818 
L 464.918863 111.638182 
L 465.301041 111.638182 
L 465.492129 108.757091 
L 466.256484 91.470545 
L 466.638662 82.827273 
L 467.403017 66.501091 
L 467.594106 65.060545 
L 471.033704 65.060545 
L 471.224792 64.580364 
L 471.415881 65.060545 
L 472.562414 65.060545 
L 472.753502 64.580364 
L 472.944591 65.060545 
L 473.13568 65.060545 
L 473.326769 63.62 
L 473.517857 65.060545 
L 473.900035 65.060545 
L 474.091124 64.580364 
L 474.282213 64.580364 
L 474.473301 65.060545 
L 475.428745 65.060545 
L 475.619834 64.580364 
L 475.810923 65.060545 
L 476.575278 65.060545 
L 476.766366 64.580364 
L 476.957455 64.580364 
L 477.148544 65.060545 
L 477.530721 65.060545 
L 477.72181 64.580364 
L 477.912899 65.060545 
L 480.970319 65.060545 
L 481.161408 63.62 
L 481.352497 65.060545 
L 481.543585 65.060545 
L 481.734674 64.580364 
L 481.925763 65.060545 
L 482.499029 65.060545 
L 482.690118 64.580364 
L 482.881207 64.580364 
L 483.072296 65.060545 
L 483.263384 65.060545 
L 483.454473 64.580364 
L 483.645562 65.060545 
L 483.836651 64.580364 
L 484.027739 64.580364 
L 484.218828 65.060545 
L 485.747538 65.060545 
L 485.938627 64.580364 
L 486.129716 65.060545 
L 486.320805 64.580364 
L 486.511893 64.580364 
L 486.702982 65.060545 
L 486.894071 65.060545 
L 487.08516 64.580364 
L 487.276248 65.060545 
L 487.467337 65.060545 
L 487.658426 64.580364 
L 487.849515 65.060545 
L 488.040603 65.060545 
L 488.231692 64.580364 
L 488.422781 65.060545 
L 493.2 65.060545 
L 493.2 65.060545 
" clip-path="url(#pfee6427b11)" style="fill: none; stroke: #1f77b4; stroke-width: 1.5; stroke-linecap: square"/>
   </g>
   <g id="line2d_12">
    <path d="M 56.18 63.62 
L 493.2 63.62 
" clip-path="url(#pfee6427b11)" style="fill: none; stroke-dasharray: 2.96,1.28; stroke-dashoffset: 0; stroke: #808080; stroke-width: 0.8"/>
   </g>
   <g id="patch_3">
    <path d="M 56.18 116.44 
L 56.18 10.8 
" style="fill: none; stroke: #000000; stroke-width: 0.8; stroke-linejoin: miter; stroke-linecap: square"/>
   </g>
   <g id="patch_4">
    <path d="M 56.18 116.44 
L 493.2 116.44 
" style="fill: none; stroke: #000000; stroke-width: 0.8; stroke-linejoin: miter; stroke-linecap: square"/>
   </g>
  </g>
  <g id="axes_2">
   <g id="patch_5">
    <path d="M 56.18 264.04 
L 493.2 264.04 
L 493.2 158.4 
L 56.18 158.4 
z
" style="fill: #ffffff"/>
   </g>
   <g id="matplotlib.axis_3">
    <g id="xtick_6">
     <g id="line2d_13">
      <g>
       <use xlink:href="#mff3cd356ea" x="56.18" y="264.04" style="stroke: #000000; stroke-width: 0.8"/>
      </g>
     </g>
     <g id="text_13">
      <!-- 0 -->
      <g transform="translate(52.99875 278.638438) scale(0.1 -0.1)">
       <use xlink:href="#DejaVuSans-30"/>
      </g>
     </g>
    </g>
    <g id="xtick_7">
     <g id="line2d_14">
      <g>
       <use xlink:href="#mff3cd356ea" x="151.724381" y="264.04" style="stroke: #000000; stroke-width: 0.8"/>
      </g>
     </g>
     <g id="text_14">
      <!-- 5000 -->
      <g transform="translate(138.999381 278.638438) scale(0.1 -0.1)">
       <use xlink:href="#DejaVuSans-35"/>
       <use xlink:href="#DejaVuSans-30" x="63.623047"/>
       <use xlink:href="#DejaVuSans-30" x="127.246094"/>
       <use xlink:href="#DejaVuSans-30" x="190.869141"/>
      </g>
     </g>
    </g>
    <g id="xtick_8">
     <g id="line2d_15">
      <g>
       <use xlink:href="#mff3cd356ea" x="247.268763" y="264.04" style="stroke: #000000; stroke-width: 0.8"/>
      </g>
     </g>
     <g id="text_15">
      <!-- 10000 -->
      <g transform="translate(231.362513 278.638438) scale(0.1 -0.1)">
       <use xlink:href="#DejaVuSans-31"/>
       <use xlink:href="#DejaVuSans-30" x="63.623047"/>
       <use xlink:href="#DejaVuSans-30" x="127.246094"/>
       <use xlink:href="#DejaVuSans-30" x="190.869141"/>
       <use xlink:href="#DejaVuSans-30" x="254.492188"/>
      </g>
     </g>
    </g>
    <g id="xtick_9">
     <g id="line2d_16">
      <g>
       <use xlink:href="#mff3cd356ea" x="342.813144" y="264.04" style="stroke: #000000; stroke-width: 0.8"/>
      </g>
     </g>
     <g id="text_16">
      <!-- 15000 -->
      <g transform="translate(326.906894 278.638438) scale(0.1 -0.1)">
       <use xlink:href="#DejaVuSans-31"/>
       <use xlink:href="#DejaVuSans-35" x="63.623047"/>
       <use xlink:href="#DejaVuSans-30" x="127.246094"/>
       <use xlink:href="#DejaVuSans-30" x="190.869141"/>
       <use xlink:href="#DejaVuSans-30" x="254.492188"/>
      </g>
     </g>
    </g>
    <g id="xtick_10">
     <g id="line2d_17">
      <g>
       <use xlink:href="#mff3cd356ea" x="438.357525" y="264.04" style="stroke: #000000; stroke-width: 0.8"/>
      </g>
     </g>
     <g id="text_17">
      <!-- 20000 -->
      <g transform="translate(422.451275 278.638438) scale(0.1 -0.1)">
       <use xlink:href="#DejaVuSans-32"/>
       <use xlink:href="#DejaVuSans-30" x="63.623047"/>
       <use xlink:href="#DejaVuSans-30" x="127.246094"/>
       <use xlink:href="#DejaVuSans-30" x="190.869141"/>
       <use xlink:href="#DejaVuSans-30" x="254.492188"/>
      </g>
     </g>
    </g>
    <g id="text_18">
     <!-- Time (ms) -->
     <g transform="translate(249.490781 292.316563) scale(0.1 -0.1)">
      <use xlink:href="#DejaVuSans-54"/>
      <use xlink:href="#DejaVuSans-69" x="57.958984"/>
      <use xlink:href="#DejaVuSans-6d" x="85.742188"/>
      <use xlink:href="#DejaVuSans-65" x="183.154297"/>
      <use xlink:href="#DejaVuSans-20" x="244.677734"/>
      <use xlink:href="#DejaVuSans-28" x="276.464844"/>
      <use xlink:href="#DejaVuSans-6d" x="315.478516"/>
      <use xlink:href="#DejaVuSans-73" x="412.890625"/>
      <use xlink:href="#DejaVuSans-29" x="464.990234"/>
     </g>
    </g>
   </g>
   <g id="matplotlib.axis_4">
    <g id="ytick_6">
     <g id="line2d_18">
      <g>
       <use xlink:href="#md92d75dff1" x="56.18" y="259.238182" style="stroke: #000000; stroke-width: 0.8"/>
      </g>
     </g>
     <g id="text_19">
      <!-- −1.0 -->
      <g transform="translate(24.897188 263.037401) scale(0.1 -0.1)">
       <use xlink:href="#DejaVuSans-2212"/>
       <use xlink:href="#DejaVuSans-31" x="83.789062"/>
       <use xlink:href="#DejaVuSans-2e" x="147.412109"/>
       <use xlink:href="#DejaVuSans-30" x="179.199219"/>
      </g>
     </g>
    </g>
    <g id="ytick_7">
     <g id="line2d_19">
      <g>
       <use xlink:href="#md92d75dff1" x="56.18" y="235.229091" style="stroke: #000000; stroke-width: 0.8"/>
      </g>
     </g>
     <g id="text_20">
      <!-- −0.5 -->
      <g transform="translate(24.897188 239.02831) scale(0.1 -0.1)">
       <use xlink:href="#DejaVuSans-2212"/>
       <use xlink:href="#DejaVuSans-30" x="83.789062"/>
       <use xlink:href="#DejaVuSans-2e" x="147.412109"/>
       <use xlink:href="#DejaVuSans-35" x="179.199219"/>
      </g>
     </g>
    </g>
    <g id="ytick_8">
     <g id="line2d_20">
      <g>
       <use xlink:href="#md92d75dff1" x="56.18" y="211.22" style="stroke: #000000; stroke-width: 0.8"/>
      </g>
     </g>
     <g id="text_21">
      <!-- 0.0 -->
      <g transform="translate(33.276875 215.019219) scale(0.1 -0.1)">
       <use xlink:href="#DejaVuSans-30"/>
       <use xlink:href="#DejaVuSans-2e" x="63.623047"/>
       <use xlink:href="#DejaVuSans-30" x="95.410156"/>
      </g>
     </g>
    </g>
    <g id="ytick_9">
     <g id="line2d_21">
      <g>
       <use xlink:href="#md92d75dff1" x="56.18" y="187.210909" style="stroke: #000000; stroke-width: 0.8"/>
      </g>
     </g>
     <g id="text_22">
      <!-- 0.5 -->
      <g transform="translate(33.276875 191.010128) scale(0.1 -0.1)">
       <use xlink:href="#DejaVuSans-30"/>
       <use xlink:href="#DejaVuSans-2e" x="63.623047"/>
       <use xlink:href="#DejaVuSans-35" x="95.410156"/>
      </g>
     </g>
    </g>
    <g id="ytick_10">
     <g id="line2d_22">
      <g>
       <use xlink:href="#md92d75dff1" x="56.18" y="163.201818" style="stroke: #000000; stroke-width: 0.8"/>
      </g>
     </g>
     <g id="text_23">
      <!-- 1.0 -->
      <g transform="translate(33.276875 167.001037) scale(0.1 -0.1)">
       <use xlink:href="#DejaVuSans-31"/>
       <use xlink:href="#DejaVuSans-2e" x="63.623047"/>
       <use xlink:href="#DejaVuSans-30" x="95.410156"/>
      </g>
     </g>
    </g>
    <g id="text_24">
     <!-- Y-Axis Value -->
     <g transform="translate(18.8175 241.065313) rotate(-90) scale(0.1 -0.1)">
      <defs>
       <path id="DejaVuSans-59" d="M -13 4666 
L 666 4666 
L 1959 2747 
L 3244 4666 
L 3922 4666 
L 2272 2222 
L 2272 0 
L 1638 0 
L 1638 2222 
L -13 4666 
z
" transform="scale(0.015625)"/>
      </defs>
      <use xlink:href="#DejaVuSans-59"/>
      <use xlink:href="#DejaVuSans-2d" x="49.208984"/>
      <use xlink:href="#DejaVuSans-41" x="83.042969"/>
      <use xlink:href="#DejaVuSans-78" x="151.451172"/>
      <use xlink:href="#DejaVuSans-69" x="210.630859"/>
      <use xlink:href="#DejaVuSans-73" x="238.414062"/>
      <use xlink:href="#DejaVuSans-20" x="290.513672"/>
      <use xlink:href="#DejaVuSans-56" x="322.300781"/>
      <use xlink:href="#DejaVuSans-61" x="382.958984"/>
      <use xlink:href="#DejaVuSans-6c" x="444.238281"/>
      <use xlink:href="#DejaVuSans-75" x="472.021484"/>
      <use xlink:href="#DejaVuSans-65" x="535.400391"/>
     </g>
    </g>
   </g>
   <g id="line2d_23">
    <path d="M 56.18 209.779455 
L 63.441373 209.779455 
L 63.632462 208.819091 
L 63.823551 209.779455 
L 70.702746 209.779455 
L 70.893835 210.739818 
L 71.084923 209.779455 
L 80.639362 209.779455 
L 80.83045 210.259636 
L 81.021539 209.779455 
L 81.212628 209.779455 
L 81.403717 210.259636 
L 81.594805 209.779455 
L 89.238356 209.779455 
L 89.811622 197.774909 
L 91.149244 171.364909 
L 91.340332 164.642364 
L 91.72251 163.201818 
L 91.913599 163.682 
L 93.060131 163.682 
L 93.25122 163.201818 
L 93.442309 163.682 
L 94.206664 163.682 
L 94.397753 164.162182 
L 94.588841 163.682 
L 98.028439 163.682 
L 98.219528 163.201818 
L 98.410617 163.682 
L 98.601705 163.201818 
L 98.792794 163.201818 
L 98.983883 163.682 
L 99.174972 163.682 
L 99.36606 163.201818 
L 99.557149 163.201818 
L 99.748238 163.682 
L 100.130415 163.682 
L 100.321504 163.201818 
L 100.512593 163.201818 
L 100.703682 163.682 
L 102.041303 163.682 
L 102.232392 163.201818 
L 102.423481 163.682 
L 102.614569 163.201818 
L 102.805658 163.201818 
L 102.996747 163.682 
L 103.187836 163.682 
L 103.378924 164.642364 
L 103.570013 163.682 
L 105.480901 163.682 
L 105.67199 164.162182 
L 105.863078 163.682 
L 106.245256 163.682 
L 106.436345 163.201818 
L 106.627433 163.682 
L 108.538321 163.682 
L 108.72941 163.201818 
L 108.920498 163.682 
L 110.449209 163.682 
L 110.640297 163.201818 
L 110.831386 163.201818 
L 111.022475 163.682 
L 111.213564 163.201818 
L 111.404652 163.682 
L 111.595741 163.201818 
L 112.169007 163.201818 
L 112.360096 163.682 
L 112.551185 163.201818 
L 112.742274 163.682 
L 113.888806 163.682 
L 114.079895 163.201818 
L 114.270984 163.682 
L 116.37296 163.682 
L 116.755138 167.043273 
L 117.137315 172.325273 
L 117.90167 176.646909 
L 118.474937 186.730727 
L 119.048203 197.774909 
L 119.621469 202.096545 
L 120.385824 204.017273 
L 120.768002 205.938 
L 121.150179 209.779455 
L 129.749174 209.779455 
L 129.940262 210.259636 
L 130.131351 209.779455 
L 131.277884 209.779455 
L 131.468972 208.819091 
L 131.660061 209.779455 
L 141.978854 209.779455 
L 142.169943 208.819091 
L 143.698653 175.686545 
L 143.889742 174.246 
L 144.654097 164.162182 
L 144.845186 163.682 
L 147.138251 163.682 
L 147.32934 164.162182 
L 147.520429 163.682 
L 147.902606 163.682 
L 148.093695 163.201818 
L 148.284784 163.201818 
L 148.475872 163.682 
L 148.666961 163.201818 
L 148.85805 163.682 
L 149.049139 163.201818 
L 149.240227 163.682 
L 149.431316 163.201818 
L 149.622405 163.682 
L 149.813494 163.201818 
L 150.004582 163.682 
L 150.195671 163.201818 
L 150.38676 163.682 
L 151.533293 163.682 
L 151.724381 163.201818 
L 151.91547 163.682 
L 152.488736 163.682 
L 152.679825 163.201818 
L 152.870914 163.682 
L 153.253091 163.682 
L 153.44418 163.201818 
L 153.635269 163.682 
L 158.221399 163.682 
L 158.412488 164.162182 
L 158.603577 163.682 
L 160.323376 163.682 
L 160.514464 163.201818 
L 160.705553 163.682 
L 160.896642 163.201818 
L 161.278819 163.201818 
L 161.469908 163.682 
L 161.660997 163.201818 
L 161.852086 163.682 
L 162.998618 163.682 
L 163.189707 163.201818 
L 163.380796 163.682 
L 163.762973 163.682 
L 163.954062 163.201818 
L 164.145151 163.682 
L 164.909506 163.682 
L 165.100595 163.201818 
L 165.291683 163.201818 
L 165.482772 163.682 
L 165.86495 163.682 
L 166.056038 163.201818 
L 166.247127 163.682 
L 167.39366 163.682 
L 167.584749 163.201818 
L 167.775837 163.682 
L 167.966926 163.682 
L 168.158015 166.082909 
L 168.540192 174.246 
L 168.731281 176.646909 
L 169.304547 189.131636 
L 170.068902 203.056909 
L 170.642169 207.858727 
L 170.833258 209.779455 
L 176.948098 209.779455 
L 177.139187 209.299273 
L 177.330275 209.779455 
L 180.960962 209.779455 
L 181.152051 210.259636 
L 181.343139 209.779455 
L 183.636205 209.779455 
L 183.827293 210.259636 
L 184.018382 209.779455 
L 192.808465 209.779455 
L 192.999554 210.259636 
L 193.190643 209.779455 
L 195.674797 209.779455 
L 195.865885 210.259636 
L 196.056974 209.779455 
L 206.949034 209.779455 
L 207.140122 209.299273 
L 207.331211 209.779455 
L 208.859921 209.779455 
L 209.05101 210.259636 
L 209.242099 209.779455 
L 214.210407 209.779455 
L 214.401495 209.299273 
L 214.592584 209.779455 
L 218.032182 209.779455 
L 218.223271 210.259636 
L 218.414359 209.779455 
L 225.675732 209.779455 
L 225.866821 211.22 
L 226.05791 209.779455 
L 228.350975 209.779455 
L 228.542064 210.259636 
L 228.733153 209.779455 
L 240.198478 209.779455 
L 240.389567 209.299273 
L 240.580656 210.259636 
L 240.771745 209.779455 
L 242.300455 209.779455 
L 242.491544 212.180364 
L 242.873721 221.303818 
L 244.784609 258.277818 
L 244.975697 259.238182 
L 267.524171 259.238182 
L 267.71526 258.758 
L 268.861793 248.194 
L 269.817237 242.912 
L 270.008325 240.991273 
L 270.199414 240.511091 
L 270.390503 238.590364 
L 270.581592 238.110182 
L 271.154858 234.268727 
L 271.345947 233.308364 
L 272.492479 222.264182 
L 273.065746 219.383091 
L 274.021189 209.779455 
L 275.549899 209.779455 
L 275.740988 208.819091 
L 275.932077 209.779455 
L 276.887521 209.779455 
L 277.07861 210.259636 
L 277.269698 209.779455 
L 281.282562 209.779455 
L 281.473651 210.259636 
L 281.66474 209.779455 
L 288.352847 209.779455 
L 288.543935 210.259636 
L 288.735024 209.779455 
L 292.365711 209.779455 
L 292.556799 212.180364 
L 293.321154 235.709273 
L 294.276598 259.238182 
L 296.760752 259.238182 
L 296.951841 258.758 
L 297.14293 259.238182 
L 298.862728 259.238182 
L 299.053817 258.758 
L 299.244906 259.238182 
L 304.78648 259.238182 
L 304.977569 258.758 
L 305.168658 259.238182 
L 306.888456 259.238182 
L 307.079545 258.758 
L 307.270634 259.238182 
L 318.162693 259.238182 
L 318.353782 258.758 
L 318.544871 259.238182 
L 321.411202 259.238182 
L 321.602291 258.758 
L 322.366646 248.194 
L 322.939913 236.669636 
L 323.513179 220.343455 
L 324.086445 212.180364 
L 324.468623 209.779455 
L 328.672575 209.779455 
L 328.863664 210.259636 
L 329.054753 209.779455 
L 336.698303 209.779455 
L 336.889392 210.259636 
L 337.080481 209.779455 
L 339.373546 209.779455 
L 339.564635 210.739818 
L 339.755724 209.779455 
L 343.195321 209.779455 
L 343.38641 211.22 
L 343.768588 223.704727 
L 344.91512 247.713818 
L 345.679475 259.238182 
L 368.227949 259.238182 
L 368.419038 258.758 
L 368.610127 259.238182 
L 368.992304 259.238182 
L 369.183393 258.758 
L 369.947748 248.674182 
L 370.329926 245.312909 
L 370.903192 239.550727 
L 371.667547 228.026364 
L 372.049725 225.145273 
L 372.81408 220.823636 
L 373.196257 215.061455 
L 373.578435 210.259636 
L 373.769523 210.259636 
L 373.960612 209.779455 
L 381.604163 209.779455 
L 381.795251 210.259636 
L 381.98634 209.779455 
L 386.190293 209.779455 
L 386.381382 209.299273 
L 386.57247 209.779455 
L 393.260577 209.779455 
L 393.451666 210.259636 
L 393.642755 209.779455 
L 396.509086 209.779455 
L 396.700175 210.259636 
L 396.891264 209.779455 
L 410.267477 209.779455 
L 410.458566 209.299273 
L 410.649655 209.779455 
L 413.707075 209.779455 
L 413.898164 210.259636 
L 414.089252 209.779455 
L 420.013004 209.779455 
L 420.204093 210.259636 
L 420.395181 209.779455 
L 422.688247 209.779455 
L 422.879335 210.259636 
L 423.070424 209.779455 
L 439.12188 209.779455 
L 439.312969 210.259636 
L 439.504058 209.779455 
L 441.223857 209.779455 
L 441.414945 208.819091 
L 441.988212 197.774909 
L 442.370389 190.572182 
L 443.134744 175.686545 
L 443.325833 174.246 
L 443.70801 164.162182 
L 443.899099 163.682 
L 445.618898 163.682 
L 445.809987 163.201818 
L 446.383253 163.201818 
L 446.574342 163.682 
L 448.48523 163.682 
L 448.676318 163.201818 
L 448.867407 163.682 
L 449.440673 163.682 
L 449.631762 163.201818 
L 449.822851 163.201818 
L 450.01394 163.682 
L 452.880271 163.682 
L 453.07136 164.162182 
L 453.262449 163.682 
L 456.12878 163.682 
L 456.319869 163.201818 
L 456.510958 165.602727 
L 456.702046 163.682 
L 457.466401 163.682 
L 457.65749 163.201818 
L 457.848579 163.682 
L 458.421845 163.682 
L 458.612934 163.201818 
L 458.804023 163.682 
L 459.568378 163.682 
L 459.759467 163.201818 
L 459.950555 163.682 
L 461.097088 163.682 
L 461.288177 163.201818 
L 461.479265 163.682 
L 461.670354 163.682 
L 461.861443 163.201818 
L 462.052532 163.682 
L 462.625798 163.682 
L 462.816887 163.201818 
L 463.007976 163.682 
L 463.199064 163.201818 
L 463.390153 163.682 
L 465.492129 163.682 
L 465.683218 167.043273 
L 465.874307 173.285636 
L 466.065396 175.206364 
L 467.403017 209.779455 
L 470.269348 209.779455 
L 470.460437 209.299273 
L 470.651526 209.779455 
L 472.944591 209.779455 
L 473.13568 210.259636 
L 473.326769 209.779455 
L 473.708946 209.779455 
L 473.900035 209.299273 
L 474.091124 209.779455 
L 477.339633 209.779455 
L 477.530721 211.22 
L 477.72181 209.779455 
L 481.925763 209.779455 
L 482.116852 210.739818 
L 482.307941 209.779455 
L 493.008911 209.779455 
L 493.2 209.299273 
L 493.2 209.299273 
" clip-path="url(#pa68e593e67)" style="fill: none; stroke: #1f77b4; stroke-width: 1.5; stroke-linecap: square"/>
   </g>
   <g id="line2d_24">
    <path d="M 56.18 211.22 
L 493.2 211.22 
" clip-path="url(#pa68e593e67)" style="fill: none; stroke-dasharray: 2.96,1.28; stroke-dashoffset: 0; stroke: #808080; stroke-width: 0.8"/>
   </g>
   <g id="patch_6">
    <path d="M 56.18 264.04 
L 56.18 158.4 
" style="fill: none; stroke: #000000; stroke-width: 0.8; stroke-linejoin: miter; stroke-linecap: square"/>
   </g>
   <g id="patch_7">
    <path d="M 56.18 264.04 
L 493.2 264.04 
" style="fill: none; stroke: #000000; stroke-width: 0.8; stroke-linejoin: miter; stroke-linecap: square"/>
   </g>
  </g>
 </g>
 <defs>
  <clipPath id="pfee6427b11">
   <rect x="56.18" y="10.8" width="437.02" height="105.64"/>
  </clipPath>
  <clipPath id="pa68e593e67">
   <rect x="56.18" y="158.4" width="437.02" height="105.64"/>
  </clipPath>
 </defs>
</svg>
