<?xml version="1.0" encoding="utf-8" standalone="no"?>
<!DOCTYPE svg PUBLIC "-//W3C//DTD SVG 1.1//EN"
  "http://www.w3.org/Graphics/SVG/1.1/DTD/svg11.dtd">
<svg xmlns:xlink="http://www.w3.org/1999/xlink" width="504pt" height="306pt" viewBox="0 0 504 306" xmlns="http://www.w3.org/2000/svg" version="1.1">
 <metadata>
  <rdf:RDF xmlns:dc="http://purl.org/dc/elements/1.1/" xmlns:cc="http://creativecommons.org/ns#" xmlns:rdf="http://www.w3.org/1999/02/22-rdf-syntax-ns#">
   <cc:Work>
    <dc:type rdf:resource="http://purl.org/dc/dcmitype/StillImage"/>
    <dc:date>2024-06-16T22:16:24.407542</dc:date>
    <dc:format>image/svg+xml</dc:format>
    <dc:creator>
     <cc:Agent>
      <dc:title>Matplotlib v3.8.3, https://matplotlib.org/</dc:title>
     </cc:Agent>
    </dc:creator>
   </cc:Work>
  </rdf:RDF>
 </metadata>
 <defs>
  <style type="text/css">*{stroke-linejoin: round; stroke-linecap: butt}</style>
 </defs>
 <g id="figure_1">
  <g id="patch_1">
   <path d="M 0 306 
L 504 306 
L 504 0 
L 0 0 
z
" style="fill: #ffffff"/>
  </g>
  <g id="axes_1">
   <g id="patch_2">
    <path d="M 56.18 116.44 
L 493.2 116.44 
L 493.2 10.8 
L 56.18 10.8 
z
" style="fill: #ffffff"/>
   </g>
   <g id="matplotlib.axis_1">
    <g id="xtick_1">
     <g id="line2d_1">
      <defs>
       <path id="m45d76cc71b" d="M 0 0 
L 0 3.5 
" style="stroke: #000000; stroke-width: 0.8"/>
      </defs>
      <g>
       <use xlink:href="#m45d76cc71b" x="56.18" y="116.44" style="stroke: #000000; stroke-width: 0.8"/>
      </g>
     </g>
     <g id="text_1">
      <!-- 0 -->
      <g transform="translate(52.99875 131.038437) scale(0.1 -0.1)">
       <defs>
        <path id="DejaVuSans-30" d="M 2034 4250 
Q 1547 4250 1301 3770 
Q 1056 3291 1056 2328 
Q 1056 1369 1301 889 
Q 1547 409 2034 409 
Q 2525 409 2770 889 
Q 3016 1369 3016 2328 
Q 3016 3291 2770 3770 
Q 2525 4250 2034 4250 
z
M 2034 4750 
Q 2819 4750 3233 4129 
Q 3647 3509 3647 2328 
Q 3647 1150 3233 529 
Q 2819 -91 2034 -91 
Q 1250 -91 836 529 
Q 422 1150 422 2328 
Q 422 3509 836 4129 
Q 1250 4750 2034 4750 
z
" transform="scale(0.015625)"/>
       </defs>
       <use xlink:href="#DejaVuSans-30"/>
      </g>
     </g>
    </g>
    <g id="xtick_2">
     <g id="line2d_2">
      <g>
       <use xlink:href="#m45d76cc71b" x="105.505056" y="116.44" style="stroke: #000000; stroke-width: 0.8"/>
      </g>
     </g>
     <g id="text_2">
      <!-- 1000 -->
      <g transform="translate(92.780056 131.038437) scale(0.1 -0.1)">
       <defs>
        <path id="DejaVuSans-31" d="M 794 531 
L 1825 531 
L 1825 4091 
L 703 3866 
L 703 4441 
L 1819 4666 
L 2450 4666 
L 2450 531 
L 3481 531 
L 3481 0 
L 794 0 
L 794 531 
z
" transform="scale(0.015625)"/>
       </defs>
       <use xlink:href="#DejaVuSans-31"/>
       <use xlink:href="#DejaVuSans-30" x="63.623047"/>
       <use xlink:href="#DejaVuSans-30" x="127.246094"/>
       <use xlink:href="#DejaVuSans-30" x="190.869141"/>
      </g>
     </g>
    </g>
    <g id="xtick_3">
     <g id="line2d_3">
      <g>
       <use xlink:href="#m45d76cc71b" x="154.830113" y="116.44" style="stroke: #000000; stroke-width: 0.8"/>
      </g>
     </g>
     <g id="text_3">
      <!-- 2000 -->
      <g transform="translate(142.105113 131.038437) scale(0.1 -0.1)">
       <defs>
        <path id="DejaVuSans-32" d="M 1228 531 
L 3431 531 
L 3431 0 
L 469 0 
L 469 531 
Q 828 903 1448 1529 
Q 2069 2156 2228 2338 
Q 2531 2678 2651 2914 
Q 2772 3150 2772 3378 
Q 2772 3750 2511 3984 
Q 2250 4219 1831 4219 
Q 1534 4219 1204 4116 
Q 875 4013 500 3803 
L 500 4441 
Q 881 4594 1212 4672 
Q 1544 4750 1819 4750 
Q 2544 4750 2975 4387 
Q 3406 4025 3406 3419 
Q 3406 3131 3298 2873 
Q 3191 2616 2906 2266 
Q 2828 2175 2409 1742 
Q 1991 1309 1228 531 
z
" transform="scale(0.015625)"/>
       </defs>
       <use xlink:href="#DejaVuSans-32"/>
       <use xlink:href="#DejaVuSans-30" x="63.623047"/>
       <use xlink:href="#DejaVuSans-30" x="127.246094"/>
       <use xlink:href="#DejaVuSans-30" x="190.869141"/>
      </g>
     </g>
    </g>
    <g id="xtick_4">
     <g id="line2d_4">
      <g>
       <use xlink:href="#m45d76cc71b" x="204.155169" y="116.44" style="stroke: #000000; stroke-width: 0.8"/>
      </g>
     </g>
     <g id="text_4">
      <!-- 3000 -->
      <g transform="translate(191.430169 131.038437) scale(0.1 -0.1)">
       <defs>
        <path id="DejaVuSans-33" d="M 2597 2516 
Q 3050 2419 3304 2112 
Q 3559 1806 3559 1356 
Q 3559 666 3084 287 
Q 2609 -91 1734 -91 
Q 1441 -91 1130 -33 
Q 819 25 488 141 
L 488 750 
Q 750 597 1062 519 
Q 1375 441 1716 441 
Q 2309 441 2620 675 
Q 2931 909 2931 1356 
Q 2931 1769 2642 2001 
Q 2353 2234 1838 2234 
L 1294 2234 
L 1294 2753 
L 1863 2753 
Q 2328 2753 2575 2939 
Q 2822 3125 2822 3475 
Q 2822 3834 2567 4026 
Q 2313 4219 1838 4219 
Q 1578 4219 1281 4162 
Q 984 4106 628 3988 
L 628 4550 
Q 988 4650 1302 4700 
Q 1616 4750 1894 4750 
Q 2613 4750 3031 4423 
Q 3450 4097 3450 3541 
Q 3450 3153 3228 2886 
Q 3006 2619 2597 2516 
z
" transform="scale(0.015625)"/>
       </defs>
       <use xlink:href="#DejaVuSans-33"/>
       <use xlink:href="#DejaVuSans-30" x="63.623047"/>
       <use xlink:href="#DejaVuSans-30" x="127.246094"/>
       <use xlink:href="#DejaVuSans-30" x="190.869141"/>
      </g>
     </g>
    </g>
    <g id="xtick_5">
     <g id="line2d_5">
      <g>
       <use xlink:href="#m45d76cc71b" x="253.480226" y="116.44" style="stroke: #000000; stroke-width: 0.8"/>
      </g>
     </g>
     <g id="text_5">
      <!-- 4000 -->
      <g transform="translate(240.755226 131.038437) scale(0.1 -0.1)">
       <defs>
        <path id="DejaVuSans-34" d="M 2419 4116 
L 825 1625 
L 2419 1625 
L 2419 4116 
z
M 2253 4666 
L 3047 4666 
L 3047 1625 
L 3713 1625 
L 3713 1100 
L 3047 1100 
L 3047 0 
L 2419 0 
L 2419 1100 
L 313 1100 
L 313 1709 
L 2253 4666 
z
" transform="scale(0.015625)"/>
       </defs>
       <use xlink:href="#DejaVuSans-34"/>
       <use xlink:href="#DejaVuSans-30" x="63.623047"/>
       <use xlink:href="#DejaVuSans-30" x="127.246094"/>
       <use xlink:href="#DejaVuSans-30" x="190.869141"/>
      </g>
     </g>
    </g>
    <g id="xtick_6">
     <g id="line2d_6">
      <g>
       <use xlink:href="#m45d76cc71b" x="302.805282" y="116.44" style="stroke: #000000; stroke-width: 0.8"/>
      </g>
     </g>
     <g id="text_6">
      <!-- 5000 -->
      <g transform="translate(290.080282 131.038437) scale(0.1 -0.1)">
       <defs>
        <path id="DejaVuSans-35" d="M 691 4666 
L 3169 4666 
L 3169 4134 
L 1269 4134 
L 1269 2991 
Q 1406 3038 1543 3061 
Q 1681 3084 1819 3084 
Q 2600 3084 3056 2656 
Q 3513 2228 3513 1497 
Q 3513 744 3044 326 
Q 2575 -91 1722 -91 
Q 1428 -91 1123 -41 
Q 819 9 494 109 
L 494 744 
Q 775 591 1075 516 
Q 1375 441 1709 441 
Q 2250 441 2565 725 
Q 2881 1009 2881 1497 
Q 2881 1984 2565 2268 
Q 2250 2553 1709 2553 
Q 1456 2553 1204 2497 
Q 953 2441 691 2322 
L 691 4666 
z
" transform="scale(0.015625)"/>
       </defs>
       <use xlink:href="#DejaVuSans-35"/>
       <use xlink:href="#DejaVuSans-30" x="63.623047"/>
       <use xlink:href="#DejaVuSans-30" x="127.246094"/>
       <use xlink:href="#DejaVuSans-30" x="190.869141"/>
      </g>
     </g>
    </g>
    <g id="xtick_7">
     <g id="line2d_7">
      <g>
       <use xlink:href="#m45d76cc71b" x="352.130339" y="116.44" style="stroke: #000000; stroke-width: 0.8"/>
      </g>
     </g>
     <g id="text_7">
      <!-- 6000 -->
      <g transform="translate(339.405339 131.038437) scale(0.1 -0.1)">
       <defs>
        <path id="DejaVuSans-36" d="M 2113 2584 
Q 1688 2584 1439 2293 
Q 1191 2003 1191 1497 
Q 1191 994 1439 701 
Q 1688 409 2113 409 
Q 2538 409 2786 701 
Q 3034 994 3034 1497 
Q 3034 2003 2786 2293 
Q 2538 2584 2113 2584 
z
M 3366 4563 
L 3366 3988 
Q 3128 4100 2886 4159 
Q 2644 4219 2406 4219 
Q 1781 4219 1451 3797 
Q 1122 3375 1075 2522 
Q 1259 2794 1537 2939 
Q 1816 3084 2150 3084 
Q 2853 3084 3261 2657 
Q 3669 2231 3669 1497 
Q 3669 778 3244 343 
Q 2819 -91 2113 -91 
Q 1303 -91 875 529 
Q 447 1150 447 2328 
Q 447 3434 972 4092 
Q 1497 4750 2381 4750 
Q 2619 4750 2861 4703 
Q 3103 4656 3366 4563 
z
" transform="scale(0.015625)"/>
       </defs>
       <use xlink:href="#DejaVuSans-36"/>
       <use xlink:href="#DejaVuSans-30" x="63.623047"/>
       <use xlink:href="#DejaVuSans-30" x="127.246094"/>
       <use xlink:href="#DejaVuSans-30" x="190.869141"/>
      </g>
     </g>
    </g>
    <g id="xtick_8">
     <g id="line2d_8">
      <g>
       <use xlink:href="#m45d76cc71b" x="401.455395" y="116.44" style="stroke: #000000; stroke-width: 0.8"/>
      </g>
     </g>
     <g id="text_8">
      <!-- 7000 -->
      <g transform="translate(388.730395 131.038437) scale(0.1 -0.1)">
       <defs>
        <path id="DejaVuSans-37" d="M 525 4666 
L 3525 4666 
L 3525 4397 
L 1831 0 
L 1172 0 
L 2766 4134 
L 525 4134 
L 525 4666 
z
" transform="scale(0.015625)"/>
       </defs>
       <use xlink:href="#DejaVuSans-37"/>
       <use xlink:href="#DejaVuSans-30" x="63.623047"/>
       <use xlink:href="#DejaVuSans-30" x="127.246094"/>
       <use xlink:href="#DejaVuSans-30" x="190.869141"/>
      </g>
     </g>
    </g>
    <g id="xtick_9">
     <g id="line2d_9">
      <g>
       <use xlink:href="#m45d76cc71b" x="450.780451" y="116.44" style="stroke: #000000; stroke-width: 0.8"/>
      </g>
     </g>
     <g id="text_9">
      <!-- 8000 -->
      <g transform="translate(438.055451 131.038437) scale(0.1 -0.1)">
       <defs>
        <path id="DejaVuSans-38" d="M 2034 2216 
Q 1584 2216 1326 1975 
Q 1069 1734 1069 1313 
Q 1069 891 1326 650 
Q 1584 409 2034 409 
Q 2484 409 2743 651 
Q 3003 894 3003 1313 
Q 3003 1734 2745 1975 
Q 2488 2216 2034 2216 
z
M 1403 2484 
Q 997 2584 770 2862 
Q 544 3141 544 3541 
Q 544 4100 942 4425 
Q 1341 4750 2034 4750 
Q 2731 4750 3128 4425 
Q 3525 4100 3525 3541 
Q 3525 3141 3298 2862 
Q 3072 2584 2669 2484 
Q 3125 2378 3379 2068 
Q 3634 1759 3634 1313 
Q 3634 634 3220 271 
Q 2806 -91 2034 -91 
Q 1263 -91 848 271 
Q 434 634 434 1313 
Q 434 1759 690 2068 
Q 947 2378 1403 2484 
z
M 1172 3481 
Q 1172 3119 1398 2916 
Q 1625 2713 2034 2713 
Q 2441 2713 2670 2916 
Q 2900 3119 2900 3481 
Q 2900 3844 2670 4047 
Q 2441 4250 2034 4250 
Q 1625 4250 1398 4047 
Q 1172 3844 1172 3481 
z
" transform="scale(0.015625)"/>
       </defs>
       <use xlink:href="#DejaVuSans-38"/>
       <use xlink:href="#DejaVuSans-30" x="63.623047"/>
       <use xlink:href="#DejaVuSans-30" x="127.246094"/>
       <use xlink:href="#DejaVuSans-30" x="190.869141"/>
      </g>
     </g>
    </g>
    <g id="text_10">
     <!-- Time (ms) -->
     <g transform="translate(249.490781 144.716562) scale(0.1 -0.1)">
      <defs>
       <path id="DejaVuSans-54" d="M -19 4666 
L 3928 4666 
L 3928 4134 
L 2272 4134 
L 2272 0 
L 1638 0 
L 1638 4134 
L -19 4134 
L -19 4666 
z
" transform="scale(0.015625)"/>
       <path id="DejaVuSans-69" d="M 603 3500 
L 1178 3500 
L 1178 0 
L 603 0 
L 603 3500 
z
M 603 4863 
L 1178 4863 
L 1178 4134 
L 603 4134 
L 603 4863 
z
" transform="scale(0.015625)"/>
       <path id="DejaVuSans-6d" d="M 3328 2828 
Q 3544 3216 3844 3400 
Q 4144 3584 4550 3584 
Q 5097 3584 5394 3201 
Q 5691 2819 5691 2113 
L 5691 0 
L 5113 0 
L 5113 2094 
Q 5113 2597 4934 2840 
Q 4756 3084 4391 3084 
Q 3944 3084 3684 2787 
Q 3425 2491 3425 1978 
L 3425 0 
L 2847 0 
L 2847 2094 
Q 2847 2600 2669 2842 
Q 2491 3084 2119 3084 
Q 1678 3084 1418 2786 
Q 1159 2488 1159 1978 
L 1159 0 
L 581 0 
L 581 3500 
L 1159 3500 
L 1159 2956 
Q 1356 3278 1631 3431 
Q 1906 3584 2284 3584 
Q 2666 3584 2933 3390 
Q 3200 3197 3328 2828 
z
" transform="scale(0.015625)"/>
       <path id="DejaVuSans-65" d="M 3597 1894 
L 3597 1613 
L 953 1613 
Q 991 1019 1311 708 
Q 1631 397 2203 397 
Q 2534 397 2845 478 
Q 3156 559 3463 722 
L 3463 178 
Q 3153 47 2828 -22 
Q 2503 -91 2169 -91 
Q 1331 -91 842 396 
Q 353 884 353 1716 
Q 353 2575 817 3079 
Q 1281 3584 2069 3584 
Q 2775 3584 3186 3129 
Q 3597 2675 3597 1894 
z
M 3022 2063 
Q 3016 2534 2758 2815 
Q 2500 3097 2075 3097 
Q 1594 3097 1305 2825 
Q 1016 2553 972 2059 
L 3022 2063 
z
" transform="scale(0.015625)"/>
       <path id="DejaVuSans-20" transform="scale(0.015625)"/>
       <path id="DejaVuSans-28" d="M 1984 4856 
Q 1566 4138 1362 3434 
Q 1159 2731 1159 2009 
Q 1159 1288 1364 580 
Q 1569 -128 1984 -844 
L 1484 -844 
Q 1016 -109 783 600 
Q 550 1309 550 2009 
Q 550 2706 781 3412 
Q 1013 4119 1484 4856 
L 1984 4856 
z
" transform="scale(0.015625)"/>
       <path id="DejaVuSans-73" d="M 2834 3397 
L 2834 2853 
Q 2591 2978 2328 3040 
Q 2066 3103 1784 3103 
Q 1356 3103 1142 2972 
Q 928 2841 928 2578 
Q 928 2378 1081 2264 
Q 1234 2150 1697 2047 
L 1894 2003 
Q 2506 1872 2764 1633 
Q 3022 1394 3022 966 
Q 3022 478 2636 193 
Q 2250 -91 1575 -91 
Q 1294 -91 989 -36 
Q 684 19 347 128 
L 347 722 
Q 666 556 975 473 
Q 1284 391 1588 391 
Q 1994 391 2212 530 
Q 2431 669 2431 922 
Q 2431 1156 2273 1281 
Q 2116 1406 1581 1522 
L 1381 1569 
Q 847 1681 609 1914 
Q 372 2147 372 2553 
Q 372 3047 722 3315 
Q 1072 3584 1716 3584 
Q 2034 3584 2315 3537 
Q 2597 3491 2834 3397 
z
" transform="scale(0.015625)"/>
       <path id="DejaVuSans-29" d="M 513 4856 
L 1013 4856 
Q 1481 4119 1714 3412 
Q 1947 2706 1947 2009 
Q 1947 1309 1714 600 
Q 1481 -109 1013 -844 
L 513 -844 
Q 928 -128 1133 580 
Q 1338 1288 1338 2009 
Q 1338 2731 1133 3434 
Q 928 4138 513 4856 
z
" transform="scale(0.015625)"/>
      </defs>
      <use xlink:href="#DejaVuSans-54"/>
      <use xlink:href="#DejaVuSans-69" x="57.958984"/>
      <use xlink:href="#DejaVuSans-6d" x="85.742188"/>
      <use xlink:href="#DejaVuSans-65" x="183.154297"/>
      <use xlink:href="#DejaVuSans-20" x="244.677734"/>
      <use xlink:href="#DejaVuSans-28" x="276.464844"/>
      <use xlink:href="#DejaVuSans-6d" x="315.478516"/>
      <use xlink:href="#DejaVuSans-73" x="412.890625"/>
      <use xlink:href="#DejaVuSans-29" x="464.990234"/>
     </g>
    </g>
   </g>
   <g id="matplotlib.axis_2">
    <g id="ytick_1">
     <g id="line2d_10">
      <defs>
       <path id="mca24320802" d="M 0 0 
L -3.5 0 
" style="stroke: #000000; stroke-width: 0.8"/>
      </defs>
      <g>
       <use xlink:href="#mca24320802" x="56.18" y="111.638182" style="stroke: #000000; stroke-width: 0.8"/>
      </g>
     </g>
     <g id="text_11">
      <!-- −1.0 -->
      <g transform="translate(24.897188 115.437401) scale(0.1 -0.1)">
       <defs>
        <path id="DejaVuSans-2212" d="M 678 2272 
L 4684 2272 
L 4684 1741 
L 678 1741 
L 678 2272 
z
" transform="scale(0.015625)"/>
        <path id="DejaVuSans-2e" d="M 684 794 
L 1344 794 
L 1344 0 
L 684 0 
L 684 794 
z
" transform="scale(0.015625)"/>
       </defs>
       <use xlink:href="#DejaVuSans-2212"/>
       <use xlink:href="#DejaVuSans-31" x="83.789062"/>
       <use xlink:href="#DejaVuSans-2e" x="147.412109"/>
       <use xlink:href="#DejaVuSans-30" x="179.199219"/>
      </g>
     </g>
    </g>
    <g id="ytick_2">
     <g id="line2d_11">
      <g>
       <use xlink:href="#mca24320802" x="56.18" y="87.629091" style="stroke: #000000; stroke-width: 0.8"/>
      </g>
     </g>
     <g id="text_12">
      <!-- −0.5 -->
      <g transform="translate(24.897188 91.42831) scale(0.1 -0.1)">
       <use xlink:href="#DejaVuSans-2212"/>
       <use xlink:href="#DejaVuSans-30" x="83.789062"/>
       <use xlink:href="#DejaVuSans-2e" x="147.412109"/>
       <use xlink:href="#DejaVuSans-35" x="179.199219"/>
      </g>
     </g>
    </g>
    <g id="ytick_3">
     <g id="line2d_12">
      <g>
       <use xlink:href="#mca24320802" x="56.18" y="63.62" style="stroke: #000000; stroke-width: 0.8"/>
      </g>
     </g>
     <g id="text_13">
      <!-- 0.0 -->
      <g transform="translate(33.276875 67.419219) scale(0.1 -0.1)">
       <use xlink:href="#DejaVuSans-30"/>
       <use xlink:href="#DejaVuSans-2e" x="63.623047"/>
       <use xlink:href="#DejaVuSans-30" x="95.410156"/>
      </g>
     </g>
    </g>
    <g id="ytick_4">
     <g id="line2d_13">
      <g>
       <use xlink:href="#mca24320802" x="56.18" y="39.610909" style="stroke: #000000; stroke-width: 0.8"/>
      </g>
     </g>
     <g id="text_14">
      <!-- 0.5 -->
      <g transform="translate(33.276875 43.410128) scale(0.1 -0.1)">
       <use xlink:href="#DejaVuSans-30"/>
       <use xlink:href="#DejaVuSans-2e" x="63.623047"/>
       <use xlink:href="#DejaVuSans-35" x="95.410156"/>
      </g>
     </g>
    </g>
    <g id="ytick_5">
     <g id="line2d_14">
      <g>
       <use xlink:href="#mca24320802" x="56.18" y="15.601818" style="stroke: #000000; stroke-width: 0.8"/>
      </g>
     </g>
     <g id="text_15">
      <!-- 1.0 -->
      <g transform="translate(33.276875 19.401037) scale(0.1 -0.1)">
       <use xlink:href="#DejaVuSans-31"/>
       <use xlink:href="#DejaVuSans-2e" x="63.623047"/>
       <use xlink:href="#DejaVuSans-30" x="95.410156"/>
      </g>
     </g>
    </g>
    <g id="text_16">
     <!-- X-Axis Value -->
     <g transform="translate(18.8175 94.180156) rotate(-90) scale(0.1 -0.1)">
      <defs>
       <path id="DejaVuSans-58" d="M 403 4666 
L 1081 4666 
L 2241 2931 
L 3406 4666 
L 4084 4666 
L 2584 2425 
L 4184 0 
L 3506 0 
L 2194 1984 
L 872 0 
L 191 0 
L 1856 2491 
L 403 4666 
z
" transform="scale(0.015625)"/>
       <path id="DejaVuSans-2d" d="M 313 2009 
L 1997 2009 
L 1997 1497 
L 313 1497 
L 313 2009 
z
" transform="scale(0.015625)"/>
       <path id="DejaVuSans-41" d="M 2188 4044 
L 1331 1722 
L 3047 1722 
L 2188 4044 
z
M 1831 4666 
L 2547 4666 
L 4325 0 
L 3669 0 
L 3244 1197 
L 1141 1197 
L 716 0 
L 50 0 
L 1831 4666 
z
" transform="scale(0.015625)"/>
       <path id="DejaVuSans-78" d="M 3513 3500 
L 2247 1797 
L 3578 0 
L 2900 0 
L 1881 1375 
L 863 0 
L 184 0 
L 1544 1831 
L 300 3500 
L 978 3500 
L 1906 2253 
L 2834 3500 
L 3513 3500 
z
" transform="scale(0.015625)"/>
       <path id="DejaVuSans-56" d="M 1831 0 
L 50 4666 
L 709 4666 
L 2188 738 
L 3669 4666 
L 4325 4666 
L 2547 0 
L 1831 0 
z
" transform="scale(0.015625)"/>
       <path id="DejaVuSans-61" d="M 2194 1759 
Q 1497 1759 1228 1600 
Q 959 1441 959 1056 
Q 959 750 1161 570 
Q 1363 391 1709 391 
Q 2188 391 2477 730 
Q 2766 1069 2766 1631 
L 2766 1759 
L 2194 1759 
z
M 3341 1997 
L 3341 0 
L 2766 0 
L 2766 531 
Q 2569 213 2275 61 
Q 1981 -91 1556 -91 
Q 1019 -91 701 211 
Q 384 513 384 1019 
Q 384 1609 779 1909 
Q 1175 2209 1959 2209 
L 2766 2209 
L 2766 2266 
Q 2766 2663 2505 2880 
Q 2244 3097 1772 3097 
Q 1472 3097 1187 3025 
Q 903 2953 641 2809 
L 641 3341 
Q 956 3463 1253 3523 
Q 1550 3584 1831 3584 
Q 2591 3584 2966 3190 
Q 3341 2797 3341 1997 
z
" transform="scale(0.015625)"/>
       <path id="DejaVuSans-6c" d="M 603 4863 
L 1178 4863 
L 1178 0 
L 603 0 
L 603 4863 
z
" transform="scale(0.015625)"/>
       <path id="DejaVuSans-75" d="M 544 1381 
L 544 3500 
L 1119 3500 
L 1119 1403 
Q 1119 906 1312 657 
Q 1506 409 1894 409 
Q 2359 409 2629 706 
Q 2900 1003 2900 1516 
L 2900 3500 
L 3475 3500 
L 3475 0 
L 2900 0 
L 2900 538 
Q 2691 219 2414 64 
Q 2138 -91 1772 -91 
Q 1169 -91 856 284 
Q 544 659 544 1381 
z
M 1991 3584 
L 1991 3584 
z
" transform="scale(0.015625)"/>
      </defs>
      <use xlink:href="#DejaVuSans-58"/>
      <use xlink:href="#DejaVuSans-2d" x="63.505859"/>
      <use xlink:href="#DejaVuSans-41" x="97.339844"/>
      <use xlink:href="#DejaVuSans-78" x="165.748047"/>
      <use xlink:href="#DejaVuSans-69" x="224.927734"/>
      <use xlink:href="#DejaVuSans-73" x="252.710938"/>
      <use xlink:href="#DejaVuSans-20" x="304.810547"/>
      <use xlink:href="#DejaVuSans-56" x="336.597656"/>
      <use xlink:href="#DejaVuSans-61" x="397.255859"/>
      <use xlink:href="#DejaVuSans-6c" x="458.535156"/>
      <use xlink:href="#DejaVuSans-75" x="486.318359"/>
      <use xlink:href="#DejaVuSans-65" x="549.697266"/>
     </g>
    </g>
   </g>
   <g id="line2d_15">
    <path d="M 56.18 65.540727 
L 124.248578 65.540727 
L 124.741828 65.060545 
L 126.22158 65.060545 
L 126.714831 66.020909 
L 148.911106 66.020909 
L 149.404357 65.060545 
L 149.897607 65.060545 
L 150.884108 64.100182 
L 152.857111 60.258727 
L 155.323363 57.857818 
L 155.816614 57.857818 
L 156.803115 54.976727 
L 157.296366 54.016364 
L 157.789616 52.575818 
L 159.762619 48.734364 
L 160.255869 48.734364 
L 160.74912 47.774 
L 161.24237 47.293818 
L 161.735621 45.853273 
L 162.228871 45.373091 
L 162.722122 44.412727 
L 163.215372 43.932545 
L 163.708623 42.492 
L 164.201874 42.011818 
L 164.695124 41.051455 
L 165.188375 39.610909 
L 165.681625 38.650545 
L 166.668126 37.690182 
L 167.161377 37.690182 
L 167.654628 36.729818 
L 168.641129 35.769455 
L 169.62763 35.769455 
L 170.12088 35.289273 
L 170.614131 35.289273 
L 171.107381 34.809091 
L 171.600632 33.848727 
L 172.093883 32.408182 
L 172.587133 31.928 
L 173.080384 30.967636 
L 173.573634 30.487455 
L 174.560135 30.487455 
L 175.053386 29.527091 
L 176.039887 28.566727 
L 176.533138 27.606364 
L 178.50614 25.685636 
L 178.999391 25.685636 
L 179.492641 25.205455 
L 179.985892 25.205455 
L 180.479142 24.725273 
L 181.465643 24.725273 
L 182.945395 23.284727 
L 183.931896 23.284727 
L 184.425147 22.804545 
L 188.371151 22.804545 
L 188.864402 22.324364 
L 207.607923 22.324364 
L 208.101174 22.804545 
L 208.594424 22.804545 
L 209.087675 22.324364 
L 209.580926 22.804545 
L 210.074176 22.324364 
L 210.567427 22.804545 
L 211.060677 22.324364 
L 212.047178 22.324364 
L 212.540429 22.804545 
L 214.020181 22.804545 
L 214.513431 22.324364 
L 215.499932 22.324364 
L 215.993183 22.804545 
L 216.486433 22.324364 
L 216.979684 22.324364 
L 217.472935 22.804545 
L 219.939187 22.804545 
L 220.432438 23.284727 
L 220.925688 23.284727 
L 221.418939 23.764909 
L 221.91219 23.764909 
L 222.40544 24.245091 
L 222.898691 24.245091 
L 224.378442 25.685636 
L 224.871693 25.685636 
L 225.858194 26.646 
L 226.351445 26.646 
L 226.844695 27.606364 
L 228.817698 29.527091 
L 229.310948 30.487455 
L 230.7907 31.928 
L 231.28395 31.928 
L 231.777201 32.888364 
L 237.696208 38.650545 
L 238.189458 39.610909 
L 238.682709 40.091091 
L 239.175959 41.531636 
L 239.66921 41.531636 
L 240.16246 42.492 
L 240.655711 42.972182 
L 241.148962 43.932545 
L 242.135463 46.813636 
L 243.121964 48.734364 
L 243.615214 49.214545 
L 244.108465 50.174909 
L 244.601716 51.615455 
L 245.094966 52.575818 
L 245.588217 52.575818 
L 246.081467 54.976727 
L 246.574718 55.937091 
L 247.067968 55.937091 
L 249.040971 61.699273 
L 250.027472 63.62 
L 250.520722 64.100182 
L 251.013973 65.540727 
L 251.507223 67.461455 
L 252.000474 68.421818 
L 252.493725 68.902 
L 253.480226 70.822727 
L 253.973476 71.302909 
L 254.466727 72.743455 
L 254.959977 73.703818 
L 255.946479 74.664182 
L 256.93298 76.584909 
L 257.919481 77.545273 
L 258.905982 79.466 
L 259.892483 82.347091 
L 260.385734 83.307455 
L 261.372235 84.267818 
L 261.865485 85.228182 
L 262.851986 88.109273 
L 263.345237 88.589455 
L 263.838488 88.589455 
L 265.318239 90.03 
L 266.30474 91.950727 
L 266.797991 92.430909 
L 267.291242 93.391273 
L 267.784492 93.871455 
L 268.277743 94.831818 
L 269.757494 96.272364 
L 270.250745 96.272364 
L 272.223747 98.193091 
L 272.716998 98.193091 
L 273.210248 98.673273 
L 273.703499 98.673273 
L 274.69 99.633636 
L 275.183251 101.074182 
L 276.169752 102.034545 
L 277.156253 102.034545 
L 277.649503 102.514727 
L 278.142754 102.514727 
L 278.636005 102.994909 
L 279.622506 102.994909 
L 281.595508 104.915636 
L 282.582009 104.915636 
L 283.07526 105.395818 
L 283.56851 105.395818 
L 284.061761 105.876 
L 284.555011 105.876 
L 285.541512 106.836364 
L 287.021264 106.836364 
L 287.514515 107.316545 
L 288.007765 107.316545 
L 288.501016 106.836364 
L 288.994266 106.836364 
L 289.487517 107.316545 
L 291.460519 107.316545 
L 291.95377 107.796727 
L 292.44702 107.796727 
L 292.940271 108.276909 
L 294.420023 108.276909 
L 294.913273 108.757091 
L 301.818781 108.757091 
L 302.312032 109.237273 
L 325.988059 109.237273 
L 326.481309 109.717455 
L 326.97456 109.717455 
L 327.46781 109.237273 
L 327.961061 109.717455 
L 328.947562 109.717455 
L 329.440813 109.237273 
L 329.934063 109.237273 
L 330.427314 109.717455 
L 330.920564 109.237273 
L 331.907065 109.237273 
L 332.400316 109.717455 
L 332.893567 109.237273 
L 333.386817 109.237273 
L 333.880068 109.717455 
L 334.373318 109.237273 
L 334.866569 109.717455 
L 335.359819 109.237273 
L 337.332822 109.237273 
L 338.319323 108.276909 
L 338.812573 108.276909 
L 339.305824 107.796727 
L 339.799074 107.796727 
L 340.292325 106.836364 
L 340.785576 106.836364 
L 342.265327 105.395818 
L 342.758578 105.395818 
L 344.73158 103.475091 
L 345.224831 103.475091 
L 345.718081 102.994909 
L 346.211332 102.034545 
L 347.197833 101.074182 
L 347.691084 100.113818 
L 348.184334 99.633636 
L 348.677585 98.673273 
L 349.170835 98.193091 
L 349.664086 98.193091 
L 350.157336 97.712909 
L 350.650587 97.712909 
L 351.637088 96.752545 
L 352.623589 94.831818 
L 353.61009 93.871455 
L 355.583093 90.03 
L 356.076343 89.549818 
L 356.569594 89.549818 
L 357.062844 88.109273 
L 359.529097 85.708364 
L 360.515598 83.787636 
L 361.008849 83.307455 
L 361.99535 81.386727 
L 362.981851 80.426364 
L 363.968352 78.505636 
L 364.461603 78.025455 
L 364.954853 77.065091 
L 365.448104 77.065091 
L 365.941354 76.584909 
L 366.434605 76.584909 
L 367.421106 75.624545 
L 368.407607 73.703818 
L 368.900858 72.263273 
L 369.887359 70.342545 
L 370.380609 70.342545 
L 370.87386 69.382182 
L 371.367111 68.902 
L 371.860361 68.902 
L 372.846862 67.941636 
L 373.340113 67.941636 
L 373.833363 67.461455 
L 374.326614 67.461455 
L 374.819865 66.981273 
L 376.299616 66.981273 
L 376.792867 66.501091 
L 379.75237 66.501091 
L 380.245621 66.020909 
L 387.151129 66.020909 
L 387.644379 65.540727 
L 403.428397 65.540727 
L 403.921648 65.060545 
L 406.881151 65.060545 
L 407.374402 64.580364 
L 407.867652 65.060545 
L 408.360903 65.060545 
L 408.854153 64.580364 
L 409.840655 64.580364 
L 410.333905 65.060545 
L 413.786659 65.060545 
L 414.27991 64.580364 
L 414.77316 65.060545 
L 415.266411 65.060545 
L 415.759661 64.580364 
L 416.252912 64.580364 
L 416.746163 65.060545 
L 493.2 65.060545 
L 493.2 65.060545 
" clip-path="url(#pc6c2ec8358)" style="fill: none; stroke: #1f77b4; stroke-width: 1.5; stroke-linecap: square"/>
   </g>
   <g id="line2d_16">
    <path d="M 56.18 63.62 
L 493.2 63.62 
" clip-path="url(#pc6c2ec8358)" style="fill: none; stroke-dasharray: 2.96,1.28; stroke-dashoffset: 0; stroke: #808080; stroke-width: 0.8"/>
   </g>
   <g id="patch_3">
    <path d="M 56.18 116.44 
L 56.18 10.8 
" style="fill: none; stroke: #000000; stroke-width: 0.8; stroke-linejoin: miter; stroke-linecap: square"/>
   </g>
   <g id="patch_4">
    <path d="M 56.18 116.44 
L 493.2 116.44 
" style="fill: none; stroke: #000000; stroke-width: 0.8; stroke-linejoin: miter; stroke-linecap: square"/>
   </g>
  </g>
  <g id="axes_2">
   <g id="patch_5">
    <path d="M 56.18 264.04 
L 493.2 264.04 
L 493.2 158.4 
L 56.18 158.4 
z
" style="fill: #ffffff"/>
   </g>
   <g id="matplotlib.axis_3">
    <g id="xtick_10">
     <g id="line2d_17">
      <g>
       <use xlink:href="#m45d76cc71b" x="56.18" y="264.04" style="stroke: #000000; stroke-width: 0.8"/>
      </g>
     </g>
     <g id="text_17">
      <!-- 0 -->
      <g transform="translate(52.99875 278.638438) scale(0.1 -0.1)">
       <use xlink:href="#DejaVuSans-30"/>
      </g>
     </g>
    </g>
    <g id="xtick_11">
     <g id="line2d_18">
      <g>
       <use xlink:href="#m45d76cc71b" x="105.505056" y="264.04" style="stroke: #000000; stroke-width: 0.8"/>
      </g>
     </g>
     <g id="text_18">
      <!-- 1000 -->
      <g transform="translate(92.780056 278.638438) scale(0.1 -0.1)">
       <use xlink:href="#DejaVuSans-31"/>
       <use xlink:href="#DejaVuSans-30" x="63.623047"/>
       <use xlink:href="#DejaVuSans-30" x="127.246094"/>
       <use xlink:href="#DejaVuSans-30" x="190.869141"/>
      </g>
     </g>
    </g>
    <g id="xtick_12">
     <g id="line2d_19">
      <g>
       <use xlink:href="#m45d76cc71b" x="154.830113" y="264.04" style="stroke: #000000; stroke-width: 0.8"/>
      </g>
     </g>
     <g id="text_19">
      <!-- 2000 -->
      <g transform="translate(142.105113 278.638438) scale(0.1 -0.1)">
       <use xlink:href="#DejaVuSans-32"/>
       <use xlink:href="#DejaVuSans-30" x="63.623047"/>
       <use xlink:href="#DejaVuSans-30" x="127.246094"/>
       <use xlink:href="#DejaVuSans-30" x="190.869141"/>
      </g>
     </g>
    </g>
    <g id="xtick_13">
     <g id="line2d_20">
      <g>
       <use xlink:href="#m45d76cc71b" x="204.155169" y="264.04" style="stroke: #000000; stroke-width: 0.8"/>
      </g>
     </g>
     <g id="text_20">
      <!-- 3000 -->
      <g transform="translate(191.430169 278.638438) scale(0.1 -0.1)">
       <use xlink:href="#DejaVuSans-33"/>
       <use xlink:href="#DejaVuSans-30" x="63.623047"/>
       <use xlink:href="#DejaVuSans-30" x="127.246094"/>
       <use xlink:href="#DejaVuSans-30" x="190.869141"/>
      </g>
     </g>
    </g>
    <g id="xtick_14">
     <g id="line2d_21">
      <g>
       <use xlink:href="#m45d76cc71b" x="253.480226" y="264.04" style="stroke: #000000; stroke-width: 0.8"/>
      </g>
     </g>
     <g id="text_21">
      <!-- 4000 -->
      <g transform="translate(240.755226 278.638438) scale(0.1 -0.1)">
       <use xlink:href="#DejaVuSans-34"/>
       <use xlink:href="#DejaVuSans-30" x="63.623047"/>
       <use xlink:href="#DejaVuSans-30" x="127.246094"/>
       <use xlink:href="#DejaVuSans-30" x="190.869141"/>
      </g>
     </g>
    </g>
    <g id="xtick_15">
     <g id="line2d_22">
      <g>
       <use xlink:href="#m45d76cc71b" x="302.805282" y="264.04" style="stroke: #000000; stroke-width: 0.8"/>
      </g>
     </g>
     <g id="text_22">
      <!-- 5000 -->
      <g transform="translate(290.080282 278.638438) scale(0.1 -0.1)">
       <use xlink:href="#DejaVuSans-35"/>
       <use xlink:href="#DejaVuSans-30" x="63.623047"/>
       <use xlink:href="#DejaVuSans-30" x="127.246094"/>
       <use xlink:href="#DejaVuSans-30" x="190.869141"/>
      </g>
     </g>
    </g>
    <g id="xtick_16">
     <g id="line2d_23">
      <g>
       <use xlink:href="#m45d76cc71b" x="352.130339" y="264.04" style="stroke: #000000; stroke-width: 0.8"/>
      </g>
     </g>
     <g id="text_23">
      <!-- 6000 -->
      <g transform="translate(339.405339 278.638438) scale(0.1 -0.1)">
       <use xlink:href="#DejaVuSans-36"/>
       <use xlink:href="#DejaVuSans-30" x="63.623047"/>
       <use xlink:href="#DejaVuSans-30" x="127.246094"/>
       <use xlink:href="#DejaVuSans-30" x="190.869141"/>
      </g>
     </g>
    </g>
    <g id="xtick_17">
     <g id="line2d_24">
      <g>
       <use xlink:href="#m45d76cc71b" x="401.455395" y="264.04" style="stroke: #000000; stroke-width: 0.8"/>
      </g>
     </g>
     <g id="text_24">
      <!-- 7000 -->
      <g transform="translate(388.730395 278.638438) scale(0.1 -0.1)">
       <use xlink:href="#DejaVuSans-37"/>
       <use xlink:href="#DejaVuSans-30" x="63.623047"/>
       <use xlink:href="#DejaVuSans-30" x="127.246094"/>
       <use xlink:href="#DejaVuSans-30" x="190.869141"/>
      </g>
     </g>
    </g>
    <g id="xtick_18">
     <g id="line2d_25">
      <g>
       <use xlink:href="#m45d76cc71b" x="450.780451" y="264.04" style="stroke: #000000; stroke-width: 0.8"/>
      </g>
     </g>
     <g id="text_25">
      <!-- 8000 -->
      <g transform="translate(438.055451 278.638438) scale(0.1 -0.1)">
       <use xlink:href="#DejaVuSans-38"/>
       <use xlink:href="#DejaVuSans-30" x="63.623047"/>
       <use xlink:href="#DejaVuSans-30" x="127.246094"/>
       <use xlink:href="#DejaVuSans-30" x="190.869141"/>
      </g>
     </g>
    </g>
    <g id="text_26">
     <!-- Time (ms) -->
     <g transform="translate(249.490781 292.316563) scale(0.1 -0.1)">
      <use xlink:href="#DejaVuSans-54"/>
      <use xlink:href="#DejaVuSans-69" x="57.958984"/>
      <use xlink:href="#DejaVuSans-6d" x="85.742188"/>
      <use xlink:href="#DejaVuSans-65" x="183.154297"/>
      <use xlink:href="#DejaVuSans-20" x="244.677734"/>
      <use xlink:href="#DejaVuSans-28" x="276.464844"/>
      <use xlink:href="#DejaVuSans-6d" x="315.478516"/>
      <use xlink:href="#DejaVuSans-73" x="412.890625"/>
      <use xlink:href="#DejaVuSans-29" x="464.990234"/>
     </g>
    </g>
   </g>
   <g id="matplotlib.axis_4">
    <g id="ytick_6">
     <g id="line2d_26">
      <g>
       <use xlink:href="#mca24320802" x="56.18" y="259.238182" style="stroke: #000000; stroke-width: 0.8"/>
      </g>
     </g>
     <g id="text_27">
      <!-- −1.0 -->
      <g transform="translate(24.897188 263.037401) scale(0.1 -0.1)">
       <use xlink:href="#DejaVuSans-2212"/>
       <use xlink:href="#DejaVuSans-31" x="83.789062"/>
       <use xlink:href="#DejaVuSans-2e" x="147.412109"/>
       <use xlink:href="#DejaVuSans-30" x="179.199219"/>
      </g>
     </g>
    </g>
    <g id="ytick_7">
     <g id="line2d_27">
      <g>
       <use xlink:href="#mca24320802" x="56.18" y="235.229091" style="stroke: #000000; stroke-width: 0.8"/>
      </g>
     </g>
     <g id="text_28">
      <!-- −0.5 -->
      <g transform="translate(24.897188 239.02831) scale(0.1 -0.1)">
       <use xlink:href="#DejaVuSans-2212"/>
       <use xlink:href="#DejaVuSans-30" x="83.789062"/>
       <use xlink:href="#DejaVuSans-2e" x="147.412109"/>
       <use xlink:href="#DejaVuSans-35" x="179.199219"/>
      </g>
     </g>
    </g>
    <g id="ytick_8">
     <g id="line2d_28">
      <g>
       <use xlink:href="#mca24320802" x="56.18" y="211.22" style="stroke: #000000; stroke-width: 0.8"/>
      </g>
     </g>
     <g id="text_29">
      <!-- 0.0 -->
      <g transform="translate(33.276875 215.019219) scale(0.1 -0.1)">
       <use xlink:href="#DejaVuSans-30"/>
       <use xlink:href="#DejaVuSans-2e" x="63.623047"/>
       <use xlink:href="#DejaVuSans-30" x="95.410156"/>
      </g>
     </g>
    </g>
    <g id="ytick_9">
     <g id="line2d_29">
      <g>
       <use xlink:href="#mca24320802" x="56.18" y="187.210909" style="stroke: #000000; stroke-width: 0.8"/>
      </g>
     </g>
     <g id="text_30">
      <!-- 0.5 -->
      <g transform="translate(33.276875 191.010128) scale(0.1 -0.1)">
       <use xlink:href="#DejaVuSans-30"/>
       <use xlink:href="#DejaVuSans-2e" x="63.623047"/>
       <use xlink:href="#DejaVuSans-35" x="95.410156"/>
      </g>
     </g>
    </g>
    <g id="ytick_10">
     <g id="line2d_30">
      <g>
       <use xlink:href="#mca24320802" x="56.18" y="163.201818" style="stroke: #000000; stroke-width: 0.8"/>
      </g>
     </g>
     <g id="text_31">
      <!-- 1.0 -->
      <g transform="translate(33.276875 167.001037) scale(0.1 -0.1)">
       <use xlink:href="#DejaVuSans-31"/>
       <use xlink:href="#DejaVuSans-2e" x="63.623047"/>
       <use xlink:href="#DejaVuSans-30" x="95.410156"/>
      </g>
     </g>
    </g>
    <g id="text_32">
     <!-- Y-Axis Value -->
     <g transform="translate(18.8175 241.065313) rotate(-90) scale(0.1 -0.1)">
      <defs>
       <path id="DejaVuSans-59" d="M -13 4666 
L 666 4666 
L 1959 2747 
L 3244 4666 
L 3922 4666 
L 2272 2222 
L 2272 0 
L 1638 0 
L 1638 2222 
L -13 4666 
z
" transform="scale(0.015625)"/>
      </defs>
      <use xlink:href="#DejaVuSans-59"/>
      <use xlink:href="#DejaVuSans-2d" x="49.208984"/>
      <use xlink:href="#DejaVuSans-41" x="83.042969"/>
      <use xlink:href="#DejaVuSans-78" x="151.451172"/>
      <use xlink:href="#DejaVuSans-69" x="210.630859"/>
      <use xlink:href="#DejaVuSans-73" x="238.414062"/>
      <use xlink:href="#DejaVuSans-20" x="290.513672"/>
      <use xlink:href="#DejaVuSans-56" x="322.300781"/>
      <use xlink:href="#DejaVuSans-61" x="382.958984"/>
      <use xlink:href="#DejaVuSans-6c" x="444.238281"/>
      <use xlink:href="#DejaVuSans-75" x="472.021484"/>
      <use xlink:href="#DejaVuSans-65" x="535.400391"/>
     </g>
    </g>
   </g>
   <g id="line2d_31">
    <path d="M 56.18 211.22 
L 97.613047 211.22 
L 98.106298 210.739818 
L 99.58605 210.739818 
L 100.0793 210.259636 
L 102.052302 210.259636 
L 102.545553 209.779455 
L 105.011806 209.779455 
L 105.505056 209.299273 
L 108.46456 209.299273 
L 108.95781 208.819091 
L 109.944312 208.819091 
L 110.437562 208.338909 
L 111.424063 208.338909 
L 111.917314 207.858727 
L 112.410564 207.858727 
L 112.903815 207.378545 
L 113.397065 207.378545 
L 114.383567 204.497455 
L 114.876817 202.576727 
L 116.849819 196.814545 
L 117.34307 195.854182 
L 118.329571 192.973091 
L 118.822822 192.492909 
L 119.316072 191.532545 
L 120.302573 190.572182 
L 121.289074 188.651455 
L 121.782325 187.210909 
L 122.275576 186.250545 
L 123.262077 182.409091 
L 124.248578 179.528 
L 124.741828 177.607273 
L 125.235079 176.166727 
L 125.72833 174.246 
L 126.22158 171.364909 
L 126.714831 166.563091 
L 127.208081 166.082909 
L 128.194582 166.082909 
L 128.687833 165.602727 
L 149.404357 165.602727 
L 149.897607 165.122545 
L 157.296366 165.122545 
L 157.789616 165.602727 
L 158.776117 165.602727 
L 159.269368 166.082909 
L 160.74912 166.082909 
L 161.735621 167.043273 
L 162.228871 167.043273 
L 163.215372 168.003636 
L 163.708623 168.003636 
L 165.681625 169.924364 
L 166.174876 169.924364 
L 167.654628 171.364909 
L 168.641129 171.364909 
L 169.134379 171.845091 
L 169.62763 171.845091 
L 170.12088 172.325273 
L 170.614131 172.325273 
L 171.600632 173.285636 
L 172.093883 174.246 
L 174.066885 176.166727 
L 174.560135 176.166727 
L 175.053386 177.127091 
L 175.546637 177.127091 
L 176.039887 177.607273 
L 177.026388 179.528 
L 177.519639 180.008182 
L 178.012889 180.968545 
L 178.999391 181.928909 
L 179.492641 181.928909 
L 180.479142 183.849636 
L 180.972393 183.849636 
L 183.438646 186.250545 
L 183.931896 186.250545 
L 184.425147 186.730727 
L 184.918397 186.730727 
L 185.411648 187.210909 
L 186.8914 187.210909 
L 187.38465 187.691091 
L 188.371151 187.691091 
L 188.864402 188.171273 
L 189.357652 188.171273 
L 189.850903 188.651455 
L 191.823905 188.651455 
L 192.317156 189.131636 
L 193.303657 189.131636 
L 193.796907 189.611818 
L 194.783409 189.611818 
L 195.76991 190.572182 
L 196.26316 191.532545 
L 196.756411 191.532545 
L 197.249661 192.012727 
L 197.742912 192.973091 
L 198.236163 192.973091 
L 198.729413 193.933455 
L 199.715914 194.893818 
L 200.209165 195.854182 
L 201.195666 196.814545 
L 201.688916 197.774909 
L 202.182167 198.255091 
L 203.661919 201.136182 
L 204.155169 201.616364 
L 204.64842 202.576727 
L 205.14167 204.017273 
L 205.634921 204.497455 
L 206.128172 205.938 
L 206.621422 206.898364 
L 207.114673 207.378545 
L 207.607923 209.299273 
L 208.101174 210.259636 
L 210.074176 216.021818 
L 211.553928 221.784 
L 212.047178 223.224545 
L 212.540429 225.145273 
L 213.033679 226.585818 
L 213.52693 228.986727 
L 214.020181 230.427273 
L 214.513431 230.427273 
L 215.006682 230.907455 
L 215.499932 230.907455 
L 216.486433 231.867818 
L 216.979684 231.867818 
L 217.472935 232.348 
L 217.966185 232.348 
L 218.459436 232.828182 
L 219.939187 232.828182 
L 220.432438 233.308364 
L 220.925688 233.308364 
L 221.91219 234.268727 
L 222.40544 234.268727 
L 224.871693 236.669636 
L 225.364944 236.669636 
L 226.844695 238.110182 
L 227.337946 239.070545 
L 227.831196 239.550727 
L 228.324447 240.511091 
L 228.817698 240.511091 
L 229.310948 241.471455 
L 229.804199 241.951636 
L 230.297449 242.912 
L 230.7907 243.392182 
L 231.28395 243.392182 
L 231.777201 243.872364 
L 232.270451 244.832727 
L 233.750203 246.273273 
L 234.243454 247.233636 
L 234.736704 247.713818 
L 235.229955 247.713818 
L 235.723205 248.194 
L 236.216456 249.154364 
L 236.709707 249.154364 
L 238.682709 251.075091 
L 239.175959 252.035455 
L 239.66921 252.035455 
L 241.642212 253.956182 
L 242.135463 253.956182 
L 243.615214 255.396727 
L 245.094966 255.396727 
L 245.588217 255.876909 
L 246.081467 255.876909 
L 246.574718 256.357091 
L 251.013973 256.357091 
L 251.507223 256.837273 
L 252.000474 256.357091 
L 258.412731 256.357091 
L 258.905982 255.876909 
L 259.399233 255.876909 
L 259.892483 255.396727 
L 260.385734 254.436364 
L 260.878984 253.956182 
L 261.372235 253.956182 
L 264.331738 251.075091 
L 264.824989 251.555273 
L 268.277743 248.194 
L 268.770993 248.194 
L 269.757494 247.233636 
L 270.250745 247.233636 
L 270.743995 246.753455 
L 271.237246 245.793091 
L 272.716998 244.352545 
L 273.703499 244.352545 
L 274.69 243.392182 
L 275.676501 241.471455 
L 276.169752 240.991273 
L 276.663002 240.991273 
L 279.622506 238.110182 
L 280.115756 238.110182 
L 281.102257 236.189455 
L 284.555011 232.828182 
L 285.048262 232.828182 
L 285.541512 232.348 
L 286.034763 232.348 
L 286.528014 231.867818 
L 288.501016 231.867818 
L 288.994266 231.387636 
L 290.474018 231.387636 
L 291.95377 229.947091 
L 292.44702 229.947091 
L 292.940271 228.986727 
L 293.433521 228.506545 
L 293.926772 228.506545 
L 294.420023 228.026364 
L 298.859278 228.026364 
L 299.352528 227.546182 
L 305.764786 227.546182 
L 306.258036 227.066 
L 308.231038 227.066 
L 309.21754 226.105636 
L 309.71079 226.105636 
L 310.697291 225.145273 
L 311.190542 223.704727 
L 311.683792 223.224545 
L 313.163544 220.343455 
L 313.656795 218.422727 
L 314.150045 216.982182 
L 314.643296 215.061455 
L 315.136546 214.101091 
L 315.629797 212.180364 
L 319.082551 202.096545 
L 319.575801 200.175818 
L 320.069052 197.774909 
L 320.562302 196.334364 
L 321.055553 196.334364 
L 321.548804 195.854182 
L 326.97456 195.854182 
L 327.46781 195.374 
L 334.373318 195.374 
L 334.866569 194.893818 
L 335.85307 194.893818 
L 336.839571 193.933455 
L 337.332822 192.973091 
L 337.826072 192.973091 
L 338.319323 192.012727 
L 339.305824 191.052364 
L 339.799074 190.092 
L 340.292325 189.611818 
L 340.785576 188.651455 
L 341.278826 188.171273 
L 341.772077 187.210909 
L 343.251828 185.770364 
L 343.745079 184.81 
L 345.224831 183.369455 
L 346.211332 181.448727 
L 346.704582 180.968545 
L 347.197833 179.528 
L 347.691084 179.047818 
L 348.184334 178.087455 
L 349.170835 177.127091 
L 349.664086 177.127091 
L 351.143837 175.686545 
L 351.637088 174.726182 
L 352.130339 174.246 
L 352.623589 173.285636 
L 354.596591 171.364909 
L 355.089842 171.364909 
L 356.076343 170.404545 
L 356.569594 170.404545 
L 357.556095 169.444182 
L 358.542596 169.444182 
L 359.035847 168.964 
L 359.529097 168.964 
L 360.022348 168.483818 
L 360.515598 168.483818 
L 361.008849 168.003636 
L 361.502099 168.003636 
L 362.4886 167.043273 
L 363.475102 167.043273 
L 363.968352 166.563091 
L 366.927856 166.563091 
L 367.421106 166.082909 
L 368.900858 166.082909 
L 369.394108 165.602727 
L 399.975643 165.602727 
L 400.468894 165.122545 
L 403.921648 165.122545 
L 404.414898 165.602727 
L 406.387901 165.602727 
L 407.374402 166.563091 
L 407.867652 167.523455 
L 408.360903 168.964 
L 409.347404 174.246 
L 410.333905 179.528 
L 412.306907 188.651455 
L 412.800158 190.092 
L 413.293409 192.012727 
L 414.27991 194.893818 
L 414.77316 195.854182 
L 416.252912 200.175818 
L 416.746163 202.096545 
L 417.239413 203.537091 
L 417.732664 204.497455 
L 418.225914 206.418182 
L 418.719165 207.378545 
L 419.212415 207.378545 
L 419.705666 207.858727 
L 420.198916 207.858727 
L 420.692167 208.338909 
L 421.185418 208.338909 
L 422.665169 209.779455 
L 425.624673 209.779455 
L 426.117923 210.259636 
L 493.2 210.259636 
L 493.2 210.259636 
" clip-path="url(#peda56d61d5)" style="fill: none; stroke: #1f77b4; stroke-width: 1.5; stroke-linecap: square"/>
   </g>
   <g id="line2d_32">
    <path d="M 56.18 211.22 
L 493.2 211.22 
" clip-path="url(#peda56d61d5)" style="fill: none; stroke-dasharray: 2.96,1.28; stroke-dashoffset: 0; stroke: #808080; stroke-width: 0.8"/>
   </g>
   <g id="patch_6">
    <path d="M 56.18 264.04 
L 56.18 158.4 
" style="fill: none; stroke: #000000; stroke-width: 0.8; stroke-linejoin: miter; stroke-linecap: square"/>
   </g>
   <g id="patch_7">
    <path d="M 56.18 264.04 
L 493.2 264.04 
" style="fill: none; stroke: #000000; stroke-width: 0.8; stroke-linejoin: miter; stroke-linecap: square"/>
   </g>
  </g>
 </g>
 <defs>
  <clipPath id="pc6c2ec8358">
   <rect x="56.18" y="10.8" width="437.02" height="105.64"/>
  </clipPath>
  <clipPath id="peda56d61d5">
   <rect x="56.18" y="158.4" width="437.02" height="105.64"/>
  </clipPath>
 </defs>
</svg>
