<?xml version="1.0" encoding="utf-8" standalone="no"?>
<!DOCTYPE svg PUBLIC "-//W3C//DTD SVG 1.1//EN"
  "http://www.w3.org/Graphics/SVG/1.1/DTD/svg11.dtd">
<svg xmlns:xlink="http://www.w3.org/1999/xlink" width="504pt" height="306pt" viewBox="0 0 504 306" xmlns="http://www.w3.org/2000/svg" version="1.1">
 <metadata>
  <rdf:RDF xmlns:dc="http://purl.org/dc/elements/1.1/" xmlns:cc="http://creativecommons.org/ns#" xmlns:rdf="http://www.w3.org/1999/02/22-rdf-syntax-ns#">
   <cc:Work>
    <dc:type rdf:resource="http://purl.org/dc/dcmitype/StillImage"/>
    <dc:date>2024-06-16T22:16:21.534876</dc:date>
    <dc:format>image/svg+xml</dc:format>
    <dc:creator>
     <cc:Agent>
      <dc:title>Matplotlib v3.8.3, https://matplotlib.org/</dc:title>
     </cc:Agent>
    </dc:creator>
   </cc:Work>
  </rdf:RDF>
 </metadata>
 <defs>
  <style type="text/css">*{stroke-linejoin: round; stroke-linecap: butt}</style>
 </defs>
 <g id="figure_1">
  <g id="patch_1">
   <path d="M 0 306 
L 504 306 
L 504 0 
L 0 0 
z
" style="fill: #ffffff"/>
  </g>
  <g id="axes_1">
   <g id="patch_2">
    <path d="M 56.18 116.44 
L 493.2 116.44 
L 493.2 10.8 
L 56.18 10.8 
z
" style="fill: #ffffff"/>
   </g>
   <g id="matplotlib.axis_1">
    <g id="xtick_1">
     <g id="line2d_1">
      <defs>
       <path id="m928ba3d7cd" d="M 0 0 
L 0 3.5 
" style="stroke: #000000; stroke-width: 0.8"/>
      </defs>
      <g>
       <use xlink:href="#m928ba3d7cd" x="56.18" y="116.44" style="stroke: #000000; stroke-width: 0.8"/>
      </g>
     </g>
     <g id="text_1">
      <!-- 0 -->
      <g transform="translate(52.99875 131.038437) scale(0.1 -0.1)">
       <defs>
        <path id="DejaVuSans-30" d="M 2034 4250 
Q 1547 4250 1301 3770 
Q 1056 3291 1056 2328 
Q 1056 1369 1301 889 
Q 1547 409 2034 409 
Q 2525 409 2770 889 
Q 3016 1369 3016 2328 
Q 3016 3291 2770 3770 
Q 2525 4250 2034 4250 
z
M 2034 4750 
Q 2819 4750 3233 4129 
Q 3647 3509 3647 2328 
Q 3647 1150 3233 529 
Q 2819 -91 2034 -91 
Q 1250 -91 836 529 
Q 422 1150 422 2328 
Q 422 3509 836 4129 
Q 1250 4750 2034 4750 
z
" transform="scale(0.015625)"/>
       </defs>
       <use xlink:href="#DejaVuSans-30"/>
      </g>
     </g>
    </g>
    <g id="xtick_2">
     <g id="line2d_2">
      <g>
       <use xlink:href="#m928ba3d7cd" x="133.73457" y="116.44" style="stroke: #000000; stroke-width: 0.8"/>
      </g>
     </g>
     <g id="text_2">
      <!-- 2000 -->
      <g transform="translate(121.00957 131.038437) scale(0.1 -0.1)">
       <defs>
        <path id="DejaVuSans-32" d="M 1228 531 
L 3431 531 
L 3431 0 
L 469 0 
L 469 531 
Q 828 903 1448 1529 
Q 2069 2156 2228 2338 
Q 2531 2678 2651 2914 
Q 2772 3150 2772 3378 
Q 2772 3750 2511 3984 
Q 2250 4219 1831 4219 
Q 1534 4219 1204 4116 
Q 875 4013 500 3803 
L 500 4441 
Q 881 4594 1212 4672 
Q 1544 4750 1819 4750 
Q 2544 4750 2975 4387 
Q 3406 4025 3406 3419 
Q 3406 3131 3298 2873 
Q 3191 2616 2906 2266 
Q 2828 2175 2409 1742 
Q 1991 1309 1228 531 
z
" transform="scale(0.015625)"/>
       </defs>
       <use xlink:href="#DejaVuSans-32"/>
       <use xlink:href="#DejaVuSans-30" x="63.623047"/>
       <use xlink:href="#DejaVuSans-30" x="127.246094"/>
       <use xlink:href="#DejaVuSans-30" x="190.869141"/>
      </g>
     </g>
    </g>
    <g id="xtick_3">
     <g id="line2d_3">
      <g>
       <use xlink:href="#m928ba3d7cd" x="211.289139" y="116.44" style="stroke: #000000; stroke-width: 0.8"/>
      </g>
     </g>
     <g id="text_3">
      <!-- 4000 -->
      <g transform="translate(198.564139 131.038437) scale(0.1 -0.1)">
       <defs>
        <path id="DejaVuSans-34" d="M 2419 4116 
L 825 1625 
L 2419 1625 
L 2419 4116 
z
M 2253 4666 
L 3047 4666 
L 3047 1625 
L 3713 1625 
L 3713 1100 
L 3047 1100 
L 3047 0 
L 2419 0 
L 2419 1100 
L 313 1100 
L 313 1709 
L 2253 4666 
z
" transform="scale(0.015625)"/>
       </defs>
       <use xlink:href="#DejaVuSans-34"/>
       <use xlink:href="#DejaVuSans-30" x="63.623047"/>
       <use xlink:href="#DejaVuSans-30" x="127.246094"/>
       <use xlink:href="#DejaVuSans-30" x="190.869141"/>
      </g>
     </g>
    </g>
    <g id="xtick_4">
     <g id="line2d_4">
      <g>
       <use xlink:href="#m928ba3d7cd" x="288.843709" y="116.44" style="stroke: #000000; stroke-width: 0.8"/>
      </g>
     </g>
     <g id="text_4">
      <!-- 6000 -->
      <g transform="translate(276.118709 131.038437) scale(0.1 -0.1)">
       <defs>
        <path id="DejaVuSans-36" d="M 2113 2584 
Q 1688 2584 1439 2293 
Q 1191 2003 1191 1497 
Q 1191 994 1439 701 
Q 1688 409 2113 409 
Q 2538 409 2786 701 
Q 3034 994 3034 1497 
Q 3034 2003 2786 2293 
Q 2538 2584 2113 2584 
z
M 3366 4563 
L 3366 3988 
Q 3128 4100 2886 4159 
Q 2644 4219 2406 4219 
Q 1781 4219 1451 3797 
Q 1122 3375 1075 2522 
Q 1259 2794 1537 2939 
Q 1816 3084 2150 3084 
Q 2853 3084 3261 2657 
Q 3669 2231 3669 1497 
Q 3669 778 3244 343 
Q 2819 -91 2113 -91 
Q 1303 -91 875 529 
Q 447 1150 447 2328 
Q 447 3434 972 4092 
Q 1497 4750 2381 4750 
Q 2619 4750 2861 4703 
Q 3103 4656 3366 4563 
z
" transform="scale(0.015625)"/>
       </defs>
       <use xlink:href="#DejaVuSans-36"/>
       <use xlink:href="#DejaVuSans-30" x="63.623047"/>
       <use xlink:href="#DejaVuSans-30" x="127.246094"/>
       <use xlink:href="#DejaVuSans-30" x="190.869141"/>
      </g>
     </g>
    </g>
    <g id="xtick_5">
     <g id="line2d_5">
      <g>
       <use xlink:href="#m928ba3d7cd" x="366.398279" y="116.44" style="stroke: #000000; stroke-width: 0.8"/>
      </g>
     </g>
     <g id="text_5">
      <!-- 8000 -->
      <g transform="translate(353.673279 131.038437) scale(0.1 -0.1)">
       <defs>
        <path id="DejaVuSans-38" d="M 2034 2216 
Q 1584 2216 1326 1975 
Q 1069 1734 1069 1313 
Q 1069 891 1326 650 
Q 1584 409 2034 409 
Q 2484 409 2743 651 
Q 3003 894 3003 1313 
Q 3003 1734 2745 1975 
Q 2488 2216 2034 2216 
z
M 1403 2484 
Q 997 2584 770 2862 
Q 544 3141 544 3541 
Q 544 4100 942 4425 
Q 1341 4750 2034 4750 
Q 2731 4750 3128 4425 
Q 3525 4100 3525 3541 
Q 3525 3141 3298 2862 
Q 3072 2584 2669 2484 
Q 3125 2378 3379 2068 
Q 3634 1759 3634 1313 
Q 3634 634 3220 271 
Q 2806 -91 2034 -91 
Q 1263 -91 848 271 
Q 434 634 434 1313 
Q 434 1759 690 2068 
Q 947 2378 1403 2484 
z
M 1172 3481 
Q 1172 3119 1398 2916 
Q 1625 2713 2034 2713 
Q 2441 2713 2670 2916 
Q 2900 3119 2900 3481 
Q 2900 3844 2670 4047 
Q 2441 4250 2034 4250 
Q 1625 4250 1398 4047 
Q 1172 3844 1172 3481 
z
" transform="scale(0.015625)"/>
       </defs>
       <use xlink:href="#DejaVuSans-38"/>
       <use xlink:href="#DejaVuSans-30" x="63.623047"/>
       <use xlink:href="#DejaVuSans-30" x="127.246094"/>
       <use xlink:href="#DejaVuSans-30" x="190.869141"/>
      </g>
     </g>
    </g>
    <g id="xtick_6">
     <g id="line2d_6">
      <g>
       <use xlink:href="#m928ba3d7cd" x="443.952848" y="116.44" style="stroke: #000000; stroke-width: 0.8"/>
      </g>
     </g>
     <g id="text_6">
      <!-- 10000 -->
      <g transform="translate(428.046598 131.038437) scale(0.1 -0.1)">
       <defs>
        <path id="DejaVuSans-31" d="M 794 531 
L 1825 531 
L 1825 4091 
L 703 3866 
L 703 4441 
L 1819 4666 
L 2450 4666 
L 2450 531 
L 3481 531 
L 3481 0 
L 794 0 
L 794 531 
z
" transform="scale(0.015625)"/>
       </defs>
       <use xlink:href="#DejaVuSans-31"/>
       <use xlink:href="#DejaVuSans-30" x="63.623047"/>
       <use xlink:href="#DejaVuSans-30" x="127.246094"/>
       <use xlink:href="#DejaVuSans-30" x="190.869141"/>
       <use xlink:href="#DejaVuSans-30" x="254.492188"/>
      </g>
     </g>
    </g>
    <g id="text_7">
     <!-- Time (ms) -->
     <g transform="translate(249.490781 144.716562) scale(0.1 -0.1)">
      <defs>
       <path id="DejaVuSans-54" d="M -19 4666 
L 3928 4666 
L 3928 4134 
L 2272 4134 
L 2272 0 
L 1638 0 
L 1638 4134 
L -19 4134 
L -19 4666 
z
" transform="scale(0.015625)"/>
       <path id="DejaVuSans-69" d="M 603 3500 
L 1178 3500 
L 1178 0 
L 603 0 
L 603 3500 
z
M 603 4863 
L 1178 4863 
L 1178 4134 
L 603 4134 
L 603 4863 
z
" transform="scale(0.015625)"/>
       <path id="DejaVuSans-6d" d="M 3328 2828 
Q 3544 3216 3844 3400 
Q 4144 3584 4550 3584 
Q 5097 3584 5394 3201 
Q 5691 2819 5691 2113 
L 5691 0 
L 5113 0 
L 5113 2094 
Q 5113 2597 4934 2840 
Q 4756 3084 4391 3084 
Q 3944 3084 3684 2787 
Q 3425 2491 3425 1978 
L 3425 0 
L 2847 0 
L 2847 2094 
Q 2847 2600 2669 2842 
Q 2491 3084 2119 3084 
Q 1678 3084 1418 2786 
Q 1159 2488 1159 1978 
L 1159 0 
L 581 0 
L 581 3500 
L 1159 3500 
L 1159 2956 
Q 1356 3278 1631 3431 
Q 1906 3584 2284 3584 
Q 2666 3584 2933 3390 
Q 3200 3197 3328 2828 
z
" transform="scale(0.015625)"/>
       <path id="DejaVuSans-65" d="M 3597 1894 
L 3597 1613 
L 953 1613 
Q 991 1019 1311 708 
Q 1631 397 2203 397 
Q 2534 397 2845 478 
Q 3156 559 3463 722 
L 3463 178 
Q 3153 47 2828 -22 
Q 2503 -91 2169 -91 
Q 1331 -91 842 396 
Q 353 884 353 1716 
Q 353 2575 817 3079 
Q 1281 3584 2069 3584 
Q 2775 3584 3186 3129 
Q 3597 2675 3597 1894 
z
M 3022 2063 
Q 3016 2534 2758 2815 
Q 2500 3097 2075 3097 
Q 1594 3097 1305 2825 
Q 1016 2553 972 2059 
L 3022 2063 
z
" transform="scale(0.015625)"/>
       <path id="DejaVuSans-20" transform="scale(0.015625)"/>
       <path id="DejaVuSans-28" d="M 1984 4856 
Q 1566 4138 1362 3434 
Q 1159 2731 1159 2009 
Q 1159 1288 1364 580 
Q 1569 -128 1984 -844 
L 1484 -844 
Q 1016 -109 783 600 
Q 550 1309 550 2009 
Q 550 2706 781 3412 
Q 1013 4119 1484 4856 
L 1984 4856 
z
" transform="scale(0.015625)"/>
       <path id="DejaVuSans-73" d="M 2834 3397 
L 2834 2853 
Q 2591 2978 2328 3040 
Q 2066 3103 1784 3103 
Q 1356 3103 1142 2972 
Q 928 2841 928 2578 
Q 928 2378 1081 2264 
Q 1234 2150 1697 2047 
L 1894 2003 
Q 2506 1872 2764 1633 
Q 3022 1394 3022 966 
Q 3022 478 2636 193 
Q 2250 -91 1575 -91 
Q 1294 -91 989 -36 
Q 684 19 347 128 
L 347 722 
Q 666 556 975 473 
Q 1284 391 1588 391 
Q 1994 391 2212 530 
Q 2431 669 2431 922 
Q 2431 1156 2273 1281 
Q 2116 1406 1581 1522 
L 1381 1569 
Q 847 1681 609 1914 
Q 372 2147 372 2553 
Q 372 3047 722 3315 
Q 1072 3584 1716 3584 
Q 2034 3584 2315 3537 
Q 2597 3491 2834 3397 
z
" transform="scale(0.015625)"/>
       <path id="DejaVuSans-29" d="M 513 4856 
L 1013 4856 
Q 1481 4119 1714 3412 
Q 1947 2706 1947 2009 
Q 1947 1309 1714 600 
Q 1481 -109 1013 -844 
L 513 -844 
Q 928 -128 1133 580 
Q 1338 1288 1338 2009 
Q 1338 2731 1133 3434 
Q 928 4138 513 4856 
z
" transform="scale(0.015625)"/>
      </defs>
      <use xlink:href="#DejaVuSans-54"/>
      <use xlink:href="#DejaVuSans-69" x="57.958984"/>
      <use xlink:href="#DejaVuSans-6d" x="85.742188"/>
      <use xlink:href="#DejaVuSans-65" x="183.154297"/>
      <use xlink:href="#DejaVuSans-20" x="244.677734"/>
      <use xlink:href="#DejaVuSans-28" x="276.464844"/>
      <use xlink:href="#DejaVuSans-6d" x="315.478516"/>
      <use xlink:href="#DejaVuSans-73" x="412.890625"/>
      <use xlink:href="#DejaVuSans-29" x="464.990234"/>
     </g>
    </g>
   </g>
   <g id="matplotlib.axis_2">
    <g id="ytick_1">
     <g id="line2d_7">
      <defs>
       <path id="m8b7d2a12df" d="M 0 0 
L -3.5 0 
" style="stroke: #000000; stroke-width: 0.8"/>
      </defs>
      <g>
       <use xlink:href="#m8b7d2a12df" x="56.18" y="111.638182" style="stroke: #000000; stroke-width: 0.8"/>
      </g>
     </g>
     <g id="text_8">
      <!-- −1.0 -->
      <g transform="translate(24.897188 115.437401) scale(0.1 -0.1)">
       <defs>
        <path id="DejaVuSans-2212" d="M 678 2272 
L 4684 2272 
L 4684 1741 
L 678 1741 
L 678 2272 
z
" transform="scale(0.015625)"/>
        <path id="DejaVuSans-2e" d="M 684 794 
L 1344 794 
L 1344 0 
L 684 0 
L 684 794 
z
" transform="scale(0.015625)"/>
       </defs>
       <use xlink:href="#DejaVuSans-2212"/>
       <use xlink:href="#DejaVuSans-31" x="83.789062"/>
       <use xlink:href="#DejaVuSans-2e" x="147.412109"/>
       <use xlink:href="#DejaVuSans-30" x="179.199219"/>
      </g>
     </g>
    </g>
    <g id="ytick_2">
     <g id="line2d_8">
      <g>
       <use xlink:href="#m8b7d2a12df" x="56.18" y="87.629091" style="stroke: #000000; stroke-width: 0.8"/>
      </g>
     </g>
     <g id="text_9">
      <!-- −0.5 -->
      <g transform="translate(24.897188 91.42831) scale(0.1 -0.1)">
       <defs>
        <path id="DejaVuSans-35" d="M 691 4666 
L 3169 4666 
L 3169 4134 
L 1269 4134 
L 1269 2991 
Q 1406 3038 1543 3061 
Q 1681 3084 1819 3084 
Q 2600 3084 3056 2656 
Q 3513 2228 3513 1497 
Q 3513 744 3044 326 
Q 2575 -91 1722 -91 
Q 1428 -91 1123 -41 
Q 819 9 494 109 
L 494 744 
Q 775 591 1075 516 
Q 1375 441 1709 441 
Q 2250 441 2565 725 
Q 2881 1009 2881 1497 
Q 2881 1984 2565 2268 
Q 2250 2553 1709 2553 
Q 1456 2553 1204 2497 
Q 953 2441 691 2322 
L 691 4666 
z
" transform="scale(0.015625)"/>
       </defs>
       <use xlink:href="#DejaVuSans-2212"/>
       <use xlink:href="#DejaVuSans-30" x="83.789062"/>
       <use xlink:href="#DejaVuSans-2e" x="147.412109"/>
       <use xlink:href="#DejaVuSans-35" x="179.199219"/>
      </g>
     </g>
    </g>
    <g id="ytick_3">
     <g id="line2d_9">
      <g>
       <use xlink:href="#m8b7d2a12df" x="56.18" y="63.62" style="stroke: #000000; stroke-width: 0.8"/>
      </g>
     </g>
     <g id="text_10">
      <!-- 0.0 -->
      <g transform="translate(33.276875 67.419219) scale(0.1 -0.1)">
       <use xlink:href="#DejaVuSans-30"/>
       <use xlink:href="#DejaVuSans-2e" x="63.623047"/>
       <use xlink:href="#DejaVuSans-30" x="95.410156"/>
      </g>
     </g>
    </g>
    <g id="ytick_4">
     <g id="line2d_10">
      <g>
       <use xlink:href="#m8b7d2a12df" x="56.18" y="39.610909" style="stroke: #000000; stroke-width: 0.8"/>
      </g>
     </g>
     <g id="text_11">
      <!-- 0.5 -->
      <g transform="translate(33.276875 43.410128) scale(0.1 -0.1)">
       <use xlink:href="#DejaVuSans-30"/>
       <use xlink:href="#DejaVuSans-2e" x="63.623047"/>
       <use xlink:href="#DejaVuSans-35" x="95.410156"/>
      </g>
     </g>
    </g>
    <g id="ytick_5">
     <g id="line2d_11">
      <g>
       <use xlink:href="#m8b7d2a12df" x="56.18" y="15.601818" style="stroke: #000000; stroke-width: 0.8"/>
      </g>
     </g>
     <g id="text_12">
      <!-- 1.0 -->
      <g transform="translate(33.276875 19.401037) scale(0.1 -0.1)">
       <use xlink:href="#DejaVuSans-31"/>
       <use xlink:href="#DejaVuSans-2e" x="63.623047"/>
       <use xlink:href="#DejaVuSans-30" x="95.410156"/>
      </g>
     </g>
    </g>
    <g id="text_13">
     <!-- X-Axis Value -->
     <g transform="translate(18.8175 94.180156) rotate(-90) scale(0.1 -0.1)">
      <defs>
       <path id="DejaVuSans-58" d="M 403 4666 
L 1081 4666 
L 2241 2931 
L 3406 4666 
L 4084 4666 
L 2584 2425 
L 4184 0 
L 3506 0 
L 2194 1984 
L 872 0 
L 191 0 
L 1856 2491 
L 403 4666 
z
" transform="scale(0.015625)"/>
       <path id="DejaVuSans-2d" d="M 313 2009 
L 1997 2009 
L 1997 1497 
L 313 1497 
L 313 2009 
z
" transform="scale(0.015625)"/>
       <path id="DejaVuSans-41" d="M 2188 4044 
L 1331 1722 
L 3047 1722 
L 2188 4044 
z
M 1831 4666 
L 2547 4666 
L 4325 0 
L 3669 0 
L 3244 1197 
L 1141 1197 
L 716 0 
L 50 0 
L 1831 4666 
z
" transform="scale(0.015625)"/>
       <path id="DejaVuSans-78" d="M 3513 3500 
L 2247 1797 
L 3578 0 
L 2900 0 
L 1881 1375 
L 863 0 
L 184 0 
L 1544 1831 
L 300 3500 
L 978 3500 
L 1906 2253 
L 2834 3500 
L 3513 3500 
z
" transform="scale(0.015625)"/>
       <path id="DejaVuSans-56" d="M 1831 0 
L 50 4666 
L 709 4666 
L 2188 738 
L 3669 4666 
L 4325 4666 
L 2547 0 
L 1831 0 
z
" transform="scale(0.015625)"/>
       <path id="DejaVuSans-61" d="M 2194 1759 
Q 1497 1759 1228 1600 
Q 959 1441 959 1056 
Q 959 750 1161 570 
Q 1363 391 1709 391 
Q 2188 391 2477 730 
Q 2766 1069 2766 1631 
L 2766 1759 
L 2194 1759 
z
M 3341 1997 
L 3341 0 
L 2766 0 
L 2766 531 
Q 2569 213 2275 61 
Q 1981 -91 1556 -91 
Q 1019 -91 701 211 
Q 384 513 384 1019 
Q 384 1609 779 1909 
Q 1175 2209 1959 2209 
L 2766 2209 
L 2766 2266 
Q 2766 2663 2505 2880 
Q 2244 3097 1772 3097 
Q 1472 3097 1187 3025 
Q 903 2953 641 2809 
L 641 3341 
Q 956 3463 1253 3523 
Q 1550 3584 1831 3584 
Q 2591 3584 2966 3190 
Q 3341 2797 3341 1997 
z
" transform="scale(0.015625)"/>
       <path id="DejaVuSans-6c" d="M 603 4863 
L 1178 4863 
L 1178 0 
L 603 0 
L 603 4863 
z
" transform="scale(0.015625)"/>
       <path id="DejaVuSans-75" d="M 544 1381 
L 544 3500 
L 1119 3500 
L 1119 1403 
Q 1119 906 1312 657 
Q 1506 409 1894 409 
Q 2359 409 2629 706 
Q 2900 1003 2900 1516 
L 2900 3500 
L 3475 3500 
L 3475 0 
L 2900 0 
L 2900 538 
Q 2691 219 2414 64 
Q 2138 -91 1772 -91 
Q 1169 -91 856 284 
Q 544 659 544 1381 
z
M 1991 3584 
L 1991 3584 
z
" transform="scale(0.015625)"/>
      </defs>
      <use xlink:href="#DejaVuSans-58"/>
      <use xlink:href="#DejaVuSans-2d" x="63.505859"/>
      <use xlink:href="#DejaVuSans-41" x="97.339844"/>
      <use xlink:href="#DejaVuSans-78" x="165.748047"/>
      <use xlink:href="#DejaVuSans-69" x="224.927734"/>
      <use xlink:href="#DejaVuSans-73" x="252.710938"/>
      <use xlink:href="#DejaVuSans-20" x="304.810547"/>
      <use xlink:href="#DejaVuSans-56" x="336.597656"/>
      <use xlink:href="#DejaVuSans-61" x="397.255859"/>
      <use xlink:href="#DejaVuSans-6c" x="458.535156"/>
      <use xlink:href="#DejaVuSans-75" x="486.318359"/>
      <use xlink:href="#DejaVuSans-65" x="549.697266"/>
     </g>
    </g>
   </g>
   <g id="line2d_12">
    <path d="M 56.18 65.060545 
L 126.754658 65.060545 
L 127.142431 65.540727 
L 127.530204 65.060545 
L 127.917977 65.060545 
L 128.30575 65.540727 
L 129.469068 65.540727 
L 129.856841 66.020909 
L 130.632387 66.020909 
L 131.02016 66.501091 
L 132.571251 66.501091 
L 132.959024 66.981273 
L 133.346797 66.981273 
L 133.73457 67.461455 
L 134.122343 67.461455 
L 134.897888 68.421818 
L 135.285661 68.421818 
L 135.673434 68.902 
L 136.836752 68.902 
L 137.224525 69.382182 
L 138.387844 69.382182 
L 138.775617 69.862364 
L 139.16339 69.862364 
L 139.551162 69.382182 
L 140.326708 69.382182 
L 140.714481 69.862364 
L 141.102254 69.382182 
L 141.490027 69.862364 
L 141.877799 69.382182 
L 145.367755 69.382182 
L 145.755528 69.862364 
L 146.143301 69.382182 
L 146.918846 69.382182 
L 147.306619 69.862364 
L 147.694392 69.382182 
L 148.082165 69.862364 
L 148.857711 69.862364 
L 149.245484 69.382182 
L 149.633256 69.382182 
L 150.021029 69.862364 
L 150.408802 69.382182 
L 150.796575 69.862364 
L 151.184348 69.382182 
L 151.959894 69.382182 
L 152.347666 69.862364 
L 153.510985 69.862364 
L 153.898758 69.382182 
L 154.286531 69.862364 
L 154.674303 69.382182 
L 155.449849 69.382182 
L 155.837622 69.862364 
L 156.225395 69.382182 
L 156.613168 69.382182 
L 157.000941 69.862364 
L 157.388713 69.382182 
L 157.776486 69.382182 
L 158.164259 69.862364 
L 158.552032 69.862364 
L 158.939805 69.382182 
L 159.327578 69.862364 
L 159.71535 69.382182 
L 160.103123 69.862364 
L 160.490896 69.862364 
L 160.878669 69.382182 
L 161.266442 69.862364 
L 161.654215 69.382182 
L 162.041988 69.862364 
L 162.42976 69.382182 
L 162.817533 69.382182 
L 163.205306 69.862364 
L 163.980852 69.862364 
L 164.368625 69.382182 
L 165.14417 69.382182 
L 165.531943 69.862364 
L 166.695262 69.862364 
L 167.083035 69.382182 
L 167.470807 69.862364 
L 167.85858 69.862364 
L 168.246353 69.382182 
L 168.634126 69.862364 
L 169.021899 69.382182 
L 169.409672 69.862364 
L 169.797445 69.382182 
L 170.57299 69.382182 
L 170.960763 69.862364 
L 171.348536 69.382182 
L 171.736309 69.862364 
L 172.124082 69.382182 
L 173.675173 69.382182 
L 174.062946 68.902 
L 174.450719 67.941636 
L 176.777356 65.060545 
L 177.165129 65.060545 
L 178.328447 63.62 
L 178.71622 62.179455 
L 179.103993 61.699273 
L 179.491766 60.738909 
L 181.818403 57.857818 
L 182.206176 57.857818 
L 182.593949 56.897455 
L 183.369494 55.937091 
L 183.757267 54.976727 
L 184.14504 54.496545 
L 184.920586 52.575818 
L 185.308358 52.095636 
L 185.696131 51.135273 
L 186.083904 50.655091 
L 186.85945 48.734364 
L 187.247223 48.734364 
L 188.410541 47.293818 
L 188.798314 46.333455 
L 189.186087 45.853273 
L 189.57386 44.892909 
L 189.961633 44.412727 
L 190.349406 43.452364 
L 191.512724 42.011818 
L 192.28827 40.091091 
L 192.676043 39.610909 
L 193.063815 38.650545 
L 194.227134 37.21 
L 194.614907 36.249636 
L 195.778225 34.809091 
L 196.165998 33.848727 
L 197.71709 31.928 
L 198.492635 31.928 
L 198.880408 31.447818 
L 199.268181 31.447818 
L 199.655954 30.967636 
L 200.819272 30.967636 
L 201.207045 30.487455 
L 201.594818 30.487455 
L 202.370364 29.527091 
L 203.145909 29.527091 
L 203.533682 29.046909 
L 203.921455 29.046909 
L 204.697001 28.086545 
L 205.084774 28.086545 
L 205.860319 27.126182 
L 206.248092 27.126182 
L 206.635865 26.646 
L 207.023638 26.646 
L 207.411411 26.165818 
L 208.574729 26.165818 
L 208.962502 25.685636 
L 209.738048 25.685636 
L 210.125821 25.205455 
L 210.513594 25.205455 
L 210.901366 24.725273 
L 211.289139 24.725273 
L 212.452458 23.284727 
L 217.493505 23.284727 
L 217.881278 22.804545 
L 218.269051 23.284727 
L 218.656823 22.804545 
L 243.862059 22.804545 
L 244.249831 23.284727 
L 245.41315 23.284727 
L 245.800923 23.764909 
L 246.188696 23.764909 
L 246.964241 24.725273 
L 247.352014 24.725273 
L 248.12756 25.685636 
L 248.515333 25.685636 
L 249.290878 26.646 
L 249.678651 26.646 
L 252.005288 29.527091 
L 252.393061 30.487455 
L 252.780834 30.967636 
L 253.168607 30.967636 
L 253.55638 31.928 
L 253.944153 31.928 
L 254.719698 32.888364 
L 255.495244 34.809091 
L 258.597427 38.650545 
L 258.9852 39.610909 
L 259.372972 40.091091 
L 260.536291 42.972182 
L 260.924064 43.452364 
L 261.69961 46.333455 
L 262.087382 48.254182 
L 262.475155 48.734364 
L 263.250701 51.615455 
L 264.026247 53.536182 
L 264.41402 55.456909 
L 265.189565 56.417273 
L 265.965111 58.338 
L 266.352884 59.778545 
L 267.516202 62.659636 
L 267.903975 63.139818 
L 268.291748 63.139818 
L 268.679521 64.100182 
L 269.067294 64.100182 
L 269.455067 65.060545 
L 269.842839 65.540727 
L 270.230612 67.461455 
L 270.618385 68.421818 
L 271.006158 68.421818 
L 272.169476 71.302909 
L 272.557249 72.743455 
L 272.945022 73.703818 
L 273.332795 74.184 
L 273.720568 75.144364 
L 274.108341 75.624545 
L 274.496114 76.584909 
L 275.271659 77.545273 
L 275.659432 78.505636 
L 276.047205 78.985818 
L 277.598296 82.827273 
L 279.149388 84.748 
L 280.700479 88.589455 
L 281.088252 88.589455 
L 281.863798 89.549818 
L 282.251571 89.549818 
L 282.639343 90.510182 
L 283.027116 90.990364 
L 283.414889 91.950727 
L 283.802662 92.430909 
L 284.190435 93.391273 
L 285.353753 94.831818 
L 285.741526 95.792182 
L 286.129299 95.792182 
L 288.068163 98.193091 
L 288.455936 98.193091 
L 288.843709 98.673273 
L 289.231482 98.673273 
L 290.007028 99.633636 
L 290.782573 101.554364 
L 291.170346 102.034545 
L 291.558119 102.034545 
L 292.333665 102.994909 
L 292.721437 102.994909 
L 293.10921 103.475091 
L 293.496983 103.475091 
L 294.660302 104.915636 
L 295.048075 104.915636 
L 295.435847 105.395818 
L 295.82362 105.395818 
L 296.211393 105.876 
L 296.599166 105.876 
L 296.986939 106.356182 
L 297.374712 106.356182 
L 297.762484 106.836364 
L 299.313576 106.836364 
L 299.701349 107.316545 
L 300.476894 107.316545 
L 300.864667 107.796727 
L 301.25244 107.796727 
L 301.640213 108.276909 
L 304.354623 108.276909 
L 304.742396 108.757091 
L 305.130169 108.276909 
L 305.517941 108.757091 
L 309.007897 108.757091 
L 309.39567 109.237273 
L 325.294357 109.237273 
L 325.68213 109.717455 
L 326.069902 109.237273 
L 327.620994 109.237273 
L 328.396539 108.276909 
L 329.172085 108.276909 
L 330.335404 106.836364 
L 330.723177 106.836364 
L 331.498722 105.876 
L 331.886495 105.876 
L 332.662041 104.915636 
L 333.825359 104.915636 
L 334.213132 104.435455 
L 334.600905 104.435455 
L 336.927542 101.554364 
L 337.315315 100.113818 
L 337.703088 99.153455 
L 338.866406 97.712909 
L 339.254179 97.712909 
L 340.029725 96.752545 
L 340.805271 94.831818 
L 341.193043 94.351636 
L 341.580816 94.351636 
L 341.968589 93.871455 
L 342.356362 92.911091 
L 342.744135 92.430909 
L 343.519681 90.510182 
L 344.682999 89.069636 
L 346.621863 84.267818 
L 347.009636 83.787636 
L 347.397409 82.827273 
L 347.785182 82.347091 
L 348.172955 81.386727 
L 348.9485 80.426364 
L 349.336273 79.466 
L 350.111819 78.505636 
L 350.499592 78.505636 
L 350.887365 77.545273 
L 351.66291 76.584909 
L 352.050683 76.584909 
L 352.826229 75.624545 
L 353.601775 73.703818 
L 353.989547 73.223636 
L 354.37732 72.263273 
L 355.540639 70.822727 
L 355.928412 70.822727 
L 357.09173 69.382182 
L 357.479503 68.421818 
L 357.867276 68.421818 
L 358.255049 67.941636 
L 358.642822 66.501091 
L 359.030594 66.020909 
L 359.418367 65.060545 
L 359.80614 64.580364 
L 360.193913 64.580364 
L 360.581686 64.100182 
L 360.969459 64.100182 
L 362.52055 62.179455 
L 363.296096 62.179455 
L 363.683869 61.699273 
L 364.071642 61.699273 
L 364.459414 61.219091 
L 365.622733 61.219091 
L 366.010506 60.738909 
L 367.561597 60.738909 
L 367.94937 60.258727 
L 391.215741 60.258727 
L 391.603514 59.778545 
L 391.991287 60.258727 
L 392.379059 59.778545 
L 392.766832 60.258727 
L 393.154605 60.258727 
L 393.542378 59.778545 
L 393.930151 60.258727 
L 394.317924 59.778545 
L 395.869015 59.778545 
L 396.256788 59.298364 
L 396.644561 59.778545 
L 397.032334 59.298364 
L 414.869885 59.298364 
L 415.257657 59.778545 
L 417.196522 59.778545 
L 417.584295 60.258727 
L 419.135386 60.258727 
L 419.523159 60.738909 
L 419.910932 60.738909 
L 420.298705 61.219091 
L 420.686477 61.219091 
L 421.462023 62.179455 
L 421.849796 62.179455 
L 423.400887 64.100182 
L 425.339752 64.100182 
L 425.727524 64.580364 
L 426.115297 64.100182 
L 426.50307 64.100182 
L 426.890843 64.580364 
L 428.054161 64.580364 
L 428.441934 64.100182 
L 428.829707 64.100182 
L 429.21748 64.580364 
L 493.2 64.580364 
L 493.2 64.580364 
" clip-path="url(#pc450801023)" style="fill: none; stroke: #1f77b4; stroke-width: 1.5; stroke-linecap: square"/>
   </g>
   <g id="line2d_13">
    <path d="M 56.18 63.62 
L 493.2 63.62 
" clip-path="url(#pc450801023)" style="fill: none; stroke-dasharray: 2.96,1.28; stroke-dashoffset: 0; stroke: #808080; stroke-width: 0.8"/>
   </g>
   <g id="patch_3">
    <path d="M 56.18 116.44 
L 56.18 10.8 
" style="fill: none; stroke: #000000; stroke-width: 0.8; stroke-linejoin: miter; stroke-linecap: square"/>
   </g>
   <g id="patch_4">
    <path d="M 56.18 116.44 
L 493.2 116.44 
" style="fill: none; stroke: #000000; stroke-width: 0.8; stroke-linejoin: miter; stroke-linecap: square"/>
   </g>
  </g>
  <g id="axes_2">
   <g id="patch_5">
    <path d="M 56.18 264.04 
L 493.2 264.04 
L 493.2 158.4 
L 56.18 158.4 
z
" style="fill: #ffffff"/>
   </g>
   <g id="matplotlib.axis_3">
    <g id="xtick_7">
     <g id="line2d_14">
      <g>
       <use xlink:href="#m928ba3d7cd" x="56.18" y="264.04" style="stroke: #000000; stroke-width: 0.8"/>
      </g>
     </g>
     <g id="text_14">
      <!-- 0 -->
      <g transform="translate(52.99875 278.638438) scale(0.1 -0.1)">
       <use xlink:href="#DejaVuSans-30"/>
      </g>
     </g>
    </g>
    <g id="xtick_8">
     <g id="line2d_15">
      <g>
       <use xlink:href="#m928ba3d7cd" x="133.73457" y="264.04" style="stroke: #000000; stroke-width: 0.8"/>
      </g>
     </g>
     <g id="text_15">
      <!-- 2000 -->
      <g transform="translate(121.00957 278.638438) scale(0.1 -0.1)">
       <use xlink:href="#DejaVuSans-32"/>
       <use xlink:href="#DejaVuSans-30" x="63.623047"/>
       <use xlink:href="#DejaVuSans-30" x="127.246094"/>
       <use xlink:href="#DejaVuSans-30" x="190.869141"/>
      </g>
     </g>
    </g>
    <g id="xtick_9">
     <g id="line2d_16">
      <g>
       <use xlink:href="#m928ba3d7cd" x="211.289139" y="264.04" style="stroke: #000000; stroke-width: 0.8"/>
      </g>
     </g>
     <g id="text_16">
      <!-- 4000 -->
      <g transform="translate(198.564139 278.638438) scale(0.1 -0.1)">
       <use xlink:href="#DejaVuSans-34"/>
       <use xlink:href="#DejaVuSans-30" x="63.623047"/>
       <use xlink:href="#DejaVuSans-30" x="127.246094"/>
       <use xlink:href="#DejaVuSans-30" x="190.869141"/>
      </g>
     </g>
    </g>
    <g id="xtick_10">
     <g id="line2d_17">
      <g>
       <use xlink:href="#m928ba3d7cd" x="288.843709" y="264.04" style="stroke: #000000; stroke-width: 0.8"/>
      </g>
     </g>
     <g id="text_17">
      <!-- 6000 -->
      <g transform="translate(276.118709 278.638438) scale(0.1 -0.1)">
       <use xlink:href="#DejaVuSans-36"/>
       <use xlink:href="#DejaVuSans-30" x="63.623047"/>
       <use xlink:href="#DejaVuSans-30" x="127.246094"/>
       <use xlink:href="#DejaVuSans-30" x="190.869141"/>
      </g>
     </g>
    </g>
    <g id="xtick_11">
     <g id="line2d_18">
      <g>
       <use xlink:href="#m928ba3d7cd" x="366.398279" y="264.04" style="stroke: #000000; stroke-width: 0.8"/>
      </g>
     </g>
     <g id="text_18">
      <!-- 8000 -->
      <g transform="translate(353.673279 278.638438) scale(0.1 -0.1)">
       <use xlink:href="#DejaVuSans-38"/>
       <use xlink:href="#DejaVuSans-30" x="63.623047"/>
       <use xlink:href="#DejaVuSans-30" x="127.246094"/>
       <use xlink:href="#DejaVuSans-30" x="190.869141"/>
      </g>
     </g>
    </g>
    <g id="xtick_12">
     <g id="line2d_19">
      <g>
       <use xlink:href="#m928ba3d7cd" x="443.952848" y="264.04" style="stroke: #000000; stroke-width: 0.8"/>
      </g>
     </g>
     <g id="text_19">
      <!-- 10000 -->
      <g transform="translate(428.046598 278.638438) scale(0.1 -0.1)">
       <use xlink:href="#DejaVuSans-31"/>
       <use xlink:href="#DejaVuSans-30" x="63.623047"/>
       <use xlink:href="#DejaVuSans-30" x="127.246094"/>
       <use xlink:href="#DejaVuSans-30" x="190.869141"/>
       <use xlink:href="#DejaVuSans-30" x="254.492188"/>
      </g>
     </g>
    </g>
    <g id="text_20">
     <!-- Time (ms) -->
     <g transform="translate(249.490781 292.316563) scale(0.1 -0.1)">
      <use xlink:href="#DejaVuSans-54"/>
      <use xlink:href="#DejaVuSans-69" x="57.958984"/>
      <use xlink:href="#DejaVuSans-6d" x="85.742188"/>
      <use xlink:href="#DejaVuSans-65" x="183.154297"/>
      <use xlink:href="#DejaVuSans-20" x="244.677734"/>
      <use xlink:href="#DejaVuSans-28" x="276.464844"/>
      <use xlink:href="#DejaVuSans-6d" x="315.478516"/>
      <use xlink:href="#DejaVuSans-73" x="412.890625"/>
      <use xlink:href="#DejaVuSans-29" x="464.990234"/>
     </g>
    </g>
   </g>
   <g id="matplotlib.axis_4">
    <g id="ytick_6">
     <g id="line2d_20">
      <g>
       <use xlink:href="#m8b7d2a12df" x="56.18" y="259.238182" style="stroke: #000000; stroke-width: 0.8"/>
      </g>
     </g>
     <g id="text_21">
      <!-- −1.0 -->
      <g transform="translate(24.897188 263.037401) scale(0.1 -0.1)">
       <use xlink:href="#DejaVuSans-2212"/>
       <use xlink:href="#DejaVuSans-31" x="83.789062"/>
       <use xlink:href="#DejaVuSans-2e" x="147.412109"/>
       <use xlink:href="#DejaVuSans-30" x="179.199219"/>
      </g>
     </g>
    </g>
    <g id="ytick_7">
     <g id="line2d_21">
      <g>
       <use xlink:href="#m8b7d2a12df" x="56.18" y="235.229091" style="stroke: #000000; stroke-width: 0.8"/>
      </g>
     </g>
     <g id="text_22">
      <!-- −0.5 -->
      <g transform="translate(24.897188 239.02831) scale(0.1 -0.1)">
       <use xlink:href="#DejaVuSans-2212"/>
       <use xlink:href="#DejaVuSans-30" x="83.789062"/>
       <use xlink:href="#DejaVuSans-2e" x="147.412109"/>
       <use xlink:href="#DejaVuSans-35" x="179.199219"/>
      </g>
     </g>
    </g>
    <g id="ytick_8">
     <g id="line2d_22">
      <g>
       <use xlink:href="#m8b7d2a12df" x="56.18" y="211.22" style="stroke: #000000; stroke-width: 0.8"/>
      </g>
     </g>
     <g id="text_23">
      <!-- 0.0 -->
      <g transform="translate(33.276875 215.019219) scale(0.1 -0.1)">
       <use xlink:href="#DejaVuSans-30"/>
       <use xlink:href="#DejaVuSans-2e" x="63.623047"/>
       <use xlink:href="#DejaVuSans-30" x="95.410156"/>
      </g>
     </g>
    </g>
    <g id="ytick_9">
     <g id="line2d_23">
      <g>
       <use xlink:href="#m8b7d2a12df" x="56.18" y="187.210909" style="stroke: #000000; stroke-width: 0.8"/>
      </g>
     </g>
     <g id="text_24">
      <!-- 0.5 -->
      <g transform="translate(33.276875 191.010128) scale(0.1 -0.1)">
       <use xlink:href="#DejaVuSans-30"/>
       <use xlink:href="#DejaVuSans-2e" x="63.623047"/>
       <use xlink:href="#DejaVuSans-35" x="95.410156"/>
      </g>
     </g>
    </g>
    <g id="ytick_10">
     <g id="line2d_24">
      <g>
       <use xlink:href="#m8b7d2a12df" x="56.18" y="163.201818" style="stroke: #000000; stroke-width: 0.8"/>
      </g>
     </g>
     <g id="text_25">
      <!-- 1.0 -->
      <g transform="translate(33.276875 167.001037) scale(0.1 -0.1)">
       <use xlink:href="#DejaVuSans-31"/>
       <use xlink:href="#DejaVuSans-2e" x="63.623047"/>
       <use xlink:href="#DejaVuSans-30" x="95.410156"/>
      </g>
     </g>
    </g>
    <g id="text_26">
     <!-- Y-Axis Value -->
     <g transform="translate(18.8175 241.065313) rotate(-90) scale(0.1 -0.1)">
      <defs>
       <path id="DejaVuSans-59" d="M -13 4666 
L 666 4666 
L 1959 2747 
L 3244 4666 
L 3922 4666 
L 2272 2222 
L 2272 0 
L 1638 0 
L 1638 2222 
L -13 4666 
z
" transform="scale(0.015625)"/>
      </defs>
      <use xlink:href="#DejaVuSans-59"/>
      <use xlink:href="#DejaVuSans-2d" x="49.208984"/>
      <use xlink:href="#DejaVuSans-41" x="83.042969"/>
      <use xlink:href="#DejaVuSans-78" x="151.451172"/>
      <use xlink:href="#DejaVuSans-69" x="210.630859"/>
      <use xlink:href="#DejaVuSans-73" x="238.414062"/>
      <use xlink:href="#DejaVuSans-20" x="290.513672"/>
      <use xlink:href="#DejaVuSans-56" x="322.300781"/>
      <use xlink:href="#DejaVuSans-61" x="382.958984"/>
      <use xlink:href="#DejaVuSans-6c" x="444.238281"/>
      <use xlink:href="#DejaVuSans-75" x="472.021484"/>
      <use xlink:href="#DejaVuSans-65" x="535.400391"/>
     </g>
    </g>
   </g>
   <g id="line2d_25">
    <path d="M 56.18 210.259636 
L 110.468199 210.259636 
L 110.855972 209.779455 
L 112.01929 209.779455 
L 112.407063 209.299273 
L 113.182609 209.299273 
L 113.570382 208.819091 
L 113.958154 208.819091 
L 114.345927 208.338909 
L 114.7337 208.338909 
L 115.121473 207.858727 
L 116.284791 207.858727 
L 116.672564 207.378545 
L 122.489157 207.378545 
L 122.87693 206.898364 
L 123.264703 205.457818 
L 123.652476 204.497455 
L 124.428021 201.136182 
L 124.815794 200.656 
L 125.203567 199.695636 
L 125.59134 199.215455 
L 126.754658 196.334364 
L 127.142431 196.334364 
L 128.30575 194.893818 
L 128.693523 194.893818 
L 129.081295 194.413636 
L 130.244614 194.413636 
L 130.632387 193.453273 
L 131.02016 192.973091 
L 131.795705 191.052364 
L 132.571251 188.171273 
L 132.959024 187.210909 
L 133.73457 184.329818 
L 134.122343 183.849636 
L 134.897888 180.488364 
L 136.061207 176.166727 
L 136.44898 174.246 
L 136.836752 171.364909 
L 137.224525 167.523455 
L 137.612298 167.043273 
L 138.775617 167.043273 
L 139.16339 166.563091 
L 171.348536 166.563091 
L 171.736309 166.082909 
L 175.226264 166.082909 
L 175.614037 165.602727 
L 186.083904 165.602727 
L 186.471677 166.082909 
L 188.022768 166.082909 
L 188.410541 166.563091 
L 188.798314 166.563091 
L 189.186087 167.043273 
L 189.57386 167.043273 
L 189.961633 167.523455 
L 190.349406 167.523455 
L 191.512724 168.964 
L 192.28827 168.964 
L 193.839361 170.884727 
L 194.227134 170.884727 
L 196.941544 174.246 
L 197.329317 174.246 
L 197.71709 174.726182 
L 198.880408 174.726182 
L 199.268181 175.206364 
L 199.655954 175.206364 
L 200.043727 175.686545 
L 200.819272 175.686545 
L 201.207045 176.166727 
L 201.594818 176.166727 
L 202.370364 177.127091 
L 203.533682 177.127091 
L 203.921455 177.607273 
L 204.309228 177.607273 
L 204.697001 178.087455 
L 205.084774 179.047818 
L 205.472547 179.528 
L 205.860319 179.528 
L 206.248092 180.008182 
L 206.635865 180.008182 
L 207.799184 181.448727 
L 208.574729 181.448727 
L 208.962502 181.928909 
L 209.350275 181.928909 
L 210.125821 182.889273 
L 210.513594 183.849636 
L 211.676912 185.290182 
L 212.064685 186.250545 
L 212.452458 186.250545 
L 212.840231 186.730727 
L 214.003549 186.730727 
L 214.391322 187.210909 
L 217.881278 187.210909 
L 218.269051 187.691091 
L 220.207915 187.691091 
L 220.595688 188.171273 
L 220.983461 188.171273 
L 221.371233 188.651455 
L 222.922325 188.651455 
L 223.310098 189.131636 
L 224.085643 189.131636 
L 224.861189 190.092 
L 225.248962 191.532545 
L 225.636735 192.012727 
L 227.187826 197.774909 
L 228.351145 203.056909 
L 228.738917 204.497455 
L 229.12669 206.418182 
L 229.514463 207.378545 
L 230.290009 210.259636 
L 230.677782 210.739818 
L 231.453327 212.660545 
L 231.8411 214.101091 
L 232.616646 216.021818 
L 233.004419 217.462364 
L 233.392192 218.422727 
L 233.779965 219.863273 
L 234.167737 220.823636 
L 235.718829 226.585818 
L 236.106602 227.546182 
L 236.882147 230.427273 
L 237.26992 230.427273 
L 237.657693 230.907455 
L 241.147649 230.907455 
L 241.535421 231.387636 
L 241.923194 231.387636 
L 242.310967 231.867818 
L 243.086513 231.867818 
L 243.474286 232.348 
L 243.862059 232.348 
L 244.249831 232.828182 
L 244.637604 232.828182 
L 245.025377 233.308364 
L 245.800923 233.308364 
L 246.576469 234.268727 
L 246.964241 234.268727 
L 250.066424 238.110182 
L 250.454197 238.110182 
L 250.84197 239.070545 
L 252.393061 240.991273 
L 252.780834 241.951636 
L 254.719698 244.352545 
L 255.107471 245.312909 
L 255.883017 246.273273 
L 256.27079 247.233636 
L 258.209654 249.634545 
L 258.597427 250.594909 
L 258.9852 250.594909 
L 259.372972 251.075091 
L 259.760745 252.035455 
L 261.311837 253.956182 
L 261.69961 253.956182 
L 262.087382 254.916545 
L 262.475155 255.396727 
L 263.250701 255.396727 
L 263.638474 255.876909 
L 264.801792 255.876909 
L 265.189565 256.357091 
L 271.393931 256.357091 
L 271.781704 256.837273 
L 272.169476 256.357091 
L 272.557249 256.357091 
L 272.945022 256.837273 
L 273.720568 256.837273 
L 274.108341 256.357091 
L 275.659432 256.357091 
L 276.047205 255.876909 
L 276.822751 255.876909 
L 277.210524 255.396727 
L 277.598296 255.396727 
L 278.761615 253.956182 
L 279.149388 253.956182 
L 280.700479 252.035455 
L 281.476025 252.035455 
L 281.863798 251.555273 
L 282.251571 251.555273 
L 283.027116 250.594909 
L 283.414889 249.634545 
L 283.802662 249.634545 
L 284.190435 249.154364 
L 284.578208 249.154364 
L 284.96598 248.194 
L 285.353753 247.713818 
L 285.741526 247.713818 
L 286.129299 247.233636 
L 286.517072 247.233636 
L 286.904845 246.753455 
L 287.292618 245.793091 
L 288.455936 244.352545 
L 289.231482 244.352545 
L 290.007028 243.392182 
L 290.782573 241.471455 
L 291.945892 240.030909 
L 292.333665 239.070545 
L 292.721437 238.590364 
L 293.10921 238.590364 
L 293.496983 238.110182 
L 294.272529 236.189455 
L 294.660302 235.709273 
L 295.048075 234.748909 
L 295.435847 234.268727 
L 295.82362 234.268727 
L 296.599166 233.308364 
L 296.986939 233.308364 
L 298.150257 231.867818 
L 298.925803 231.867818 
L 299.313576 231.387636 
L 299.701349 231.387636 
L 300.476894 230.427273 
L 300.864667 230.427273 
L 302.027986 228.986727 
L 302.415759 228.986727 
L 302.803531 228.506545 
L 303.191304 228.506545 
L 303.579077 228.026364 
L 305.517941 228.026364 
L 305.905714 227.546182 
L 309.783443 227.546182 
L 310.171216 227.066 
L 314.048944 227.066 
L 314.436717 226.585818 
L 314.82449 226.585818 
L 315.987808 225.145273 
L 316.763354 223.224545 
L 317.5389 220.343455 
L 319.477764 210.259636 
L 321.028855 200.175818 
L 321.416628 196.814545 
L 322.192174 195.854182 
L 322.96772 195.854182 
L 323.355492 195.374 
L 324.518811 195.374 
L 324.906584 194.893818 
L 326.457675 194.893818 
L 327.233221 193.933455 
L 327.620994 192.973091 
L 328.008767 192.973091 
L 329.172085 191.532545 
L 329.947631 189.611818 
L 330.723177 188.651455 
L 331.110949 187.691091 
L 331.498722 187.691091 
L 332.662041 186.250545 
L 333.049814 186.250545 
L 334.213132 184.81 
L 334.600905 184.81 
L 335.764224 183.369455 
L 336.151996 181.928909 
L 336.539769 181.448727 
L 336.927542 180.008182 
L 338.090861 177.127091 
L 338.478634 177.127091 
L 339.254179 176.166727 
L 339.641952 175.206364 
L 340.417498 174.246 
L 340.805271 173.285636 
L 341.193043 172.805455 
L 341.580816 172.805455 
L 342.356362 171.845091 
L 342.744135 171.845091 
L 343.519681 170.884727 
L 343.907453 170.884727 
L 345.070772 169.444182 
L 345.458545 169.444182 
L 346.234091 168.483818 
L 346.621863 168.483818 
L 347.009636 168.003636 
L 347.397409 168.003636 
L 347.785182 167.523455 
L 348.172955 167.523455 
L 348.560728 167.043273 
L 349.724046 167.043273 
L 350.111819 166.563091 
L 352.438456 166.563091 
L 352.826229 166.082909 
L 354.37732 166.082909 
L 354.765093 165.602727 
L 386.562467 165.602727 
L 386.95024 165.122545 
L 387.338012 165.602727 
L 387.725785 165.602727 
L 388.113558 165.122545 
L 391.991287 165.122545 
L 392.379059 165.602727 
L 392.766832 165.122545 
L 393.542378 165.122545 
L 393.930151 165.602727 
L 394.317924 165.122545 
L 394.705697 165.122545 
L 395.093469 165.602727 
L 407.889973 165.602727 
L 408.277746 166.082909 
L 410.992156 166.082909 
L 412.155475 167.523455 
L 412.543248 168.483818 
L 413.318793 171.364909 
L 414.869885 179.528 
L 415.64543 183.849636 
L 416.420976 187.210909 
L 416.808749 188.651455 
L 417.584295 190.572182 
L 417.972067 192.012727 
L 419.135386 194.893818 
L 419.523159 196.334364 
L 420.298705 198.255091 
L 421.07425 201.616364 
L 421.462023 202.576727 
L 421.849796 204.497455 
L 422.237569 205.457818 
L 422.625342 206.898364 
L 423.013114 207.378545 
L 423.400887 207.378545 
L 423.78866 207.858727 
L 424.176433 207.858727 
L 424.564206 208.338909 
L 426.115297 208.338909 
L 426.890843 209.299273 
L 427.278616 209.299273 
L 427.666389 209.779455 
L 429.21748 209.779455 
L 429.605253 210.259636 
L 493.2 210.259636 
L 493.2 210.259636 
" clip-path="url(#pc73e6f14bc)" style="fill: none; stroke: #1f77b4; stroke-width: 1.5; stroke-linecap: square"/>
   </g>
   <g id="line2d_26">
    <path d="M 56.18 211.22 
L 493.2 211.22 
" clip-path="url(#pc73e6f14bc)" style="fill: none; stroke-dasharray: 2.96,1.28; stroke-dashoffset: 0; stroke: #808080; stroke-width: 0.8"/>
   </g>
   <g id="patch_6">
    <path d="M 56.18 264.04 
L 56.18 158.4 
" style="fill: none; stroke: #000000; stroke-width: 0.8; stroke-linejoin: miter; stroke-linecap: square"/>
   </g>
   <g id="patch_7">
    <path d="M 56.18 264.04 
L 493.2 264.04 
" style="fill: none; stroke: #000000; stroke-width: 0.8; stroke-linejoin: miter; stroke-linecap: square"/>
   </g>
  </g>
 </g>
 <defs>
  <clipPath id="pc450801023">
   <rect x="56.18" y="10.8" width="437.02" height="105.64"/>
  </clipPath>
  <clipPath id="pc73e6f14bc">
   <rect x="56.18" y="158.4" width="437.02" height="105.64"/>
  </clipPath>
 </defs>
</svg>
