<?xml version="1.0" encoding="utf-8" standalone="no"?>
<!DOCTYPE svg PUBLIC "-//W3C//DTD SVG 1.1//EN"
  "http://www.w3.org/Graphics/SVG/1.1/DTD/svg11.dtd">
<svg xmlns:xlink="http://www.w3.org/1999/xlink" width="504pt" height="306pt" viewBox="0 0 504 306" xmlns="http://www.w3.org/2000/svg" version="1.1">
 <metadata>
  <rdf:RDF xmlns:dc="http://purl.org/dc/elements/1.1/" xmlns:cc="http://creativecommons.org/ns#" xmlns:rdf="http://www.w3.org/1999/02/22-rdf-syntax-ns#">
   <cc:Work>
    <dc:type rdf:resource="http://purl.org/dc/dcmitype/StillImage"/>
    <dc:date>2024-06-16T22:16:39.439577</dc:date>
    <dc:format>image/svg+xml</dc:format>
    <dc:creator>
     <cc:Agent>
      <dc:title>Matplotlib v3.8.3, https://matplotlib.org/</dc:title>
     </cc:Agent>
    </dc:creator>
   </cc:Work>
  </rdf:RDF>
 </metadata>
 <defs>
  <style type="text/css">*{stroke-linejoin: round; stroke-linecap: butt}</style>
 </defs>
 <g id="figure_1">
  <g id="patch_1">
   <path d="M 0 306 
L 504 306 
L 504 0 
L 0 0 
z
" style="fill: #ffffff"/>
  </g>
  <g id="axes_1">
   <g id="patch_2">
    <path d="M 56.18 116.44 
L 493.2 116.44 
L 493.2 10.8 
L 56.18 10.8 
z
" style="fill: #ffffff"/>
   </g>
   <g id="matplotlib.axis_1">
    <g id="xtick_1">
     <g id="line2d_1">
      <defs>
       <path id="m4a5fb6b00d" d="M 0 0 
L 0 3.5 
" style="stroke: #000000; stroke-width: 0.8"/>
      </defs>
      <g>
       <use xlink:href="#m4a5fb6b00d" x="56.18" y="116.44" style="stroke: #000000; stroke-width: 0.8"/>
      </g>
     </g>
     <g id="text_1">
      <!-- 0 -->
      <g transform="translate(52.99875 131.038437) scale(0.1 -0.1)">
       <defs>
        <path id="DejaVuSans-30" d="M 2034 4250 
Q 1547 4250 1301 3770 
Q 1056 3291 1056 2328 
Q 1056 1369 1301 889 
Q 1547 409 2034 409 
Q 2525 409 2770 889 
Q 3016 1369 3016 2328 
Q 3016 3291 2770 3770 
Q 2525 4250 2034 4250 
z
M 2034 4750 
Q 2819 4750 3233 4129 
Q 3647 3509 3647 2328 
Q 3647 1150 3233 529 
Q 2819 -91 2034 -91 
Q 1250 -91 836 529 
Q 422 1150 422 2328 
Q 422 3509 836 4129 
Q 1250 4750 2034 4750 
z
" transform="scale(0.015625)"/>
       </defs>
       <use xlink:href="#DejaVuSans-30"/>
      </g>
     </g>
    </g>
    <g id="xtick_2">
     <g id="line2d_2">
      <g>
       <use xlink:href="#m4a5fb6b00d" x="146.622881" y="116.44" style="stroke: #000000; stroke-width: 0.8"/>
      </g>
     </g>
     <g id="text_2">
      <!-- 5000 -->
      <g transform="translate(133.897881 131.038437) scale(0.1 -0.1)">
       <defs>
        <path id="DejaVuSans-35" d="M 691 4666 
L 3169 4666 
L 3169 4134 
L 1269 4134 
L 1269 2991 
Q 1406 3038 1543 3061 
Q 1681 3084 1819 3084 
Q 2600 3084 3056 2656 
Q 3513 2228 3513 1497 
Q 3513 744 3044 326 
Q 2575 -91 1722 -91 
Q 1428 -91 1123 -41 
Q 819 9 494 109 
L 494 744 
Q 775 591 1075 516 
Q 1375 441 1709 441 
Q 2250 441 2565 725 
Q 2881 1009 2881 1497 
Q 2881 1984 2565 2268 
Q 2250 2553 1709 2553 
Q 1456 2553 1204 2497 
Q 953 2441 691 2322 
L 691 4666 
z
" transform="scale(0.015625)"/>
       </defs>
       <use xlink:href="#DejaVuSans-35"/>
       <use xlink:href="#DejaVuSans-30" x="63.623047"/>
       <use xlink:href="#DejaVuSans-30" x="127.246094"/>
       <use xlink:href="#DejaVuSans-30" x="190.869141"/>
      </g>
     </g>
    </g>
    <g id="xtick_3">
     <g id="line2d_3">
      <g>
       <use xlink:href="#m4a5fb6b00d" x="237.065762" y="116.44" style="stroke: #000000; stroke-width: 0.8"/>
      </g>
     </g>
     <g id="text_3">
      <!-- 10000 -->
      <g transform="translate(221.159512 131.038437) scale(0.1 -0.1)">
       <defs>
        <path id="DejaVuSans-31" d="M 794 531 
L 1825 531 
L 1825 4091 
L 703 3866 
L 703 4441 
L 1819 4666 
L 2450 4666 
L 2450 531 
L 3481 531 
L 3481 0 
L 794 0 
L 794 531 
z
" transform="scale(0.015625)"/>
       </defs>
       <use xlink:href="#DejaVuSans-31"/>
       <use xlink:href="#DejaVuSans-30" x="63.623047"/>
       <use xlink:href="#DejaVuSans-30" x="127.246094"/>
       <use xlink:href="#DejaVuSans-30" x="190.869141"/>
       <use xlink:href="#DejaVuSans-30" x="254.492188"/>
      </g>
     </g>
    </g>
    <g id="xtick_4">
     <g id="line2d_4">
      <g>
       <use xlink:href="#m4a5fb6b00d" x="327.508642" y="116.44" style="stroke: #000000; stroke-width: 0.8"/>
      </g>
     </g>
     <g id="text_4">
      <!-- 15000 -->
      <g transform="translate(311.602392 131.038437) scale(0.1 -0.1)">
       <use xlink:href="#DejaVuSans-31"/>
       <use xlink:href="#DejaVuSans-35" x="63.623047"/>
       <use xlink:href="#DejaVuSans-30" x="127.246094"/>
       <use xlink:href="#DejaVuSans-30" x="190.869141"/>
       <use xlink:href="#DejaVuSans-30" x="254.492188"/>
      </g>
     </g>
    </g>
    <g id="xtick_5">
     <g id="line2d_5">
      <g>
       <use xlink:href="#m4a5fb6b00d" x="417.951523" y="116.44" style="stroke: #000000; stroke-width: 0.8"/>
      </g>
     </g>
     <g id="text_5">
      <!-- 20000 -->
      <g transform="translate(402.045273 131.038437) scale(0.1 -0.1)">
       <defs>
        <path id="DejaVuSans-32" d="M 1228 531 
L 3431 531 
L 3431 0 
L 469 0 
L 469 531 
Q 828 903 1448 1529 
Q 2069 2156 2228 2338 
Q 2531 2678 2651 2914 
Q 2772 3150 2772 3378 
Q 2772 3750 2511 3984 
Q 2250 4219 1831 4219 
Q 1534 4219 1204 4116 
Q 875 4013 500 3803 
L 500 4441 
Q 881 4594 1212 4672 
Q 1544 4750 1819 4750 
Q 2544 4750 2975 4387 
Q 3406 4025 3406 3419 
Q 3406 3131 3298 2873 
Q 3191 2616 2906 2266 
Q 2828 2175 2409 1742 
Q 1991 1309 1228 531 
z
" transform="scale(0.015625)"/>
       </defs>
       <use xlink:href="#DejaVuSans-32"/>
       <use xlink:href="#DejaVuSans-30" x="63.623047"/>
       <use xlink:href="#DejaVuSans-30" x="127.246094"/>
       <use xlink:href="#DejaVuSans-30" x="190.869141"/>
       <use xlink:href="#DejaVuSans-30" x="254.492188"/>
      </g>
     </g>
    </g>
    <g id="text_6">
     <!-- Time (ms) -->
     <g transform="translate(249.490781 144.716562) scale(0.1 -0.1)">
      <defs>
       <path id="DejaVuSans-54" d="M -19 4666 
L 3928 4666 
L 3928 4134 
L 2272 4134 
L 2272 0 
L 1638 0 
L 1638 4134 
L -19 4134 
L -19 4666 
z
" transform="scale(0.015625)"/>
       <path id="DejaVuSans-69" d="M 603 3500 
L 1178 3500 
L 1178 0 
L 603 0 
L 603 3500 
z
M 603 4863 
L 1178 4863 
L 1178 4134 
L 603 4134 
L 603 4863 
z
" transform="scale(0.015625)"/>
       <path id="DejaVuSans-6d" d="M 3328 2828 
Q 3544 3216 3844 3400 
Q 4144 3584 4550 3584 
Q 5097 3584 5394 3201 
Q 5691 2819 5691 2113 
L 5691 0 
L 5113 0 
L 5113 2094 
Q 5113 2597 4934 2840 
Q 4756 3084 4391 3084 
Q 3944 3084 3684 2787 
Q 3425 2491 3425 1978 
L 3425 0 
L 2847 0 
L 2847 2094 
Q 2847 2600 2669 2842 
Q 2491 3084 2119 3084 
Q 1678 3084 1418 2786 
Q 1159 2488 1159 1978 
L 1159 0 
L 581 0 
L 581 3500 
L 1159 3500 
L 1159 2956 
Q 1356 3278 1631 3431 
Q 1906 3584 2284 3584 
Q 2666 3584 2933 3390 
Q 3200 3197 3328 2828 
z
" transform="scale(0.015625)"/>
       <path id="DejaVuSans-65" d="M 3597 1894 
L 3597 1613 
L 953 1613 
Q 991 1019 1311 708 
Q 1631 397 2203 397 
Q 2534 397 2845 478 
Q 3156 559 3463 722 
L 3463 178 
Q 3153 47 2828 -22 
Q 2503 -91 2169 -91 
Q 1331 -91 842 396 
Q 353 884 353 1716 
Q 353 2575 817 3079 
Q 1281 3584 2069 3584 
Q 2775 3584 3186 3129 
Q 3597 2675 3597 1894 
z
M 3022 2063 
Q 3016 2534 2758 2815 
Q 2500 3097 2075 3097 
Q 1594 3097 1305 2825 
Q 1016 2553 972 2059 
L 3022 2063 
z
" transform="scale(0.015625)"/>
       <path id="DejaVuSans-20" transform="scale(0.015625)"/>
       <path id="DejaVuSans-28" d="M 1984 4856 
Q 1566 4138 1362 3434 
Q 1159 2731 1159 2009 
Q 1159 1288 1364 580 
Q 1569 -128 1984 -844 
L 1484 -844 
Q 1016 -109 783 600 
Q 550 1309 550 2009 
Q 550 2706 781 3412 
Q 1013 4119 1484 4856 
L 1984 4856 
z
" transform="scale(0.015625)"/>
       <path id="DejaVuSans-73" d="M 2834 3397 
L 2834 2853 
Q 2591 2978 2328 3040 
Q 2066 3103 1784 3103 
Q 1356 3103 1142 2972 
Q 928 2841 928 2578 
Q 928 2378 1081 2264 
Q 1234 2150 1697 2047 
L 1894 2003 
Q 2506 1872 2764 1633 
Q 3022 1394 3022 966 
Q 3022 478 2636 193 
Q 2250 -91 1575 -91 
Q 1294 -91 989 -36 
Q 684 19 347 128 
L 347 722 
Q 666 556 975 473 
Q 1284 391 1588 391 
Q 1994 391 2212 530 
Q 2431 669 2431 922 
Q 2431 1156 2273 1281 
Q 2116 1406 1581 1522 
L 1381 1569 
Q 847 1681 609 1914 
Q 372 2147 372 2553 
Q 372 3047 722 3315 
Q 1072 3584 1716 3584 
Q 2034 3584 2315 3537 
Q 2597 3491 2834 3397 
z
" transform="scale(0.015625)"/>
       <path id="DejaVuSans-29" d="M 513 4856 
L 1013 4856 
Q 1481 4119 1714 3412 
Q 1947 2706 1947 2009 
Q 1947 1309 1714 600 
Q 1481 -109 1013 -844 
L 513 -844 
Q 928 -128 1133 580 
Q 1338 1288 1338 2009 
Q 1338 2731 1133 3434 
Q 928 4138 513 4856 
z
" transform="scale(0.015625)"/>
      </defs>
      <use xlink:href="#DejaVuSans-54"/>
      <use xlink:href="#DejaVuSans-69" x="57.958984"/>
      <use xlink:href="#DejaVuSans-6d" x="85.742188"/>
      <use xlink:href="#DejaVuSans-65" x="183.154297"/>
      <use xlink:href="#DejaVuSans-20" x="244.677734"/>
      <use xlink:href="#DejaVuSans-28" x="276.464844"/>
      <use xlink:href="#DejaVuSans-6d" x="315.478516"/>
      <use xlink:href="#DejaVuSans-73" x="412.890625"/>
      <use xlink:href="#DejaVuSans-29" x="464.990234"/>
     </g>
    </g>
   </g>
   <g id="matplotlib.axis_2">
    <g id="ytick_1">
     <g id="line2d_6">
      <defs>
       <path id="ma2c57f4144" d="M 0 0 
L -3.5 0 
" style="stroke: #000000; stroke-width: 0.8"/>
      </defs>
      <g>
       <use xlink:href="#ma2c57f4144" x="56.18" y="111.638182" style="stroke: #000000; stroke-width: 0.8"/>
      </g>
     </g>
     <g id="text_7">
      <!-- −1.0 -->
      <g transform="translate(24.897188 115.437401) scale(0.1 -0.1)">
       <defs>
        <path id="DejaVuSans-2212" d="M 678 2272 
L 4684 2272 
L 4684 1741 
L 678 1741 
L 678 2272 
z
" transform="scale(0.015625)"/>
        <path id="DejaVuSans-2e" d="M 684 794 
L 1344 794 
L 1344 0 
L 684 0 
L 684 794 
z
" transform="scale(0.015625)"/>
       </defs>
       <use xlink:href="#DejaVuSans-2212"/>
       <use xlink:href="#DejaVuSans-31" x="83.789062"/>
       <use xlink:href="#DejaVuSans-2e" x="147.412109"/>
       <use xlink:href="#DejaVuSans-30" x="179.199219"/>
      </g>
     </g>
    </g>
    <g id="ytick_2">
     <g id="line2d_7">
      <g>
       <use xlink:href="#ma2c57f4144" x="56.18" y="87.629091" style="stroke: #000000; stroke-width: 0.8"/>
      </g>
     </g>
     <g id="text_8">
      <!-- −0.5 -->
      <g transform="translate(24.897188 91.42831) scale(0.1 -0.1)">
       <use xlink:href="#DejaVuSans-2212"/>
       <use xlink:href="#DejaVuSans-30" x="83.789062"/>
       <use xlink:href="#DejaVuSans-2e" x="147.412109"/>
       <use xlink:href="#DejaVuSans-35" x="179.199219"/>
      </g>
     </g>
    </g>
    <g id="ytick_3">
     <g id="line2d_8">
      <g>
       <use xlink:href="#ma2c57f4144" x="56.18" y="63.62" style="stroke: #000000; stroke-width: 0.8"/>
      </g>
     </g>
     <g id="text_9">
      <!-- 0.0 -->
      <g transform="translate(33.276875 67.419219) scale(0.1 -0.1)">
       <use xlink:href="#DejaVuSans-30"/>
       <use xlink:href="#DejaVuSans-2e" x="63.623047"/>
       <use xlink:href="#DejaVuSans-30" x="95.410156"/>
      </g>
     </g>
    </g>
    <g id="ytick_4">
     <g id="line2d_9">
      <g>
       <use xlink:href="#ma2c57f4144" x="56.18" y="39.610909" style="stroke: #000000; stroke-width: 0.8"/>
      </g>
     </g>
     <g id="text_10">
      <!-- 0.5 -->
      <g transform="translate(33.276875 43.410128) scale(0.1 -0.1)">
       <use xlink:href="#DejaVuSans-30"/>
       <use xlink:href="#DejaVuSans-2e" x="63.623047"/>
       <use xlink:href="#DejaVuSans-35" x="95.410156"/>
      </g>
     </g>
    </g>
    <g id="ytick_5">
     <g id="line2d_10">
      <g>
       <use xlink:href="#ma2c57f4144" x="56.18" y="15.601818" style="stroke: #000000; stroke-width: 0.8"/>
      </g>
     </g>
     <g id="text_11">
      <!-- 1.0 -->
      <g transform="translate(33.276875 19.401037) scale(0.1 -0.1)">
       <use xlink:href="#DejaVuSans-31"/>
       <use xlink:href="#DejaVuSans-2e" x="63.623047"/>
       <use xlink:href="#DejaVuSans-30" x="95.410156"/>
      </g>
     </g>
    </g>
    <g id="text_12">
     <!-- X-Axis Value -->
     <g transform="translate(18.8175 94.180156) rotate(-90) scale(0.1 -0.1)">
      <defs>
       <path id="DejaVuSans-58" d="M 403 4666 
L 1081 4666 
L 2241 2931 
L 3406 4666 
L 4084 4666 
L 2584 2425 
L 4184 0 
L 3506 0 
L 2194 1984 
L 872 0 
L 191 0 
L 1856 2491 
L 403 4666 
z
" transform="scale(0.015625)"/>
       <path id="DejaVuSans-2d" d="M 313 2009 
L 1997 2009 
L 1997 1497 
L 313 1497 
L 313 2009 
z
" transform="scale(0.015625)"/>
       <path id="DejaVuSans-41" d="M 2188 4044 
L 1331 1722 
L 3047 1722 
L 2188 4044 
z
M 1831 4666 
L 2547 4666 
L 4325 0 
L 3669 0 
L 3244 1197 
L 1141 1197 
L 716 0 
L 50 0 
L 1831 4666 
z
" transform="scale(0.015625)"/>
       <path id="DejaVuSans-78" d="M 3513 3500 
L 2247 1797 
L 3578 0 
L 2900 0 
L 1881 1375 
L 863 0 
L 184 0 
L 1544 1831 
L 300 3500 
L 978 3500 
L 1906 2253 
L 2834 3500 
L 3513 3500 
z
" transform="scale(0.015625)"/>
       <path id="DejaVuSans-56" d="M 1831 0 
L 50 4666 
L 709 4666 
L 2188 738 
L 3669 4666 
L 4325 4666 
L 2547 0 
L 1831 0 
z
" transform="scale(0.015625)"/>
       <path id="DejaVuSans-61" d="M 2194 1759 
Q 1497 1759 1228 1600 
Q 959 1441 959 1056 
Q 959 750 1161 570 
Q 1363 391 1709 391 
Q 2188 391 2477 730 
Q 2766 1069 2766 1631 
L 2766 1759 
L 2194 1759 
z
M 3341 1997 
L 3341 0 
L 2766 0 
L 2766 531 
Q 2569 213 2275 61 
Q 1981 -91 1556 -91 
Q 1019 -91 701 211 
Q 384 513 384 1019 
Q 384 1609 779 1909 
Q 1175 2209 1959 2209 
L 2766 2209 
L 2766 2266 
Q 2766 2663 2505 2880 
Q 2244 3097 1772 3097 
Q 1472 3097 1187 3025 
Q 903 2953 641 2809 
L 641 3341 
Q 956 3463 1253 3523 
Q 1550 3584 1831 3584 
Q 2591 3584 2966 3190 
Q 3341 2797 3341 1997 
z
" transform="scale(0.015625)"/>
       <path id="DejaVuSans-6c" d="M 603 4863 
L 1178 4863 
L 1178 0 
L 603 0 
L 603 4863 
z
" transform="scale(0.015625)"/>
       <path id="DejaVuSans-75" d="M 544 1381 
L 544 3500 
L 1119 3500 
L 1119 1403 
Q 1119 906 1312 657 
Q 1506 409 1894 409 
Q 2359 409 2629 706 
Q 2900 1003 2900 1516 
L 2900 3500 
L 3475 3500 
L 3475 0 
L 2900 0 
L 2900 538 
Q 2691 219 2414 64 
Q 2138 -91 1772 -91 
Q 1169 -91 856 284 
Q 544 659 544 1381 
z
M 1991 3584 
L 1991 3584 
z
" transform="scale(0.015625)"/>
      </defs>
      <use xlink:href="#DejaVuSans-58"/>
      <use xlink:href="#DejaVuSans-2d" x="63.505859"/>
      <use xlink:href="#DejaVuSans-41" x="97.339844"/>
      <use xlink:href="#DejaVuSans-78" x="165.748047"/>
      <use xlink:href="#DejaVuSans-69" x="224.927734"/>
      <use xlink:href="#DejaVuSans-73" x="252.710938"/>
      <use xlink:href="#DejaVuSans-20" x="304.810547"/>
      <use xlink:href="#DejaVuSans-56" x="336.597656"/>
      <use xlink:href="#DejaVuSans-61" x="397.255859"/>
      <use xlink:href="#DejaVuSans-6c" x="458.535156"/>
      <use xlink:href="#DejaVuSans-75" x="486.318359"/>
      <use xlink:href="#DejaVuSans-65" x="549.697266"/>
     </g>
    </g>
   </g>
   <g id="line2d_11">
    <path d="M 56.18 65.060545 
L 56.360886 64.580364 
L 57.084429 64.580364 
L 57.265315 65.060545 
L 57.4462 64.580364 
L 57.807972 64.580364 
L 57.988858 65.060545 
L 58.169743 64.580364 
L 71.374404 64.580364 
L 71.55529 65.060545 
L 71.736175 64.580364 
L 73.183262 64.580364 
L 73.364147 65.060545 
L 73.545033 65.060545 
L 73.725919 64.580364 
L 74.268576 64.580364 
L 74.449462 65.060545 
L 74.992119 65.060545 
L 75.173005 64.580364 
L 75.353891 65.060545 
L 83.855522 65.060545 
L 84.036407 65.540727 
L 85.121722 65.540727 
L 85.302608 66.020909 
L 85.845265 66.020909 
L 86.026151 66.501091 
L 86.207036 66.501091 
L 86.387922 66.981273 
L 86.568808 66.981273 
L 86.930579 67.941636 
L 87.292351 67.941636 
L 87.473237 68.421818 
L 87.654123 68.421818 
L 87.835008 68.902 
L 88.015894 68.902 
L 88.377666 69.862364 
L 88.739437 69.862364 
L 89.282094 71.302909 
L 92.176267 71.302909 
L 92.357152 70.822727 
L 92.538038 71.302909 
L 92.718924 71.302909 
L 92.89981 70.822727 
L 93.080695 70.822727 
L 93.261581 71.302909 
L 96.879296 71.302909 
L 97.060182 70.822727 
L 97.241068 70.822727 
L 97.421954 71.302909 
L 97.602839 71.302909 
L 97.783725 70.822727 
L 97.964611 71.302909 
L 98.145497 70.822727 
L 98.326382 71.302909 
L 98.507268 71.302909 
L 98.688154 70.822727 
L 98.86904 70.822727 
L 99.049925 71.302909 
L 99.230811 71.302909 
L 99.411697 70.822727 
L 99.592583 71.302909 
L 99.773469 71.302909 
L 99.954354 70.822727 
L 100.13524 70.822727 
L 100.316126 71.302909 
L 100.497012 71.302909 
L 100.677897 70.822727 
L 100.858783 70.822727 
L 101.039669 71.302909 
L 101.40144 71.302909 
L 101.582326 70.822727 
L 101.763212 70.822727 
L 101.944098 71.302909 
L 102.124983 70.822727 
L 102.486755 70.822727 
L 102.667641 71.302909 
L 102.848526 70.822727 
L 103.029412 70.822727 
L 103.210298 71.302909 
L 103.57207 71.302909 
L 103.752955 70.822727 
L 103.933841 70.822727 
L 104.114727 71.302909 
L 104.476498 71.302909 
L 104.657384 70.822727 
L 105.742699 70.822727 
L 105.923584 71.302909 
L 106.10447 71.302909 
L 106.285356 70.822727 
L 106.466242 70.822727 
L 106.647127 71.302909 
L 106.828013 70.822727 
L 107.189785 70.822727 
L 107.370671 71.302909 
L 107.732442 71.302909 
L 107.913328 70.822727 
L 108.275099 70.822727 
L 108.455985 71.302909 
L 108.636871 70.822727 
L 109.5413 70.822727 
L 109.722185 71.302909 
L 110.445728 71.302909 
L 110.626614 70.822727 
L 110.988386 70.822727 
L 111.169272 71.302909 
L 111.350157 70.822727 
L 113.882558 70.822727 
L 114.425215 69.382182 
L 114.606101 69.382182 
L 114.967873 67.941636 
L 115.148758 67.461455 
L 115.329644 67.461455 
L 115.51053 66.981273 
L 116.595844 66.981273 
L 116.77673 66.501091 
L 118.223816 66.501091 
L 118.404702 66.020909 
L 118.947359 66.020909 
L 119.128245 65.540727 
L 119.490017 65.540727 
L 119.670902 65.060545 
L 122.022417 65.060545 
L 122.203303 64.580364 
L 122.384189 65.060545 
L 124.554818 65.060545 
L 124.735704 64.580364 
L 124.916589 65.060545 
L 128.71519 65.060545 
L 128.896076 64.580364 
L 129.257848 64.580364 
L 129.438733 64.100182 
L 129.619619 64.100182 
L 129.981391 63.139818 
L 131.066705 57.377636 
L 131.790248 50.174909 
L 132.875563 43.932545 
L 133.056449 42.492 
L 133.237334 42.011818 
L 133.779992 39.130727 
L 134.684421 30.007273 
L 166.339429 30.007273 
L 166.520315 30.487455 
L 167.424743 30.487455 
L 167.605629 30.967636 
L 168.148286 30.967636 
L 168.329172 31.447818 
L 168.510058 31.447818 
L 168.871829 33.368545 
L 169.957144 46.333455 
L 170.861573 54.976727 
L 171.946887 64.100182 
L 172.127773 64.100182 
L 172.308659 64.580364 
L 173.393974 64.580364 
L 173.574859 65.060545 
L 173.936631 65.060545 
L 174.117517 65.540727 
L 181.352947 65.540727 
L 181.533833 65.060545 
L 181.895604 65.060545 
L 182.07649 64.580364 
L 183.34269 64.580364 
L 183.523576 64.100182 
L 184.428005 64.100182 
L 184.608891 63.62 
L 184.789776 63.62 
L 185.332434 61.219091 
L 185.51332 60.738909 
L 186.417748 53.056 
L 187.683949 39.130727 
L 188.407492 25.685636 
L 188.769263 25.685636 
L 188.950149 25.205455 
L 191.844321 25.205455 
L 192.025207 24.725273 
L 192.206093 25.205455 
L 192.567864 25.205455 
L 192.74875 24.725273 
L 194.01495 24.725273 
L 194.195836 25.205455 
L 194.376722 25.205455 
L 194.557608 24.725273 
L 194.738493 24.725273 
L 194.919379 25.205455 
L 195.823808 25.205455 
L 196.004694 24.725273 
L 196.366465 24.725273 
L 196.547351 25.205455 
L 196.728237 24.725273 
L 197.270894 24.725273 
L 197.45178 25.205455 
L 197.632666 24.725273 
L 198.356209 24.725273 
L 198.537094 25.205455 
L 198.71798 24.725273 
L 201.793038 24.725273 
L 201.973924 25.205455 
L 202.15481 24.725273 
L 202.878353 24.725273 
L 203.059238 25.205455 
L 203.240124 24.725273 
L 206.315182 24.725273 
L 206.496068 25.205455 
L 206.676954 24.725273 
L 207.581382 24.725273 
L 207.762268 25.205455 
L 207.943154 24.725273 
L 210.837326 24.725273 
L 211.018212 25.205455 
L 211.199098 24.725273 
L 211.922641 24.725273 
L 212.103526 25.205455 
L 212.284412 24.725273 
L 213.550613 24.725273 
L 213.731498 25.205455 
L 213.912384 24.725273 
L 216.083013 24.725273 
L 216.263899 25.205455 
L 216.444785 25.205455 
L 216.987442 26.646 
L 217.349214 30.007273 
L 218.615414 45.373091 
L 219.158071 50.174909 
L 219.519843 52.575818 
L 220.243386 56.897455 
L 220.424272 58.338 
L 220.605157 58.818182 
L 220.966929 61.219091 
L 221.509586 63.62 
L 221.871358 64.580364 
L 222.233129 64.580364 
L 222.414015 65.060545 
L 223.137558 65.060545 
L 223.318444 65.540727 
L 224.403758 65.540727 
L 224.584644 66.020909 
L 226.212616 66.020909 
L 226.393502 65.540727 
L 226.574387 66.020909 
L 226.755273 66.020909 
L 226.936159 65.540727 
L 227.117045 65.540727 
L 227.29793 66.020909 
L 227.478816 66.020909 
L 227.659702 65.540727 
L 232.181846 65.540727 
L 232.362732 65.060545 
L 232.543618 65.060545 
L 232.724503 64.580364 
L 234.171589 64.580364 
L 235.076018 62.179455 
L 235.256904 62.179455 
L 235.43779 61.699273 
L 235.618675 61.699273 
L 235.980447 60.738909 
L 237.065762 55.456909 
L 237.246647 54.976727 
L 237.608419 53.536182 
L 237.97019 52.575818 
L 238.693733 49.214545 
L 238.874619 48.734364 
L 239.236391 47.293818 
L 239.959934 45.373091 
L 240.14082 43.932545 
L 240.321705 43.452364 
L 240.864363 39.130727 
L 241.226134 34.809091 
L 241.40702 34.809091 
L 241.587906 34.328909 
L 242.311449 34.328909 
L 242.492334 33.848727 
L 242.67322 34.328909 
L 243.034992 34.328909 
L 243.215877 33.848727 
L 243.396763 34.328909 
L 243.577649 33.848727 
L 268.901656 33.848727 
L 269.082541 34.328909 
L 269.806084 45.853273 
L 270.348742 52.095636 
L 270.710513 54.496545 
L 271.253171 56.897455 
L 271.795828 58.338 
L 272.881142 64.100182 
L 273.062028 64.100182 
L 273.242914 64.580364 
L 274.147343 64.580364 
L 274.328228 65.060545 
L 274.509114 65.060545 
L 274.69 65.540727 
L 275.232657 65.540727 
L 275.413543 66.020909 
L 277.945944 66.020909 
L 278.126829 65.540727 
L 282.468088 65.540727 
L 282.648974 66.020909 
L 282.829859 65.540727 
L 283.553402 65.540727 
L 283.734288 66.020909 
L 283.915174 65.540727 
L 289.522632 65.540727 
L 289.703518 65.060545 
L 319.007012 65.060545 
L 319.187897 64.580364 
L 322.986498 64.580364 
L 323.167384 65.060545 
L 324.61447 65.060545 
L 324.795356 64.580364 
L 324.976242 65.060545 
L 325.338013 65.060545 
L 325.518899 64.580364 
L 325.699785 64.580364 
L 325.880671 65.060545 
L 326.604214 65.060545 
L 326.785099 64.580364 
L 326.965985 64.580364 
L 327.146871 65.060545 
L 328.774843 65.060545 
L 328.955728 65.540727 
L 329.3175 65.540727 
L 329.498386 66.020909 
L 330.764586 66.020909 
L 330.945472 66.501091 
L 331.307243 66.501091 
L 331.849901 67.941636 
L 333.116101 75.144364 
L 333.839644 80.426364 
L 336.372045 94.351636 
L 336.733816 97.712909 
L 365.132881 97.712909 
L 365.313767 97.232727 
L 365.494652 97.232727 
L 365.675538 96.752545 
L 366.03731 94.351636 
L 366.941738 83.787636 
L 367.665281 76.584909 
L 368.027053 74.184 
L 368.750596 68.902 
L 369.293253 66.501091 
L 369.655025 65.540727 
L 369.835911 65.540727 
L 370.016796 65.060545 
L 370.197682 65.060545 
L 370.378568 64.580364 
L 378.156656 64.580364 
L 378.337541 65.060545 
L 378.699313 65.060545 
L 379.061084 66.020909 
L 379.422856 66.020909 
L 379.603742 66.501091 
L 379.965513 66.501091 
L 380.508171 67.941636 
L 381.050828 71.302909 
L 383.040571 86.668727 
L 383.764114 90.990364 
L 384.487657 96.752545 
L 384.668543 97.232727 
L 385.392086 102.994909 
L 385.753858 106.836364 
L 411.620522 106.836364 
L 411.801407 106.356182 
L 412.163179 106.356182 
L 412.344065 105.876 
L 413.067608 105.876 
L 413.248493 105.395818 
L 413.791151 105.395818 
L 413.972036 104.915636 
L 414.514694 101.554364 
L 415.600008 85.708364 
L 416.504437 76.584909 
L 416.685323 75.624545 
L 417.047094 72.743455 
L 417.589752 68.902 
L 418.132409 66.501091 
L 418.313295 66.501091 
L 418.49418 66.020909 
L 419.036838 66.020909 
L 419.217724 65.540727 
L 419.398609 65.540727 
L 419.579495 65.060545 
L 419.760381 65.060545 
L 419.941267 64.580364 
L 420.122152 65.060545 
L 420.303038 65.060545 
L 420.483924 64.580364 
L 426.453154 64.580364 
L 426.63404 65.060545 
L 427.538469 65.060545 
L 427.719354 65.540727 
L 428.623783 65.540727 
L 428.804669 66.020909 
L 429.347326 66.020909 
L 429.528212 66.501091 
L 430.070869 66.501091 
L 430.975298 68.902 
L 431.517955 71.302909 
L 431.698841 71.783091 
L 431.879727 73.223636 
L 432.060613 73.703818 
L 432.422384 76.104727 
L 432.60327 76.584909 
L 433.507699 80.906545 
L 433.86947 81.866909 
L 435.135671 89.069636 
L 435.497442 92.430909 
L 435.678328 94.351636 
L 435.859214 97.712909 
L 436.220985 97.712909 
L 436.401871 98.193091 
L 462.992078 98.193091 
L 463.172964 97.712909 
L 463.353849 98.193091 
L 463.715621 98.193091 
L 463.896507 97.712909 
L 464.077392 98.193091 
L 464.258278 98.193091 
L 464.439164 97.712909 
L 464.62005 98.193091 
L 464.800935 97.712909 
L 465.343593 97.712909 
L 465.705364 96.752545 
L 465.88625 96.752545 
L 466.428907 92.911091 
L 467.15245 82.827273 
L 467.875993 74.664182 
L 468.418651 70.822727 
L 468.599536 70.342545 
L 469.142194 67.941636 
L 469.323079 67.461455 
L 469.503965 66.501091 
L 469.684851 66.501091 
L 469.865737 66.020909 
L 470.046623 66.020909 
L 470.408394 65.060545 
L 471.131937 65.060545 
L 471.312823 64.580364 
L 471.493709 64.580364 
L 471.674594 64.100182 
L 473.12168 64.100182 
L 473.302566 63.62 
L 473.483452 64.100182 
L 474.749652 64.100182 
L 474.930538 64.580364 
L 479.814454 64.580364 
L 479.995339 65.060545 
L 480.176225 64.580364 
L 493.2 64.580364 
L 493.2 64.580364 
" clip-path="url(#p906fb2bf18)" style="fill: none; stroke: #1f77b4; stroke-width: 1.5; stroke-linecap: square"/>
   </g>
   <g id="line2d_12">
    <path d="M 56.18 63.62 
L 493.2 63.62 
" clip-path="url(#p906fb2bf18)" style="fill: none; stroke-dasharray: 2.96,1.28; stroke-dashoffset: 0; stroke: #808080; stroke-width: 0.8"/>
   </g>
   <g id="patch_3">
    <path d="M 56.18 116.44 
L 56.18 10.8 
" style="fill: none; stroke: #000000; stroke-width: 0.8; stroke-linejoin: miter; stroke-linecap: square"/>
   </g>
   <g id="patch_4">
    <path d="M 56.18 116.44 
L 493.2 116.44 
" style="fill: none; stroke: #000000; stroke-width: 0.8; stroke-linejoin: miter; stroke-linecap: square"/>
   </g>
  </g>
  <g id="axes_2">
   <g id="patch_5">
    <path d="M 56.18 264.04 
L 493.2 264.04 
L 493.2 158.4 
L 56.18 158.4 
z
" style="fill: #ffffff"/>
   </g>
   <g id="matplotlib.axis_3">
    <g id="xtick_6">
     <g id="line2d_13">
      <g>
       <use xlink:href="#m4a5fb6b00d" x="56.18" y="264.04" style="stroke: #000000; stroke-width: 0.8"/>
      </g>
     </g>
     <g id="text_13">
      <!-- 0 -->
      <g transform="translate(52.99875 278.638438) scale(0.1 -0.1)">
       <use xlink:href="#DejaVuSans-30"/>
      </g>
     </g>
    </g>
    <g id="xtick_7">
     <g id="line2d_14">
      <g>
       <use xlink:href="#m4a5fb6b00d" x="146.622881" y="264.04" style="stroke: #000000; stroke-width: 0.8"/>
      </g>
     </g>
     <g id="text_14">
      <!-- 5000 -->
      <g transform="translate(133.897881 278.638438) scale(0.1 -0.1)">
       <use xlink:href="#DejaVuSans-35"/>
       <use xlink:href="#DejaVuSans-30" x="63.623047"/>
       <use xlink:href="#DejaVuSans-30" x="127.246094"/>
       <use xlink:href="#DejaVuSans-30" x="190.869141"/>
      </g>
     </g>
    </g>
    <g id="xtick_8">
     <g id="line2d_15">
      <g>
       <use xlink:href="#m4a5fb6b00d" x="237.065762" y="264.04" style="stroke: #000000; stroke-width: 0.8"/>
      </g>
     </g>
     <g id="text_15">
      <!-- 10000 -->
      <g transform="translate(221.159512 278.638438) scale(0.1 -0.1)">
       <use xlink:href="#DejaVuSans-31"/>
       <use xlink:href="#DejaVuSans-30" x="63.623047"/>
       <use xlink:href="#DejaVuSans-30" x="127.246094"/>
       <use xlink:href="#DejaVuSans-30" x="190.869141"/>
       <use xlink:href="#DejaVuSans-30" x="254.492188"/>
      </g>
     </g>
    </g>
    <g id="xtick_9">
     <g id="line2d_16">
      <g>
       <use xlink:href="#m4a5fb6b00d" x="327.508642" y="264.04" style="stroke: #000000; stroke-width: 0.8"/>
      </g>
     </g>
     <g id="text_16">
      <!-- 15000 -->
      <g transform="translate(311.602392 278.638438) scale(0.1 -0.1)">
       <use xlink:href="#DejaVuSans-31"/>
       <use xlink:href="#DejaVuSans-35" x="63.623047"/>
       <use xlink:href="#DejaVuSans-30" x="127.246094"/>
       <use xlink:href="#DejaVuSans-30" x="190.869141"/>
       <use xlink:href="#DejaVuSans-30" x="254.492188"/>
      </g>
     </g>
    </g>
    <g id="xtick_10">
     <g id="line2d_17">
      <g>
       <use xlink:href="#m4a5fb6b00d" x="417.951523" y="264.04" style="stroke: #000000; stroke-width: 0.8"/>
      </g>
     </g>
     <g id="text_17">
      <!-- 20000 -->
      <g transform="translate(402.045273 278.638438) scale(0.1 -0.1)">
       <use xlink:href="#DejaVuSans-32"/>
       <use xlink:href="#DejaVuSans-30" x="63.623047"/>
       <use xlink:href="#DejaVuSans-30" x="127.246094"/>
       <use xlink:href="#DejaVuSans-30" x="190.869141"/>
       <use xlink:href="#DejaVuSans-30" x="254.492188"/>
      </g>
     </g>
    </g>
    <g id="text_18">
     <!-- Time (ms) -->
     <g transform="translate(249.490781 292.316563) scale(0.1 -0.1)">
      <use xlink:href="#DejaVuSans-54"/>
      <use xlink:href="#DejaVuSans-69" x="57.958984"/>
      <use xlink:href="#DejaVuSans-6d" x="85.742188"/>
      <use xlink:href="#DejaVuSans-65" x="183.154297"/>
      <use xlink:href="#DejaVuSans-20" x="244.677734"/>
      <use xlink:href="#DejaVuSans-28" x="276.464844"/>
      <use xlink:href="#DejaVuSans-6d" x="315.478516"/>
      <use xlink:href="#DejaVuSans-73" x="412.890625"/>
      <use xlink:href="#DejaVuSans-29" x="464.990234"/>
     </g>
    </g>
   </g>
   <g id="matplotlib.axis_4">
    <g id="ytick_6">
     <g id="line2d_18">
      <g>
       <use xlink:href="#ma2c57f4144" x="56.18" y="259.238182" style="stroke: #000000; stroke-width: 0.8"/>
      </g>
     </g>
     <g id="text_19">
      <!-- −1.0 -->
      <g transform="translate(24.897188 263.037401) scale(0.1 -0.1)">
       <use xlink:href="#DejaVuSans-2212"/>
       <use xlink:href="#DejaVuSans-31" x="83.789062"/>
       <use xlink:href="#DejaVuSans-2e" x="147.412109"/>
       <use xlink:href="#DejaVuSans-30" x="179.199219"/>
      </g>
     </g>
    </g>
    <g id="ytick_7">
     <g id="line2d_19">
      <g>
       <use xlink:href="#ma2c57f4144" x="56.18" y="235.229091" style="stroke: #000000; stroke-width: 0.8"/>
      </g>
     </g>
     <g id="text_20">
      <!-- −0.5 -->
      <g transform="translate(24.897188 239.02831) scale(0.1 -0.1)">
       <use xlink:href="#DejaVuSans-2212"/>
       <use xlink:href="#DejaVuSans-30" x="83.789062"/>
       <use xlink:href="#DejaVuSans-2e" x="147.412109"/>
       <use xlink:href="#DejaVuSans-35" x="179.199219"/>
      </g>
     </g>
    </g>
    <g id="ytick_8">
     <g id="line2d_20">
      <g>
       <use xlink:href="#ma2c57f4144" x="56.18" y="211.22" style="stroke: #000000; stroke-width: 0.8"/>
      </g>
     </g>
     <g id="text_21">
      <!-- 0.0 -->
      <g transform="translate(33.276875 215.019219) scale(0.1 -0.1)">
       <use xlink:href="#DejaVuSans-30"/>
       <use xlink:href="#DejaVuSans-2e" x="63.623047"/>
       <use xlink:href="#DejaVuSans-30" x="95.410156"/>
      </g>
     </g>
    </g>
    <g id="ytick_9">
     <g id="line2d_21">
      <g>
       <use xlink:href="#ma2c57f4144" x="56.18" y="187.210909" style="stroke: #000000; stroke-width: 0.8"/>
      </g>
     </g>
     <g id="text_22">
      <!-- 0.5 -->
      <g transform="translate(33.276875 191.010128) scale(0.1 -0.1)">
       <use xlink:href="#DejaVuSans-30"/>
       <use xlink:href="#DejaVuSans-2e" x="63.623047"/>
       <use xlink:href="#DejaVuSans-35" x="95.410156"/>
      </g>
     </g>
    </g>
    <g id="ytick_10">
     <g id="line2d_22">
      <g>
       <use xlink:href="#ma2c57f4144" x="56.18" y="163.201818" style="stroke: #000000; stroke-width: 0.8"/>
      </g>
     </g>
     <g id="text_23">
      <!-- 1.0 -->
      <g transform="translate(33.276875 167.001037) scale(0.1 -0.1)">
       <use xlink:href="#DejaVuSans-31"/>
       <use xlink:href="#DejaVuSans-2e" x="63.623047"/>
       <use xlink:href="#DejaVuSans-30" x="95.410156"/>
      </g>
     </g>
    </g>
    <g id="text_24">
     <!-- Y-Axis Value -->
     <g transform="translate(18.8175 241.065313) rotate(-90) scale(0.1 -0.1)">
      <defs>
       <path id="DejaVuSans-59" d="M -13 4666 
L 666 4666 
L 1959 2747 
L 3244 4666 
L 3922 4666 
L 2272 2222 
L 2272 0 
L 1638 0 
L 1638 2222 
L -13 4666 
z
" transform="scale(0.015625)"/>
      </defs>
      <use xlink:href="#DejaVuSans-59"/>
      <use xlink:href="#DejaVuSans-2d" x="49.208984"/>
      <use xlink:href="#DejaVuSans-41" x="83.042969"/>
      <use xlink:href="#DejaVuSans-78" x="151.451172"/>
      <use xlink:href="#DejaVuSans-69" x="210.630859"/>
      <use xlink:href="#DejaVuSans-73" x="238.414062"/>
      <use xlink:href="#DejaVuSans-20" x="290.513672"/>
      <use xlink:href="#DejaVuSans-56" x="322.300781"/>
      <use xlink:href="#DejaVuSans-61" x="382.958984"/>
      <use xlink:href="#DejaVuSans-6c" x="444.238281"/>
      <use xlink:href="#DejaVuSans-75" x="472.021484"/>
      <use xlink:href="#DejaVuSans-65" x="535.400391"/>
     </g>
    </g>
   </g>
   <g id="line2d_23">
    <path d="M 56.18 209.779455 
L 56.722657 209.779455 
L 56.903543 209.299273 
L 57.084429 209.779455 
L 81.865778 209.779455 
L 82.046664 209.299273 
L 82.408435 209.299273 
L 82.589321 208.819091 
L 83.131978 208.819091 
L 83.49375 207.858727 
L 83.674636 207.858727 
L 83.855522 207.378545 
L 84.217293 207.378545 
L 85.664379 199.215455 
L 86.026151 195.854182 
L 86.749694 189.131636 
L 88.19678 178.087455 
L 88.739437 174.726182 
L 89.101209 168.964 
L 113.882558 168.964 
L 114.063444 169.444182 
L 114.425215 173.765818 
L 115.691416 195.854182 
L 116.595844 206.898364 
L 116.957616 208.338909 
L 117.138502 208.338909 
L 117.500273 209.299273 
L 117.681159 209.299273 
L 117.862045 209.779455 
L 118.04293 209.779455 
L 118.223816 210.259636 
L 119.309131 210.259636 
L 119.490017 210.739818 
L 119.851788 210.739818 
L 120.032674 210.259636 
L 120.21356 210.259636 
L 120.394445 210.739818 
L 120.937103 210.739818 
L 121.117988 210.259636 
L 121.298874 210.739818 
L 121.47976 210.259636 
L 121.841531 210.259636 
L 122.022417 210.739818 
L 122.203303 210.259636 
L 122.384189 210.259636 
L 122.565075 210.739818 
L 122.74596 210.259636 
L 123.288618 210.259636 
L 123.469503 210.739818 
L 123.650389 210.739818 
L 123.831275 210.259636 
L 124.373932 210.259636 
L 124.554818 210.739818 
L 124.735704 210.739818 
L 124.916589 210.259636 
L 125.097475 210.259636 
L 125.278361 210.739818 
L 125.821018 210.739818 
L 126.001904 210.259636 
L 126.363675 210.259636 
L 126.544561 210.739818 
L 126.906333 210.739818 
L 127.087219 210.259636 
L 127.268104 210.739818 
L 127.44899 210.259636 
L 127.629876 210.739818 
L 127.810762 210.739818 
L 127.991647 210.259636 
L 129.619619 210.259636 
L 129.800505 209.779455 
L 129.981391 209.779455 
L 130.162276 209.299273 
L 130.524048 207.378545 
L 130.704934 207.378545 
L 130.88582 206.898364 
L 132.694677 197.774909 
L 132.875563 197.774909 
L 133.599106 194.413636 
L 133.779992 193.933455 
L 134.141763 191.532545 
L 134.684421 186.730727 
L 134.865306 186.250545 
L 135.046192 186.250545 
L 135.588849 184.81 
L 168.871829 184.81 
L 169.957144 193.933455 
L 170.499801 199.695636 
L 171.223344 204.977636 
L 171.946887 208.819091 
L 172.127773 208.819091 
L 172.308659 209.299273 
L 180.629404 209.299273 
L 180.81029 209.779455 
L 187.683949 209.779455 
L 187.864834 209.299273 
L 188.04572 207.858727 
L 188.407492 206.898364 
L 188.950149 206.898364 
L 189.131035 206.418182 
L 194.919379 206.418182 
L 195.100265 206.898364 
L 195.281151 206.418182 
L 220.966929 206.418182 
L 221.3287 207.378545 
L 221.509586 207.378545 
L 221.690472 207.858727 
L 223.680215 207.858727 
L 223.861101 208.338909 
L 224.041987 207.858727 
L 224.222873 208.338909 
L 224.403758 207.858727 
L 226.03173 207.858727 
L 226.212616 208.338909 
L 226.393502 207.858727 
L 226.755273 207.858727 
L 226.936159 208.338909 
L 227.659702 208.338909 
L 227.840588 208.819091 
L 229.106788 208.819091 
L 229.287674 209.299273 
L 229.46856 208.819091 
L 229.649445 209.299273 
L 232.724503 209.299273 
L 232.905389 209.779455 
L 233.267161 209.779455 
L 233.448046 210.259636 
L 233.990704 210.259636 
L 234.352475 211.22 
L 234.533361 211.22 
L 234.714247 211.700182 
L 235.076018 211.700182 
L 235.43779 212.660545 
L 235.618675 213.620909 
L 235.799561 213.620909 
L 236.523104 215.541636 
L 239.598162 231.387636 
L 239.779048 231.867818 
L 240.683477 237.149818 
L 241.226134 241.471455 
L 267.635455 241.471455 
L 267.816341 240.991273 
L 267.997227 240.991273 
L 268.178113 240.511091 
L 268.539884 240.511091 
L 268.72077 240.030909 
L 269.082541 238.110182 
L 269.806084 227.546182 
L 270.529627 220.343455 
L 270.710513 219.863273 
L 271.072285 218.422727 
L 271.434056 217.462364 
L 271.614942 217.462364 
L 271.976714 216.502 
L 272.881142 212.180364 
L 273.062028 211.700182 
L 273.785571 211.700182 
L 274.328228 210.259636 
L 275.051772 210.259636 
L 275.232657 209.779455 
L 282.468088 209.779455 
L 282.648974 210.259636 
L 283.010745 210.259636 
L 283.191631 210.739818 
L 283.915174 210.739818 
L 284.09606 211.22 
L 284.638717 211.22 
L 284.819603 211.700182 
L 285.000488 211.700182 
L 285.181374 212.180364 
L 285.904917 217.462364 
L 286.447575 220.343455 
L 286.990232 226.585818 
L 287.894661 234.268727 
L 288.799089 242.912 
L 288.979975 243.872364 
L 289.160861 245.793091 
L 289.703518 256.357091 
L 315.931954 256.357091 
L 316.474611 252.995818 
L 317.740811 234.268727 
L 318.464354 226.105636 
L 320.092326 213.620909 
L 320.454098 211.700182 
L 321.358526 211.700182 
L 321.539412 211.22 
L 321.901184 211.22 
L 322.08207 210.739818 
L 322.624727 210.739818 
L 322.805613 210.259636 
L 322.986498 210.739818 
L 324.433584 210.739818 
L 324.61447 210.259636 
L 324.976242 210.259636 
L 325.157127 210.739818 
L 325.338013 210.739818 
L 325.518899 210.259636 
L 325.699785 210.739818 
L 325.880671 210.259636 
L 326.423328 210.259636 
L 326.604214 210.739818 
L 326.785099 210.259636 
L 326.965985 210.259636 
L 327.146871 210.739818 
L 327.327757 210.259636 
L 329.3175 210.259636 
L 329.498386 210.739818 
L 329.679272 210.259636 
L 330.221929 210.259636 
L 330.402815 210.739818 
L 330.5837 210.739818 
L 330.764586 210.259636 
L 330.945472 210.739818 
L 331.669015 210.739818 
L 331.849901 211.700182 
L 332.211672 211.700182 
L 332.935215 215.061455 
L 333.116101 215.541636 
L 333.658758 219.383091 
L 333.839644 220.343455 
L 334.201416 223.224545 
L 334.563187 225.625455 
L 335.105844 228.986727 
L 335.28673 230.427273 
L 335.467616 230.907455 
L 336.191159 235.229091 
L 336.733816 240.991273 
L 336.914702 241.471455 
L 365.132881 241.471455 
L 365.494652 240.030909 
L 365.675538 239.550727 
L 366.399081 233.308364 
L 366.760853 230.427273 
L 368.027053 220.823636 
L 368.750596 216.502 
L 368.931482 215.061455 
L 369.112368 214.581273 
L 369.474139 212.180364 
L 369.655025 211.700182 
L 374.358055 211.700182 
L 374.53894 211.22 
L 374.719826 211.700182 
L 376.347798 211.700182 
L 376.528684 211.22 
L 376.70957 211.700182 
L 383.945 211.700182 
L 384.125886 211.22 
L 384.306772 210.259636 
L 384.487657 210.259636 
L 385.030315 208.819091 
L 385.392086 207.378545 
L 385.572972 206.898364 
L 385.753858 205.938 
L 388.828916 205.938 
L 389.009801 205.457818 
L 417.047094 205.457818 
L 418.132409 208.338909 
L 418.49418 208.338909 
L 418.675066 208.819091 
L 419.579495 208.819091 
L 419.941267 209.779455 
L 420.845695 209.779455 
L 421.026581 210.259636 
L 429.889983 210.259636 
L 430.070869 209.779455 
L 430.251755 209.779455 
L 430.432641 209.299273 
L 430.794412 207.858727 
L 430.975298 207.378545 
L 431.517955 204.977636 
L 431.698841 204.497455 
L 434.593013 189.611818 
L 434.773899 189.131636 
L 435.497442 184.81 
L 435.678328 183.369455 
L 435.859214 180.968545 
L 437.125414 180.968545 
L 437.3063 180.488364 
L 437.487185 180.968545 
L 437.848957 180.968545 
L 438.029843 180.488364 
L 438.210728 180.968545 
L 439.657815 180.968545 
L 439.8387 180.488364 
L 440.019586 180.968545 
L 440.200472 180.488364 
L 440.381358 180.968545 
L 440.743129 180.968545 
L 440.924015 180.488364 
L 441.104901 180.968545 
L 441.285786 180.968545 
L 441.466672 180.488364 
L 441.647558 180.968545 
L 441.828444 180.488364 
L 442.009329 180.968545 
L 442.732873 180.968545 
L 442.913758 180.488364 
L 443.094644 180.968545 
L 444.722616 180.968545 
L 444.903502 180.488364 
L 445.084387 180.488364 
L 445.265273 180.968545 
L 445.80793 180.968545 
L 445.988816 180.488364 
L 446.169702 180.968545 
L 446.893245 180.968545 
L 447.074131 180.488364 
L 447.255017 180.488364 
L 447.435902 180.968545 
L 447.616788 180.488364 
L 447.797674 180.488364 
L 447.97856 180.968545 
L 450.330075 180.968545 
L 450.51096 180.488364 
L 450.691846 180.488364 
L 450.872732 180.968545 
L 453.405132 180.968545 
L 453.586018 180.488364 
L 453.766904 180.968545 
L 455.21399 180.968545 
L 455.394876 180.488364 
L 455.575762 180.968545 
L 457.565505 180.968545 
L 457.746391 180.488364 
L 457.927276 180.968545 
L 458.108162 180.488364 
L 458.289048 180.968545 
L 458.831705 180.968545 
L 459.012591 180.488364 
L 459.193477 180.968545 
L 459.374363 180.488364 
L 459.555248 180.968545 
L 459.736134 180.488364 
L 459.91702 180.968545 
L 460.097906 180.488364 
L 460.278791 180.968545 
L 460.821449 180.968545 
L 461.002334 180.488364 
L 461.18322 180.968545 
L 463.172964 180.968545 
L 463.353849 180.488364 
L 463.534735 180.968545 
L 463.896507 180.968545 
L 464.077392 180.488364 
L 464.258278 180.488364 
L 464.439164 180.968545 
L 464.62005 180.968545 
L 464.800935 180.488364 
L 464.981821 180.488364 
L 465.162707 180.968545 
L 465.343593 180.968545 
L 465.524478 180.488364 
L 465.705364 180.968545 
L 465.88625 180.488364 
L 466.067136 180.968545 
L 466.428907 180.968545 
L 466.609793 181.928909 
L 467.875993 194.413636 
L 468.237765 196.814545 
L 469.323079 203.056909 
L 469.865737 207.378545 
L 470.046623 207.858727 
L 470.227508 207.858727 
L 470.408394 208.338909 
L 470.770166 208.338909 
L 470.951051 208.819091 
L 471.131937 208.819091 
L 471.493709 209.779455 
L 473.664338 209.779455 
L 473.845224 210.259636 
L 474.026109 209.779455 
L 475.29231 209.779455 
L 475.473195 210.259636 
L 476.015853 210.259636 
L 476.196738 209.779455 
L 476.739396 209.779455 
L 476.920281 210.259636 
L 477.101167 209.779455 
L 477.282053 209.779455 
L 477.462939 210.259636 
L 477.82471 210.259636 
L 478.005596 209.779455 
L 478.367368 209.779455 
L 478.548253 210.259636 
L 478.729139 209.779455 
L 478.910025 209.779455 
L 479.090911 210.259636 
L 479.271796 210.259636 
L 479.452682 209.779455 
L 479.633568 210.259636 
L 479.814454 210.259636 
L 479.995339 210.739818 
L 480.176225 210.259636 
L 480.899768 210.259636 
L 481.080654 209.779455 
L 481.442425 209.779455 
L 481.623311 210.259636 
L 482.165969 210.259636 
L 482.346854 209.779455 
L 482.52774 210.259636 
L 483.251283 210.259636 
L 483.432169 209.779455 
L 483.613055 210.259636 
L 483.79394 210.259636 
L 483.974826 209.779455 
L 484.155712 210.259636 
L 484.336598 210.259636 
L 484.517483 209.779455 
L 484.698369 210.259636 
L 484.879255 210.259636 
L 485.060141 209.779455 
L 485.241026 210.259636 
L 487.411656 210.259636 
L 487.592541 209.779455 
L 487.773427 210.259636 
L 487.954313 209.779455 
L 488.135199 210.259636 
L 488.316084 209.779455 
L 488.858742 209.779455 
L 489.039627 210.259636 
L 489.582285 210.259636 
L 489.763171 209.779455 
L 489.944056 209.779455 
L 490.124942 210.259636 
L 490.848485 210.259636 
L 491.029371 209.779455 
L 491.210257 210.259636 
L 491.572028 210.259636 
L 491.752914 209.779455 
L 491.9338 210.259636 
L 493.2 210.259636 
L 493.2 210.259636 
" clip-path="url(#pf5d94f0621)" style="fill: none; stroke: #1f77b4; stroke-width: 1.5; stroke-linecap: square"/>
   </g>
   <g id="line2d_24">
    <path d="M 56.18 211.22 
L 493.2 211.22 
" clip-path="url(#pf5d94f0621)" style="fill: none; stroke-dasharray: 2.96,1.28; stroke-dashoffset: 0; stroke: #808080; stroke-width: 0.8"/>
   </g>
   <g id="patch_6">
    <path d="M 56.18 264.04 
L 56.18 158.4 
" style="fill: none; stroke: #000000; stroke-width: 0.8; stroke-linejoin: miter; stroke-linecap: square"/>
   </g>
   <g id="patch_7">
    <path d="M 56.18 264.04 
L 493.2 264.04 
" style="fill: none; stroke: #000000; stroke-width: 0.8; stroke-linejoin: miter; stroke-linecap: square"/>
   </g>
  </g>
 </g>
 <defs>
  <clipPath id="p906fb2bf18">
   <rect x="56.18" y="10.8" width="437.02" height="105.64"/>
  </clipPath>
  <clipPath id="pf5d94f0621">
   <rect x="56.18" y="158.4" width="437.02" height="105.64"/>
  </clipPath>
 </defs>
</svg>
