<?xml version="1.0" encoding="utf-8" standalone="no"?>
<!DOCTYPE svg PUBLIC "-//W3C//DTD SVG 1.1//EN"
  "http://www.w3.org/Graphics/SVG/1.1/DTD/svg11.dtd">
<svg xmlns:xlink="http://www.w3.org/1999/xlink" width="504pt" height="306pt" viewBox="0 0 504 306" xmlns="http://www.w3.org/2000/svg" version="1.1">
 <metadata>
  <rdf:RDF xmlns:dc="http://purl.org/dc/elements/1.1/" xmlns:cc="http://creativecommons.org/ns#" xmlns:rdf="http://www.w3.org/1999/02/22-rdf-syntax-ns#">
   <cc:Work>
    <dc:type rdf:resource="http://purl.org/dc/dcmitype/StillImage"/>
    <dc:date>2024-06-16T22:16:15.939266</dc:date>
    <dc:format>image/svg+xml</dc:format>
    <dc:creator>
     <cc:Agent>
      <dc:title>Matplotlib v3.8.3, https://matplotlib.org/</dc:title>
     </cc:Agent>
    </dc:creator>
   </cc:Work>
  </rdf:RDF>
 </metadata>
 <defs>
  <style type="text/css">*{stroke-linejoin: round; stroke-linecap: butt}</style>
 </defs>
 <g id="figure_1">
  <g id="patch_1">
   <path d="M 0 306 
L 504 306 
L 504 0 
L 0 0 
z
" style="fill: #ffffff"/>
  </g>
  <g id="axes_1">
   <g id="patch_2">
    <path d="M 56.18 116.44 
L 493.2 116.44 
L 493.2 10.8 
L 56.18 10.8 
z
" style="fill: #ffffff"/>
   </g>
   <g id="matplotlib.axis_1">
    <g id="xtick_1">
     <g id="line2d_1">
      <defs>
       <path id="m52b1f8adda" d="M 0 0 
L 0 3.5 
" style="stroke: #000000; stroke-width: 0.8"/>
      </defs>
      <g>
       <use xlink:href="#m52b1f8adda" x="56.18" y="116.44" style="stroke: #000000; stroke-width: 0.8"/>
      </g>
     </g>
     <g id="text_1">
      <!-- 0 -->
      <g transform="translate(52.99875 131.038437) scale(0.1 -0.1)">
       <defs>
        <path id="DejaVuSans-30" d="M 2034 4250 
Q 1547 4250 1301 3770 
Q 1056 3291 1056 2328 
Q 1056 1369 1301 889 
Q 1547 409 2034 409 
Q 2525 409 2770 889 
Q 3016 1369 3016 2328 
Q 3016 3291 2770 3770 
Q 2525 4250 2034 4250 
z
M 2034 4750 
Q 2819 4750 3233 4129 
Q 3647 3509 3647 2328 
Q 3647 1150 3233 529 
Q 2819 -91 2034 -91 
Q 1250 -91 836 529 
Q 422 1150 422 2328 
Q 422 3509 836 4129 
Q 1250 4750 2034 4750 
z
" transform="scale(0.015625)"/>
       </defs>
       <use xlink:href="#DejaVuSans-30"/>
      </g>
     </g>
    </g>
    <g id="xtick_2">
     <g id="line2d_2">
      <g>
       <use xlink:href="#m52b1f8adda" x="137.410483" y="116.44" style="stroke: #000000; stroke-width: 0.8"/>
      </g>
     </g>
     <g id="text_2">
      <!-- 2000 -->
      <g transform="translate(124.685483 131.038437) scale(0.1 -0.1)">
       <defs>
        <path id="DejaVuSans-32" d="M 1228 531 
L 3431 531 
L 3431 0 
L 469 0 
L 469 531 
Q 828 903 1448 1529 
Q 2069 2156 2228 2338 
Q 2531 2678 2651 2914 
Q 2772 3150 2772 3378 
Q 2772 3750 2511 3984 
Q 2250 4219 1831 4219 
Q 1534 4219 1204 4116 
Q 875 4013 500 3803 
L 500 4441 
Q 881 4594 1212 4672 
Q 1544 4750 1819 4750 
Q 2544 4750 2975 4387 
Q 3406 4025 3406 3419 
Q 3406 3131 3298 2873 
Q 3191 2616 2906 2266 
Q 2828 2175 2409 1742 
Q 1991 1309 1228 531 
z
" transform="scale(0.015625)"/>
       </defs>
       <use xlink:href="#DejaVuSans-32"/>
       <use xlink:href="#DejaVuSans-30" x="63.623047"/>
       <use xlink:href="#DejaVuSans-30" x="127.246094"/>
       <use xlink:href="#DejaVuSans-30" x="190.869141"/>
      </g>
     </g>
    </g>
    <g id="xtick_3">
     <g id="line2d_3">
      <g>
       <use xlink:href="#m52b1f8adda" x="218.640967" y="116.44" style="stroke: #000000; stroke-width: 0.8"/>
      </g>
     </g>
     <g id="text_3">
      <!-- 4000 -->
      <g transform="translate(205.915967 131.038437) scale(0.1 -0.1)">
       <defs>
        <path id="DejaVuSans-34" d="M 2419 4116 
L 825 1625 
L 2419 1625 
L 2419 4116 
z
M 2253 4666 
L 3047 4666 
L 3047 1625 
L 3713 1625 
L 3713 1100 
L 3047 1100 
L 3047 0 
L 2419 0 
L 2419 1100 
L 313 1100 
L 313 1709 
L 2253 4666 
z
" transform="scale(0.015625)"/>
       </defs>
       <use xlink:href="#DejaVuSans-34"/>
       <use xlink:href="#DejaVuSans-30" x="63.623047"/>
       <use xlink:href="#DejaVuSans-30" x="127.246094"/>
       <use xlink:href="#DejaVuSans-30" x="190.869141"/>
      </g>
     </g>
    </g>
    <g id="xtick_4">
     <g id="line2d_4">
      <g>
       <use xlink:href="#m52b1f8adda" x="299.87145" y="116.44" style="stroke: #000000; stroke-width: 0.8"/>
      </g>
     </g>
     <g id="text_4">
      <!-- 6000 -->
      <g transform="translate(287.14645 131.038437) scale(0.1 -0.1)">
       <defs>
        <path id="DejaVuSans-36" d="M 2113 2584 
Q 1688 2584 1439 2293 
Q 1191 2003 1191 1497 
Q 1191 994 1439 701 
Q 1688 409 2113 409 
Q 2538 409 2786 701 
Q 3034 994 3034 1497 
Q 3034 2003 2786 2293 
Q 2538 2584 2113 2584 
z
M 3366 4563 
L 3366 3988 
Q 3128 4100 2886 4159 
Q 2644 4219 2406 4219 
Q 1781 4219 1451 3797 
Q 1122 3375 1075 2522 
Q 1259 2794 1537 2939 
Q 1816 3084 2150 3084 
Q 2853 3084 3261 2657 
Q 3669 2231 3669 1497 
Q 3669 778 3244 343 
Q 2819 -91 2113 -91 
Q 1303 -91 875 529 
Q 447 1150 447 2328 
Q 447 3434 972 4092 
Q 1497 4750 2381 4750 
Q 2619 4750 2861 4703 
Q 3103 4656 3366 4563 
z
" transform="scale(0.015625)"/>
       </defs>
       <use xlink:href="#DejaVuSans-36"/>
       <use xlink:href="#DejaVuSans-30" x="63.623047"/>
       <use xlink:href="#DejaVuSans-30" x="127.246094"/>
       <use xlink:href="#DejaVuSans-30" x="190.869141"/>
      </g>
     </g>
    </g>
    <g id="xtick_5">
     <g id="line2d_5">
      <g>
       <use xlink:href="#m52b1f8adda" x="381.101933" y="116.44" style="stroke: #000000; stroke-width: 0.8"/>
      </g>
     </g>
     <g id="text_5">
      <!-- 8000 -->
      <g transform="translate(368.376933 131.038437) scale(0.1 -0.1)">
       <defs>
        <path id="DejaVuSans-38" d="M 2034 2216 
Q 1584 2216 1326 1975 
Q 1069 1734 1069 1313 
Q 1069 891 1326 650 
Q 1584 409 2034 409 
Q 2484 409 2743 651 
Q 3003 894 3003 1313 
Q 3003 1734 2745 1975 
Q 2488 2216 2034 2216 
z
M 1403 2484 
Q 997 2584 770 2862 
Q 544 3141 544 3541 
Q 544 4100 942 4425 
Q 1341 4750 2034 4750 
Q 2731 4750 3128 4425 
Q 3525 4100 3525 3541 
Q 3525 3141 3298 2862 
Q 3072 2584 2669 2484 
Q 3125 2378 3379 2068 
Q 3634 1759 3634 1313 
Q 3634 634 3220 271 
Q 2806 -91 2034 -91 
Q 1263 -91 848 271 
Q 434 634 434 1313 
Q 434 1759 690 2068 
Q 947 2378 1403 2484 
z
M 1172 3481 
Q 1172 3119 1398 2916 
Q 1625 2713 2034 2713 
Q 2441 2713 2670 2916 
Q 2900 3119 2900 3481 
Q 2900 3844 2670 4047 
Q 2441 4250 2034 4250 
Q 1625 4250 1398 4047 
Q 1172 3844 1172 3481 
z
" transform="scale(0.015625)"/>
       </defs>
       <use xlink:href="#DejaVuSans-38"/>
       <use xlink:href="#DejaVuSans-30" x="63.623047"/>
       <use xlink:href="#DejaVuSans-30" x="127.246094"/>
       <use xlink:href="#DejaVuSans-30" x="190.869141"/>
      </g>
     </g>
    </g>
    <g id="xtick_6">
     <g id="line2d_6">
      <g>
       <use xlink:href="#m52b1f8adda" x="462.332416" y="116.44" style="stroke: #000000; stroke-width: 0.8"/>
      </g>
     </g>
     <g id="text_6">
      <!-- 10000 -->
      <g transform="translate(446.426166 131.038437) scale(0.1 -0.1)">
       <defs>
        <path id="DejaVuSans-31" d="M 794 531 
L 1825 531 
L 1825 4091 
L 703 3866 
L 703 4441 
L 1819 4666 
L 2450 4666 
L 2450 531 
L 3481 531 
L 3481 0 
L 794 0 
L 794 531 
z
" transform="scale(0.015625)"/>
       </defs>
       <use xlink:href="#DejaVuSans-31"/>
       <use xlink:href="#DejaVuSans-30" x="63.623047"/>
       <use xlink:href="#DejaVuSans-30" x="127.246094"/>
       <use xlink:href="#DejaVuSans-30" x="190.869141"/>
       <use xlink:href="#DejaVuSans-30" x="254.492188"/>
      </g>
     </g>
    </g>
    <g id="text_7">
     <!-- Time (ms) -->
     <g transform="translate(249.490781 144.716562) scale(0.1 -0.1)">
      <defs>
       <path id="DejaVuSans-54" d="M -19 4666 
L 3928 4666 
L 3928 4134 
L 2272 4134 
L 2272 0 
L 1638 0 
L 1638 4134 
L -19 4134 
L -19 4666 
z
" transform="scale(0.015625)"/>
       <path id="DejaVuSans-69" d="M 603 3500 
L 1178 3500 
L 1178 0 
L 603 0 
L 603 3500 
z
M 603 4863 
L 1178 4863 
L 1178 4134 
L 603 4134 
L 603 4863 
z
" transform="scale(0.015625)"/>
       <path id="DejaVuSans-6d" d="M 3328 2828 
Q 3544 3216 3844 3400 
Q 4144 3584 4550 3584 
Q 5097 3584 5394 3201 
Q 5691 2819 5691 2113 
L 5691 0 
L 5113 0 
L 5113 2094 
Q 5113 2597 4934 2840 
Q 4756 3084 4391 3084 
Q 3944 3084 3684 2787 
Q 3425 2491 3425 1978 
L 3425 0 
L 2847 0 
L 2847 2094 
Q 2847 2600 2669 2842 
Q 2491 3084 2119 3084 
Q 1678 3084 1418 2786 
Q 1159 2488 1159 1978 
L 1159 0 
L 581 0 
L 581 3500 
L 1159 3500 
L 1159 2956 
Q 1356 3278 1631 3431 
Q 1906 3584 2284 3584 
Q 2666 3584 2933 3390 
Q 3200 3197 3328 2828 
z
" transform="scale(0.015625)"/>
       <path id="DejaVuSans-65" d="M 3597 1894 
L 3597 1613 
L 953 1613 
Q 991 1019 1311 708 
Q 1631 397 2203 397 
Q 2534 397 2845 478 
Q 3156 559 3463 722 
L 3463 178 
Q 3153 47 2828 -22 
Q 2503 -91 2169 -91 
Q 1331 -91 842 396 
Q 353 884 353 1716 
Q 353 2575 817 3079 
Q 1281 3584 2069 3584 
Q 2775 3584 3186 3129 
Q 3597 2675 3597 1894 
z
M 3022 2063 
Q 3016 2534 2758 2815 
Q 2500 3097 2075 3097 
Q 1594 3097 1305 2825 
Q 1016 2553 972 2059 
L 3022 2063 
z
" transform="scale(0.015625)"/>
       <path id="DejaVuSans-20" transform="scale(0.015625)"/>
       <path id="DejaVuSans-28" d="M 1984 4856 
Q 1566 4138 1362 3434 
Q 1159 2731 1159 2009 
Q 1159 1288 1364 580 
Q 1569 -128 1984 -844 
L 1484 -844 
Q 1016 -109 783 600 
Q 550 1309 550 2009 
Q 550 2706 781 3412 
Q 1013 4119 1484 4856 
L 1984 4856 
z
" transform="scale(0.015625)"/>
       <path id="DejaVuSans-73" d="M 2834 3397 
L 2834 2853 
Q 2591 2978 2328 3040 
Q 2066 3103 1784 3103 
Q 1356 3103 1142 2972 
Q 928 2841 928 2578 
Q 928 2378 1081 2264 
Q 1234 2150 1697 2047 
L 1894 2003 
Q 2506 1872 2764 1633 
Q 3022 1394 3022 966 
Q 3022 478 2636 193 
Q 2250 -91 1575 -91 
Q 1294 -91 989 -36 
Q 684 19 347 128 
L 347 722 
Q 666 556 975 473 
Q 1284 391 1588 391 
Q 1994 391 2212 530 
Q 2431 669 2431 922 
Q 2431 1156 2273 1281 
Q 2116 1406 1581 1522 
L 1381 1569 
Q 847 1681 609 1914 
Q 372 2147 372 2553 
Q 372 3047 722 3315 
Q 1072 3584 1716 3584 
Q 2034 3584 2315 3537 
Q 2597 3491 2834 3397 
z
" transform="scale(0.015625)"/>
       <path id="DejaVuSans-29" d="M 513 4856 
L 1013 4856 
Q 1481 4119 1714 3412 
Q 1947 2706 1947 2009 
Q 1947 1309 1714 600 
Q 1481 -109 1013 -844 
L 513 -844 
Q 928 -128 1133 580 
Q 1338 1288 1338 2009 
Q 1338 2731 1133 3434 
Q 928 4138 513 4856 
z
" transform="scale(0.015625)"/>
      </defs>
      <use xlink:href="#DejaVuSans-54"/>
      <use xlink:href="#DejaVuSans-69" x="57.958984"/>
      <use xlink:href="#DejaVuSans-6d" x="85.742188"/>
      <use xlink:href="#DejaVuSans-65" x="183.154297"/>
      <use xlink:href="#DejaVuSans-20" x="244.677734"/>
      <use xlink:href="#DejaVuSans-28" x="276.464844"/>
      <use xlink:href="#DejaVuSans-6d" x="315.478516"/>
      <use xlink:href="#DejaVuSans-73" x="412.890625"/>
      <use xlink:href="#DejaVuSans-29" x="464.990234"/>
     </g>
    </g>
   </g>
   <g id="matplotlib.axis_2">
    <g id="ytick_1">
     <g id="line2d_7">
      <defs>
       <path id="m93c84932e8" d="M 0 0 
L -3.5 0 
" style="stroke: #000000; stroke-width: 0.8"/>
      </defs>
      <g>
       <use xlink:href="#m93c84932e8" x="56.18" y="111.638182" style="stroke: #000000; stroke-width: 0.8"/>
      </g>
     </g>
     <g id="text_8">
      <!-- −1.0 -->
      <g transform="translate(24.897188 115.437401) scale(0.1 -0.1)">
       <defs>
        <path id="DejaVuSans-2212" d="M 678 2272 
L 4684 2272 
L 4684 1741 
L 678 1741 
L 678 2272 
z
" transform="scale(0.015625)"/>
        <path id="DejaVuSans-2e" d="M 684 794 
L 1344 794 
L 1344 0 
L 684 0 
L 684 794 
z
" transform="scale(0.015625)"/>
       </defs>
       <use xlink:href="#DejaVuSans-2212"/>
       <use xlink:href="#DejaVuSans-31" x="83.789062"/>
       <use xlink:href="#DejaVuSans-2e" x="147.412109"/>
       <use xlink:href="#DejaVuSans-30" x="179.199219"/>
      </g>
     </g>
    </g>
    <g id="ytick_2">
     <g id="line2d_8">
      <g>
       <use xlink:href="#m93c84932e8" x="56.18" y="87.629091" style="stroke: #000000; stroke-width: 0.8"/>
      </g>
     </g>
     <g id="text_9">
      <!-- −0.5 -->
      <g transform="translate(24.897188 91.42831) scale(0.1 -0.1)">
       <defs>
        <path id="DejaVuSans-35" d="M 691 4666 
L 3169 4666 
L 3169 4134 
L 1269 4134 
L 1269 2991 
Q 1406 3038 1543 3061 
Q 1681 3084 1819 3084 
Q 2600 3084 3056 2656 
Q 3513 2228 3513 1497 
Q 3513 744 3044 326 
Q 2575 -91 1722 -91 
Q 1428 -91 1123 -41 
Q 819 9 494 109 
L 494 744 
Q 775 591 1075 516 
Q 1375 441 1709 441 
Q 2250 441 2565 725 
Q 2881 1009 2881 1497 
Q 2881 1984 2565 2268 
Q 2250 2553 1709 2553 
Q 1456 2553 1204 2497 
Q 953 2441 691 2322 
L 691 4666 
z
" transform="scale(0.015625)"/>
       </defs>
       <use xlink:href="#DejaVuSans-2212"/>
       <use xlink:href="#DejaVuSans-30" x="83.789062"/>
       <use xlink:href="#DejaVuSans-2e" x="147.412109"/>
       <use xlink:href="#DejaVuSans-35" x="179.199219"/>
      </g>
     </g>
    </g>
    <g id="ytick_3">
     <g id="line2d_9">
      <g>
       <use xlink:href="#m93c84932e8" x="56.18" y="63.62" style="stroke: #000000; stroke-width: 0.8"/>
      </g>
     </g>
     <g id="text_10">
      <!-- 0.0 -->
      <g transform="translate(33.276875 67.419219) scale(0.1 -0.1)">
       <use xlink:href="#DejaVuSans-30"/>
       <use xlink:href="#DejaVuSans-2e" x="63.623047"/>
       <use xlink:href="#DejaVuSans-30" x="95.410156"/>
      </g>
     </g>
    </g>
    <g id="ytick_4">
     <g id="line2d_10">
      <g>
       <use xlink:href="#m93c84932e8" x="56.18" y="39.610909" style="stroke: #000000; stroke-width: 0.8"/>
      </g>
     </g>
     <g id="text_11">
      <!-- 0.5 -->
      <g transform="translate(33.276875 43.410128) scale(0.1 -0.1)">
       <use xlink:href="#DejaVuSans-30"/>
       <use xlink:href="#DejaVuSans-2e" x="63.623047"/>
       <use xlink:href="#DejaVuSans-35" x="95.410156"/>
      </g>
     </g>
    </g>
    <g id="ytick_5">
     <g id="line2d_11">
      <g>
       <use xlink:href="#m93c84932e8" x="56.18" y="15.601818" style="stroke: #000000; stroke-width: 0.8"/>
      </g>
     </g>
     <g id="text_12">
      <!-- 1.0 -->
      <g transform="translate(33.276875 19.401037) scale(0.1 -0.1)">
       <use xlink:href="#DejaVuSans-31"/>
       <use xlink:href="#DejaVuSans-2e" x="63.623047"/>
       <use xlink:href="#DejaVuSans-30" x="95.410156"/>
      </g>
     </g>
    </g>
    <g id="text_13">
     <!-- X-Axis Value -->
     <g transform="translate(18.8175 94.180156) rotate(-90) scale(0.1 -0.1)">
      <defs>
       <path id="DejaVuSans-58" d="M 403 4666 
L 1081 4666 
L 2241 2931 
L 3406 4666 
L 4084 4666 
L 2584 2425 
L 4184 0 
L 3506 0 
L 2194 1984 
L 872 0 
L 191 0 
L 1856 2491 
L 403 4666 
z
" transform="scale(0.015625)"/>
       <path id="DejaVuSans-2d" d="M 313 2009 
L 1997 2009 
L 1997 1497 
L 313 1497 
L 313 2009 
z
" transform="scale(0.015625)"/>
       <path id="DejaVuSans-41" d="M 2188 4044 
L 1331 1722 
L 3047 1722 
L 2188 4044 
z
M 1831 4666 
L 2547 4666 
L 4325 0 
L 3669 0 
L 3244 1197 
L 1141 1197 
L 716 0 
L 50 0 
L 1831 4666 
z
" transform="scale(0.015625)"/>
       <path id="DejaVuSans-78" d="M 3513 3500 
L 2247 1797 
L 3578 0 
L 2900 0 
L 1881 1375 
L 863 0 
L 184 0 
L 1544 1831 
L 300 3500 
L 978 3500 
L 1906 2253 
L 2834 3500 
L 3513 3500 
z
" transform="scale(0.015625)"/>
       <path id="DejaVuSans-56" d="M 1831 0 
L 50 4666 
L 709 4666 
L 2188 738 
L 3669 4666 
L 4325 4666 
L 2547 0 
L 1831 0 
z
" transform="scale(0.015625)"/>
       <path id="DejaVuSans-61" d="M 2194 1759 
Q 1497 1759 1228 1600 
Q 959 1441 959 1056 
Q 959 750 1161 570 
Q 1363 391 1709 391 
Q 2188 391 2477 730 
Q 2766 1069 2766 1631 
L 2766 1759 
L 2194 1759 
z
M 3341 1997 
L 3341 0 
L 2766 0 
L 2766 531 
Q 2569 213 2275 61 
Q 1981 -91 1556 -91 
Q 1019 -91 701 211 
Q 384 513 384 1019 
Q 384 1609 779 1909 
Q 1175 2209 1959 2209 
L 2766 2209 
L 2766 2266 
Q 2766 2663 2505 2880 
Q 2244 3097 1772 3097 
Q 1472 3097 1187 3025 
Q 903 2953 641 2809 
L 641 3341 
Q 956 3463 1253 3523 
Q 1550 3584 1831 3584 
Q 2591 3584 2966 3190 
Q 3341 2797 3341 1997 
z
" transform="scale(0.015625)"/>
       <path id="DejaVuSans-6c" d="M 603 4863 
L 1178 4863 
L 1178 0 
L 603 0 
L 603 4863 
z
" transform="scale(0.015625)"/>
       <path id="DejaVuSans-75" d="M 544 1381 
L 544 3500 
L 1119 3500 
L 1119 1403 
Q 1119 906 1312 657 
Q 1506 409 1894 409 
Q 2359 409 2629 706 
Q 2900 1003 2900 1516 
L 2900 3500 
L 3475 3500 
L 3475 0 
L 2900 0 
L 2900 538 
Q 2691 219 2414 64 
Q 2138 -91 1772 -91 
Q 1169 -91 856 284 
Q 544 659 544 1381 
z
M 1991 3584 
L 1991 3584 
z
" transform="scale(0.015625)"/>
      </defs>
      <use xlink:href="#DejaVuSans-58"/>
      <use xlink:href="#DejaVuSans-2d" x="63.505859"/>
      <use xlink:href="#DejaVuSans-41" x="97.339844"/>
      <use xlink:href="#DejaVuSans-78" x="165.748047"/>
      <use xlink:href="#DejaVuSans-69" x="224.927734"/>
      <use xlink:href="#DejaVuSans-73" x="252.710938"/>
      <use xlink:href="#DejaVuSans-20" x="304.810547"/>
      <use xlink:href="#DejaVuSans-56" x="336.597656"/>
      <use xlink:href="#DejaVuSans-61" x="397.255859"/>
      <use xlink:href="#DejaVuSans-6c" x="458.535156"/>
      <use xlink:href="#DejaVuSans-75" x="486.318359"/>
      <use xlink:href="#DejaVuSans-65" x="549.697266"/>
     </g>
    </g>
   </g>
   <g id="line2d_12">
    <path d="M 56.18 65.060545 
L 108.979814 65.060545 
L 109.385967 65.540727 
L 112.229033 65.540727 
L 112.635186 66.020909 
L 114.259796 66.020909 
L 114.665948 66.501091 
L 123.601301 66.501091 
L 124.007454 66.981273 
L 126.038216 66.981273 
L 126.444368 67.461455 
L 131.318197 67.461455 
L 131.724349 67.941636 
L 132.536654 67.941636 
L 132.942807 67.461455 
L 134.161264 67.461455 
L 134.567416 67.941636 
L 136.192026 67.941636 
L 136.598178 67.461455 
L 137.004331 67.941636 
L 137.410483 67.941636 
L 137.816636 67.461455 
L 138.222788 67.941636 
L 143.50277 67.941636 
L 146.751989 64.100182 
L 147.158141 62.659636 
L 147.564294 62.659636 
L 147.970446 62.179455 
L 148.376599 61.219091 
L 148.782751 61.219091 
L 149.188903 60.258727 
L 149.595056 60.258727 
L 150.001208 59.778545 
L 153.65658 59.778545 
L 155.28119 57.857818 
L 155.687342 57.857818 
L 156.093494 57.377636 
L 156.499647 56.417273 
L 156.905799 55.937091 
L 157.718104 54.016364 
L 158.530409 54.016364 
L 158.936561 53.056 
L 160.155019 51.615455 
L 160.561171 50.174909 
L 160.967323 49.214545 
L 164.216543 45.373091 
L 164.622695 44.412727 
L 166.247305 42.492 
L 167.05961 40.571273 
L 169.902677 37.21 
L 170.308829 37.21 
L 170.714981 36.729818 
L 171.121134 36.729818 
L 171.527286 36.249636 
L 172.339591 36.249636 
L 172.745743 35.769455 
L 173.558048 35.769455 
L 174.776506 34.328909 
L 175.182658 33.368545 
L 175.58881 32.888364 
L 175.994963 31.928 
L 176.401115 31.928 
L 176.807268 31.447818 
L 177.21342 31.447818 
L 178.025725 30.487455 
L 178.431877 29.527091 
L 178.83803 29.527091 
L 179.244182 29.046909 
L 179.650335 29.046909 
L 180.462639 28.086545 
L 180.868792 28.086545 
L 182.493401 26.165818 
L 182.899554 26.165818 
L 183.305706 25.685636 
L 184.118011 25.685636 
L 184.524164 25.205455 
L 184.930316 25.205455 
L 185.336468 24.725273 
L 185.742621 24.725273 
L 186.148773 24.245091 
L 186.961078 24.245091 
L 187.773383 23.284727 
L 188.179535 23.764909 
L 188.585688 23.284727 
L 199.145651 23.284727 
L 199.551803 22.804545 
L 206.456394 22.804545 
L 206.862546 23.284727 
L 207.268699 22.804545 
L 207.674851 23.284727 
L 208.081004 22.804545 
L 208.487156 23.284727 
L 208.893309 22.804545 
L 221.077881 22.804545 
L 221.484033 23.284727 
L 222.702491 23.284727 
L 223.108643 23.764909 
L 223.920948 23.764909 
L 224.3271 24.245091 
L 224.733253 24.245091 
L 225.139405 24.725273 
L 225.545558 24.725273 
L 225.95171 25.205455 
L 226.357862 25.205455 
L 226.764015 25.685636 
L 227.57632 25.685636 
L 227.982472 26.646 
L 228.388625 26.646 
L 228.794777 27.606364 
L 231.637844 30.967636 
L 232.043996 30.967636 
L 232.856301 31.928 
L 233.668606 31.928 
L 234.480911 32.888364 
L 234.887063 32.888364 
L 236.10552 34.328909 
L 236.511673 34.328909 
L 237.73013 35.769455 
L 238.136283 35.769455 
L 240.167045 38.170364 
L 240.573197 38.170364 
L 242.197807 40.091091 
L 243.010112 42.011818 
L 243.822416 42.011818 
L 244.228569 42.972182 
L 245.040874 43.932545 
L 245.447026 45.373091 
L 246.665483 48.254182 
L 247.883941 49.694727 
L 248.290093 49.694727 
L 248.696245 50.174909 
L 249.102398 51.135273 
L 250.320855 52.575818 
L 251.13316 52.575818 
L 251.539312 54.016364 
L 251.945465 54.976727 
L 253.570074 56.897455 
L 253.976227 56.897455 
L 254.788532 58.818182 
L 255.194684 60.258727 
L 256.006989 61.219091 
L 256.413141 62.179455 
L 256.819294 62.659636 
L 257.225446 63.62 
L 258.037751 64.580364 
L 258.443903 65.540727 
L 258.850056 67.461455 
L 259.256208 68.421818 
L 259.662361 68.902 
L 260.880818 71.783091 
L 261.28697 72.263273 
L 261.693123 73.223636 
L 262.505428 74.184 
L 263.723885 74.184 
L 265.348494 76.104727 
L 265.754647 77.065091 
L 266.160799 77.545273 
L 266.566952 77.545273 
L 266.973104 78.025455 
L 267.379257 78.985818 
L 267.785409 79.466 
L 268.191561 79.466 
L 268.597714 80.426364 
L 269.410019 81.386727 
L 269.816171 81.386727 
L 270.222323 81.866909 
L 270.628476 82.827273 
L 271.034628 83.307455 
L 271.440781 83.307455 
L 271.846933 83.787636 
L 272.253086 83.787636 
L 273.471543 86.668727 
L 273.877695 87.148909 
L 274.283848 88.109273 
L 274.69 88.589455 
L 275.502305 88.589455 
L 275.908457 89.549818 
L 276.31461 90.03 
L 277.939219 93.871455 
L 278.345372 94.351636 
L 278.751524 95.312 
L 281.188439 98.193091 
L 282.000743 98.193091 
L 282.406896 98.673273 
L 282.813048 98.673273 
L 283.219201 99.633636 
L 283.625353 99.633636 
L 284.437658 101.554364 
L 285.249963 101.554364 
L 285.656115 102.034545 
L 286.062268 102.034545 
L 286.874572 102.994909 
L 287.686877 102.994909 
L 288.09303 103.475091 
L 288.499182 103.475091 
L 289.717639 104.915636 
L 290.123792 104.915636 
L 290.529944 105.395818 
L 290.936097 105.395818 
L 291.342249 105.876 
L 291.748401 105.876 
L 292.154554 106.356182 
L 292.560706 106.356182 
L 292.966859 106.836364 
L 294.185316 106.836364 
L 294.591468 107.316545 
L 295.403773 107.316545 
L 295.809926 107.796727 
L 297.434535 107.796727 
L 297.840688 108.276909 
L 306.369888 108.276909 
L 306.776041 108.757091 
L 307.588346 108.757091 
L 307.994498 108.276909 
L 308.400651 108.757091 
L 313.27448 108.757091 
L 313.680632 108.276909 
L 314.086784 108.757091 
L 315.305242 108.757091 
L 315.711394 108.276909 
L 316.117546 108.757091 
L 318.960613 108.757091 
L 319.366766 109.237273 
L 320.179071 109.237273 
L 320.585223 108.757091 
L 320.991375 109.237273 
L 321.80368 109.237273 
L 322.209833 108.757091 
L 322.615985 108.757091 
L 323.022138 109.237273 
L 323.834442 109.237273 
L 324.240595 108.757091 
L 326.271357 108.757091 
L 326.677509 108.276909 
L 327.489814 108.276909 
L 327.895967 107.796727 
L 328.302119 107.796727 
L 328.708271 106.836364 
L 329.520576 106.836364 
L 330.332881 105.876 
L 330.739033 105.876 
L 331.145186 105.395818 
L 331.551338 105.395818 
L 331.957491 104.915636 
L 333.5821 104.915636 
L 333.988253 104.435455 
L 334.394405 104.435455 
L 334.800558 103.955273 
L 335.612862 103.955273 
L 336.019015 103.475091 
L 336.83132 103.475091 
L 337.237472 102.994909 
L 337.643625 102.994909 
L 338.049777 102.034545 
L 338.455929 102.034545 
L 338.862082 101.554364 
L 339.268234 101.554364 
L 339.674387 101.074182 
L 340.080539 100.113818 
L 340.486691 99.633636 
L 340.892844 99.633636 
L 341.298996 98.673273 
L 341.705149 98.673273 
L 342.517454 97.712909 
L 343.329758 97.712909 
L 344.548216 96.272364 
L 344.954368 95.312 
L 345.766673 94.351636 
L 346.172825 94.351636 
L 346.98513 93.391273 
L 347.391283 92.430909 
L 347.797435 91.950727 
L 348.203587 90.990364 
L 349.015892 90.03 
L 349.422045 90.03 
L 349.828197 89.069636 
L 350.234349 87.629091 
L 351.046654 86.668727 
L 351.452807 86.668727 
L 351.858959 85.708364 
L 352.265112 85.228182 
L 352.671264 85.228182 
L 353.889721 83.787636 
L 354.295874 83.787636 
L 357.138941 80.426364 
L 357.545093 79.466 
L 359.575855 77.065091 
L 359.982007 77.065091 
L 360.38816 76.584909 
L 361.606617 76.584909 
L 362.01277 76.104727 
L 363.231227 76.104727 
L 365.261989 73.703818 
L 365.668141 73.703818 
L 366.074294 72.743455 
L 367.292751 71.302909 
L 367.698903 70.342545 
L 368.511208 69.382182 
L 368.917361 68.421818 
L 369.323513 67.941636 
L 369.729665 67.941636 
L 370.135818 66.981273 
L 371.760428 65.060545 
L 398.160335 65.060545 
L 398.566487 64.580364 
L 398.972639 64.580364 
L 399.378792 65.060545 
L 401.815706 65.060545 
L 402.221859 64.580364 
L 402.628011 65.060545 
L 403.034164 65.060545 
L 403.440316 64.580364 
L 403.846468 65.060545 
L 405.064926 65.060545 
L 405.471078 64.580364 
L 405.87723 65.060545 
L 406.283383 64.580364 
L 406.689535 64.580364 
L 407.095688 65.060545 
L 407.50184 65.060545 
L 407.907993 64.580364 
L 408.720297 64.580364 
L 409.12645 64.100182 
L 410.344907 64.100182 
L 410.751059 63.62 
L 415.218736 63.62 
L 415.624888 63.139818 
L 416.031041 63.139818 
L 416.437193 62.659636 
L 419.28026 62.659636 
L 419.686413 62.179455 
L 420.498717 62.179455 
L 420.90487 61.699273 
L 422.52948 61.699273 
L 422.935632 62.179455 
L 431.05868 62.179455 
L 431.464833 62.659636 
L 432.68329 62.659636 
L 433.089442 63.139818 
L 434.714052 63.139818 
L 435.120204 63.62 
L 435.932509 63.62 
L 436.338662 64.100182 
L 436.744814 64.100182 
L 437.150967 64.580364 
L 493.2 64.580364 
L 493.2 64.580364 
" clip-path="url(#pc49e91f6a1)" style="fill: none; stroke: #1f77b4; stroke-width: 1.5; stroke-linecap: square"/>
   </g>
   <g id="line2d_13">
    <path d="M 56.18 63.62 
L 493.2 63.62 
" clip-path="url(#pc49e91f6a1)" style="fill: none; stroke-dasharray: 2.96,1.28; stroke-dashoffset: 0; stroke: #808080; stroke-width: 0.8"/>
   </g>
   <g id="patch_3">
    <path d="M 56.18 116.44 
L 56.18 10.8 
" style="fill: none; stroke: #000000; stroke-width: 0.8; stroke-linejoin: miter; stroke-linecap: square"/>
   </g>
   <g id="patch_4">
    <path d="M 56.18 116.44 
L 493.2 116.44 
" style="fill: none; stroke: #000000; stroke-width: 0.8; stroke-linejoin: miter; stroke-linecap: square"/>
   </g>
  </g>
  <g id="axes_2">
   <g id="patch_5">
    <path d="M 56.18 264.04 
L 493.2 264.04 
L 493.2 158.4 
L 56.18 158.4 
z
" style="fill: #ffffff"/>
   </g>
   <g id="matplotlib.axis_3">
    <g id="xtick_7">
     <g id="line2d_14">
      <g>
       <use xlink:href="#m52b1f8adda" x="56.18" y="264.04" style="stroke: #000000; stroke-width: 0.8"/>
      </g>
     </g>
     <g id="text_14">
      <!-- 0 -->
      <g transform="translate(52.99875 278.638438) scale(0.1 -0.1)">
       <use xlink:href="#DejaVuSans-30"/>
      </g>
     </g>
    </g>
    <g id="xtick_8">
     <g id="line2d_15">
      <g>
       <use xlink:href="#m52b1f8adda" x="137.410483" y="264.04" style="stroke: #000000; stroke-width: 0.8"/>
      </g>
     </g>
     <g id="text_15">
      <!-- 2000 -->
      <g transform="translate(124.685483 278.638438) scale(0.1 -0.1)">
       <use xlink:href="#DejaVuSans-32"/>
       <use xlink:href="#DejaVuSans-30" x="63.623047"/>
       <use xlink:href="#DejaVuSans-30" x="127.246094"/>
       <use xlink:href="#DejaVuSans-30" x="190.869141"/>
      </g>
     </g>
    </g>
    <g id="xtick_9">
     <g id="line2d_16">
      <g>
       <use xlink:href="#m52b1f8adda" x="218.640967" y="264.04" style="stroke: #000000; stroke-width: 0.8"/>
      </g>
     </g>
     <g id="text_16">
      <!-- 4000 -->
      <g transform="translate(205.915967 278.638438) scale(0.1 -0.1)">
       <use xlink:href="#DejaVuSans-34"/>
       <use xlink:href="#DejaVuSans-30" x="63.623047"/>
       <use xlink:href="#DejaVuSans-30" x="127.246094"/>
       <use xlink:href="#DejaVuSans-30" x="190.869141"/>
      </g>
     </g>
    </g>
    <g id="xtick_10">
     <g id="line2d_17">
      <g>
       <use xlink:href="#m52b1f8adda" x="299.87145" y="264.04" style="stroke: #000000; stroke-width: 0.8"/>
      </g>
     </g>
     <g id="text_17">
      <!-- 6000 -->
      <g transform="translate(287.14645 278.638438) scale(0.1 -0.1)">
       <use xlink:href="#DejaVuSans-36"/>
       <use xlink:href="#DejaVuSans-30" x="63.623047"/>
       <use xlink:href="#DejaVuSans-30" x="127.246094"/>
       <use xlink:href="#DejaVuSans-30" x="190.869141"/>
      </g>
     </g>
    </g>
    <g id="xtick_11">
     <g id="line2d_18">
      <g>
       <use xlink:href="#m52b1f8adda" x="381.101933" y="264.04" style="stroke: #000000; stroke-width: 0.8"/>
      </g>
     </g>
     <g id="text_18">
      <!-- 8000 -->
      <g transform="translate(368.376933 278.638438) scale(0.1 -0.1)">
       <use xlink:href="#DejaVuSans-38"/>
       <use xlink:href="#DejaVuSans-30" x="63.623047"/>
       <use xlink:href="#DejaVuSans-30" x="127.246094"/>
       <use xlink:href="#DejaVuSans-30" x="190.869141"/>
      </g>
     </g>
    </g>
    <g id="xtick_12">
     <g id="line2d_19">
      <g>
       <use xlink:href="#m52b1f8adda" x="462.332416" y="264.04" style="stroke: #000000; stroke-width: 0.8"/>
      </g>
     </g>
     <g id="text_19">
      <!-- 10000 -->
      <g transform="translate(446.426166 278.638438) scale(0.1 -0.1)">
       <use xlink:href="#DejaVuSans-31"/>
       <use xlink:href="#DejaVuSans-30" x="63.623047"/>
       <use xlink:href="#DejaVuSans-30" x="127.246094"/>
       <use xlink:href="#DejaVuSans-30" x="190.869141"/>
       <use xlink:href="#DejaVuSans-30" x="254.492188"/>
      </g>
     </g>
    </g>
    <g id="text_20">
     <!-- Time (ms) -->
     <g transform="translate(249.490781 292.316563) scale(0.1 -0.1)">
      <use xlink:href="#DejaVuSans-54"/>
      <use xlink:href="#DejaVuSans-69" x="57.958984"/>
      <use xlink:href="#DejaVuSans-6d" x="85.742188"/>
      <use xlink:href="#DejaVuSans-65" x="183.154297"/>
      <use xlink:href="#DejaVuSans-20" x="244.677734"/>
      <use xlink:href="#DejaVuSans-28" x="276.464844"/>
      <use xlink:href="#DejaVuSans-6d" x="315.478516"/>
      <use xlink:href="#DejaVuSans-73" x="412.890625"/>
      <use xlink:href="#DejaVuSans-29" x="464.990234"/>
     </g>
    </g>
   </g>
   <g id="matplotlib.axis_4">
    <g id="ytick_6">
     <g id="line2d_20">
      <g>
       <use xlink:href="#m93c84932e8" x="56.18" y="259.238182" style="stroke: #000000; stroke-width: 0.8"/>
      </g>
     </g>
     <g id="text_21">
      <!-- −1.0 -->
      <g transform="translate(24.897188 263.037401) scale(0.1 -0.1)">
       <use xlink:href="#DejaVuSans-2212"/>
       <use xlink:href="#DejaVuSans-31" x="83.789062"/>
       <use xlink:href="#DejaVuSans-2e" x="147.412109"/>
       <use xlink:href="#DejaVuSans-30" x="179.199219"/>
      </g>
     </g>
    </g>
    <g id="ytick_7">
     <g id="line2d_21">
      <g>
       <use xlink:href="#m93c84932e8" x="56.18" y="235.229091" style="stroke: #000000; stroke-width: 0.8"/>
      </g>
     </g>
     <g id="text_22">
      <!-- −0.5 -->
      <g transform="translate(24.897188 239.02831) scale(0.1 -0.1)">
       <use xlink:href="#DejaVuSans-2212"/>
       <use xlink:href="#DejaVuSans-30" x="83.789062"/>
       <use xlink:href="#DejaVuSans-2e" x="147.412109"/>
       <use xlink:href="#DejaVuSans-35" x="179.199219"/>
      </g>
     </g>
    </g>
    <g id="ytick_8">
     <g id="line2d_22">
      <g>
       <use xlink:href="#m93c84932e8" x="56.18" y="211.22" style="stroke: #000000; stroke-width: 0.8"/>
      </g>
     </g>
     <g id="text_23">
      <!-- 0.0 -->
      <g transform="translate(33.276875 215.019219) scale(0.1 -0.1)">
       <use xlink:href="#DejaVuSans-30"/>
       <use xlink:href="#DejaVuSans-2e" x="63.623047"/>
       <use xlink:href="#DejaVuSans-30" x="95.410156"/>
      </g>
     </g>
    </g>
    <g id="ytick_9">
     <g id="line2d_23">
      <g>
       <use xlink:href="#m93c84932e8" x="56.18" y="187.210909" style="stroke: #000000; stroke-width: 0.8"/>
      </g>
     </g>
     <g id="text_24">
      <!-- 0.5 -->
      <g transform="translate(33.276875 191.010128) scale(0.1 -0.1)">
       <use xlink:href="#DejaVuSans-30"/>
       <use xlink:href="#DejaVuSans-2e" x="63.623047"/>
       <use xlink:href="#DejaVuSans-35" x="95.410156"/>
      </g>
     </g>
    </g>
    <g id="ytick_10">
     <g id="line2d_24">
      <g>
       <use xlink:href="#m93c84932e8" x="56.18" y="163.201818" style="stroke: #000000; stroke-width: 0.8"/>
      </g>
     </g>
     <g id="text_25">
      <!-- 1.0 -->
      <g transform="translate(33.276875 167.001037) scale(0.1 -0.1)">
       <use xlink:href="#DejaVuSans-31"/>
       <use xlink:href="#DejaVuSans-2e" x="63.623047"/>
       <use xlink:href="#DejaVuSans-30" x="95.410156"/>
      </g>
     </g>
    </g>
    <g id="text_26">
     <!-- Y-Axis Value -->
     <g transform="translate(18.8175 241.065313) rotate(-90) scale(0.1 -0.1)">
      <defs>
       <path id="DejaVuSans-59" d="M -13 4666 
L 666 4666 
L 1959 2747 
L 3244 4666 
L 3922 4666 
L 2272 2222 
L 2272 0 
L 1638 0 
L 1638 2222 
L -13 4666 
z
" transform="scale(0.015625)"/>
      </defs>
      <use xlink:href="#DejaVuSans-59"/>
      <use xlink:href="#DejaVuSans-2d" x="49.208984"/>
      <use xlink:href="#DejaVuSans-41" x="83.042969"/>
      <use xlink:href="#DejaVuSans-78" x="151.451172"/>
      <use xlink:href="#DejaVuSans-69" x="210.630859"/>
      <use xlink:href="#DejaVuSans-73" x="238.414062"/>
      <use xlink:href="#DejaVuSans-20" x="290.513672"/>
      <use xlink:href="#DejaVuSans-56" x="322.300781"/>
      <use xlink:href="#DejaVuSans-61" x="382.958984"/>
      <use xlink:href="#DejaVuSans-6c" x="444.238281"/>
      <use xlink:href="#DejaVuSans-75" x="472.021484"/>
      <use xlink:href="#DejaVuSans-65" x="535.400391"/>
     </g>
    </g>
   </g>
   <g id="line2d_25">
    <path d="M 56.18 210.259636 
L 96.795242 210.259636 
L 97.201394 209.779455 
L 99.232156 209.779455 
L 99.638309 209.299273 
L 102.075223 209.299273 
L 102.481375 208.819091 
L 103.29368 208.819091 
L 103.699833 208.338909 
L 104.512138 208.338909 
L 104.91829 207.858727 
L 106.5429 207.858727 
L 106.949052 207.378545 
L 108.167509 207.378545 
L 108.573662 206.898364 
L 108.979814 205.938 
L 110.198271 204.497455 
L 111.416729 204.497455 
L 111.822881 204.017273 
L 113.447491 200.175818 
L 113.853643 199.695636 
L 114.259796 198.735273 
L 115.0721 197.774909 
L 115.478253 196.814545 
L 115.884405 196.334364 
L 116.69671 194.413636 
L 117.102862 193.933455 
L 117.915167 192.012727 
L 118.32132 191.532545 
L 119.945929 184.329818 
L 120.352082 182.889273 
L 121.164387 179.528 
L 121.570539 178.087455 
L 122.382844 176.166727 
L 122.788996 174.726182 
L 123.195149 172.805455 
L 124.007454 166.082909 
L 124.413606 166.082909 
L 124.819758 165.602727 
L 159.342714 165.602727 
L 159.748866 166.082909 
L 161.373476 166.082909 
L 161.779628 166.563091 
L 162.998086 166.563091 
L 163.404238 167.043273 
L 164.216543 167.043273 
L 164.622695 167.523455 
L 165.435 167.523455 
L 166.247305 168.483818 
L 166.653457 168.483818 
L 167.05961 168.964 
L 167.465762 168.964 
L 168.278067 169.924364 
L 168.684219 169.924364 
L 169.090372 170.404545 
L 169.496524 170.404545 
L 169.902677 170.884727 
L 170.308829 170.884727 
L 170.714981 171.364909 
L 172.339591 171.364909 
L 172.745743 172.325273 
L 173.151896 171.845091 
L 173.558048 172.325273 
L 174.370353 172.325273 
L 176.807268 175.206364 
L 177.21342 175.206364 
L 178.83803 177.127091 
L 179.244182 177.127091 
L 179.650335 177.607273 
L 180.056487 177.607273 
L 180.462639 178.087455 
L 180.868792 178.087455 
L 181.274944 179.047818 
L 183.305706 181.448727 
L 183.711859 181.448727 
L 184.930316 182.889273 
L 185.336468 183.849636 
L 185.742621 184.329818 
L 186.148773 184.329818 
L 186.554926 184.81 
L 186.961078 184.81 
L 188.179535 186.250545 
L 188.99184 186.250545 
L 189.397993 186.730727 
L 190.61645 186.730727 
L 191.022602 187.210909 
L 193.459517 187.210909 
L 193.865669 187.691091 
L 197.114888 187.691091 
L 197.521041 188.171273 
L 198.333346 188.171273 
L 198.739498 188.651455 
L 199.551803 188.651455 
L 200.364108 189.611818 
L 200.77026 189.611818 
L 201.176413 190.092 
L 201.582565 191.532545 
L 201.988717 192.012727 
L 202.39487 193.453273 
L 203.613327 196.334364 
L 204.01948 197.774909 
L 204.831784 199.695636 
L 206.456394 207.858727 
L 206.862546 210.739818 
L 207.674851 215.061455 
L 210.111766 228.986727 
L 210.517918 230.427273 
L 211.330223 230.427273 
L 211.736375 230.907455 
L 216.204052 230.907455 
L 216.610204 231.387636 
L 218.640967 231.387636 
L 219.047119 231.867818 
L 219.453271 231.867818 
L 219.859424 232.348 
L 221.077881 232.348 
L 221.484033 232.828182 
L 222.296338 232.828182 
L 222.702491 233.308364 
L 223.108643 233.308364 
L 223.920948 234.268727 
L 224.3271 234.268727 
L 224.733253 234.748909 
L 225.545558 234.748909 
L 226.764015 236.189455 
L 227.170167 236.189455 
L 229.200929 238.590364 
L 229.607082 239.550727 
L 230.419387 240.511091 
L 230.825539 240.511091 
L 233.262454 243.392182 
L 233.668606 243.392182 
L 234.074758 243.872364 
L 234.480911 243.872364 
L 235.699368 245.312909 
L 236.10552 245.312909 
L 238.136283 247.713818 
L 238.542435 247.713818 
L 240.167045 249.634545 
L 240.573197 249.634545 
L 243.010112 252.515636 
L 243.416264 252.515636 
L 243.822416 252.995818 
L 244.228569 252.995818 
L 245.040874 253.956182 
L 245.853178 253.956182 
L 246.259331 254.916545 
L 246.665483 255.396727 
L 249.102398 255.396727 
L 249.50855 255.876909 
L 251.539312 255.876909 
L 251.945465 256.357091 
L 255.194684 256.357091 
L 255.600836 256.837273 
L 256.006989 256.357091 
L 256.413141 256.837273 
L 267.379257 256.837273 
L 267.785409 256.357091 
L 269.410019 256.357091 
L 270.222323 255.396727 
L 270.628476 255.396727 
L 271.034628 254.916545 
L 271.846933 254.916545 
L 272.659238 253.956182 
L 273.06539 253.956182 
L 273.471543 252.995818 
L 273.877695 252.995818 
L 274.69 252.035455 
L 275.502305 252.035455 
L 276.720762 250.594909 
L 277.126914 249.634545 
L 277.533067 249.154364 
L 277.939219 249.154364 
L 278.345372 248.194 
L 281.188439 244.832727 
L 281.594591 244.832727 
L 282.000743 244.352545 
L 282.406896 244.352545 
L 283.625353 242.912 
L 284.031506 241.951636 
L 284.437658 241.951636 
L 284.84381 240.991273 
L 285.249963 240.991273 
L 285.656115 240.511091 
L 286.062268 240.511091 
L 286.46842 239.550727 
L 286.874572 239.070545 
L 287.280725 239.070545 
L 288.499182 237.63 
L 288.905335 236.669636 
L 289.717639 235.709273 
L 290.123792 234.748909 
L 291.342249 233.308364 
L 291.748401 233.308364 
L 292.560706 232.348 
L 292.966859 232.348 
L 293.373011 231.867818 
L 293.779164 231.867818 
L 294.997621 230.427273 
L 295.403773 230.427273 
L 296.216078 229.466909 
L 296.62223 229.466909 
L 297.028383 228.986727 
L 298.24684 228.986727 
L 298.652993 228.506545 
L 299.059145 228.506545 
L 299.465297 228.026364 
L 303.932974 228.026364 
L 304.339126 227.546182 
L 309.212955 227.546182 
L 309.619108 227.066 
L 310.02526 227.066 
L 310.837565 226.105636 
L 311.243717 226.105636 
L 312.056022 225.145273 
L 312.868327 223.224545 
L 313.27448 222.744364 
L 313.680632 221.784 
L 314.086784 220.343455 
L 314.492937 219.383091 
L 314.899089 217.942545 
L 315.305242 216.982182 
L 316.523699 211.700182 
L 316.929851 210.259636 
L 317.336004 207.378545 
L 318.148309 203.056909 
L 318.960613 197.774909 
L 319.366766 196.334364 
L 319.772918 195.854182 
L 320.179071 195.854182 
L 320.585223 195.374 
L 323.42829 195.374 
L 323.834442 194.893818 
L 324.240595 194.893818 
L 324.646747 194.413636 
L 325.0529 194.413636 
L 325.459052 193.453273 
L 325.865204 192.973091 
L 326.677509 192.973091 
L 328.302119 191.052364 
L 329.114424 189.131636 
L 330.739033 187.210909 
L 331.145186 187.210909 
L 331.957491 186.250545 
L 332.363643 186.250545 
L 332.769796 185.770364 
L 333.175948 185.770364 
L 333.5821 185.290182 
L 333.988253 185.290182 
L 334.394405 184.81 
L 334.800558 184.81 
L 335.20671 184.329818 
L 335.612862 184.329818 
L 336.019015 183.849636 
L 336.425167 183.849636 
L 337.237472 182.889273 
L 337.643625 181.928909 
L 338.049777 181.928909 
L 339.268234 180.488364 
L 339.674387 179.528 
L 341.705149 177.127091 
L 342.111301 177.127091 
L 342.517454 176.646909 
L 342.923606 176.646909 
L 343.329758 176.166727 
L 343.735911 175.206364 
L 344.142063 174.726182 
L 344.548216 174.726182 
L 346.578978 172.325273 
L 346.98513 172.325273 
L 347.797435 171.364909 
L 348.60974 171.364909 
L 349.422045 170.404545 
L 349.828197 170.404545 
L 350.640502 169.444182 
L 351.046654 169.444182 
L 351.452807 168.964 
L 351.858959 168.964 
L 352.265112 168.483818 
L 353.889721 168.483818 
L 354.295874 168.003636 
L 355.514331 168.003636 
L 355.920483 167.523455 
L 356.326636 167.523455 
L 356.732788 167.043273 
L 357.951245 167.043273 
L 358.357398 166.563091 
L 358.76355 167.043273 
L 359.169703 166.563091 
L 363.637379 166.563091 
L 364.043532 166.082909 
L 366.886599 166.082909 
L 367.292751 165.602727 
L 397.754182 165.602727 
L 398.160335 165.122545 
L 410.344907 165.122545 
L 410.751059 165.602727 
L 418.061803 165.602727 
L 418.467955 166.082909 
L 420.092565 166.082909 
L 420.498717 167.043273 
L 420.90487 167.523455 
L 421.311022 168.964 
L 422.52948 175.206364 
L 423.341784 179.528 
L 423.747937 180.968545 
L 424.560242 184.329818 
L 424.966394 184.81 
L 425.372546 186.250545 
L 425.778699 186.250545 
L 426.591004 187.210909 
L 428.215613 187.210909 
L 428.621766 187.691091 
L 429.027918 187.691091 
L 429.434071 188.651455 
L 429.840223 188.651455 
L 430.652528 190.572182 
L 431.05868 192.012727 
L 431.464833 192.973091 
L 431.870985 194.413636 
L 432.68329 196.334364 
L 433.089442 197.774909 
L 433.901747 199.695636 
L 434.3079 201.136182 
L 434.714052 201.616364 
L 435.120204 203.056909 
L 436.338662 205.938 
L 436.744814 207.378545 
L 437.557119 207.378545 
L 437.963271 207.858727 
L 439.994033 207.858727 
L 440.400186 208.338909 
L 442.024796 208.338909 
L 442.430948 208.819091 
L 442.8371 208.819091 
L 443.649405 209.779455 
L 444.867862 209.779455 
L 445.274015 210.259636 
L 493.2 210.259636 
L 493.2 210.259636 
" clip-path="url(#pc49b0e85aa)" style="fill: none; stroke: #1f77b4; stroke-width: 1.5; stroke-linecap: square"/>
   </g>
   <g id="line2d_26">
    <path d="M 56.18 211.22 
L 493.2 211.22 
" clip-path="url(#pc49b0e85aa)" style="fill: none; stroke-dasharray: 2.96,1.28; stroke-dashoffset: 0; stroke: #808080; stroke-width: 0.8"/>
   </g>
   <g id="patch_6">
    <path d="M 56.18 264.04 
L 56.18 158.4 
" style="fill: none; stroke: #000000; stroke-width: 0.8; stroke-linejoin: miter; stroke-linecap: square"/>
   </g>
   <g id="patch_7">
    <path d="M 56.18 264.04 
L 493.2 264.04 
" style="fill: none; stroke: #000000; stroke-width: 0.8; stroke-linejoin: miter; stroke-linecap: square"/>
   </g>
  </g>
 </g>
 <defs>
  <clipPath id="pc49e91f6a1">
   <rect x="56.18" y="10.8" width="437.02" height="105.64"/>
  </clipPath>
  <clipPath id="pc49b0e85aa">
   <rect x="56.18" y="158.4" width="437.02" height="105.64"/>
  </clipPath>
 </defs>
</svg>
