<?xml version="1.0" encoding="utf-8" standalone="no"?>
<!DOCTYPE svg PUBLIC "-//W3C//DTD SVG 1.1//EN"
  "http://www.w3.org/Graphics/SVG/1.1/DTD/svg11.dtd">
<svg xmlns:xlink="http://www.w3.org/1999/xlink" width="504pt" height="306pt" viewBox="0 0 504 306" xmlns="http://www.w3.org/2000/svg" version="1.1">
 <metadata>
  <rdf:RDF xmlns:dc="http://purl.org/dc/elements/1.1/" xmlns:cc="http://creativecommons.org/ns#" xmlns:rdf="http://www.w3.org/1999/02/22-rdf-syntax-ns#">
   <cc:Work>
    <dc:type rdf:resource="http://purl.org/dc/dcmitype/StillImage"/>
    <dc:date>2024-06-16T23:01:43.921492</dc:date>
    <dc:format>image/svg+xml</dc:format>
    <dc:creator>
     <cc:Agent>
      <dc:title>Matplotlib v3.8.3, https://matplotlib.org/</dc:title>
     </cc:Agent>
    </dc:creator>
   </cc:Work>
  </rdf:RDF>
 </metadata>
 <defs>
  <style type="text/css">*{stroke-linejoin: round; stroke-linecap: butt}</style>
 </defs>
 <g id="figure_1">
  <g id="patch_1">
   <path d="M 0 306 
L 504 306 
L 504 0 
L 0 0 
z
" style="fill: #ffffff"/>
  </g>
  <g id="axes_1">
   <g id="patch_2">
    <path d="M 56.18 116.44 
L 493.2 116.44 
L 493.2 10.8 
L 56.18 10.8 
z
" style="fill: #ffffff"/>
   </g>
   <g id="matplotlib.axis_1">
    <g id="xtick_1">
     <g id="line2d_1">
      <defs>
       <path id="m3177810fbf" d="M 0 0 
L 0 3.5 
" style="stroke: #000000; stroke-width: 0.8"/>
      </defs>
      <g>
       <use xlink:href="#m3177810fbf" x="56.18" y="116.44" style="stroke: #000000; stroke-width: 0.8"/>
      </g>
     </g>
     <g id="text_1">
      <!-- 0 -->
      <g transform="translate(52.99875 131.038437) scale(0.1 -0.1)">
       <defs>
        <path id="DejaVuSans-30" d="M 2034 4250 
Q 1547 4250 1301 3770 
Q 1056 3291 1056 2328 
Q 1056 1369 1301 889 
Q 1547 409 2034 409 
Q 2525 409 2770 889 
Q 3016 1369 3016 2328 
Q 3016 3291 2770 3770 
Q 2525 4250 2034 4250 
z
M 2034 4750 
Q 2819 4750 3233 4129 
Q 3647 3509 3647 2328 
Q 3647 1150 3233 529 
Q 2819 -91 2034 -91 
Q 1250 -91 836 529 
Q 422 1150 422 2328 
Q 422 3509 836 4129 
Q 1250 4750 2034 4750 
z
" transform="scale(0.015625)"/>
       </defs>
       <use xlink:href="#DejaVuSans-30"/>
      </g>
     </g>
    </g>
    <g id="xtick_2">
     <g id="line2d_2">
      <g>
       <use xlink:href="#m3177810fbf" x="134.428881" y="116.44" style="stroke: #000000; stroke-width: 0.8"/>
      </g>
     </g>
     <g id="text_2">
      <!-- 2000 -->
      <g transform="translate(121.703881 131.038437) scale(0.1 -0.1)">
       <defs>
        <path id="DejaVuSans-32" d="M 1228 531 
L 3431 531 
L 3431 0 
L 469 0 
L 469 531 
Q 828 903 1448 1529 
Q 2069 2156 2228 2338 
Q 2531 2678 2651 2914 
Q 2772 3150 2772 3378 
Q 2772 3750 2511 3984 
Q 2250 4219 1831 4219 
Q 1534 4219 1204 4116 
Q 875 4013 500 3803 
L 500 4441 
Q 881 4594 1212 4672 
Q 1544 4750 1819 4750 
Q 2544 4750 2975 4387 
Q 3406 4025 3406 3419 
Q 3406 3131 3298 2873 
Q 3191 2616 2906 2266 
Q 2828 2175 2409 1742 
Q 1991 1309 1228 531 
z
" transform="scale(0.015625)"/>
       </defs>
       <use xlink:href="#DejaVuSans-32"/>
       <use xlink:href="#DejaVuSans-30" x="63.623047"/>
       <use xlink:href="#DejaVuSans-30" x="127.246094"/>
       <use xlink:href="#DejaVuSans-30" x="190.869141"/>
      </g>
     </g>
    </g>
    <g id="xtick_3">
     <g id="line2d_3">
      <g>
       <use xlink:href="#m3177810fbf" x="212.677762" y="116.44" style="stroke: #000000; stroke-width: 0.8"/>
      </g>
     </g>
     <g id="text_3">
      <!-- 4000 -->
      <g transform="translate(199.952762 131.038437) scale(0.1 -0.1)">
       <defs>
        <path id="DejaVuSans-34" d="M 2419 4116 
L 825 1625 
L 2419 1625 
L 2419 4116 
z
M 2253 4666 
L 3047 4666 
L 3047 1625 
L 3713 1625 
L 3713 1100 
L 3047 1100 
L 3047 0 
L 2419 0 
L 2419 1100 
L 313 1100 
L 313 1709 
L 2253 4666 
z
" transform="scale(0.015625)"/>
       </defs>
       <use xlink:href="#DejaVuSans-34"/>
       <use xlink:href="#DejaVuSans-30" x="63.623047"/>
       <use xlink:href="#DejaVuSans-30" x="127.246094"/>
       <use xlink:href="#DejaVuSans-30" x="190.869141"/>
      </g>
     </g>
    </g>
    <g id="xtick_4">
     <g id="line2d_4">
      <g>
       <use xlink:href="#m3177810fbf" x="290.926643" y="116.44" style="stroke: #000000; stroke-width: 0.8"/>
      </g>
     </g>
     <g id="text_4">
      <!-- 6000 -->
      <g transform="translate(278.201643 131.038437) scale(0.1 -0.1)">
       <defs>
        <path id="DejaVuSans-36" d="M 2113 2584 
Q 1688 2584 1439 2293 
Q 1191 2003 1191 1497 
Q 1191 994 1439 701 
Q 1688 409 2113 409 
Q 2538 409 2786 701 
Q 3034 994 3034 1497 
Q 3034 2003 2786 2293 
Q 2538 2584 2113 2584 
z
M 3366 4563 
L 3366 3988 
Q 3128 4100 2886 4159 
Q 2644 4219 2406 4219 
Q 1781 4219 1451 3797 
Q 1122 3375 1075 2522 
Q 1259 2794 1537 2939 
Q 1816 3084 2150 3084 
Q 2853 3084 3261 2657 
Q 3669 2231 3669 1497 
Q 3669 778 3244 343 
Q 2819 -91 2113 -91 
Q 1303 -91 875 529 
Q 447 1150 447 2328 
Q 447 3434 972 4092 
Q 1497 4750 2381 4750 
Q 2619 4750 2861 4703 
Q 3103 4656 3366 4563 
z
" transform="scale(0.015625)"/>
       </defs>
       <use xlink:href="#DejaVuSans-36"/>
       <use xlink:href="#DejaVuSans-30" x="63.623047"/>
       <use xlink:href="#DejaVuSans-30" x="127.246094"/>
       <use xlink:href="#DejaVuSans-30" x="190.869141"/>
      </g>
     </g>
    </g>
    <g id="xtick_5">
     <g id="line2d_5">
      <g>
       <use xlink:href="#m3177810fbf" x="369.175524" y="116.44" style="stroke: #000000; stroke-width: 0.8"/>
      </g>
     </g>
     <g id="text_5">
      <!-- 8000 -->
      <g transform="translate(356.450524 131.038437) scale(0.1 -0.1)">
       <defs>
        <path id="DejaVuSans-38" d="M 2034 2216 
Q 1584 2216 1326 1975 
Q 1069 1734 1069 1313 
Q 1069 891 1326 650 
Q 1584 409 2034 409 
Q 2484 409 2743 651 
Q 3003 894 3003 1313 
Q 3003 1734 2745 1975 
Q 2488 2216 2034 2216 
z
M 1403 2484 
Q 997 2584 770 2862 
Q 544 3141 544 3541 
Q 544 4100 942 4425 
Q 1341 4750 2034 4750 
Q 2731 4750 3128 4425 
Q 3525 4100 3525 3541 
Q 3525 3141 3298 2862 
Q 3072 2584 2669 2484 
Q 3125 2378 3379 2068 
Q 3634 1759 3634 1313 
Q 3634 634 3220 271 
Q 2806 -91 2034 -91 
Q 1263 -91 848 271 
Q 434 634 434 1313 
Q 434 1759 690 2068 
Q 947 2378 1403 2484 
z
M 1172 3481 
Q 1172 3119 1398 2916 
Q 1625 2713 2034 2713 
Q 2441 2713 2670 2916 
Q 2900 3119 2900 3481 
Q 2900 3844 2670 4047 
Q 2441 4250 2034 4250 
Q 1625 4250 1398 4047 
Q 1172 3844 1172 3481 
z
" transform="scale(0.015625)"/>
       </defs>
       <use xlink:href="#DejaVuSans-38"/>
       <use xlink:href="#DejaVuSans-30" x="63.623047"/>
       <use xlink:href="#DejaVuSans-30" x="127.246094"/>
       <use xlink:href="#DejaVuSans-30" x="190.869141"/>
      </g>
     </g>
    </g>
    <g id="xtick_6">
     <g id="line2d_6">
      <g>
       <use xlink:href="#m3177810fbf" x="447.424405" y="116.44" style="stroke: #000000; stroke-width: 0.8"/>
      </g>
     </g>
     <g id="text_6">
      <!-- 10000 -->
      <g transform="translate(431.518155 131.038437) scale(0.1 -0.1)">
       <defs>
        <path id="DejaVuSans-31" d="M 794 531 
L 1825 531 
L 1825 4091 
L 703 3866 
L 703 4441 
L 1819 4666 
L 2450 4666 
L 2450 531 
L 3481 531 
L 3481 0 
L 794 0 
L 794 531 
z
" transform="scale(0.015625)"/>
       </defs>
       <use xlink:href="#DejaVuSans-31"/>
       <use xlink:href="#DejaVuSans-30" x="63.623047"/>
       <use xlink:href="#DejaVuSans-30" x="127.246094"/>
       <use xlink:href="#DejaVuSans-30" x="190.869141"/>
       <use xlink:href="#DejaVuSans-30" x="254.492188"/>
      </g>
     </g>
    </g>
    <g id="text_7">
     <!-- Time (ms) -->
     <g transform="translate(249.490781 144.716562) scale(0.1 -0.1)">
      <defs>
       <path id="DejaVuSans-54" d="M -19 4666 
L 3928 4666 
L 3928 4134 
L 2272 4134 
L 2272 0 
L 1638 0 
L 1638 4134 
L -19 4134 
L -19 4666 
z
" transform="scale(0.015625)"/>
       <path id="DejaVuSans-69" d="M 603 3500 
L 1178 3500 
L 1178 0 
L 603 0 
L 603 3500 
z
M 603 4863 
L 1178 4863 
L 1178 4134 
L 603 4134 
L 603 4863 
z
" transform="scale(0.015625)"/>
       <path id="DejaVuSans-6d" d="M 3328 2828 
Q 3544 3216 3844 3400 
Q 4144 3584 4550 3584 
Q 5097 3584 5394 3201 
Q 5691 2819 5691 2113 
L 5691 0 
L 5113 0 
L 5113 2094 
Q 5113 2597 4934 2840 
Q 4756 3084 4391 3084 
Q 3944 3084 3684 2787 
Q 3425 2491 3425 1978 
L 3425 0 
L 2847 0 
L 2847 2094 
Q 2847 2600 2669 2842 
Q 2491 3084 2119 3084 
Q 1678 3084 1418 2786 
Q 1159 2488 1159 1978 
L 1159 0 
L 581 0 
L 581 3500 
L 1159 3500 
L 1159 2956 
Q 1356 3278 1631 3431 
Q 1906 3584 2284 3584 
Q 2666 3584 2933 3390 
Q 3200 3197 3328 2828 
z
" transform="scale(0.015625)"/>
       <path id="DejaVuSans-65" d="M 3597 1894 
L 3597 1613 
L 953 1613 
Q 991 1019 1311 708 
Q 1631 397 2203 397 
Q 2534 397 2845 478 
Q 3156 559 3463 722 
L 3463 178 
Q 3153 47 2828 -22 
Q 2503 -91 2169 -91 
Q 1331 -91 842 396 
Q 353 884 353 1716 
Q 353 2575 817 3079 
Q 1281 3584 2069 3584 
Q 2775 3584 3186 3129 
Q 3597 2675 3597 1894 
z
M 3022 2063 
Q 3016 2534 2758 2815 
Q 2500 3097 2075 3097 
Q 1594 3097 1305 2825 
Q 1016 2553 972 2059 
L 3022 2063 
z
" transform="scale(0.015625)"/>
       <path id="DejaVuSans-20" transform="scale(0.015625)"/>
       <path id="DejaVuSans-28" d="M 1984 4856 
Q 1566 4138 1362 3434 
Q 1159 2731 1159 2009 
Q 1159 1288 1364 580 
Q 1569 -128 1984 -844 
L 1484 -844 
Q 1016 -109 783 600 
Q 550 1309 550 2009 
Q 550 2706 781 3412 
Q 1013 4119 1484 4856 
L 1984 4856 
z
" transform="scale(0.015625)"/>
       <path id="DejaVuSans-73" d="M 2834 3397 
L 2834 2853 
Q 2591 2978 2328 3040 
Q 2066 3103 1784 3103 
Q 1356 3103 1142 2972 
Q 928 2841 928 2578 
Q 928 2378 1081 2264 
Q 1234 2150 1697 2047 
L 1894 2003 
Q 2506 1872 2764 1633 
Q 3022 1394 3022 966 
Q 3022 478 2636 193 
Q 2250 -91 1575 -91 
Q 1294 -91 989 -36 
Q 684 19 347 128 
L 347 722 
Q 666 556 975 473 
Q 1284 391 1588 391 
Q 1994 391 2212 530 
Q 2431 669 2431 922 
Q 2431 1156 2273 1281 
Q 2116 1406 1581 1522 
L 1381 1569 
Q 847 1681 609 1914 
Q 372 2147 372 2553 
Q 372 3047 722 3315 
Q 1072 3584 1716 3584 
Q 2034 3584 2315 3537 
Q 2597 3491 2834 3397 
z
" transform="scale(0.015625)"/>
       <path id="DejaVuSans-29" d="M 513 4856 
L 1013 4856 
Q 1481 4119 1714 3412 
Q 1947 2706 1947 2009 
Q 1947 1309 1714 600 
Q 1481 -109 1013 -844 
L 513 -844 
Q 928 -128 1133 580 
Q 1338 1288 1338 2009 
Q 1338 2731 1133 3434 
Q 928 4138 513 4856 
z
" transform="scale(0.015625)"/>
      </defs>
      <use xlink:href="#DejaVuSans-54"/>
      <use xlink:href="#DejaVuSans-69" x="57.958984"/>
      <use xlink:href="#DejaVuSans-6d" x="85.742188"/>
      <use xlink:href="#DejaVuSans-65" x="183.154297"/>
      <use xlink:href="#DejaVuSans-20" x="244.677734"/>
      <use xlink:href="#DejaVuSans-28" x="276.464844"/>
      <use xlink:href="#DejaVuSans-6d" x="315.478516"/>
      <use xlink:href="#DejaVuSans-73" x="412.890625"/>
      <use xlink:href="#DejaVuSans-29" x="464.990234"/>
     </g>
    </g>
   </g>
   <g id="matplotlib.axis_2">
    <g id="ytick_1">
     <g id="line2d_7">
      <defs>
       <path id="m9d24507215" d="M 0 0 
L -3.5 0 
" style="stroke: #000000; stroke-width: 0.8"/>
      </defs>
      <g>
       <use xlink:href="#m9d24507215" x="56.18" y="111.638182" style="stroke: #000000; stroke-width: 0.8"/>
      </g>
     </g>
     <g id="text_8">
      <!-- −1.0 -->
      <g transform="translate(24.897188 115.437401) scale(0.1 -0.1)">
       <defs>
        <path id="DejaVuSans-2212" d="M 678 2272 
L 4684 2272 
L 4684 1741 
L 678 1741 
L 678 2272 
z
" transform="scale(0.015625)"/>
        <path id="DejaVuSans-2e" d="M 684 794 
L 1344 794 
L 1344 0 
L 684 0 
L 684 794 
z
" transform="scale(0.015625)"/>
       </defs>
       <use xlink:href="#DejaVuSans-2212"/>
       <use xlink:href="#DejaVuSans-31" x="83.789062"/>
       <use xlink:href="#DejaVuSans-2e" x="147.412109"/>
       <use xlink:href="#DejaVuSans-30" x="179.199219"/>
      </g>
     </g>
    </g>
    <g id="ytick_2">
     <g id="line2d_8">
      <g>
       <use xlink:href="#m9d24507215" x="56.18" y="87.629091" style="stroke: #000000; stroke-width: 0.8"/>
      </g>
     </g>
     <g id="text_9">
      <!-- −0.5 -->
      <g transform="translate(24.897188 91.42831) scale(0.1 -0.1)">
       <defs>
        <path id="DejaVuSans-35" d="M 691 4666 
L 3169 4666 
L 3169 4134 
L 1269 4134 
L 1269 2991 
Q 1406 3038 1543 3061 
Q 1681 3084 1819 3084 
Q 2600 3084 3056 2656 
Q 3513 2228 3513 1497 
Q 3513 744 3044 326 
Q 2575 -91 1722 -91 
Q 1428 -91 1123 -41 
Q 819 9 494 109 
L 494 744 
Q 775 591 1075 516 
Q 1375 441 1709 441 
Q 2250 441 2565 725 
Q 2881 1009 2881 1497 
Q 2881 1984 2565 2268 
Q 2250 2553 1709 2553 
Q 1456 2553 1204 2497 
Q 953 2441 691 2322 
L 691 4666 
z
" transform="scale(0.015625)"/>
       </defs>
       <use xlink:href="#DejaVuSans-2212"/>
       <use xlink:href="#DejaVuSans-30" x="83.789062"/>
       <use xlink:href="#DejaVuSans-2e" x="147.412109"/>
       <use xlink:href="#DejaVuSans-35" x="179.199219"/>
      </g>
     </g>
    </g>
    <g id="ytick_3">
     <g id="line2d_9">
      <g>
       <use xlink:href="#m9d24507215" x="56.18" y="63.62" style="stroke: #000000; stroke-width: 0.8"/>
      </g>
     </g>
     <g id="text_10">
      <!-- 0.0 -->
      <g transform="translate(33.276875 67.419219) scale(0.1 -0.1)">
       <use xlink:href="#DejaVuSans-30"/>
       <use xlink:href="#DejaVuSans-2e" x="63.623047"/>
       <use xlink:href="#DejaVuSans-30" x="95.410156"/>
      </g>
     </g>
    </g>
    <g id="ytick_4">
     <g id="line2d_10">
      <g>
       <use xlink:href="#m9d24507215" x="56.18" y="39.610909" style="stroke: #000000; stroke-width: 0.8"/>
      </g>
     </g>
     <g id="text_11">
      <!-- 0.5 -->
      <g transform="translate(33.276875 43.410128) scale(0.1 -0.1)">
       <use xlink:href="#DejaVuSans-30"/>
       <use xlink:href="#DejaVuSans-2e" x="63.623047"/>
       <use xlink:href="#DejaVuSans-35" x="95.410156"/>
      </g>
     </g>
    </g>
    <g id="ytick_5">
     <g id="line2d_11">
      <g>
       <use xlink:href="#m9d24507215" x="56.18" y="15.601818" style="stroke: #000000; stroke-width: 0.8"/>
      </g>
     </g>
     <g id="text_12">
      <!-- 1.0 -->
      <g transform="translate(33.276875 19.401037) scale(0.1 -0.1)">
       <use xlink:href="#DejaVuSans-31"/>
       <use xlink:href="#DejaVuSans-2e" x="63.623047"/>
       <use xlink:href="#DejaVuSans-30" x="95.410156"/>
      </g>
     </g>
    </g>
    <g id="text_13">
     <!-- X-Axis Value -->
     <g transform="translate(18.8175 94.180156) rotate(-90) scale(0.1 -0.1)">
      <defs>
       <path id="DejaVuSans-58" d="M 403 4666 
L 1081 4666 
L 2241 2931 
L 3406 4666 
L 4084 4666 
L 2584 2425 
L 4184 0 
L 3506 0 
L 2194 1984 
L 872 0 
L 191 0 
L 1856 2491 
L 403 4666 
z
" transform="scale(0.015625)"/>
       <path id="DejaVuSans-2d" d="M 313 2009 
L 1997 2009 
L 1997 1497 
L 313 1497 
L 313 2009 
z
" transform="scale(0.015625)"/>
       <path id="DejaVuSans-41" d="M 2188 4044 
L 1331 1722 
L 3047 1722 
L 2188 4044 
z
M 1831 4666 
L 2547 4666 
L 4325 0 
L 3669 0 
L 3244 1197 
L 1141 1197 
L 716 0 
L 50 0 
L 1831 4666 
z
" transform="scale(0.015625)"/>
       <path id="DejaVuSans-78" d="M 3513 3500 
L 2247 1797 
L 3578 0 
L 2900 0 
L 1881 1375 
L 863 0 
L 184 0 
L 1544 1831 
L 300 3500 
L 978 3500 
L 1906 2253 
L 2834 3500 
L 3513 3500 
z
" transform="scale(0.015625)"/>
       <path id="DejaVuSans-56" d="M 1831 0 
L 50 4666 
L 709 4666 
L 2188 738 
L 3669 4666 
L 4325 4666 
L 2547 0 
L 1831 0 
z
" transform="scale(0.015625)"/>
       <path id="DejaVuSans-61" d="M 2194 1759 
Q 1497 1759 1228 1600 
Q 959 1441 959 1056 
Q 959 750 1161 570 
Q 1363 391 1709 391 
Q 2188 391 2477 730 
Q 2766 1069 2766 1631 
L 2766 1759 
L 2194 1759 
z
M 3341 1997 
L 3341 0 
L 2766 0 
L 2766 531 
Q 2569 213 2275 61 
Q 1981 -91 1556 -91 
Q 1019 -91 701 211 
Q 384 513 384 1019 
Q 384 1609 779 1909 
Q 1175 2209 1959 2209 
L 2766 2209 
L 2766 2266 
Q 2766 2663 2505 2880 
Q 2244 3097 1772 3097 
Q 1472 3097 1187 3025 
Q 903 2953 641 2809 
L 641 3341 
Q 956 3463 1253 3523 
Q 1550 3584 1831 3584 
Q 2591 3584 2966 3190 
Q 3341 2797 3341 1997 
z
" transform="scale(0.015625)"/>
       <path id="DejaVuSans-6c" d="M 603 4863 
L 1178 4863 
L 1178 0 
L 603 0 
L 603 4863 
z
" transform="scale(0.015625)"/>
       <path id="DejaVuSans-75" d="M 544 1381 
L 544 3500 
L 1119 3500 
L 1119 1403 
Q 1119 906 1312 657 
Q 1506 409 1894 409 
Q 2359 409 2629 706 
Q 2900 1003 2900 1516 
L 2900 3500 
L 3475 3500 
L 3475 0 
L 2900 0 
L 2900 538 
Q 2691 219 2414 64 
Q 2138 -91 1772 -91 
Q 1169 -91 856 284 
Q 544 659 544 1381 
z
M 1991 3584 
L 1991 3584 
z
" transform="scale(0.015625)"/>
      </defs>
      <use xlink:href="#DejaVuSans-58"/>
      <use xlink:href="#DejaVuSans-2d" x="63.505859"/>
      <use xlink:href="#DejaVuSans-41" x="97.339844"/>
      <use xlink:href="#DejaVuSans-78" x="165.748047"/>
      <use xlink:href="#DejaVuSans-69" x="224.927734"/>
      <use xlink:href="#DejaVuSans-73" x="252.710938"/>
      <use xlink:href="#DejaVuSans-20" x="304.810547"/>
      <use xlink:href="#DejaVuSans-56" x="336.597656"/>
      <use xlink:href="#DejaVuSans-61" x="397.255859"/>
      <use xlink:href="#DejaVuSans-6c" x="458.535156"/>
      <use xlink:href="#DejaVuSans-75" x="486.318359"/>
      <use xlink:href="#DejaVuSans-65" x="549.697266"/>
     </g>
    </g>
   </g>
   <g id="line2d_12">
    <path d="M 56.18 65.060545 
L 62.43991 65.060545 
L 62.831155 64.580364 
L 63.222399 65.060545 
L 63.613644 65.060545 
L 64.004888 64.580364 
L 64.396132 65.060545 
L 65.569866 65.060545 
L 65.96111 64.580364 
L 67.134843 64.580364 
L 67.526088 65.060545 
L 70.264799 65.060545 
L 70.656043 64.580364 
L 71.047287 65.060545 
L 71.829776 65.060545 
L 72.221021 64.580364 
L 72.612265 65.060545 
L 73.003509 64.580364 
L 73.394754 65.060545 
L 83.958353 65.060545 
L 84.349597 65.540727 
L 84.740842 65.060545 
L 87.870797 65.060545 
L 88.262041 64.580364 
L 88.653286 65.060545 
L 89.04453 64.580364 
L 89.435774 65.060545 
L 92.174485 65.060545 
L 92.56573 64.580364 
L 92.956974 64.580364 
L 93.348218 65.060545 
L 94.130707 65.060545 
L 94.521952 64.580364 
L 94.913196 65.060545 
L 96.086929 65.060545 
L 96.478174 64.580364 
L 96.869418 65.060545 
L 97.260662 64.580364 
L 97.651907 65.060545 
L 98.043151 65.060545 
L 98.434396 64.580364 
L 98.82564 65.060545 
L 99.608129 65.060545 
L 99.999373 64.580364 
L 100.390618 65.060545 
L 114.475416 65.060545 
L 114.866661 64.580364 
L 115.257905 65.060545 
L 117.996616 65.060545 
L 118.38786 65.540727 
L 118.779105 64.580364 
L 119.170349 65.060545 
L 120.344082 65.060545 
L 120.735327 64.580364 
L 121.126571 64.580364 
L 121.517816 65.060545 
L 121.90906 64.580364 
L 122.300304 65.060545 
L 132.081415 65.060545 
L 132.472659 65.540727 
L 132.863903 65.060545 
L 142.645013 65.060545 
L 143.036258 64.580364 
L 143.427502 65.060545 
L 146.166213 65.060545 
L 146.557457 64.580364 
L 146.948702 65.060545 
L 147.339946 65.060545 
L 147.731191 64.580364 
L 148.122435 65.060545 
L 149.687413 65.060545 
L 150.078657 62.659636 
L 150.469902 65.060545 
L 154.382346 65.060545 
L 154.77359 64.580364 
L 155.164834 65.060545 
L 156.729812 65.060545 
L 157.121056 64.580364 
L 157.512301 64.580364 
L 157.903545 65.060545 
L 158.29479 64.580364 
L 158.686034 65.060545 
L 159.077278 64.580364 
L 159.468523 65.060545 
L 159.859767 64.580364 
L 160.251012 65.060545 
L 165.337189 65.060545 
L 165.728433 65.540727 
L 166.119678 65.060545 
L 180.986965 65.060545 
L 181.378209 64.580364 
L 181.769454 65.060545 
L 192.333053 65.060545 
L 192.724297 64.580364 
L 193.115542 65.060545 
L 197.41923 65.060545 
L 197.810474 64.100182 
L 198.592963 59.778545 
L 198.984208 58.338 
L 199.375452 55.937091 
L 199.766697 54.976727 
L 200.157941 54.496545 
L 200.94043 52.575818 
L 201.331674 52.095636 
L 201.722919 52.095636 
L 202.505407 48.734364 
L 202.896652 47.293818 
L 203.679141 46.333455 
L 204.461629 43.452364 
L 204.852874 42.972182 
L 205.244118 41.051455 
L 206.417851 39.610909 
L 206.809096 39.610909 
L 207.20034 38.650545 
L 207.591585 38.170364 
L 207.982829 38.170364 
L 208.374073 37.690182 
L 208.765318 34.328909 
L 209.156562 33.368545 
L 209.547807 31.928 
L 209.939051 30.967636 
L 210.330295 30.487455 
L 210.72154 28.566727 
L 211.112784 28.086545 
L 211.895273 24.245091 
L 212.286517 23.764909 
L 212.677762 22.804545 
L 213.069006 22.804545 
L 213.460251 21.844182 
L 213.851495 20.403636 
L 214.242739 19.443273 
L 214.633984 17.042364 
L 215.025228 16.082 
L 216.590206 16.082 
L 216.98145 16.562182 
L 217.372695 16.082 
L 217.763939 16.082 
L 218.155184 15.601818 
L 218.546428 16.082 
L 218.937672 15.601818 
L 219.328917 16.082 
L 220.50265 16.082 
L 220.893894 15.601818 
L 222.067628 15.601818 
L 222.458872 16.082 
L 222.850116 15.601818 
L 223.241361 16.082 
L 223.632605 16.082 
L 224.02385 15.601818 
L 224.415094 15.601818 
L 224.806338 16.082 
L 225.588827 16.082 
L 225.980072 15.601818 
L 226.371316 16.082 
L 226.76256 16.082 
L 227.153805 15.601818 
L 227.545049 16.082 
L 228.327538 16.082 
L 228.718782 15.601818 
L 229.110027 15.601818 
L 229.501271 16.082 
L 229.892516 16.082 
L 230.28376 15.601818 
L 230.675004 15.601818 
L 231.066249 16.082 
L 237.326159 16.082 
L 237.717404 16.562182 
L 238.108648 18.002727 
L 238.499893 18.002727 
L 238.891137 19.443273 
L 239.282381 18.002727 
L 239.673626 21.844182 
L 240.06487 23.284727 
L 240.456115 25.205455 
L 240.847359 23.764909 
L 241.238603 24.245091 
L 241.629848 26.165818 
L 242.021092 24.725273 
L 242.412337 26.165818 
L 242.803581 22.804545 
L 243.194825 22.804545 
L 243.58607 27.126182 
L 243.977314 29.527091 
L 244.368559 30.967636 
L 244.759803 24.725273 
L 245.542292 29.527091 
L 245.933536 25.205455 
L 246.324781 26.646 
L 246.716025 24.725273 
L 247.107269 25.685636 
L 247.498514 22.804545 
L 247.889758 23.764909 
L 248.281003 24.245091 
L 250.237225 24.245091 
L 250.628469 24.725273 
L 251.019714 24.245091 
L 251.410958 26.165818 
L 252.584691 20.883818 
L 252.975936 21.844182 
L 253.36718 20.403636 
L 253.758424 19.923455 
L 254.149669 19.923455 
L 254.540913 19.443273 
L 254.932158 19.923455 
L 255.714646 18.963091 
L 256.105891 19.443273 
L 256.497135 20.883818 
L 256.88838 19.443273 
L 257.279624 19.443273 
L 257.670868 18.482909 
L 258.062113 18.963091 
L 258.453357 18.963091 
L 258.844602 18.482909 
L 259.235846 18.482909 
L 259.62709 18.963091 
L 260.018335 18.482909 
L 260.409579 16.562182 
L 260.800824 16.562182 
L 261.192068 16.082 
L 265.495756 16.082 
L 265.887001 15.601818 
L 266.66949 15.601818 
L 267.060734 16.082 
L 267.843223 16.082 
L 268.234467 15.601818 
L 268.625712 15.601818 
L 269.016956 16.082 
L 269.408201 15.601818 
L 269.799445 16.082 
L 270.190689 15.601818 
L 270.973178 15.601818 
L 271.364423 16.082 
L 271.755667 15.601818 
L 272.146911 15.601818 
L 272.538156 16.082 
L 272.9294 16.082 
L 273.320645 15.601818 
L 273.711889 16.082 
L 274.885622 16.082 
L 275.276867 15.601818 
L 275.668111 16.082 
L 276.841844 16.082 
L 277.233089 18.963091 
L 277.624333 20.883818 
L 278.406822 22.804545 
L 279.189311 23.764909 
L 279.580555 24.725273 
L 279.971799 28.086545 
L 280.363044 30.007273 
L 280.754288 32.888364 
L 281.145533 36.729818 
L 281.536777 38.170364 
L 283.101755 40.091091 
L 283.492999 40.091091 
L 284.275488 41.051455 
L 285.449221 47.774 
L 285.840466 49.214545 
L 286.23171 52.095636 
L 286.622954 52.575818 
L 287.014199 54.016364 
L 287.405443 58.338 
L 287.796688 57.377636 
L 288.187932 58.818182 
L 289.361665 64.580364 
L 289.75291 65.060545 
L 293.274109 65.060545 
L 293.665354 64.580364 
L 294.056598 65.060545 
L 296.01282 65.060545 
L 296.404064 66.020909 
L 296.795309 70.342545 
L 297.186553 71.783091 
L 297.969042 73.703818 
L 298.360286 75.144364 
L 298.751531 76.104727 
L 299.142775 77.545273 
L 299.53402 78.505636 
L 299.925264 78.985818 
L 300.707753 81.866909 
L 301.098997 82.827273 
L 301.490242 84.748 
L 302.272731 86.668727 
L 303.055219 87.629091 
L 303.446464 88.589455 
L 303.837708 89.069636 
L 304.620197 90.990364 
L 305.011441 90.990364 
L 305.79393 94.351636 
L 306.185175 95.792182 
L 306.967663 96.752545 
L 307.358908 98.193091 
L 307.750152 100.594 
L 308.532641 102.514727 
L 308.923885 104.435455 
L 310.880107 109.237273 
L 311.271352 109.237273 
L 311.662596 109.717455 
L 312.445085 111.638182 
L 369.175524 111.638182 
L 369.566768 109.717455 
L 370.740501 106.836364 
L 371.131746 105.395818 
L 371.52299 104.915636 
L 372.696723 102.034545 
L 373.087968 101.554364 
L 374.261701 97.232727 
L 374.652945 96.272364 
L 375.04419 95.792182 
L 375.435434 94.831818 
L 376.217923 90.990364 
L 376.609167 90.03 
L 377.000412 89.549818 
L 377.782901 87.629091 
L 378.174145 87.148909 
L 378.956634 84.267818 
L 379.347878 82.347091 
L 379.739123 81.866909 
L 381.3041 78.025455 
L 381.695345 76.584909 
L 382.086589 76.104727 
L 382.477833 73.703818 
L 382.869078 72.743455 
L 383.260322 74.664182 
L 383.651567 69.382182 
L 384.042811 66.501091 
L 384.434056 65.060545 
L 398.518854 65.060545 
L 398.910098 64.580364 
L 399.301343 65.060545 
L 400.475076 65.060545 
L 400.866321 63.139818 
L 401.257565 65.060545 
L 415.733608 65.060545 
L 416.124852 64.580364 
L 416.516097 65.060545 
L 425.514718 65.060545 
L 425.905962 64.580364 
L 426.297207 65.060545 
L 431.383384 65.060545 
L 431.774628 64.580364 
L 432.165873 65.060545 
L 435.295828 65.060545 
L 435.687073 66.501091 
L 436.078317 65.060545 
L 445.076938 65.060545 
L 445.468183 64.580364 
L 445.859427 65.060545 
L 450.945604 65.060545 
L 451.336849 64.580364 
L 451.728093 65.060545 
L 452.510582 65.060545 
L 452.901826 64.580364 
L 453.293071 65.060545 
L 461.900448 65.060545 
L 462.291692 64.580364 
L 462.682936 65.060545 
L 484.201379 65.060545 
L 484.592623 66.981273 
L 484.983868 65.060545 
L 490.852534 65.060545 
L 491.243778 65.540727 
L 491.635022 65.060545 
L 493.2 65.060545 
L 493.2 65.060545 
" clip-path="url(#p850a0c4b14)" style="fill: none; stroke: #1f77b4; stroke-width: 1.5; stroke-linecap: square"/>
   </g>
   <g id="line2d_13">
    <path d="M 56.18 63.62 
L 493.2 63.62 
" clip-path="url(#p850a0c4b14)" style="fill: none; stroke-dasharray: 2.96,1.28; stroke-dashoffset: 0; stroke: #808080; stroke-width: 0.8"/>
   </g>
   <g id="patch_3">
    <path d="M 56.18 116.44 
L 56.18 10.8 
" style="fill: none; stroke: #000000; stroke-width: 0.8; stroke-linejoin: miter; stroke-linecap: square"/>
   </g>
   <g id="patch_4">
    <path d="M 56.18 116.44 
L 493.2 116.44 
" style="fill: none; stroke: #000000; stroke-width: 0.8; stroke-linejoin: miter; stroke-linecap: square"/>
   </g>
  </g>
  <g id="axes_2">
   <g id="patch_5">
    <path d="M 56.18 264.04 
L 493.2 264.04 
L 493.2 158.4 
L 56.18 158.4 
z
" style="fill: #ffffff"/>
   </g>
   <g id="matplotlib.axis_3">
    <g id="xtick_7">
     <g id="line2d_14">
      <g>
       <use xlink:href="#m3177810fbf" x="56.18" y="264.04" style="stroke: #000000; stroke-width: 0.8"/>
      </g>
     </g>
     <g id="text_14">
      <!-- 0 -->
      <g transform="translate(52.99875 278.638438) scale(0.1 -0.1)">
       <use xlink:href="#DejaVuSans-30"/>
      </g>
     </g>
    </g>
    <g id="xtick_8">
     <g id="line2d_15">
      <g>
       <use xlink:href="#m3177810fbf" x="134.428881" y="264.04" style="stroke: #000000; stroke-width: 0.8"/>
      </g>
     </g>
     <g id="text_15">
      <!-- 2000 -->
      <g transform="translate(121.703881 278.638438) scale(0.1 -0.1)">
       <use xlink:href="#DejaVuSans-32"/>
       <use xlink:href="#DejaVuSans-30" x="63.623047"/>
       <use xlink:href="#DejaVuSans-30" x="127.246094"/>
       <use xlink:href="#DejaVuSans-30" x="190.869141"/>
      </g>
     </g>
    </g>
    <g id="xtick_9">
     <g id="line2d_16">
      <g>
       <use xlink:href="#m3177810fbf" x="212.677762" y="264.04" style="stroke: #000000; stroke-width: 0.8"/>
      </g>
     </g>
     <g id="text_16">
      <!-- 4000 -->
      <g transform="translate(199.952762 278.638438) scale(0.1 -0.1)">
       <use xlink:href="#DejaVuSans-34"/>
       <use xlink:href="#DejaVuSans-30" x="63.623047"/>
       <use xlink:href="#DejaVuSans-30" x="127.246094"/>
       <use xlink:href="#DejaVuSans-30" x="190.869141"/>
      </g>
     </g>
    </g>
    <g id="xtick_10">
     <g id="line2d_17">
      <g>
       <use xlink:href="#m3177810fbf" x="290.926643" y="264.04" style="stroke: #000000; stroke-width: 0.8"/>
      </g>
     </g>
     <g id="text_17">
      <!-- 6000 -->
      <g transform="translate(278.201643 278.638438) scale(0.1 -0.1)">
       <use xlink:href="#DejaVuSans-36"/>
       <use xlink:href="#DejaVuSans-30" x="63.623047"/>
       <use xlink:href="#DejaVuSans-30" x="127.246094"/>
       <use xlink:href="#DejaVuSans-30" x="190.869141"/>
      </g>
     </g>
    </g>
    <g id="xtick_11">
     <g id="line2d_18">
      <g>
       <use xlink:href="#m3177810fbf" x="369.175524" y="264.04" style="stroke: #000000; stroke-width: 0.8"/>
      </g>
     </g>
     <g id="text_18">
      <!-- 8000 -->
      <g transform="translate(356.450524 278.638438) scale(0.1 -0.1)">
       <use xlink:href="#DejaVuSans-38"/>
       <use xlink:href="#DejaVuSans-30" x="63.623047"/>
       <use xlink:href="#DejaVuSans-30" x="127.246094"/>
       <use xlink:href="#DejaVuSans-30" x="190.869141"/>
      </g>
     </g>
    </g>
    <g id="xtick_12">
     <g id="line2d_19">
      <g>
       <use xlink:href="#m3177810fbf" x="447.424405" y="264.04" style="stroke: #000000; stroke-width: 0.8"/>
      </g>
     </g>
     <g id="text_19">
      <!-- 10000 -->
      <g transform="translate(431.518155 278.638438) scale(0.1 -0.1)">
       <use xlink:href="#DejaVuSans-31"/>
       <use xlink:href="#DejaVuSans-30" x="63.623047"/>
       <use xlink:href="#DejaVuSans-30" x="127.246094"/>
       <use xlink:href="#DejaVuSans-30" x="190.869141"/>
       <use xlink:href="#DejaVuSans-30" x="254.492188"/>
      </g>
     </g>
    </g>
    <g id="text_20">
     <!-- Time (ms) -->
     <g transform="translate(249.490781 292.316563) scale(0.1 -0.1)">
      <use xlink:href="#DejaVuSans-54"/>
      <use xlink:href="#DejaVuSans-69" x="57.958984"/>
      <use xlink:href="#DejaVuSans-6d" x="85.742188"/>
      <use xlink:href="#DejaVuSans-65" x="183.154297"/>
      <use xlink:href="#DejaVuSans-20" x="244.677734"/>
      <use xlink:href="#DejaVuSans-28" x="276.464844"/>
      <use xlink:href="#DejaVuSans-6d" x="315.478516"/>
      <use xlink:href="#DejaVuSans-73" x="412.890625"/>
      <use xlink:href="#DejaVuSans-29" x="464.990234"/>
     </g>
    </g>
   </g>
   <g id="matplotlib.axis_4">
    <g id="ytick_6">
     <g id="line2d_20">
      <g>
       <use xlink:href="#m9d24507215" x="56.18" y="259.238182" style="stroke: #000000; stroke-width: 0.8"/>
      </g>
     </g>
     <g id="text_21">
      <!-- −1.0 -->
      <g transform="translate(24.897188 263.037401) scale(0.1 -0.1)">
       <use xlink:href="#DejaVuSans-2212"/>
       <use xlink:href="#DejaVuSans-31" x="83.789062"/>
       <use xlink:href="#DejaVuSans-2e" x="147.412109"/>
       <use xlink:href="#DejaVuSans-30" x="179.199219"/>
      </g>
     </g>
    </g>
    <g id="ytick_7">
     <g id="line2d_21">
      <g>
       <use xlink:href="#m9d24507215" x="56.18" y="235.229091" style="stroke: #000000; stroke-width: 0.8"/>
      </g>
     </g>
     <g id="text_22">
      <!-- −0.5 -->
      <g transform="translate(24.897188 239.02831) scale(0.1 -0.1)">
       <use xlink:href="#DejaVuSans-2212"/>
       <use xlink:href="#DejaVuSans-30" x="83.789062"/>
       <use xlink:href="#DejaVuSans-2e" x="147.412109"/>
       <use xlink:href="#DejaVuSans-35" x="179.199219"/>
      </g>
     </g>
    </g>
    <g id="ytick_8">
     <g id="line2d_22">
      <g>
       <use xlink:href="#m9d24507215" x="56.18" y="211.22" style="stroke: #000000; stroke-width: 0.8"/>
      </g>
     </g>
     <g id="text_23">
      <!-- 0.0 -->
      <g transform="translate(33.276875 215.019219) scale(0.1 -0.1)">
       <use xlink:href="#DejaVuSans-30"/>
       <use xlink:href="#DejaVuSans-2e" x="63.623047"/>
       <use xlink:href="#DejaVuSans-30" x="95.410156"/>
      </g>
     </g>
    </g>
    <g id="ytick_9">
     <g id="line2d_23">
      <g>
       <use xlink:href="#m9d24507215" x="56.18" y="187.210909" style="stroke: #000000; stroke-width: 0.8"/>
      </g>
     </g>
     <g id="text_24">
      <!-- 0.5 -->
      <g transform="translate(33.276875 191.010128) scale(0.1 -0.1)">
       <use xlink:href="#DejaVuSans-30"/>
       <use xlink:href="#DejaVuSans-2e" x="63.623047"/>
       <use xlink:href="#DejaVuSans-35" x="95.410156"/>
      </g>
     </g>
    </g>
    <g id="ytick_10">
     <g id="line2d_24">
      <g>
       <use xlink:href="#m9d24507215" x="56.18" y="163.201818" style="stroke: #000000; stroke-width: 0.8"/>
      </g>
     </g>
     <g id="text_25">
      <!-- 1.0 -->
      <g transform="translate(33.276875 167.001037) scale(0.1 -0.1)">
       <use xlink:href="#DejaVuSans-31"/>
       <use xlink:href="#DejaVuSans-2e" x="63.623047"/>
       <use xlink:href="#DejaVuSans-30" x="95.410156"/>
      </g>
     </g>
    </g>
    <g id="text_26">
     <!-- Y-Axis Value -->
     <g transform="translate(18.8175 241.065313) rotate(-90) scale(0.1 -0.1)">
      <defs>
       <path id="DejaVuSans-59" d="M -13 4666 
L 666 4666 
L 1959 2747 
L 3244 4666 
L 3922 4666 
L 2272 2222 
L 2272 0 
L 1638 0 
L 1638 2222 
L -13 4666 
z
" transform="scale(0.015625)"/>
      </defs>
      <use xlink:href="#DejaVuSans-59"/>
      <use xlink:href="#DejaVuSans-2d" x="49.208984"/>
      <use xlink:href="#DejaVuSans-41" x="83.042969"/>
      <use xlink:href="#DejaVuSans-78" x="151.451172"/>
      <use xlink:href="#DejaVuSans-69" x="210.630859"/>
      <use xlink:href="#DejaVuSans-73" x="238.414062"/>
      <use xlink:href="#DejaVuSans-20" x="290.513672"/>
      <use xlink:href="#DejaVuSans-56" x="322.300781"/>
      <use xlink:href="#DejaVuSans-61" x="382.958984"/>
      <use xlink:href="#DejaVuSans-6c" x="444.238281"/>
      <use xlink:href="#DejaVuSans-75" x="472.021484"/>
      <use xlink:href="#DejaVuSans-65" x="535.400391"/>
     </g>
    </g>
   </g>
   <g id="line2d_25">
    <path d="M 56.18 209.779455 
L 73.394754 209.779455 
L 73.785998 209.299273 
L 74.177243 209.779455 
L 83.175864 209.779455 
L 83.567108 208.819091 
L 83.958353 209.779455 
L 101.955595 209.779455 
L 102.34684 210.259636 
L 102.738084 209.779455 
L 141.080036 209.779455 
L 141.47128 210.259636 
L 141.862525 209.779455 
L 156.338568 209.779455 
L 156.729812 209.299273 
L 157.121056 204.017273 
L 159.468523 182.889273 
L 160.251012 174.246 
L 160.642256 172.805455 
L 161.0335 166.563091 
L 161.424745 163.682 
L 162.207234 163.682 
L 162.598478 163.201818 
L 162.989722 163.682 
L 163.380967 163.682 
L 163.772211 164.162182 
L 164.163456 163.201818 
L 164.5547 163.682 
L 164.945944 163.682 
L 165.337189 163.201818 
L 165.728433 163.682 
L 169.640877 163.682 
L 170.032122 163.201818 
L 170.814611 163.201818 
L 171.205855 163.682 
L 173.162077 163.682 
L 173.553321 163.201818 
L 173.944566 163.682 
L 178.639499 163.682 
L 179.030743 163.201818 
L 179.421987 163.682 
L 184.899409 163.682 
L 185.290654 163.201818 
L 185.681898 163.682 
L 194.680519 163.682 
L 195.071764 163.201818 
L 195.463008 163.682 
L 196.636741 163.682 
L 197.027986 163.201818 
L 197.41923 163.682 
L 198.984208 163.682 
L 199.375452 163.201818 
L 200.157941 163.201818 
L 200.549185 163.682 
L 200.94043 163.201818 
L 201.331674 163.682 
L 202.505407 163.682 
L 202.896652 164.162182 
L 203.287896 163.682 
L 203.679141 164.162182 
L 204.461629 163.201818 
L 204.852874 163.682 
L 207.591585 163.682 
L 207.982829 163.201818 
L 208.374073 163.682 
L 208.765318 163.201818 
L 209.547807 164.162182 
L 210.330295 163.201818 
L 210.72154 163.682 
L 211.504029 163.682 
L 211.895273 163.201818 
L 212.286517 163.682 
L 215.025228 163.682 
L 215.416473 163.201818 
L 215.807717 163.682 
L 216.198962 163.201818 
L 216.590206 163.682 
L 216.98145 163.682 
L 217.372695 163.201818 
L 217.763939 163.201818 
L 218.155184 163.682 
L 219.328917 163.682 
L 219.720161 163.201818 
L 220.111406 163.682 
L 220.50265 163.201818 
L 220.893894 163.682 
L 221.676383 163.682 
L 222.067628 163.201818 
L 222.458872 163.682 
L 222.850116 163.201818 
L 223.241361 163.682 
L 223.632605 163.682 
L 224.02385 163.201818 
L 224.415094 163.201818 
L 224.806338 163.682 
L 225.980072 163.682 
L 226.371316 163.201818 
L 226.76256 163.201818 
L 227.153805 163.682 
L 227.545049 163.682 
L 228.327538 164.642364 
L 228.718782 165.602727 
L 229.110027 167.043273 
L 229.892516 172.325273 
L 230.28376 173.765818 
L 230.675004 174.246 
L 231.066249 175.206364 
L 231.457493 175.686545 
L 232.239982 177.607273 
L 232.631226 180.008182 
L 233.413715 181.928909 
L 234.196204 182.889273 
L 236.152426 190.092 
L 236.543671 192.012727 
L 236.934915 195.374 
L 237.326159 195.374 
L 238.108648 198.735273 
L 238.499893 199.215455 
L 238.891137 200.175818 
L 239.282381 201.616364 
L 239.673626 202.576727 
L 240.06487 202.576727 
L 240.456115 203.056909 
L 240.847359 203.056909 
L 241.629848 204.017273 
L 242.021092 204.977636 
L 242.412337 206.418182 
L 242.803581 209.779455 
L 252.584691 209.779455 
L 252.975936 210.259636 
L 255.323402 210.259636 
L 255.714646 210.739818 
L 256.105891 210.739818 
L 257.279624 212.180364 
L 257.670868 214.581273 
L 258.062113 215.541636 
L 258.453357 216.021818 
L 259.235846 217.942545 
L 259.62709 219.383091 
L 261.192068 223.224545 
L 261.583312 225.145273 
L 261.974557 226.105636 
L 264.713268 239.550727 
L 265.104512 240.511091 
L 265.495756 241.951636 
L 265.887001 243.872364 
L 266.278245 244.832727 
L 266.66949 246.273273 
L 267.451979 248.194 
L 267.843223 249.634545 
L 268.625712 252.995818 
L 269.016956 254.436364 
L 269.408201 256.357091 
L 269.799445 257.317455 
L 270.190689 259.238182 
L 279.971799 259.238182 
L 280.363044 258.758 
L 280.754288 259.238182 
L 307.358908 259.238182 
L 307.750152 257.797636 
L 308.141397 259.238182 
L 326.529884 259.238182 
L 326.921128 258.277818 
L 327.312372 256.837273 
L 328.486106 251.555273 
L 329.268594 248.674182 
L 330.051083 246.753455 
L 330.442328 245.312909 
L 331.224816 243.392182 
L 331.616061 241.951636 
L 332.789794 239.070545 
L 333.963527 234.748909 
L 334.354772 233.788545 
L 335.528505 228.506545 
L 335.919749 227.546182 
L 336.702238 224.184909 
L 337.875971 219.863273 
L 338.267216 217.942545 
L 339.049705 216.982182 
L 339.440949 216.982182 
L 340.223438 215.061455 
L 340.614682 211.22 
L 341.005927 210.259636 
L 341.397171 209.779455 
L 348.830815 209.779455 
L 349.222059 206.418182 
L 351.178281 196.814545 
L 352.352014 188.651455 
L 352.743259 186.730727 
L 353.134503 183.849636 
L 353.916992 180.488364 
L 354.308236 179.047818 
L 354.699481 177.127091 
L 355.48197 175.206364 
L 356.264458 174.246 
L 357.438192 174.246 
L 357.829436 173.765818 
L 358.22068 172.805455 
L 358.611925 172.805455 
L 359.394414 170.884727 
L 360.176902 168.003636 
L 360.568147 167.043273 
L 360.959391 165.602727 
L 361.74188 163.682 
L 366.828057 163.682 
L 367.219302 163.201818 
L 368.784279 163.201818 
L 369.175524 163.682 
L 369.566768 163.201818 
L 369.958013 164.162182 
L 370.349257 163.201818 
L 370.740501 163.201818 
L 371.131746 163.682 
L 373.087968 163.682 
L 373.479212 163.201818 
L 375.826679 163.201818 
L 376.217923 163.682 
L 377.782901 163.682 
L 378.174145 164.162182 
L 378.956634 163.201818 
L 379.347878 163.682 
L 383.260322 163.682 
L 383.651567 164.642364 
L 384.042811 163.201818 
L 384.434056 163.682 
L 388.3465 163.682 
L 388.737744 163.201818 
L 389.128988 163.682 
L 391.08521 163.682 
L 391.476455 164.162182 
L 391.867699 164.162182 
L 392.650188 163.201818 
L 393.041432 163.682 
L 393.432677 163.201818 
L 393.823921 163.682 
L 396.562632 163.682 
L 396.953876 163.201818 
L 397.345121 163.682 
L 398.518854 163.682 
L 398.910098 163.201818 
L 399.301343 163.682 
L 400.866321 163.682 
L 401.257565 163.201818 
L 401.648809 163.682 
L 402.431298 163.682 
L 402.822543 163.201818 
L 403.213787 163.201818 
L 403.605031 163.682 
L 403.996276 163.201818 
L 404.38752 163.201818 
L 404.778765 163.682 
L 405.170009 163.682 
L 405.561253 163.201818 
L 405.952498 163.682 
L 408.691209 163.682 
L 409.082453 163.201818 
L 409.473697 163.682 
L 412.212408 163.682 
L 412.603653 164.162182 
L 412.994897 167.043273 
L 413.386141 168.964 
L 413.777386 172.325273 
L 414.16863 174.246 
L 414.559875 175.206364 
L 414.951119 176.646909 
L 415.733608 182.889273 
L 416.516097 190.572182 
L 417.68983 203.537091 
L 418.472319 209.779455 
L 444.294449 209.779455 
L 444.685694 210.259636 
L 445.076938 209.779455 
L 445.859427 209.779455 
L 446.250671 209.299273 
L 446.641916 209.779455 
L 452.119338 209.779455 
L 452.510582 209.299273 
L 452.901826 209.779455 
L 464.639158 209.779455 
L 465.030403 210.259636 
L 465.421647 209.779455 
L 479.506446 209.779455 
L 479.89769 209.299273 
L 480.288935 209.779455 
L 492.808756 209.779455 
L 493.2 209.299273 
L 493.2 209.299273 
" clip-path="url(#p1b3def9141)" style="fill: none; stroke: #1f77b4; stroke-width: 1.5; stroke-linecap: square"/>
   </g>
   <g id="line2d_26">
    <path d="M 56.18 211.22 
L 493.2 211.22 
" clip-path="url(#p1b3def9141)" style="fill: none; stroke-dasharray: 2.96,1.28; stroke-dashoffset: 0; stroke: #808080; stroke-width: 0.8"/>
   </g>
   <g id="patch_6">
    <path d="M 56.18 264.04 
L 56.18 158.4 
" style="fill: none; stroke: #000000; stroke-width: 0.8; stroke-linejoin: miter; stroke-linecap: square"/>
   </g>
   <g id="patch_7">
    <path d="M 56.18 264.04 
L 493.2 264.04 
" style="fill: none; stroke: #000000; stroke-width: 0.8; stroke-linejoin: miter; stroke-linecap: square"/>
   </g>
  </g>
 </g>
 <defs>
  <clipPath id="p850a0c4b14">
   <rect x="56.18" y="10.8" width="437.02" height="105.64"/>
  </clipPath>
  <clipPath id="p1b3def9141">
   <rect x="56.18" y="158.4" width="437.02" height="105.64"/>
  </clipPath>
 </defs>
</svg>
