<?xml version="1.0" encoding="utf-8" standalone="no"?>
<!DOCTYPE svg PUBLIC "-//W3C//DTD SVG 1.1//EN"
  "http://www.w3.org/Graphics/SVG/1.1/DTD/svg11.dtd">
<svg xmlns:xlink="http://www.w3.org/1999/xlink" width="504pt" height="306pt" viewBox="0 0 504 306" xmlns="http://www.w3.org/2000/svg" version="1.1">
 <metadata>
  <rdf:RDF xmlns:dc="http://purl.org/dc/elements/1.1/" xmlns:cc="http://creativecommons.org/ns#" xmlns:rdf="http://www.w3.org/1999/02/22-rdf-syntax-ns#">
   <cc:Work>
    <dc:type rdf:resource="http://purl.org/dc/dcmitype/StillImage"/>
    <dc:date>2024-06-16T23:01:37.912103</dc:date>
    <dc:format>image/svg+xml</dc:format>
    <dc:creator>
     <cc:Agent>
      <dc:title>Matplotlib v3.8.3, https://matplotlib.org/</dc:title>
     </cc:Agent>
    </dc:creator>
   </cc:Work>
  </rdf:RDF>
 </metadata>
 <defs>
  <style type="text/css">*{stroke-linejoin: round; stroke-linecap: butt}</style>
 </defs>
 <g id="figure_1">
  <g id="patch_1">
   <path d="M 0 306 
L 504 306 
L 504 0 
L 0 0 
z
" style="fill: #ffffff"/>
  </g>
  <g id="axes_1">
   <g id="patch_2">
    <path d="M 56.18 116.44 
L 493.2 116.44 
L 493.2 10.8 
L 56.18 10.8 
z
" style="fill: #ffffff"/>
   </g>
   <g id="matplotlib.axis_1">
    <g id="xtick_1">
     <g id="line2d_1">
      <defs>
       <path id="m05cb8989ef" d="M 0 0 
L 0 3.5 
" style="stroke: #000000; stroke-width: 0.8"/>
      </defs>
      <g>
       <use xlink:href="#m05cb8989ef" x="56.18" y="116.44" style="stroke: #000000; stroke-width: 0.8"/>
      </g>
     </g>
     <g id="text_1">
      <!-- 0 -->
      <g transform="translate(52.99875 131.038437) scale(0.1 -0.1)">
       <defs>
        <path id="DejaVuSans-30" d="M 2034 4250 
Q 1547 4250 1301 3770 
Q 1056 3291 1056 2328 
Q 1056 1369 1301 889 
Q 1547 409 2034 409 
Q 2525 409 2770 889 
Q 3016 1369 3016 2328 
Q 3016 3291 2770 3770 
Q 2525 4250 2034 4250 
z
M 2034 4750 
Q 2819 4750 3233 4129 
Q 3647 3509 3647 2328 
Q 3647 1150 3233 529 
Q 2819 -91 2034 -91 
Q 1250 -91 836 529 
Q 422 1150 422 2328 
Q 422 3509 836 4129 
Q 1250 4750 2034 4750 
z
" transform="scale(0.015625)"/>
       </defs>
       <use xlink:href="#DejaVuSans-30"/>
      </g>
     </g>
    </g>
    <g id="xtick_2">
     <g id="line2d_2">
      <g>
       <use xlink:href="#m05cb8989ef" x="135.566013" y="116.44" style="stroke: #000000; stroke-width: 0.8"/>
      </g>
     </g>
     <g id="text_2">
      <!-- 2000 -->
      <g transform="translate(122.841013 131.038437) scale(0.1 -0.1)">
       <defs>
        <path id="DejaVuSans-32" d="M 1228 531 
L 3431 531 
L 3431 0 
L 469 0 
L 469 531 
Q 828 903 1448 1529 
Q 2069 2156 2228 2338 
Q 2531 2678 2651 2914 
Q 2772 3150 2772 3378 
Q 2772 3750 2511 3984 
Q 2250 4219 1831 4219 
Q 1534 4219 1204 4116 
Q 875 4013 500 3803 
L 500 4441 
Q 881 4594 1212 4672 
Q 1544 4750 1819 4750 
Q 2544 4750 2975 4387 
Q 3406 4025 3406 3419 
Q 3406 3131 3298 2873 
Q 3191 2616 2906 2266 
Q 2828 2175 2409 1742 
Q 1991 1309 1228 531 
z
" transform="scale(0.015625)"/>
       </defs>
       <use xlink:href="#DejaVuSans-32"/>
       <use xlink:href="#DejaVuSans-30" x="63.623047"/>
       <use xlink:href="#DejaVuSans-30" x="127.246094"/>
       <use xlink:href="#DejaVuSans-30" x="190.869141"/>
      </g>
     </g>
    </g>
    <g id="xtick_3">
     <g id="line2d_3">
      <g>
       <use xlink:href="#m05cb8989ef" x="214.952025" y="116.44" style="stroke: #000000; stroke-width: 0.8"/>
      </g>
     </g>
     <g id="text_3">
      <!-- 4000 -->
      <g transform="translate(202.227025 131.038437) scale(0.1 -0.1)">
       <defs>
        <path id="DejaVuSans-34" d="M 2419 4116 
L 825 1625 
L 2419 1625 
L 2419 4116 
z
M 2253 4666 
L 3047 4666 
L 3047 1625 
L 3713 1625 
L 3713 1100 
L 3047 1100 
L 3047 0 
L 2419 0 
L 2419 1100 
L 313 1100 
L 313 1709 
L 2253 4666 
z
" transform="scale(0.015625)"/>
       </defs>
       <use xlink:href="#DejaVuSans-34"/>
       <use xlink:href="#DejaVuSans-30" x="63.623047"/>
       <use xlink:href="#DejaVuSans-30" x="127.246094"/>
       <use xlink:href="#DejaVuSans-30" x="190.869141"/>
      </g>
     </g>
    </g>
    <g id="xtick_4">
     <g id="line2d_4">
      <g>
       <use xlink:href="#m05cb8989ef" x="294.338038" y="116.44" style="stroke: #000000; stroke-width: 0.8"/>
      </g>
     </g>
     <g id="text_4">
      <!-- 6000 -->
      <g transform="translate(281.613038 131.038437) scale(0.1 -0.1)">
       <defs>
        <path id="DejaVuSans-36" d="M 2113 2584 
Q 1688 2584 1439 2293 
Q 1191 2003 1191 1497 
Q 1191 994 1439 701 
Q 1688 409 2113 409 
Q 2538 409 2786 701 
Q 3034 994 3034 1497 
Q 3034 2003 2786 2293 
Q 2538 2584 2113 2584 
z
M 3366 4563 
L 3366 3988 
Q 3128 4100 2886 4159 
Q 2644 4219 2406 4219 
Q 1781 4219 1451 3797 
Q 1122 3375 1075 2522 
Q 1259 2794 1537 2939 
Q 1816 3084 2150 3084 
Q 2853 3084 3261 2657 
Q 3669 2231 3669 1497 
Q 3669 778 3244 343 
Q 2819 -91 2113 -91 
Q 1303 -91 875 529 
Q 447 1150 447 2328 
Q 447 3434 972 4092 
Q 1497 4750 2381 4750 
Q 2619 4750 2861 4703 
Q 3103 4656 3366 4563 
z
" transform="scale(0.015625)"/>
       </defs>
       <use xlink:href="#DejaVuSans-36"/>
       <use xlink:href="#DejaVuSans-30" x="63.623047"/>
       <use xlink:href="#DejaVuSans-30" x="127.246094"/>
       <use xlink:href="#DejaVuSans-30" x="190.869141"/>
      </g>
     </g>
    </g>
    <g id="xtick_5">
     <g id="line2d_5">
      <g>
       <use xlink:href="#m05cb8989ef" x="373.724051" y="116.44" style="stroke: #000000; stroke-width: 0.8"/>
      </g>
     </g>
     <g id="text_5">
      <!-- 8000 -->
      <g transform="translate(360.999051 131.038437) scale(0.1 -0.1)">
       <defs>
        <path id="DejaVuSans-38" d="M 2034 2216 
Q 1584 2216 1326 1975 
Q 1069 1734 1069 1313 
Q 1069 891 1326 650 
Q 1584 409 2034 409 
Q 2484 409 2743 651 
Q 3003 894 3003 1313 
Q 3003 1734 2745 1975 
Q 2488 2216 2034 2216 
z
M 1403 2484 
Q 997 2584 770 2862 
Q 544 3141 544 3541 
Q 544 4100 942 4425 
Q 1341 4750 2034 4750 
Q 2731 4750 3128 4425 
Q 3525 4100 3525 3541 
Q 3525 3141 3298 2862 
Q 3072 2584 2669 2484 
Q 3125 2378 3379 2068 
Q 3634 1759 3634 1313 
Q 3634 634 3220 271 
Q 2806 -91 2034 -91 
Q 1263 -91 848 271 
Q 434 634 434 1313 
Q 434 1759 690 2068 
Q 947 2378 1403 2484 
z
M 1172 3481 
Q 1172 3119 1398 2916 
Q 1625 2713 2034 2713 
Q 2441 2713 2670 2916 
Q 2900 3119 2900 3481 
Q 2900 3844 2670 4047 
Q 2441 4250 2034 4250 
Q 1625 4250 1398 4047 
Q 1172 3844 1172 3481 
z
" transform="scale(0.015625)"/>
       </defs>
       <use xlink:href="#DejaVuSans-38"/>
       <use xlink:href="#DejaVuSans-30" x="63.623047"/>
       <use xlink:href="#DejaVuSans-30" x="127.246094"/>
       <use xlink:href="#DejaVuSans-30" x="190.869141"/>
      </g>
     </g>
    </g>
    <g id="xtick_6">
     <g id="line2d_6">
      <g>
       <use xlink:href="#m05cb8989ef" x="453.110064" y="116.44" style="stroke: #000000; stroke-width: 0.8"/>
      </g>
     </g>
     <g id="text_6">
      <!-- 10000 -->
      <g transform="translate(437.203814 131.038437) scale(0.1 -0.1)">
       <defs>
        <path id="DejaVuSans-31" d="M 794 531 
L 1825 531 
L 1825 4091 
L 703 3866 
L 703 4441 
L 1819 4666 
L 2450 4666 
L 2450 531 
L 3481 531 
L 3481 0 
L 794 0 
L 794 531 
z
" transform="scale(0.015625)"/>
       </defs>
       <use xlink:href="#DejaVuSans-31"/>
       <use xlink:href="#DejaVuSans-30" x="63.623047"/>
       <use xlink:href="#DejaVuSans-30" x="127.246094"/>
       <use xlink:href="#DejaVuSans-30" x="190.869141"/>
       <use xlink:href="#DejaVuSans-30" x="254.492188"/>
      </g>
     </g>
    </g>
    <g id="text_7">
     <!-- Time (ms) -->
     <g transform="translate(249.490781 144.716562) scale(0.1 -0.1)">
      <defs>
       <path id="DejaVuSans-54" d="M -19 4666 
L 3928 4666 
L 3928 4134 
L 2272 4134 
L 2272 0 
L 1638 0 
L 1638 4134 
L -19 4134 
L -19 4666 
z
" transform="scale(0.015625)"/>
       <path id="DejaVuSans-69" d="M 603 3500 
L 1178 3500 
L 1178 0 
L 603 0 
L 603 3500 
z
M 603 4863 
L 1178 4863 
L 1178 4134 
L 603 4134 
L 603 4863 
z
" transform="scale(0.015625)"/>
       <path id="DejaVuSans-6d" d="M 3328 2828 
Q 3544 3216 3844 3400 
Q 4144 3584 4550 3584 
Q 5097 3584 5394 3201 
Q 5691 2819 5691 2113 
L 5691 0 
L 5113 0 
L 5113 2094 
Q 5113 2597 4934 2840 
Q 4756 3084 4391 3084 
Q 3944 3084 3684 2787 
Q 3425 2491 3425 1978 
L 3425 0 
L 2847 0 
L 2847 2094 
Q 2847 2600 2669 2842 
Q 2491 3084 2119 3084 
Q 1678 3084 1418 2786 
Q 1159 2488 1159 1978 
L 1159 0 
L 581 0 
L 581 3500 
L 1159 3500 
L 1159 2956 
Q 1356 3278 1631 3431 
Q 1906 3584 2284 3584 
Q 2666 3584 2933 3390 
Q 3200 3197 3328 2828 
z
" transform="scale(0.015625)"/>
       <path id="DejaVuSans-65" d="M 3597 1894 
L 3597 1613 
L 953 1613 
Q 991 1019 1311 708 
Q 1631 397 2203 397 
Q 2534 397 2845 478 
Q 3156 559 3463 722 
L 3463 178 
Q 3153 47 2828 -22 
Q 2503 -91 2169 -91 
Q 1331 -91 842 396 
Q 353 884 353 1716 
Q 353 2575 817 3079 
Q 1281 3584 2069 3584 
Q 2775 3584 3186 3129 
Q 3597 2675 3597 1894 
z
M 3022 2063 
Q 3016 2534 2758 2815 
Q 2500 3097 2075 3097 
Q 1594 3097 1305 2825 
Q 1016 2553 972 2059 
L 3022 2063 
z
" transform="scale(0.015625)"/>
       <path id="DejaVuSans-20" transform="scale(0.015625)"/>
       <path id="DejaVuSans-28" d="M 1984 4856 
Q 1566 4138 1362 3434 
Q 1159 2731 1159 2009 
Q 1159 1288 1364 580 
Q 1569 -128 1984 -844 
L 1484 -844 
Q 1016 -109 783 600 
Q 550 1309 550 2009 
Q 550 2706 781 3412 
Q 1013 4119 1484 4856 
L 1984 4856 
z
" transform="scale(0.015625)"/>
       <path id="DejaVuSans-73" d="M 2834 3397 
L 2834 2853 
Q 2591 2978 2328 3040 
Q 2066 3103 1784 3103 
Q 1356 3103 1142 2972 
Q 928 2841 928 2578 
Q 928 2378 1081 2264 
Q 1234 2150 1697 2047 
L 1894 2003 
Q 2506 1872 2764 1633 
Q 3022 1394 3022 966 
Q 3022 478 2636 193 
Q 2250 -91 1575 -91 
Q 1294 -91 989 -36 
Q 684 19 347 128 
L 347 722 
Q 666 556 975 473 
Q 1284 391 1588 391 
Q 1994 391 2212 530 
Q 2431 669 2431 922 
Q 2431 1156 2273 1281 
Q 2116 1406 1581 1522 
L 1381 1569 
Q 847 1681 609 1914 
Q 372 2147 372 2553 
Q 372 3047 722 3315 
Q 1072 3584 1716 3584 
Q 2034 3584 2315 3537 
Q 2597 3491 2834 3397 
z
" transform="scale(0.015625)"/>
       <path id="DejaVuSans-29" d="M 513 4856 
L 1013 4856 
Q 1481 4119 1714 3412 
Q 1947 2706 1947 2009 
Q 1947 1309 1714 600 
Q 1481 -109 1013 -844 
L 513 -844 
Q 928 -128 1133 580 
Q 1338 1288 1338 2009 
Q 1338 2731 1133 3434 
Q 928 4138 513 4856 
z
" transform="scale(0.015625)"/>
      </defs>
      <use xlink:href="#DejaVuSans-54"/>
      <use xlink:href="#DejaVuSans-69" x="57.958984"/>
      <use xlink:href="#DejaVuSans-6d" x="85.742188"/>
      <use xlink:href="#DejaVuSans-65" x="183.154297"/>
      <use xlink:href="#DejaVuSans-20" x="244.677734"/>
      <use xlink:href="#DejaVuSans-28" x="276.464844"/>
      <use xlink:href="#DejaVuSans-6d" x="315.478516"/>
      <use xlink:href="#DejaVuSans-73" x="412.890625"/>
      <use xlink:href="#DejaVuSans-29" x="464.990234"/>
     </g>
    </g>
   </g>
   <g id="matplotlib.axis_2">
    <g id="ytick_1">
     <g id="line2d_7">
      <defs>
       <path id="m8c31e135bd" d="M 0 0 
L -3.5 0 
" style="stroke: #000000; stroke-width: 0.8"/>
      </defs>
      <g>
       <use xlink:href="#m8c31e135bd" x="56.18" y="111.638182" style="stroke: #000000; stroke-width: 0.8"/>
      </g>
     </g>
     <g id="text_8">
      <!-- −1.0 -->
      <g transform="translate(24.897188 115.437401) scale(0.1 -0.1)">
       <defs>
        <path id="DejaVuSans-2212" d="M 678 2272 
L 4684 2272 
L 4684 1741 
L 678 1741 
L 678 2272 
z
" transform="scale(0.015625)"/>
        <path id="DejaVuSans-2e" d="M 684 794 
L 1344 794 
L 1344 0 
L 684 0 
L 684 794 
z
" transform="scale(0.015625)"/>
       </defs>
       <use xlink:href="#DejaVuSans-2212"/>
       <use xlink:href="#DejaVuSans-31" x="83.789062"/>
       <use xlink:href="#DejaVuSans-2e" x="147.412109"/>
       <use xlink:href="#DejaVuSans-30" x="179.199219"/>
      </g>
     </g>
    </g>
    <g id="ytick_2">
     <g id="line2d_8">
      <g>
       <use xlink:href="#m8c31e135bd" x="56.18" y="87.629091" style="stroke: #000000; stroke-width: 0.8"/>
      </g>
     </g>
     <g id="text_9">
      <!-- −0.5 -->
      <g transform="translate(24.897188 91.42831) scale(0.1 -0.1)">
       <defs>
        <path id="DejaVuSans-35" d="M 691 4666 
L 3169 4666 
L 3169 4134 
L 1269 4134 
L 1269 2991 
Q 1406 3038 1543 3061 
Q 1681 3084 1819 3084 
Q 2600 3084 3056 2656 
Q 3513 2228 3513 1497 
Q 3513 744 3044 326 
Q 2575 -91 1722 -91 
Q 1428 -91 1123 -41 
Q 819 9 494 109 
L 494 744 
Q 775 591 1075 516 
Q 1375 441 1709 441 
Q 2250 441 2565 725 
Q 2881 1009 2881 1497 
Q 2881 1984 2565 2268 
Q 2250 2553 1709 2553 
Q 1456 2553 1204 2497 
Q 953 2441 691 2322 
L 691 4666 
z
" transform="scale(0.015625)"/>
       </defs>
       <use xlink:href="#DejaVuSans-2212"/>
       <use xlink:href="#DejaVuSans-30" x="83.789062"/>
       <use xlink:href="#DejaVuSans-2e" x="147.412109"/>
       <use xlink:href="#DejaVuSans-35" x="179.199219"/>
      </g>
     </g>
    </g>
    <g id="ytick_3">
     <g id="line2d_9">
      <g>
       <use xlink:href="#m8c31e135bd" x="56.18" y="63.62" style="stroke: #000000; stroke-width: 0.8"/>
      </g>
     </g>
     <g id="text_10">
      <!-- 0.0 -->
      <g transform="translate(33.276875 67.419219) scale(0.1 -0.1)">
       <use xlink:href="#DejaVuSans-30"/>
       <use xlink:href="#DejaVuSans-2e" x="63.623047"/>
       <use xlink:href="#DejaVuSans-30" x="95.410156"/>
      </g>
     </g>
    </g>
    <g id="ytick_4">
     <g id="line2d_10">
      <g>
       <use xlink:href="#m8c31e135bd" x="56.18" y="39.610909" style="stroke: #000000; stroke-width: 0.8"/>
      </g>
     </g>
     <g id="text_11">
      <!-- 0.5 -->
      <g transform="translate(33.276875 43.410128) scale(0.1 -0.1)">
       <use xlink:href="#DejaVuSans-30"/>
       <use xlink:href="#DejaVuSans-2e" x="63.623047"/>
       <use xlink:href="#DejaVuSans-35" x="95.410156"/>
      </g>
     </g>
    </g>
    <g id="ytick_5">
     <g id="line2d_11">
      <g>
       <use xlink:href="#m8c31e135bd" x="56.18" y="15.601818" style="stroke: #000000; stroke-width: 0.8"/>
      </g>
     </g>
     <g id="text_12">
      <!-- 1.0 -->
      <g transform="translate(33.276875 19.401037) scale(0.1 -0.1)">
       <use xlink:href="#DejaVuSans-31"/>
       <use xlink:href="#DejaVuSans-2e" x="63.623047"/>
       <use xlink:href="#DejaVuSans-30" x="95.410156"/>
      </g>
     </g>
    </g>
    <g id="text_13">
     <!-- X-Axis Value -->
     <g transform="translate(18.8175 94.180156) rotate(-90) scale(0.1 -0.1)">
      <defs>
       <path id="DejaVuSans-58" d="M 403 4666 
L 1081 4666 
L 2241 2931 
L 3406 4666 
L 4084 4666 
L 2584 2425 
L 4184 0 
L 3506 0 
L 2194 1984 
L 872 0 
L 191 0 
L 1856 2491 
L 403 4666 
z
" transform="scale(0.015625)"/>
       <path id="DejaVuSans-2d" d="M 313 2009 
L 1997 2009 
L 1997 1497 
L 313 1497 
L 313 2009 
z
" transform="scale(0.015625)"/>
       <path id="DejaVuSans-41" d="M 2188 4044 
L 1331 1722 
L 3047 1722 
L 2188 4044 
z
M 1831 4666 
L 2547 4666 
L 4325 0 
L 3669 0 
L 3244 1197 
L 1141 1197 
L 716 0 
L 50 0 
L 1831 4666 
z
" transform="scale(0.015625)"/>
       <path id="DejaVuSans-78" d="M 3513 3500 
L 2247 1797 
L 3578 0 
L 2900 0 
L 1881 1375 
L 863 0 
L 184 0 
L 1544 1831 
L 300 3500 
L 978 3500 
L 1906 2253 
L 2834 3500 
L 3513 3500 
z
" transform="scale(0.015625)"/>
       <path id="DejaVuSans-56" d="M 1831 0 
L 50 4666 
L 709 4666 
L 2188 738 
L 3669 4666 
L 4325 4666 
L 2547 0 
L 1831 0 
z
" transform="scale(0.015625)"/>
       <path id="DejaVuSans-61" d="M 2194 1759 
Q 1497 1759 1228 1600 
Q 959 1441 959 1056 
Q 959 750 1161 570 
Q 1363 391 1709 391 
Q 2188 391 2477 730 
Q 2766 1069 2766 1631 
L 2766 1759 
L 2194 1759 
z
M 3341 1997 
L 3341 0 
L 2766 0 
L 2766 531 
Q 2569 213 2275 61 
Q 1981 -91 1556 -91 
Q 1019 -91 701 211 
Q 384 513 384 1019 
Q 384 1609 779 1909 
Q 1175 2209 1959 2209 
L 2766 2209 
L 2766 2266 
Q 2766 2663 2505 2880 
Q 2244 3097 1772 3097 
Q 1472 3097 1187 3025 
Q 903 2953 641 2809 
L 641 3341 
Q 956 3463 1253 3523 
Q 1550 3584 1831 3584 
Q 2591 3584 2966 3190 
Q 3341 2797 3341 1997 
z
" transform="scale(0.015625)"/>
       <path id="DejaVuSans-6c" d="M 603 4863 
L 1178 4863 
L 1178 0 
L 603 0 
L 603 4863 
z
" transform="scale(0.015625)"/>
       <path id="DejaVuSans-75" d="M 544 1381 
L 544 3500 
L 1119 3500 
L 1119 1403 
Q 1119 906 1312 657 
Q 1506 409 1894 409 
Q 2359 409 2629 706 
Q 2900 1003 2900 1516 
L 2900 3500 
L 3475 3500 
L 3475 0 
L 2900 0 
L 2900 538 
Q 2691 219 2414 64 
Q 2138 -91 1772 -91 
Q 1169 -91 856 284 
Q 544 659 544 1381 
z
M 1991 3584 
L 1991 3584 
z
" transform="scale(0.015625)"/>
      </defs>
      <use xlink:href="#DejaVuSans-58"/>
      <use xlink:href="#DejaVuSans-2d" x="63.505859"/>
      <use xlink:href="#DejaVuSans-41" x="97.339844"/>
      <use xlink:href="#DejaVuSans-78" x="165.748047"/>
      <use xlink:href="#DejaVuSans-69" x="224.927734"/>
      <use xlink:href="#DejaVuSans-73" x="252.710938"/>
      <use xlink:href="#DejaVuSans-20" x="304.810547"/>
      <use xlink:href="#DejaVuSans-56" x="336.597656"/>
      <use xlink:href="#DejaVuSans-61" x="397.255859"/>
      <use xlink:href="#DejaVuSans-6c" x="458.535156"/>
      <use xlink:href="#DejaVuSans-75" x="486.318359"/>
      <use xlink:href="#DejaVuSans-65" x="549.697266"/>
     </g>
    </g>
   </g>
   <g id="line2d_12">
    <path d="M 56.18 64.580364 
L 56.57693 65.060545 
L 64.912461 65.060545 
L 65.309391 64.580364 
L 65.706322 65.060545 
L 67.690972 65.060545 
L 68.087902 64.100182 
L 68.484832 65.060545 
L 68.881762 64.580364 
L 69.278692 65.060545 
L 73.644923 65.060545 
L 74.041853 64.580364 
L 74.438783 65.060545 
L 74.835713 64.580364 
L 75.232643 65.060545 
L 77.614223 65.060545 
L 78.011153 64.580364 
L 78.408084 65.060545 
L 78.805014 66.020909 
L 79.201944 65.060545 
L 81.980454 65.060545 
L 82.377384 64.100182 
L 82.774314 65.060545 
L 87.140545 65.060545 
L 87.537475 64.580364 
L 87.934405 65.060545 
L 90.712916 65.060545 
L 91.109846 64.580364 
L 91.506776 65.060545 
L 103.017748 65.060545 
L 103.414678 64.580364 
L 103.811608 65.060545 
L 105.002398 65.060545 
L 105.399328 67.941636 
L 105.796258 65.060545 
L 106.590118 65.060545 
L 106.987048 64.580364 
L 107.383978 65.060545 
L 109.765559 65.060545 
L 110.162489 66.981273 
L 110.559419 65.060545 
L 118.89495 65.060545 
L 119.29188 64.100182 
L 119.68881 64.580364 
L 120.48267 64.580364 
L 120.8796 65.060545 
L 121.67346 65.060545 
L 122.070391 64.580364 
L 122.467321 65.060545 
L 127.627411 65.060545 
L 128.024342 64.580364 
L 128.421272 64.580364 
L 128.818202 65.060545 
L 150.252425 65.060545 
L 151.046285 66.020909 
L 152.634005 73.223636 
L 153.030936 74.664182 
L 153.427866 75.624545 
L 153.824796 75.624545 
L 154.221726 76.104727 
L 158.984886 76.104727 
L 159.381817 75.624545 
L 160.175677 76.584909 
L 160.572607 76.104727 
L 160.969537 76.104727 
L 161.366467 76.584909 
L 161.763397 76.104727 
L 162.557257 76.104727 
L 162.954187 77.065091 
L 163.351117 76.104727 
L 165.335767 76.104727 
L 167.717348 73.223636 
L 168.114278 73.223636 
L 168.511208 72.743455 
L 169.305068 72.743455 
L 169.701998 72.263273 
L 170.098928 72.263273 
L 170.495858 71.783091 
L 170.892788 71.783091 
L 171.289718 72.263273 
L 172.083579 71.302909 
L 172.480509 70.342545 
L 173.274369 70.342545 
L 173.671299 69.862364 
L 174.465159 69.862364 
L 174.862089 69.382182 
L 176.052879 69.382182 
L 176.449809 69.862364 
L 176.846739 69.382182 
L 178.83139 69.382182 
L 179.22832 68.902 
L 179.62525 69.382182 
L 180.02218 68.902 
L 180.41911 69.382182 
L 183.19762 69.382182 
L 183.59455 68.902 
L 183.99148 69.382182 
L 184.785341 69.382182 
L 185.182271 71.302909 
L 185.579201 68.902 
L 185.976131 69.382182 
L 186.769991 69.382182 
L 187.166921 68.902 
L 187.563851 69.382182 
L 187.960781 68.421818 
L 188.357711 68.421818 
L 189.151571 67.461455 
L 189.548501 66.501091 
L 189.945431 65.060545 
L 193.120872 65.060545 
L 193.517802 65.540727 
L 193.914732 65.060545 
L 195.899382 65.060545 
L 196.296312 65.540727 
L 196.693243 65.060545 
L 198.280963 55.937091 
L 198.677893 54.496545 
L 199.074823 54.016364 
L 199.471753 52.575818 
L 199.868683 52.095636 
L 200.265613 49.214545 
L 200.662543 47.293818 
L 201.059473 46.333455 
L 201.853333 41.531636 
L 202.250263 40.091091 
L 202.647193 39.610909 
L 203.044124 38.650545 
L 203.441054 38.170364 
L 203.837984 34.809091 
L 204.234914 33.368545 
L 204.631844 31.447818 
L 205.028774 30.487455 
L 205.425704 29.046909 
L 205.822634 28.086545 
L 206.219564 26.646 
L 206.616494 24.245091 
L 207.013424 23.284727 
L 207.807284 22.324364 
L 208.204214 20.883818 
L 208.601144 19.923455 
L 208.998074 17.522545 
L 209.395005 16.082 
L 210.982725 16.082 
L 211.379655 16.562182 
L 211.776585 16.082 
L 214.555095 16.082 
L 214.952025 15.601818 
L 215.348955 16.082 
L 216.936676 16.082 
L 217.333606 15.601818 
L 217.730536 16.082 
L 218.127466 16.082 
L 218.524396 15.601818 
L 218.921326 16.082 
L 220.509046 16.082 
L 220.905976 15.601818 
L 221.302906 16.082 
L 221.699837 15.601818 
L 222.096767 16.082 
L 228.050718 16.082 
L 228.447648 15.601818 
L 228.844578 16.082 
L 229.241508 15.601818 
L 229.638438 16.082 
L 231.623088 16.082 
L 232.020018 16.562182 
L 232.416948 16.562182 
L 232.813878 17.522545 
L 233.210808 21.844182 
L 233.607738 24.245091 
L 234.004668 22.324364 
L 234.798529 26.646 
L 235.195459 24.725273 
L 235.592389 24.245091 
L 235.989319 24.725273 
L 236.783179 22.804545 
L 237.180109 23.284727 
L 237.577039 24.725273 
L 237.973969 25.685636 
L 238.370899 23.284727 
L 238.767829 23.764909 
L 239.164759 23.764909 
L 239.561689 23.284727 
L 240.35555 23.284727 
L 240.75248 22.804545 
L 241.14941 22.804545 
L 241.54634 21.844182 
L 242.3402 21.844182 
L 242.73713 21.364 
L 243.53099 22.324364 
L 243.92792 21.844182 
L 244.32485 22.324364 
L 245.11871 22.324364 
L 245.51564 21.844182 
L 245.91257 22.324364 
L 246.3095 23.764909 
L 246.706431 24.725273 
L 247.103361 26.165818 
L 247.500291 20.403636 
L 247.897221 21.844182 
L 248.294151 21.364 
L 248.691081 18.963091 
L 249.088011 20.883818 
L 249.484941 20.403636 
L 249.881871 18.963091 
L 250.278801 18.482909 
L 250.675731 18.963091 
L 251.072661 17.522545 
L 252.263451 16.082 
L 253.851172 16.082 
L 254.248102 15.601818 
L 254.645032 16.082 
L 255.041962 15.601818 
L 255.438892 15.601818 
L 255.835822 16.082 
L 256.232752 16.082 
L 256.629682 15.601818 
L 257.423542 15.601818 
L 257.820472 16.082 
L 258.217402 16.082 
L 258.614332 15.601818 
L 259.011262 15.601818 
L 259.408193 16.082 
L 259.805123 15.601818 
L 260.202053 16.082 
L 261.392843 16.082 
L 261.789773 15.601818 
L 262.186703 15.601818 
L 262.980563 16.562182 
L 263.377493 15.601818 
L 263.774423 16.082 
L 264.171353 15.601818 
L 264.568283 16.082 
L 266.552934 16.082 
L 266.949864 15.601818 
L 267.743724 16.562182 
L 268.140654 16.082 
L 268.537584 16.562182 
L 269.728374 23.284727 
L 270.919164 24.725273 
L 271.316094 27.126182 
L 272.109955 29.046909 
L 272.506885 30.487455 
L 272.903815 32.888364 
L 273.300745 34.328909 
L 273.697675 37.690182 
L 274.491535 38.650545 
L 274.888465 40.091091 
L 275.285395 40.091091 
L 275.682325 41.051455 
L 276.476185 46.813636 
L 276.873115 47.774 
L 277.666975 52.095636 
L 278.063906 52.095636 
L 278.460836 52.575818 
L 278.857766 53.536182 
L 279.651626 54.496545 
L 281.239346 58.338 
L 281.636276 59.778545 
L 282.430136 61.699273 
L 282.827066 64.100182 
L 283.223996 65.060545 
L 287.987157 65.060545 
L 288.384087 65.540727 
L 288.781017 65.060545 
L 293.147248 65.060545 
L 293.544178 66.020909 
L 293.941108 68.902 
L 294.338038 70.822727 
L 294.734968 71.783091 
L 295.528828 72.743455 
L 295.925758 72.743455 
L 296.719619 73.703818 
L 297.116549 75.144364 
L 297.513479 75.144364 
L 297.910409 76.104727 
L 298.307339 76.104727 
L 298.704269 76.584909 
L 299.101199 78.025455 
L 299.498129 78.505636 
L 299.895059 79.946182 
L 300.291989 81.866909 
L 300.688919 82.827273 
L 301.085849 84.748 
L 301.879709 86.668727 
L 303.46743 88.589455 
L 303.86436 89.549818 
L 305.05515 90.990364 
L 305.45208 90.990364 
L 305.84901 91.950727 
L 306.24594 93.391273 
L 306.64287 93.871455 
L 307.0398 94.831818 
L 307.43673 96.272364 
L 307.83366 96.272364 
L 308.62752 97.232727 
L 309.02445 98.673273 
L 309.421381 100.594 
L 309.818311 101.554364 
L 310.215241 102.034545 
L 310.612171 102.994909 
L 311.802961 107.316545 
L 312.199891 109.237273 
L 312.993751 110.197636 
L 313.390681 111.158 
L 313.787611 111.638182 
L 326.489373 111.638182 
L 326.886303 111.158 
L 327.283233 111.638182 
L 360.228429 111.638182 
L 360.625359 111.158 
L 361.022289 109.717455 
L 361.419219 109.237273 
L 361.816149 108.276909 
L 362.213079 105.876 
L 363.006939 102.994909 
L 363.403869 102.034545 
L 363.800799 99.633636 
L 364.197729 99.153455 
L 364.594659 97.712909 
L 365.78545 96.272364 
L 366.57931 96.272364 
L 366.97624 95.312 
L 367.37317 94.831818 
L 368.16703 91.470545 
L 368.56396 90.510182 
L 368.96089 90.03 
L 369.35782 89.069636 
L 369.75475 88.589455 
L 370.15168 88.589455 
L 370.54861 88.109273 
L 370.94554 87.148909 
L 371.739401 86.188545 
L 372.136331 85.228182 
L 372.533261 85.228182 
L 372.930191 84.267818 
L 373.327121 82.827273 
L 373.724051 81.866909 
L 374.120981 80.426364 
L 374.517911 78.505636 
L 374.914841 78.025455 
L 375.311771 76.584909 
L 376.105631 72.743455 
L 376.899491 71.783091 
L 377.296421 70.342545 
L 377.693351 69.382182 
L 378.090282 66.981273 
L 378.487212 66.501091 
L 378.884142 65.540727 
L 379.281072 65.060545 
L 390.792044 65.060545 
L 391.188974 66.981273 
L 391.585904 65.060545 
L 392.379764 65.060545 
L 392.776694 65.540727 
L 393.173624 65.060545 
L 399.127575 65.060545 
L 400.318365 71.783091 
L 400.715295 72.743455 
L 401.509155 73.703818 
L 401.906085 73.703818 
L 402.303015 73.223636 
L 411.035477 73.223636 
L 411.829337 72.263273 
L 413.020127 69.382182 
L 413.417057 67.941636 
L 414.210917 66.020909 
L 414.607847 65.540727 
L 415.004777 65.540727 
L 415.401708 65.060545 
L 420.958728 65.060545 
L 421.355658 64.100182 
L 421.752589 65.060545 
L 439.217511 65.060545 
L 439.614441 64.580364 
L 440.011371 65.060545 
L 441.202162 65.060545 
L 441.599092 64.580364 
L 441.996022 65.060545 
L 455.888574 65.060545 
L 456.285504 64.580364 
L 456.682434 65.060545 
L 487.642979 65.060545 
L 488.039909 64.580364 
L 488.436839 65.060545 
L 493.2 65.060545 
L 493.2 65.060545 
" clip-path="url(#p2a00f4a74a)" style="fill: none; stroke: #1f77b4; stroke-width: 1.5; stroke-linecap: square"/>
   </g>
   <g id="line2d_13">
    <path d="M 56.18 63.62 
L 493.2 63.62 
" clip-path="url(#p2a00f4a74a)" style="fill: none; stroke-dasharray: 2.96,1.28; stroke-dashoffset: 0; stroke: #808080; stroke-width: 0.8"/>
   </g>
   <g id="patch_3">
    <path d="M 56.18 116.44 
L 56.18 10.8 
" style="fill: none; stroke: #000000; stroke-width: 0.8; stroke-linejoin: miter; stroke-linecap: square"/>
   </g>
   <g id="patch_4">
    <path d="M 56.18 116.44 
L 493.2 116.44 
" style="fill: none; stroke: #000000; stroke-width: 0.8; stroke-linejoin: miter; stroke-linecap: square"/>
   </g>
  </g>
  <g id="axes_2">
   <g id="patch_5">
    <path d="M 56.18 264.04 
L 493.2 264.04 
L 493.2 158.4 
L 56.18 158.4 
z
" style="fill: #ffffff"/>
   </g>
   <g id="matplotlib.axis_3">
    <g id="xtick_7">
     <g id="line2d_14">
      <g>
       <use xlink:href="#m05cb8989ef" x="56.18" y="264.04" style="stroke: #000000; stroke-width: 0.8"/>
      </g>
     </g>
     <g id="text_14">
      <!-- 0 -->
      <g transform="translate(52.99875 278.638438) scale(0.1 -0.1)">
       <use xlink:href="#DejaVuSans-30"/>
      </g>
     </g>
    </g>
    <g id="xtick_8">
     <g id="line2d_15">
      <g>
       <use xlink:href="#m05cb8989ef" x="135.566013" y="264.04" style="stroke: #000000; stroke-width: 0.8"/>
      </g>
     </g>
     <g id="text_15">
      <!-- 2000 -->
      <g transform="translate(122.841013 278.638438) scale(0.1 -0.1)">
       <use xlink:href="#DejaVuSans-32"/>
       <use xlink:href="#DejaVuSans-30" x="63.623047"/>
       <use xlink:href="#DejaVuSans-30" x="127.246094"/>
       <use xlink:href="#DejaVuSans-30" x="190.869141"/>
      </g>
     </g>
    </g>
    <g id="xtick_9">
     <g id="line2d_16">
      <g>
       <use xlink:href="#m05cb8989ef" x="214.952025" y="264.04" style="stroke: #000000; stroke-width: 0.8"/>
      </g>
     </g>
     <g id="text_16">
      <!-- 4000 -->
      <g transform="translate(202.227025 278.638438) scale(0.1 -0.1)">
       <use xlink:href="#DejaVuSans-34"/>
       <use xlink:href="#DejaVuSans-30" x="63.623047"/>
       <use xlink:href="#DejaVuSans-30" x="127.246094"/>
       <use xlink:href="#DejaVuSans-30" x="190.869141"/>
      </g>
     </g>
    </g>
    <g id="xtick_10">
     <g id="line2d_17">
      <g>
       <use xlink:href="#m05cb8989ef" x="294.338038" y="264.04" style="stroke: #000000; stroke-width: 0.8"/>
      </g>
     </g>
     <g id="text_17">
      <!-- 6000 -->
      <g transform="translate(281.613038 278.638438) scale(0.1 -0.1)">
       <use xlink:href="#DejaVuSans-36"/>
       <use xlink:href="#DejaVuSans-30" x="63.623047"/>
       <use xlink:href="#DejaVuSans-30" x="127.246094"/>
       <use xlink:href="#DejaVuSans-30" x="190.869141"/>
      </g>
     </g>
    </g>
    <g id="xtick_11">
     <g id="line2d_18">
      <g>
       <use xlink:href="#m05cb8989ef" x="373.724051" y="264.04" style="stroke: #000000; stroke-width: 0.8"/>
      </g>
     </g>
     <g id="text_18">
      <!-- 8000 -->
      <g transform="translate(360.999051 278.638438) scale(0.1 -0.1)">
       <use xlink:href="#DejaVuSans-38"/>
       <use xlink:href="#DejaVuSans-30" x="63.623047"/>
       <use xlink:href="#DejaVuSans-30" x="127.246094"/>
       <use xlink:href="#DejaVuSans-30" x="190.869141"/>
      </g>
     </g>
    </g>
    <g id="xtick_12">
     <g id="line2d_19">
      <g>
       <use xlink:href="#m05cb8989ef" x="453.110064" y="264.04" style="stroke: #000000; stroke-width: 0.8"/>
      </g>
     </g>
     <g id="text_19">
      <!-- 10000 -->
      <g transform="translate(437.203814 278.638438) scale(0.1 -0.1)">
       <use xlink:href="#DejaVuSans-31"/>
       <use xlink:href="#DejaVuSans-30" x="63.623047"/>
       <use xlink:href="#DejaVuSans-30" x="127.246094"/>
       <use xlink:href="#DejaVuSans-30" x="190.869141"/>
       <use xlink:href="#DejaVuSans-30" x="254.492188"/>
      </g>
     </g>
    </g>
    <g id="text_20">
     <!-- Time (ms) -->
     <g transform="translate(249.490781 292.316563) scale(0.1 -0.1)">
      <use xlink:href="#DejaVuSans-54"/>
      <use xlink:href="#DejaVuSans-69" x="57.958984"/>
      <use xlink:href="#DejaVuSans-6d" x="85.742188"/>
      <use xlink:href="#DejaVuSans-65" x="183.154297"/>
      <use xlink:href="#DejaVuSans-20" x="244.677734"/>
      <use xlink:href="#DejaVuSans-28" x="276.464844"/>
      <use xlink:href="#DejaVuSans-6d" x="315.478516"/>
      <use xlink:href="#DejaVuSans-73" x="412.890625"/>
      <use xlink:href="#DejaVuSans-29" x="464.990234"/>
     </g>
    </g>
   </g>
   <g id="matplotlib.axis_4">
    <g id="ytick_6">
     <g id="line2d_20">
      <g>
       <use xlink:href="#m8c31e135bd" x="56.18" y="259.238182" style="stroke: #000000; stroke-width: 0.8"/>
      </g>
     </g>
     <g id="text_21">
      <!-- −1.0 -->
      <g transform="translate(24.897188 263.037401) scale(0.1 -0.1)">
       <use xlink:href="#DejaVuSans-2212"/>
       <use xlink:href="#DejaVuSans-31" x="83.789062"/>
       <use xlink:href="#DejaVuSans-2e" x="147.412109"/>
       <use xlink:href="#DejaVuSans-30" x="179.199219"/>
      </g>
     </g>
    </g>
    <g id="ytick_7">
     <g id="line2d_21">
      <g>
       <use xlink:href="#m8c31e135bd" x="56.18" y="235.229091" style="stroke: #000000; stroke-width: 0.8"/>
      </g>
     </g>
     <g id="text_22">
      <!-- −0.5 -->
      <g transform="translate(24.897188 239.02831) scale(0.1 -0.1)">
       <use xlink:href="#DejaVuSans-2212"/>
       <use xlink:href="#DejaVuSans-30" x="83.789062"/>
       <use xlink:href="#DejaVuSans-2e" x="147.412109"/>
       <use xlink:href="#DejaVuSans-35" x="179.199219"/>
      </g>
     </g>
    </g>
    <g id="ytick_8">
     <g id="line2d_22">
      <g>
       <use xlink:href="#m8c31e135bd" x="56.18" y="211.22" style="stroke: #000000; stroke-width: 0.8"/>
      </g>
     </g>
     <g id="text_23">
      <!-- 0.0 -->
      <g transform="translate(33.276875 215.019219) scale(0.1 -0.1)">
       <use xlink:href="#DejaVuSans-30"/>
       <use xlink:href="#DejaVuSans-2e" x="63.623047"/>
       <use xlink:href="#DejaVuSans-30" x="95.410156"/>
      </g>
     </g>
    </g>
    <g id="ytick_9">
     <g id="line2d_23">
      <g>
       <use xlink:href="#m8c31e135bd" x="56.18" y="187.210909" style="stroke: #000000; stroke-width: 0.8"/>
      </g>
     </g>
     <g id="text_24">
      <!-- 0.5 -->
      <g transform="translate(33.276875 191.010128) scale(0.1 -0.1)">
       <use xlink:href="#DejaVuSans-30"/>
       <use xlink:href="#DejaVuSans-2e" x="63.623047"/>
       <use xlink:href="#DejaVuSans-35" x="95.410156"/>
      </g>
     </g>
    </g>
    <g id="ytick_10">
     <g id="line2d_24">
      <g>
       <use xlink:href="#m8c31e135bd" x="56.18" y="163.201818" style="stroke: #000000; stroke-width: 0.8"/>
      </g>
     </g>
     <g id="text_25">
      <!-- 1.0 -->
      <g transform="translate(33.276875 167.001037) scale(0.1 -0.1)">
       <use xlink:href="#DejaVuSans-31"/>
       <use xlink:href="#DejaVuSans-2e" x="63.623047"/>
       <use xlink:href="#DejaVuSans-30" x="95.410156"/>
      </g>
     </g>
    </g>
    <g id="text_26">
     <!-- Y-Axis Value -->
     <g transform="translate(18.8175 241.065313) rotate(-90) scale(0.1 -0.1)">
      <defs>
       <path id="DejaVuSans-59" d="M -13 4666 
L 666 4666 
L 1959 2747 
L 3244 4666 
L 3922 4666 
L 2272 2222 
L 2272 0 
L 1638 0 
L 1638 2222 
L -13 4666 
z
" transform="scale(0.015625)"/>
      </defs>
      <use xlink:href="#DejaVuSans-59"/>
      <use xlink:href="#DejaVuSans-2d" x="49.208984"/>
      <use xlink:href="#DejaVuSans-41" x="83.042969"/>
      <use xlink:href="#DejaVuSans-78" x="151.451172"/>
      <use xlink:href="#DejaVuSans-69" x="210.630859"/>
      <use xlink:href="#DejaVuSans-73" x="238.414062"/>
      <use xlink:href="#DejaVuSans-20" x="290.513672"/>
      <use xlink:href="#DejaVuSans-56" x="322.300781"/>
      <use xlink:href="#DejaVuSans-61" x="382.958984"/>
      <use xlink:href="#DejaVuSans-6c" x="444.238281"/>
      <use xlink:href="#DejaVuSans-75" x="472.021484"/>
      <use xlink:href="#DejaVuSans-65" x="535.400391"/>
     </g>
    </g>
   </g>
   <g id="line2d_25">
    <path d="M 56.18 209.779455 
L 78.805014 209.779455 
L 79.201944 210.259636 
L 79.598874 209.779455 
L 87.934405 209.779455 
L 88.331335 210.259636 
L 88.728265 209.779455 
L 94.285286 209.779455 
L 94.682216 210.259636 
L 95.079146 209.779455 
L 105.002398 209.779455 
L 105.399328 210.259636 
L 105.796258 209.779455 
L 108.574768 209.779455 
L 108.971698 210.259636 
L 109.368629 209.779455 
L 113.734859 209.779455 
L 114.131789 210.259636 
L 114.528719 209.779455 
L 137.947593 209.779455 
L 138.344523 210.259636 
L 138.741453 209.779455 
L 143.107684 209.779455 
L 143.504614 208.338909 
L 144.298474 204.017273 
L 145.489264 198.255091 
L 145.886194 195.374 
L 146.283124 193.453273 
L 146.680054 189.131636 
L 147.076985 187.210909 
L 147.473915 183.369455 
L 147.870845 181.448727 
L 148.267775 178.567636 
L 148.664705 174.726182 
L 149.061635 173.765818 
L 149.855495 165.122545 
L 150.252425 163.682 
L 155.015586 163.682 
L 155.412516 163.201818 
L 155.809446 163.682 
L 157.397166 163.682 
L 157.794096 164.162182 
L 158.191026 163.682 
L 162.160327 163.682 
L 162.557257 163.201818 
L 162.954187 163.682 
L 166.129628 163.682 
L 166.526558 163.201818 
L 166.923488 163.682 
L 167.320418 163.682 
L 167.717348 164.162182 
L 168.114278 163.682 
L 170.098928 163.682 
L 170.495858 164.162182 
L 170.892788 163.682 
L 171.289718 164.162182 
L 171.686649 163.682 
L 175.259019 163.682 
L 175.655949 163.201818 
L 176.052879 163.682 
L 180.81604 163.682 
L 181.21297 163.201818 
L 181.6099 163.682 
L 182.40376 163.682 
L 182.80069 163.201818 
L 183.19762 163.682 
L 184.388411 163.682 
L 184.785341 163.201818 
L 185.182271 163.682 
L 186.373061 163.682 
L 186.769991 164.162182 
L 187.166921 163.682 
L 187.563851 164.162182 
L 187.960781 163.682 
L 188.357711 164.162182 
L 189.151571 163.201818 
L 189.548501 163.682 
L 192.723942 163.682 
L 193.120872 164.162182 
L 193.517802 163.682 
L 195.899382 163.682 
L 196.296312 164.162182 
L 196.693243 163.682 
L 201.456403 163.682 
L 201.853333 163.201818 
L 202.250263 163.682 
L 202.647193 163.682 
L 203.044124 163.201818 
L 203.441054 163.682 
L 207.807284 163.682 
L 208.204214 164.162182 
L 208.601144 163.682 
L 208.998074 163.682 
L 209.395005 163.201818 
L 209.791935 163.682 
L 210.188865 163.682 
L 210.585795 164.162182 
L 210.982725 163.682 
L 222.096767 163.682 
L 222.890627 165.602727 
L 224.478347 171.364909 
L 224.875277 173.285636 
L 226.066067 174.726182 
L 227.256857 177.607273 
L 227.653787 180.488364 
L 228.050718 181.448727 
L 229.241508 185.770364 
L 229.638438 187.691091 
L 230.432298 189.611818 
L 231.623088 194.893818 
L 232.020018 196.334364 
L 232.416948 198.255091 
L 232.813878 199.215455 
L 233.607738 202.096545 
L 235.195459 204.017273 
L 235.989319 206.898364 
L 236.386249 208.819091 
L 236.783179 209.779455 
L 246.3095 209.779455 
L 246.706431 210.259636 
L 247.103361 210.259636 
L 248.294151 211.700182 
L 248.691081 213.140727 
L 249.088011 215.061455 
L 249.484941 215.541636 
L 250.278801 217.462364 
L 250.675731 218.902909 
L 251.072661 220.823636 
L 251.469591 221.784 
L 251.866521 223.224545 
L 254.645032 237.149818 
L 255.041962 239.550727 
L 255.438892 240.511091 
L 257.026612 247.713818 
L 257.423542 248.674182 
L 259.011262 255.876909 
L 259.408193 256.837273 
L 259.805123 258.758 
L 260.202053 259.238182 
L 322.917003 259.238182 
L 324.107793 252.515636 
L 324.504723 251.075091 
L 324.901653 250.114727 
L 325.298583 248.674182 
L 325.695513 248.194 
L 326.886303 245.312909 
L 327.283233 244.832727 
L 327.680163 243.872364 
L 328.077094 241.951636 
L 328.474024 240.991273 
L 329.267884 238.110182 
L 330.061744 234.748909 
L 330.458674 233.308364 
L 331.252534 229.947091 
L 332.840254 224.184909 
L 333.237184 223.704727 
L 333.634114 221.784 
L 334.031045 220.823636 
L 334.824905 217.462364 
L 335.618765 214.581273 
L 336.015695 214.581273 
L 336.412625 214.101091 
L 336.809555 211.700182 
L 337.603415 209.779455 
L 338.000345 210.259636 
L 338.794205 210.259636 
L 339.191135 209.779455 
L 339.588065 209.779455 
L 339.984995 210.259636 
L 340.381926 209.779455 
L 345.542016 209.779455 
L 345.938946 206.898364 
L 346.335876 204.977636 
L 346.732807 204.017273 
L 347.526667 199.695636 
L 348.320527 196.814545 
L 349.114387 192.492909 
L 350.305177 187.210909 
L 350.702107 185.770364 
L 351.495967 181.928909 
L 351.892897 180.968545 
L 352.289827 179.528 
L 352.686757 176.646909 
L 353.083688 175.686545 
L 353.480618 174.246 
L 353.877548 173.765818 
L 354.274478 171.845091 
L 354.671408 167.523455 
L 355.068338 164.642364 
L 355.465268 163.682 
L 359.434569 163.682 
L 359.831499 163.201818 
L 360.228429 163.682 
L 361.816149 163.682 
L 362.213079 163.201818 
L 362.610009 163.682 
L 364.197729 163.682 
L 364.594659 163.201818 
L 364.991589 163.682 
L 368.56396 163.682 
L 368.96089 164.162182 
L 369.35782 163.682 
L 371.739401 163.682 
L 372.136331 164.162182 
L 372.533261 163.682 
L 373.327121 163.682 
L 373.724051 163.201818 
L 374.120981 163.682 
L 376.899491 163.682 
L 377.296421 165.122545 
L 377.693351 164.162182 
L 378.090282 163.682 
L 382.853442 163.682 
L 383.250372 164.162182 
L 383.647302 163.682 
L 384.441163 163.682 
L 384.838093 163.201818 
L 385.235023 163.682 
L 385.631953 163.201818 
L 386.028883 163.682 
L 390.792044 163.682 
L 391.188974 164.162182 
L 391.585904 163.682 
L 391.982834 163.682 
L 392.379764 164.162182 
L 392.776694 163.682 
L 397.936785 163.682 
L 398.333715 164.162182 
L 398.730645 163.682 
L 400.715295 163.682 
L 401.112225 164.162182 
L 401.509155 163.682 
L 404.287666 163.682 
L 404.684596 164.162182 
L 405.081526 163.682 
L 407.860036 163.682 
L 408.256966 165.122545 
L 408.653896 168.003636 
L 409.050827 171.845091 
L 409.447757 173.285636 
L 409.844687 174.246 
L 410.241617 174.726182 
L 410.638547 176.166727 
L 412.623197 190.092 
L 413.020127 192.012727 
L 413.813987 197.294727 
L 414.210917 198.735273 
L 415.401708 204.017273 
L 415.798638 205.457818 
L 416.195568 206.418182 
L 416.592498 209.299273 
L 416.989428 209.779455 
L 421.752589 209.779455 
L 422.149519 210.259636 
L 422.546449 209.779455 
L 425.721889 209.779455 
L 426.118819 210.259636 
L 426.515749 209.779455 
L 426.912679 210.259636 
L 427.309609 209.779455 
L 432.07277 209.779455 
L 432.4697 210.259636 
L 432.86663 209.779455 
L 437.629791 209.779455 
L 438.026721 210.259636 
L 438.423651 209.779455 
L 463.033315 209.779455 
L 463.430245 210.259636 
L 463.827175 209.779455 
L 470.971916 209.779455 
L 471.368847 210.259636 
L 471.765777 209.779455 
L 472.559637 209.779455 
L 472.956567 210.259636 
L 473.353497 209.779455 
L 476.132007 209.779455 
L 476.528937 210.259636 
L 476.925867 209.779455 
L 488.039909 209.779455 
L 488.436839 209.299273 
L 488.833769 209.779455 
L 492.40614 209.779455 
L 492.80307 210.259636 
L 493.2 209.779455 
L 493.2 209.779455 
" clip-path="url(#p152c1f726c)" style="fill: none; stroke: #1f77b4; stroke-width: 1.5; stroke-linecap: square"/>
   </g>
   <g id="line2d_26">
    <path d="M 56.18 211.22 
L 493.2 211.22 
" clip-path="url(#p152c1f726c)" style="fill: none; stroke-dasharray: 2.96,1.28; stroke-dashoffset: 0; stroke: #808080; stroke-width: 0.8"/>
   </g>
   <g id="patch_6">
    <path d="M 56.18 264.04 
L 56.18 158.4 
" style="fill: none; stroke: #000000; stroke-width: 0.8; stroke-linejoin: miter; stroke-linecap: square"/>
   </g>
   <g id="patch_7">
    <path d="M 56.18 264.04 
L 493.2 264.04 
" style="fill: none; stroke: #000000; stroke-width: 0.8; stroke-linejoin: miter; stroke-linecap: square"/>
   </g>
  </g>
 </g>
 <defs>
  <clipPath id="p2a00f4a74a">
   <rect x="56.18" y="10.8" width="437.02" height="105.64"/>
  </clipPath>
  <clipPath id="p152c1f726c">
   <rect x="56.18" y="158.4" width="437.02" height="105.64"/>
  </clipPath>
 </defs>
</svg>
