<?xml version="1.0" encoding="utf-8" standalone="no"?>
<!DOCTYPE svg PUBLIC "-//W3C//DTD SVG 1.1//EN"
  "http://www.w3.org/Graphics/SVG/1.1/DTD/svg11.dtd">
<svg xmlns:xlink="http://www.w3.org/1999/xlink" width="504pt" height="306pt" viewBox="0 0 504 306" xmlns="http://www.w3.org/2000/svg" version="1.1">
 <metadata>
  <rdf:RDF xmlns:dc="http://purl.org/dc/elements/1.1/" xmlns:cc="http://creativecommons.org/ns#" xmlns:rdf="http://www.w3.org/1999/02/22-rdf-syntax-ns#">
   <cc:Work>
    <dc:type rdf:resource="http://purl.org/dc/dcmitype/StillImage"/>
    <dc:date>2024-06-16T22:16:35.944363</dc:date>
    <dc:format>image/svg+xml</dc:format>
    <dc:creator>
     <cc:Agent>
      <dc:title>Matplotlib v3.8.3, https://matplotlib.org/</dc:title>
     </cc:Agent>
    </dc:creator>
   </cc:Work>
  </rdf:RDF>
 </metadata>
 <defs>
  <style type="text/css">*{stroke-linejoin: round; stroke-linecap: butt}</style>
 </defs>
 <g id="figure_1">
  <g id="patch_1">
   <path d="M 0 306 
L 504 306 
L 504 0 
L 0 0 
z
" style="fill: #ffffff"/>
  </g>
  <g id="axes_1">
   <g id="patch_2">
    <path d="M 56.18 116.44 
L 478.981111 116.44 
L 478.981111 10.8 
L 56.18 10.8 
z
" style="fill: #ffffff"/>
   </g>
   <g id="matplotlib.axis_1">
    <g id="xtick_1">
     <g id="line2d_1">
      <defs>
       <path id="m18fbb630ff" d="M 0 0 
L 0 3.5 
" style="stroke: #000000; stroke-width: 0.8"/>
      </defs>
      <g>
       <use xlink:href="#m18fbb630ff" x="56.18" y="116.44" style="stroke: #000000; stroke-width: 0.8"/>
      </g>
     </g>
     <g id="text_1">
      <!-- 0 -->
      <g transform="translate(52.99875 131.038437) scale(0.1 -0.1)">
       <defs>
        <path id="DejaVuSans-30" d="M 2034 4250 
Q 1547 4250 1301 3770 
Q 1056 3291 1056 2328 
Q 1056 1369 1301 889 
Q 1547 409 2034 409 
Q 2525 409 2770 889 
Q 3016 1369 3016 2328 
Q 3016 3291 2770 3770 
Q 2525 4250 2034 4250 
z
M 2034 4750 
Q 2819 4750 3233 4129 
Q 3647 3509 3647 2328 
Q 3647 1150 3233 529 
Q 2819 -91 2034 -91 
Q 1250 -91 836 529 
Q 422 1150 422 2328 
Q 422 3509 836 4129 
Q 1250 4750 2034 4750 
z
" transform="scale(0.015625)"/>
       </defs>
       <use xlink:href="#DejaVuSans-30"/>
      </g>
     </g>
    </g>
    <g id="xtick_2">
     <g id="line2d_2">
      <g>
       <use xlink:href="#m18fbb630ff" x="140.369787" y="116.44" style="stroke: #000000; stroke-width: 0.8"/>
      </g>
     </g>
     <g id="text_2">
      <!-- 5000 -->
      <g transform="translate(127.644787 131.038437) scale(0.1 -0.1)">
       <defs>
        <path id="DejaVuSans-35" d="M 691 4666 
L 3169 4666 
L 3169 4134 
L 1269 4134 
L 1269 2991 
Q 1406 3038 1543 3061 
Q 1681 3084 1819 3084 
Q 2600 3084 3056 2656 
Q 3513 2228 3513 1497 
Q 3513 744 3044 326 
Q 2575 -91 1722 -91 
Q 1428 -91 1123 -41 
Q 819 9 494 109 
L 494 744 
Q 775 591 1075 516 
Q 1375 441 1709 441 
Q 2250 441 2565 725 
Q 2881 1009 2881 1497 
Q 2881 1984 2565 2268 
Q 2250 2553 1709 2553 
Q 1456 2553 1204 2497 
Q 953 2441 691 2322 
L 691 4666 
z
" transform="scale(0.015625)"/>
       </defs>
       <use xlink:href="#DejaVuSans-35"/>
       <use xlink:href="#DejaVuSans-30" x="63.623047"/>
       <use xlink:href="#DejaVuSans-30" x="127.246094"/>
       <use xlink:href="#DejaVuSans-30" x="190.869141"/>
      </g>
     </g>
    </g>
    <g id="xtick_3">
     <g id="line2d_3">
      <g>
       <use xlink:href="#m18fbb630ff" x="224.559574" y="116.44" style="stroke: #000000; stroke-width: 0.8"/>
      </g>
     </g>
     <g id="text_3">
      <!-- 10000 -->
      <g transform="translate(208.653324 131.038437) scale(0.1 -0.1)">
       <defs>
        <path id="DejaVuSans-31" d="M 794 531 
L 1825 531 
L 1825 4091 
L 703 3866 
L 703 4441 
L 1819 4666 
L 2450 4666 
L 2450 531 
L 3481 531 
L 3481 0 
L 794 0 
L 794 531 
z
" transform="scale(0.015625)"/>
       </defs>
       <use xlink:href="#DejaVuSans-31"/>
       <use xlink:href="#DejaVuSans-30" x="63.623047"/>
       <use xlink:href="#DejaVuSans-30" x="127.246094"/>
       <use xlink:href="#DejaVuSans-30" x="190.869141"/>
       <use xlink:href="#DejaVuSans-30" x="254.492188"/>
      </g>
     </g>
    </g>
    <g id="xtick_4">
     <g id="line2d_4">
      <g>
       <use xlink:href="#m18fbb630ff" x="308.749361" y="116.44" style="stroke: #000000; stroke-width: 0.8"/>
      </g>
     </g>
     <g id="text_4">
      <!-- 15000 -->
      <g transform="translate(292.843111 131.038437) scale(0.1 -0.1)">
       <use xlink:href="#DejaVuSans-31"/>
       <use xlink:href="#DejaVuSans-35" x="63.623047"/>
       <use xlink:href="#DejaVuSans-30" x="127.246094"/>
       <use xlink:href="#DejaVuSans-30" x="190.869141"/>
       <use xlink:href="#DejaVuSans-30" x="254.492188"/>
      </g>
     </g>
    </g>
    <g id="xtick_5">
     <g id="line2d_5">
      <g>
       <use xlink:href="#m18fbb630ff" x="392.939149" y="116.44" style="stroke: #000000; stroke-width: 0.8"/>
      </g>
     </g>
     <g id="text_5">
      <!-- 20000 -->
      <g transform="translate(377.032899 131.038437) scale(0.1 -0.1)">
       <defs>
        <path id="DejaVuSans-32" d="M 1228 531 
L 3431 531 
L 3431 0 
L 469 0 
L 469 531 
Q 828 903 1448 1529 
Q 2069 2156 2228 2338 
Q 2531 2678 2651 2914 
Q 2772 3150 2772 3378 
Q 2772 3750 2511 3984 
Q 2250 4219 1831 4219 
Q 1534 4219 1204 4116 
Q 875 4013 500 3803 
L 500 4441 
Q 881 4594 1212 4672 
Q 1544 4750 1819 4750 
Q 2544 4750 2975 4387 
Q 3406 4025 3406 3419 
Q 3406 3131 3298 2873 
Q 3191 2616 2906 2266 
Q 2828 2175 2409 1742 
Q 1991 1309 1228 531 
z
" transform="scale(0.015625)"/>
       </defs>
       <use xlink:href="#DejaVuSans-32"/>
       <use xlink:href="#DejaVuSans-30" x="63.623047"/>
       <use xlink:href="#DejaVuSans-30" x="127.246094"/>
       <use xlink:href="#DejaVuSans-30" x="190.869141"/>
       <use xlink:href="#DejaVuSans-30" x="254.492188"/>
      </g>
     </g>
    </g>
    <g id="xtick_6">
     <g id="line2d_6">
      <g>
       <use xlink:href="#m18fbb630ff" x="477.128936" y="116.44" style="stroke: #000000; stroke-width: 0.8"/>
      </g>
     </g>
     <g id="text_6">
      <!-- 25000 -->
      <g transform="translate(461.222686 131.038437) scale(0.1 -0.1)">
       <use xlink:href="#DejaVuSans-32"/>
       <use xlink:href="#DejaVuSans-35" x="63.623047"/>
       <use xlink:href="#DejaVuSans-30" x="127.246094"/>
       <use xlink:href="#DejaVuSans-30" x="190.869141"/>
       <use xlink:href="#DejaVuSans-30" x="254.492188"/>
      </g>
     </g>
    </g>
    <g id="text_7">
     <!-- Time (ms) -->
     <g transform="translate(242.381337 144.716562) scale(0.1 -0.1)">
      <defs>
       <path id="DejaVuSans-54" d="M -19 4666 
L 3928 4666 
L 3928 4134 
L 2272 4134 
L 2272 0 
L 1638 0 
L 1638 4134 
L -19 4134 
L -19 4666 
z
" transform="scale(0.015625)"/>
       <path id="DejaVuSans-69" d="M 603 3500 
L 1178 3500 
L 1178 0 
L 603 0 
L 603 3500 
z
M 603 4863 
L 1178 4863 
L 1178 4134 
L 603 4134 
L 603 4863 
z
" transform="scale(0.015625)"/>
       <path id="DejaVuSans-6d" d="M 3328 2828 
Q 3544 3216 3844 3400 
Q 4144 3584 4550 3584 
Q 5097 3584 5394 3201 
Q 5691 2819 5691 2113 
L 5691 0 
L 5113 0 
L 5113 2094 
Q 5113 2597 4934 2840 
Q 4756 3084 4391 3084 
Q 3944 3084 3684 2787 
Q 3425 2491 3425 1978 
L 3425 0 
L 2847 0 
L 2847 2094 
Q 2847 2600 2669 2842 
Q 2491 3084 2119 3084 
Q 1678 3084 1418 2786 
Q 1159 2488 1159 1978 
L 1159 0 
L 581 0 
L 581 3500 
L 1159 3500 
L 1159 2956 
Q 1356 3278 1631 3431 
Q 1906 3584 2284 3584 
Q 2666 3584 2933 3390 
Q 3200 3197 3328 2828 
z
" transform="scale(0.015625)"/>
       <path id="DejaVuSans-65" d="M 3597 1894 
L 3597 1613 
L 953 1613 
Q 991 1019 1311 708 
Q 1631 397 2203 397 
Q 2534 397 2845 478 
Q 3156 559 3463 722 
L 3463 178 
Q 3153 47 2828 -22 
Q 2503 -91 2169 -91 
Q 1331 -91 842 396 
Q 353 884 353 1716 
Q 353 2575 817 3079 
Q 1281 3584 2069 3584 
Q 2775 3584 3186 3129 
Q 3597 2675 3597 1894 
z
M 3022 2063 
Q 3016 2534 2758 2815 
Q 2500 3097 2075 3097 
Q 1594 3097 1305 2825 
Q 1016 2553 972 2059 
L 3022 2063 
z
" transform="scale(0.015625)"/>
       <path id="DejaVuSans-20" transform="scale(0.015625)"/>
       <path id="DejaVuSans-28" d="M 1984 4856 
Q 1566 4138 1362 3434 
Q 1159 2731 1159 2009 
Q 1159 1288 1364 580 
Q 1569 -128 1984 -844 
L 1484 -844 
Q 1016 -109 783 600 
Q 550 1309 550 2009 
Q 550 2706 781 3412 
Q 1013 4119 1484 4856 
L 1984 4856 
z
" transform="scale(0.015625)"/>
       <path id="DejaVuSans-73" d="M 2834 3397 
L 2834 2853 
Q 2591 2978 2328 3040 
Q 2066 3103 1784 3103 
Q 1356 3103 1142 2972 
Q 928 2841 928 2578 
Q 928 2378 1081 2264 
Q 1234 2150 1697 2047 
L 1894 2003 
Q 2506 1872 2764 1633 
Q 3022 1394 3022 966 
Q 3022 478 2636 193 
Q 2250 -91 1575 -91 
Q 1294 -91 989 -36 
Q 684 19 347 128 
L 347 722 
Q 666 556 975 473 
Q 1284 391 1588 391 
Q 1994 391 2212 530 
Q 2431 669 2431 922 
Q 2431 1156 2273 1281 
Q 2116 1406 1581 1522 
L 1381 1569 
Q 847 1681 609 1914 
Q 372 2147 372 2553 
Q 372 3047 722 3315 
Q 1072 3584 1716 3584 
Q 2034 3584 2315 3537 
Q 2597 3491 2834 3397 
z
" transform="scale(0.015625)"/>
       <path id="DejaVuSans-29" d="M 513 4856 
L 1013 4856 
Q 1481 4119 1714 3412 
Q 1947 2706 1947 2009 
Q 1947 1309 1714 600 
Q 1481 -109 1013 -844 
L 513 -844 
Q 928 -128 1133 580 
Q 1338 1288 1338 2009 
Q 1338 2731 1133 3434 
Q 928 4138 513 4856 
z
" transform="scale(0.015625)"/>
      </defs>
      <use xlink:href="#DejaVuSans-54"/>
      <use xlink:href="#DejaVuSans-69" x="57.958984"/>
      <use xlink:href="#DejaVuSans-6d" x="85.742188"/>
      <use xlink:href="#DejaVuSans-65" x="183.154297"/>
      <use xlink:href="#DejaVuSans-20" x="244.677734"/>
      <use xlink:href="#DejaVuSans-28" x="276.464844"/>
      <use xlink:href="#DejaVuSans-6d" x="315.478516"/>
      <use xlink:href="#DejaVuSans-73" x="412.890625"/>
      <use xlink:href="#DejaVuSans-29" x="464.990234"/>
     </g>
    </g>
   </g>
   <g id="matplotlib.axis_2">
    <g id="ytick_1">
     <g id="line2d_7">
      <defs>
       <path id="m9e4d00fa84" d="M 0 0 
L -3.5 0 
" style="stroke: #000000; stroke-width: 0.8"/>
      </defs>
      <g>
       <use xlink:href="#m9e4d00fa84" x="56.18" y="111.638182" style="stroke: #000000; stroke-width: 0.8"/>
      </g>
     </g>
     <g id="text_8">
      <!-- −1.0 -->
      <g transform="translate(24.897188 115.437401) scale(0.1 -0.1)">
       <defs>
        <path id="DejaVuSans-2212" d="M 678 2272 
L 4684 2272 
L 4684 1741 
L 678 1741 
L 678 2272 
z
" transform="scale(0.015625)"/>
        <path id="DejaVuSans-2e" d="M 684 794 
L 1344 794 
L 1344 0 
L 684 0 
L 684 794 
z
" transform="scale(0.015625)"/>
       </defs>
       <use xlink:href="#DejaVuSans-2212"/>
       <use xlink:href="#DejaVuSans-31" x="83.789062"/>
       <use xlink:href="#DejaVuSans-2e" x="147.412109"/>
       <use xlink:href="#DejaVuSans-30" x="179.199219"/>
      </g>
     </g>
    </g>
    <g id="ytick_2">
     <g id="line2d_8">
      <g>
       <use xlink:href="#m9e4d00fa84" x="56.18" y="87.629091" style="stroke: #000000; stroke-width: 0.8"/>
      </g>
     </g>
     <g id="text_9">
      <!-- −0.5 -->
      <g transform="translate(24.897188 91.42831) scale(0.1 -0.1)">
       <use xlink:href="#DejaVuSans-2212"/>
       <use xlink:href="#DejaVuSans-30" x="83.789062"/>
       <use xlink:href="#DejaVuSans-2e" x="147.412109"/>
       <use xlink:href="#DejaVuSans-35" x="179.199219"/>
      </g>
     </g>
    </g>
    <g id="ytick_3">
     <g id="line2d_9">
      <g>
       <use xlink:href="#m9e4d00fa84" x="56.18" y="63.62" style="stroke: #000000; stroke-width: 0.8"/>
      </g>
     </g>
     <g id="text_10">
      <!-- 0.0 -->
      <g transform="translate(33.276875 67.419219) scale(0.1 -0.1)">
       <use xlink:href="#DejaVuSans-30"/>
       <use xlink:href="#DejaVuSans-2e" x="63.623047"/>
       <use xlink:href="#DejaVuSans-30" x="95.410156"/>
      </g>
     </g>
    </g>
    <g id="ytick_4">
     <g id="line2d_10">
      <g>
       <use xlink:href="#m9e4d00fa84" x="56.18" y="39.610909" style="stroke: #000000; stroke-width: 0.8"/>
      </g>
     </g>
     <g id="text_11">
      <!-- 0.5 -->
      <g transform="translate(33.276875 43.410128) scale(0.1 -0.1)">
       <use xlink:href="#DejaVuSans-30"/>
       <use xlink:href="#DejaVuSans-2e" x="63.623047"/>
       <use xlink:href="#DejaVuSans-35" x="95.410156"/>
      </g>
     </g>
    </g>
    <g id="ytick_5">
     <g id="line2d_11">
      <g>
       <use xlink:href="#m9e4d00fa84" x="56.18" y="15.601818" style="stroke: #000000; stroke-width: 0.8"/>
      </g>
     </g>
     <g id="text_12">
      <!-- 1.0 -->
      <g transform="translate(33.276875 19.401037) scale(0.1 -0.1)">
       <use xlink:href="#DejaVuSans-31"/>
       <use xlink:href="#DejaVuSans-2e" x="63.623047"/>
       <use xlink:href="#DejaVuSans-30" x="95.410156"/>
      </g>
     </g>
    </g>
    <g id="text_13">
     <!-- X-Axis Value -->
     <g transform="translate(18.8175 94.180156) rotate(-90) scale(0.1 -0.1)">
      <defs>
       <path id="DejaVuSans-58" d="M 403 4666 
L 1081 4666 
L 2241 2931 
L 3406 4666 
L 4084 4666 
L 2584 2425 
L 4184 0 
L 3506 0 
L 2194 1984 
L 872 0 
L 191 0 
L 1856 2491 
L 403 4666 
z
" transform="scale(0.015625)"/>
       <path id="DejaVuSans-2d" d="M 313 2009 
L 1997 2009 
L 1997 1497 
L 313 1497 
L 313 2009 
z
" transform="scale(0.015625)"/>
       <path id="DejaVuSans-41" d="M 2188 4044 
L 1331 1722 
L 3047 1722 
L 2188 4044 
z
M 1831 4666 
L 2547 4666 
L 4325 0 
L 3669 0 
L 3244 1197 
L 1141 1197 
L 716 0 
L 50 0 
L 1831 4666 
z
" transform="scale(0.015625)"/>
       <path id="DejaVuSans-78" d="M 3513 3500 
L 2247 1797 
L 3578 0 
L 2900 0 
L 1881 1375 
L 863 0 
L 184 0 
L 1544 1831 
L 300 3500 
L 978 3500 
L 1906 2253 
L 2834 3500 
L 3513 3500 
z
" transform="scale(0.015625)"/>
       <path id="DejaVuSans-56" d="M 1831 0 
L 50 4666 
L 709 4666 
L 2188 738 
L 3669 4666 
L 4325 4666 
L 2547 0 
L 1831 0 
z
" transform="scale(0.015625)"/>
       <path id="DejaVuSans-61" d="M 2194 1759 
Q 1497 1759 1228 1600 
Q 959 1441 959 1056 
Q 959 750 1161 570 
Q 1363 391 1709 391 
Q 2188 391 2477 730 
Q 2766 1069 2766 1631 
L 2766 1759 
L 2194 1759 
z
M 3341 1997 
L 3341 0 
L 2766 0 
L 2766 531 
Q 2569 213 2275 61 
Q 1981 -91 1556 -91 
Q 1019 -91 701 211 
Q 384 513 384 1019 
Q 384 1609 779 1909 
Q 1175 2209 1959 2209 
L 2766 2209 
L 2766 2266 
Q 2766 2663 2505 2880 
Q 2244 3097 1772 3097 
Q 1472 3097 1187 3025 
Q 903 2953 641 2809 
L 641 3341 
Q 956 3463 1253 3523 
Q 1550 3584 1831 3584 
Q 2591 3584 2966 3190 
Q 3341 2797 3341 1997 
z
" transform="scale(0.015625)"/>
       <path id="DejaVuSans-6c" d="M 603 4863 
L 1178 4863 
L 1178 0 
L 603 0 
L 603 4863 
z
" transform="scale(0.015625)"/>
       <path id="DejaVuSans-75" d="M 544 1381 
L 544 3500 
L 1119 3500 
L 1119 1403 
Q 1119 906 1312 657 
Q 1506 409 1894 409 
Q 2359 409 2629 706 
Q 2900 1003 2900 1516 
L 2900 3500 
L 3475 3500 
L 3475 0 
L 2900 0 
L 2900 538 
Q 2691 219 2414 64 
Q 2138 -91 1772 -91 
Q 1169 -91 856 284 
Q 544 659 544 1381 
z
M 1991 3584 
L 1991 3584 
z
" transform="scale(0.015625)"/>
      </defs>
      <use xlink:href="#DejaVuSans-58"/>
      <use xlink:href="#DejaVuSans-2d" x="63.505859"/>
      <use xlink:href="#DejaVuSans-41" x="97.339844"/>
      <use xlink:href="#DejaVuSans-78" x="165.748047"/>
      <use xlink:href="#DejaVuSans-69" x="224.927734"/>
      <use xlink:href="#DejaVuSans-73" x="252.710938"/>
      <use xlink:href="#DejaVuSans-20" x="304.810547"/>
      <use xlink:href="#DejaVuSans-56" x="336.597656"/>
      <use xlink:href="#DejaVuSans-61" x="397.255859"/>
      <use xlink:href="#DejaVuSans-6c" x="458.535156"/>
      <use xlink:href="#DejaVuSans-75" x="486.318359"/>
      <use xlink:href="#DejaVuSans-65" x="549.697266"/>
     </g>
    </g>
   </g>
   <g id="line2d_12">
    <path d="M 56.18 64.580364 
L 56.34838 64.580364 
L 56.516759 65.060545 
L 56.685139 64.580364 
L 63.251942 64.580364 
L 63.420322 65.060545 
L 63.588701 64.580364 
L 72.17606 64.580364 
L 72.344439 65.060545 
L 72.512819 64.580364 
L 72.681198 64.580364 
L 72.849578 65.060545 
L 73.017957 64.580364 
L 79.75314 64.580364 
L 79.92152 65.060545 
L 80.0899 64.580364 
L 87.83536 64.580364 
L 88.00374 65.060545 
L 88.677258 65.060545 
L 88.845637 64.580364 
L 89.014017 65.060545 
L 89.855915 65.060545 
L 90.024294 64.580364 
L 90.192674 65.060545 
L 97.601375 65.060545 
L 97.938134 66.020909 
L 98.106514 66.020909 
L 98.274894 66.501091 
L 98.443273 66.501091 
L 98.611653 66.981273 
L 98.948412 66.981273 
L 99.116791 67.461455 
L 99.285171 67.461455 
L 99.453551 67.941636 
L 99.62193 67.941636 
L 99.79031 68.421818 
L 100.295448 68.421818 
L 100.463828 68.902 
L 101.137346 68.902 
L 101.474105 69.862364 
L 102.147624 69.862364 
L 102.316003 69.382182 
L 102.484383 69.382182 
L 102.652763 69.862364 
L 105.178456 69.862364 
L 105.346836 69.382182 
L 105.515215 69.862364 
L 106.357113 69.862364 
L 106.525493 69.382182 
L 106.693872 69.862364 
L 108.209288 69.862364 
L 108.377668 69.382182 
L 108.546048 69.862364 
L 110.398223 69.862364 
L 110.566603 69.382182 
L 110.734982 69.382182 
L 110.903362 69.862364 
L 111.071741 69.382182 
L 111.240121 69.862364 
L 111.4085 69.382182 
L 111.74526 69.382182 
L 111.913639 69.862364 
L 113.597435 69.862364 
L 113.765814 69.382182 
L 113.934194 69.862364 
L 114.102574 69.382182 
L 114.270953 69.862364 
L 116.291508 69.862364 
L 116.459888 69.382182 
L 116.628267 69.862364 
L 117.301785 69.862364 
L 117.470165 69.382182 
L 117.638545 69.862364 
L 119.153961 69.862364 
L 119.32234 69.382182 
L 119.49072 69.862364 
L 120.500997 69.862364 
L 120.669377 69.382182 
L 120.837757 69.862364 
L 121.006136 69.382182 
L 121.174516 69.382182 
L 121.342895 69.862364 
L 123.868589 69.862364 
L 124.036968 69.382182 
L 124.373728 69.382182 
L 124.542107 69.862364 
L 124.710487 69.862364 
L 124.878866 69.382182 
L 128.583217 69.382182 
L 128.751597 68.902 
L 128.919976 67.941636 
L 129.256735 67.941636 
L 129.425115 67.461455 
L 129.930254 67.461455 
L 130.098633 66.981273 
L 132.287568 66.981273 
L 132.455947 66.501091 
L 132.624327 66.981273 
L 133.129465 66.981273 
L 133.297845 66.501091 
L 133.466225 66.981273 
L 133.634604 66.981273 
L 133.802984 66.501091 
L 133.971363 66.501091 
L 134.139743 66.981273 
L 134.476502 66.981273 
L 134.644882 66.501091 
L 134.813261 66.981273 
L 135.48678 66.981273 
L 135.655159 66.501091 
L 135.823539 66.981273 
L 135.991918 66.981273 
L 136.160298 66.501091 
L 137.170575 66.501091 
L 137.338955 66.981273 
L 137.507334 66.501091 
L 137.675714 66.501091 
L 137.844094 66.981273 
L 138.012473 66.501091 
L 138.517612 66.501091 
L 138.685991 66.981273 
L 138.854371 66.501091 
L 140.033028 66.501091 
L 140.201408 66.981273 
L 140.369787 66.501091 
L 141.043305 66.501091 
L 141.211685 66.020909 
L 141.380065 66.020909 
L 141.548444 65.540727 
L 141.716824 65.540727 
L 141.885203 65.060545 
L 144.410897 65.060545 
L 144.579277 64.580364 
L 144.916036 64.580364 
L 145.084415 63.62 
L 145.252795 63.62 
L 145.589554 62.179455 
L 146.263072 60.258727 
L 147.10497 55.937091 
L 147.27335 55.456909 
L 147.778488 53.056 
L 147.946868 52.575818 
L 148.283627 51.135273 
L 149.462284 47.774 
L 149.799043 45.853273 
L 149.967423 45.853273 
L 150.304182 42.492 
L 150.472562 42.011818 
L 151.314459 32.888364 
L 151.482839 32.408182 
L 151.651219 32.888364 
L 151.819598 32.408182 
L 152.829876 32.408182 
L 152.998255 31.928 
L 153.166635 32.408182 
L 154.008533 32.408182 
L 154.176912 31.928 
L 154.345292 32.408182 
L 156.365847 32.408182 
L 156.534226 31.928 
L 156.702606 32.408182 
L 169.162694 32.408182 
L 169.331074 31.928 
L 169.499454 32.408182 
L 173.708943 32.408182 
L 173.877322 32.888364 
L 174.214082 32.888364 
L 174.382461 33.368545 
L 174.550841 34.328909 
L 174.8876 38.650545 
L 175.561118 50.174909 
L 176.403016 60.738909 
L 177.076534 64.580364 
L 177.581673 64.580364 
L 177.750053 65.060545 
L 179.265469 65.060545 
L 179.433848 65.540727 
L 179.602228 65.060545 
L 180.107367 65.060545 
L 180.275746 65.540727 
L 188.021207 65.540727 
L 188.189586 65.060545 
L 189.031484 65.060545 
L 189.199864 64.580364 
L 191.557178 64.580364 
L 191.725557 64.100182 
L 191.893937 64.100182 
L 192.062316 63.62 
L 192.399076 63.62 
L 192.904214 62.179455 
L 193.746112 56.897455 
L 195.429908 42.492 
L 195.598288 42.011818 
L 196.103426 37.21 
L 196.271806 36.249636 
L 197.282083 25.685636 
L 199.807777 25.685636 
L 199.976156 25.205455 
L 200.144536 25.205455 
L 200.312916 25.685636 
L 200.818054 25.685636 
L 200.986434 25.205455 
L 201.154813 25.205455 
L 201.323193 25.685636 
L 201.996711 25.685636 
L 202.165091 25.205455 
L 202.333471 25.685636 
L 202.50185 25.205455 
L 202.67023 25.205455 
L 202.838609 25.685636 
L 203.175368 25.685636 
L 203.343748 25.205455 
L 203.680507 25.205455 
L 203.848887 25.685636 
L 204.017266 25.205455 
L 205.195923 25.205455 
L 205.364303 25.685636 
L 205.701062 25.685636 
L 205.869442 25.205455 
L 206.206201 25.205455 
L 206.37458 25.685636 
L 206.54296 25.685636 
L 206.711339 25.205455 
L 208.900274 25.205455 
L 209.068653 25.685636 
L 209.237033 25.205455 
L 209.910551 25.205455 
L 210.078931 25.685636 
L 210.247311 25.205455 
L 210.41569 25.685636 
L 210.58407 25.205455 
L 210.752449 25.205455 
L 210.920829 25.685636 
L 211.089208 25.205455 
L 214.28842 25.205455 
L 214.4568 25.685636 
L 214.961939 25.685636 
L 215.803836 28.086545 
L 216.308975 32.888364 
L 217.150873 43.452364 
L 217.992771 52.095636 
L 219.339808 63.62 
L 219.676567 64.580364 
L 220.181705 64.580364 
L 220.350085 65.060545 
L 221.191983 65.060545 
L 221.360362 65.540727 
L 221.528742 65.060545 
L 221.697122 65.540727 
L 230.452859 65.540727 
L 230.621239 65.060545 
L 231.968276 65.060545 
L 232.136655 64.580364 
L 233.146933 64.580364 
L 233.315312 64.100182 
L 233.652071 64.100182 
L 233.820451 63.62 
L 233.98883 62.659636 
L 234.15721 62.659636 
L 234.32559 62.179455 
L 234.493969 62.179455 
L 234.999108 60.738909 
L 235.504247 57.377636 
L 236.009385 53.536182 
L 236.851283 49.214545 
L 237.019663 48.734364 
L 238.19832 41.531636 
L 238.366699 40.091091 
L 238.535079 39.610909 
L 239.376977 34.328909 
L 239.545356 32.888364 
L 239.713736 30.007273 
L 239.882116 30.007273 
L 240.050495 29.527091 
L 240.218875 30.007273 
L 240.387254 29.527091 
L 240.555634 29.527091 
L 240.724013 30.007273 
L 240.892393 30.007273 
L 241.060773 29.527091 
L 242.912948 29.527091 
L 243.081327 30.007273 
L 243.249707 29.527091 
L 243.923225 29.527091 
L 244.091605 30.007273 
L 244.259985 29.527091 
L 259.750905 29.527091 
L 259.919285 30.007273 
L 260.087664 30.967636 
L 261.603081 51.135273 
L 262.108219 53.536182 
L 262.276599 54.016364 
L 263.455256 61.219091 
L 263.792015 63.62 
L 263.960395 63.62 
L 264.128774 64.100182 
L 264.633913 64.100182 
L 264.802293 64.580364 
L 265.139052 64.580364 
L 265.307431 65.060545 
L 266.822847 65.060545 
L 266.991227 65.540727 
L 267.159607 65.060545 
L 278.104279 65.060545 
L 278.272659 64.580364 
L 279.788075 64.580364 
L 279.956454 64.100182 
L 280.293213 64.100182 
L 280.461593 63.62 
L 280.629973 64.100182 
L 280.798352 63.62 
L 281.303491 63.62 
L 281.64025 62.659636 
L 281.80863 62.659636 
L 282.145389 61.699273 
L 282.313768 61.699273 
L 282.650527 60.738909 
L 300.498762 60.738909 
L 300.667142 60.258727 
L 300.835521 60.738909 
L 305.38177 60.738909 
L 306.223668 63.139818 
L 306.392047 64.100182 
L 306.560427 64.100182 
L 306.728807 64.580364 
L 306.897186 64.580364 
L 307.065566 64.100182 
L 307.233945 64.580364 
L 308.412602 64.580364 
L 308.580982 65.060545 
L 314.979406 65.060545 
L 315.147785 64.580364 
L 315.316165 65.060545 
L 316.999961 65.060545 
L 317.16834 65.540727 
L 317.33672 65.540727 
L 317.505099 66.020909 
L 318.852136 66.020909 
L 319.020516 66.501091 
L 319.188895 66.501091 
L 319.525654 67.461455 
L 320.030793 70.342545 
L 320.199173 70.342545 
L 321.20945 75.624545 
L 321.37783 75.624545 
L 321.714589 76.584909 
L 321.882968 76.584909 
L 322.051348 77.065091 
L 322.388107 78.505636 
L 322.556487 78.505636 
L 322.893246 79.466 
L 323.061625 80.426364 
L 323.230005 80.426364 
L 323.398384 81.386727 
L 323.566764 81.386727 
L 324.071903 82.827273 
L 325.08218 88.589455 
L 325.587319 93.871455 
L 325.755698 94.351636 
L 347.139904 94.351636 
L 347.308284 93.871455 
L 347.645043 90.510182 
L 347.981802 87.629091 
L 348.486941 84.267818 
L 348.99208 80.426364 
L 349.833978 75.144364 
L 350.675875 68.421818 
L 351.012635 66.501091 
L 351.686153 66.501091 
L 351.854533 66.020909 
L 352.69643 66.020909 
L 352.86481 66.501091 
L 353.201569 66.501091 
L 353.369949 66.020909 
L 353.538328 66.020909 
L 353.706708 66.501091 
L 353.875087 66.020909 
L 357.074299 66.020909 
L 357.242679 66.501091 
L 357.411058 66.020909 
L 362.125687 66.020909 
L 362.294066 66.501091 
L 362.462446 66.020909 
L 362.630825 66.020909 
L 362.799205 66.501091 
L 362.967584 66.501091 
L 363.135964 66.020909 
L 363.304344 66.501091 
L 363.977862 66.501091 
L 364.146241 66.981273 
L 364.314621 66.981273 
L 364.483001 67.461455 
L 364.65138 67.461455 
L 365.156519 69.862364 
L 365.324898 70.342545 
L 365.493278 71.302909 
L 365.830037 74.184 
L 366.166796 76.584909 
L 367.682212 85.708364 
L 368.018972 88.109273 
L 368.52411 91.470545 
L 369.197629 96.752545 
L 369.366008 97.712909 
L 369.871147 104.435455 
L 370.039527 106.836364 
L 387.551002 106.836364 
L 387.719382 106.356182 
L 388.898039 106.356182 
L 389.066418 105.876 
L 389.403178 105.876 
L 389.571557 105.395818 
L 389.739937 105.395818 
L 389.908316 104.915636 
L 390.245075 102.514727 
L 390.413455 101.074182 
L 390.918594 94.351636 
L 391.086973 93.391273 
L 391.592112 87.629091 
L 392.602389 79.466 
L 393.107528 76.104727 
L 394.117806 67.941636 
L 394.286185 67.461455 
L 394.454565 66.501091 
L 394.791324 66.501091 
L 394.959704 66.020909 
L 395.128083 66.020909 
L 395.464842 65.060545 
L 395.969981 65.060545 
L 396.138361 64.580364 
L 397.653777 64.580364 
L 397.822156 65.060545 
L 397.990536 64.580364 
L 400.852989 64.580364 
L 401.021368 65.060545 
L 401.189748 64.580364 
L 403.210303 64.580364 
L 403.378682 65.060545 
L 403.547062 64.580364 
L 403.715441 64.580364 
L 403.883821 65.060545 
L 404.894098 65.060545 
L 405.062478 65.540727 
L 405.230858 65.540727 
L 405.399237 66.020909 
L 407.588172 66.020909 
L 407.756551 66.501091 
L 408.935208 66.501091 
L 409.777106 68.902 
L 410.113865 70.342545 
L 410.282245 70.822727 
L 411.460902 77.065091 
L 411.629281 77.545273 
L 412.3028 80.906545 
L 412.807938 82.347091 
L 413.313077 84.748 
L 413.481457 85.228182 
L 414.996873 94.351636 
L 415.333632 99.153455 
L 415.502012 99.633636 
L 415.670391 99.633636 
L 415.838771 99.153455 
L 416.00715 99.633636 
L 433.855385 99.633636 
L 434.023765 99.153455 
L 434.192144 99.633636 
L 435.707561 99.633636 
L 435.87594 99.153455 
L 436.04432 99.633636 
L 436.212699 99.153455 
L 436.549458 99.153455 
L 436.717838 99.633636 
L 436.886218 99.633636 
L 437.054597 99.153455 
L 437.559736 99.153455 
L 437.728115 99.633636 
L 437.896495 99.153455 
L 438.064875 99.153455 
L 438.233254 99.633636 
L 438.401634 99.633636 
L 438.570013 99.153455 
L 438.906772 99.153455 
L 439.075152 99.633636 
L 439.243532 99.153455 
L 439.74867 99.153455 
L 439.91705 99.633636 
L 440.085429 99.633636 
L 440.253809 99.153455 
L 440.927327 99.153455 
L 441.095707 99.633636 
L 441.264086 99.633636 
L 441.432466 99.153455 
L 441.600846 99.633636 
L 441.769225 99.633636 
L 441.937605 99.153455 
L 442.442743 99.153455 
L 442.611123 99.633636 
L 442.779503 99.153455 
L 442.947882 99.633636 
L 443.116262 99.153455 
L 443.284641 99.153455 
L 443.453021 99.633636 
L 443.621401 99.153455 
L 443.78978 99.633636 
L 443.95816 99.153455 
L 444.463298 99.153455 
L 444.631678 99.633636 
L 444.800058 99.153455 
L 445.810335 99.153455 
L 445.978715 99.633636 
L 446.147094 99.153455 
L 446.315474 99.633636 
L 446.483853 99.153455 
L 447.157372 99.153455 
L 447.325751 99.633636 
L 447.494131 99.153455 
L 448.336029 99.153455 
L 448.672788 96.752545 
L 449.514686 81.386727 
L 450.019824 75.144364 
L 450.693343 71.783091 
L 450.861722 71.302909 
L 451.030102 71.302909 
L 451.198481 70.822727 
L 451.53524 69.382182 
L 451.70362 69.382182 
L 452.208759 66.981273 
L 452.377138 66.501091 
L 452.713898 65.060545 
L 453.219036 65.060545 
L 453.387416 64.580364 
L 453.555795 65.060545 
L 453.724175 64.580364 
L 453.892555 64.580364 
L 454.060934 65.060545 
L 454.229314 64.580364 
L 455.913109 64.580364 
L 456.081489 65.060545 
L 456.249869 64.580364 
L 467.868059 64.580364 
L 468.036439 65.060545 
L 468.204818 64.580364 
L 470.730512 64.580364 
L 470.898892 65.060545 
L 471.067271 64.580364 
L 476.118658 64.580364 
L 476.287038 65.060545 
L 476.455417 64.580364 
L 476.792177 64.580364 
L 476.960556 65.060545 
L 477.128936 64.580364 
L 478.981111 64.580364 
L 478.981111 64.580364 
" clip-path="url(#p9889da0201)" style="fill: none; stroke: #1f77b4; stroke-width: 1.5; stroke-linecap: square"/>
   </g>
   <g id="line2d_13">
    <path d="M 56.18 63.62 
L 478.981111 63.62 
" clip-path="url(#p9889da0201)" style="fill: none; stroke-dasharray: 2.96,1.28; stroke-dashoffset: 0; stroke: #808080; stroke-width: 0.8"/>
   </g>
   <g id="patch_3">
    <path d="M 56.18 116.44 
L 56.18 10.8 
" style="fill: none; stroke: #000000; stroke-width: 0.8; stroke-linejoin: miter; stroke-linecap: square"/>
   </g>
   <g id="patch_4">
    <path d="M 56.18 116.44 
L 478.981111 116.44 
" style="fill: none; stroke: #000000; stroke-width: 0.8; stroke-linejoin: miter; stroke-linecap: square"/>
   </g>
  </g>
  <g id="axes_2">
   <g id="patch_5">
    <path d="M 56.18 264.04 
L 478.981111 264.04 
L 478.981111 158.4 
L 56.18 158.4 
z
" style="fill: #ffffff"/>
   </g>
   <g id="matplotlib.axis_3">
    <g id="xtick_7">
     <g id="line2d_14">
      <g>
       <use xlink:href="#m18fbb630ff" x="56.18" y="264.04" style="stroke: #000000; stroke-width: 0.8"/>
      </g>
     </g>
     <g id="text_14">
      <!-- 0 -->
      <g transform="translate(52.99875 278.638438) scale(0.1 -0.1)">
       <use xlink:href="#DejaVuSans-30"/>
      </g>
     </g>
    </g>
    <g id="xtick_8">
     <g id="line2d_15">
      <g>
       <use xlink:href="#m18fbb630ff" x="140.369787" y="264.04" style="stroke: #000000; stroke-width: 0.8"/>
      </g>
     </g>
     <g id="text_15">
      <!-- 5000 -->
      <g transform="translate(127.644787 278.638438) scale(0.1 -0.1)">
       <use xlink:href="#DejaVuSans-35"/>
       <use xlink:href="#DejaVuSans-30" x="63.623047"/>
       <use xlink:href="#DejaVuSans-30" x="127.246094"/>
       <use xlink:href="#DejaVuSans-30" x="190.869141"/>
      </g>
     </g>
    </g>
    <g id="xtick_9">
     <g id="line2d_16">
      <g>
       <use xlink:href="#m18fbb630ff" x="224.559574" y="264.04" style="stroke: #000000; stroke-width: 0.8"/>
      </g>
     </g>
     <g id="text_16">
      <!-- 10000 -->
      <g transform="translate(208.653324 278.638438) scale(0.1 -0.1)">
       <use xlink:href="#DejaVuSans-31"/>
       <use xlink:href="#DejaVuSans-30" x="63.623047"/>
       <use xlink:href="#DejaVuSans-30" x="127.246094"/>
       <use xlink:href="#DejaVuSans-30" x="190.869141"/>
       <use xlink:href="#DejaVuSans-30" x="254.492188"/>
      </g>
     </g>
    </g>
    <g id="xtick_10">
     <g id="line2d_17">
      <g>
       <use xlink:href="#m18fbb630ff" x="308.749361" y="264.04" style="stroke: #000000; stroke-width: 0.8"/>
      </g>
     </g>
     <g id="text_17">
      <!-- 15000 -->
      <g transform="translate(292.843111 278.638438) scale(0.1 -0.1)">
       <use xlink:href="#DejaVuSans-31"/>
       <use xlink:href="#DejaVuSans-35" x="63.623047"/>
       <use xlink:href="#DejaVuSans-30" x="127.246094"/>
       <use xlink:href="#DejaVuSans-30" x="190.869141"/>
       <use xlink:href="#DejaVuSans-30" x="254.492188"/>
      </g>
     </g>
    </g>
    <g id="xtick_11">
     <g id="line2d_18">
      <g>
       <use xlink:href="#m18fbb630ff" x="392.939149" y="264.04" style="stroke: #000000; stroke-width: 0.8"/>
      </g>
     </g>
     <g id="text_18">
      <!-- 20000 -->
      <g transform="translate(377.032899 278.638438) scale(0.1 -0.1)">
       <use xlink:href="#DejaVuSans-32"/>
       <use xlink:href="#DejaVuSans-30" x="63.623047"/>
       <use xlink:href="#DejaVuSans-30" x="127.246094"/>
       <use xlink:href="#DejaVuSans-30" x="190.869141"/>
       <use xlink:href="#DejaVuSans-30" x="254.492188"/>
      </g>
     </g>
    </g>
    <g id="xtick_12">
     <g id="line2d_19">
      <g>
       <use xlink:href="#m18fbb630ff" x="477.128936" y="264.04" style="stroke: #000000; stroke-width: 0.8"/>
      </g>
     </g>
     <g id="text_19">
      <!-- 25000 -->
      <g transform="translate(461.222686 278.638438) scale(0.1 -0.1)">
       <use xlink:href="#DejaVuSans-32"/>
       <use xlink:href="#DejaVuSans-35" x="63.623047"/>
       <use xlink:href="#DejaVuSans-30" x="127.246094"/>
       <use xlink:href="#DejaVuSans-30" x="190.869141"/>
       <use xlink:href="#DejaVuSans-30" x="254.492188"/>
      </g>
     </g>
    </g>
    <g id="text_20">
     <!-- Time (ms) -->
     <g transform="translate(242.381337 292.316563) scale(0.1 -0.1)">
      <use xlink:href="#DejaVuSans-54"/>
      <use xlink:href="#DejaVuSans-69" x="57.958984"/>
      <use xlink:href="#DejaVuSans-6d" x="85.742188"/>
      <use xlink:href="#DejaVuSans-65" x="183.154297"/>
      <use xlink:href="#DejaVuSans-20" x="244.677734"/>
      <use xlink:href="#DejaVuSans-28" x="276.464844"/>
      <use xlink:href="#DejaVuSans-6d" x="315.478516"/>
      <use xlink:href="#DejaVuSans-73" x="412.890625"/>
      <use xlink:href="#DejaVuSans-29" x="464.990234"/>
     </g>
    </g>
   </g>
   <g id="matplotlib.axis_4">
    <g id="ytick_6">
     <g id="line2d_20">
      <g>
       <use xlink:href="#m9e4d00fa84" x="56.18" y="259.238182" style="stroke: #000000; stroke-width: 0.8"/>
      </g>
     </g>
     <g id="text_21">
      <!-- −1.0 -->
      <g transform="translate(24.897188 263.037401) scale(0.1 -0.1)">
       <use xlink:href="#DejaVuSans-2212"/>
       <use xlink:href="#DejaVuSans-31" x="83.789062"/>
       <use xlink:href="#DejaVuSans-2e" x="147.412109"/>
       <use xlink:href="#DejaVuSans-30" x="179.199219"/>
      </g>
     </g>
    </g>
    <g id="ytick_7">
     <g id="line2d_21">
      <g>
       <use xlink:href="#m9e4d00fa84" x="56.18" y="235.229091" style="stroke: #000000; stroke-width: 0.8"/>
      </g>
     </g>
     <g id="text_22">
      <!-- −0.5 -->
      <g transform="translate(24.897188 239.02831) scale(0.1 -0.1)">
       <use xlink:href="#DejaVuSans-2212"/>
       <use xlink:href="#DejaVuSans-30" x="83.789062"/>
       <use xlink:href="#DejaVuSans-2e" x="147.412109"/>
       <use xlink:href="#DejaVuSans-35" x="179.199219"/>
      </g>
     </g>
    </g>
    <g id="ytick_8">
     <g id="line2d_22">
      <g>
       <use xlink:href="#m9e4d00fa84" x="56.18" y="211.22" style="stroke: #000000; stroke-width: 0.8"/>
      </g>
     </g>
     <g id="text_23">
      <!-- 0.0 -->
      <g transform="translate(33.276875 215.019219) scale(0.1 -0.1)">
       <use xlink:href="#DejaVuSans-30"/>
       <use xlink:href="#DejaVuSans-2e" x="63.623047"/>
       <use xlink:href="#DejaVuSans-30" x="95.410156"/>
      </g>
     </g>
    </g>
    <g id="ytick_9">
     <g id="line2d_23">
      <g>
       <use xlink:href="#m9e4d00fa84" x="56.18" y="187.210909" style="stroke: #000000; stroke-width: 0.8"/>
      </g>
     </g>
     <g id="text_24">
      <!-- 0.5 -->
      <g transform="translate(33.276875 191.010128) scale(0.1 -0.1)">
       <use xlink:href="#DejaVuSans-30"/>
       <use xlink:href="#DejaVuSans-2e" x="63.623047"/>
       <use xlink:href="#DejaVuSans-35" x="95.410156"/>
      </g>
     </g>
    </g>
    <g id="ytick_10">
     <g id="line2d_24">
      <g>
       <use xlink:href="#m9e4d00fa84" x="56.18" y="163.201818" style="stroke: #000000; stroke-width: 0.8"/>
      </g>
     </g>
     <g id="text_25">
      <!-- 1.0 -->
      <g transform="translate(33.276875 167.001037) scale(0.1 -0.1)">
       <use xlink:href="#DejaVuSans-31"/>
       <use xlink:href="#DejaVuSans-2e" x="63.623047"/>
       <use xlink:href="#DejaVuSans-30" x="95.410156"/>
      </g>
     </g>
    </g>
    <g id="text_26">
     <!-- Y-Axis Value -->
     <g transform="translate(18.8175 241.065313) rotate(-90) scale(0.1 -0.1)">
      <defs>
       <path id="DejaVuSans-59" d="M -13 4666 
L 666 4666 
L 1959 2747 
L 3244 4666 
L 3922 4666 
L 2272 2222 
L 2272 0 
L 1638 0 
L 1638 2222 
L -13 4666 
z
" transform="scale(0.015625)"/>
      </defs>
      <use xlink:href="#DejaVuSans-59"/>
      <use xlink:href="#DejaVuSans-2d" x="49.208984"/>
      <use xlink:href="#DejaVuSans-41" x="83.042969"/>
      <use xlink:href="#DejaVuSans-78" x="151.451172"/>
      <use xlink:href="#DejaVuSans-69" x="210.630859"/>
      <use xlink:href="#DejaVuSans-73" x="238.414062"/>
      <use xlink:href="#DejaVuSans-20" x="290.513672"/>
      <use xlink:href="#DejaVuSans-56" x="322.300781"/>
      <use xlink:href="#DejaVuSans-61" x="382.958984"/>
      <use xlink:href="#DejaVuSans-6c" x="444.238281"/>
      <use xlink:href="#DejaVuSans-75" x="472.021484"/>
      <use xlink:href="#DejaVuSans-65" x="535.400391"/>
     </g>
    </g>
   </g>
   <g id="line2d_25">
    <path d="M 56.18 210.259636 
L 88.00374 210.259636 
L 88.172119 209.779455 
L 88.340499 210.259636 
L 88.677258 210.259636 
L 88.845637 209.779455 
L 89.014017 210.259636 
L 89.182397 210.259636 
L 89.350776 209.779455 
L 89.687535 209.779455 
L 89.855915 210.259636 
L 90.024294 209.779455 
L 95.075682 209.779455 
L 95.244061 209.299273 
L 95.412441 209.299273 
L 95.7492 208.338909 
L 95.91758 208.338909 
L 96.085959 207.858727 
L 96.254339 207.858727 
L 96.591098 206.898364 
L 96.927857 204.017273 
L 98.274894 192.492909 
L 98.443273 192.012727 
L 98.948412 189.611818 
L 99.285171 188.651455 
L 100.127069 183.369455 
L 100.800587 177.127091 
L 101.474105 168.964 
L 103.49466 168.964 
L 103.66304 168.483818 
L 103.83142 168.964 
L 103.999799 168.483818 
L 104.168179 168.964 
L 104.673317 168.964 
L 104.841697 168.483818 
L 105.010077 168.964 
L 105.178456 168.964 
L 105.346836 168.483818 
L 105.515215 168.964 
L 105.683595 168.964 
L 105.851974 168.483818 
L 106.020354 168.964 
L 106.525493 168.964 
L 106.693872 168.483818 
L 106.862252 168.964 
L 107.030631 168.483818 
L 107.199011 168.964 
L 107.367391 168.483818 
L 107.53577 168.483818 
L 107.70415 168.964 
L 107.872529 168.483818 
L 108.209288 168.483818 
L 108.377668 168.964 
L 108.546048 168.483818 
L 109.219566 168.483818 
L 109.387945 168.964 
L 109.556325 168.964 
L 109.724705 168.483818 
L 109.893084 168.964 
L 110.061464 168.483818 
L 110.903362 168.483818 
L 111.071741 168.964 
L 111.240121 168.483818 
L 111.4085 168.483818 
L 111.57688 168.964 
L 111.74526 168.483818 
L 120.669377 168.483818 
L 120.837757 168.964 
L 121.006136 168.483818 
L 124.205348 168.483818 
L 124.373728 168.964 
L 124.542107 168.483818 
L 124.710487 168.964 
L 125.047246 168.964 
L 125.384005 172.325273 
L 126.057523 182.409091 
L 127.741319 200.656 
L 128.078078 203.056909 
L 128.414837 205.457818 
L 128.751597 206.898364 
L 129.593494 209.299273 
L 130.098633 209.299273 
L 130.267013 209.779455 
L 133.971363 209.779455 
L 134.139743 210.259636 
L 134.308122 209.779455 
L 134.476502 209.779455 
L 134.644882 210.259636 
L 134.813261 209.779455 
L 135.3184 209.779455 
L 135.48678 210.259636 
L 135.655159 209.779455 
L 137.507334 209.779455 
L 137.675714 210.259636 
L 137.844094 209.779455 
L 141.211685 209.779455 
L 141.380065 210.259636 
L 141.548444 209.779455 
L 141.716824 209.779455 
L 141.885203 210.259636 
L 142.053583 209.779455 
L 142.221962 210.739818 
L 142.558722 209.779455 
L 144.410897 209.779455 
L 144.579277 209.299273 
L 144.747656 209.299273 
L 145.084415 207.858727 
L 145.252795 207.378545 
L 145.421174 207.378545 
L 145.926313 205.938 
L 147.441729 197.774909 
L 147.610109 197.294727 
L 147.778488 196.334364 
L 147.946868 196.334364 
L 148.620386 194.413636 
L 148.788766 194.413636 
L 149.125525 192.973091 
L 149.293905 192.973091 
L 149.462284 192.492909 
L 149.967423 190.092 
L 150.135802 189.611818 
L 150.809321 185.290182 
L 150.9777 183.849636 
L 151.14608 180.968545 
L 151.314459 180.488364 
L 174.71922 180.488364 
L 174.8876 181.928909 
L 176.739775 206.898364 
L 176.908155 207.858727 
L 177.076534 207.858727 
L 177.244914 208.338909 
L 177.750053 208.338909 
L 177.918432 208.819091 
L 179.265469 208.819091 
L 179.433848 209.299273 
L 181.791162 209.299273 
L 181.959542 209.779455 
L 195.093149 209.779455 
L 195.429908 208.819091 
L 195.766667 207.378545 
L 195.935047 207.858727 
L 196.103426 207.378545 
L 213.783282 207.378545 
L 213.951661 206.898364 
L 214.28842 206.898364 
L 214.4568 206.418182 
L 214.625179 206.418182 
L 215.298698 204.497455 
L 215.803836 204.497455 
L 215.972216 204.017273 
L 218.16115 204.017273 
L 218.32953 204.497455 
L 218.49791 204.497455 
L 219.003048 206.898364 
L 219.508187 208.338909 
L 230.452859 208.338909 
L 230.621239 209.299273 
L 230.789619 208.819091 
L 231.294757 208.819091 
L 231.463137 209.299273 
L 232.136655 209.299273 
L 232.305035 209.779455 
L 233.652071 209.779455 
L 233.820451 210.259636 
L 234.15721 210.259636 
L 234.32559 210.739818 
L 234.493969 210.739818 
L 234.662349 211.22 
L 234.830728 211.22 
L 234.999108 211.700182 
L 235.335867 211.700182 
L 235.672626 213.140727 
L 237.356422 217.942545 
L 238.871838 226.105636 
L 239.040218 226.585818 
L 239.545356 229.947091 
L 239.713736 231.867818 
L 240.218875 233.308364 
L 240.724013 233.308364 
L 240.892393 233.788545 
L 241.229152 233.788545 
L 241.397532 234.268727 
L 258.403869 234.268727 
L 258.572248 233.788545 
L 258.740628 233.788545 
L 258.909007 233.308364 
L 259.077387 233.308364 
L 259.582526 231.867818 
L 260.256044 227.546182 
L 260.929562 220.823636 
L 261.77146 216.502 
L 261.93984 216.021818 
L 262.108219 216.021818 
L 262.276599 215.541636 
L 262.444979 215.541636 
L 262.613358 215.061455 
L 262.781738 215.061455 
L 263.286876 213.620909 
L 263.455256 212.180364 
L 263.623636 211.700182 
L 264.128774 211.700182 
L 264.297154 211.22 
L 264.465533 211.22 
L 264.633913 210.739818 
L 264.802293 210.739818 
L 264.970672 210.259636 
L 265.307431 210.259636 
L 265.475811 209.779455 
L 274.231549 209.779455 
L 274.399928 210.259636 
L 275.410206 210.259636 
L 275.578585 210.739818 
L 277.094002 210.739818 
L 277.262381 211.22 
L 277.76752 211.22 
L 277.935899 211.700182 
L 278.272659 211.700182 
L 278.946177 215.061455 
L 279.114556 215.541636 
L 280.293213 222.744364 
L 280.966732 228.026364 
L 281.135111 228.986727 
L 282.818907 248.674182 
L 283.155666 255.396727 
L 287.028396 255.396727 
L 287.196776 255.876909 
L 287.533535 255.876909 
L 287.701915 255.396727 
L 287.870294 255.876909 
L 288.038674 255.396727 
L 288.207053 255.876909 
L 300.667142 255.876909 
L 300.835521 256.357091 
L 301.172281 256.357091 
L 301.34066 255.876909 
L 301.50904 256.357091 
L 301.677419 256.357091 
L 301.845799 255.396727 
L 302.014179 255.396727 
L 302.519317 252.035455 
L 303.866354 230.427273 
L 305.045011 220.343455 
L 305.21339 219.863273 
L 305.718529 216.502 
L 306.223668 212.660545 
L 306.560427 211.700182 
L 307.065566 211.700182 
L 307.233945 211.22 
L 307.402325 211.22 
L 307.739084 210.259636 
L 308.075843 210.259636 
L 308.244223 209.779455 
L 318.010238 209.779455 
L 318.178618 210.259636 
L 318.852136 210.259636 
L 319.020516 211.22 
L 319.188895 210.739818 
L 319.525654 211.700182 
L 319.694034 211.700182 
L 320.030793 213.140727 
L 320.199173 213.620909 
L 320.535932 215.061455 
L 321.546209 217.942545 
L 322.051348 220.343455 
L 322.219727 220.823636 
L 322.388107 222.264182 
L 322.556487 222.744364 
L 323.061625 225.145273 
L 323.566764 226.585818 
L 324.408662 231.867818 
L 325.08218 238.110182 
L 325.25056 240.030909 
L 325.418939 243.392182 
L 325.587319 243.872364 
L 345.624488 243.872364 
L 345.792868 243.392182 
L 346.129627 243.392182 
L 346.466386 241.951636 
L 346.634766 241.951636 
L 346.803145 240.511091 
L 346.971525 240.030909 
L 347.476664 236.669636 
L 347.981802 231.867818 
L 348.318561 229.466909 
L 348.8237 225.625455 
L 349.665598 220.343455 
L 350.002357 217.942545 
L 350.675875 213.620909 
L 350.844255 212.180364 
L 351.012635 211.700182 
L 351.854533 211.700182 
L 352.022912 211.22 
L 354.548606 211.22 
L 354.716985 211.700182 
L 354.885365 211.22 
L 361.620548 211.22 
L 361.788927 210.739818 
L 367.682212 210.739818 
L 367.850592 210.259636 
L 369.029249 210.259636 
L 369.197629 209.779455 
L 371.554943 209.779455 
L 371.723322 209.299273 
L 371.891702 209.299273 
L 372.228461 208.338909 
L 372.396841 208.338909 
L 372.56522 207.378545 
L 372.7336 207.858727 
L 372.901979 207.378545 
L 373.575498 207.378545 
L 373.743877 206.898364 
L 373.912257 207.378545 
L 375.932812 207.378545 
L 376.101191 206.898364 
L 376.269571 207.378545 
L 376.43795 206.898364 
L 376.60633 206.898364 
L 376.77471 207.378545 
L 376.943089 206.898364 
L 377.111469 206.898364 
L 377.279848 207.378545 
L 377.616607 207.378545 
L 377.784987 206.898364 
L 377.953367 206.898364 
L 378.121746 207.378545 
L 379.805542 207.378545 
L 379.973921 206.898364 
L 380.142301 207.378545 
L 380.310681 207.378545 
L 380.47906 206.898364 
L 380.64744 206.898364 
L 380.815819 207.378545 
L 380.984199 207.378545 
L 381.152578 206.898364 
L 381.320958 207.378545 
L 381.994476 207.378545 
L 382.162856 206.898364 
L 382.331235 207.378545 
L 382.499615 207.378545 
L 382.667995 206.898364 
L 383.678272 206.898364 
L 383.846652 207.378545 
L 384.015031 206.898364 
L 384.52017 206.898364 
L 384.688549 207.378545 
L 384.856929 206.898364 
L 385.193688 206.898364 
L 385.362068 207.378545 
L 385.530447 206.898364 
L 385.698827 207.378545 
L 385.867207 206.898364 
L 386.709104 206.898364 
L 386.877484 207.378545 
L 387.045864 206.898364 
L 388.56128 206.898364 
L 388.729659 207.378545 
L 388.898039 206.898364 
L 389.234798 206.898364 
L 389.403178 207.378545 
L 389.571557 206.898364 
L 389.739937 207.378545 
L 390.413455 207.378545 
L 390.581835 206.898364 
L 390.918594 206.898364 
L 391.086973 207.378545 
L 391.255353 206.898364 
L 391.423732 207.378545 
L 391.592112 206.898364 
L 391.760492 206.898364 
L 391.928871 207.378545 
L 392.097251 206.898364 
L 392.43401 206.898364 
L 392.602389 207.378545 
L 392.770769 206.898364 
L 392.939149 207.378545 
L 393.107528 207.378545 
L 393.275908 206.898364 
L 393.949426 206.898364 
L 394.117806 207.378545 
L 394.286185 207.378545 
L 394.454565 207.858727 
L 394.791324 207.858727 
L 394.959704 208.338909 
L 395.633222 208.338909 
L 395.801601 208.819091 
L 396.138361 208.819091 
L 396.30674 209.299273 
L 396.47512 209.299273 
L 396.643499 209.779455 
L 397.990536 209.779455 
L 398.158915 210.259636 
L 398.327295 209.779455 
L 407.251412 209.779455 
L 407.419792 210.739818 
L 407.588172 209.779455 
L 408.766829 209.779455 
L 408.935208 209.299273 
L 409.271967 207.858727 
L 409.440347 207.378545 
L 409.608726 207.378545 
L 409.777106 206.898364 
L 409.945486 206.898364 
L 410.282245 205.938 
L 410.619004 204.497455 
L 410.787384 204.497455 
L 411.460902 201.136182 
L 411.797661 200.175818 
L 412.3028 197.774909 
L 412.471179 197.294727 
L 412.639559 196.334364 
L 412.807938 196.334364 
L 413.313077 193.933455 
L 413.649836 192.973091 
L 414.660114 187.691091 
L 414.828493 187.210909 
L 414.996873 186.250545 
L 415.333632 182.409091 
L 415.502012 182.409091 
L 415.670391 181.928909 
L 424.931268 181.928909 
L 425.099647 181.448727 
L 425.268027 181.928909 
L 428.13048 181.928909 
L 428.298859 181.448727 
L 428.467239 181.928909 
L 430.992932 181.928909 
L 431.161312 181.448727 
L 431.329692 181.928909 
L 431.498071 181.448727 
L 431.666451 181.928909 
L 435.539181 181.928909 
L 435.707561 181.448727 
L 435.87594 181.928909 
L 439.411911 181.928909 
L 439.580291 182.409091 
L 448.167649 182.409091 
L 448.336029 182.889273 
L 448.672788 185.290182 
L 449.009547 189.131636 
L 449.683065 194.413636 
L 449.851445 194.893818 
L 450.188204 196.334364 
L 450.356583 196.334364 
L 450.861722 197.774909 
L 451.198481 197.774909 
L 451.366861 198.255091 
L 451.872 200.656 
L 452.040379 201.136182 
L 453.050657 206.418182 
L 453.387416 207.378545 
L 453.555795 207.378545 
L 453.724175 207.858727 
L 454.060934 207.858727 
L 454.229314 208.338909 
L 454.734452 208.338909 
L 454.902832 208.819091 
L 457.091766 208.819091 
L 457.260146 209.299273 
L 478.981111 209.299273 
L 478.981111 209.299273 
" clip-path="url(#pbada0575e3)" style="fill: none; stroke: #1f77b4; stroke-width: 1.5; stroke-linecap: square"/>
   </g>
   <g id="line2d_26">
    <path d="M 56.18 211.22 
L 478.981111 211.22 
" clip-path="url(#pbada0575e3)" style="fill: none; stroke-dasharray: 2.96,1.28; stroke-dashoffset: 0; stroke: #808080; stroke-width: 0.8"/>
   </g>
   <g id="patch_6">
    <path d="M 56.18 264.04 
L 56.18 158.4 
" style="fill: none; stroke: #000000; stroke-width: 0.8; stroke-linejoin: miter; stroke-linecap: square"/>
   </g>
   <g id="patch_7">
    <path d="M 56.18 264.04 
L 478.981111 264.04 
" style="fill: none; stroke: #000000; stroke-width: 0.8; stroke-linejoin: miter; stroke-linecap: square"/>
   </g>
  </g>
 </g>
 <defs>
  <clipPath id="p9889da0201">
   <rect x="56.18" y="10.8" width="422.801111" height="105.64"/>
  </clipPath>
  <clipPath id="pbada0575e3">
   <rect x="56.18" y="158.4" width="422.801111" height="105.64"/>
  </clipPath>
 </defs>
</svg>
