<?xml version="1.0" encoding="utf-8" standalone="no"?>
<!DOCTYPE svg PUBLIC "-//W3C//DTD SVG 1.1//EN"
  "http://www.w3.org/Graphics/SVG/1.1/DTD/svg11.dtd">
<svg xmlns:xlink="http://www.w3.org/1999/xlink" width="504pt" height="306pt" viewBox="0 0 504 306" xmlns="http://www.w3.org/2000/svg" version="1.1">
 <metadata>
  <rdf:RDF xmlns:dc="http://purl.org/dc/elements/1.1/" xmlns:cc="http://creativecommons.org/ns#" xmlns:rdf="http://www.w3.org/1999/02/22-rdf-syntax-ns#">
   <cc:Work>
    <dc:type rdf:resource="http://purl.org/dc/dcmitype/StillImage"/>
    <dc:date>2024-06-16T22:16:44.707754</dc:date>
    <dc:format>image/svg+xml</dc:format>
    <dc:creator>
     <cc:Agent>
      <dc:title>Matplotlib v3.8.3, https://matplotlib.org/</dc:title>
     </cc:Agent>
    </dc:creator>
   </cc:Work>
  </rdf:RDF>
 </metadata>
 <defs>
  <style type="text/css">*{stroke-linejoin: round; stroke-linecap: butt}</style>
 </defs>
 <g id="figure_1">
  <g id="patch_1">
   <path d="M 0 306 
L 504 306 
L 504 0 
L 0 0 
z
" style="fill: #ffffff"/>
  </g>
  <g id="axes_1">
   <g id="patch_2">
    <path d="M 56.18 116.44 
L 493.2 116.44 
L 493.2 10.8 
L 56.18 10.8 
z
" style="fill: #ffffff"/>
   </g>
   <g id="matplotlib.axis_1">
    <g id="xtick_1">
     <g id="line2d_1">
      <defs>
       <path id="mff0e1b0a13" d="M 0 0 
L 0 3.5 
" style="stroke: #000000; stroke-width: 0.8"/>
      </defs>
      <g>
       <use xlink:href="#mff0e1b0a13" x="56.18" y="116.44" style="stroke: #000000; stroke-width: 0.8"/>
      </g>
     </g>
     <g id="text_1">
      <!-- 0 -->
      <g transform="translate(52.99875 131.038437) scale(0.1 -0.1)">
       <defs>
        <path id="DejaVuSans-30" d="M 2034 4250 
Q 1547 4250 1301 3770 
Q 1056 3291 1056 2328 
Q 1056 1369 1301 889 
Q 1547 409 2034 409 
Q 2525 409 2770 889 
Q 3016 1369 3016 2328 
Q 3016 3291 2770 3770 
Q 2525 4250 2034 4250 
z
M 2034 4750 
Q 2819 4750 3233 4129 
Q 3647 3509 3647 2328 
Q 3647 1150 3233 529 
Q 2819 -91 2034 -91 
Q 1250 -91 836 529 
Q 422 1150 422 2328 
Q 422 3509 836 4129 
Q 1250 4750 2034 4750 
z
" transform="scale(0.015625)"/>
       </defs>
       <use xlink:href="#DejaVuSans-30"/>
      </g>
     </g>
    </g>
    <g id="xtick_2">
     <g id="line2d_2">
      <g>
       <use xlink:href="#mff0e1b0a13" x="149.440777" y="116.44" style="stroke: #000000; stroke-width: 0.8"/>
      </g>
     </g>
     <g id="text_2">
      <!-- 5000 -->
      <g transform="translate(136.715777 131.038437) scale(0.1 -0.1)">
       <defs>
        <path id="DejaVuSans-35" d="M 691 4666 
L 3169 4666 
L 3169 4134 
L 1269 4134 
L 1269 2991 
Q 1406 3038 1543 3061 
Q 1681 3084 1819 3084 
Q 2600 3084 3056 2656 
Q 3513 2228 3513 1497 
Q 3513 744 3044 326 
Q 2575 -91 1722 -91 
Q 1428 -91 1123 -41 
Q 819 9 494 109 
L 494 744 
Q 775 591 1075 516 
Q 1375 441 1709 441 
Q 2250 441 2565 725 
Q 2881 1009 2881 1497 
Q 2881 1984 2565 2268 
Q 2250 2553 1709 2553 
Q 1456 2553 1204 2497 
Q 953 2441 691 2322 
L 691 4666 
z
" transform="scale(0.015625)"/>
       </defs>
       <use xlink:href="#DejaVuSans-35"/>
       <use xlink:href="#DejaVuSans-30" x="63.623047"/>
       <use xlink:href="#DejaVuSans-30" x="127.246094"/>
       <use xlink:href="#DejaVuSans-30" x="190.869141"/>
      </g>
     </g>
    </g>
    <g id="xtick_3">
     <g id="line2d_3">
      <g>
       <use xlink:href="#mff0e1b0a13" x="242.701554" y="116.44" style="stroke: #000000; stroke-width: 0.8"/>
      </g>
     </g>
     <g id="text_3">
      <!-- 10000 -->
      <g transform="translate(226.795304 131.038437) scale(0.1 -0.1)">
       <defs>
        <path id="DejaVuSans-31" d="M 794 531 
L 1825 531 
L 1825 4091 
L 703 3866 
L 703 4441 
L 1819 4666 
L 2450 4666 
L 2450 531 
L 3481 531 
L 3481 0 
L 794 0 
L 794 531 
z
" transform="scale(0.015625)"/>
       </defs>
       <use xlink:href="#DejaVuSans-31"/>
       <use xlink:href="#DejaVuSans-30" x="63.623047"/>
       <use xlink:href="#DejaVuSans-30" x="127.246094"/>
       <use xlink:href="#DejaVuSans-30" x="190.869141"/>
       <use xlink:href="#DejaVuSans-30" x="254.492188"/>
      </g>
     </g>
    </g>
    <g id="xtick_4">
     <g id="line2d_4">
      <g>
       <use xlink:href="#mff0e1b0a13" x="335.96233" y="116.44" style="stroke: #000000; stroke-width: 0.8"/>
      </g>
     </g>
     <g id="text_4">
      <!-- 15000 -->
      <g transform="translate(320.05608 131.038437) scale(0.1 -0.1)">
       <use xlink:href="#DejaVuSans-31"/>
       <use xlink:href="#DejaVuSans-35" x="63.623047"/>
       <use xlink:href="#DejaVuSans-30" x="127.246094"/>
       <use xlink:href="#DejaVuSans-30" x="190.869141"/>
       <use xlink:href="#DejaVuSans-30" x="254.492188"/>
      </g>
     </g>
    </g>
    <g id="xtick_5">
     <g id="line2d_5">
      <g>
       <use xlink:href="#mff0e1b0a13" x="429.223107" y="116.44" style="stroke: #000000; stroke-width: 0.8"/>
      </g>
     </g>
     <g id="text_5">
      <!-- 20000 -->
      <g transform="translate(413.316857 131.038437) scale(0.1 -0.1)">
       <defs>
        <path id="DejaVuSans-32" d="M 1228 531 
L 3431 531 
L 3431 0 
L 469 0 
L 469 531 
Q 828 903 1448 1529 
Q 2069 2156 2228 2338 
Q 2531 2678 2651 2914 
Q 2772 3150 2772 3378 
Q 2772 3750 2511 3984 
Q 2250 4219 1831 4219 
Q 1534 4219 1204 4116 
Q 875 4013 500 3803 
L 500 4441 
Q 881 4594 1212 4672 
Q 1544 4750 1819 4750 
Q 2544 4750 2975 4387 
Q 3406 4025 3406 3419 
Q 3406 3131 3298 2873 
Q 3191 2616 2906 2266 
Q 2828 2175 2409 1742 
Q 1991 1309 1228 531 
z
" transform="scale(0.015625)"/>
       </defs>
       <use xlink:href="#DejaVuSans-32"/>
       <use xlink:href="#DejaVuSans-30" x="63.623047"/>
       <use xlink:href="#DejaVuSans-30" x="127.246094"/>
       <use xlink:href="#DejaVuSans-30" x="190.869141"/>
       <use xlink:href="#DejaVuSans-30" x="254.492188"/>
      </g>
     </g>
    </g>
    <g id="text_6">
     <!-- Time (ms) -->
     <g transform="translate(249.490781 144.716562) scale(0.1 -0.1)">
      <defs>
       <path id="DejaVuSans-54" d="M -19 4666 
L 3928 4666 
L 3928 4134 
L 2272 4134 
L 2272 0 
L 1638 0 
L 1638 4134 
L -19 4134 
L -19 4666 
z
" transform="scale(0.015625)"/>
       <path id="DejaVuSans-69" d="M 603 3500 
L 1178 3500 
L 1178 0 
L 603 0 
L 603 3500 
z
M 603 4863 
L 1178 4863 
L 1178 4134 
L 603 4134 
L 603 4863 
z
" transform="scale(0.015625)"/>
       <path id="DejaVuSans-6d" d="M 3328 2828 
Q 3544 3216 3844 3400 
Q 4144 3584 4550 3584 
Q 5097 3584 5394 3201 
Q 5691 2819 5691 2113 
L 5691 0 
L 5113 0 
L 5113 2094 
Q 5113 2597 4934 2840 
Q 4756 3084 4391 3084 
Q 3944 3084 3684 2787 
Q 3425 2491 3425 1978 
L 3425 0 
L 2847 0 
L 2847 2094 
Q 2847 2600 2669 2842 
Q 2491 3084 2119 3084 
Q 1678 3084 1418 2786 
Q 1159 2488 1159 1978 
L 1159 0 
L 581 0 
L 581 3500 
L 1159 3500 
L 1159 2956 
Q 1356 3278 1631 3431 
Q 1906 3584 2284 3584 
Q 2666 3584 2933 3390 
Q 3200 3197 3328 2828 
z
" transform="scale(0.015625)"/>
       <path id="DejaVuSans-65" d="M 3597 1894 
L 3597 1613 
L 953 1613 
Q 991 1019 1311 708 
Q 1631 397 2203 397 
Q 2534 397 2845 478 
Q 3156 559 3463 722 
L 3463 178 
Q 3153 47 2828 -22 
Q 2503 -91 2169 -91 
Q 1331 -91 842 396 
Q 353 884 353 1716 
Q 353 2575 817 3079 
Q 1281 3584 2069 3584 
Q 2775 3584 3186 3129 
Q 3597 2675 3597 1894 
z
M 3022 2063 
Q 3016 2534 2758 2815 
Q 2500 3097 2075 3097 
Q 1594 3097 1305 2825 
Q 1016 2553 972 2059 
L 3022 2063 
z
" transform="scale(0.015625)"/>
       <path id="DejaVuSans-20" transform="scale(0.015625)"/>
       <path id="DejaVuSans-28" d="M 1984 4856 
Q 1566 4138 1362 3434 
Q 1159 2731 1159 2009 
Q 1159 1288 1364 580 
Q 1569 -128 1984 -844 
L 1484 -844 
Q 1016 -109 783 600 
Q 550 1309 550 2009 
Q 550 2706 781 3412 
Q 1013 4119 1484 4856 
L 1984 4856 
z
" transform="scale(0.015625)"/>
       <path id="DejaVuSans-73" d="M 2834 3397 
L 2834 2853 
Q 2591 2978 2328 3040 
Q 2066 3103 1784 3103 
Q 1356 3103 1142 2972 
Q 928 2841 928 2578 
Q 928 2378 1081 2264 
Q 1234 2150 1697 2047 
L 1894 2003 
Q 2506 1872 2764 1633 
Q 3022 1394 3022 966 
Q 3022 478 2636 193 
Q 2250 -91 1575 -91 
Q 1294 -91 989 -36 
Q 684 19 347 128 
L 347 722 
Q 666 556 975 473 
Q 1284 391 1588 391 
Q 1994 391 2212 530 
Q 2431 669 2431 922 
Q 2431 1156 2273 1281 
Q 2116 1406 1581 1522 
L 1381 1569 
Q 847 1681 609 1914 
Q 372 2147 372 2553 
Q 372 3047 722 3315 
Q 1072 3584 1716 3584 
Q 2034 3584 2315 3537 
Q 2597 3491 2834 3397 
z
" transform="scale(0.015625)"/>
       <path id="DejaVuSans-29" d="M 513 4856 
L 1013 4856 
Q 1481 4119 1714 3412 
Q 1947 2706 1947 2009 
Q 1947 1309 1714 600 
Q 1481 -109 1013 -844 
L 513 -844 
Q 928 -128 1133 580 
Q 1338 1288 1338 2009 
Q 1338 2731 1133 3434 
Q 928 4138 513 4856 
z
" transform="scale(0.015625)"/>
      </defs>
      <use xlink:href="#DejaVuSans-54"/>
      <use xlink:href="#DejaVuSans-69" x="57.958984"/>
      <use xlink:href="#DejaVuSans-6d" x="85.742188"/>
      <use xlink:href="#DejaVuSans-65" x="183.154297"/>
      <use xlink:href="#DejaVuSans-20" x="244.677734"/>
      <use xlink:href="#DejaVuSans-28" x="276.464844"/>
      <use xlink:href="#DejaVuSans-6d" x="315.478516"/>
      <use xlink:href="#DejaVuSans-73" x="412.890625"/>
      <use xlink:href="#DejaVuSans-29" x="464.990234"/>
     </g>
    </g>
   </g>
   <g id="matplotlib.axis_2">
    <g id="ytick_1">
     <g id="line2d_6">
      <defs>
       <path id="m4e3087319e" d="M 0 0 
L -3.5 0 
" style="stroke: #000000; stroke-width: 0.8"/>
      </defs>
      <g>
       <use xlink:href="#m4e3087319e" x="56.18" y="111.638182" style="stroke: #000000; stroke-width: 0.8"/>
      </g>
     </g>
     <g id="text_7">
      <!-- −1.0 -->
      <g transform="translate(24.897188 115.437401) scale(0.1 -0.1)">
       <defs>
        <path id="DejaVuSans-2212" d="M 678 2272 
L 4684 2272 
L 4684 1741 
L 678 1741 
L 678 2272 
z
" transform="scale(0.015625)"/>
        <path id="DejaVuSans-2e" d="M 684 794 
L 1344 794 
L 1344 0 
L 684 0 
L 684 794 
z
" transform="scale(0.015625)"/>
       </defs>
       <use xlink:href="#DejaVuSans-2212"/>
       <use xlink:href="#DejaVuSans-31" x="83.789062"/>
       <use xlink:href="#DejaVuSans-2e" x="147.412109"/>
       <use xlink:href="#DejaVuSans-30" x="179.199219"/>
      </g>
     </g>
    </g>
    <g id="ytick_2">
     <g id="line2d_7">
      <g>
       <use xlink:href="#m4e3087319e" x="56.18" y="87.629091" style="stroke: #000000; stroke-width: 0.8"/>
      </g>
     </g>
     <g id="text_8">
      <!-- −0.5 -->
      <g transform="translate(24.897188 91.42831) scale(0.1 -0.1)">
       <use xlink:href="#DejaVuSans-2212"/>
       <use xlink:href="#DejaVuSans-30" x="83.789062"/>
       <use xlink:href="#DejaVuSans-2e" x="147.412109"/>
       <use xlink:href="#DejaVuSans-35" x="179.199219"/>
      </g>
     </g>
    </g>
    <g id="ytick_3">
     <g id="line2d_8">
      <g>
       <use xlink:href="#m4e3087319e" x="56.18" y="63.62" style="stroke: #000000; stroke-width: 0.8"/>
      </g>
     </g>
     <g id="text_9">
      <!-- 0.0 -->
      <g transform="translate(33.276875 67.419219) scale(0.1 -0.1)">
       <use xlink:href="#DejaVuSans-30"/>
       <use xlink:href="#DejaVuSans-2e" x="63.623047"/>
       <use xlink:href="#DejaVuSans-30" x="95.410156"/>
      </g>
     </g>
    </g>
    <g id="ytick_4">
     <g id="line2d_9">
      <g>
       <use xlink:href="#m4e3087319e" x="56.18" y="39.610909" style="stroke: #000000; stroke-width: 0.8"/>
      </g>
     </g>
     <g id="text_10">
      <!-- 0.5 -->
      <g transform="translate(33.276875 43.410128) scale(0.1 -0.1)">
       <use xlink:href="#DejaVuSans-30"/>
       <use xlink:href="#DejaVuSans-2e" x="63.623047"/>
       <use xlink:href="#DejaVuSans-35" x="95.410156"/>
      </g>
     </g>
    </g>
    <g id="ytick_5">
     <g id="line2d_10">
      <g>
       <use xlink:href="#m4e3087319e" x="56.18" y="15.601818" style="stroke: #000000; stroke-width: 0.8"/>
      </g>
     </g>
     <g id="text_11">
      <!-- 1.0 -->
      <g transform="translate(33.276875 19.401037) scale(0.1 -0.1)">
       <use xlink:href="#DejaVuSans-31"/>
       <use xlink:href="#DejaVuSans-2e" x="63.623047"/>
       <use xlink:href="#DejaVuSans-30" x="95.410156"/>
      </g>
     </g>
    </g>
    <g id="text_12">
     <!-- X-Axis Value -->
     <g transform="translate(18.8175 94.180156) rotate(-90) scale(0.1 -0.1)">
      <defs>
       <path id="DejaVuSans-58" d="M 403 4666 
L 1081 4666 
L 2241 2931 
L 3406 4666 
L 4084 4666 
L 2584 2425 
L 4184 0 
L 3506 0 
L 2194 1984 
L 872 0 
L 191 0 
L 1856 2491 
L 403 4666 
z
" transform="scale(0.015625)"/>
       <path id="DejaVuSans-2d" d="M 313 2009 
L 1997 2009 
L 1997 1497 
L 313 1497 
L 313 2009 
z
" transform="scale(0.015625)"/>
       <path id="DejaVuSans-41" d="M 2188 4044 
L 1331 1722 
L 3047 1722 
L 2188 4044 
z
M 1831 4666 
L 2547 4666 
L 4325 0 
L 3669 0 
L 3244 1197 
L 1141 1197 
L 716 0 
L 50 0 
L 1831 4666 
z
" transform="scale(0.015625)"/>
       <path id="DejaVuSans-78" d="M 3513 3500 
L 2247 1797 
L 3578 0 
L 2900 0 
L 1881 1375 
L 863 0 
L 184 0 
L 1544 1831 
L 300 3500 
L 978 3500 
L 1906 2253 
L 2834 3500 
L 3513 3500 
z
" transform="scale(0.015625)"/>
       <path id="DejaVuSans-56" d="M 1831 0 
L 50 4666 
L 709 4666 
L 2188 738 
L 3669 4666 
L 4325 4666 
L 2547 0 
L 1831 0 
z
" transform="scale(0.015625)"/>
       <path id="DejaVuSans-61" d="M 2194 1759 
Q 1497 1759 1228 1600 
Q 959 1441 959 1056 
Q 959 750 1161 570 
Q 1363 391 1709 391 
Q 2188 391 2477 730 
Q 2766 1069 2766 1631 
L 2766 1759 
L 2194 1759 
z
M 3341 1997 
L 3341 0 
L 2766 0 
L 2766 531 
Q 2569 213 2275 61 
Q 1981 -91 1556 -91 
Q 1019 -91 701 211 
Q 384 513 384 1019 
Q 384 1609 779 1909 
Q 1175 2209 1959 2209 
L 2766 2209 
L 2766 2266 
Q 2766 2663 2505 2880 
Q 2244 3097 1772 3097 
Q 1472 3097 1187 3025 
Q 903 2953 641 2809 
L 641 3341 
Q 956 3463 1253 3523 
Q 1550 3584 1831 3584 
Q 2591 3584 2966 3190 
Q 3341 2797 3341 1997 
z
" transform="scale(0.015625)"/>
       <path id="DejaVuSans-6c" d="M 603 4863 
L 1178 4863 
L 1178 0 
L 603 0 
L 603 4863 
z
" transform="scale(0.015625)"/>
       <path id="DejaVuSans-75" d="M 544 1381 
L 544 3500 
L 1119 3500 
L 1119 1403 
Q 1119 906 1312 657 
Q 1506 409 1894 409 
Q 2359 409 2629 706 
Q 2900 1003 2900 1516 
L 2900 3500 
L 3475 3500 
L 3475 0 
L 2900 0 
L 2900 538 
Q 2691 219 2414 64 
Q 2138 -91 1772 -91 
Q 1169 -91 856 284 
Q 544 659 544 1381 
z
M 1991 3584 
L 1991 3584 
z
" transform="scale(0.015625)"/>
      </defs>
      <use xlink:href="#DejaVuSans-58"/>
      <use xlink:href="#DejaVuSans-2d" x="63.505859"/>
      <use xlink:href="#DejaVuSans-41" x="97.339844"/>
      <use xlink:href="#DejaVuSans-78" x="165.748047"/>
      <use xlink:href="#DejaVuSans-69" x="224.927734"/>
      <use xlink:href="#DejaVuSans-73" x="252.710938"/>
      <use xlink:href="#DejaVuSans-20" x="304.810547"/>
      <use xlink:href="#DejaVuSans-56" x="336.597656"/>
      <use xlink:href="#DejaVuSans-61" x="397.255859"/>
      <use xlink:href="#DejaVuSans-6c" x="458.535156"/>
      <use xlink:href="#DejaVuSans-75" x="486.318359"/>
      <use xlink:href="#DejaVuSans-65" x="549.697266"/>
     </g>
    </g>
   </g>
   <g id="line2d_11">
    <path d="M 56.18 65.060545 
L 59.537388 65.060545 
L 59.72391 64.580364 
L 59.910431 65.060545 
L 70.355638 65.060545 
L 70.54216 64.580364 
L 70.728681 65.060545 
L 79.308673 65.060545 
L 79.495194 65.540727 
L 79.868237 65.540727 
L 80.054759 66.020909 
L 82.106496 66.020909 
L 82.293017 66.501091 
L 83.78519 66.501091 
L 83.971711 66.981273 
L 84.158233 66.501091 
L 84.344755 66.501091 
L 84.531276 66.981273 
L 84.904319 66.981273 
L 85.090841 66.501091 
L 85.277362 66.501091 
L 85.463884 66.981273 
L 85.836927 66.981273 
L 86.20997 67.941636 
L 94.60344 67.941636 
L 94.789962 67.461455 
L 95.536048 67.461455 
L 95.722569 66.981273 
L 97.02822 66.981273 
L 97.214742 66.501091 
L 97.401263 66.501091 
L 97.587785 66.020909 
L 97.774306 65.060545 
L 97.960828 65.060545 
L 98.333871 63.62 
L 98.520393 63.62 
L 98.706914 63.139818 
L 99.453 63.139818 
L 99.639522 62.659636 
L 99.826044 63.139818 
L 100.57213 63.139818 
L 100.758651 62.659636 
L 100.945173 63.139818 
L 101.131694 63.139818 
L 101.318216 62.659636 
L 101.504738 63.139818 
L 101.877781 63.139818 
L 102.064302 62.659636 
L 102.250824 63.139818 
L 102.99691 63.139818 
L 103.183431 62.659636 
L 103.369953 63.139818 
L 104.862125 63.139818 
L 105.048647 62.659636 
L 105.235169 63.139818 
L 105.981255 63.139818 
L 106.167776 62.659636 
L 106.354298 62.659636 
L 106.540819 63.139818 
L 108.032992 63.139818 
L 108.219513 62.659636 
L 108.406035 63.139818 
L 108.9656 63.139818 
L 109.152121 62.659636 
L 109.525164 62.659636 
L 109.711686 63.139818 
L 111.576901 63.139818 
L 111.763423 62.659636 
L 111.949945 63.139818 
L 113.628638 63.139818 
L 113.81516 62.659636 
L 114.001682 63.139818 
L 114.747768 63.139818 
L 114.934289 62.659636 
L 115.120811 63.139818 
L 115.307332 62.659636 
L 115.680376 62.659636 
L 116.23994 64.100182 
L 116.426462 64.100182 
L 116.612983 64.580364 
L 116.799505 64.580364 
L 116.986026 65.060545 
L 122.20863 65.060545 
L 122.395152 64.580364 
L 122.581673 65.060545 
L 126.871669 65.060545 
L 127.05819 64.580364 
L 127.617755 64.580364 
L 127.804277 64.100182 
L 127.990798 64.100182 
L 128.550363 62.659636 
L 128.736884 62.659636 
L 129.482971 58.338 
L 130.229057 52.095636 
L 130.788621 45.373091 
L 130.975143 40.571273 
L 131.348186 40.571273 
L 131.534708 40.091091 
L 131.721229 40.571273 
L 131.907751 40.091091 
L 132.280794 40.091091 
L 132.467315 39.610909 
L 132.653837 39.610909 
L 132.840359 39.130727 
L 134.519052 39.130727 
L 134.705574 38.650545 
L 137.689919 38.650545 
L 137.87644 38.170364 
L 138.062962 38.650545 
L 138.622527 38.650545 
L 138.809048 38.170364 
L 138.99557 38.650545 
L 139.182091 38.170364 
L 139.368613 38.170364 
L 139.555134 38.650545 
L 140.114699 38.650545 
L 140.301221 38.170364 
L 140.487742 38.650545 
L 140.674264 38.170364 
L 141.42035 38.170364 
L 141.606872 38.650545 
L 141.793393 38.650545 
L 141.979915 38.170364 
L 142.352958 38.170364 
L 142.539479 38.650545 
L 142.726001 38.170364 
L 142.912522 38.170364 
L 143.099044 38.650545 
L 143.285566 38.170364 
L 143.472087 38.650545 
L 143.658609 38.650545 
L 143.84513 38.170364 
L 144.031652 38.650545 
L 144.218173 38.650545 
L 144.404695 38.170364 
L 145.710346 38.170364 
L 145.896867 38.650545 
L 146.083389 38.170364 
L 146.26991 38.650545 
L 146.642953 38.650545 
L 146.829475 38.170364 
L 147.762083 38.170364 
L 147.948604 38.650545 
L 148.135126 38.650545 
L 148.321647 38.170364 
L 149.254255 38.170364 
L 149.440777 38.650545 
L 149.627298 38.170364 
L 150.000341 38.170364 
L 150.186863 38.650545 
L 150.373385 38.650545 
L 150.559906 38.170364 
L 152.2386 38.170364 
L 152.425122 38.650545 
L 152.611643 38.170364 
L 152.798165 38.650545 
L 152.984686 38.170364 
L 153.357729 38.170364 
L 153.544251 38.650545 
L 153.730773 38.170364 
L 155.409466 38.170364 
L 155.595988 38.650545 
L 155.78251 38.170364 
L 156.155553 38.170364 
L 156.342074 38.650545 
L 156.528596 38.170364 
L 157.274682 38.170364 
L 157.461204 38.650545 
L 157.647725 38.170364 
L 158.953376 38.170364 
L 159.139898 38.650545 
L 159.699462 38.650545 
L 159.885984 38.170364 
L 160.072505 38.650545 
L 160.259027 38.650545 
L 160.445548 39.130727 
L 160.818592 43.932545 
L 162.124242 59.778545 
L 162.497286 63.62 
L 162.683807 64.100182 
L 164.17598 64.100182 
L 164.362501 64.580364 
L 164.549023 64.580364 
L 164.735544 64.100182 
L 164.922066 64.580364 
L 173.688579 64.580364 
L 173.8751 64.100182 
L 174.061622 64.100182 
L 174.248143 63.62 
L 174.434665 63.62 
L 175.180751 59.778545 
L 176.29988 49.214545 
L 177.41901 40.091091 
L 177.978574 33.368545 
L 178.165096 30.967636 
L 178.351618 25.685636 
L 179.657268 25.685636 
L 179.84379 25.205455 
L 180.030312 25.685636 
L 183.3877 25.685636 
L 183.574221 25.205455 
L 184.320307 25.205455 
L 184.506829 25.685636 
L 184.69335 25.685636 
L 184.879872 25.205455 
L 185.066394 25.685636 
L 186.558566 25.685636 
L 186.745087 25.205455 
L 186.931609 25.685636 
L 187.118131 25.685636 
L 187.304652 25.205455 
L 187.491174 25.205455 
L 187.677695 25.685636 
L 187.864217 25.205455 
L 188.050738 25.685636 
L 189.169868 25.685636 
L 189.356389 25.205455 
L 189.542911 25.685636 
L 189.729432 25.685636 
L 189.915954 25.205455 
L 190.102475 25.685636 
L 190.288997 25.685636 
L 190.475519 25.205455 
L 190.66204 25.685636 
L 190.848562 25.685636 
L 191.035083 25.205455 
L 191.221605 25.685636 
L 191.408126 25.205455 
L 191.594648 25.685636 
L 191.967691 25.685636 
L 192.154213 25.205455 
L 192.340734 25.685636 
L 193.273342 25.685636 
L 193.459863 25.205455 
L 193.832907 25.205455 
L 194.019428 25.685636 
L 194.20595 25.205455 
L 194.392471 25.685636 
L 194.578993 25.205455 
L 194.952036 25.205455 
L 195.138557 25.685636 
L 195.325079 25.685636 
L 195.511601 25.205455 
L 195.698122 25.685636 
L 196.817251 25.685636 
L 197.003773 25.205455 
L 197.190294 25.205455 
L 197.376816 25.685636 
L 197.563338 25.205455 
L 197.749859 25.685636 
L 198.122902 25.685636 
L 198.309424 25.205455 
L 198.495945 25.685636 
L 198.682467 25.685636 
L 198.868988 25.205455 
L 199.05551 25.685636 
L 199.242032 25.205455 
L 199.428553 25.685636 
L 199.615075 25.205455 
L 199.801596 25.685636 
L 200.547682 25.685636 
L 200.734204 25.205455 
L 200.920726 25.685636 
L 201.107247 25.205455 
L 201.293769 25.685636 
L 201.48029 25.685636 
L 201.666812 25.205455 
L 201.853333 25.685636 
L 202.226376 25.685636 
L 202.412898 25.205455 
L 202.59942 25.685636 
L 202.785941 25.685636 
L 202.972463 25.205455 
L 203.158984 25.685636 
L 203.718549 25.685636 
L 203.90507 25.205455 
L 204.091592 25.205455 
L 204.278114 25.685636 
L 204.464635 25.205455 
L 204.651157 25.685636 
L 204.837678 25.685636 
L 205.0242 25.205455 
L 205.210721 25.685636 
L 205.397243 25.205455 
L 205.583764 25.205455 
L 205.770286 25.685636 
L 206.143329 28.086545 
L 206.516372 33.848727 
L 207.075937 43.452364 
L 207.822023 53.536182 
L 208.568109 59.778545 
L 208.941152 63.139818 
L 209.127674 63.62 
L 209.314195 63.62 
L 209.500717 64.100182 
L 210.433325 64.100182 
L 210.619846 64.580364 
L 211.365933 64.580364 
L 211.552454 65.060545 
L 212.112019 65.060545 
L 212.29854 65.540727 
L 218.640273 65.540727 
L 218.826795 65.060545 
L 219.013316 65.060545 
L 219.199838 64.580364 
L 219.572881 64.580364 
L 219.759402 65.060545 
L 219.945924 64.580364 
L 220.132446 64.580364 
L 220.505489 63.62 
L 221.251575 59.298364 
L 221.624618 55.937091 
L 222.184183 51.135273 
L 223.303312 42.492 
L 223.489834 42.011818 
L 224.422441 31.928 
L 255.385019 31.928 
L 255.571541 32.408182 
L 255.758062 33.848727 
L 256.317627 51.135273 
L 256.877192 59.778545 
L 257.063713 62.179455 
L 257.250235 62.659636 
L 257.436756 63.62 
L 257.623278 63.62 
L 257.809799 64.100182 
L 258.369364 64.100182 
L 258.555886 64.580364 
L 260.23458 64.580364 
L 260.421101 65.060545 
L 260.980666 65.060545 
L 261.167187 65.540727 
L 270.679787 65.540727 
L 270.866308 65.060545 
L 271.239351 65.060545 
L 271.425873 64.580364 
L 272.545002 64.580364 
L 272.731524 64.100182 
L 272.918045 64.580364 
L 273.664131 64.580364 
L 273.850653 64.100182 
L 274.037175 64.580364 
L 275.156304 64.580364 
L 275.342825 64.100182 
L 275.715869 64.100182 
L 275.90239 63.62 
L 276.088912 64.100182 
L 281.684558 64.100182 
L 281.87108 63.62 
L 282.057601 64.100182 
L 286.72064 64.100182 
L 286.907162 63.62 
L 287.093683 64.100182 
L 288.212813 64.100182 
L 288.399334 63.62 
L 288.585856 64.100182 
L 295.860196 64.100182 
L 296.046718 63.62 
L 296.233239 64.100182 
L 300.709757 64.100182 
L 300.896278 63.62 
L 301.0828 64.100182 
L 304.813231 64.100182 
L 304.999752 63.62 
L 305.186274 64.100182 
L 309.289748 64.100182 
L 309.47627 64.580364 
L 318.615826 64.580364 
L 318.802347 65.060545 
L 319.175391 65.060545 
L 319.361912 65.540727 
L 319.734955 65.540727 
L 320.29452 66.981273 
L 320.667563 69.382182 
L 321.040606 72.743455 
L 321.786692 81.386727 
L 323.092343 99.153455 
L 356.479701 99.153455 
L 356.666223 98.673273 
L 356.852744 98.673273 
L 357.039266 98.193091 
L 357.785352 93.871455 
L 359.277525 68.902 
L 359.464046 66.981273 
L 359.837089 66.020909 
L 360.023611 66.020909 
L 360.210132 65.060545 
L 360.396654 65.060545 
L 360.583175 64.580364 
L 368.976645 64.580364 
L 369.163167 65.060545 
L 369.349688 65.060545 
L 369.722732 66.020909 
L 370.468818 66.020909 
L 370.655339 66.501091 
L 371.401426 66.501091 
L 371.774469 68.421818 
L 373.08012 80.906545 
L 373.639684 85.708364 
L 374.38577 93.871455 
L 375.318378 106.836364 
L 402.550525 106.836364 
L 402.737047 106.356182 
L 403.11009 106.356182 
L 403.296611 105.876 
L 404.042697 105.876 
L 404.229219 105.395818 
L 404.788784 105.395818 
L 404.975305 104.915636 
L 405.348348 101.554364 
L 405.907913 90.990364 
L 407.027042 77.545273 
L 407.95965 69.862364 
L 408.146172 67.461455 
L 408.332693 66.501091 
L 409.078779 66.501091 
L 409.265301 66.020909 
L 409.824866 66.020909 
L 410.197909 65.060545 
L 410.570952 65.060545 
L 410.757473 64.580364 
L 418.404857 64.580364 
L 418.591379 65.060545 
L 418.7779 65.060545 
L 418.964422 65.540727 
L 419.150943 65.540727 
L 419.337465 66.020909 
L 419.897029 66.020909 
L 420.083551 66.501091 
L 420.456594 66.501091 
L 420.643116 66.981273 
L 420.829637 66.981273 
L 421.575723 70.342545 
L 421.762245 70.822727 
L 422.32181 74.664182 
L 425.492676 91.470545 
L 425.679198 94.351636 
L 426.984848 94.351636 
L 427.17137 94.831818 
L 427.357892 94.831818 
L 427.544413 94.351636 
L 428.663542 94.351636 
L 428.850064 94.831818 
L 429.036586 94.831818 
L 429.223107 94.351636 
L 429.409629 94.351636 
L 429.59615 94.831818 
L 430.155715 94.831818 
L 430.342236 94.351636 
L 430.528758 94.351636 
L 430.71528 94.831818 
L 430.901801 94.351636 
L 431.088323 94.351636 
L 431.274844 94.831818 
L 431.461366 94.351636 
L 432.207452 94.351636 
L 432.393974 94.831818 
L 432.580495 94.351636 
L 432.767017 94.351636 
L 432.953538 94.831818 
L 433.14006 94.351636 
L 433.326581 94.831818 
L 433.513103 94.831818 
L 433.699624 94.351636 
L 434.072668 94.351636 
L 434.259189 94.831818 
L 434.445711 94.831818 
L 434.632232 94.351636 
L 434.818754 94.351636 
L 435.005275 94.831818 
L 435.191797 94.351636 
L 435.378318 94.351636 
L 435.56484 94.831818 
L 435.751362 94.351636 
L 436.124405 94.351636 
L 436.310926 94.831818 
L 436.497448 94.351636 
L 436.683969 94.831818 
L 436.870491 94.351636 
L 437.430055 94.351636 
L 437.616577 94.831818 
L 437.803099 94.831818 
L 437.98962 94.351636 
L 439.108749 94.351636 
L 439.295271 94.831818 
L 439.481793 94.351636 
L 440.787443 94.351636 
L 440.973965 94.831818 
L 441.160487 94.351636 
L 441.720051 94.351636 
L 441.906573 94.831818 
L 442.093094 94.351636 
L 442.279616 94.351636 
L 442.466137 94.831818 
L 443.212224 94.831818 
L 443.398745 94.351636 
L 443.95831 94.351636 
L 444.144831 94.831818 
L 444.331353 94.831818 
L 444.517875 94.351636 
L 444.704396 94.831818 
L 444.890918 94.831818 
L 445.077439 94.351636 
L 445.450482 94.351636 
L 445.637004 94.831818 
L 446.196569 94.831818 
L 446.38309 94.351636 
L 446.569612 94.831818 
L 446.756133 94.351636 
L 446.942655 94.351636 
L 447.129176 94.831818 
L 448.434827 94.831818 
L 448.621349 94.351636 
L 448.80787 94.831818 
L 450.300043 94.831818 
L 450.486564 95.312 
L 462.050901 95.312 
L 462.237422 94.351636 
L 462.423944 94.351636 
L 462.610465 93.871455 
L 462.796987 92.430909 
L 463.356551 84.267818 
L 464.475681 68.421818 
L 464.662202 66.981273 
L 465.221767 65.540727 
L 465.59481 65.540727 
L 465.781332 65.060545 
L 467.273504 65.060545 
L 467.460026 64.580364 
L 467.646547 64.580364 
L 467.833069 65.060545 
L 468.01959 64.580364 
L 468.765676 64.580364 
L 468.952198 64.100182 
L 469.13872 64.580364 
L 469.325241 64.100182 
L 470.44437 64.100182 
L 470.630892 64.580364 
L 471.750021 64.580364 
L 471.936543 65.060545 
L 472.123064 64.580364 
L 472.309586 65.060545 
L 472.496108 64.580364 
L 472.682629 65.060545 
L 472.869151 64.580364 
L 473.055672 65.060545 
L 473.242194 64.580364 
L 473.428715 65.060545 
L 473.615237 64.580364 
L 476.599582 64.580364 
L 476.786103 65.060545 
L 476.972625 64.580364 
L 477.905233 64.580364 
L 478.091754 65.060545 
L 478.278276 65.060545 
L 478.464797 64.580364 
L 478.651319 64.580364 
L 478.83784 65.060545 
L 479.024362 64.580364 
L 479.210883 64.580364 
L 479.397405 65.060545 
L 479.583927 64.580364 
L 481.635664 64.580364 
L 481.822185 65.060545 
L 482.008707 64.580364 
L 486.112181 64.580364 
L 486.298703 65.060545 
L 486.485224 64.580364 
L 487.417832 64.580364 
L 487.604353 65.060545 
L 487.790875 64.580364 
L 489.842612 64.580364 
L 490.029134 65.060545 
L 490.215655 64.580364 
L 490.402177 64.580364 
L 490.588698 65.060545 
L 490.77522 64.580364 
L 493.2 64.580364 
L 493.2 64.580364 
" clip-path="url(#p466b62d9e0)" style="fill: none; stroke: #1f77b4; stroke-width: 1.5; stroke-linecap: square"/>
   </g>
   <g id="line2d_12">
    <path d="M 56.18 63.62 
L 493.2 63.62 
" clip-path="url(#p466b62d9e0)" style="fill: none; stroke-dasharray: 2.96,1.28; stroke-dashoffset: 0; stroke: #808080; stroke-width: 0.8"/>
   </g>
   <g id="patch_3">
    <path d="M 56.18 116.44 
L 56.18 10.8 
" style="fill: none; stroke: #000000; stroke-width: 0.8; stroke-linejoin: miter; stroke-linecap: square"/>
   </g>
   <g id="patch_4">
    <path d="M 56.18 116.44 
L 493.2 116.44 
" style="fill: none; stroke: #000000; stroke-width: 0.8; stroke-linejoin: miter; stroke-linecap: square"/>
   </g>
  </g>
  <g id="axes_2">
   <g id="patch_5">
    <path d="M 56.18 264.04 
L 493.2 264.04 
L 493.2 158.4 
L 56.18 158.4 
z
" style="fill: #ffffff"/>
   </g>
   <g id="matplotlib.axis_3">
    <g id="xtick_6">
     <g id="line2d_13">
      <g>
       <use xlink:href="#mff0e1b0a13" x="56.18" y="264.04" style="stroke: #000000; stroke-width: 0.8"/>
      </g>
     </g>
     <g id="text_13">
      <!-- 0 -->
      <g transform="translate(52.99875 278.638438) scale(0.1 -0.1)">
       <use xlink:href="#DejaVuSans-30"/>
      </g>
     </g>
    </g>
    <g id="xtick_7">
     <g id="line2d_14">
      <g>
       <use xlink:href="#mff0e1b0a13" x="149.440777" y="264.04" style="stroke: #000000; stroke-width: 0.8"/>
      </g>
     </g>
     <g id="text_14">
      <!-- 5000 -->
      <g transform="translate(136.715777 278.638438) scale(0.1 -0.1)">
       <use xlink:href="#DejaVuSans-35"/>
       <use xlink:href="#DejaVuSans-30" x="63.623047"/>
       <use xlink:href="#DejaVuSans-30" x="127.246094"/>
       <use xlink:href="#DejaVuSans-30" x="190.869141"/>
      </g>
     </g>
    </g>
    <g id="xtick_8">
     <g id="line2d_15">
      <g>
       <use xlink:href="#mff0e1b0a13" x="242.701554" y="264.04" style="stroke: #000000; stroke-width: 0.8"/>
      </g>
     </g>
     <g id="text_15">
      <!-- 10000 -->
      <g transform="translate(226.795304 278.638438) scale(0.1 -0.1)">
       <use xlink:href="#DejaVuSans-31"/>
       <use xlink:href="#DejaVuSans-30" x="63.623047"/>
       <use xlink:href="#DejaVuSans-30" x="127.246094"/>
       <use xlink:href="#DejaVuSans-30" x="190.869141"/>
       <use xlink:href="#DejaVuSans-30" x="254.492188"/>
      </g>
     </g>
    </g>
    <g id="xtick_9">
     <g id="line2d_16">
      <g>
       <use xlink:href="#mff0e1b0a13" x="335.96233" y="264.04" style="stroke: #000000; stroke-width: 0.8"/>
      </g>
     </g>
     <g id="text_16">
      <!-- 15000 -->
      <g transform="translate(320.05608 278.638438) scale(0.1 -0.1)">
       <use xlink:href="#DejaVuSans-31"/>
       <use xlink:href="#DejaVuSans-35" x="63.623047"/>
       <use xlink:href="#DejaVuSans-30" x="127.246094"/>
       <use xlink:href="#DejaVuSans-30" x="190.869141"/>
       <use xlink:href="#DejaVuSans-30" x="254.492188"/>
      </g>
     </g>
    </g>
    <g id="xtick_10">
     <g id="line2d_17">
      <g>
       <use xlink:href="#mff0e1b0a13" x="429.223107" y="264.04" style="stroke: #000000; stroke-width: 0.8"/>
      </g>
     </g>
     <g id="text_17">
      <!-- 20000 -->
      <g transform="translate(413.316857 278.638438) scale(0.1 -0.1)">
       <use xlink:href="#DejaVuSans-32"/>
       <use xlink:href="#DejaVuSans-30" x="63.623047"/>
       <use xlink:href="#DejaVuSans-30" x="127.246094"/>
       <use xlink:href="#DejaVuSans-30" x="190.869141"/>
       <use xlink:href="#DejaVuSans-30" x="254.492188"/>
      </g>
     </g>
    </g>
    <g id="text_18">
     <!-- Time (ms) -->
     <g transform="translate(249.490781 292.316563) scale(0.1 -0.1)">
      <use xlink:href="#DejaVuSans-54"/>
      <use xlink:href="#DejaVuSans-69" x="57.958984"/>
      <use xlink:href="#DejaVuSans-6d" x="85.742188"/>
      <use xlink:href="#DejaVuSans-65" x="183.154297"/>
      <use xlink:href="#DejaVuSans-20" x="244.677734"/>
      <use xlink:href="#DejaVuSans-28" x="276.464844"/>
      <use xlink:href="#DejaVuSans-6d" x="315.478516"/>
      <use xlink:href="#DejaVuSans-73" x="412.890625"/>
      <use xlink:href="#DejaVuSans-29" x="464.990234"/>
     </g>
    </g>
   </g>
   <g id="matplotlib.axis_4">
    <g id="ytick_6">
     <g id="line2d_18">
      <g>
       <use xlink:href="#m4e3087319e" x="56.18" y="259.238182" style="stroke: #000000; stroke-width: 0.8"/>
      </g>
     </g>
     <g id="text_19">
      <!-- −1.0 -->
      <g transform="translate(24.897188 263.037401) scale(0.1 -0.1)">
       <use xlink:href="#DejaVuSans-2212"/>
       <use xlink:href="#DejaVuSans-31" x="83.789062"/>
       <use xlink:href="#DejaVuSans-2e" x="147.412109"/>
       <use xlink:href="#DejaVuSans-30" x="179.199219"/>
      </g>
     </g>
    </g>
    <g id="ytick_7">
     <g id="line2d_19">
      <g>
       <use xlink:href="#m4e3087319e" x="56.18" y="235.229091" style="stroke: #000000; stroke-width: 0.8"/>
      </g>
     </g>
     <g id="text_20">
      <!-- −0.5 -->
      <g transform="translate(24.897188 239.02831) scale(0.1 -0.1)">
       <use xlink:href="#DejaVuSans-2212"/>
       <use xlink:href="#DejaVuSans-30" x="83.789062"/>
       <use xlink:href="#DejaVuSans-2e" x="147.412109"/>
       <use xlink:href="#DejaVuSans-35" x="179.199219"/>
      </g>
     </g>
    </g>
    <g id="ytick_8">
     <g id="line2d_20">
      <g>
       <use xlink:href="#m4e3087319e" x="56.18" y="211.22" style="stroke: #000000; stroke-width: 0.8"/>
      </g>
     </g>
     <g id="text_21">
      <!-- 0.0 -->
      <g transform="translate(33.276875 215.019219) scale(0.1 -0.1)">
       <use xlink:href="#DejaVuSans-30"/>
       <use xlink:href="#DejaVuSans-2e" x="63.623047"/>
       <use xlink:href="#DejaVuSans-30" x="95.410156"/>
      </g>
     </g>
    </g>
    <g id="ytick_9">
     <g id="line2d_21">
      <g>
       <use xlink:href="#m4e3087319e" x="56.18" y="187.210909" style="stroke: #000000; stroke-width: 0.8"/>
      </g>
     </g>
     <g id="text_22">
      <!-- 0.5 -->
      <g transform="translate(33.276875 191.010128) scale(0.1 -0.1)">
       <use xlink:href="#DejaVuSans-30"/>
       <use xlink:href="#DejaVuSans-2e" x="63.623047"/>
       <use xlink:href="#DejaVuSans-35" x="95.410156"/>
      </g>
     </g>
    </g>
    <g id="ytick_10">
     <g id="line2d_22">
      <g>
       <use xlink:href="#m4e3087319e" x="56.18" y="163.201818" style="stroke: #000000; stroke-width: 0.8"/>
      </g>
     </g>
     <g id="text_23">
      <!-- 1.0 -->
      <g transform="translate(33.276875 167.001037) scale(0.1 -0.1)">
       <use xlink:href="#DejaVuSans-31"/>
       <use xlink:href="#DejaVuSans-2e" x="63.623047"/>
       <use xlink:href="#DejaVuSans-30" x="95.410156"/>
      </g>
     </g>
    </g>
    <g id="text_24">
     <!-- Y-Axis Value -->
     <g transform="translate(18.8175 241.065313) rotate(-90) scale(0.1 -0.1)">
      <defs>
       <path id="DejaVuSans-59" d="M -13 4666 
L 666 4666 
L 1959 2747 
L 3244 4666 
L 3922 4666 
L 2272 2222 
L 2272 0 
L 1638 0 
L 1638 2222 
L -13 4666 
z
" transform="scale(0.015625)"/>
      </defs>
      <use xlink:href="#DejaVuSans-59"/>
      <use xlink:href="#DejaVuSans-2d" x="49.208984"/>
      <use xlink:href="#DejaVuSans-41" x="83.042969"/>
      <use xlink:href="#DejaVuSans-78" x="151.451172"/>
      <use xlink:href="#DejaVuSans-69" x="210.630859"/>
      <use xlink:href="#DejaVuSans-73" x="238.414062"/>
      <use xlink:href="#DejaVuSans-20" x="290.513672"/>
      <use xlink:href="#DejaVuSans-56" x="322.300781"/>
      <use xlink:href="#DejaVuSans-61" x="382.958984"/>
      <use xlink:href="#DejaVuSans-6c" x="444.238281"/>
      <use xlink:href="#DejaVuSans-75" x="472.021484"/>
      <use xlink:href="#DejaVuSans-65" x="535.400391"/>
     </g>
    </g>
   </g>
   <g id="line2d_23">
    <path d="M 56.18 209.779455 
L 56.366522 210.259636 
L 56.553043 209.779455 
L 57.112608 209.779455 
L 57.299129 210.259636 
L 57.858694 210.259636 
L 58.045216 209.779455 
L 58.231737 210.259636 
L 58.418259 209.779455 
L 58.60478 210.259636 
L 58.977823 210.259636 
L 59.164345 209.779455 
L 59.350866 210.259636 
L 59.537388 210.259636 
L 59.72391 209.779455 
L 60.283474 209.779455 
L 60.469996 210.259636 
L 61.589125 210.259636 
L 61.775647 209.779455 
L 61.962168 210.259636 
L 62.14869 209.779455 
L 62.335211 210.259636 
L 62.521733 209.779455 
L 62.708254 210.259636 
L 62.894776 210.259636 
L 63.081297 209.779455 
L 63.267819 210.259636 
L 63.454341 210.259636 
L 63.640862 209.779455 
L 63.827384 210.259636 
L 64.200427 210.259636 
L 64.386948 209.779455 
L 64.57347 210.259636 
L 64.759991 210.259636 
L 64.946513 209.779455 
L 65.133035 210.259636 
L 65.319556 210.259636 
L 65.506078 209.779455 
L 65.692599 210.259636 
L 65.879121 210.259636 
L 66.065642 209.779455 
L 66.252164 210.259636 
L 66.438685 209.779455 
L 66.811729 209.779455 
L 66.99825 210.259636 
L 67.184772 209.779455 
L 68.117379 209.779455 
L 68.303901 210.259636 
L 69.049987 210.259636 
L 69.236509 209.779455 
L 69.42303 209.779455 
L 69.609552 210.259636 
L 69.796073 209.779455 
L 70.169117 209.779455 
L 70.355638 210.259636 
L 70.54216 209.779455 
L 70.728681 210.259636 
L 70.915203 209.779455 
L 71.101724 209.779455 
L 71.288246 210.259636 
L 71.474767 209.779455 
L 71.661289 210.259636 
L 71.84781 210.259636 
L 72.034332 209.779455 
L 78.562586 209.779455 
L 78.749108 209.299273 
L 79.122151 209.299273 
L 79.308673 208.819091 
L 79.495194 208.819091 
L 79.868237 207.858727 
L 80.054759 207.858727 
L 80.24128 207.378545 
L 80.614324 207.378545 
L 81.546931 200.656 
L 81.733453 199.695636 
L 82.479539 191.532545 
L 83.039104 184.329818 
L 83.598668 178.087455 
L 83.971711 173.765818 
L 84.158233 168.964 
L 84.344755 168.483818 
L 115.307332 168.483818 
L 115.493854 169.924364 
L 115.866897 178.087455 
L 116.799505 202.096545 
L 116.986026 206.418182 
L 117.172548 207.858727 
L 117.545591 207.858727 
L 117.732113 208.338909 
L 118.291677 208.338909 
L 118.478199 208.819091 
L 119.410807 208.819091 
L 119.597328 209.299273 
L 119.970371 209.299273 
L 120.156893 209.779455 
L 120.343414 209.779455 
L 120.529936 210.259636 
L 126.685147 210.259636 
L 126.871669 209.779455 
L 128.363841 209.779455 
L 128.550363 209.299273 
L 129.296449 204.977636 
L 129.482971 203.537091 
L 130.229057 192.973091 
L 130.788621 181.448727 
L 130.975143 176.646909 
L 159.699462 176.646909 
L 159.885984 177.127091 
L 160.259027 179.528 
L 160.445548 180.968545 
L 161.937721 202.576727 
L 162.497286 208.338909 
L 162.683807 208.819091 
L 163.05685 208.819091 
L 163.243372 209.299273 
L 173.315536 209.299273 
L 173.502057 209.779455 
L 174.434665 209.779455 
L 174.621187 210.259636 
L 174.807708 209.779455 
L 174.99423 210.259636 
L 178.165096 210.259636 
L 178.351618 209.779455 
L 209.127674 209.779455 
L 209.314195 210.259636 
L 209.500717 210.259636 
L 209.687239 209.779455 
L 210.060282 209.779455 
L 210.246803 210.259636 
L 210.433325 209.779455 
L 210.806368 209.779455 
L 210.992889 210.259636 
L 211.179411 209.779455 
L 213.604191 209.779455 
L 213.790713 210.259636 
L 213.977234 210.259636 
L 214.163756 209.779455 
L 214.350277 209.779455 
L 214.536799 210.259636 
L 214.723321 209.779455 
L 216.402015 209.779455 
L 216.588536 210.259636 
L 216.775058 209.779455 
L 218.26723 209.779455 
L 218.453752 210.259636 
L 218.640273 209.779455 
L 219.013316 209.779455 
L 219.199838 210.259636 
L 220.132446 210.259636 
L 220.878532 212.180364 
L 221.624618 216.502 
L 222.743747 224.665091 
L 223.303312 228.026364 
L 224.23592 235.709273 
L 224.422441 239.070545 
L 224.608963 239.550727 
L 225.355049 239.550727 
L 225.541571 240.030909 
L 255.571541 240.030909 
L 255.758062 238.590364 
L 256.504149 218.422727 
L 257.063713 213.620909 
L 257.250235 212.180364 
L 257.436756 211.700182 
L 260.980666 211.700182 
L 261.167187 211.22 
L 261.54023 211.22 
L 261.726752 210.739818 
L 262.099795 210.739818 
L 262.286317 210.259636 
L 269.001093 210.259636 
L 269.187614 210.739818 
L 270.120222 210.739818 
L 270.306743 211.22 
L 270.679787 211.22 
L 270.866308 211.700182 
L 271.05283 211.700182 
L 271.425873 214.101091 
L 273.47761 234.748909 
L 273.850653 237.149818 
L 274.410218 241.951636 
L 274.596739 243.392182 
L 274.783261 243.872364 
L 275.156304 247.233636 
L 275.529347 252.035455 
L 275.715869 255.876909 
L 275.90239 256.357091 
L 304.626709 256.357091 
L 305.186274 252.995818 
L 305.372796 248.194 
L 305.93236 226.105636 
L 306.678446 212.660545 
L 306.864968 211.700182 
L 311.528007 211.700182 
L 311.714528 211.22 
L 311.90105 211.22 
L 312.087571 210.739818 
L 319.361912 210.739818 
L 319.548434 211.22 
L 320.107998 211.22 
L 320.29452 211.700182 
L 320.854085 215.061455 
L 321.973214 224.184909 
L 322.905822 233.788545 
L 323.092343 238.110182 
L 323.838429 238.110182 
L 324.024951 238.590364 
L 324.211472 238.590364 
L 324.397994 238.110182 
L 324.584516 238.110182 
L 324.771037 238.590364 
L 324.957559 238.590364 
L 325.14408 238.110182 
L 325.330602 238.590364 
L 328.501468 238.590364 
L 328.68799 238.110182 
L 328.874511 238.590364 
L 330.739727 238.590364 
L 330.926248 238.110182 
L 331.11277 238.590364 
L 334.097115 238.590364 
L 334.283636 238.110182 
L 334.470158 238.590364 
L 336.894938 238.590364 
L 337.08146 238.110182 
L 337.267981 238.590364 
L 341.557977 238.590364 
L 341.744499 238.110182 
L 341.93102 238.590364 
L 342.863628 238.590364 
L 343.050149 238.110182 
L 343.236671 238.590364 
L 344.915365 238.590364 
L 345.101886 238.110182 
L 345.288408 238.590364 
L 346.221016 238.590364 
L 346.407537 238.110182 
L 346.594059 238.590364 
L 346.78058 238.590364 
L 346.967102 238.110182 
L 347.153624 238.590364 
L 349.764925 238.590364 
L 349.951447 238.110182 
L 350.137968 238.590364 
L 350.511012 238.590364 
L 350.697533 238.110182 
L 350.884055 238.590364 
L 352.74927 238.590364 
L 352.935792 238.110182 
L 353.122313 238.590364 
L 357.785352 238.590364 
L 357.971874 237.149818 
L 358.531438 226.105636 
L 359.091003 217.942545 
L 359.464046 212.660545 
L 359.650568 211.700182 
L 360.583175 211.700182 
L 360.769697 211.22 
L 360.956219 211.700182 
L 361.14274 211.22 
L 364.68665 211.22 
L 364.873171 211.700182 
L 365.059693 211.22 
L 365.805779 211.22 
L 365.9923 211.700182 
L 366.178822 211.22 
L 370.655339 211.22 
L 370.841861 211.700182 
L 371.028382 211.22 
L 373.08012 211.22 
L 373.266641 210.739818 
L 377.92968 210.739818 
L 378.116201 210.259636 
L 378.302723 210.259636 
L 378.489245 209.779455 
L 411.317038 209.779455 
L 411.50356 210.259636 
L 418.964422 210.259636 
L 419.150943 209.779455 
L 420.270073 209.779455 
L 420.643116 208.819091 
L 421.016159 207.378545 
L 421.20268 206.898364 
L 421.948767 202.576727 
L 423.254417 192.973091 
L 423.627461 192.012727 
L 424.187025 189.611818 
L 424.560068 188.651455 
L 425.306155 184.329818 
L 425.492676 182.409091 
L 425.679198 179.047818 
L 426.425284 179.047818 
L 426.611805 178.567636 
L 426.798327 179.047818 
L 427.544413 179.047818 
L 427.730935 178.567636 
L 427.917456 179.047818 
L 428.290499 179.047818 
L 428.477021 178.567636 
L 428.850064 178.567636 
L 429.036586 179.047818 
L 429.59615 179.047818 
L 429.782672 178.567636 
L 429.969193 179.047818 
L 430.155715 179.047818 
L 430.342236 178.567636 
L 430.528758 178.567636 
L 430.71528 179.047818 
L 430.901801 179.047818 
L 431.088323 178.567636 
L 431.274844 179.047818 
L 431.647887 179.047818 
L 431.834409 178.567636 
L 432.02093 178.567636 
L 432.207452 179.047818 
L 432.953538 179.047818 
L 433.14006 178.567636 
L 433.326581 179.047818 
L 433.513103 178.567636 
L 433.699624 179.047818 
L 433.886146 178.567636 
L 434.072668 179.047818 
L 434.259189 178.567636 
L 434.445711 179.047818 
L 434.818754 179.047818 
L 435.005275 178.567636 
L 435.191797 179.047818 
L 435.378318 178.567636 
L 435.751362 178.567636 
L 435.937883 179.047818 
L 436.497448 179.047818 
L 436.683969 178.567636 
L 437.057012 178.567636 
L 437.243534 179.047818 
L 437.616577 179.047818 
L 437.803099 178.567636 
L 437.98962 179.047818 
L 438.176142 179.047818 
L 438.362663 178.567636 
L 438.549185 179.047818 
L 438.735706 178.567636 
L 438.922228 178.567636 
L 439.108749 179.047818 
L 440.041357 179.047818 
L 440.227879 178.567636 
L 440.4144 179.047818 
L 440.600922 178.567636 
L 440.787443 179.047818 
L 441.160487 179.047818 
L 441.347008 178.567636 
L 442.652659 178.567636 
L 442.839181 179.047818 
L 443.025702 178.567636 
L 443.212224 178.567636 
L 443.398745 179.047818 
L 443.585267 178.567636 
L 443.771788 178.567636 
L 443.95831 179.047818 
L 444.144831 178.567636 
L 444.331353 178.567636 
L 444.517875 179.047818 
L 444.704396 178.567636 
L 444.890918 178.567636 
L 445.077439 179.047818 
L 446.38309 179.047818 
L 446.569612 178.567636 
L 446.756133 179.047818 
L 446.942655 178.567636 
L 447.129176 179.047818 
L 447.315698 179.047818 
L 447.502219 178.567636 
L 447.688741 179.047818 
L 447.875262 179.047818 
L 448.061784 178.567636 
L 448.621349 178.567636 
L 448.80787 179.047818 
L 448.994392 178.567636 
L 449.927 178.567636 
L 450.113521 179.047818 
L 450.300043 178.567636 
L 450.486564 178.567636 
L 450.673086 179.047818 
L 451.046129 179.047818 
L 451.23265 178.567636 
L 451.419172 178.567636 
L 451.605694 179.047818 
L 451.792215 178.567636 
L 452.35178 178.567636 
L 452.538301 179.047818 
L 453.097866 179.047818 
L 453.284388 178.567636 
L 453.470909 179.047818 
L 454.030474 179.047818 
L 454.216995 178.567636 
L 454.403517 178.567636 
L 454.590038 179.047818 
L 454.77656 178.567636 
L 454.963082 179.047818 
L 455.149603 179.047818 
L 455.336125 178.567636 
L 455.709168 178.567636 
L 455.895689 179.047818 
L 456.082211 179.047818 
L 456.268732 178.567636 
L 456.455254 179.047818 
L 456.641776 178.567636 
L 456.828297 179.047818 
L 457.014819 178.567636 
L 457.20134 179.047818 
L 457.387862 178.567636 
L 457.574383 179.047818 
L 457.760905 178.567636 
L 458.320469 178.567636 
L 458.506991 179.047818 
L 458.693513 178.567636 
L 459.066556 178.567636 
L 459.253077 179.047818 
L 459.439599 178.567636 
L 459.62612 179.047818 
L 459.812642 179.047818 
L 459.999163 178.567636 
L 460.185685 178.567636 
L 460.372207 179.047818 
L 460.558728 179.047818 
L 460.74525 178.567636 
L 461.118293 178.567636 
L 461.304814 179.047818 
L 462.050901 179.047818 
L 462.237422 178.567636 
L 462.423944 178.567636 
L 462.610465 179.047818 
L 462.796987 178.567636 
L 462.983508 179.528 
L 463.356551 183.849636 
L 464.475681 202.576727 
L 464.848724 207.378545 
L 465.035245 207.858727 
L 465.59481 207.858727 
L 465.781332 208.338909 
L 465.967853 208.338909 
L 466.154375 208.819091 
L 466.340896 208.819091 
L 466.713939 209.779455 
L 467.086983 209.779455 
L 467.273504 210.259636 
L 493.2 210.259636 
L 493.2 210.259636 
" clip-path="url(#p6282df9ff1)" style="fill: none; stroke: #1f77b4; stroke-width: 1.5; stroke-linecap: square"/>
   </g>
   <g id="line2d_24">
    <path d="M 56.18 211.22 
L 493.2 211.22 
" clip-path="url(#p6282df9ff1)" style="fill: none; stroke-dasharray: 2.96,1.28; stroke-dashoffset: 0; stroke: #808080; stroke-width: 0.8"/>
   </g>
   <g id="patch_6">
    <path d="M 56.18 264.04 
L 56.18 158.4 
" style="fill: none; stroke: #000000; stroke-width: 0.8; stroke-linejoin: miter; stroke-linecap: square"/>
   </g>
   <g id="patch_7">
    <path d="M 56.18 264.04 
L 493.2 264.04 
" style="fill: none; stroke: #000000; stroke-width: 0.8; stroke-linejoin: miter; stroke-linecap: square"/>
   </g>
  </g>
 </g>
 <defs>
  <clipPath id="p466b62d9e0">
   <rect x="56.18" y="10.8" width="437.02" height="105.64"/>
  </clipPath>
  <clipPath id="p6282df9ff1">
   <rect x="56.18" y="158.4" width="437.02" height="105.64"/>
  </clipPath>
 </defs>
</svg>
