<?xml version="1.0" encoding="utf-8" standalone="no"?>
<!DOCTYPE svg PUBLIC "-//W3C//DTD SVG 1.1//EN"
  "http://www.w3.org/Graphics/SVG/1.1/DTD/svg11.dtd">
<svg xmlns:xlink="http://www.w3.org/1999/xlink" width="504pt" height="306pt" viewBox="0 0 504 306" xmlns="http://www.w3.org/2000/svg" version="1.1">
 <metadata>
  <rdf:RDF xmlns:dc="http://purl.org/dc/elements/1.1/" xmlns:cc="http://creativecommons.org/ns#" xmlns:rdf="http://www.w3.org/1999/02/22-rdf-syntax-ns#">
   <cc:Work>
    <dc:type rdf:resource="http://purl.org/dc/dcmitype/StillImage"/>
    <dc:date>2024-06-16T23:02:03.231914</dc:date>
    <dc:format>image/svg+xml</dc:format>
    <dc:creator>
     <cc:Agent>
      <dc:title>Matplotlib v3.8.3, https://matplotlib.org/</dc:title>
     </cc:Agent>
    </dc:creator>
   </cc:Work>
  </rdf:RDF>
 </metadata>
 <defs>
  <style type="text/css">*{stroke-linejoin: round; stroke-linecap: butt}</style>
 </defs>
 <g id="figure_1">
  <g id="patch_1">
   <path d="M 0 306 
L 504 306 
L 504 0 
L 0 0 
z
" style="fill: #ffffff"/>
  </g>
  <g id="axes_1">
   <g id="patch_2">
    <path d="M 56.18 116.44 
L 493.2 116.44 
L 493.2 10.8 
L 56.18 10.8 
z
" style="fill: #ffffff"/>
   </g>
   <g id="matplotlib.axis_1">
    <g id="xtick_1">
     <g id="line2d_1">
      <defs>
       <path id="m1f37cd40cc" d="M 0 0 
L 0 3.5 
" style="stroke: #000000; stroke-width: 0.8"/>
      </defs>
      <g>
       <use xlink:href="#m1f37cd40cc" x="56.18" y="116.44" style="stroke: #000000; stroke-width: 0.8"/>
      </g>
     </g>
     <g id="text_1">
      <!-- 0 -->
      <g transform="translate(52.99875 131.038437) scale(0.1 -0.1)">
       <defs>
        <path id="DejaVuSans-30" d="M 2034 4250 
Q 1547 4250 1301 3770 
Q 1056 3291 1056 2328 
Q 1056 1369 1301 889 
Q 1547 409 2034 409 
Q 2525 409 2770 889 
Q 3016 1369 3016 2328 
Q 3016 3291 2770 3770 
Q 2525 4250 2034 4250 
z
M 2034 4750 
Q 2819 4750 3233 4129 
Q 3647 3509 3647 2328 
Q 3647 1150 3233 529 
Q 2819 -91 2034 -91 
Q 1250 -91 836 529 
Q 422 1150 422 2328 
Q 422 3509 836 4129 
Q 1250 4750 2034 4750 
z
" transform="scale(0.015625)"/>
       </defs>
       <use xlink:href="#DejaVuSans-30"/>
      </g>
     </g>
    </g>
    <g id="xtick_2">
     <g id="line2d_2">
      <g>
       <use xlink:href="#m1f37cd40cc" x="104.780979" y="116.44" style="stroke: #000000; stroke-width: 0.8"/>
      </g>
     </g>
     <g id="text_2">
      <!-- 2500 -->
      <g transform="translate(92.055979 131.038437) scale(0.1 -0.1)">
       <defs>
        <path id="DejaVuSans-32" d="M 1228 531 
L 3431 531 
L 3431 0 
L 469 0 
L 469 531 
Q 828 903 1448 1529 
Q 2069 2156 2228 2338 
Q 2531 2678 2651 2914 
Q 2772 3150 2772 3378 
Q 2772 3750 2511 3984 
Q 2250 4219 1831 4219 
Q 1534 4219 1204 4116 
Q 875 4013 500 3803 
L 500 4441 
Q 881 4594 1212 4672 
Q 1544 4750 1819 4750 
Q 2544 4750 2975 4387 
Q 3406 4025 3406 3419 
Q 3406 3131 3298 2873 
Q 3191 2616 2906 2266 
Q 2828 2175 2409 1742 
Q 1991 1309 1228 531 
z
" transform="scale(0.015625)"/>
        <path id="DejaVuSans-35" d="M 691 4666 
L 3169 4666 
L 3169 4134 
L 1269 4134 
L 1269 2991 
Q 1406 3038 1543 3061 
Q 1681 3084 1819 3084 
Q 2600 3084 3056 2656 
Q 3513 2228 3513 1497 
Q 3513 744 3044 326 
Q 2575 -91 1722 -91 
Q 1428 -91 1123 -41 
Q 819 9 494 109 
L 494 744 
Q 775 591 1075 516 
Q 1375 441 1709 441 
Q 2250 441 2565 725 
Q 2881 1009 2881 1497 
Q 2881 1984 2565 2268 
Q 2250 2553 1709 2553 
Q 1456 2553 1204 2497 
Q 953 2441 691 2322 
L 691 4666 
z
" transform="scale(0.015625)"/>
       </defs>
       <use xlink:href="#DejaVuSans-32"/>
       <use xlink:href="#DejaVuSans-35" x="63.623047"/>
       <use xlink:href="#DejaVuSans-30" x="127.246094"/>
       <use xlink:href="#DejaVuSans-30" x="190.869141"/>
      </g>
     </g>
    </g>
    <g id="xtick_3">
     <g id="line2d_3">
      <g>
       <use xlink:href="#m1f37cd40cc" x="153.381957" y="116.44" style="stroke: #000000; stroke-width: 0.8"/>
      </g>
     </g>
     <g id="text_3">
      <!-- 5000 -->
      <g transform="translate(140.656957 131.038437) scale(0.1 -0.1)">
       <use xlink:href="#DejaVuSans-35"/>
       <use xlink:href="#DejaVuSans-30" x="63.623047"/>
       <use xlink:href="#DejaVuSans-30" x="127.246094"/>
       <use xlink:href="#DejaVuSans-30" x="190.869141"/>
      </g>
     </g>
    </g>
    <g id="xtick_4">
     <g id="line2d_4">
      <g>
       <use xlink:href="#m1f37cd40cc" x="201.982936" y="116.44" style="stroke: #000000; stroke-width: 0.8"/>
      </g>
     </g>
     <g id="text_4">
      <!-- 7500 -->
      <g transform="translate(189.257936 131.038437) scale(0.1 -0.1)">
       <defs>
        <path id="DejaVuSans-37" d="M 525 4666 
L 3525 4666 
L 3525 4397 
L 1831 0 
L 1172 0 
L 2766 4134 
L 525 4134 
L 525 4666 
z
" transform="scale(0.015625)"/>
       </defs>
       <use xlink:href="#DejaVuSans-37"/>
       <use xlink:href="#DejaVuSans-35" x="63.623047"/>
       <use xlink:href="#DejaVuSans-30" x="127.246094"/>
       <use xlink:href="#DejaVuSans-30" x="190.869141"/>
      </g>
     </g>
    </g>
    <g id="xtick_5">
     <g id="line2d_5">
      <g>
       <use xlink:href="#m1f37cd40cc" x="250.583915" y="116.44" style="stroke: #000000; stroke-width: 0.8"/>
      </g>
     </g>
     <g id="text_5">
      <!-- 10000 -->
      <g transform="translate(234.677665 131.038437) scale(0.1 -0.1)">
       <defs>
        <path id="DejaVuSans-31" d="M 794 531 
L 1825 531 
L 1825 4091 
L 703 3866 
L 703 4441 
L 1819 4666 
L 2450 4666 
L 2450 531 
L 3481 531 
L 3481 0 
L 794 0 
L 794 531 
z
" transform="scale(0.015625)"/>
       </defs>
       <use xlink:href="#DejaVuSans-31"/>
       <use xlink:href="#DejaVuSans-30" x="63.623047"/>
       <use xlink:href="#DejaVuSans-30" x="127.246094"/>
       <use xlink:href="#DejaVuSans-30" x="190.869141"/>
       <use xlink:href="#DejaVuSans-30" x="254.492188"/>
      </g>
     </g>
    </g>
    <g id="xtick_6">
     <g id="line2d_6">
      <g>
       <use xlink:href="#m1f37cd40cc" x="299.184893" y="116.44" style="stroke: #000000; stroke-width: 0.8"/>
      </g>
     </g>
     <g id="text_6">
      <!-- 12500 -->
      <g transform="translate(283.278643 131.038437) scale(0.1 -0.1)">
       <use xlink:href="#DejaVuSans-31"/>
       <use xlink:href="#DejaVuSans-32" x="63.623047"/>
       <use xlink:href="#DejaVuSans-35" x="127.246094"/>
       <use xlink:href="#DejaVuSans-30" x="190.869141"/>
       <use xlink:href="#DejaVuSans-30" x="254.492188"/>
      </g>
     </g>
    </g>
    <g id="xtick_7">
     <g id="line2d_7">
      <g>
       <use xlink:href="#m1f37cd40cc" x="347.785872" y="116.44" style="stroke: #000000; stroke-width: 0.8"/>
      </g>
     </g>
     <g id="text_7">
      <!-- 15000 -->
      <g transform="translate(331.879622 131.038437) scale(0.1 -0.1)">
       <use xlink:href="#DejaVuSans-31"/>
       <use xlink:href="#DejaVuSans-35" x="63.623047"/>
       <use xlink:href="#DejaVuSans-30" x="127.246094"/>
       <use xlink:href="#DejaVuSans-30" x="190.869141"/>
       <use xlink:href="#DejaVuSans-30" x="254.492188"/>
      </g>
     </g>
    </g>
    <g id="xtick_8">
     <g id="line2d_8">
      <g>
       <use xlink:href="#m1f37cd40cc" x="396.386851" y="116.44" style="stroke: #000000; stroke-width: 0.8"/>
      </g>
     </g>
     <g id="text_8">
      <!-- 17500 -->
      <g transform="translate(380.480601 131.038437) scale(0.1 -0.1)">
       <use xlink:href="#DejaVuSans-31"/>
       <use xlink:href="#DejaVuSans-37" x="63.623047"/>
       <use xlink:href="#DejaVuSans-35" x="127.246094"/>
       <use xlink:href="#DejaVuSans-30" x="190.869141"/>
       <use xlink:href="#DejaVuSans-30" x="254.492188"/>
      </g>
     </g>
    </g>
    <g id="xtick_9">
     <g id="line2d_9">
      <g>
       <use xlink:href="#m1f37cd40cc" x="444.987829" y="116.44" style="stroke: #000000; stroke-width: 0.8"/>
      </g>
     </g>
     <g id="text_9">
      <!-- 20000 -->
      <g transform="translate(429.081579 131.038437) scale(0.1 -0.1)">
       <use xlink:href="#DejaVuSans-32"/>
       <use xlink:href="#DejaVuSans-30" x="63.623047"/>
       <use xlink:href="#DejaVuSans-30" x="127.246094"/>
       <use xlink:href="#DejaVuSans-30" x="190.869141"/>
       <use xlink:href="#DejaVuSans-30" x="254.492188"/>
      </g>
     </g>
    </g>
    <g id="text_10">
     <!-- Time (ms) -->
     <g transform="translate(249.490781 144.716562) scale(0.1 -0.1)">
      <defs>
       <path id="DejaVuSans-54" d="M -19 4666 
L 3928 4666 
L 3928 4134 
L 2272 4134 
L 2272 0 
L 1638 0 
L 1638 4134 
L -19 4134 
L -19 4666 
z
" transform="scale(0.015625)"/>
       <path id="DejaVuSans-69" d="M 603 3500 
L 1178 3500 
L 1178 0 
L 603 0 
L 603 3500 
z
M 603 4863 
L 1178 4863 
L 1178 4134 
L 603 4134 
L 603 4863 
z
" transform="scale(0.015625)"/>
       <path id="DejaVuSans-6d" d="M 3328 2828 
Q 3544 3216 3844 3400 
Q 4144 3584 4550 3584 
Q 5097 3584 5394 3201 
Q 5691 2819 5691 2113 
L 5691 0 
L 5113 0 
L 5113 2094 
Q 5113 2597 4934 2840 
Q 4756 3084 4391 3084 
Q 3944 3084 3684 2787 
Q 3425 2491 3425 1978 
L 3425 0 
L 2847 0 
L 2847 2094 
Q 2847 2600 2669 2842 
Q 2491 3084 2119 3084 
Q 1678 3084 1418 2786 
Q 1159 2488 1159 1978 
L 1159 0 
L 581 0 
L 581 3500 
L 1159 3500 
L 1159 2956 
Q 1356 3278 1631 3431 
Q 1906 3584 2284 3584 
Q 2666 3584 2933 3390 
Q 3200 3197 3328 2828 
z
" transform="scale(0.015625)"/>
       <path id="DejaVuSans-65" d="M 3597 1894 
L 3597 1613 
L 953 1613 
Q 991 1019 1311 708 
Q 1631 397 2203 397 
Q 2534 397 2845 478 
Q 3156 559 3463 722 
L 3463 178 
Q 3153 47 2828 -22 
Q 2503 -91 2169 -91 
Q 1331 -91 842 396 
Q 353 884 353 1716 
Q 353 2575 817 3079 
Q 1281 3584 2069 3584 
Q 2775 3584 3186 3129 
Q 3597 2675 3597 1894 
z
M 3022 2063 
Q 3016 2534 2758 2815 
Q 2500 3097 2075 3097 
Q 1594 3097 1305 2825 
Q 1016 2553 972 2059 
L 3022 2063 
z
" transform="scale(0.015625)"/>
       <path id="DejaVuSans-20" transform="scale(0.015625)"/>
       <path id="DejaVuSans-28" d="M 1984 4856 
Q 1566 4138 1362 3434 
Q 1159 2731 1159 2009 
Q 1159 1288 1364 580 
Q 1569 -128 1984 -844 
L 1484 -844 
Q 1016 -109 783 600 
Q 550 1309 550 2009 
Q 550 2706 781 3412 
Q 1013 4119 1484 4856 
L 1984 4856 
z
" transform="scale(0.015625)"/>
       <path id="DejaVuSans-73" d="M 2834 3397 
L 2834 2853 
Q 2591 2978 2328 3040 
Q 2066 3103 1784 3103 
Q 1356 3103 1142 2972 
Q 928 2841 928 2578 
Q 928 2378 1081 2264 
Q 1234 2150 1697 2047 
L 1894 2003 
Q 2506 1872 2764 1633 
Q 3022 1394 3022 966 
Q 3022 478 2636 193 
Q 2250 -91 1575 -91 
Q 1294 -91 989 -36 
Q 684 19 347 128 
L 347 722 
Q 666 556 975 473 
Q 1284 391 1588 391 
Q 1994 391 2212 530 
Q 2431 669 2431 922 
Q 2431 1156 2273 1281 
Q 2116 1406 1581 1522 
L 1381 1569 
Q 847 1681 609 1914 
Q 372 2147 372 2553 
Q 372 3047 722 3315 
Q 1072 3584 1716 3584 
Q 2034 3584 2315 3537 
Q 2597 3491 2834 3397 
z
" transform="scale(0.015625)"/>
       <path id="DejaVuSans-29" d="M 513 4856 
L 1013 4856 
Q 1481 4119 1714 3412 
Q 1947 2706 1947 2009 
Q 1947 1309 1714 600 
Q 1481 -109 1013 -844 
L 513 -844 
Q 928 -128 1133 580 
Q 1338 1288 1338 2009 
Q 1338 2731 1133 3434 
Q 928 4138 513 4856 
z
" transform="scale(0.015625)"/>
      </defs>
      <use xlink:href="#DejaVuSans-54"/>
      <use xlink:href="#DejaVuSans-69" x="57.958984"/>
      <use xlink:href="#DejaVuSans-6d" x="85.742188"/>
      <use xlink:href="#DejaVuSans-65" x="183.154297"/>
      <use xlink:href="#DejaVuSans-20" x="244.677734"/>
      <use xlink:href="#DejaVuSans-28" x="276.464844"/>
      <use xlink:href="#DejaVuSans-6d" x="315.478516"/>
      <use xlink:href="#DejaVuSans-73" x="412.890625"/>
      <use xlink:href="#DejaVuSans-29" x="464.990234"/>
     </g>
    </g>
   </g>
   <g id="matplotlib.axis_2">
    <g id="ytick_1">
     <g id="line2d_10">
      <defs>
       <path id="m32125dd336" d="M 0 0 
L -3.5 0 
" style="stroke: #000000; stroke-width: 0.8"/>
      </defs>
      <g>
       <use xlink:href="#m32125dd336" x="56.18" y="111.638182" style="stroke: #000000; stroke-width: 0.8"/>
      </g>
     </g>
     <g id="text_11">
      <!-- −1.0 -->
      <g transform="translate(24.897188 115.437401) scale(0.1 -0.1)">
       <defs>
        <path id="DejaVuSans-2212" d="M 678 2272 
L 4684 2272 
L 4684 1741 
L 678 1741 
L 678 2272 
z
" transform="scale(0.015625)"/>
        <path id="DejaVuSans-2e" d="M 684 794 
L 1344 794 
L 1344 0 
L 684 0 
L 684 794 
z
" transform="scale(0.015625)"/>
       </defs>
       <use xlink:href="#DejaVuSans-2212"/>
       <use xlink:href="#DejaVuSans-31" x="83.789062"/>
       <use xlink:href="#DejaVuSans-2e" x="147.412109"/>
       <use xlink:href="#DejaVuSans-30" x="179.199219"/>
      </g>
     </g>
    </g>
    <g id="ytick_2">
     <g id="line2d_11">
      <g>
       <use xlink:href="#m32125dd336" x="56.18" y="87.629091" style="stroke: #000000; stroke-width: 0.8"/>
      </g>
     </g>
     <g id="text_12">
      <!-- −0.5 -->
      <g transform="translate(24.897188 91.42831) scale(0.1 -0.1)">
       <use xlink:href="#DejaVuSans-2212"/>
       <use xlink:href="#DejaVuSans-30" x="83.789062"/>
       <use xlink:href="#DejaVuSans-2e" x="147.412109"/>
       <use xlink:href="#DejaVuSans-35" x="179.199219"/>
      </g>
     </g>
    </g>
    <g id="ytick_3">
     <g id="line2d_12">
      <g>
       <use xlink:href="#m32125dd336" x="56.18" y="63.62" style="stroke: #000000; stroke-width: 0.8"/>
      </g>
     </g>
     <g id="text_13">
      <!-- 0.0 -->
      <g transform="translate(33.276875 67.419219) scale(0.1 -0.1)">
       <use xlink:href="#DejaVuSans-30"/>
       <use xlink:href="#DejaVuSans-2e" x="63.623047"/>
       <use xlink:href="#DejaVuSans-30" x="95.410156"/>
      </g>
     </g>
    </g>
    <g id="ytick_4">
     <g id="line2d_13">
      <g>
       <use xlink:href="#m32125dd336" x="56.18" y="39.610909" style="stroke: #000000; stroke-width: 0.8"/>
      </g>
     </g>
     <g id="text_14">
      <!-- 0.5 -->
      <g transform="translate(33.276875 43.410128) scale(0.1 -0.1)">
       <use xlink:href="#DejaVuSans-30"/>
       <use xlink:href="#DejaVuSans-2e" x="63.623047"/>
       <use xlink:href="#DejaVuSans-35" x="95.410156"/>
      </g>
     </g>
    </g>
    <g id="ytick_5">
     <g id="line2d_14">
      <g>
       <use xlink:href="#m32125dd336" x="56.18" y="15.601818" style="stroke: #000000; stroke-width: 0.8"/>
      </g>
     </g>
     <g id="text_15">
      <!-- 1.0 -->
      <g transform="translate(33.276875 19.401037) scale(0.1 -0.1)">
       <use xlink:href="#DejaVuSans-31"/>
       <use xlink:href="#DejaVuSans-2e" x="63.623047"/>
       <use xlink:href="#DejaVuSans-30" x="95.410156"/>
      </g>
     </g>
    </g>
    <g id="text_16">
     <!-- X-Axis Value -->
     <g transform="translate(18.8175 94.180156) rotate(-90) scale(0.1 -0.1)">
      <defs>
       <path id="DejaVuSans-58" d="M 403 4666 
L 1081 4666 
L 2241 2931 
L 3406 4666 
L 4084 4666 
L 2584 2425 
L 4184 0 
L 3506 0 
L 2194 1984 
L 872 0 
L 191 0 
L 1856 2491 
L 403 4666 
z
" transform="scale(0.015625)"/>
       <path id="DejaVuSans-2d" d="M 313 2009 
L 1997 2009 
L 1997 1497 
L 313 1497 
L 313 2009 
z
" transform="scale(0.015625)"/>
       <path id="DejaVuSans-41" d="M 2188 4044 
L 1331 1722 
L 3047 1722 
L 2188 4044 
z
M 1831 4666 
L 2547 4666 
L 4325 0 
L 3669 0 
L 3244 1197 
L 1141 1197 
L 716 0 
L 50 0 
L 1831 4666 
z
" transform="scale(0.015625)"/>
       <path id="DejaVuSans-78" d="M 3513 3500 
L 2247 1797 
L 3578 0 
L 2900 0 
L 1881 1375 
L 863 0 
L 184 0 
L 1544 1831 
L 300 3500 
L 978 3500 
L 1906 2253 
L 2834 3500 
L 3513 3500 
z
" transform="scale(0.015625)"/>
       <path id="DejaVuSans-56" d="M 1831 0 
L 50 4666 
L 709 4666 
L 2188 738 
L 3669 4666 
L 4325 4666 
L 2547 0 
L 1831 0 
z
" transform="scale(0.015625)"/>
       <path id="DejaVuSans-61" d="M 2194 1759 
Q 1497 1759 1228 1600 
Q 959 1441 959 1056 
Q 959 750 1161 570 
Q 1363 391 1709 391 
Q 2188 391 2477 730 
Q 2766 1069 2766 1631 
L 2766 1759 
L 2194 1759 
z
M 3341 1997 
L 3341 0 
L 2766 0 
L 2766 531 
Q 2569 213 2275 61 
Q 1981 -91 1556 -91 
Q 1019 -91 701 211 
Q 384 513 384 1019 
Q 384 1609 779 1909 
Q 1175 2209 1959 2209 
L 2766 2209 
L 2766 2266 
Q 2766 2663 2505 2880 
Q 2244 3097 1772 3097 
Q 1472 3097 1187 3025 
Q 903 2953 641 2809 
L 641 3341 
Q 956 3463 1253 3523 
Q 1550 3584 1831 3584 
Q 2591 3584 2966 3190 
Q 3341 2797 3341 1997 
z
" transform="scale(0.015625)"/>
       <path id="DejaVuSans-6c" d="M 603 4863 
L 1178 4863 
L 1178 0 
L 603 0 
L 603 4863 
z
" transform="scale(0.015625)"/>
       <path id="DejaVuSans-75" d="M 544 1381 
L 544 3500 
L 1119 3500 
L 1119 1403 
Q 1119 906 1312 657 
Q 1506 409 1894 409 
Q 2359 409 2629 706 
Q 2900 1003 2900 1516 
L 2900 3500 
L 3475 3500 
L 3475 0 
L 2900 0 
L 2900 538 
Q 2691 219 2414 64 
Q 2138 -91 1772 -91 
Q 1169 -91 856 284 
Q 544 659 544 1381 
z
M 1991 3584 
L 1991 3584 
z
" transform="scale(0.015625)"/>
      </defs>
      <use xlink:href="#DejaVuSans-58"/>
      <use xlink:href="#DejaVuSans-2d" x="63.505859"/>
      <use xlink:href="#DejaVuSans-41" x="97.339844"/>
      <use xlink:href="#DejaVuSans-78" x="165.748047"/>
      <use xlink:href="#DejaVuSans-69" x="224.927734"/>
      <use xlink:href="#DejaVuSans-73" x="252.710938"/>
      <use xlink:href="#DejaVuSans-20" x="304.810547"/>
      <use xlink:href="#DejaVuSans-56" x="336.597656"/>
      <use xlink:href="#DejaVuSans-61" x="397.255859"/>
      <use xlink:href="#DejaVuSans-6c" x="458.535156"/>
      <use xlink:href="#DejaVuSans-75" x="486.318359"/>
      <use xlink:href="#DejaVuSans-65" x="549.697266"/>
     </g>
    </g>
   </g>
   <g id="line2d_15">
    <path d="M 56.18 65.060545 
L 59.484867 65.060545 
L 59.67927 64.580364 
L 59.873674 65.060545 
L 62.012117 65.060545 
L 62.206521 64.580364 
L 62.400925 65.060545 
L 64.733772 65.060545 
L 64.928176 64.580364 
L 65.12258 65.060545 
L 75.620391 65.060545 
L 75.814795 65.540727 
L 76.009199 65.060545 
L 86.118203 65.060545 
L 86.312607 64.580364 
L 86.507011 65.060545 
L 88.45105 65.060545 
L 88.645454 66.501091 
L 88.839858 65.060545 
L 89.617473 65.060545 
L 89.811877 64.580364 
L 90.006281 65.060545 
L 92.144724 65.060545 
L 92.533532 66.020909 
L 94.477571 75.144364 
L 94.866379 76.104727 
L 95.060783 76.104727 
L 95.255187 76.584909 
L 95.449591 76.104727 
L 95.838399 77.065091 
L 99.337669 77.065091 
L 99.532073 76.584909 
L 99.726477 77.065091 
L 102.448132 77.065091 
L 102.642536 76.584909 
L 102.83694 77.065091 
L 103.225747 77.065091 
L 103.420151 76.584909 
L 103.808959 76.584909 
L 104.003363 77.065091 
L 104.586575 77.065091 
L 104.780979 76.584909 
L 104.975383 76.584909 
L 105.169786 77.065091 
L 105.752998 77.065091 
L 105.947402 76.584909 
L 106.530614 76.584909 
L 106.725018 76.104727 
L 108.085845 76.104727 
L 108.280249 75.144364 
L 108.474653 75.144364 
L 108.669057 74.664182 
L 109.057865 73.223636 
L 109.252269 73.703818 
L 109.446673 73.223636 
L 110.224288 73.223636 
L 110.418692 72.743455 
L 110.613096 73.223636 
L 110.8075 72.743455 
L 111.001904 73.223636 
L 111.196308 73.223636 
L 111.390712 72.743455 
L 111.585116 73.223636 
L 111.77952 72.743455 
L 111.973923 72.743455 
L 112.168327 73.223636 
L 112.557135 73.223636 
L 112.751539 73.703818 
L 112.945943 71.302909 
L 113.140347 73.223636 
L 117.028425 73.223636 
L 117.222829 73.703818 
L 117.417233 73.703818 
L 117.611637 74.184 
L 118.194849 74.184 
L 118.389253 74.664182 
L 118.583657 74.664182 
L 118.77806 75.144364 
L 119.166868 75.144364 
L 119.361272 72.263273 
L 119.555676 75.144364 
L 119.944484 75.144364 
L 120.138888 74.664182 
L 120.527696 72.263273 
L 120.7221 70.822727 
L 121.110907 65.540727 
L 121.305311 65.060545 
L 130.247891 65.060545 
L 130.442295 64.580364 
L 130.636699 68.421818 
L 130.831103 65.060545 
L 132.775142 65.060545 
L 132.969546 64.580364 
L 133.16395 65.060545 
L 135.885605 65.060545 
L 136.080009 65.540727 
L 136.274413 65.060545 
L 137.052028 65.060545 
L 137.246432 65.540727 
L 137.63524 64.580364 
L 137.829644 65.060545 
L 138.024048 65.060545 
L 138.218452 65.540727 
L 138.412856 65.060545 
L 141.912126 65.060545 
L 142.10653 64.100182 
L 142.884146 40.571273 
L 143.07855 38.170364 
L 143.467358 24.245091 
L 143.661762 21.844182 
L 143.856165 18.002727 
L 144.050569 16.562182 
L 144.244973 16.082 
L 147.938648 16.082 
L 148.133052 15.601818 
L 148.327456 15.601818 
L 148.521859 16.082 
L 148.716263 15.601818 
L 148.910667 16.082 
L 149.105071 15.601818 
L 149.299475 16.082 
L 149.493879 16.082 
L 149.688283 15.601818 
L 149.882687 15.601818 
L 150.077091 16.082 
L 150.465899 16.082 
L 150.660302 15.601818 
L 150.854706 16.082 
L 151.04911 15.601818 
L 151.243514 16.082 
L 152.215534 16.082 
L 152.409938 15.601818 
L 152.604342 15.601818 
L 152.798746 16.082 
L 152.993149 16.082 
L 153.187553 16.562182 
L 153.381957 15.601818 
L 153.576361 16.082 
L 153.770765 16.082 
L 153.965169 15.601818 
L 154.159573 16.082 
L 154.548381 16.082 
L 154.742785 15.601818 
L 154.937189 16.082 
L 159.214075 16.082 
L 159.408479 15.601818 
L 159.602883 16.082 
L 160.574902 16.082 
L 160.769306 15.601818 
L 160.96371 16.082 
L 161.546922 16.082 
L 161.741326 17.042364 
L 161.93573 16.082 
L 162.518941 16.082 
L 162.713345 15.601818 
L 162.907749 15.601818 
L 163.102153 16.082 
L 163.490961 16.082 
L 163.685365 15.601818 
L 163.879769 16.082 
L 164.074173 16.082 
L 164.268577 15.601818 
L 164.46298 15.601818 
L 164.657384 16.082 
L 164.851788 16.082 
L 165.046192 15.601818 
L 165.240596 15.601818 
L 165.435 16.082 
L 166.018212 16.082 
L 166.212616 15.601818 
L 166.40702 16.082 
L 167.767847 16.082 
L 167.962251 16.562182 
L 168.156655 16.082 
L 169.128674 40.091091 
L 169.517482 52.095636 
L 170.295098 64.100182 
L 170.683906 65.060545 
L 173.599964 65.060545 
L 173.794368 65.540727 
L 174.183176 65.540727 
L 174.37758 65.060545 
L 174.571984 65.060545 
L 174.766388 63.139818 
L 174.960792 65.060545 
L 175.155196 65.540727 
L 175.3496 65.060545 
L 179.237678 65.060545 
L 179.432082 65.540727 
L 179.626486 65.060545 
L 180.598505 65.060545 
L 180.792909 65.540727 
L 180.987313 65.060545 
L 181.959333 65.060545 
L 182.153737 65.540727 
L 182.348141 65.060545 
L 183.125756 65.060545 
L 183.32016 65.540727 
L 183.514564 65.060545 
L 188.180258 65.060545 
L 188.374662 63.62 
L 189.152278 46.813636 
L 189.346681 40.091091 
L 189.541085 37.690182 
L 189.929893 22.804545 
L 190.124297 16.082 
L 190.318701 16.082 
L 190.513105 15.601818 
L 190.901913 15.601818 
L 191.096317 16.082 
L 191.290721 15.601818 
L 191.485125 16.082 
L 191.679528 46.813636 
L 191.873932 38.170364 
L 192.068336 36.729818 
L 192.26274 39.610909 
L 192.457144 37.21 
L 192.651548 36.729818 
L 192.845952 36.729818 
L 193.040356 36.249636 
L 193.623568 36.249636 
L 193.817972 35.289273 
L 194.206779 35.289273 
L 194.595587 34.328909 
L 194.789991 33.368545 
L 194.984395 33.848727 
L 195.178799 31.447818 
L 195.373203 31.447818 
L 195.567607 32.888364 
L 195.762011 33.368545 
L 195.956415 31.928 
L 196.150819 34.328909 
L 196.345222 28.086545 
L 196.539626 30.487455 
L 196.73403 30.487455 
L 197.122838 31.928 
L 197.317242 31.447818 
L 197.511646 30.487455 
L 197.70605 30.487455 
L 197.900454 28.566727 
L 198.094858 29.046909 
L 198.289262 29.046909 
L 198.483665 28.566727 
L 198.678069 27.606364 
L 198.872473 29.046909 
L 199.066877 29.527091 
L 199.261281 29.046909 
L 199.844493 26.646 
L 200.038897 27.606364 
L 200.233301 27.606364 
L 200.427705 26.646 
L 200.622109 27.126182 
L 201.010916 27.126182 
L 201.20532 26.646 
L 201.399724 27.606364 
L 201.594128 26.165818 
L 201.982936 27.126182 
L 202.760552 27.126182 
L 202.954956 27.606364 
L 203.149359 25.205455 
L 203.343763 26.646 
L 203.538167 26.646 
L 203.926975 25.685636 
L 204.315783 25.685636 
L 204.510187 26.165818 
L 204.704591 25.685636 
L 204.898995 26.165818 
L 205.093399 26.165818 
L 205.482206 25.205455 
L 205.67661 25.685636 
L 205.871014 24.725273 
L 206.454226 24.725273 
L 206.64863 25.205455 
L 206.843034 24.725273 
L 207.037438 24.725273 
L 207.231842 27.606364 
L 207.426246 25.685636 
L 207.620649 25.205455 
L 208.981477 25.205455 
L 209.175881 24.725273 
L 209.370285 27.606364 
L 209.564689 24.725273 
L 209.759093 24.725273 
L 209.953496 25.205455 
L 210.1479 24.725273 
L 210.342304 25.205455 
L 210.536708 24.725273 
L 210.731112 24.725273 
L 210.925516 24.245091 
L 211.11992 24.725273 
L 211.314324 24.245091 
L 211.703132 28.566727 
L 211.897536 27.606364 
L 212.286343 27.606364 
L 212.480747 39.130727 
L 212.675151 62.179455 
L 212.869555 58.338 
L 213.063959 65.060545 
L 213.258363 63.62 
L 213.452767 54.016364 
L 213.647171 69.862364 
L 213.841575 18.002727 
L 214.035979 16.082 
L 214.813594 16.082 
L 215.007998 15.601818 
L 215.202402 16.082 
L 215.396806 16.082 
L 215.59121 15.601818 
L 215.785614 15.601818 
L 215.980018 16.082 
L 218.118461 16.082 
L 218.312865 16.562182 
L 218.701673 23.284727 
L 218.896077 24.245091 
L 219.284884 30.007273 
L 219.673692 34.809091 
L 219.868096 38.170364 
L 220.0625 38.650545 
L 220.451308 42.011818 
L 220.840116 52.095636 
L 221.03452 54.016364 
L 221.423327 61.699273 
L 221.617731 64.100182 
L 221.812135 65.060545 
L 222.395347 65.060545 
L 222.589751 64.580364 
L 222.784155 65.060545 
L 234.253986 65.060545 
L 234.44839 65.540727 
L 234.642794 65.060545 
L 235.226005 65.060545 
L 235.420409 63.139818 
L 235.614813 65.540727 
L 235.809217 65.060545 
L 239.697295 65.060545 
L 240.474911 47.293818 
L 240.669315 40.571273 
L 240.863719 38.170364 
L 241.446931 23.764909 
L 241.641335 22.804545 
L 242.030142 16.082 
L 242.41895 16.082 
L 242.613354 16.562182 
L 242.807758 16.082 
L 243.002162 16.082 
L 243.196566 16.562182 
L 243.39097 16.082 
L 243.974181 16.082 
L 244.168585 16.562182 
L 244.362989 16.082 
L 244.557393 16.082 
L 244.751797 16.562182 
L 244.946201 16.082 
L 245.140605 16.562182 
L 245.335009 16.082 
L 245.529413 16.562182 
L 245.723817 16.082 
L 245.918221 16.562182 
L 246.112625 16.562182 
L 246.307028 16.082 
L 246.501432 16.562182 
L 246.695836 16.562182 
L 246.89024 16.082 
L 247.473452 16.082 
L 247.667856 16.562182 
L 248.056664 16.562182 
L 248.251068 16.082 
L 253.499973 16.082 
L 253.694377 15.601818 
L 253.888781 16.082 
L 255.444012 16.082 
L 255.638416 16.562182 
L 255.83282 16.082 
L 256.416032 16.082 
L 256.610436 16.562182 
L 256.80484 16.082 
L 257.193648 16.082 
L 257.388052 16.562182 
L 257.582456 16.082 
L 257.776859 16.562182 
L 257.971263 16.082 
L 259.526495 16.082 
L 259.720899 16.562182 
L 259.915302 16.082 
L 260.887322 16.082 
L 261.081726 16.562182 
L 261.27613 16.082 
L 264.580996 16.082 
L 264.7754 16.562182 
L 264.969804 17.522545 
L 265.164208 20.883818 
L 265.941824 24.725273 
L 266.136228 26.646 
L 266.913843 38.170364 
L 267.108247 39.610909 
L 267.302651 40.091091 
L 267.885863 48.734364 
L 268.080267 50.174909 
L 268.274671 52.575818 
L 268.469075 53.056 
L 268.857883 55.937091 
L 269.441094 64.100182 
L 269.635498 65.060545 
L 269.829902 65.060545 
L 270.024306 63.139818 
L 270.21871 65.060545 
L 271.968345 65.060545 
L 272.162749 65.540727 
L 272.357153 65.060545 
L 276.245231 65.060545 
L 276.439635 66.981273 
L 276.634039 65.060545 
L 280.716521 65.060545 
L 280.910925 65.540727 
L 281.105329 65.060545 
L 283.826984 65.060545 
L 284.021388 65.540727 
L 284.410196 65.540727 
L 284.6046 65.060545 
L 284.799004 65.060545 
L 284.993407 65.540727 
L 285.187811 65.060545 
L 285.382215 65.060545 
L 285.576619 65.540727 
L 285.771023 65.540727 
L 285.965427 65.060545 
L 287.520658 65.060545 
L 287.715062 65.540727 
L 287.909466 65.060545 
L 291.603141 65.060545 
L 291.797544 65.540727 
L 291.991948 65.060545 
L 298.601681 65.060545 
L 298.796085 65.540727 
L 298.990489 65.540727 
L 299.184893 65.060545 
L 299.573701 65.060545 
L 299.768105 65.540727 
L 299.962509 65.060545 
L 300.545721 65.060545 
L 300.740125 65.540727 
L 300.934528 65.060545 
L 305.600222 65.060545 
L 305.794626 65.540727 
L 305.98903 65.060545 
L 310.265916 65.060545 
L 310.46032 65.540727 
L 310.654724 65.060545 
L 311.43234 65.060545 
L 311.626744 66.020909 
L 311.821148 65.060545 
L 312.015552 65.060545 
L 312.209956 65.540727 
L 312.793167 65.540727 
L 312.987571 65.060545 
L 313.765187 65.060545 
L 313.959591 62.659636 
L 314.153995 65.060545 
L 316.486842 65.060545 
L 316.681246 64.580364 
L 316.875649 65.060545 
L 317.458861 65.060545 
L 317.653265 65.540727 
L 317.847669 65.060545 
L 319.4029 65.060545 
L 319.597304 65.540727 
L 320.37492 65.540727 
L 320.569324 65.060545 
L 320.763728 65.540727 
L 321.152536 65.540727 
L 321.34694 65.060545 
L 321.735747 65.060545 
L 321.930151 65.540727 
L 323.87419 65.540727 
L 324.068594 65.060545 
L 324.262998 65.060545 
L 324.457402 65.540727 
L 324.651806 65.060545 
L 328.34548 65.060545 
L 328.539884 65.540727 
L 328.734288 65.060545 
L 329.123096 65.060545 
L 329.511904 66.020909 
L 329.706308 65.060545 
L 331.261539 65.060545 
L 331.455943 65.540727 
L 331.844751 65.540727 
L 332.039155 65.060545 
L 332.622367 65.060545 
L 332.81677 65.540727 
L 333.983194 65.540727 
L 334.177598 65.060545 
L 334.372002 65.060545 
L 334.566406 65.540727 
L 334.76081 65.060545 
L 335.344021 65.060545 
L 335.538425 65.540727 
L 335.732829 65.060545 
L 335.927233 65.540727 
L 336.121637 65.060545 
L 336.316041 65.060545 
L 336.510445 65.540727 
L 336.704849 65.060545 
L 340.787331 65.060545 
L 340.981735 66.020909 
L 341.759351 76.104727 
L 342.925774 87.629091 
L 343.120178 90.990364 
L 343.70339 93.871455 
L 343.897794 93.871455 
L 344.092198 93.391273 
L 344.286601 93.391273 
L 344.481005 93.871455 
L 345.064217 93.871455 
L 345.258621 94.351636 
L 349.924315 94.351636 
L 350.118719 94.831818 
L 351.285142 94.831818 
L 351.479546 95.312 
L 351.67395 95.312 
L 351.868354 95.792182 
L 352.64597 95.792182 
L 352.840374 96.272364 
L 354.395605 96.272364 
L 354.590009 95.312 
L 354.784413 96.272364 
L 355.367625 96.272364 
L 355.562028 95.792182 
L 355.756432 96.272364 
L 357.506068 96.272364 
L 357.700472 93.871455 
L 357.894875 96.272364 
L 361.199742 96.272364 
L 361.394146 96.752545 
L 361.58855 96.272364 
L 363.921397 96.272364 
L 364.115801 95.312 
L 364.699012 89.069636 
L 364.893416 87.148909 
L 365.282224 78.505636 
L 365.865436 65.060545 
L 366.448648 65.060545 
L 366.643052 65.540727 
L 366.837456 65.060545 
L 368.198283 65.060545 
L 368.392687 64.580364 
L 368.587091 65.060545 
L 372.086361 65.060545 
L 372.280765 65.540727 
L 372.669573 65.540727 
L 372.863977 65.060545 
L 373.058381 65.540727 
L 373.447189 65.540727 
L 373.641593 65.060545 
L 373.835996 65.540727 
L 374.0304 65.540727 
L 374.224804 65.060545 
L 374.419208 65.540727 
L 374.613612 65.060545 
L 374.808016 65.540727 
L 375.00242 65.060545 
L 375.196824 65.540727 
L 375.391228 65.060545 
L 375.585632 65.060545 
L 375.780036 65.540727 
L 375.97444 65.060545 
L 376.363247 65.060545 
L 376.557651 63.62 
L 376.752055 65.060545 
L 378.112883 65.060545 
L 378.307286 65.540727 
L 378.50169 65.060545 
L 379.862518 65.060545 
L 380.056922 65.540727 
L 380.44573 65.540727 
L 380.640133 65.060545 
L 380.834537 66.020909 
L 381.028941 65.060545 
L 381.612153 65.060545 
L 381.806557 65.540727 
L 382.000961 65.060545 
L 382.584173 65.060545 
L 382.778577 65.540727 
L 382.97298 65.060545 
L 383.167384 65.540727 
L 383.361788 65.060545 
L 386.083443 65.060545 
L 386.277847 65.540727 
L 386.472251 66.501091 
L 387.249867 78.025455 
L 388.027482 90.990364 
L 388.999502 111.638182 
L 416.21605 111.638182 
L 416.410454 110.677818 
L 416.993665 100.594 
L 417.576877 90.03 
L 418.160089 79.946182 
L 418.548897 72.743455 
L 418.743301 66.981273 
L 418.937705 65.060545 
L 419.132109 65.060545 
L 419.326512 65.540727 
L 420.492936 65.540727 
L 420.68734 65.060545 
L 420.881744 65.060545 
L 421.076148 65.540727 
L 421.270552 65.060545 
L 421.464956 65.060545 
L 421.659359 65.540727 
L 421.853763 65.060545 
L 422.825783 65.060545 
L 423.020187 65.540727 
L 423.214591 65.060545 
L 424.18661 65.060545 
L 424.381014 65.540727 
L 425.15863 65.540727 
L 425.353034 65.060545 
L 425.936246 65.060545 
L 426.130649 63.62 
L 426.325053 65.060545 
L 431.768363 65.060545 
L 431.962767 65.540727 
L 433.906806 65.540727 
L 434.10121 65.060545 
L 434.295614 65.540727 
L 434.490018 65.060545 
L 434.684422 65.540727 
L 434.878826 65.540727 
L 435.07323 65.060545 
L 435.267633 65.540727 
L 435.462037 65.540727 
L 435.656441 65.060545 
L 436.045249 66.020909 
L 436.239653 65.060545 
L 436.434057 66.020909 
L 436.628461 65.540727 
L 437.017269 65.540727 
L 437.211673 65.060545 
L 437.989288 65.060545 
L 439.350116 87.148909 
L 440.516539 102.034545 
L 441.099751 111.638182 
L 464.622625 111.638182 
L 464.817028 110.197636 
L 465.40024 100.594 
L 465.789048 94.351636 
L 466.566664 82.827273 
L 467.538683 71.302909 
L 467.927491 65.060545 
L 469.482722 65.060545 
L 469.677126 63.139818 
L 469.87153 65.060545 
L 472.204377 65.060545 
L 472.398781 64.580364 
L 472.593185 65.060545 
L 477.258879 65.060545 
L 477.453283 64.580364 
L 477.647687 65.060545 
L 489.506326 65.060545 
L 489.70073 64.580364 
L 489.895133 65.060545 
L 490.867153 65.060545 
L 491.061557 65.540727 
L 491.450365 64.580364 
L 491.644769 65.060545 
L 492.422384 65.060545 
L 492.616788 64.580364 
L 492.811192 65.060545 
L 493.2 65.060545 
L 493.2 65.060545 
" clip-path="url(#pcdbf8e4ca9)" style="fill: none; stroke: #1f77b4; stroke-width: 1.5; stroke-linecap: square"/>
   </g>
   <g id="line2d_16">
    <path d="M 56.18 63.62 
L 493.2 63.62 
" clip-path="url(#pcdbf8e4ca9)" style="fill: none; stroke-dasharray: 2.96,1.28; stroke-dashoffset: 0; stroke: #808080; stroke-width: 0.8"/>
   </g>
   <g id="patch_3">
    <path d="M 56.18 116.44 
L 56.18 10.8 
" style="fill: none; stroke: #000000; stroke-width: 0.8; stroke-linejoin: miter; stroke-linecap: square"/>
   </g>
   <g id="patch_4">
    <path d="M 56.18 116.44 
L 493.2 116.44 
" style="fill: none; stroke: #000000; stroke-width: 0.8; stroke-linejoin: miter; stroke-linecap: square"/>
   </g>
  </g>
  <g id="axes_2">
   <g id="patch_5">
    <path d="M 56.18 264.04 
L 493.2 264.04 
L 493.2 158.4 
L 56.18 158.4 
z
" style="fill: #ffffff"/>
   </g>
   <g id="matplotlib.axis_3">
    <g id="xtick_10">
     <g id="line2d_17">
      <g>
       <use xlink:href="#m1f37cd40cc" x="56.18" y="264.04" style="stroke: #000000; stroke-width: 0.8"/>
      </g>
     </g>
     <g id="text_17">
      <!-- 0 -->
      <g transform="translate(52.99875 278.638438) scale(0.1 -0.1)">
       <use xlink:href="#DejaVuSans-30"/>
      </g>
     </g>
    </g>
    <g id="xtick_11">
     <g id="line2d_18">
      <g>
       <use xlink:href="#m1f37cd40cc" x="104.780979" y="264.04" style="stroke: #000000; stroke-width: 0.8"/>
      </g>
     </g>
     <g id="text_18">
      <!-- 2500 -->
      <g transform="translate(92.055979 278.638438) scale(0.1 -0.1)">
       <use xlink:href="#DejaVuSans-32"/>
       <use xlink:href="#DejaVuSans-35" x="63.623047"/>
       <use xlink:href="#DejaVuSans-30" x="127.246094"/>
       <use xlink:href="#DejaVuSans-30" x="190.869141"/>
      </g>
     </g>
    </g>
    <g id="xtick_12">
     <g id="line2d_19">
      <g>
       <use xlink:href="#m1f37cd40cc" x="153.381957" y="264.04" style="stroke: #000000; stroke-width: 0.8"/>
      </g>
     </g>
     <g id="text_19">
      <!-- 5000 -->
      <g transform="translate(140.656957 278.638438) scale(0.1 -0.1)">
       <use xlink:href="#DejaVuSans-35"/>
       <use xlink:href="#DejaVuSans-30" x="63.623047"/>
       <use xlink:href="#DejaVuSans-30" x="127.246094"/>
       <use xlink:href="#DejaVuSans-30" x="190.869141"/>
      </g>
     </g>
    </g>
    <g id="xtick_13">
     <g id="line2d_20">
      <g>
       <use xlink:href="#m1f37cd40cc" x="201.982936" y="264.04" style="stroke: #000000; stroke-width: 0.8"/>
      </g>
     </g>
     <g id="text_20">
      <!-- 7500 -->
      <g transform="translate(189.257936 278.638438) scale(0.1 -0.1)">
       <use xlink:href="#DejaVuSans-37"/>
       <use xlink:href="#DejaVuSans-35" x="63.623047"/>
       <use xlink:href="#DejaVuSans-30" x="127.246094"/>
       <use xlink:href="#DejaVuSans-30" x="190.869141"/>
      </g>
     </g>
    </g>
    <g id="xtick_14">
     <g id="line2d_21">
      <g>
       <use xlink:href="#m1f37cd40cc" x="250.583915" y="264.04" style="stroke: #000000; stroke-width: 0.8"/>
      </g>
     </g>
     <g id="text_21">
      <!-- 10000 -->
      <g transform="translate(234.677665 278.638438) scale(0.1 -0.1)">
       <use xlink:href="#DejaVuSans-31"/>
       <use xlink:href="#DejaVuSans-30" x="63.623047"/>
       <use xlink:href="#DejaVuSans-30" x="127.246094"/>
       <use xlink:href="#DejaVuSans-30" x="190.869141"/>
       <use xlink:href="#DejaVuSans-30" x="254.492188"/>
      </g>
     </g>
    </g>
    <g id="xtick_15">
     <g id="line2d_22">
      <g>
       <use xlink:href="#m1f37cd40cc" x="299.184893" y="264.04" style="stroke: #000000; stroke-width: 0.8"/>
      </g>
     </g>
     <g id="text_22">
      <!-- 12500 -->
      <g transform="translate(283.278643 278.638438) scale(0.1 -0.1)">
       <use xlink:href="#DejaVuSans-31"/>
       <use xlink:href="#DejaVuSans-32" x="63.623047"/>
       <use xlink:href="#DejaVuSans-35" x="127.246094"/>
       <use xlink:href="#DejaVuSans-30" x="190.869141"/>
       <use xlink:href="#DejaVuSans-30" x="254.492188"/>
      </g>
     </g>
    </g>
    <g id="xtick_16">
     <g id="line2d_23">
      <g>
       <use xlink:href="#m1f37cd40cc" x="347.785872" y="264.04" style="stroke: #000000; stroke-width: 0.8"/>
      </g>
     </g>
     <g id="text_23">
      <!-- 15000 -->
      <g transform="translate(331.879622 278.638438) scale(0.1 -0.1)">
       <use xlink:href="#DejaVuSans-31"/>
       <use xlink:href="#DejaVuSans-35" x="63.623047"/>
       <use xlink:href="#DejaVuSans-30" x="127.246094"/>
       <use xlink:href="#DejaVuSans-30" x="190.869141"/>
       <use xlink:href="#DejaVuSans-30" x="254.492188"/>
      </g>
     </g>
    </g>
    <g id="xtick_17">
     <g id="line2d_24">
      <g>
       <use xlink:href="#m1f37cd40cc" x="396.386851" y="264.04" style="stroke: #000000; stroke-width: 0.8"/>
      </g>
     </g>
     <g id="text_24">
      <!-- 17500 -->
      <g transform="translate(380.480601 278.638438) scale(0.1 -0.1)">
       <use xlink:href="#DejaVuSans-31"/>
       <use xlink:href="#DejaVuSans-37" x="63.623047"/>
       <use xlink:href="#DejaVuSans-35" x="127.246094"/>
       <use xlink:href="#DejaVuSans-30" x="190.869141"/>
       <use xlink:href="#DejaVuSans-30" x="254.492188"/>
      </g>
     </g>
    </g>
    <g id="xtick_18">
     <g id="line2d_25">
      <g>
       <use xlink:href="#m1f37cd40cc" x="444.987829" y="264.04" style="stroke: #000000; stroke-width: 0.8"/>
      </g>
     </g>
     <g id="text_25">
      <!-- 20000 -->
      <g transform="translate(429.081579 278.638438) scale(0.1 -0.1)">
       <use xlink:href="#DejaVuSans-32"/>
       <use xlink:href="#DejaVuSans-30" x="63.623047"/>
       <use xlink:href="#DejaVuSans-30" x="127.246094"/>
       <use xlink:href="#DejaVuSans-30" x="190.869141"/>
       <use xlink:href="#DejaVuSans-30" x="254.492188"/>
      </g>
     </g>
    </g>
    <g id="text_26">
     <!-- Time (ms) -->
     <g transform="translate(249.490781 292.316563) scale(0.1 -0.1)">
      <use xlink:href="#DejaVuSans-54"/>
      <use xlink:href="#DejaVuSans-69" x="57.958984"/>
      <use xlink:href="#DejaVuSans-6d" x="85.742188"/>
      <use xlink:href="#DejaVuSans-65" x="183.154297"/>
      <use xlink:href="#DejaVuSans-20" x="244.677734"/>
      <use xlink:href="#DejaVuSans-28" x="276.464844"/>
      <use xlink:href="#DejaVuSans-6d" x="315.478516"/>
      <use xlink:href="#DejaVuSans-73" x="412.890625"/>
      <use xlink:href="#DejaVuSans-29" x="464.990234"/>
     </g>
    </g>
   </g>
   <g id="matplotlib.axis_4">
    <g id="ytick_6">
     <g id="line2d_26">
      <g>
       <use xlink:href="#m32125dd336" x="56.18" y="259.238182" style="stroke: #000000; stroke-width: 0.8"/>
      </g>
     </g>
     <g id="text_27">
      <!-- −1.0 -->
      <g transform="translate(24.897188 263.037401) scale(0.1 -0.1)">
       <use xlink:href="#DejaVuSans-2212"/>
       <use xlink:href="#DejaVuSans-31" x="83.789062"/>
       <use xlink:href="#DejaVuSans-2e" x="147.412109"/>
       <use xlink:href="#DejaVuSans-30" x="179.199219"/>
      </g>
     </g>
    </g>
    <g id="ytick_7">
     <g id="line2d_27">
      <g>
       <use xlink:href="#m32125dd336" x="56.18" y="235.229091" style="stroke: #000000; stroke-width: 0.8"/>
      </g>
     </g>
     <g id="text_28">
      <!-- −0.5 -->
      <g transform="translate(24.897188 239.02831) scale(0.1 -0.1)">
       <use xlink:href="#DejaVuSans-2212"/>
       <use xlink:href="#DejaVuSans-30" x="83.789062"/>
       <use xlink:href="#DejaVuSans-2e" x="147.412109"/>
       <use xlink:href="#DejaVuSans-35" x="179.199219"/>
      </g>
     </g>
    </g>
    <g id="ytick_8">
     <g id="line2d_28">
      <g>
       <use xlink:href="#m32125dd336" x="56.18" y="211.22" style="stroke: #000000; stroke-width: 0.8"/>
      </g>
     </g>
     <g id="text_29">
      <!-- 0.0 -->
      <g transform="translate(33.276875 215.019219) scale(0.1 -0.1)">
       <use xlink:href="#DejaVuSans-30"/>
       <use xlink:href="#DejaVuSans-2e" x="63.623047"/>
       <use xlink:href="#DejaVuSans-30" x="95.410156"/>
      </g>
     </g>
    </g>
    <g id="ytick_9">
     <g id="line2d_29">
      <g>
       <use xlink:href="#m32125dd336" x="56.18" y="187.210909" style="stroke: #000000; stroke-width: 0.8"/>
      </g>
     </g>
     <g id="text_30">
      <!-- 0.5 -->
      <g transform="translate(33.276875 191.010128) scale(0.1 -0.1)">
       <use xlink:href="#DejaVuSans-30"/>
       <use xlink:href="#DejaVuSans-2e" x="63.623047"/>
       <use xlink:href="#DejaVuSans-35" x="95.410156"/>
      </g>
     </g>
    </g>
    <g id="ytick_10">
     <g id="line2d_30">
      <g>
       <use xlink:href="#m32125dd336" x="56.18" y="163.201818" style="stroke: #000000; stroke-width: 0.8"/>
      </g>
     </g>
     <g id="text_31">
      <!-- 1.0 -->
      <g transform="translate(33.276875 167.001037) scale(0.1 -0.1)">
       <use xlink:href="#DejaVuSans-31"/>
       <use xlink:href="#DejaVuSans-2e" x="63.623047"/>
       <use xlink:href="#DejaVuSans-30" x="95.410156"/>
      </g>
     </g>
    </g>
    <g id="text_32">
     <!-- Y-Axis Value -->
     <g transform="translate(18.8175 241.065313) rotate(-90) scale(0.1 -0.1)">
      <defs>
       <path id="DejaVuSans-59" d="M -13 4666 
L 666 4666 
L 1959 2747 
L 3244 4666 
L 3922 4666 
L 2272 2222 
L 2272 0 
L 1638 0 
L 1638 2222 
L -13 4666 
z
" transform="scale(0.015625)"/>
      </defs>
      <use xlink:href="#DejaVuSans-59"/>
      <use xlink:href="#DejaVuSans-2d" x="49.208984"/>
      <use xlink:href="#DejaVuSans-41" x="83.042969"/>
      <use xlink:href="#DejaVuSans-78" x="151.451172"/>
      <use xlink:href="#DejaVuSans-69" x="210.630859"/>
      <use xlink:href="#DejaVuSans-73" x="238.414062"/>
      <use xlink:href="#DejaVuSans-20" x="290.513672"/>
      <use xlink:href="#DejaVuSans-56" x="322.300781"/>
      <use xlink:href="#DejaVuSans-61" x="382.958984"/>
      <use xlink:href="#DejaVuSans-6c" x="444.238281"/>
      <use xlink:href="#DejaVuSans-75" x="472.021484"/>
      <use xlink:href="#DejaVuSans-65" x="535.400391"/>
     </g>
    </g>
   </g>
   <g id="line2d_31">
    <path d="M 56.18 209.779455 
L 68.621851 209.779455 
L 68.816254 210.259636 
L 69.010658 209.779455 
L 81.452509 209.779455 
L 81.646913 210.259636 
L 81.841317 209.779455 
L 84.757375 209.779455 
L 84.951779 209.299273 
L 85.146183 209.779455 
L 91.755916 209.779455 
L 92.144724 202.096545 
L 93.505552 176.166727 
L 93.894359 171.364909 
L 94.283167 163.682 
L 96.616014 163.682 
L 96.810418 164.162182 
L 97.199226 163.201818 
L 97.588034 163.201818 
L 97.782438 163.682 
L 98.948861 163.682 
L 99.143265 163.201818 
L 99.337669 163.682 
L 99.532073 163.201818 
L 99.726477 163.201818 
L 99.920881 163.682 
L 100.115285 163.682 
L 100.309689 163.201818 
L 100.504093 163.682 
L 100.698496 163.682 
L 100.8929 163.201818 
L 101.087304 163.682 
L 101.476112 163.682 
L 101.670516 163.201818 
L 101.86492 163.682 
L 102.448132 163.682 
L 102.642536 163.201818 
L 102.83694 163.682 
L 103.031343 163.201818 
L 103.225747 163.682 
L 103.420151 163.201818 
L 103.614555 163.682 
L 104.197767 163.682 
L 104.392171 164.162182 
L 104.586575 163.201818 
L 104.780979 164.162182 
L 104.975383 163.682 
L 106.141806 163.682 
L 106.33621 164.162182 
L 106.725018 164.162182 
L 106.919422 163.682 
L 110.418692 163.682 
L 110.613096 163.201818 
L 110.8075 163.682 
L 111.390712 163.682 
L 111.585116 163.201818 
L 111.77952 163.201818 
L 111.973923 163.682 
L 112.362731 163.682 
L 112.557135 163.201818 
L 112.751539 163.682 
L 113.140347 163.682 
L 113.334751 163.201818 
L 113.529155 163.682 
L 114.112367 163.682 
L 114.30677 163.201818 
L 114.501174 163.682 
L 114.695578 163.201818 
L 114.889982 163.682 
L 119.166868 163.682 
L 119.361272 163.201818 
L 119.555676 163.682 
L 120.138888 163.682 
L 120.333292 164.642364 
L 120.527696 173.285636 
L 120.7221 176.166727 
L 121.694119 204.497455 
L 121.888523 209.779455 
L 129.081468 209.779455 
L 129.275872 210.259636 
L 129.470276 209.779455 
L 141.912126 209.779455 
L 142.884146 186.730727 
L 143.661762 164.642364 
L 144.050569 163.682 
L 145.605801 163.682 
L 145.800205 164.162182 
L 145.994609 163.682 
L 147.161032 163.682 
L 147.355436 164.162182 
L 147.54984 163.682 
L 147.744244 164.162182 
L 147.938648 163.682 
L 148.521859 163.682 
L 148.716263 163.201818 
L 148.910667 163.682 
L 149.105071 163.682 
L 149.299475 163.201818 
L 149.493879 163.682 
L 151.437918 163.682 
L 151.632322 163.201818 
L 151.826726 164.642364 
L 152.02113 163.682 
L 153.576361 163.682 
L 153.770765 163.201818 
L 153.965169 163.682 
L 156.298016 163.682 
L 156.49242 164.162182 
L 156.686824 163.682 
L 159.408479 163.682 
L 159.602883 163.201818 
L 159.797286 163.682 
L 160.96371 163.682 
L 161.158114 163.201818 
L 161.352518 163.201818 
L 161.546922 163.682 
L 161.93573 163.682 
L 162.130133 163.201818 
L 162.324537 163.201818 
L 162.518941 163.682 
L 162.713345 163.201818 
L 162.907749 163.201818 
L 163.102153 163.682 
L 163.490961 163.682 
L 163.685365 163.201818 
L 163.879769 163.201818 
L 164.074173 163.682 
L 164.268577 163.682 
L 164.46298 163.201818 
L 164.657384 164.162182 
L 165.046192 163.201818 
L 165.240596 163.682 
L 166.018212 163.682 
L 166.212616 163.201818 
L 166.40702 163.682 
L 168.545463 163.682 
L 168.739867 167.523455 
L 169.128674 177.127091 
L 169.711886 192.492909 
L 170.87831 209.779455 
L 175.932811 209.779455 
L 176.127215 209.299273 
L 176.321619 209.779455 
L 180.792909 209.779455 
L 180.987313 210.259636 
L 181.181717 209.779455 
L 181.376121 210.259636 
L 181.570525 209.779455 
L 190.124297 209.779455 
L 190.318701 209.299273 
L 190.513105 209.779455 
L 197.900454 209.779455 
L 198.094858 210.259636 
L 198.289262 209.779455 
L 198.678069 209.779455 
L 198.872473 209.299273 
L 199.066877 209.779455 
L 208.203861 209.779455 
L 208.398265 210.259636 
L 208.592669 209.779455 
L 208.787073 209.779455 
L 208.981477 210.259636 
L 209.175881 209.779455 
L 209.564689 209.779455 
L 209.759093 210.259636 
L 209.953496 210.259636 
L 210.1479 209.779455 
L 210.342304 209.779455 
L 210.536708 210.259636 
L 210.731112 210.259636 
L 210.925516 209.779455 
L 218.312865 209.779455 
L 218.507269 210.259636 
L 218.701673 209.779455 
L 221.423327 209.779455 
L 221.617731 210.259636 
L 221.812135 209.779455 
L 222.589751 209.779455 
L 222.784155 210.739818 
L 222.978559 209.779455 
L 238.336468 209.779455 
L 238.530872 210.259636 
L 238.725276 209.779455 
L 239.114084 209.779455 
L 239.308488 210.259636 
L 239.891699 226.585818 
L 240.863719 252.995818 
L 241.058123 258.758 
L 241.252527 259.238182 
L 248.056664 259.238182 
L 248.251068 258.277818 
L 248.445472 259.238182 
L 265.358612 259.238182 
L 265.553016 258.758 
L 266.136228 253.476 
L 268.274671 242.912 
L 269.24669 232.348 
L 270.21871 219.383091 
L 270.413114 216.502 
L 270.801922 214.581273 
L 271.385133 209.779455 
L 277.606059 209.779455 
L 277.800463 210.259636 
L 277.994867 209.779455 
L 280.13331 209.779455 
L 280.327714 210.259636 
L 280.522117 209.779455 
L 282.66056 209.779455 
L 282.854964 210.259636 
L 283.049368 209.779455 
L 288.10387 209.779455 
L 288.298274 211.22 
L 288.881486 234.748909 
L 289.659101 258.277818 
L 289.853505 259.238182 
L 292.963968 259.238182 
L 293.158372 258.758 
L 293.352776 259.238182 
L 295.685623 259.238182 
L 295.880027 257.797636 
L 296.074431 259.238182 
L 301.51774 259.238182 
L 301.712144 258.758 
L 301.906548 259.238182 
L 305.600222 259.238182 
L 305.794626 258.758 
L 305.98903 259.238182 
L 310.46032 259.238182 
L 310.654724 258.758 
L 310.849128 259.238182 
L 314.93161 259.238182 
L 315.320418 255.876909 
L 317.070053 228.986727 
L 317.847669 214.101091 
L 318.042073 210.739818 
L 318.236477 210.739818 
L 318.430881 209.779455 
L 322.513363 209.779455 
L 322.707767 210.259636 
L 322.902171 209.779455 
L 329.123096 209.779455 
L 329.3175 210.259636 
L 329.511904 209.779455 
L 334.76081 209.779455 
L 334.955214 210.259636 
L 335.149617 209.779455 
L 339.815311 209.779455 
L 340.009715 210.259636 
L 340.787331 233.788545 
L 341.759351 259.238182 
L 365.282224 259.238182 
L 365.476628 257.797636 
L 366.643052 216.021818 
L 366.837456 210.259636 
L 367.031859 209.779455 
L 369.753514 209.779455 
L 369.947918 210.259636 
L 370.142322 209.779455 
L 393.665196 209.779455 
L 393.8596 210.259636 
L 394.054004 209.779455 
L 421.270552 209.779455 
L 421.464956 210.259636 
L 421.659359 209.779455 
L 427.102669 209.779455 
L 427.297073 208.819091 
L 427.491477 209.779455 
L 432.157171 209.779455 
L 432.351575 210.259636 
L 432.545979 209.779455 
L 433.323594 209.779455 
L 433.517998 210.259636 
L 433.712402 209.779455 
L 438.961308 209.779455 
L 439.350116 200.175818 
L 439.738923 193.453273 
L 440.516539 175.686545 
L 440.710943 173.765818 
L 441.099751 163.682 
L 447.709484 163.682 
L 447.903888 163.201818 
L 448.098292 163.682 
L 450.431139 163.682 
L 450.625543 163.201818 
L 450.819947 163.682 
L 451.014351 163.201818 
L 451.208754 163.682 
L 451.403158 163.201818 
L 451.597562 163.682 
L 452.180774 163.682 
L 452.375178 163.201818 
L 452.569582 163.682 
L 454.513621 163.682 
L 454.708025 163.201818 
L 454.902429 163.682 
L 455.096833 163.201818 
L 455.485641 163.201818 
L 455.680044 163.682 
L 455.874448 163.682 
L 456.068852 163.201818 
L 456.263256 163.682 
L 459.373719 163.682 
L 459.568123 163.201818 
L 459.762527 163.682 
L 460.345738 163.682 
L 460.540142 163.201818 
L 460.734546 163.682 
L 463.261797 163.682 
L 463.456201 163.201818 
L 463.650605 163.682 
L 463.845009 163.201818 
L 464.039413 163.201818 
L 464.233817 163.682 
L 465.011432 163.682 
L 465.205836 163.201818 
L 465.40024 166.082909 
L 465.594644 172.805455 
L 465.789048 174.246 
L 466.955472 195.854182 
L 467.538683 204.017273 
L 467.927491 209.779455 
L 470.260338 209.779455 
L 470.454742 209.299273 
L 470.649146 209.779455 
L 470.84355 210.739818 
L 471.037954 209.779455 
L 471.815569 209.779455 
L 472.009973 210.259636 
L 472.204377 209.779455 
L 493.2 209.779455 
L 493.2 209.779455 
" clip-path="url(#peb7c86e13d)" style="fill: none; stroke: #1f77b4; stroke-width: 1.5; stroke-linecap: square"/>
   </g>
   <g id="line2d_32">
    <path d="M 56.18 211.22 
L 493.2 211.22 
" clip-path="url(#peb7c86e13d)" style="fill: none; stroke-dasharray: 2.96,1.28; stroke-dashoffset: 0; stroke: #808080; stroke-width: 0.8"/>
   </g>
   <g id="patch_6">
    <path d="M 56.18 264.04 
L 56.18 158.4 
" style="fill: none; stroke: #000000; stroke-width: 0.8; stroke-linejoin: miter; stroke-linecap: square"/>
   </g>
   <g id="patch_7">
    <path d="M 56.18 264.04 
L 493.2 264.04 
" style="fill: none; stroke: #000000; stroke-width: 0.8; stroke-linejoin: miter; stroke-linecap: square"/>
   </g>
  </g>
 </g>
 <defs>
  <clipPath id="pcdbf8e4ca9">
   <rect x="56.18" y="10.8" width="437.02" height="105.64"/>
  </clipPath>
  <clipPath id="peb7c86e13d">
   <rect x="56.18" y="158.4" width="437.02" height="105.64"/>
  </clipPath>
 </defs>
</svg>
