<?xml version="1.0" encoding="utf-8" standalone="no"?>
<!DOCTYPE svg PUBLIC "-//W3C//DTD SVG 1.1//EN"
  "http://www.w3.org/Graphics/SVG/1.1/DTD/svg11.dtd">
<svg xmlns:xlink="http://www.w3.org/1999/xlink" width="504pt" height="306pt" viewBox="0 0 504 306" xmlns="http://www.w3.org/2000/svg" version="1.1">
 <metadata>
  <rdf:RDF xmlns:dc="http://purl.org/dc/elements/1.1/" xmlns:cc="http://creativecommons.org/ns#" xmlns:rdf="http://www.w3.org/1999/02/22-rdf-syntax-ns#">
   <cc:Work>
    <dc:type rdf:resource="http://purl.org/dc/dcmitype/StillImage"/>
    <dc:date>2024-06-16T23:02:14.876204</dc:date>
    <dc:format>image/svg+xml</dc:format>
    <dc:creator>
     <cc:Agent>
      <dc:title>Matplotlib v3.8.3, https://matplotlib.org/</dc:title>
     </cc:Agent>
    </dc:creator>
   </cc:Work>
  </rdf:RDF>
 </metadata>
 <defs>
  <style type="text/css">*{stroke-linejoin: round; stroke-linecap: butt}</style>
 </defs>
 <g id="figure_1">
  <g id="patch_1">
   <path d="M 0 306 
L 504 306 
L 504 0 
L 0 0 
z
" style="fill: #ffffff"/>
  </g>
  <g id="axes_1">
   <g id="patch_2">
    <path d="M 56.18 116.44 
L 493.2 116.44 
L 493.2 10.8 
L 56.18 10.8 
z
" style="fill: #ffffff"/>
   </g>
   <g id="matplotlib.axis_1">
    <g id="xtick_1">
     <g id="line2d_1">
      <defs>
       <path id="m6deefe711d" d="M 0 0 
L 0 3.5 
" style="stroke: #000000; stroke-width: 0.8"/>
      </defs>
      <g>
       <use xlink:href="#m6deefe711d" x="56.18" y="116.44" style="stroke: #000000; stroke-width: 0.8"/>
      </g>
     </g>
     <g id="text_1">
      <!-- 0 -->
      <g transform="translate(52.99875 131.038437) scale(0.1 -0.1)">
       <defs>
        <path id="DejaVuSans-30" d="M 2034 4250 
Q 1547 4250 1301 3770 
Q 1056 3291 1056 2328 
Q 1056 1369 1301 889 
Q 1547 409 2034 409 
Q 2525 409 2770 889 
Q 3016 1369 3016 2328 
Q 3016 3291 2770 3770 
Q 2525 4250 2034 4250 
z
M 2034 4750 
Q 2819 4750 3233 4129 
Q 3647 3509 3647 2328 
Q 3647 1150 3233 529 
Q 2819 -91 2034 -91 
Q 1250 -91 836 529 
Q 422 1150 422 2328 
Q 422 3509 836 4129 
Q 1250 4750 2034 4750 
z
" transform="scale(0.015625)"/>
       </defs>
       <use xlink:href="#DejaVuSans-30"/>
      </g>
     </g>
    </g>
    <g id="xtick_2">
     <g id="line2d_2">
      <g>
       <use xlink:href="#m6deefe711d" x="105.594292" y="116.44" style="stroke: #000000; stroke-width: 0.8"/>
      </g>
     </g>
     <g id="text_2">
      <!-- 2500 -->
      <g transform="translate(92.869292 131.038437) scale(0.1 -0.1)">
       <defs>
        <path id="DejaVuSans-32" d="M 1228 531 
L 3431 531 
L 3431 0 
L 469 0 
L 469 531 
Q 828 903 1448 1529 
Q 2069 2156 2228 2338 
Q 2531 2678 2651 2914 
Q 2772 3150 2772 3378 
Q 2772 3750 2511 3984 
Q 2250 4219 1831 4219 
Q 1534 4219 1204 4116 
Q 875 4013 500 3803 
L 500 4441 
Q 881 4594 1212 4672 
Q 1544 4750 1819 4750 
Q 2544 4750 2975 4387 
Q 3406 4025 3406 3419 
Q 3406 3131 3298 2873 
Q 3191 2616 2906 2266 
Q 2828 2175 2409 1742 
Q 1991 1309 1228 531 
z
" transform="scale(0.015625)"/>
        <path id="DejaVuSans-35" d="M 691 4666 
L 3169 4666 
L 3169 4134 
L 1269 4134 
L 1269 2991 
Q 1406 3038 1543 3061 
Q 1681 3084 1819 3084 
Q 2600 3084 3056 2656 
Q 3513 2228 3513 1497 
Q 3513 744 3044 326 
Q 2575 -91 1722 -91 
Q 1428 -91 1123 -41 
Q 819 9 494 109 
L 494 744 
Q 775 591 1075 516 
Q 1375 441 1709 441 
Q 2250 441 2565 725 
Q 2881 1009 2881 1497 
Q 2881 1984 2565 2268 
Q 2250 2553 1709 2553 
Q 1456 2553 1204 2497 
Q 953 2441 691 2322 
L 691 4666 
z
" transform="scale(0.015625)"/>
       </defs>
       <use xlink:href="#DejaVuSans-32"/>
       <use xlink:href="#DejaVuSans-35" x="63.623047"/>
       <use xlink:href="#DejaVuSans-30" x="127.246094"/>
       <use xlink:href="#DejaVuSans-30" x="190.869141"/>
      </g>
     </g>
    </g>
    <g id="xtick_3">
     <g id="line2d_3">
      <g>
       <use xlink:href="#m6deefe711d" x="155.008584" y="116.44" style="stroke: #000000; stroke-width: 0.8"/>
      </g>
     </g>
     <g id="text_3">
      <!-- 5000 -->
      <g transform="translate(142.283584 131.038437) scale(0.1 -0.1)">
       <use xlink:href="#DejaVuSans-35"/>
       <use xlink:href="#DejaVuSans-30" x="63.623047"/>
       <use xlink:href="#DejaVuSans-30" x="127.246094"/>
       <use xlink:href="#DejaVuSans-30" x="190.869141"/>
      </g>
     </g>
    </g>
    <g id="xtick_4">
     <g id="line2d_4">
      <g>
       <use xlink:href="#m6deefe711d" x="204.422877" y="116.44" style="stroke: #000000; stroke-width: 0.8"/>
      </g>
     </g>
     <g id="text_4">
      <!-- 7500 -->
      <g transform="translate(191.697877 131.038437) scale(0.1 -0.1)">
       <defs>
        <path id="DejaVuSans-37" d="M 525 4666 
L 3525 4666 
L 3525 4397 
L 1831 0 
L 1172 0 
L 2766 4134 
L 525 4134 
L 525 4666 
z
" transform="scale(0.015625)"/>
       </defs>
       <use xlink:href="#DejaVuSans-37"/>
       <use xlink:href="#DejaVuSans-35" x="63.623047"/>
       <use xlink:href="#DejaVuSans-30" x="127.246094"/>
       <use xlink:href="#DejaVuSans-30" x="190.869141"/>
      </g>
     </g>
    </g>
    <g id="xtick_5">
     <g id="line2d_5">
      <g>
       <use xlink:href="#m6deefe711d" x="253.837169" y="116.44" style="stroke: #000000; stroke-width: 0.8"/>
      </g>
     </g>
     <g id="text_5">
      <!-- 10000 -->
      <g transform="translate(237.930919 131.038437) scale(0.1 -0.1)">
       <defs>
        <path id="DejaVuSans-31" d="M 794 531 
L 1825 531 
L 1825 4091 
L 703 3866 
L 703 4441 
L 1819 4666 
L 2450 4666 
L 2450 531 
L 3481 531 
L 3481 0 
L 794 0 
L 794 531 
z
" transform="scale(0.015625)"/>
       </defs>
       <use xlink:href="#DejaVuSans-31"/>
       <use xlink:href="#DejaVuSans-30" x="63.623047"/>
       <use xlink:href="#DejaVuSans-30" x="127.246094"/>
       <use xlink:href="#DejaVuSans-30" x="190.869141"/>
       <use xlink:href="#DejaVuSans-30" x="254.492188"/>
      </g>
     </g>
    </g>
    <g id="xtick_6">
     <g id="line2d_6">
      <g>
       <use xlink:href="#m6deefe711d" x="303.251461" y="116.44" style="stroke: #000000; stroke-width: 0.8"/>
      </g>
     </g>
     <g id="text_6">
      <!-- 12500 -->
      <g transform="translate(287.345211 131.038437) scale(0.1 -0.1)">
       <use xlink:href="#DejaVuSans-31"/>
       <use xlink:href="#DejaVuSans-32" x="63.623047"/>
       <use xlink:href="#DejaVuSans-35" x="127.246094"/>
       <use xlink:href="#DejaVuSans-30" x="190.869141"/>
       <use xlink:href="#DejaVuSans-30" x="254.492188"/>
      </g>
     </g>
    </g>
    <g id="xtick_7">
     <g id="line2d_7">
      <g>
       <use xlink:href="#m6deefe711d" x="352.665753" y="116.44" style="stroke: #000000; stroke-width: 0.8"/>
      </g>
     </g>
     <g id="text_7">
      <!-- 15000 -->
      <g transform="translate(336.759503 131.038437) scale(0.1 -0.1)">
       <use xlink:href="#DejaVuSans-31"/>
       <use xlink:href="#DejaVuSans-35" x="63.623047"/>
       <use xlink:href="#DejaVuSans-30" x="127.246094"/>
       <use xlink:href="#DejaVuSans-30" x="190.869141"/>
       <use xlink:href="#DejaVuSans-30" x="254.492188"/>
      </g>
     </g>
    </g>
    <g id="xtick_8">
     <g id="line2d_8">
      <g>
       <use xlink:href="#m6deefe711d" x="402.080045" y="116.44" style="stroke: #000000; stroke-width: 0.8"/>
      </g>
     </g>
     <g id="text_8">
      <!-- 17500 -->
      <g transform="translate(386.173795 131.038437) scale(0.1 -0.1)">
       <use xlink:href="#DejaVuSans-31"/>
       <use xlink:href="#DejaVuSans-37" x="63.623047"/>
       <use xlink:href="#DejaVuSans-35" x="127.246094"/>
       <use xlink:href="#DejaVuSans-30" x="190.869141"/>
       <use xlink:href="#DejaVuSans-30" x="254.492188"/>
      </g>
     </g>
    </g>
    <g id="xtick_9">
     <g id="line2d_9">
      <g>
       <use xlink:href="#m6deefe711d" x="451.494337" y="116.44" style="stroke: #000000; stroke-width: 0.8"/>
      </g>
     </g>
     <g id="text_9">
      <!-- 20000 -->
      <g transform="translate(435.588087 131.038437) scale(0.1 -0.1)">
       <use xlink:href="#DejaVuSans-32"/>
       <use xlink:href="#DejaVuSans-30" x="63.623047"/>
       <use xlink:href="#DejaVuSans-30" x="127.246094"/>
       <use xlink:href="#DejaVuSans-30" x="190.869141"/>
       <use xlink:href="#DejaVuSans-30" x="254.492188"/>
      </g>
     </g>
    </g>
    <g id="text_10">
     <!-- Time (ms) -->
     <g transform="translate(249.490781 144.716562) scale(0.1 -0.1)">
      <defs>
       <path id="DejaVuSans-54" d="M -19 4666 
L 3928 4666 
L 3928 4134 
L 2272 4134 
L 2272 0 
L 1638 0 
L 1638 4134 
L -19 4134 
L -19 4666 
z
" transform="scale(0.015625)"/>
       <path id="DejaVuSans-69" d="M 603 3500 
L 1178 3500 
L 1178 0 
L 603 0 
L 603 3500 
z
M 603 4863 
L 1178 4863 
L 1178 4134 
L 603 4134 
L 603 4863 
z
" transform="scale(0.015625)"/>
       <path id="DejaVuSans-6d" d="M 3328 2828 
Q 3544 3216 3844 3400 
Q 4144 3584 4550 3584 
Q 5097 3584 5394 3201 
Q 5691 2819 5691 2113 
L 5691 0 
L 5113 0 
L 5113 2094 
Q 5113 2597 4934 2840 
Q 4756 3084 4391 3084 
Q 3944 3084 3684 2787 
Q 3425 2491 3425 1978 
L 3425 0 
L 2847 0 
L 2847 2094 
Q 2847 2600 2669 2842 
Q 2491 3084 2119 3084 
Q 1678 3084 1418 2786 
Q 1159 2488 1159 1978 
L 1159 0 
L 581 0 
L 581 3500 
L 1159 3500 
L 1159 2956 
Q 1356 3278 1631 3431 
Q 1906 3584 2284 3584 
Q 2666 3584 2933 3390 
Q 3200 3197 3328 2828 
z
" transform="scale(0.015625)"/>
       <path id="DejaVuSans-65" d="M 3597 1894 
L 3597 1613 
L 953 1613 
Q 991 1019 1311 708 
Q 1631 397 2203 397 
Q 2534 397 2845 478 
Q 3156 559 3463 722 
L 3463 178 
Q 3153 47 2828 -22 
Q 2503 -91 2169 -91 
Q 1331 -91 842 396 
Q 353 884 353 1716 
Q 353 2575 817 3079 
Q 1281 3584 2069 3584 
Q 2775 3584 3186 3129 
Q 3597 2675 3597 1894 
z
M 3022 2063 
Q 3016 2534 2758 2815 
Q 2500 3097 2075 3097 
Q 1594 3097 1305 2825 
Q 1016 2553 972 2059 
L 3022 2063 
z
" transform="scale(0.015625)"/>
       <path id="DejaVuSans-20" transform="scale(0.015625)"/>
       <path id="DejaVuSans-28" d="M 1984 4856 
Q 1566 4138 1362 3434 
Q 1159 2731 1159 2009 
Q 1159 1288 1364 580 
Q 1569 -128 1984 -844 
L 1484 -844 
Q 1016 -109 783 600 
Q 550 1309 550 2009 
Q 550 2706 781 3412 
Q 1013 4119 1484 4856 
L 1984 4856 
z
" transform="scale(0.015625)"/>
       <path id="DejaVuSans-73" d="M 2834 3397 
L 2834 2853 
Q 2591 2978 2328 3040 
Q 2066 3103 1784 3103 
Q 1356 3103 1142 2972 
Q 928 2841 928 2578 
Q 928 2378 1081 2264 
Q 1234 2150 1697 2047 
L 1894 2003 
Q 2506 1872 2764 1633 
Q 3022 1394 3022 966 
Q 3022 478 2636 193 
Q 2250 -91 1575 -91 
Q 1294 -91 989 -36 
Q 684 19 347 128 
L 347 722 
Q 666 556 975 473 
Q 1284 391 1588 391 
Q 1994 391 2212 530 
Q 2431 669 2431 922 
Q 2431 1156 2273 1281 
Q 2116 1406 1581 1522 
L 1381 1569 
Q 847 1681 609 1914 
Q 372 2147 372 2553 
Q 372 3047 722 3315 
Q 1072 3584 1716 3584 
Q 2034 3584 2315 3537 
Q 2597 3491 2834 3397 
z
" transform="scale(0.015625)"/>
       <path id="DejaVuSans-29" d="M 513 4856 
L 1013 4856 
Q 1481 4119 1714 3412 
Q 1947 2706 1947 2009 
Q 1947 1309 1714 600 
Q 1481 -109 1013 -844 
L 513 -844 
Q 928 -128 1133 580 
Q 1338 1288 1338 2009 
Q 1338 2731 1133 3434 
Q 928 4138 513 4856 
z
" transform="scale(0.015625)"/>
      </defs>
      <use xlink:href="#DejaVuSans-54"/>
      <use xlink:href="#DejaVuSans-69" x="57.958984"/>
      <use xlink:href="#DejaVuSans-6d" x="85.742188"/>
      <use xlink:href="#DejaVuSans-65" x="183.154297"/>
      <use xlink:href="#DejaVuSans-20" x="244.677734"/>
      <use xlink:href="#DejaVuSans-28" x="276.464844"/>
      <use xlink:href="#DejaVuSans-6d" x="315.478516"/>
      <use xlink:href="#DejaVuSans-73" x="412.890625"/>
      <use xlink:href="#DejaVuSans-29" x="464.990234"/>
     </g>
    </g>
   </g>
   <g id="matplotlib.axis_2">
    <g id="ytick_1">
     <g id="line2d_10">
      <defs>
       <path id="m4c57e9d177" d="M 0 0 
L -3.5 0 
" style="stroke: #000000; stroke-width: 0.8"/>
      </defs>
      <g>
       <use xlink:href="#m4c57e9d177" x="56.18" y="111.638182" style="stroke: #000000; stroke-width: 0.8"/>
      </g>
     </g>
     <g id="text_11">
      <!-- −1.0 -->
      <g transform="translate(24.897188 115.437401) scale(0.1 -0.1)">
       <defs>
        <path id="DejaVuSans-2212" d="M 678 2272 
L 4684 2272 
L 4684 1741 
L 678 1741 
L 678 2272 
z
" transform="scale(0.015625)"/>
        <path id="DejaVuSans-2e" d="M 684 794 
L 1344 794 
L 1344 0 
L 684 0 
L 684 794 
z
" transform="scale(0.015625)"/>
       </defs>
       <use xlink:href="#DejaVuSans-2212"/>
       <use xlink:href="#DejaVuSans-31" x="83.789062"/>
       <use xlink:href="#DejaVuSans-2e" x="147.412109"/>
       <use xlink:href="#DejaVuSans-30" x="179.199219"/>
      </g>
     </g>
    </g>
    <g id="ytick_2">
     <g id="line2d_11">
      <g>
       <use xlink:href="#m4c57e9d177" x="56.18" y="87.629091" style="stroke: #000000; stroke-width: 0.8"/>
      </g>
     </g>
     <g id="text_12">
      <!-- −0.5 -->
      <g transform="translate(24.897188 91.42831) scale(0.1 -0.1)">
       <use xlink:href="#DejaVuSans-2212"/>
       <use xlink:href="#DejaVuSans-30" x="83.789062"/>
       <use xlink:href="#DejaVuSans-2e" x="147.412109"/>
       <use xlink:href="#DejaVuSans-35" x="179.199219"/>
      </g>
     </g>
    </g>
    <g id="ytick_3">
     <g id="line2d_12">
      <g>
       <use xlink:href="#m4c57e9d177" x="56.18" y="63.62" style="stroke: #000000; stroke-width: 0.8"/>
      </g>
     </g>
     <g id="text_13">
      <!-- 0.0 -->
      <g transform="translate(33.276875 67.419219) scale(0.1 -0.1)">
       <use xlink:href="#DejaVuSans-30"/>
       <use xlink:href="#DejaVuSans-2e" x="63.623047"/>
       <use xlink:href="#DejaVuSans-30" x="95.410156"/>
      </g>
     </g>
    </g>
    <g id="ytick_4">
     <g id="line2d_13">
      <g>
       <use xlink:href="#m4c57e9d177" x="56.18" y="39.610909" style="stroke: #000000; stroke-width: 0.8"/>
      </g>
     </g>
     <g id="text_14">
      <!-- 0.5 -->
      <g transform="translate(33.276875 43.410128) scale(0.1 -0.1)">
       <use xlink:href="#DejaVuSans-30"/>
       <use xlink:href="#DejaVuSans-2e" x="63.623047"/>
       <use xlink:href="#DejaVuSans-35" x="95.410156"/>
      </g>
     </g>
    </g>
    <g id="ytick_5">
     <g id="line2d_14">
      <g>
       <use xlink:href="#m4c57e9d177" x="56.18" y="15.601818" style="stroke: #000000; stroke-width: 0.8"/>
      </g>
     </g>
     <g id="text_15">
      <!-- 1.0 -->
      <g transform="translate(33.276875 19.401037) scale(0.1 -0.1)">
       <use xlink:href="#DejaVuSans-31"/>
       <use xlink:href="#DejaVuSans-2e" x="63.623047"/>
       <use xlink:href="#DejaVuSans-30" x="95.410156"/>
      </g>
     </g>
    </g>
    <g id="text_16">
     <!-- X-Axis Value -->
     <g transform="translate(18.8175 94.180156) rotate(-90) scale(0.1 -0.1)">
      <defs>
       <path id="DejaVuSans-58" d="M 403 4666 
L 1081 4666 
L 2241 2931 
L 3406 4666 
L 4084 4666 
L 2584 2425 
L 4184 0 
L 3506 0 
L 2194 1984 
L 872 0 
L 191 0 
L 1856 2491 
L 403 4666 
z
" transform="scale(0.015625)"/>
       <path id="DejaVuSans-2d" d="M 313 2009 
L 1997 2009 
L 1997 1497 
L 313 1497 
L 313 2009 
z
" transform="scale(0.015625)"/>
       <path id="DejaVuSans-41" d="M 2188 4044 
L 1331 1722 
L 3047 1722 
L 2188 4044 
z
M 1831 4666 
L 2547 4666 
L 4325 0 
L 3669 0 
L 3244 1197 
L 1141 1197 
L 716 0 
L 50 0 
L 1831 4666 
z
" transform="scale(0.015625)"/>
       <path id="DejaVuSans-78" d="M 3513 3500 
L 2247 1797 
L 3578 0 
L 2900 0 
L 1881 1375 
L 863 0 
L 184 0 
L 1544 1831 
L 300 3500 
L 978 3500 
L 1906 2253 
L 2834 3500 
L 3513 3500 
z
" transform="scale(0.015625)"/>
       <path id="DejaVuSans-56" d="M 1831 0 
L 50 4666 
L 709 4666 
L 2188 738 
L 3669 4666 
L 4325 4666 
L 2547 0 
L 1831 0 
z
" transform="scale(0.015625)"/>
       <path id="DejaVuSans-61" d="M 2194 1759 
Q 1497 1759 1228 1600 
Q 959 1441 959 1056 
Q 959 750 1161 570 
Q 1363 391 1709 391 
Q 2188 391 2477 730 
Q 2766 1069 2766 1631 
L 2766 1759 
L 2194 1759 
z
M 3341 1997 
L 3341 0 
L 2766 0 
L 2766 531 
Q 2569 213 2275 61 
Q 1981 -91 1556 -91 
Q 1019 -91 701 211 
Q 384 513 384 1019 
Q 384 1609 779 1909 
Q 1175 2209 1959 2209 
L 2766 2209 
L 2766 2266 
Q 2766 2663 2505 2880 
Q 2244 3097 1772 3097 
Q 1472 3097 1187 3025 
Q 903 2953 641 2809 
L 641 3341 
Q 956 3463 1253 3523 
Q 1550 3584 1831 3584 
Q 2591 3584 2966 3190 
Q 3341 2797 3341 1997 
z
" transform="scale(0.015625)"/>
       <path id="DejaVuSans-6c" d="M 603 4863 
L 1178 4863 
L 1178 0 
L 603 0 
L 603 4863 
z
" transform="scale(0.015625)"/>
       <path id="DejaVuSans-75" d="M 544 1381 
L 544 3500 
L 1119 3500 
L 1119 1403 
Q 1119 906 1312 657 
Q 1506 409 1894 409 
Q 2359 409 2629 706 
Q 2900 1003 2900 1516 
L 2900 3500 
L 3475 3500 
L 3475 0 
L 2900 0 
L 2900 538 
Q 2691 219 2414 64 
Q 2138 -91 1772 -91 
Q 1169 -91 856 284 
Q 544 659 544 1381 
z
M 1991 3584 
L 1991 3584 
z
" transform="scale(0.015625)"/>
      </defs>
      <use xlink:href="#DejaVuSans-58"/>
      <use xlink:href="#DejaVuSans-2d" x="63.505859"/>
      <use xlink:href="#DejaVuSans-41" x="97.339844"/>
      <use xlink:href="#DejaVuSans-78" x="165.748047"/>
      <use xlink:href="#DejaVuSans-69" x="224.927734"/>
      <use xlink:href="#DejaVuSans-73" x="252.710938"/>
      <use xlink:href="#DejaVuSans-20" x="304.810547"/>
      <use xlink:href="#DejaVuSans-56" x="336.597656"/>
      <use xlink:href="#DejaVuSans-61" x="397.255859"/>
      <use xlink:href="#DejaVuSans-6c" x="458.535156"/>
      <use xlink:href="#DejaVuSans-75" x="486.318359"/>
      <use xlink:href="#DejaVuSans-65" x="549.697266"/>
     </g>
    </g>
   </g>
   <g id="line2d_15">
    <path d="M 56.18 65.060545 
L 56.575314 65.060545 
L 56.772972 66.020909 
L 56.970629 65.060545 
L 57.365943 65.060545 
L 57.5636 64.580364 
L 57.761257 65.060545 
L 57.958915 65.060545 
L 58.156572 64.580364 
L 58.354229 65.060545 
L 58.551886 65.060545 
L 58.749543 64.580364 
L 58.9472 64.580364 
L 59.144858 65.060545 
L 59.342515 65.060545 
L 59.540172 64.580364 
L 59.737829 65.060545 
L 63.493315 65.060545 
L 63.690972 64.580364 
L 63.88863 65.060545 
L 67.248801 65.060545 
L 67.446459 64.580364 
L 67.644116 65.060545 
L 67.841773 64.580364 
L 68.03943 65.060545 
L 68.237087 64.580364 
L 68.434744 64.580364 
L 68.632402 65.060545 
L 71.992573 65.060545 
L 72.190231 64.580364 
L 72.387888 66.020909 
L 72.585545 65.060545 
L 72.783202 65.060545 
L 72.980859 64.580364 
L 73.178517 65.060545 
L 75.945717 65.060545 
L 76.143374 64.580364 
L 76.341031 65.060545 
L 77.13166 65.060545 
L 77.329317 64.580364 
L 77.526974 65.060545 
L 78.119946 65.060545 
L 78.317603 64.580364 
L 78.51526 65.060545 
L 79.89886 65.060545 
L 80.096517 64.580364 
L 80.294175 64.580364 
L 80.491832 65.060545 
L 80.689489 64.580364 
L 80.887146 65.060545 
L 81.084803 67.461455 
L 81.28246 65.060545 
L 81.480118 65.060545 
L 81.875432 64.100182 
L 82.073089 65.060545 
L 82.270746 64.580364 
L 82.468403 65.060545 
L 84.642632 65.060545 
L 84.840289 64.580364 
L 85.037947 64.580364 
L 85.235604 65.060545 
L 88.200461 65.060545 
L 88.398118 64.580364 
L 88.595776 64.580364 
L 88.793433 65.060545 
L 89.584062 65.060545 
L 89.781719 66.020909 
L 89.979376 65.060545 
L 92.153605 65.060545 
L 92.351262 64.580364 
L 92.548919 65.060545 
L 92.746576 65.060545 
L 92.944233 64.580364 
L 93.141891 65.060545 
L 96.69972 65.060545 
L 96.897377 65.540727 
L 97.095034 65.060545 
L 102.23412 65.060545 
L 102.431777 65.540727 
L 102.629435 65.540727 
L 102.827092 65.060545 
L 103.024749 65.060545 
L 103.222406 65.540727 
L 103.420063 65.060545 
L 104.408349 65.060545 
L 104.606006 65.540727 
L 104.803664 65.060545 
L 107.17555 65.060545 
L 107.373207 65.540727 
L 107.570864 65.060545 
L 109.547436 65.060545 
L 109.745093 66.981273 
L 109.94275 65.060545 
L 111.524007 65.060545 
L 111.721664 63.139818 
L 111.919322 65.060545 
L 112.512293 65.060545 
L 112.70995 65.540727 
L 112.907607 65.060545 
L 116.267779 65.060545 
L 116.465436 65.540727 
L 116.663094 65.060545 
L 116.860751 65.540727 
L 117.453722 65.540727 
L 117.651379 65.060545 
L 126.941266 65.060545 
L 127.138924 65.540727 
L 127.336581 65.060545 
L 130.696753 65.060545 
L 130.89441 65.540727 
L 131.092067 65.060545 
L 131.487381 65.060545 
L 131.685038 65.540727 
L 131.882696 65.060545 
L 136.42881 65.060545 
L 136.626468 65.540727 
L 137.614754 65.540727 
L 137.812411 65.060545 
L 139.393668 65.060545 
L 139.591325 64.100182 
L 140.381954 42.972182 
L 140.777268 33.368545 
L 141.172583 21.844182 
L 141.37024 16.082 
L 141.963211 16.082 
L 142.160868 16.562182 
L 142.358526 16.082 
L 143.149154 16.082 
L 143.346811 16.562182 
L 143.544469 16.082 
L 143.939783 16.082 
L 144.13744 15.601818 
L 144.335097 16.082 
L 144.730412 16.082 
L 144.928069 15.601818 
L 145.125726 16.082 
L 145.916355 16.082 
L 146.114012 15.601818 
L 146.311669 16.082 
L 147.102298 16.082 
L 147.299955 15.601818 
L 147.497612 16.082 
L 147.695269 15.601818 
L 147.892926 16.082 
L 149.671841 16.082 
L 149.869498 15.601818 
L 150.067155 16.082 
L 150.264812 16.082 
L 150.462469 16.562182 
L 150.660127 16.082 
L 151.84607 16.082 
L 152.043727 16.562182 
L 152.241384 16.082 
L 152.636698 16.082 
L 152.834355 16.562182 
L 153.032013 16.082 
L 154.020299 16.082 
L 154.217956 16.562182 
L 154.415613 16.082 
L 157.775785 16.082 
L 157.973442 15.601818 
L 158.171099 16.082 
L 159.159385 16.082 
L 159.357042 15.601818 
L 159.554699 16.082 
L 160.147671 16.082 
L 160.345328 15.601818 
L 160.542985 16.082 
L 162.3219 16.082 
L 162.519557 15.601818 
L 162.914871 16.562182 
L 163.112528 16.082 
L 165.484414 16.082 
L 165.682071 16.562182 
L 165.879729 16.562182 
L 166.275043 23.284727 
L 166.4727 24.245091 
L 167.8563 52.095636 
L 168.053957 53.056 
L 168.251615 54.976727 
L 168.844586 65.060545 
L 170.623501 65.060545 
L 170.821158 65.540727 
L 171.611787 65.540727 
L 171.809444 65.060545 
L 172.007101 65.540727 
L 172.204758 65.060545 
L 172.402415 65.060545 
L 172.600072 65.540727 
L 172.995387 65.540727 
L 173.193044 65.060545 
L 173.390701 65.540727 
L 173.588358 65.060545 
L 175.762587 65.060545 
L 175.960244 65.540727 
L 176.157901 65.060545 
L 176.750873 65.060545 
L 176.94853 65.540727 
L 177.146187 65.060545 
L 177.343844 65.060545 
L 177.541502 65.540727 
L 177.739159 65.060545 
L 180.704016 65.060545 
L 180.901673 65.540727 
L 181.099331 65.060545 
L 181.692302 65.060545 
L 181.889959 66.981273 
L 182.087616 65.060545 
L 182.878245 65.060545 
L 183.075902 65.540727 
L 183.471217 64.580364 
L 183.668874 65.060545 
L 184.261845 65.060545 
L 184.459502 67.941636 
L 184.65716 65.060545 
L 184.854817 65.060545 
L 185.052474 64.580364 
L 185.250131 65.060545 
L 186.436074 65.060545 
L 186.831389 54.496545 
L 187.622017 30.487455 
L 188.017332 20.403636 
L 188.214989 16.562182 
L 188.412646 16.082 
L 188.610303 16.082 
L 188.80796 15.601818 
L 189.005617 16.082 
L 189.203275 16.082 
L 189.400932 15.601818 
L 189.598589 55.937091 
L 189.796246 37.21 
L 189.993903 38.650545 
L 190.19156 38.170364 
L 190.586875 32.888364 
L 190.982189 37.690182 
L 191.179846 31.447818 
L 191.377503 30.967636 
L 191.575161 30.967636 
L 191.772818 34.809091 
L 191.970475 34.809091 
L 192.168132 31.447818 
L 192.365789 31.928 
L 192.563446 30.967636 
L 192.761104 30.967636 
L 193.156418 32.888364 
L 193.354075 31.447818 
L 193.551732 33.368545 
L 193.749389 30.967636 
L 193.947047 30.007273 
L 194.144704 30.487455 
L 194.342361 30.007273 
L 194.737675 32.888364 
L 194.935332 33.368545 
L 195.330647 33.368545 
L 195.725961 30.967636 
L 195.923618 30.487455 
L 196.121275 29.527091 
L 196.318933 30.007273 
L 196.51659 30.007273 
L 196.714247 29.527091 
L 197.307218 29.527091 
L 197.504876 28.566727 
L 197.702533 30.007273 
L 197.90019 28.566727 
L 198.295504 28.566727 
L 198.493161 29.046909 
L 198.690819 28.566727 
L 199.086133 28.566727 
L 199.28379 29.046909 
L 200.074419 29.046909 
L 200.272076 28.566727 
L 200.469733 29.046909 
L 201.062705 29.046909 
L 201.260362 28.566727 
L 201.458019 29.046909 
L 201.853333 29.046909 
L 202.050991 27.126182 
L 202.248648 29.046909 
L 202.446305 29.527091 
L 202.643962 29.046909 
L 203.236934 29.046909 
L 203.434591 28.566727 
L 203.829905 28.566727 
L 204.027562 29.527091 
L 204.422877 28.566727 
L 205.411162 28.566727 
L 205.60882 29.046909 
L 205.806477 28.566727 
L 206.004134 28.566727 
L 206.201791 30.007273 
L 206.399448 29.527091 
L 206.597105 28.566727 
L 207.387734 28.566727 
L 207.585391 29.046909 
L 207.783048 28.566727 
L 207.980706 28.566727 
L 208.178363 29.046909 
L 208.37602 30.487455 
L 208.573677 30.487455 
L 208.968991 31.447818 
L 209.364306 31.447818 
L 209.561963 21.844182 
L 209.75962 27.126182 
L 209.957277 18.002727 
L 210.154934 16.082 
L 210.945563 16.082 
L 211.14322 15.601818 
L 211.736192 15.601818 
L 211.933849 16.082 
L 212.922135 16.082 
L 213.317449 23.284727 
L 213.515106 24.245091 
L 214.305735 39.610909 
L 214.503392 40.571273 
L 214.898706 49.694727 
L 215.886992 65.060545 
L 218.654193 65.060545 
L 218.85185 64.580364 
L 219.049507 65.060545 
L 220.433107 65.060545 
L 220.630764 64.580364 
L 220.828422 65.060545 
L 221.61905 65.060545 
L 221.816707 65.540727 
L 222.014365 65.060545 
L 222.212022 65.540727 
L 222.409679 65.060545 
L 222.607336 65.060545 
L 222.804993 65.540727 
L 223.00265 65.540727 
L 223.200308 65.060545 
L 223.793279 65.060545 
L 223.990936 65.540727 
L 224.188593 65.060545 
L 225.967508 65.060545 
L 226.165165 65.540727 
L 226.362822 65.060545 
L 227.153451 65.060545 
L 227.351108 65.540727 
L 227.548765 65.060545 
L 227.94408 65.060545 
L 228.141737 64.100182 
L 228.339394 65.060545 
L 228.734708 65.060545 
L 228.932365 65.540727 
L 229.130023 65.060545 
L 229.722994 65.060545 
L 229.920651 65.540727 
L 230.118308 65.060545 
L 230.315966 65.060545 
L 230.513623 67.461455 
L 230.71128 65.060545 
L 230.908937 65.540727 
L 231.106594 65.540727 
L 231.304251 65.060545 
L 231.699566 65.060545 
L 231.897223 65.540727 
L 232.09488 65.540727 
L 232.292537 65.060545 
L 234.466766 65.060545 
L 234.664423 65.540727 
L 234.862081 65.060545 
L 236.245681 65.060545 
L 236.443338 61.699273 
L 236.640995 54.496545 
L 236.838652 52.095636 
L 237.431624 39.610909 
L 237.629281 37.21 
L 238.024595 23.764909 
L 238.222252 21.364 
L 238.41991 16.082 
L 246.523853 16.082 
L 246.721511 15.601818 
L 246.919168 16.082 
L 247.314482 16.082 
L 247.512139 15.601818 
L 247.709796 16.082 
L 247.907454 15.601818 
L 248.105111 16.082 
L 248.302768 16.082 
L 248.500425 15.601818 
L 248.698082 15.601818 
L 248.895739 16.082 
L 249.093397 16.082 
L 249.291054 15.601818 
L 249.488711 16.082 
L 250.081682 16.082 
L 250.27934 15.601818 
L 250.476997 15.601818 
L 250.674654 16.082 
L 250.872311 16.082 
L 251.069968 15.601818 
L 251.267626 16.082 
L 251.860597 16.082 
L 252.058254 15.601818 
L 252.453569 15.601818 
L 252.651226 16.082 
L 258.185626 16.082 
L 258.383284 15.601818 
L 258.580941 16.082 
L 259.964541 16.082 
L 260.162198 15.601818 
L 260.359855 16.082 
L 260.557512 15.601818 
L 260.75517 15.601818 
L 260.952827 16.082 
L 261.150484 15.601818 
L 261.348141 16.082 
L 262.13877 16.082 
L 262.336427 15.601818 
L 262.534084 16.082 
L 263.720027 16.082 
L 263.917684 16.562182 
L 264.115341 22.804545 
L 264.312999 24.725273 
L 265.103627 38.170364 
L 265.301284 39.610909 
L 265.696599 40.571273 
L 265.894256 42.492 
L 266.28957 49.214545 
L 267.277856 65.060545 
L 272.219285 65.060545 
L 272.416943 65.540727 
L 272.6146 65.540727 
L 272.812257 65.060545 
L 273.207571 65.060545 
L 273.405228 65.540727 
L 273.602886 65.060545 
L 273.800543 65.540727 
L 273.9982 65.060545 
L 274.788829 65.060545 
L 274.986486 65.540727 
L 275.579457 65.540727 
L 275.777114 65.060545 
L 276.7654 65.060545 
L 276.963057 65.540727 
L 277.160715 65.060545 
L 278.939629 65.060545 
L 279.137286 65.540727 
L 279.334943 65.540727 
L 279.532601 65.060545 
L 279.730258 65.060545 
L 279.927915 65.540727 
L 280.125572 65.060545 
L 280.916201 65.060545 
L 281.113858 65.540727 
L 281.706829 65.540727 
L 281.904487 65.060545 
L 282.102144 65.540727 
L 282.299801 65.060545 
L 282.497458 65.540727 
L 282.695115 65.060545 
L 282.892773 65.060545 
L 283.09043 65.540727 
L 283.288087 65.060545 
L 287.438887 65.060545 
L 287.636545 65.540727 
L 287.834202 65.060545 
L 288.031859 65.540727 
L 288.229516 65.060545 
L 290.601402 65.060545 
L 290.799059 64.580364 
L 290.996716 65.060545 
L 291.985002 65.060545 
L 292.182659 62.659636 
L 292.380317 65.060545 
L 294.752203 65.060545 
L 294.94986 66.981273 
L 295.147517 65.060545 
L 298.507689 65.060545 
L 298.705346 64.580364 
L 298.903003 65.060545 
L 299.10066 64.580364 
L 299.298318 65.060545 
L 299.693632 65.060545 
L 299.891289 64.580364 
L 300.088946 65.540727 
L 300.286603 65.060545 
L 303.449118 65.060545 
L 303.646775 64.580364 
L 303.844432 65.060545 
L 311.948376 65.060545 
L 312.146033 65.540727 
L 312.343691 65.060545 
L 314.715577 65.060545 
L 314.913234 64.580364 
L 315.110891 65.060545 
L 315.308548 65.060545 
L 315.506205 65.540727 
L 315.90152 65.540727 
L 316.099177 65.060545 
L 316.296834 65.540727 
L 316.494491 65.540727 
L 316.692148 65.060545 
L 316.889806 65.540727 
L 317.087463 65.060545 
L 317.28512 65.060545 
L 317.482777 65.540727 
L 317.680434 65.060545 
L 317.878091 65.540727 
L 318.075749 65.540727 
L 318.273406 65.060545 
L 318.471063 65.060545 
L 318.66872 65.540727 
L 318.866377 65.060545 
L 319.064034 66.501091 
L 319.261692 65.060545 
L 326.37735 65.060545 
L 326.575007 64.580364 
L 326.772664 65.060545 
L 329.737521 65.060545 
L 329.935179 65.540727 
L 330.132836 65.060545 
L 330.330493 65.060545 
L 330.52815 65.540727 
L 330.725807 65.060545 
L 330.923464 65.540727 
L 331.516436 65.540727 
L 331.714093 65.060545 
L 332.702379 65.060545 
L 332.900036 67.941636 
L 333.690665 85.228182 
L 334.678951 101.074182 
L 335.271922 111.638182 
L 336.062551 111.638182 
L 336.260208 111.158 
L 336.457865 111.638182 
L 358.002497 111.638182 
L 358.200154 111.158 
L 358.793125 104.435455 
L 359.18844 102.034545 
L 359.386097 101.554364 
L 360.374383 88.589455 
L 361.560326 70.342545 
L 361.757983 65.540727 
L 361.95564 65.060545 
L 362.153297 65.060545 
L 362.350954 65.540727 
L 362.548611 65.060545 
L 362.746269 65.540727 
L 362.943926 65.060545 
L 363.33924 65.060545 
L 363.536897 64.580364 
L 363.734555 65.060545 
L 365.118155 65.060545 
L 365.315812 65.540727 
L 365.513469 65.060545 
L 372.629127 65.060545 
L 372.826784 64.580364 
L 373.024441 65.060545 
L 373.419756 65.060545 
L 373.617413 65.540727 
L 373.81507 65.060545 
L 376.58227 65.060545 
L 376.779928 65.540727 
L 376.977585 65.060545 
L 377.372899 65.060545 
L 377.570556 65.540727 
L 377.768213 65.060545 
L 378.163528 65.060545 
L 378.361185 66.501091 
L 378.558842 65.540727 
L 378.756499 66.020909 
L 378.954156 65.540727 
L 379.151814 65.540727 
L 379.349471 65.060545 
L 379.942442 65.060545 
L 380.1401 67.461455 
L 380.535414 73.223636 
L 380.733071 74.664182 
L 382.511986 111.638182 
L 385.872157 111.638182 
L 386.069815 110.677818 
L 386.267472 111.638182 
L 391.99953 111.638182 
L 392.197187 111.158 
L 392.394844 111.638182 
L 407.614446 111.638182 
L 408.00976 106.356182 
L 408.998046 88.589455 
L 409.986332 77.065091 
L 410.183989 75.624545 
L 410.381646 73.223636 
L 410.579303 72.263273 
L 411.369932 65.060545 
L 422.241076 65.060545 
L 422.438734 66.020909 
L 422.636391 65.060545 
L 424.019991 65.060545 
L 424.217648 63.62 
L 424.415305 65.060545 
L 428.368449 65.060545 
L 428.566106 63.62 
L 428.96142 72.743455 
L 429.554392 81.386727 
L 429.752049 82.827273 
L 430.147363 87.148909 
L 430.740335 91.950727 
L 430.937992 95.792182 
L 431.135649 96.752545 
L 431.926278 111.158 
L 432.123935 111.638182 
L 445.564622 111.638182 
L 445.76228 111.158 
L 445.959937 111.638182 
L 456.040452 111.638182 
L 456.238109 111.158 
L 457.226395 101.554364 
L 457.62171 96.272364 
L 459.202967 73.223636 
L 459.400624 66.020909 
L 459.598281 65.060545 
L 459.795938 65.060545 
L 459.993596 65.540727 
L 460.191253 65.060545 
L 460.38891 65.540727 
L 460.586567 65.060545 
L 460.784224 65.540727 
L 460.981882 65.060545 
L 461.179539 65.540727 
L 461.574853 65.540727 
L 461.77251 65.060545 
L 462.167825 65.060545 
L 462.365482 65.540727 
L 462.563139 65.060545 
L 462.958453 65.060545 
L 463.15611 65.540727 
L 463.353768 65.540727 
L 463.551425 65.060545 
L 463.946739 65.060545 
L 464.144396 65.540727 
L 464.539711 64.580364 
L 464.737368 65.060545 
L 468.295197 65.060545 
L 468.492854 66.020909 
L 468.690511 65.060545 
L 472.643654 65.060545 
L 472.841312 63.62 
L 473.038969 65.060545 
L 476.794455 65.060545 
L 476.992112 65.540727 
L 477.189769 65.060545 
L 481.538227 65.060545 
L 481.735884 65.540727 
L 481.933541 65.060545 
L 483.514799 65.060545 
L 483.712456 64.580364 
L 483.910113 65.060545 
L 484.700742 65.060545 
L 484.898399 64.580364 
L 485.096056 65.060545 
L 492.607028 65.060545 
L 492.804686 65.540727 
L 493.002343 64.580364 
L 493.2 65.060545 
L 493.2 65.060545 
" clip-path="url(#p637ea0b182)" style="fill: none; stroke: #1f77b4; stroke-width: 1.5; stroke-linecap: square"/>
   </g>
   <g id="line2d_16">
    <path d="M 56.18 63.62 
L 493.2 63.62 
" clip-path="url(#p637ea0b182)" style="fill: none; stroke-dasharray: 2.96,1.28; stroke-dashoffset: 0; stroke: #808080; stroke-width: 0.8"/>
   </g>
   <g id="patch_3">
    <path d="M 56.18 116.44 
L 56.18 10.8 
" style="fill: none; stroke: #000000; stroke-width: 0.8; stroke-linejoin: miter; stroke-linecap: square"/>
   </g>
   <g id="patch_4">
    <path d="M 56.18 116.44 
L 493.2 116.44 
" style="fill: none; stroke: #000000; stroke-width: 0.8; stroke-linejoin: miter; stroke-linecap: square"/>
   </g>
  </g>
  <g id="axes_2">
   <g id="patch_5">
    <path d="M 56.18 264.04 
L 493.2 264.04 
L 493.2 158.4 
L 56.18 158.4 
z
" style="fill: #ffffff"/>
   </g>
   <g id="matplotlib.axis_3">
    <g id="xtick_10">
     <g id="line2d_17">
      <g>
       <use xlink:href="#m6deefe711d" x="56.18" y="264.04" style="stroke: #000000; stroke-width: 0.8"/>
      </g>
     </g>
     <g id="text_17">
      <!-- 0 -->
      <g transform="translate(52.99875 278.638438) scale(0.1 -0.1)">
       <use xlink:href="#DejaVuSans-30"/>
      </g>
     </g>
    </g>
    <g id="xtick_11">
     <g id="line2d_18">
      <g>
       <use xlink:href="#m6deefe711d" x="105.594292" y="264.04" style="stroke: #000000; stroke-width: 0.8"/>
      </g>
     </g>
     <g id="text_18">
      <!-- 2500 -->
      <g transform="translate(92.869292 278.638438) scale(0.1 -0.1)">
       <use xlink:href="#DejaVuSans-32"/>
       <use xlink:href="#DejaVuSans-35" x="63.623047"/>
       <use xlink:href="#DejaVuSans-30" x="127.246094"/>
       <use xlink:href="#DejaVuSans-30" x="190.869141"/>
      </g>
     </g>
    </g>
    <g id="xtick_12">
     <g id="line2d_19">
      <g>
       <use xlink:href="#m6deefe711d" x="155.008584" y="264.04" style="stroke: #000000; stroke-width: 0.8"/>
      </g>
     </g>
     <g id="text_19">
      <!-- 5000 -->
      <g transform="translate(142.283584 278.638438) scale(0.1 -0.1)">
       <use xlink:href="#DejaVuSans-35"/>
       <use xlink:href="#DejaVuSans-30" x="63.623047"/>
       <use xlink:href="#DejaVuSans-30" x="127.246094"/>
       <use xlink:href="#DejaVuSans-30" x="190.869141"/>
      </g>
     </g>
    </g>
    <g id="xtick_13">
     <g id="line2d_20">
      <g>
       <use xlink:href="#m6deefe711d" x="204.422877" y="264.04" style="stroke: #000000; stroke-width: 0.8"/>
      </g>
     </g>
     <g id="text_20">
      <!-- 7500 -->
      <g transform="translate(191.697877 278.638438) scale(0.1 -0.1)">
       <use xlink:href="#DejaVuSans-37"/>
       <use xlink:href="#DejaVuSans-35" x="63.623047"/>
       <use xlink:href="#DejaVuSans-30" x="127.246094"/>
       <use xlink:href="#DejaVuSans-30" x="190.869141"/>
      </g>
     </g>
    </g>
    <g id="xtick_14">
     <g id="line2d_21">
      <g>
       <use xlink:href="#m6deefe711d" x="253.837169" y="264.04" style="stroke: #000000; stroke-width: 0.8"/>
      </g>
     </g>
     <g id="text_21">
      <!-- 10000 -->
      <g transform="translate(237.930919 278.638438) scale(0.1 -0.1)">
       <use xlink:href="#DejaVuSans-31"/>
       <use xlink:href="#DejaVuSans-30" x="63.623047"/>
       <use xlink:href="#DejaVuSans-30" x="127.246094"/>
       <use xlink:href="#DejaVuSans-30" x="190.869141"/>
       <use xlink:href="#DejaVuSans-30" x="254.492188"/>
      </g>
     </g>
    </g>
    <g id="xtick_15">
     <g id="line2d_22">
      <g>
       <use xlink:href="#m6deefe711d" x="303.251461" y="264.04" style="stroke: #000000; stroke-width: 0.8"/>
      </g>
     </g>
     <g id="text_22">
      <!-- 12500 -->
      <g transform="translate(287.345211 278.638438) scale(0.1 -0.1)">
       <use xlink:href="#DejaVuSans-31"/>
       <use xlink:href="#DejaVuSans-32" x="63.623047"/>
       <use xlink:href="#DejaVuSans-35" x="127.246094"/>
       <use xlink:href="#DejaVuSans-30" x="190.869141"/>
       <use xlink:href="#DejaVuSans-30" x="254.492188"/>
      </g>
     </g>
    </g>
    <g id="xtick_16">
     <g id="line2d_23">
      <g>
       <use xlink:href="#m6deefe711d" x="352.665753" y="264.04" style="stroke: #000000; stroke-width: 0.8"/>
      </g>
     </g>
     <g id="text_23">
      <!-- 15000 -->
      <g transform="translate(336.759503 278.638438) scale(0.1 -0.1)">
       <use xlink:href="#DejaVuSans-31"/>
       <use xlink:href="#DejaVuSans-35" x="63.623047"/>
       <use xlink:href="#DejaVuSans-30" x="127.246094"/>
       <use xlink:href="#DejaVuSans-30" x="190.869141"/>
       <use xlink:href="#DejaVuSans-30" x="254.492188"/>
      </g>
     </g>
    </g>
    <g id="xtick_17">
     <g id="line2d_24">
      <g>
       <use xlink:href="#m6deefe711d" x="402.080045" y="264.04" style="stroke: #000000; stroke-width: 0.8"/>
      </g>
     </g>
     <g id="text_24">
      <!-- 17500 -->
      <g transform="translate(386.173795 278.638438) scale(0.1 -0.1)">
       <use xlink:href="#DejaVuSans-31"/>
       <use xlink:href="#DejaVuSans-37" x="63.623047"/>
       <use xlink:href="#DejaVuSans-35" x="127.246094"/>
       <use xlink:href="#DejaVuSans-30" x="190.869141"/>
       <use xlink:href="#DejaVuSans-30" x="254.492188"/>
      </g>
     </g>
    </g>
    <g id="xtick_18">
     <g id="line2d_25">
      <g>
       <use xlink:href="#m6deefe711d" x="451.494337" y="264.04" style="stroke: #000000; stroke-width: 0.8"/>
      </g>
     </g>
     <g id="text_25">
      <!-- 20000 -->
      <g transform="translate(435.588087 278.638438) scale(0.1 -0.1)">
       <use xlink:href="#DejaVuSans-32"/>
       <use xlink:href="#DejaVuSans-30" x="63.623047"/>
       <use xlink:href="#DejaVuSans-30" x="127.246094"/>
       <use xlink:href="#DejaVuSans-30" x="190.869141"/>
       <use xlink:href="#DejaVuSans-30" x="254.492188"/>
      </g>
     </g>
    </g>
    <g id="text_26">
     <!-- Time (ms) -->
     <g transform="translate(249.490781 292.316563) scale(0.1 -0.1)">
      <use xlink:href="#DejaVuSans-54"/>
      <use xlink:href="#DejaVuSans-69" x="57.958984"/>
      <use xlink:href="#DejaVuSans-6d" x="85.742188"/>
      <use xlink:href="#DejaVuSans-65" x="183.154297"/>
      <use xlink:href="#DejaVuSans-20" x="244.677734"/>
      <use xlink:href="#DejaVuSans-28" x="276.464844"/>
      <use xlink:href="#DejaVuSans-6d" x="315.478516"/>
      <use xlink:href="#DejaVuSans-73" x="412.890625"/>
      <use xlink:href="#DejaVuSans-29" x="464.990234"/>
     </g>
    </g>
   </g>
   <g id="matplotlib.axis_4">
    <g id="ytick_6">
     <g id="line2d_26">
      <g>
       <use xlink:href="#m4c57e9d177" x="56.18" y="259.238182" style="stroke: #000000; stroke-width: 0.8"/>
      </g>
     </g>
     <g id="text_27">
      <!-- −1.0 -->
      <g transform="translate(24.897188 263.037401) scale(0.1 -0.1)">
       <use xlink:href="#DejaVuSans-2212"/>
       <use xlink:href="#DejaVuSans-31" x="83.789062"/>
       <use xlink:href="#DejaVuSans-2e" x="147.412109"/>
       <use xlink:href="#DejaVuSans-30" x="179.199219"/>
      </g>
     </g>
    </g>
    <g id="ytick_7">
     <g id="line2d_27">
      <g>
       <use xlink:href="#m4c57e9d177" x="56.18" y="235.229091" style="stroke: #000000; stroke-width: 0.8"/>
      </g>
     </g>
     <g id="text_28">
      <!-- −0.5 -->
      <g transform="translate(24.897188 239.02831) scale(0.1 -0.1)">
       <use xlink:href="#DejaVuSans-2212"/>
       <use xlink:href="#DejaVuSans-30" x="83.789062"/>
       <use xlink:href="#DejaVuSans-2e" x="147.412109"/>
       <use xlink:href="#DejaVuSans-35" x="179.199219"/>
      </g>
     </g>
    </g>
    <g id="ytick_8">
     <g id="line2d_28">
      <g>
       <use xlink:href="#m4c57e9d177" x="56.18" y="211.22" style="stroke: #000000; stroke-width: 0.8"/>
      </g>
     </g>
     <g id="text_29">
      <!-- 0.0 -->
      <g transform="translate(33.276875 215.019219) scale(0.1 -0.1)">
       <use xlink:href="#DejaVuSans-30"/>
       <use xlink:href="#DejaVuSans-2e" x="63.623047"/>
       <use xlink:href="#DejaVuSans-30" x="95.410156"/>
      </g>
     </g>
    </g>
    <g id="ytick_9">
     <g id="line2d_29">
      <g>
       <use xlink:href="#m4c57e9d177" x="56.18" y="187.210909" style="stroke: #000000; stroke-width: 0.8"/>
      </g>
     </g>
     <g id="text_30">
      <!-- 0.5 -->
      <g transform="translate(33.276875 191.010128) scale(0.1 -0.1)">
       <use xlink:href="#DejaVuSans-30"/>
       <use xlink:href="#DejaVuSans-2e" x="63.623047"/>
       <use xlink:href="#DejaVuSans-35" x="95.410156"/>
      </g>
     </g>
    </g>
    <g id="ytick_10">
     <g id="line2d_30">
      <g>
       <use xlink:href="#m4c57e9d177" x="56.18" y="163.201818" style="stroke: #000000; stroke-width: 0.8"/>
      </g>
     </g>
     <g id="text_31">
      <!-- 1.0 -->
      <g transform="translate(33.276875 167.001037) scale(0.1 -0.1)">
       <use xlink:href="#DejaVuSans-31"/>
       <use xlink:href="#DejaVuSans-2e" x="63.623047"/>
       <use xlink:href="#DejaVuSans-30" x="95.410156"/>
      </g>
     </g>
    </g>
    <g id="text_32">
     <!-- Y-Axis Value -->
     <g transform="translate(18.8175 241.065313) rotate(-90) scale(0.1 -0.1)">
      <defs>
       <path id="DejaVuSans-59" d="M -13 4666 
L 666 4666 
L 1959 2747 
L 3244 4666 
L 3922 4666 
L 2272 2222 
L 2272 0 
L 1638 0 
L 1638 2222 
L -13 4666 
z
" transform="scale(0.015625)"/>
      </defs>
      <use xlink:href="#DejaVuSans-59"/>
      <use xlink:href="#DejaVuSans-2d" x="49.208984"/>
      <use xlink:href="#DejaVuSans-41" x="83.042969"/>
      <use xlink:href="#DejaVuSans-78" x="151.451172"/>
      <use xlink:href="#DejaVuSans-69" x="210.630859"/>
      <use xlink:href="#DejaVuSans-73" x="238.414062"/>
      <use xlink:href="#DejaVuSans-20" x="290.513672"/>
      <use xlink:href="#DejaVuSans-56" x="322.300781"/>
      <use xlink:href="#DejaVuSans-61" x="382.958984"/>
      <use xlink:href="#DejaVuSans-6c" x="444.238281"/>
      <use xlink:href="#DejaVuSans-75" x="472.021484"/>
      <use xlink:href="#DejaVuSans-65" x="535.400391"/>
     </g>
    </g>
   </g>
   <g id="line2d_31">
    <path d="M 56.18 209.779455 
L 60.528458 209.779455 
L 60.726115 210.259636 
L 60.923772 209.779455 
L 61.912058 209.779455 
L 62.109715 210.259636 
L 62.307372 209.779455 
L 62.702687 209.779455 
L 62.900344 210.739818 
L 63.098001 209.779455 
L 70.80663 209.779455 
L 71.004288 210.259636 
L 71.201945 209.779455 
L 84.247318 209.779455 
L 84.444975 210.259636 
L 84.642632 209.779455 
L 89.979376 209.779455 
L 90.177033 210.259636 
L 90.37469 209.779455 
L 92.944233 209.779455 
L 93.141891 207.378545 
L 94.327834 183.849636 
L 94.920805 174.726182 
L 95.118462 174.246 
L 95.316119 171.364909 
L 95.711434 163.682 
L 96.106748 163.682 
L 96.304405 163.201818 
L 96.502062 163.682 
L 96.69972 163.682 
L 96.897377 163.201818 
L 97.095034 163.682 
L 98.478634 163.682 
L 98.676291 163.201818 
L 98.873948 163.682 
L 100.455206 163.682 
L 100.652863 164.162182 
L 100.85052 163.682 
L 102.431777 163.682 
L 102.629435 164.642364 
L 102.827092 163.682 
L 103.222406 163.682 
L 103.420063 164.162182 
L 103.61772 163.682 
L 105.396635 163.682 
L 105.594292 163.201818 
L 105.791949 163.682 
L 106.977892 163.682 
L 107.17555 163.201818 
L 107.373207 163.682 
L 107.768521 163.682 
L 107.966178 163.201818 
L 108.163835 163.682 
L 108.361493 163.201818 
L 108.55915 163.682 
L 108.756807 163.201818 
L 108.954464 164.162182 
L 109.152121 163.682 
L 109.745093 163.682 
L 109.94275 163.201818 
L 110.140407 163.682 
L 111.32635 163.682 
L 111.524007 163.201818 
L 111.721664 163.682 
L 115.081836 163.682 
L 115.279493 163.201818 
L 115.477151 163.682 
L 115.872465 163.682 
L 116.070122 165.602727 
L 116.465436 172.805455 
L 116.663094 174.246 
L 116.860751 176.646909 
L 118.046694 209.779455 
L 124.964695 209.779455 
L 125.162352 210.259636 
L 125.360009 209.779455 
L 139.591325 209.779455 
L 141.172583 170.884727 
L 141.37024 163.682 
L 141.765554 163.682 
L 141.963211 163.201818 
L 142.160868 163.682 
L 143.939783 163.682 
L 144.13744 163.201818 
L 144.335097 163.682 
L 144.532754 163.682 
L 144.730412 163.201818 
L 144.928069 163.682 
L 147.299955 163.682 
L 147.497612 163.201818 
L 147.695269 163.682 
L 148.090583 163.682 
L 148.288241 163.201818 
L 148.485898 163.682 
L 148.683555 163.201818 
L 148.881212 163.682 
L 149.474184 163.682 
L 149.671841 163.201818 
L 149.869498 163.201818 
L 150.067155 163.682 
L 151.648412 163.682 
L 151.84607 164.162182 
L 152.043727 163.682 
L 153.22967 163.682 
L 153.427327 164.162182 
L 153.624984 163.682 
L 157.182813 163.682 
L 157.38047 164.162182 
L 157.775785 163.201818 
L 157.973442 163.682 
L 158.368756 163.682 
L 158.566413 163.201818 
L 158.764071 163.201818 
L 158.961728 163.682 
L 159.159385 163.682 
L 159.357042 163.201818 
L 159.950014 163.201818 
L 160.147671 163.682 
L 160.345328 163.682 
L 160.542985 163.201818 
L 160.740642 163.682 
L 160.938299 163.201818 
L 161.135957 163.682 
L 161.333614 163.201818 
L 161.531271 163.682 
L 166.077386 163.682 
L 166.275043 164.162182 
L 166.868014 175.206364 
L 167.065672 177.607273 
L 167.460986 183.849636 
L 168.053957 191.532545 
L 168.646929 197.774909 
L 169.2399 209.779455 
L 186.238417 209.779455 
L 186.436074 209.299273 
L 186.633731 209.779455 
L 190.784532 209.779455 
L 190.982189 208.819091 
L 191.179846 209.779455 
L 192.958761 209.779455 
L 193.156418 210.259636 
L 193.354075 209.779455 
L 196.318933 209.779455 
L 196.51659 209.299273 
L 196.714247 209.779455 
L 197.504876 209.779455 
L 197.702533 208.819091 
L 197.90019 209.779455 
L 198.493161 209.779455 
L 198.690819 210.259636 
L 198.888476 209.779455 
L 203.829905 209.779455 
L 204.027562 209.299273 
L 204.225219 209.779455 
L 210.945563 209.779455 
L 211.14322 209.299273 
L 211.340877 209.779455 
L 213.515106 209.779455 
L 213.712763 210.259636 
L 213.910421 209.779455 
L 223.595622 209.779455 
L 223.793279 210.259636 
L 223.990936 209.779455 
L 236.245681 209.779455 
L 236.443338 213.140727 
L 237.036309 226.585818 
L 237.629281 241.951636 
L 238.222252 259.238182 
L 261.348141 259.238182 
L 261.545798 258.277818 
L 261.743455 259.238182 
L 264.312999 259.238182 
L 264.90597 252.515636 
L 265.696599 246.273273 
L 266.28957 236.669636 
L 266.882542 226.105636 
L 267.870828 215.061455 
L 268.463799 209.779455 
L 270.242714 209.779455 
L 270.440371 210.259636 
L 270.638028 209.779455 
L 284.078716 209.779455 
L 284.276373 209.299273 
L 284.47403 209.779455 
L 285.462316 209.779455 
L 285.659973 212.180364 
L 286.450602 242.912 
L 286.845916 259.238182 
L 290.996716 259.238182 
L 291.194374 258.758 
L 291.392031 259.238182 
L 298.507689 259.238182 
L 298.705346 257.797636 
L 298.903003 259.238182 
L 305.623347 259.238182 
L 305.821004 258.758 
L 306.018661 259.238182 
L 309.181176 259.238182 
L 309.378833 258.758 
L 309.57649 259.238182 
L 313.529634 259.238182 
L 313.727291 258.277818 
L 315.703863 220.823636 
L 315.90152 219.863273 
L 316.296834 215.061455 
L 316.494491 211.22 
L 316.692148 209.779455 
L 317.680434 209.779455 
L 317.878091 210.259636 
L 318.075749 209.779455 
L 321.040606 209.779455 
L 321.238263 210.259636 
L 321.43592 209.779455 
L 332.900036 209.779455 
L 334.283636 243.872364 
L 335.074265 259.238182 
L 360.176725 259.238182 
L 360.374383 258.758 
L 361.165011 246.753455 
L 362.548611 228.026364 
L 362.943926 222.264182 
L 363.536897 210.259636 
L 363.734555 209.779455 
L 368.675984 209.779455 
L 368.873641 210.259636 
L 369.071298 209.779455 
L 373.024441 209.779455 
L 373.222099 210.259636 
L 373.419756 209.779455 
L 373.617413 209.779455 
L 373.81507 210.259636 
L 374.012727 209.779455 
L 374.210384 210.739818 
L 374.605699 209.779455 
L 378.756499 209.779455 
L 378.954156 210.259636 
L 379.151814 209.779455 
L 383.895586 209.779455 
L 384.093243 210.259636 
L 384.2909 209.779455 
L 384.488557 210.259636 
L 384.883872 210.259636 
L 385.081529 209.779455 
L 385.279186 209.779455 
L 385.476843 210.259636 
L 385.6745 209.779455 
L 395.755016 209.779455 
L 395.952673 210.259636 
L 396.15033 209.779455 
L 399.510502 209.779455 
L 399.708159 210.259636 
L 399.905816 209.779455 
L 401.289417 209.779455 
L 401.487074 209.299273 
L 401.684731 209.779455 
L 406.428503 209.779455 
L 406.62616 209.299273 
L 406.823817 209.779455 
L 408.998046 209.779455 
L 409.195703 210.259636 
L 409.39336 209.779455 
L 415.323076 209.779455 
L 415.520733 210.739818 
L 415.71839 209.779455 
L 423.427019 209.779455 
L 423.624677 210.259636 
L 423.822334 209.779455 
L 429.356735 209.779455 
L 429.949706 198.735273 
L 430.34502 190.572182 
L 431.135649 174.246 
L 431.530963 163.682 
L 432.123935 163.682 
L 432.321592 163.201818 
L 432.519249 163.682 
L 432.716906 163.682 
L 432.914564 164.162182 
L 433.112221 163.682 
L 433.902849 163.682 
L 434.100507 164.162182 
L 434.298164 163.682 
L 435.28645 163.682 
L 435.484107 164.162182 
L 435.681764 163.201818 
L 435.879421 163.682 
L 438.251307 163.682 
L 438.448964 164.162182 
L 438.646621 163.682 
L 439.239593 163.682 
L 439.43725 163.201818 
L 439.634907 163.682 
L 442.006793 163.682 
L 442.20445 163.201818 
L 442.402108 163.682 
L 442.599765 163.201818 
L 442.797422 163.682 
L 444.576336 163.682 
L 444.773994 163.201818 
L 444.971651 163.682 
L 446.552908 163.682 
L 446.750565 164.642364 
L 446.948223 163.682 
L 448.52948 163.682 
L 448.727137 164.162182 
L 448.924794 163.682 
L 453.273252 163.682 
L 453.470909 163.201818 
L 453.668566 163.201818 
L 453.866223 163.682 
L 454.063881 163.682 
L 454.261538 163.201818 
L 454.459195 163.201818 
L 454.656852 163.682 
L 454.854509 163.682 
L 455.052166 163.201818 
L 455.249824 163.682 
L 457.819367 163.682 
L 458.017024 164.162182 
L 458.412338 173.765818 
L 458.609995 175.206364 
L 459.00531 181.928909 
L 459.202967 186.250545 
L 459.795938 209.779455 
L 463.15611 209.779455 
L 463.353768 210.259636 
L 463.551425 209.779455 
L 464.737368 209.779455 
L 464.935025 209.299273 
L 465.132682 209.779455 
L 472.643654 209.779455 
L 472.841312 209.299273 
L 473.038969 209.779455 
L 477.782741 209.779455 
L 477.980398 210.259636 
L 478.178055 209.779455 
L 491.421085 209.779455 
L 491.618743 209.299273 
L 491.8164 209.779455 
L 493.2 209.779455 
L 493.2 209.779455 
" clip-path="url(#p14f8c90668)" style="fill: none; stroke: #1f77b4; stroke-width: 1.5; stroke-linecap: square"/>
   </g>
   <g id="line2d_32">
    <path d="M 56.18 211.22 
L 493.2 211.22 
" clip-path="url(#p14f8c90668)" style="fill: none; stroke-dasharray: 2.96,1.28; stroke-dashoffset: 0; stroke: #808080; stroke-width: 0.8"/>
   </g>
   <g id="patch_6">
    <path d="M 56.18 264.04 
L 56.18 158.4 
" style="fill: none; stroke: #000000; stroke-width: 0.8; stroke-linejoin: miter; stroke-linecap: square"/>
   </g>
   <g id="patch_7">
    <path d="M 56.18 264.04 
L 493.2 264.04 
" style="fill: none; stroke: #000000; stroke-width: 0.8; stroke-linejoin: miter; stroke-linecap: square"/>
   </g>
  </g>
 </g>
 <defs>
  <clipPath id="p637ea0b182">
   <rect x="56.18" y="10.8" width="437.02" height="105.64"/>
  </clipPath>
  <clipPath id="p14f8c90668">
   <rect x="56.18" y="158.4" width="437.02" height="105.64"/>
  </clipPath>
 </defs>
</svg>
