<?xml version="1.0" encoding="utf-8" standalone="no"?>
<!DOCTYPE svg PUBLIC "-//W3C//DTD SVG 1.1//EN"
  "http://www.w3.org/Graphics/SVG/1.1/DTD/svg11.dtd">
<svg xmlns:xlink="http://www.w3.org/1999/xlink" width="504pt" height="306pt" viewBox="0 0 504 306" xmlns="http://www.w3.org/2000/svg" version="1.1">
 <metadata>
  <rdf:RDF xmlns:dc="http://purl.org/dc/elements/1.1/" xmlns:cc="http://creativecommons.org/ns#" xmlns:rdf="http://www.w3.org/1999/02/22-rdf-syntax-ns#">
   <cc:Work>
    <dc:type rdf:resource="http://purl.org/dc/dcmitype/StillImage"/>
    <dc:date>2024-06-16T23:01:55.477731</dc:date>
    <dc:format>image/svg+xml</dc:format>
    <dc:creator>
     <cc:Agent>
      <dc:title>Matplotlib v3.8.3, https://matplotlib.org/</dc:title>
     </cc:Agent>
    </dc:creator>
   </cc:Work>
  </rdf:RDF>
 </metadata>
 <defs>
  <style type="text/css">*{stroke-linejoin: round; stroke-linecap: butt}</style>
 </defs>
 <g id="figure_1">
  <g id="patch_1">
   <path d="M 0 306 
L 504 306 
L 504 0 
L 0 0 
z
" style="fill: #ffffff"/>
  </g>
  <g id="axes_1">
   <g id="patch_2">
    <path d="M 56.18 116.44 
L 493.2 116.44 
L 493.2 10.8 
L 56.18 10.8 
z
" style="fill: #ffffff"/>
   </g>
   <g id="matplotlib.axis_1">
    <g id="xtick_1">
     <g id="line2d_1">
      <defs>
       <path id="m64b06ce158" d="M 0 0 
L 0 3.5 
" style="stroke: #000000; stroke-width: 0.8"/>
      </defs>
      <g>
       <use xlink:href="#m64b06ce158" x="56.18" y="116.44" style="stroke: #000000; stroke-width: 0.8"/>
      </g>
     </g>
     <g id="text_1">
      <!-- 0 -->
      <g transform="translate(52.99875 131.038437) scale(0.1 -0.1)">
       <defs>
        <path id="DejaVuSans-30" d="M 2034 4250 
Q 1547 4250 1301 3770 
Q 1056 3291 1056 2328 
Q 1056 1369 1301 889 
Q 1547 409 2034 409 
Q 2525 409 2770 889 
Q 3016 1369 3016 2328 
Q 3016 3291 2770 3770 
Q 2525 4250 2034 4250 
z
M 2034 4750 
Q 2819 4750 3233 4129 
Q 3647 3509 3647 2328 
Q 3647 1150 3233 529 
Q 2819 -91 2034 -91 
Q 1250 -91 836 529 
Q 422 1150 422 2328 
Q 422 3509 836 4129 
Q 1250 4750 2034 4750 
z
" transform="scale(0.015625)"/>
       </defs>
       <use xlink:href="#DejaVuSans-30"/>
      </g>
     </g>
    </g>
    <g id="xtick_2">
     <g id="line2d_2">
      <g>
       <use xlink:href="#m64b06ce158" x="133.323866" y="116.44" style="stroke: #000000; stroke-width: 0.8"/>
      </g>
     </g>
     <g id="text_2">
      <!-- 2000 -->
      <g transform="translate(120.598866 131.038437) scale(0.1 -0.1)">
       <defs>
        <path id="DejaVuSans-32" d="M 1228 531 
L 3431 531 
L 3431 0 
L 469 0 
L 469 531 
Q 828 903 1448 1529 
Q 2069 2156 2228 2338 
Q 2531 2678 2651 2914 
Q 2772 3150 2772 3378 
Q 2772 3750 2511 3984 
Q 2250 4219 1831 4219 
Q 1534 4219 1204 4116 
Q 875 4013 500 3803 
L 500 4441 
Q 881 4594 1212 4672 
Q 1544 4750 1819 4750 
Q 2544 4750 2975 4387 
Q 3406 4025 3406 3419 
Q 3406 3131 3298 2873 
Q 3191 2616 2906 2266 
Q 2828 2175 2409 1742 
Q 1991 1309 1228 531 
z
" transform="scale(0.015625)"/>
       </defs>
       <use xlink:href="#DejaVuSans-32"/>
       <use xlink:href="#DejaVuSans-30" x="63.623047"/>
       <use xlink:href="#DejaVuSans-30" x="127.246094"/>
       <use xlink:href="#DejaVuSans-30" x="190.869141"/>
      </g>
     </g>
    </g>
    <g id="xtick_3">
     <g id="line2d_3">
      <g>
       <use xlink:href="#m64b06ce158" x="210.467732" y="116.44" style="stroke: #000000; stroke-width: 0.8"/>
      </g>
     </g>
     <g id="text_3">
      <!-- 4000 -->
      <g transform="translate(197.742732 131.038437) scale(0.1 -0.1)">
       <defs>
        <path id="DejaVuSans-34" d="M 2419 4116 
L 825 1625 
L 2419 1625 
L 2419 4116 
z
M 2253 4666 
L 3047 4666 
L 3047 1625 
L 3713 1625 
L 3713 1100 
L 3047 1100 
L 3047 0 
L 2419 0 
L 2419 1100 
L 313 1100 
L 313 1709 
L 2253 4666 
z
" transform="scale(0.015625)"/>
       </defs>
       <use xlink:href="#DejaVuSans-34"/>
       <use xlink:href="#DejaVuSans-30" x="63.623047"/>
       <use xlink:href="#DejaVuSans-30" x="127.246094"/>
       <use xlink:href="#DejaVuSans-30" x="190.869141"/>
      </g>
     </g>
    </g>
    <g id="xtick_4">
     <g id="line2d_4">
      <g>
       <use xlink:href="#m64b06ce158" x="287.611598" y="116.44" style="stroke: #000000; stroke-width: 0.8"/>
      </g>
     </g>
     <g id="text_4">
      <!-- 6000 -->
      <g transform="translate(274.886598 131.038437) scale(0.1 -0.1)">
       <defs>
        <path id="DejaVuSans-36" d="M 2113 2584 
Q 1688 2584 1439 2293 
Q 1191 2003 1191 1497 
Q 1191 994 1439 701 
Q 1688 409 2113 409 
Q 2538 409 2786 701 
Q 3034 994 3034 1497 
Q 3034 2003 2786 2293 
Q 2538 2584 2113 2584 
z
M 3366 4563 
L 3366 3988 
Q 3128 4100 2886 4159 
Q 2644 4219 2406 4219 
Q 1781 4219 1451 3797 
Q 1122 3375 1075 2522 
Q 1259 2794 1537 2939 
Q 1816 3084 2150 3084 
Q 2853 3084 3261 2657 
Q 3669 2231 3669 1497 
Q 3669 778 3244 343 
Q 2819 -91 2113 -91 
Q 1303 -91 875 529 
Q 447 1150 447 2328 
Q 447 3434 972 4092 
Q 1497 4750 2381 4750 
Q 2619 4750 2861 4703 
Q 3103 4656 3366 4563 
z
" transform="scale(0.015625)"/>
       </defs>
       <use xlink:href="#DejaVuSans-36"/>
       <use xlink:href="#DejaVuSans-30" x="63.623047"/>
       <use xlink:href="#DejaVuSans-30" x="127.246094"/>
       <use xlink:href="#DejaVuSans-30" x="190.869141"/>
      </g>
     </g>
    </g>
    <g id="xtick_5">
     <g id="line2d_5">
      <g>
       <use xlink:href="#m64b06ce158" x="364.755463" y="116.44" style="stroke: #000000; stroke-width: 0.8"/>
      </g>
     </g>
     <g id="text_5">
      <!-- 8000 -->
      <g transform="translate(352.030463 131.038437) scale(0.1 -0.1)">
       <defs>
        <path id="DejaVuSans-38" d="M 2034 2216 
Q 1584 2216 1326 1975 
Q 1069 1734 1069 1313 
Q 1069 891 1326 650 
Q 1584 409 2034 409 
Q 2484 409 2743 651 
Q 3003 894 3003 1313 
Q 3003 1734 2745 1975 
Q 2488 2216 2034 2216 
z
M 1403 2484 
Q 997 2584 770 2862 
Q 544 3141 544 3541 
Q 544 4100 942 4425 
Q 1341 4750 2034 4750 
Q 2731 4750 3128 4425 
Q 3525 4100 3525 3541 
Q 3525 3141 3298 2862 
Q 3072 2584 2669 2484 
Q 3125 2378 3379 2068 
Q 3634 1759 3634 1313 
Q 3634 634 3220 271 
Q 2806 -91 2034 -91 
Q 1263 -91 848 271 
Q 434 634 434 1313 
Q 434 1759 690 2068 
Q 947 2378 1403 2484 
z
M 1172 3481 
Q 1172 3119 1398 2916 
Q 1625 2713 2034 2713 
Q 2441 2713 2670 2916 
Q 2900 3119 2900 3481 
Q 2900 3844 2670 4047 
Q 2441 4250 2034 4250 
Q 1625 4250 1398 4047 
Q 1172 3844 1172 3481 
z
" transform="scale(0.015625)"/>
       </defs>
       <use xlink:href="#DejaVuSans-38"/>
       <use xlink:href="#DejaVuSans-30" x="63.623047"/>
       <use xlink:href="#DejaVuSans-30" x="127.246094"/>
       <use xlink:href="#DejaVuSans-30" x="190.869141"/>
      </g>
     </g>
    </g>
    <g id="xtick_6">
     <g id="line2d_6">
      <g>
       <use xlink:href="#m64b06ce158" x="441.899329" y="116.44" style="stroke: #000000; stroke-width: 0.8"/>
      </g>
     </g>
     <g id="text_6">
      <!-- 10000 -->
      <g transform="translate(425.993079 131.038437) scale(0.1 -0.1)">
       <defs>
        <path id="DejaVuSans-31" d="M 794 531 
L 1825 531 
L 1825 4091 
L 703 3866 
L 703 4441 
L 1819 4666 
L 2450 4666 
L 2450 531 
L 3481 531 
L 3481 0 
L 794 0 
L 794 531 
z
" transform="scale(0.015625)"/>
       </defs>
       <use xlink:href="#DejaVuSans-31"/>
       <use xlink:href="#DejaVuSans-30" x="63.623047"/>
       <use xlink:href="#DejaVuSans-30" x="127.246094"/>
       <use xlink:href="#DejaVuSans-30" x="190.869141"/>
       <use xlink:href="#DejaVuSans-30" x="254.492188"/>
      </g>
     </g>
    </g>
    <g id="text_7">
     <!-- Time (ms) -->
     <g transform="translate(249.490781 144.716562) scale(0.1 -0.1)">
      <defs>
       <path id="DejaVuSans-54" d="M -19 4666 
L 3928 4666 
L 3928 4134 
L 2272 4134 
L 2272 0 
L 1638 0 
L 1638 4134 
L -19 4134 
L -19 4666 
z
" transform="scale(0.015625)"/>
       <path id="DejaVuSans-69" d="M 603 3500 
L 1178 3500 
L 1178 0 
L 603 0 
L 603 3500 
z
M 603 4863 
L 1178 4863 
L 1178 4134 
L 603 4134 
L 603 4863 
z
" transform="scale(0.015625)"/>
       <path id="DejaVuSans-6d" d="M 3328 2828 
Q 3544 3216 3844 3400 
Q 4144 3584 4550 3584 
Q 5097 3584 5394 3201 
Q 5691 2819 5691 2113 
L 5691 0 
L 5113 0 
L 5113 2094 
Q 5113 2597 4934 2840 
Q 4756 3084 4391 3084 
Q 3944 3084 3684 2787 
Q 3425 2491 3425 1978 
L 3425 0 
L 2847 0 
L 2847 2094 
Q 2847 2600 2669 2842 
Q 2491 3084 2119 3084 
Q 1678 3084 1418 2786 
Q 1159 2488 1159 1978 
L 1159 0 
L 581 0 
L 581 3500 
L 1159 3500 
L 1159 2956 
Q 1356 3278 1631 3431 
Q 1906 3584 2284 3584 
Q 2666 3584 2933 3390 
Q 3200 3197 3328 2828 
z
" transform="scale(0.015625)"/>
       <path id="DejaVuSans-65" d="M 3597 1894 
L 3597 1613 
L 953 1613 
Q 991 1019 1311 708 
Q 1631 397 2203 397 
Q 2534 397 2845 478 
Q 3156 559 3463 722 
L 3463 178 
Q 3153 47 2828 -22 
Q 2503 -91 2169 -91 
Q 1331 -91 842 396 
Q 353 884 353 1716 
Q 353 2575 817 3079 
Q 1281 3584 2069 3584 
Q 2775 3584 3186 3129 
Q 3597 2675 3597 1894 
z
M 3022 2063 
Q 3016 2534 2758 2815 
Q 2500 3097 2075 3097 
Q 1594 3097 1305 2825 
Q 1016 2553 972 2059 
L 3022 2063 
z
" transform="scale(0.015625)"/>
       <path id="DejaVuSans-20" transform="scale(0.015625)"/>
       <path id="DejaVuSans-28" d="M 1984 4856 
Q 1566 4138 1362 3434 
Q 1159 2731 1159 2009 
Q 1159 1288 1364 580 
Q 1569 -128 1984 -844 
L 1484 -844 
Q 1016 -109 783 600 
Q 550 1309 550 2009 
Q 550 2706 781 3412 
Q 1013 4119 1484 4856 
L 1984 4856 
z
" transform="scale(0.015625)"/>
       <path id="DejaVuSans-73" d="M 2834 3397 
L 2834 2853 
Q 2591 2978 2328 3040 
Q 2066 3103 1784 3103 
Q 1356 3103 1142 2972 
Q 928 2841 928 2578 
Q 928 2378 1081 2264 
Q 1234 2150 1697 2047 
L 1894 2003 
Q 2506 1872 2764 1633 
Q 3022 1394 3022 966 
Q 3022 478 2636 193 
Q 2250 -91 1575 -91 
Q 1294 -91 989 -36 
Q 684 19 347 128 
L 347 722 
Q 666 556 975 473 
Q 1284 391 1588 391 
Q 1994 391 2212 530 
Q 2431 669 2431 922 
Q 2431 1156 2273 1281 
Q 2116 1406 1581 1522 
L 1381 1569 
Q 847 1681 609 1914 
Q 372 2147 372 2553 
Q 372 3047 722 3315 
Q 1072 3584 1716 3584 
Q 2034 3584 2315 3537 
Q 2597 3491 2834 3397 
z
" transform="scale(0.015625)"/>
       <path id="DejaVuSans-29" d="M 513 4856 
L 1013 4856 
Q 1481 4119 1714 3412 
Q 1947 2706 1947 2009 
Q 1947 1309 1714 600 
Q 1481 -109 1013 -844 
L 513 -844 
Q 928 -128 1133 580 
Q 1338 1288 1338 2009 
Q 1338 2731 1133 3434 
Q 928 4138 513 4856 
z
" transform="scale(0.015625)"/>
      </defs>
      <use xlink:href="#DejaVuSans-54"/>
      <use xlink:href="#DejaVuSans-69" x="57.958984"/>
      <use xlink:href="#DejaVuSans-6d" x="85.742188"/>
      <use xlink:href="#DejaVuSans-65" x="183.154297"/>
      <use xlink:href="#DejaVuSans-20" x="244.677734"/>
      <use xlink:href="#DejaVuSans-28" x="276.464844"/>
      <use xlink:href="#DejaVuSans-6d" x="315.478516"/>
      <use xlink:href="#DejaVuSans-73" x="412.890625"/>
      <use xlink:href="#DejaVuSans-29" x="464.990234"/>
     </g>
    </g>
   </g>
   <g id="matplotlib.axis_2">
    <g id="ytick_1">
     <g id="line2d_7">
      <defs>
       <path id="m34dd5c66d8" d="M 0 0 
L -3.5 0 
" style="stroke: #000000; stroke-width: 0.8"/>
      </defs>
      <g>
       <use xlink:href="#m34dd5c66d8" x="56.18" y="111.638182" style="stroke: #000000; stroke-width: 0.8"/>
      </g>
     </g>
     <g id="text_8">
      <!-- −1.0 -->
      <g transform="translate(24.897188 115.437401) scale(0.1 -0.1)">
       <defs>
        <path id="DejaVuSans-2212" d="M 678 2272 
L 4684 2272 
L 4684 1741 
L 678 1741 
L 678 2272 
z
" transform="scale(0.015625)"/>
        <path id="DejaVuSans-2e" d="M 684 794 
L 1344 794 
L 1344 0 
L 684 0 
L 684 794 
z
" transform="scale(0.015625)"/>
       </defs>
       <use xlink:href="#DejaVuSans-2212"/>
       <use xlink:href="#DejaVuSans-31" x="83.789062"/>
       <use xlink:href="#DejaVuSans-2e" x="147.412109"/>
       <use xlink:href="#DejaVuSans-30" x="179.199219"/>
      </g>
     </g>
    </g>
    <g id="ytick_2">
     <g id="line2d_8">
      <g>
       <use xlink:href="#m34dd5c66d8" x="56.18" y="87.629091" style="stroke: #000000; stroke-width: 0.8"/>
      </g>
     </g>
     <g id="text_9">
      <!-- −0.5 -->
      <g transform="translate(24.897188 91.42831) scale(0.1 -0.1)">
       <defs>
        <path id="DejaVuSans-35" d="M 691 4666 
L 3169 4666 
L 3169 4134 
L 1269 4134 
L 1269 2991 
Q 1406 3038 1543 3061 
Q 1681 3084 1819 3084 
Q 2600 3084 3056 2656 
Q 3513 2228 3513 1497 
Q 3513 744 3044 326 
Q 2575 -91 1722 -91 
Q 1428 -91 1123 -41 
Q 819 9 494 109 
L 494 744 
Q 775 591 1075 516 
Q 1375 441 1709 441 
Q 2250 441 2565 725 
Q 2881 1009 2881 1497 
Q 2881 1984 2565 2268 
Q 2250 2553 1709 2553 
Q 1456 2553 1204 2497 
Q 953 2441 691 2322 
L 691 4666 
z
" transform="scale(0.015625)"/>
       </defs>
       <use xlink:href="#DejaVuSans-2212"/>
       <use xlink:href="#DejaVuSans-30" x="83.789062"/>
       <use xlink:href="#DejaVuSans-2e" x="147.412109"/>
       <use xlink:href="#DejaVuSans-35" x="179.199219"/>
      </g>
     </g>
    </g>
    <g id="ytick_3">
     <g id="line2d_9">
      <g>
       <use xlink:href="#m34dd5c66d8" x="56.18" y="63.62" style="stroke: #000000; stroke-width: 0.8"/>
      </g>
     </g>
     <g id="text_10">
      <!-- 0.0 -->
      <g transform="translate(33.276875 67.419219) scale(0.1 -0.1)">
       <use xlink:href="#DejaVuSans-30"/>
       <use xlink:href="#DejaVuSans-2e" x="63.623047"/>
       <use xlink:href="#DejaVuSans-30" x="95.410156"/>
      </g>
     </g>
    </g>
    <g id="ytick_4">
     <g id="line2d_10">
      <g>
       <use xlink:href="#m34dd5c66d8" x="56.18" y="39.610909" style="stroke: #000000; stroke-width: 0.8"/>
      </g>
     </g>
     <g id="text_11">
      <!-- 0.5 -->
      <g transform="translate(33.276875 43.410128) scale(0.1 -0.1)">
       <use xlink:href="#DejaVuSans-30"/>
       <use xlink:href="#DejaVuSans-2e" x="63.623047"/>
       <use xlink:href="#DejaVuSans-35" x="95.410156"/>
      </g>
     </g>
    </g>
    <g id="ytick_5">
     <g id="line2d_11">
      <g>
       <use xlink:href="#m34dd5c66d8" x="56.18" y="15.601818" style="stroke: #000000; stroke-width: 0.8"/>
      </g>
     </g>
     <g id="text_12">
      <!-- 1.0 -->
      <g transform="translate(33.276875 19.401037) scale(0.1 -0.1)">
       <use xlink:href="#DejaVuSans-31"/>
       <use xlink:href="#DejaVuSans-2e" x="63.623047"/>
       <use xlink:href="#DejaVuSans-30" x="95.410156"/>
      </g>
     </g>
    </g>
    <g id="text_13">
     <!-- X-Axis Value -->
     <g transform="translate(18.8175 94.180156) rotate(-90) scale(0.1 -0.1)">
      <defs>
       <path id="DejaVuSans-58" d="M 403 4666 
L 1081 4666 
L 2241 2931 
L 3406 4666 
L 4084 4666 
L 2584 2425 
L 4184 0 
L 3506 0 
L 2194 1984 
L 872 0 
L 191 0 
L 1856 2491 
L 403 4666 
z
" transform="scale(0.015625)"/>
       <path id="DejaVuSans-2d" d="M 313 2009 
L 1997 2009 
L 1997 1497 
L 313 1497 
L 313 2009 
z
" transform="scale(0.015625)"/>
       <path id="DejaVuSans-41" d="M 2188 4044 
L 1331 1722 
L 3047 1722 
L 2188 4044 
z
M 1831 4666 
L 2547 4666 
L 4325 0 
L 3669 0 
L 3244 1197 
L 1141 1197 
L 716 0 
L 50 0 
L 1831 4666 
z
" transform="scale(0.015625)"/>
       <path id="DejaVuSans-78" d="M 3513 3500 
L 2247 1797 
L 3578 0 
L 2900 0 
L 1881 1375 
L 863 0 
L 184 0 
L 1544 1831 
L 300 3500 
L 978 3500 
L 1906 2253 
L 2834 3500 
L 3513 3500 
z
" transform="scale(0.015625)"/>
       <path id="DejaVuSans-56" d="M 1831 0 
L 50 4666 
L 709 4666 
L 2188 738 
L 3669 4666 
L 4325 4666 
L 2547 0 
L 1831 0 
z
" transform="scale(0.015625)"/>
       <path id="DejaVuSans-61" d="M 2194 1759 
Q 1497 1759 1228 1600 
Q 959 1441 959 1056 
Q 959 750 1161 570 
Q 1363 391 1709 391 
Q 2188 391 2477 730 
Q 2766 1069 2766 1631 
L 2766 1759 
L 2194 1759 
z
M 3341 1997 
L 3341 0 
L 2766 0 
L 2766 531 
Q 2569 213 2275 61 
Q 1981 -91 1556 -91 
Q 1019 -91 701 211 
Q 384 513 384 1019 
Q 384 1609 779 1909 
Q 1175 2209 1959 2209 
L 2766 2209 
L 2766 2266 
Q 2766 2663 2505 2880 
Q 2244 3097 1772 3097 
Q 1472 3097 1187 3025 
Q 903 2953 641 2809 
L 641 3341 
Q 956 3463 1253 3523 
Q 1550 3584 1831 3584 
Q 2591 3584 2966 3190 
Q 3341 2797 3341 1997 
z
" transform="scale(0.015625)"/>
       <path id="DejaVuSans-6c" d="M 603 4863 
L 1178 4863 
L 1178 0 
L 603 0 
L 603 4863 
z
" transform="scale(0.015625)"/>
       <path id="DejaVuSans-75" d="M 544 1381 
L 544 3500 
L 1119 3500 
L 1119 1403 
Q 1119 906 1312 657 
Q 1506 409 1894 409 
Q 2359 409 2629 706 
Q 2900 1003 2900 1516 
L 2900 3500 
L 3475 3500 
L 3475 0 
L 2900 0 
L 2900 538 
Q 2691 219 2414 64 
Q 2138 -91 1772 -91 
Q 1169 -91 856 284 
Q 544 659 544 1381 
z
M 1991 3584 
L 1991 3584 
z
" transform="scale(0.015625)"/>
      </defs>
      <use xlink:href="#DejaVuSans-58"/>
      <use xlink:href="#DejaVuSans-2d" x="63.505859"/>
      <use xlink:href="#DejaVuSans-41" x="97.339844"/>
      <use xlink:href="#DejaVuSans-78" x="165.748047"/>
      <use xlink:href="#DejaVuSans-69" x="224.927734"/>
      <use xlink:href="#DejaVuSans-73" x="252.710938"/>
      <use xlink:href="#DejaVuSans-20" x="304.810547"/>
      <use xlink:href="#DejaVuSans-56" x="336.597656"/>
      <use xlink:href="#DejaVuSans-61" x="397.255859"/>
      <use xlink:href="#DejaVuSans-6c" x="458.535156"/>
      <use xlink:href="#DejaVuSans-75" x="486.318359"/>
      <use xlink:href="#DejaVuSans-65" x="549.697266"/>
     </g>
    </g>
   </g>
   <g id="line2d_12">
    <path d="M 56.18 65.060545 
L 56.565719 63.62 
L 56.951439 64.100182 
L 57.337158 65.060545 
L 64.665825 65.060545 
L 65.051545 66.981273 
L 65.437264 65.060545 
L 78.551721 65.060545 
L 78.93744 65.540727 
L 79.32316 65.060545 
L 83.180353 65.060545 
L 83.566072 61.699273 
L 83.951792 65.060545 
L 105.552074 65.060545 
L 105.937793 64.580364 
L 106.323513 65.060545 
L 109.409267 65.060545 
L 109.794987 66.020909 
L 110.180706 65.060545 
L 117.123654 65.060545 
L 117.509373 65.540727 
L 117.895093 65.060545 
L 122.138005 65.060545 
L 122.523725 65.540727 
L 122.909444 64.100182 
L 123.295163 65.060545 
L 147.9812 65.060545 
L 148.36692 65.540727 
L 148.752639 65.060545 
L 154.924148 65.060545 
L 155.309868 65.540727 
L 156.081306 65.540727 
L 156.467026 65.060545 
L 157.624184 65.060545 
L 158.009903 64.100182 
L 158.395622 65.060545 
L 179.610185 65.060545 
L 179.995905 65.540727 
L 180.381624 65.060545 
L 181.538782 65.060545 
L 181.924501 64.100182 
L 182.310221 65.060545 
L 184.238817 65.060545 
L 184.624537 64.580364 
L 185.010256 65.060545 
L 187.324572 65.060545 
L 187.710291 64.580364 
L 188.096011 65.060545 
L 188.48173 64.580364 
L 188.867449 65.060545 
L 191.567485 65.060545 
L 191.953204 63.139818 
L 192.338923 59.778545 
L 193.496081 54.016364 
L 193.881801 53.056 
L 194.26752 51.615455 
L 194.653239 48.734364 
L 195.038959 47.293818 
L 195.424678 46.813636 
L 196.196117 42.492 
L 196.581836 40.571273 
L 196.967555 40.091091 
L 197.353274 40.091091 
L 197.738994 39.610909 
L 198.124713 39.610909 
L 198.510432 38.650545 
L 198.896152 38.650545 
L 199.281871 38.170364 
L 199.66759 38.170364 
L 200.439029 37.21 
L 200.824748 34.328909 
L 201.210468 33.848727 
L 202.753345 30.007273 
L 203.139064 28.566727 
L 203.524784 28.086545 
L 203.910503 27.126182 
L 204.296222 24.245091 
L 204.681942 24.245091 
L 205.8391 22.804545 
L 206.224819 22.804545 
L 206.610538 21.844182 
L 206.996258 21.364 
L 207.767696 19.443273 
L 208.153416 17.522545 
L 208.539135 16.562182 
L 208.924854 16.082 
L 210.082012 16.082 
L 210.467732 16.562182 
L 210.853451 16.082 
L 212.396328 16.082 
L 212.782048 15.601818 
L 213.167767 15.601818 
L 213.553486 18.002727 
L 213.939206 15.601818 
L 214.324925 15.601818 
L 214.710644 16.082 
L 215.096364 16.082 
L 215.482083 16.562182 
L 216.253522 15.601818 
L 216.639241 16.082 
L 217.41068 16.082 
L 217.796399 15.601818 
L 218.953557 15.601818 
L 219.339276 16.082 
L 222.425031 16.082 
L 222.81075 15.601818 
L 223.19647 16.082 
L 225.125066 16.082 
L 225.510786 16.562182 
L 225.896505 16.082 
L 228.59654 16.082 
L 228.982259 16.562182 
L 229.367979 16.082 
L 234.38233 16.082 
L 234.768049 16.562182 
L 235.153769 16.562182 
L 235.925207 23.764909 
L 236.310927 28.086545 
L 236.696646 21.844182 
L 237.082365 21.364 
L 237.468085 21.844182 
L 237.853804 20.883818 
L 238.239523 22.804545 
L 238.625243 21.844182 
L 239.396681 20.883818 
L 239.782401 22.324364 
L 240.16812 22.324364 
L 240.553839 20.883818 
L 240.939559 22.324364 
L 241.325278 20.883818 
L 241.710997 20.403636 
L 242.482436 21.364 
L 242.868155 21.364 
L 243.253875 20.883818 
L 244.025313 20.883818 
L 244.796752 21.844182 
L 245.568191 20.883818 
L 245.95391 21.364 
L 246.339629 20.403636 
L 246.725349 22.804545 
L 247.111068 21.844182 
L 247.496787 21.844182 
L 247.882507 19.923455 
L 248.268226 19.923455 
L 248.653945 18.482909 
L 249.039665 18.963091 
L 249.425384 18.482909 
L 249.811103 18.482909 
L 250.196823 18.002727 
L 250.582542 18.482909 
L 250.968261 19.443273 
L 251.353981 18.482909 
L 251.7397 18.002727 
L 252.511139 18.002727 
L 252.896858 17.522545 
L 253.282577 17.522545 
L 253.668297 16.562182 
L 254.054016 17.522545 
L 254.439735 17.522545 
L 254.825455 16.082 
L 255.211174 16.562182 
L 255.596893 16.082 
L 255.982613 16.562182 
L 256.368332 16.082 
L 258.296929 16.082 
L 258.682648 15.601818 
L 259.068367 16.082 
L 260.225525 16.082 
L 260.611244 15.601818 
L 261.382683 15.601818 
L 261.768402 16.082 
L 264.082718 16.082 
L 264.468438 15.601818 
L 264.854157 16.082 
L 265.239876 16.082 
L 265.625596 15.601818 
L 266.011315 15.601818 
L 266.397034 16.082 
L 268.325631 16.082 
L 268.71135 16.562182 
L 269.09707 16.082 
L 269.482789 16.562182 
L 269.868508 20.403636 
L 270.639947 23.284727 
L 271.411386 24.245091 
L 271.797105 26.646 
L 272.182824 28.086545 
L 273.339982 37.21 
L 273.725702 38.170364 
L 274.111421 38.650545 
L 274.49714 39.610909 
L 275.268579 40.571273 
L 275.654298 40.571273 
L 276.811456 47.774 
L 277.197176 49.214545 
L 277.582895 52.095636 
L 277.968614 52.575818 
L 278.354334 54.496545 
L 278.740053 55.456909 
L 279.125772 58.818182 
L 279.511492 60.258727 
L 280.28293 64.580364 
L 280.66865 65.060545 
L 282.982966 65.060545 
L 283.368685 64.100182 
L 283.754404 65.060545 
L 284.911562 65.060545 
L 285.297282 64.580364 
L 285.683001 65.060545 
L 286.840159 65.060545 
L 287.225878 66.020909 
L 287.611598 65.060545 
L 288.383036 65.060545 
L 288.768756 66.981273 
L 289.154475 70.342545 
L 289.540194 71.783091 
L 289.925914 72.743455 
L 290.311633 73.223636 
L 290.697352 74.184 
L 291.083071 75.624545 
L 291.468791 76.104727 
L 291.85451 78.025455 
L 292.240229 78.505636 
L 292.625949 79.466 
L 293.011668 81.386727 
L 293.783107 83.307455 
L 294.168826 85.708364 
L 294.554545 86.188545 
L 294.940265 87.148909 
L 295.325984 87.629091 
L 295.711703 88.589455 
L 296.097423 90.03 
L 296.483142 90.510182 
L 296.868861 91.470545 
L 298.026019 96.752545 
L 298.411739 98.193091 
L 298.797458 101.074182 
L 299.183177 102.034545 
L 299.568897 105.395818 
L 299.954616 106.836364 
L 300.340335 109.237273 
L 300.726055 110.677818 
L 301.111774 111.638182 
L 355.11248 111.638182 
L 355.498199 111.158 
L 356.655357 105.395818 
L 357.041077 104.435455 
L 357.426796 102.034545 
L 358.198235 101.074182 
L 358.583954 101.074182 
L 358.969673 99.633636 
L 359.355393 99.153455 
L 359.741112 97.712909 
L 360.126831 96.752545 
L 360.512551 96.752545 
L 360.89827 96.272364 
L 361.283989 95.312 
L 361.669709 95.312 
L 362.055428 94.831818 
L 362.441147 93.391273 
L 362.826867 91.470545 
L 363.984025 88.589455 
L 364.369744 87.148909 
L 364.755463 86.188545 
L 365.141183 84.748 
L 365.526902 83.787636 
L 365.912621 82.347091 
L 366.298341 82.827273 
L 366.68406 79.946182 
L 367.069779 78.505636 
L 367.455499 78.505636 
L 367.841218 78.025455 
L 368.226937 76.584909 
L 368.612657 76.104727 
L 369.769815 73.223636 
L 370.155534 73.223636 
L 370.926973 71.302909 
L 371.312692 69.862364 
L 372.084131 65.540727 
L 372.46985 65.060545 
L 379.412798 65.060545 
L 379.798517 66.501091 
L 380.184237 65.060545 
L 384.812868 65.060545 
L 385.198588 65.540727 
L 385.584307 65.060545 
L 392.912974 65.060545 
L 393.298694 64.580364 
L 393.684413 65.060545 
L 397.541606 65.060545 
L 397.927326 68.421818 
L 398.313045 65.060545 
L 406.413151 65.060545 
L 406.79887 64.580364 
L 407.18459 65.060545 
L 411.813222 65.060545 
L 412.198941 64.580364 
L 412.58466 64.580364 
L 412.97038 65.060545 
L 413.356099 65.060545 
L 413.741818 64.580364 
L 414.127538 65.060545 
L 415.284695 65.060545 
L 415.670415 65.540727 
L 416.441853 64.580364 
L 416.827573 65.060545 
L 417.599011 65.060545 
L 417.984731 64.580364 
L 419.527608 64.580364 
L 419.913327 66.501091 
L 420.299047 65.060545 
L 428.013433 65.060545 
L 428.399153 64.580364 
L 428.784872 65.060545 
L 429.170591 64.580364 
L 429.556311 65.060545 
L 431.484907 65.060545 
L 431.870627 64.580364 
L 433.027785 64.580364 
L 433.413504 65.060545 
L 434.570662 65.060545 
L 434.956381 64.580364 
L 435.342101 64.580364 
L 435.72782 65.060545 
L 436.113539 65.060545 
L 436.499259 64.580364 
L 437.270697 64.580364 
L 437.656417 65.060545 
L 438.042136 64.580364 
L 438.427855 64.580364 
L 438.813575 65.060545 
L 439.585013 65.060545 
L 439.970733 64.580364 
L 440.356452 65.060545 
L 440.742171 64.580364 
L 442.285049 64.580364 
L 442.670768 65.060545 
L 443.827926 65.060545 
L 444.213645 64.580364 
L 444.985084 64.580364 
L 445.370803 65.060545 
L 448.456558 65.060545 
L 448.842277 64.580364 
L 449.227996 64.580364 
L 449.613716 65.060545 
L 449.999435 65.060545 
L 450.385154 64.580364 
L 450.770874 65.060545 
L 452.313751 65.060545 
L 452.69947 64.580364 
L 453.08519 65.060545 
L 457.328102 65.060545 
L 457.713822 64.580364 
L 458.87098 64.580364 
L 459.256699 65.060545 
L 460.799576 65.060545 
L 461.185296 64.580364 
L 461.571015 65.060545 
L 461.956734 65.060545 
L 462.342454 64.580364 
L 463.499612 64.580364 
L 463.885331 65.060545 
L 464.27105 64.580364 
L 465.042489 64.580364 
L 465.428208 65.060545 
L 465.813928 64.580364 
L 466.199647 65.060545 
L 466.585366 65.060545 
L 466.971086 64.580364 
L 467.356805 64.580364 
L 467.742524 65.060545 
L 468.128244 64.580364 
L 468.513963 65.060545 
L 468.899682 65.060545 
L 469.285402 64.580364 
L 469.671121 65.060545 
L 470.05684 64.580364 
L 470.44256 65.060545 
L 471.985437 65.060545 
L 472.371156 67.941636 
L 472.756876 65.060545 
L 474.685472 65.060545 
L 475.071192 64.580364 
L 475.456911 65.060545 
L 478.542665 65.060545 
L 478.928385 64.580364 
L 479.314104 65.060545 
L 479.699823 65.060545 
L 480.085543 64.580364 
L 480.471262 65.060545 
L 481.242701 65.060545 
L 481.62842 64.580364 
L 482.014139 64.580364 
L 482.399859 65.060545 
L 483.557017 65.060545 
L 483.942736 64.580364 
L 484.328455 65.060545 
L 484.714175 64.580364 
L 485.099894 65.060545 
L 485.485613 64.580364 
L 486.257052 64.580364 
L 486.642771 65.060545 
L 487.028491 65.060545 
L 487.41421 64.580364 
L 488.185649 64.580364 
L 488.571368 65.060545 
L 490.114245 65.060545 
L 490.499965 64.580364 
L 490.885684 65.060545 
L 491.271403 64.580364 
L 491.657123 65.060545 
L 492.042842 65.060545 
L 492.428561 64.580364 
L 493.2 64.580364 
L 493.2 64.580364 
" clip-path="url(#pe244a19242)" style="fill: none; stroke: #1f77b4; stroke-width: 1.5; stroke-linecap: square"/>
   </g>
   <g id="line2d_13">
    <path d="M 56.18 63.62 
L 493.2 63.62 
" clip-path="url(#pe244a19242)" style="fill: none; stroke-dasharray: 2.96,1.28; stroke-dashoffset: 0; stroke: #808080; stroke-width: 0.8"/>
   </g>
   <g id="patch_3">
    <path d="M 56.18 116.44 
L 56.18 10.8 
" style="fill: none; stroke: #000000; stroke-width: 0.8; stroke-linejoin: miter; stroke-linecap: square"/>
   </g>
   <g id="patch_4">
    <path d="M 56.18 116.44 
L 493.2 116.44 
" style="fill: none; stroke: #000000; stroke-width: 0.8; stroke-linejoin: miter; stroke-linecap: square"/>
   </g>
  </g>
  <g id="axes_2">
   <g id="patch_5">
    <path d="M 56.18 264.04 
L 493.2 264.04 
L 493.2 158.4 
L 56.18 158.4 
z
" style="fill: #ffffff"/>
   </g>
   <g id="matplotlib.axis_3">
    <g id="xtick_7">
     <g id="line2d_14">
      <g>
       <use xlink:href="#m64b06ce158" x="56.18" y="264.04" style="stroke: #000000; stroke-width: 0.8"/>
      </g>
     </g>
     <g id="text_14">
      <!-- 0 -->
      <g transform="translate(52.99875 278.638438) scale(0.1 -0.1)">
       <use xlink:href="#DejaVuSans-30"/>
      </g>
     </g>
    </g>
    <g id="xtick_8">
     <g id="line2d_15">
      <g>
       <use xlink:href="#m64b06ce158" x="133.323866" y="264.04" style="stroke: #000000; stroke-width: 0.8"/>
      </g>
     </g>
     <g id="text_15">
      <!-- 2000 -->
      <g transform="translate(120.598866 278.638438) scale(0.1 -0.1)">
       <use xlink:href="#DejaVuSans-32"/>
       <use xlink:href="#DejaVuSans-30" x="63.623047"/>
       <use xlink:href="#DejaVuSans-30" x="127.246094"/>
       <use xlink:href="#DejaVuSans-30" x="190.869141"/>
      </g>
     </g>
    </g>
    <g id="xtick_9">
     <g id="line2d_16">
      <g>
       <use xlink:href="#m64b06ce158" x="210.467732" y="264.04" style="stroke: #000000; stroke-width: 0.8"/>
      </g>
     </g>
     <g id="text_16">
      <!-- 4000 -->
      <g transform="translate(197.742732 278.638438) scale(0.1 -0.1)">
       <use xlink:href="#DejaVuSans-34"/>
       <use xlink:href="#DejaVuSans-30" x="63.623047"/>
       <use xlink:href="#DejaVuSans-30" x="127.246094"/>
       <use xlink:href="#DejaVuSans-30" x="190.869141"/>
      </g>
     </g>
    </g>
    <g id="xtick_10">
     <g id="line2d_17">
      <g>
       <use xlink:href="#m64b06ce158" x="287.611598" y="264.04" style="stroke: #000000; stroke-width: 0.8"/>
      </g>
     </g>
     <g id="text_17">
      <!-- 6000 -->
      <g transform="translate(274.886598 278.638438) scale(0.1 -0.1)">
       <use xlink:href="#DejaVuSans-36"/>
       <use xlink:href="#DejaVuSans-30" x="63.623047"/>
       <use xlink:href="#DejaVuSans-30" x="127.246094"/>
       <use xlink:href="#DejaVuSans-30" x="190.869141"/>
      </g>
     </g>
    </g>
    <g id="xtick_11">
     <g id="line2d_18">
      <g>
       <use xlink:href="#m64b06ce158" x="364.755463" y="264.04" style="stroke: #000000; stroke-width: 0.8"/>
      </g>
     </g>
     <g id="text_18">
      <!-- 8000 -->
      <g transform="translate(352.030463 278.638438) scale(0.1 -0.1)">
       <use xlink:href="#DejaVuSans-38"/>
       <use xlink:href="#DejaVuSans-30" x="63.623047"/>
       <use xlink:href="#DejaVuSans-30" x="127.246094"/>
       <use xlink:href="#DejaVuSans-30" x="190.869141"/>
      </g>
     </g>
    </g>
    <g id="xtick_12">
     <g id="line2d_19">
      <g>
       <use xlink:href="#m64b06ce158" x="441.899329" y="264.04" style="stroke: #000000; stroke-width: 0.8"/>
      </g>
     </g>
     <g id="text_19">
      <!-- 10000 -->
      <g transform="translate(425.993079 278.638438) scale(0.1 -0.1)">
       <use xlink:href="#DejaVuSans-31"/>
       <use xlink:href="#DejaVuSans-30" x="63.623047"/>
       <use xlink:href="#DejaVuSans-30" x="127.246094"/>
       <use xlink:href="#DejaVuSans-30" x="190.869141"/>
       <use xlink:href="#DejaVuSans-30" x="254.492188"/>
      </g>
     </g>
    </g>
    <g id="text_20">
     <!-- Time (ms) -->
     <g transform="translate(249.490781 292.316563) scale(0.1 -0.1)">
      <use xlink:href="#DejaVuSans-54"/>
      <use xlink:href="#DejaVuSans-69" x="57.958984"/>
      <use xlink:href="#DejaVuSans-6d" x="85.742188"/>
      <use xlink:href="#DejaVuSans-65" x="183.154297"/>
      <use xlink:href="#DejaVuSans-20" x="244.677734"/>
      <use xlink:href="#DejaVuSans-28" x="276.464844"/>
      <use xlink:href="#DejaVuSans-6d" x="315.478516"/>
      <use xlink:href="#DejaVuSans-73" x="412.890625"/>
      <use xlink:href="#DejaVuSans-29" x="464.990234"/>
     </g>
    </g>
   </g>
   <g id="matplotlib.axis_4">
    <g id="ytick_6">
     <g id="line2d_20">
      <g>
       <use xlink:href="#m34dd5c66d8" x="56.18" y="259.238182" style="stroke: #000000; stroke-width: 0.8"/>
      </g>
     </g>
     <g id="text_21">
      <!-- −1.0 -->
      <g transform="translate(24.897188 263.037401) scale(0.1 -0.1)">
       <use xlink:href="#DejaVuSans-2212"/>
       <use xlink:href="#DejaVuSans-31" x="83.789062"/>
       <use xlink:href="#DejaVuSans-2e" x="147.412109"/>
       <use xlink:href="#DejaVuSans-30" x="179.199219"/>
      </g>
     </g>
    </g>
    <g id="ytick_7">
     <g id="line2d_21">
      <g>
       <use xlink:href="#m34dd5c66d8" x="56.18" y="235.229091" style="stroke: #000000; stroke-width: 0.8"/>
      </g>
     </g>
     <g id="text_22">
      <!-- −0.5 -->
      <g transform="translate(24.897188 239.02831) scale(0.1 -0.1)">
       <use xlink:href="#DejaVuSans-2212"/>
       <use xlink:href="#DejaVuSans-30" x="83.789062"/>
       <use xlink:href="#DejaVuSans-2e" x="147.412109"/>
       <use xlink:href="#DejaVuSans-35" x="179.199219"/>
      </g>
     </g>
    </g>
    <g id="ytick_8">
     <g id="line2d_22">
      <g>
       <use xlink:href="#m34dd5c66d8" x="56.18" y="211.22" style="stroke: #000000; stroke-width: 0.8"/>
      </g>
     </g>
     <g id="text_23">
      <!-- 0.0 -->
      <g transform="translate(33.276875 215.019219) scale(0.1 -0.1)">
       <use xlink:href="#DejaVuSans-30"/>
       <use xlink:href="#DejaVuSans-2e" x="63.623047"/>
       <use xlink:href="#DejaVuSans-30" x="95.410156"/>
      </g>
     </g>
    </g>
    <g id="ytick_9">
     <g id="line2d_23">
      <g>
       <use xlink:href="#m34dd5c66d8" x="56.18" y="187.210909" style="stroke: #000000; stroke-width: 0.8"/>
      </g>
     </g>
     <g id="text_24">
      <!-- 0.5 -->
      <g transform="translate(33.276875 191.010128) scale(0.1 -0.1)">
       <use xlink:href="#DejaVuSans-30"/>
       <use xlink:href="#DejaVuSans-2e" x="63.623047"/>
       <use xlink:href="#DejaVuSans-35" x="95.410156"/>
      </g>
     </g>
    </g>
    <g id="ytick_10">
     <g id="line2d_24">
      <g>
       <use xlink:href="#m34dd5c66d8" x="56.18" y="163.201818" style="stroke: #000000; stroke-width: 0.8"/>
      </g>
     </g>
     <g id="text_25">
      <!-- 1.0 -->
      <g transform="translate(33.276875 167.001037) scale(0.1 -0.1)">
       <use xlink:href="#DejaVuSans-31"/>
       <use xlink:href="#DejaVuSans-2e" x="63.623047"/>
       <use xlink:href="#DejaVuSans-30" x="95.410156"/>
      </g>
     </g>
    </g>
    <g id="text_26">
     <!-- Y-Axis Value -->
     <g transform="translate(18.8175 241.065313) rotate(-90) scale(0.1 -0.1)">
      <defs>
       <path id="DejaVuSans-59" d="M -13 4666 
L 666 4666 
L 1959 2747 
L 3244 4666 
L 3922 4666 
L 2272 2222 
L 2272 0 
L 1638 0 
L 1638 2222 
L -13 4666 
z
" transform="scale(0.015625)"/>
      </defs>
      <use xlink:href="#DejaVuSans-59"/>
      <use xlink:href="#DejaVuSans-2d" x="49.208984"/>
      <use xlink:href="#DejaVuSans-41" x="83.042969"/>
      <use xlink:href="#DejaVuSans-78" x="151.451172"/>
      <use xlink:href="#DejaVuSans-69" x="210.630859"/>
      <use xlink:href="#DejaVuSans-73" x="238.414062"/>
      <use xlink:href="#DejaVuSans-20" x="290.513672"/>
      <use xlink:href="#DejaVuSans-56" x="322.300781"/>
      <use xlink:href="#DejaVuSans-61" x="382.958984"/>
      <use xlink:href="#DejaVuSans-6c" x="444.238281"/>
      <use xlink:href="#DejaVuSans-75" x="472.021484"/>
      <use xlink:href="#DejaVuSans-65" x="535.400391"/>
     </g>
    </g>
   </g>
   <g id="line2d_25">
    <path d="M 56.18 209.779455 
L 67.365861 209.779455 
L 67.75158 209.299273 
L 68.137299 209.779455 
L 74.694528 209.779455 
L 75.080247 210.259636 
L 75.465966 209.779455 
L 79.32316 209.779455 
L 79.708879 210.259636 
L 80.094598 209.779455 
L 98.223407 209.779455 
L 98.609126 210.259636 
L 98.994846 209.779455 
L 102.46632 209.779455 
L 102.852039 210.259636 
L 103.237758 209.779455 
L 106.323513 209.779455 
L 106.709232 210.259636 
L 107.094951 209.779455 
L 115.580777 209.779455 
L 115.966496 209.299273 
L 116.352215 209.779455 
L 116.737935 210.739818 
L 117.123654 209.779455 
L 125.995199 209.779455 
L 126.380918 210.259636 
L 126.766637 209.779455 
L 140.652533 209.779455 
L 141.038252 206.898364 
L 141.809691 203.537091 
L 142.19541 202.096545 
L 142.966849 198.735273 
L 143.738288 196.814545 
L 145.666884 187.691091 
L 146.438323 184.81 
L 146.824042 183.849636 
L 147.209762 182.409091 
L 147.9812 180.488364 
L 148.36692 179.047818 
L 148.752639 178.087455 
L 149.138358 176.646909 
L 149.524078 175.686545 
L 149.909797 174.246 
L 150.295516 173.765818 
L 151.066955 165.602727 
L 151.452674 163.682 
L 153.76699 163.682 
L 154.15271 164.162182 
L 154.538429 163.682 
L 156.467026 163.682 
L 156.852745 164.162182 
L 157.238464 163.682 
L 159.9385 163.682 
L 160.324219 163.201818 
L 160.709938 163.682 
L 161.095658 163.201818 
L 161.481377 163.682 
L 174.210115 163.682 
L 174.595834 164.162182 
L 174.981553 164.162182 
L 175.367273 163.682 
L 175.752992 164.642364 
L 176.138711 163.682 
L 176.524431 163.682 
L 176.91015 164.162182 
L 177.295869 163.682 
L 179.610185 163.682 
L 179.995905 164.162182 
L 180.381624 163.682 
L 182.69594 163.682 
L 183.081659 163.201818 
L 183.467379 163.682 
L 188.48173 163.682 
L 188.867449 164.162182 
L 189.253169 163.201818 
L 189.638888 163.682 
L 191.567485 163.682 
L 191.953204 163.201818 
L 192.338923 163.682 
L 196.196117 163.682 
L 196.581836 164.162182 
L 196.967555 164.162182 
L 197.353274 163.682 
L 206.996258 163.682 
L 207.381977 163.201818 
L 207.767696 163.682 
L 208.153416 163.201818 
L 208.539135 163.682 
L 209.310574 163.682 
L 209.696293 163.201818 
L 210.082012 163.682 
L 210.467732 163.201818 
L 210.853451 163.682 
L 215.482083 163.682 
L 215.867802 163.201818 
L 216.253522 163.682 
L 217.796399 163.682 
L 218.182118 163.201818 
L 218.567838 163.682 
L 223.582189 163.682 
L 223.967908 164.162182 
L 224.353628 163.682 
L 224.739347 163.682 
L 225.125066 164.162182 
L 226.282224 167.043273 
L 227.053663 171.364909 
L 227.439382 173.285636 
L 227.825102 174.246 
L 228.210821 174.726182 
L 228.982259 176.646909 
L 229.367979 179.528 
L 229.753698 181.448727 
L 230.139417 182.409091 
L 230.910856 185.770364 
L 231.682295 188.651455 
L 232.068014 189.611818 
L 232.453733 191.052364 
L 232.839453 192.012727 
L 233.225172 193.933455 
L 233.610891 194.893818 
L 234.38233 197.774909 
L 234.768049 198.735273 
L 235.153769 200.175818 
L 235.539488 202.576727 
L 235.925207 204.017273 
L 236.696646 205.938 
L 237.082365 208.338909 
L 237.468085 209.779455 
L 247.496787 209.779455 
L 247.882507 210.739818 
L 248.268226 210.259636 
L 248.653945 211.22 
L 249.425384 211.22 
L 250.582542 212.660545 
L 250.968261 213.620909 
L 251.353981 215.061455 
L 252.125419 216.021818 
L 253.282577 218.902909 
L 253.668297 220.343455 
L 254.439735 222.264182 
L 254.825455 222.744364 
L 255.982613 225.625455 
L 256.368332 227.066 
L 256.754051 228.026364 
L 257.139771 229.466909 
L 257.52549 230.427273 
L 258.296929 233.788545 
L 259.454086 238.110182 
L 259.839806 240.030909 
L 260.225525 240.991273 
L 260.996964 243.872364 
L 261.382683 244.832727 
L 262.154122 247.713818 
L 262.539841 248.194 
L 264.082718 258.277818 
L 264.468438 259.238182 
L 308.826161 259.238182 
L 309.983319 253.956182 
L 310.369038 252.515636 
L 310.754757 251.555273 
L 311.140477 250.114727 
L 313.840512 243.392182 
L 314.226231 241.951636 
L 314.611951 240.991273 
L 314.99767 240.511091 
L 316.154828 237.63 
L 316.926267 234.748909 
L 317.311986 234.268727 
L 317.697705 232.828182 
L 319.626302 228.026364 
L 320.012021 227.546182 
L 320.397741 226.585818 
L 321.169179 225.625455 
L 323.483495 219.863273 
L 323.869214 218.422727 
L 325.026372 216.982182 
L 325.412092 215.541636 
L 325.797811 215.061455 
L 326.18353 212.180364 
L 326.56925 210.259636 
L 326.954969 210.259636 
L 327.340688 209.779455 
L 327.726408 210.259636 
L 328.112127 209.779455 
L 335.055075 209.779455 
L 335.440794 209.299273 
L 335.826514 206.898364 
L 337.369391 201.136182 
L 337.75511 199.215455 
L 338.14083 198.255091 
L 338.526549 197.774909 
L 338.912268 196.814545 
L 340.069426 191.532545 
L 341.226584 187.210909 
L 341.998023 183.369455 
L 343.92662 178.567636 
L 344.312339 176.646909 
L 345.083778 175.686545 
L 345.469497 174.726182 
L 345.855216 174.246 
L 346.240936 174.246 
L 346.626655 173.765818 
L 347.012374 172.805455 
L 347.398094 171.364909 
L 347.783813 168.483818 
L 348.169532 167.043273 
L 348.555252 164.642364 
L 348.940971 163.682 
L 358.198235 163.682 
L 358.583954 164.162182 
L 358.969673 163.682 
L 363.212586 163.682 
L 363.598305 163.201818 
L 363.984025 163.682 
L 364.369744 163.682 
L 364.755463 163.201818 
L 365.141183 163.682 
L 365.912621 163.682 
L 366.298341 163.201818 
L 366.68406 163.682 
L 374.784166 163.682 
L 375.169885 163.201818 
L 375.555605 163.682 
L 377.098482 163.682 
L 377.484201 163.201818 
L 377.869921 163.682 
L 379.798517 163.682 
L 380.184237 164.162182 
L 380.569956 163.682 
L 380.955675 164.162182 
L 381.341395 163.682 
L 381.727114 164.162182 
L 382.112833 163.682 
L 384.427149 163.682 
L 384.812868 163.201818 
L 385.198588 163.682 
L 386.741465 163.682 
L 387.127184 163.201818 
L 387.512904 163.682 
L 387.898623 163.201818 
L 388.284342 163.682 
L 388.670062 163.682 
L 389.055781 163.201818 
L 389.4415 163.682 
L 389.82722 163.201818 
L 390.212939 163.682 
L 390.598658 163.682 
L 390.984378 163.201818 
L 391.370097 163.682 
L 394.070132 163.682 
L 394.455852 163.201818 
L 394.841571 163.682 
L 396.384448 163.682 
L 396.770168 164.162182 
L 397.155887 163.682 
L 398.698764 163.682 
L 399.084484 168.003636 
L 399.470203 174.246 
L 399.855922 177.127091 
L 400.627361 191.052364 
L 401.3988 197.774909 
L 401.784519 198.735273 
L 402.555958 201.616364 
L 403.327396 203.537091 
L 403.713116 204.017273 
L 404.484554 205.938 
L 404.870274 207.378545 
L 405.255993 209.779455 
L 414.898976 209.779455 
L 415.284695 210.259636 
L 415.670415 209.779455 
L 446.91368 209.779455 
L 447.2994 210.259636 
L 447.685119 209.779455 
L 466.971086 209.779455 
L 467.356805 209.299273 
L 467.742524 209.779455 
L 473.914034 209.779455 
L 474.299753 210.259636 
L 474.685472 209.779455 
L 475.071192 210.259636 
L 475.456911 209.779455 
L 476.22835 209.779455 
L 476.614069 210.259636 
L 476.999788 209.779455 
L 493.2 209.779455 
L 493.2 209.779455 
" clip-path="url(#p8b32d55c7a)" style="fill: none; stroke: #1f77b4; stroke-width: 1.5; stroke-linecap: square"/>
   </g>
   <g id="line2d_26">
    <path d="M 56.18 211.22 
L 493.2 211.22 
" clip-path="url(#p8b32d55c7a)" style="fill: none; stroke-dasharray: 2.96,1.28; stroke-dashoffset: 0; stroke: #808080; stroke-width: 0.8"/>
   </g>
   <g id="patch_6">
    <path d="M 56.18 264.04 
L 56.18 158.4 
" style="fill: none; stroke: #000000; stroke-width: 0.8; stroke-linejoin: miter; stroke-linecap: square"/>
   </g>
   <g id="patch_7">
    <path d="M 56.18 264.04 
L 493.2 264.04 
" style="fill: none; stroke: #000000; stroke-width: 0.8; stroke-linejoin: miter; stroke-linecap: square"/>
   </g>
  </g>
 </g>
 <defs>
  <clipPath id="pe244a19242">
   <rect x="56.18" y="10.8" width="437.02" height="105.64"/>
  </clipPath>
  <clipPath id="p8b32d55c7a">
   <rect x="56.18" y="158.4" width="437.02" height="105.64"/>
  </clipPath>
 </defs>
</svg>
