<?xml version="1.0" encoding="utf-8" standalone="no"?>
<!DOCTYPE svg PUBLIC "-//W3C//DTD SVG 1.1//EN"
  "http://www.w3.org/Graphics/SVG/1.1/DTD/svg11.dtd">
<svg xmlns:xlink="http://www.w3.org/1999/xlink" width="504pt" height="306pt" viewBox="0 0 504 306" xmlns="http://www.w3.org/2000/svg" version="1.1">
 <metadata>
  <rdf:RDF xmlns:dc="http://purl.org/dc/elements/1.1/" xmlns:cc="http://creativecommons.org/ns#" xmlns:rdf="http://www.w3.org/1999/02/22-rdf-syntax-ns#">
   <cc:Work>
    <dc:type rdf:resource="http://purl.org/dc/dcmitype/StillImage"/>
    <dc:date>2024-06-16T23:02:06.144883</dc:date>
    <dc:format>image/svg+xml</dc:format>
    <dc:creator>
     <cc:Agent>
      <dc:title>Matplotlib v3.8.3, https://matplotlib.org/</dc:title>
     </cc:Agent>
    </dc:creator>
   </cc:Work>
  </rdf:RDF>
 </metadata>
 <defs>
  <style type="text/css">*{stroke-linejoin: round; stroke-linecap: butt}</style>
 </defs>
 <g id="figure_1">
  <g id="patch_1">
   <path d="M 0 306 
L 504 306 
L 504 0 
L 0 0 
z
" style="fill: #ffffff"/>
  </g>
  <g id="axes_1">
   <g id="patch_2">
    <path d="M 56.18 116.44 
L 493.2 116.44 
L 493.2 10.8 
L 56.18 10.8 
z
" style="fill: #ffffff"/>
   </g>
   <g id="matplotlib.axis_1">
    <g id="xtick_1">
     <g id="line2d_1">
      <defs>
       <path id="m67f2e75a30" d="M 0 0 
L 0 3.5 
" style="stroke: #000000; stroke-width: 0.8"/>
      </defs>
      <g>
       <use xlink:href="#m67f2e75a30" x="56.18" y="116.44" style="stroke: #000000; stroke-width: 0.8"/>
      </g>
     </g>
     <g id="text_1">
      <!-- 0 -->
      <g transform="translate(52.99875 131.038437) scale(0.1 -0.1)">
       <defs>
        <path id="DejaVuSans-30" d="M 2034 4250 
Q 1547 4250 1301 3770 
Q 1056 3291 1056 2328 
Q 1056 1369 1301 889 
Q 1547 409 2034 409 
Q 2525 409 2770 889 
Q 3016 1369 3016 2328 
Q 3016 3291 2770 3770 
Q 2525 4250 2034 4250 
z
M 2034 4750 
Q 2819 4750 3233 4129 
Q 3647 3509 3647 2328 
Q 3647 1150 3233 529 
Q 2819 -91 2034 -91 
Q 1250 -91 836 529 
Q 422 1150 422 2328 
Q 422 3509 836 4129 
Q 1250 4750 2034 4750 
z
" transform="scale(0.015625)"/>
       </defs>
       <use xlink:href="#DejaVuSans-30"/>
      </g>
     </g>
    </g>
    <g id="xtick_2">
     <g id="line2d_2">
      <g>
       <use xlink:href="#m67f2e75a30" x="146.398827" y="116.44" style="stroke: #000000; stroke-width: 0.8"/>
      </g>
     </g>
     <g id="text_2">
      <!-- 5000 -->
      <g transform="translate(133.673827 131.038437) scale(0.1 -0.1)">
       <defs>
        <path id="DejaVuSans-35" d="M 691 4666 
L 3169 4666 
L 3169 4134 
L 1269 4134 
L 1269 2991 
Q 1406 3038 1543 3061 
Q 1681 3084 1819 3084 
Q 2600 3084 3056 2656 
Q 3513 2228 3513 1497 
Q 3513 744 3044 326 
Q 2575 -91 1722 -91 
Q 1428 -91 1123 -41 
Q 819 9 494 109 
L 494 744 
Q 775 591 1075 516 
Q 1375 441 1709 441 
Q 2250 441 2565 725 
Q 2881 1009 2881 1497 
Q 2881 1984 2565 2268 
Q 2250 2553 1709 2553 
Q 1456 2553 1204 2497 
Q 953 2441 691 2322 
L 691 4666 
z
" transform="scale(0.015625)"/>
       </defs>
       <use xlink:href="#DejaVuSans-35"/>
       <use xlink:href="#DejaVuSans-30" x="63.623047"/>
       <use xlink:href="#DejaVuSans-30" x="127.246094"/>
       <use xlink:href="#DejaVuSans-30" x="190.869141"/>
      </g>
     </g>
    </g>
    <g id="xtick_3">
     <g id="line2d_3">
      <g>
       <use xlink:href="#m67f2e75a30" x="236.617655" y="116.44" style="stroke: #000000; stroke-width: 0.8"/>
      </g>
     </g>
     <g id="text_3">
      <!-- 10000 -->
      <g transform="translate(220.711405 131.038437) scale(0.1 -0.1)">
       <defs>
        <path id="DejaVuSans-31" d="M 794 531 
L 1825 531 
L 1825 4091 
L 703 3866 
L 703 4441 
L 1819 4666 
L 2450 4666 
L 2450 531 
L 3481 531 
L 3481 0 
L 794 0 
L 794 531 
z
" transform="scale(0.015625)"/>
       </defs>
       <use xlink:href="#DejaVuSans-31"/>
       <use xlink:href="#DejaVuSans-30" x="63.623047"/>
       <use xlink:href="#DejaVuSans-30" x="127.246094"/>
       <use xlink:href="#DejaVuSans-30" x="190.869141"/>
       <use xlink:href="#DejaVuSans-30" x="254.492188"/>
      </g>
     </g>
    </g>
    <g id="xtick_4">
     <g id="line2d_4">
      <g>
       <use xlink:href="#m67f2e75a30" x="326.836482" y="116.44" style="stroke: #000000; stroke-width: 0.8"/>
      </g>
     </g>
     <g id="text_4">
      <!-- 15000 -->
      <g transform="translate(310.930232 131.038437) scale(0.1 -0.1)">
       <use xlink:href="#DejaVuSans-31"/>
       <use xlink:href="#DejaVuSans-35" x="63.623047"/>
       <use xlink:href="#DejaVuSans-30" x="127.246094"/>
       <use xlink:href="#DejaVuSans-30" x="190.869141"/>
       <use xlink:href="#DejaVuSans-30" x="254.492188"/>
      </g>
     </g>
    </g>
    <g id="xtick_5">
     <g id="line2d_5">
      <g>
       <use xlink:href="#m67f2e75a30" x="417.05531" y="116.44" style="stroke: #000000; stroke-width: 0.8"/>
      </g>
     </g>
     <g id="text_5">
      <!-- 20000 -->
      <g transform="translate(401.14906 131.038437) scale(0.1 -0.1)">
       <defs>
        <path id="DejaVuSans-32" d="M 1228 531 
L 3431 531 
L 3431 0 
L 469 0 
L 469 531 
Q 828 903 1448 1529 
Q 2069 2156 2228 2338 
Q 2531 2678 2651 2914 
Q 2772 3150 2772 3378 
Q 2772 3750 2511 3984 
Q 2250 4219 1831 4219 
Q 1534 4219 1204 4116 
Q 875 4013 500 3803 
L 500 4441 
Q 881 4594 1212 4672 
Q 1544 4750 1819 4750 
Q 2544 4750 2975 4387 
Q 3406 4025 3406 3419 
Q 3406 3131 3298 2873 
Q 3191 2616 2906 2266 
Q 2828 2175 2409 1742 
Q 1991 1309 1228 531 
z
" transform="scale(0.015625)"/>
       </defs>
       <use xlink:href="#DejaVuSans-32"/>
       <use xlink:href="#DejaVuSans-30" x="63.623047"/>
       <use xlink:href="#DejaVuSans-30" x="127.246094"/>
       <use xlink:href="#DejaVuSans-30" x="190.869141"/>
       <use xlink:href="#DejaVuSans-30" x="254.492188"/>
      </g>
     </g>
    </g>
    <g id="text_6">
     <!-- Time (ms) -->
     <g transform="translate(249.490781 144.716562) scale(0.1 -0.1)">
      <defs>
       <path id="DejaVuSans-54" d="M -19 4666 
L 3928 4666 
L 3928 4134 
L 2272 4134 
L 2272 0 
L 1638 0 
L 1638 4134 
L -19 4134 
L -19 4666 
z
" transform="scale(0.015625)"/>
       <path id="DejaVuSans-69" d="M 603 3500 
L 1178 3500 
L 1178 0 
L 603 0 
L 603 3500 
z
M 603 4863 
L 1178 4863 
L 1178 4134 
L 603 4134 
L 603 4863 
z
" transform="scale(0.015625)"/>
       <path id="DejaVuSans-6d" d="M 3328 2828 
Q 3544 3216 3844 3400 
Q 4144 3584 4550 3584 
Q 5097 3584 5394 3201 
Q 5691 2819 5691 2113 
L 5691 0 
L 5113 0 
L 5113 2094 
Q 5113 2597 4934 2840 
Q 4756 3084 4391 3084 
Q 3944 3084 3684 2787 
Q 3425 2491 3425 1978 
L 3425 0 
L 2847 0 
L 2847 2094 
Q 2847 2600 2669 2842 
Q 2491 3084 2119 3084 
Q 1678 3084 1418 2786 
Q 1159 2488 1159 1978 
L 1159 0 
L 581 0 
L 581 3500 
L 1159 3500 
L 1159 2956 
Q 1356 3278 1631 3431 
Q 1906 3584 2284 3584 
Q 2666 3584 2933 3390 
Q 3200 3197 3328 2828 
z
" transform="scale(0.015625)"/>
       <path id="DejaVuSans-65" d="M 3597 1894 
L 3597 1613 
L 953 1613 
Q 991 1019 1311 708 
Q 1631 397 2203 397 
Q 2534 397 2845 478 
Q 3156 559 3463 722 
L 3463 178 
Q 3153 47 2828 -22 
Q 2503 -91 2169 -91 
Q 1331 -91 842 396 
Q 353 884 353 1716 
Q 353 2575 817 3079 
Q 1281 3584 2069 3584 
Q 2775 3584 3186 3129 
Q 3597 2675 3597 1894 
z
M 3022 2063 
Q 3016 2534 2758 2815 
Q 2500 3097 2075 3097 
Q 1594 3097 1305 2825 
Q 1016 2553 972 2059 
L 3022 2063 
z
" transform="scale(0.015625)"/>
       <path id="DejaVuSans-20" transform="scale(0.015625)"/>
       <path id="DejaVuSans-28" d="M 1984 4856 
Q 1566 4138 1362 3434 
Q 1159 2731 1159 2009 
Q 1159 1288 1364 580 
Q 1569 -128 1984 -844 
L 1484 -844 
Q 1016 -109 783 600 
Q 550 1309 550 2009 
Q 550 2706 781 3412 
Q 1013 4119 1484 4856 
L 1984 4856 
z
" transform="scale(0.015625)"/>
       <path id="DejaVuSans-73" d="M 2834 3397 
L 2834 2853 
Q 2591 2978 2328 3040 
Q 2066 3103 1784 3103 
Q 1356 3103 1142 2972 
Q 928 2841 928 2578 
Q 928 2378 1081 2264 
Q 1234 2150 1697 2047 
L 1894 2003 
Q 2506 1872 2764 1633 
Q 3022 1394 3022 966 
Q 3022 478 2636 193 
Q 2250 -91 1575 -91 
Q 1294 -91 989 -36 
Q 684 19 347 128 
L 347 722 
Q 666 556 975 473 
Q 1284 391 1588 391 
Q 1994 391 2212 530 
Q 2431 669 2431 922 
Q 2431 1156 2273 1281 
Q 2116 1406 1581 1522 
L 1381 1569 
Q 847 1681 609 1914 
Q 372 2147 372 2553 
Q 372 3047 722 3315 
Q 1072 3584 1716 3584 
Q 2034 3584 2315 3537 
Q 2597 3491 2834 3397 
z
" transform="scale(0.015625)"/>
       <path id="DejaVuSans-29" d="M 513 4856 
L 1013 4856 
Q 1481 4119 1714 3412 
Q 1947 2706 1947 2009 
Q 1947 1309 1714 600 
Q 1481 -109 1013 -844 
L 513 -844 
Q 928 -128 1133 580 
Q 1338 1288 1338 2009 
Q 1338 2731 1133 3434 
Q 928 4138 513 4856 
z
" transform="scale(0.015625)"/>
      </defs>
      <use xlink:href="#DejaVuSans-54"/>
      <use xlink:href="#DejaVuSans-69" x="57.958984"/>
      <use xlink:href="#DejaVuSans-6d" x="85.742188"/>
      <use xlink:href="#DejaVuSans-65" x="183.154297"/>
      <use xlink:href="#DejaVuSans-20" x="244.677734"/>
      <use xlink:href="#DejaVuSans-28" x="276.464844"/>
      <use xlink:href="#DejaVuSans-6d" x="315.478516"/>
      <use xlink:href="#DejaVuSans-73" x="412.890625"/>
      <use xlink:href="#DejaVuSans-29" x="464.990234"/>
     </g>
    </g>
   </g>
   <g id="matplotlib.axis_2">
    <g id="ytick_1">
     <g id="line2d_6">
      <defs>
       <path id="maee91e5538" d="M 0 0 
L -3.5 0 
" style="stroke: #000000; stroke-width: 0.8"/>
      </defs>
      <g>
       <use xlink:href="#maee91e5538" x="56.18" y="111.638182" style="stroke: #000000; stroke-width: 0.8"/>
      </g>
     </g>
     <g id="text_7">
      <!-- −1.0 -->
      <g transform="translate(24.897188 115.437401) scale(0.1 -0.1)">
       <defs>
        <path id="DejaVuSans-2212" d="M 678 2272 
L 4684 2272 
L 4684 1741 
L 678 1741 
L 678 2272 
z
" transform="scale(0.015625)"/>
        <path id="DejaVuSans-2e" d="M 684 794 
L 1344 794 
L 1344 0 
L 684 0 
L 684 794 
z
" transform="scale(0.015625)"/>
       </defs>
       <use xlink:href="#DejaVuSans-2212"/>
       <use xlink:href="#DejaVuSans-31" x="83.789062"/>
       <use xlink:href="#DejaVuSans-2e" x="147.412109"/>
       <use xlink:href="#DejaVuSans-30" x="179.199219"/>
      </g>
     </g>
    </g>
    <g id="ytick_2">
     <g id="line2d_7">
      <g>
       <use xlink:href="#maee91e5538" x="56.18" y="87.629091" style="stroke: #000000; stroke-width: 0.8"/>
      </g>
     </g>
     <g id="text_8">
      <!-- −0.5 -->
      <g transform="translate(24.897188 91.42831) scale(0.1 -0.1)">
       <use xlink:href="#DejaVuSans-2212"/>
       <use xlink:href="#DejaVuSans-30" x="83.789062"/>
       <use xlink:href="#DejaVuSans-2e" x="147.412109"/>
       <use xlink:href="#DejaVuSans-35" x="179.199219"/>
      </g>
     </g>
    </g>
    <g id="ytick_3">
     <g id="line2d_8">
      <g>
       <use xlink:href="#maee91e5538" x="56.18" y="63.62" style="stroke: #000000; stroke-width: 0.8"/>
      </g>
     </g>
     <g id="text_9">
      <!-- 0.0 -->
      <g transform="translate(33.276875 67.419219) scale(0.1 -0.1)">
       <use xlink:href="#DejaVuSans-30"/>
       <use xlink:href="#DejaVuSans-2e" x="63.623047"/>
       <use xlink:href="#DejaVuSans-30" x="95.410156"/>
      </g>
     </g>
    </g>
    <g id="ytick_4">
     <g id="line2d_9">
      <g>
       <use xlink:href="#maee91e5538" x="56.18" y="39.610909" style="stroke: #000000; stroke-width: 0.8"/>
      </g>
     </g>
     <g id="text_10">
      <!-- 0.5 -->
      <g transform="translate(33.276875 43.410128) scale(0.1 -0.1)">
       <use xlink:href="#DejaVuSans-30"/>
       <use xlink:href="#DejaVuSans-2e" x="63.623047"/>
       <use xlink:href="#DejaVuSans-35" x="95.410156"/>
      </g>
     </g>
    </g>
    <g id="ytick_5">
     <g id="line2d_10">
      <g>
       <use xlink:href="#maee91e5538" x="56.18" y="15.601818" style="stroke: #000000; stroke-width: 0.8"/>
      </g>
     </g>
     <g id="text_11">
      <!-- 1.0 -->
      <g transform="translate(33.276875 19.401037) scale(0.1 -0.1)">
       <use xlink:href="#DejaVuSans-31"/>
       <use xlink:href="#DejaVuSans-2e" x="63.623047"/>
       <use xlink:href="#DejaVuSans-30" x="95.410156"/>
      </g>
     </g>
    </g>
    <g id="text_12">
     <!-- X-Axis Value -->
     <g transform="translate(18.8175 94.180156) rotate(-90) scale(0.1 -0.1)">
      <defs>
       <path id="DejaVuSans-58" d="M 403 4666 
L 1081 4666 
L 2241 2931 
L 3406 4666 
L 4084 4666 
L 2584 2425 
L 4184 0 
L 3506 0 
L 2194 1984 
L 872 0 
L 191 0 
L 1856 2491 
L 403 4666 
z
" transform="scale(0.015625)"/>
       <path id="DejaVuSans-2d" d="M 313 2009 
L 1997 2009 
L 1997 1497 
L 313 1497 
L 313 2009 
z
" transform="scale(0.015625)"/>
       <path id="DejaVuSans-41" d="M 2188 4044 
L 1331 1722 
L 3047 1722 
L 2188 4044 
z
M 1831 4666 
L 2547 4666 
L 4325 0 
L 3669 0 
L 3244 1197 
L 1141 1197 
L 716 0 
L 50 0 
L 1831 4666 
z
" transform="scale(0.015625)"/>
       <path id="DejaVuSans-78" d="M 3513 3500 
L 2247 1797 
L 3578 0 
L 2900 0 
L 1881 1375 
L 863 0 
L 184 0 
L 1544 1831 
L 300 3500 
L 978 3500 
L 1906 2253 
L 2834 3500 
L 3513 3500 
z
" transform="scale(0.015625)"/>
       <path id="DejaVuSans-56" d="M 1831 0 
L 50 4666 
L 709 4666 
L 2188 738 
L 3669 4666 
L 4325 4666 
L 2547 0 
L 1831 0 
z
" transform="scale(0.015625)"/>
       <path id="DejaVuSans-61" d="M 2194 1759 
Q 1497 1759 1228 1600 
Q 959 1441 959 1056 
Q 959 750 1161 570 
Q 1363 391 1709 391 
Q 2188 391 2477 730 
Q 2766 1069 2766 1631 
L 2766 1759 
L 2194 1759 
z
M 3341 1997 
L 3341 0 
L 2766 0 
L 2766 531 
Q 2569 213 2275 61 
Q 1981 -91 1556 -91 
Q 1019 -91 701 211 
Q 384 513 384 1019 
Q 384 1609 779 1909 
Q 1175 2209 1959 2209 
L 2766 2209 
L 2766 2266 
Q 2766 2663 2505 2880 
Q 2244 3097 1772 3097 
Q 1472 3097 1187 3025 
Q 903 2953 641 2809 
L 641 3341 
Q 956 3463 1253 3523 
Q 1550 3584 1831 3584 
Q 2591 3584 2966 3190 
Q 3341 2797 3341 1997 
z
" transform="scale(0.015625)"/>
       <path id="DejaVuSans-6c" d="M 603 4863 
L 1178 4863 
L 1178 0 
L 603 0 
L 603 4863 
z
" transform="scale(0.015625)"/>
       <path id="DejaVuSans-75" d="M 544 1381 
L 544 3500 
L 1119 3500 
L 1119 1403 
Q 1119 906 1312 657 
Q 1506 409 1894 409 
Q 2359 409 2629 706 
Q 2900 1003 2900 1516 
L 2900 3500 
L 3475 3500 
L 3475 0 
L 2900 0 
L 2900 538 
Q 2691 219 2414 64 
Q 2138 -91 1772 -91 
Q 1169 -91 856 284 
Q 544 659 544 1381 
z
M 1991 3584 
L 1991 3584 
z
" transform="scale(0.015625)"/>
      </defs>
      <use xlink:href="#DejaVuSans-58"/>
      <use xlink:href="#DejaVuSans-2d" x="63.505859"/>
      <use xlink:href="#DejaVuSans-41" x="97.339844"/>
      <use xlink:href="#DejaVuSans-78" x="165.748047"/>
      <use xlink:href="#DejaVuSans-69" x="224.927734"/>
      <use xlink:href="#DejaVuSans-73" x="252.710938"/>
      <use xlink:href="#DejaVuSans-20" x="304.810547"/>
      <use xlink:href="#DejaVuSans-56" x="336.597656"/>
      <use xlink:href="#DejaVuSans-61" x="397.255859"/>
      <use xlink:href="#DejaVuSans-6c" x="458.535156"/>
      <use xlink:href="#DejaVuSans-75" x="486.318359"/>
      <use xlink:href="#DejaVuSans-65" x="549.697266"/>
     </g>
    </g>
   </g>
   <g id="line2d_11">
    <path d="M 56.18 65.060545 
L 61.59313 65.060545 
L 61.773567 64.580364 
L 61.954005 65.060545 
L 62.31488 65.060545 
L 62.495318 64.580364 
L 62.675756 65.060545 
L 70.975888 65.060545 
L 71.156325 64.580364 
L 71.336763 63.139818 
L 71.517201 65.060545 
L 76.028142 65.060545 
L 76.20858 64.580364 
L 76.389017 65.060545 
L 77.832519 65.060545 
L 78.012956 64.580364 
L 78.193394 65.060545 
L 78.554269 65.060545 
L 78.734707 64.580364 
L 78.915145 64.580364 
L 79.095582 65.060545 
L 84.328274 65.060545 
L 84.508712 64.580364 
L 84.689149 65.060545 
L 93.169719 65.060545 
L 93.350157 64.580364 
L 93.530595 65.060545 
L 102.732915 65.060545 
L 102.913353 65.540727 
L 103.09379 65.540727 
L 103.274228 65.060545 
L 104.176416 65.060545 
L 104.356854 64.580364 
L 104.537291 65.060545 
L 104.898167 65.060545 
L 105.078604 64.580364 
L 105.259042 64.580364 
L 105.43948 65.060545 
L 108.867795 65.060545 
L 109.048233 65.540727 
L 109.228671 65.060545 
L 109.409108 65.540727 
L 109.950421 65.540727 
L 110.130859 65.060545 
L 114.6418 65.060545 
L 114.822238 66.501091 
L 115.002675 65.060545 
L 119.333179 65.060545 
L 119.513617 65.540727 
L 119.694055 65.060545 
L 123.12237 65.060545 
L 123.302808 65.540727 
L 123.483245 65.060545 
L 126.731123 65.060545 
L 126.911561 65.540727 
L 127.091998 65.060545 
L 127.272436 66.020909 
L 127.633311 65.060545 
L 127.994187 65.060545 
L 128.174624 65.540727 
L 128.896375 65.540727 
L 129.076813 65.060545 
L 138.098695 65.060545 
L 138.279133 65.540727 
L 138.459571 65.060545 
L 143.15095 65.060545 
L 143.331387 63.139818 
L 143.511825 65.060545 
L 146.579265 65.060545 
L 146.759703 65.540727 
L 146.94014 65.060545 
L 147.120578 65.540727 
L 147.301016 67.941636 
L 147.481453 65.540727 
L 147.661891 65.060545 
L 148.744517 65.060545 
L 148.924955 65.540727 
L 149.105392 65.060545 
L 150.909769 65.060545 
L 151.090206 66.020909 
L 151.270644 65.060545 
L 152.172832 65.060545 
L 152.35327 64.100182 
L 153.977209 38.650545 
L 154.157647 37.690182 
L 154.69896 24.245091 
L 154.879397 23.284727 
L 155.42071 16.562182 
L 155.601148 16.562182 
L 155.781585 16.082 
L 156.142461 16.082 
L 156.322898 15.601818 
L 156.503336 16.082 
L 156.683774 16.082 
L 156.864211 15.601818 
L 157.225087 15.601818 
L 157.405524 16.082 
L 157.585962 15.601818 
L 157.7664 15.601818 
L 157.946837 16.082 
L 158.849026 16.082 
L 159.029463 15.601818 
L 159.209901 16.082 
L 159.390339 15.601818 
L 159.931652 15.601818 
L 160.112089 16.082 
L 160.292527 15.601818 
L 160.472964 16.082 
L 160.653402 15.601818 
L 160.83384 15.601818 
L 161.014277 16.082 
L 161.194715 15.601818 
L 161.375153 15.601818 
L 161.55559 17.522545 
L 161.736028 16.082 
L 161.916466 16.082 
L 162.096903 15.601818 
L 162.277341 16.082 
L 162.818654 16.082 
L 162.999092 15.601818 
L 163.179529 16.082 
L 163.359967 15.601818 
L 163.540405 16.082 
L 164.262155 16.082 
L 164.442593 15.601818 
L 164.803468 16.562182 
L 164.983906 16.082 
L 165.344781 16.082 
L 165.525219 16.562182 
L 165.705656 16.082 
L 167.329595 16.082 
L 167.510033 15.601818 
L 167.690471 16.082 
L 167.870908 15.601818 
L 168.051346 16.082 
L 168.231784 15.601818 
L 168.592659 15.601818 
L 168.773097 16.082 
L 168.953534 15.601818 
L 169.133972 16.082 
L 169.494847 16.082 
L 169.675285 15.601818 
L 170.216598 15.601818 
L 170.397036 16.082 
L 170.577473 16.082 
L 170.757911 15.601818 
L 170.938348 16.082 
L 171.118786 16.082 
L 171.299224 15.601818 
L 171.479661 16.082 
L 171.660099 15.601818 
L 171.840537 15.601818 
L 172.020974 16.082 
L 172.201412 15.601818 
L 172.562287 15.601818 
L 172.742725 16.082 
L 172.923163 16.082 
L 173.1036 15.601818 
L 173.284038 16.082 
L 173.464476 16.082 
L 173.644913 16.562182 
L 173.825351 16.082 
L 176.531916 16.082 
L 176.712353 16.562182 
L 177.794979 40.091091 
L 177.975417 40.571273 
L 178.51673 48.734364 
L 179.418918 65.060545 
L 198.725747 65.060545 
L 198.906185 65.540727 
L 199.086623 65.060545 
L 199.26706 65.540727 
L 199.447498 64.580364 
L 200.349686 52.095636 
L 200.890999 40.571273 
L 201.251874 37.21 
L 201.61275 27.606364 
L 201.973625 22.804545 
L 202.3345 16.562182 
L 202.514938 16.562182 
L 202.695376 16.082 
L 203.236689 16.082 
L 203.417126 15.601818 
L 203.597564 15.601818 
L 203.778002 16.082 
L 204.319315 16.082 
L 204.499752 15.601818 
L 204.68019 16.082 
L 204.860628 15.601818 
L 205.041065 15.601818 
L 205.221503 16.082 
L 205.401941 17.042364 
L 205.582378 52.095636 
L 205.762816 36.249636 
L 205.943254 31.928 
L 206.123691 37.690182 
L 206.304129 31.447818 
L 206.484566 36.729818 
L 206.845442 29.046909 
L 207.025879 35.769455 
L 207.206317 35.289273 
L 207.386755 36.249636 
L 207.567192 34.809091 
L 208.108505 28.566727 
L 208.288943 28.086545 
L 208.469381 28.566727 
L 208.649818 29.527091 
L 208.830256 29.046909 
L 209.010694 27.126182 
L 209.191131 28.566727 
L 209.371569 28.566727 
L 209.552007 29.046909 
L 209.732444 29.046909 
L 210.09332 28.086545 
L 210.273757 28.566727 
L 210.454195 28.086545 
L 210.81507 28.086545 
L 211.175945 27.126182 
L 211.356383 27.606364 
L 212.258571 27.606364 
L 212.439009 27.126182 
L 212.799884 27.126182 
L 212.980322 23.764909 
L 213.341197 29.527091 
L 213.521635 27.126182 
L 213.88251 27.126182 
L 214.062948 27.606364 
L 214.243386 27.606364 
L 214.423823 27.126182 
L 214.965136 27.126182 
L 215.145574 26.646 
L 215.867325 26.646 
L 216.047762 26.165818 
L 216.408637 26.165818 
L 216.589075 26.646 
L 216.769513 26.646 
L 216.94995 26.165818 
L 217.130388 27.126182 
L 217.310826 26.165818 
L 218.393452 26.165818 
L 218.573889 25.685636 
L 218.754327 26.165818 
L 218.934765 25.685636 
L 219.115202 26.165818 
L 219.29564 24.245091 
L 219.476078 25.685636 
L 220.017391 25.685636 
L 220.197828 26.165818 
L 220.378266 25.685636 
L 220.558704 26.165818 
L 220.739141 25.685636 
L 220.919579 24.725273 
L 221.100017 26.646 
L 221.280454 25.685636 
L 221.460892 26.165818 
L 221.641329 26.165818 
L 221.821767 25.685636 
L 222.543518 25.685636 
L 222.723955 26.165818 
L 222.904393 25.685636 
L 223.084831 25.685636 
L 223.265268 26.165818 
L 223.445706 25.685636 
L 223.806581 26.646 
L 223.987019 25.685636 
L 224.167457 26.165818 
L 224.347894 25.685636 
L 224.889207 25.685636 
L 225.069645 26.165818 
L 225.250083 25.685636 
L 225.610958 25.685636 
L 225.791396 26.165818 
L 226.332709 26.165818 
L 226.513146 25.685636 
L 226.693584 26.165818 
L 226.874021 27.606364 
L 227.234897 44.412727 
L 227.415334 21.364 
L 227.595772 16.082 
L 227.77621 16.082 
L 227.956647 15.601818 
L 228.49796 15.601818 
L 228.678398 16.562182 
L 228.858836 16.082 
L 229.761024 16.082 
L 229.941462 16.562182 
L 230.121899 22.324364 
L 230.302337 24.245091 
L 231.745838 54.016364 
L 232.106713 60.258727 
L 232.287151 64.100182 
L 232.467589 65.060545 
L 241.309034 65.060545 
L 241.489472 64.580364 
L 241.669909 65.060545 
L 248.165665 65.060545 
L 248.346102 65.540727 
L 248.52654 65.060545 
L 248.706978 65.540727 
L 248.887415 65.540727 
L 249.067853 65.060545 
L 249.609166 65.060545 
L 249.789604 64.100182 
L 250.150479 54.976727 
L 250.511354 51.615455 
L 251.052667 40.571273 
L 251.59398 37.690182 
L 251.954855 30.487455 
L 252.135293 28.566727 
L 252.496168 23.764909 
L 252.857044 21.364 
L 253.037481 19.443273 
L 253.217919 16.082 
L 254.480983 16.082 
L 254.66142 15.601818 
L 254.841858 15.601818 
L 255.022296 16.082 
L 255.563609 16.082 
L 255.744046 15.601818 
L 255.924484 16.082 
L 256.826672 16.082 
L 257.00711 15.601818 
L 257.187547 16.082 
L 257.72886 16.082 
L 257.909298 15.601818 
L 258.089736 16.082 
L 260.976738 16.082 
L 261.157176 15.601818 
L 261.337614 16.082 
L 261.518051 16.082 
L 261.698489 15.601818 
L 261.878927 16.082 
L 262.059364 15.601818 
L 262.239802 15.601818 
L 262.420239 16.082 
L 262.781115 16.082 
L 262.961552 15.601818 
L 263.14199 15.601818 
L 263.322428 16.082 
L 263.502865 16.082 
L 263.683303 15.601818 
L 263.863741 16.082 
L 264.224616 16.082 
L 264.405054 15.601818 
L 265.848555 15.601818 
L 266.028993 16.082 
L 266.20943 15.601818 
L 266.389868 16.082 
L 266.570306 16.082 
L 266.750743 15.601818 
L 266.931181 16.082 
L 268.013807 16.082 
L 268.194244 15.601818 
L 268.374682 16.082 
L 268.55512 15.601818 
L 268.735557 16.082 
L 271.983435 16.082 
L 272.163873 16.562182 
L 272.705186 16.562182 
L 272.885623 16.082 
L 273.246499 16.082 
L 273.607374 22.804545 
L 273.787812 24.245091 
L 273.968249 27.126182 
L 274.329125 38.170364 
L 274.509562 40.091091 
L 275.050875 52.095636 
L 275.772626 56.417273 
L 276.313939 64.580364 
L 276.494377 65.060545 
L 282.087944 65.060545 
L 282.268382 65.540727 
L 282.448819 65.060545 
L 287.140198 65.060545 
L 287.320636 64.580364 
L 287.501073 65.060545 
L 287.861949 65.060545 
L 288.042386 63.62 
L 288.222824 65.060545 
L 290.207638 65.060545 
L 290.388076 65.540727 
L 290.568514 65.060545 
L 290.748951 65.540727 
L 290.929389 65.060545 
L 291.831577 65.060545 
L 292.012015 65.540727 
L 292.192453 65.060545 
L 294.177267 65.060545 
L 294.357704 66.020909 
L 294.538142 65.060545 
L 296.342519 65.060545 
L 296.522956 63.62 
L 296.703394 65.060545 
L 299.951272 65.060545 
L 300.131709 65.540727 
L 300.312147 65.060545 
L 302.657836 65.060545 
L 302.838274 64.580364 
L 303.018712 65.060545 
L 310.957969 65.060545 
L 311.138406 64.580364 
L 311.318844 65.060545 
L 312.221032 65.060545 
L 312.40147 66.501091 
L 312.581908 65.060545 
L 315.288472 65.060545 
L 315.46891 65.540727 
L 315.649348 65.060545 
L 317.995037 65.060545 
L 318.175475 64.580364 
L 318.355912 65.060545 
L 326.295169 65.060545 
L 326.475607 65.540727 
L 327.919108 65.540727 
L 328.099546 65.060545 
L 328.279983 65.540727 
L 328.460421 65.060545 
L 328.821296 65.060545 
L 329.001734 65.540727 
L 329.182172 65.060545 
L 331.888737 65.060545 
L 332.069174 64.580364 
L 332.249612 65.060545 
L 333.512675 65.060545 
L 333.693113 65.540727 
L 334.053988 64.580364 
L 334.234426 65.060545 
L 334.956177 65.060545 
L 335.317052 66.020909 
L 335.49749 65.540727 
L 336.038803 65.540727 
L 336.21924 66.981273 
L 336.399678 65.060545 
L 336.940991 65.060545 
L 337.121429 65.540727 
L 337.301866 65.060545 
L 337.482304 65.060545 
L 337.662742 65.540727 
L 337.843179 65.060545 
L 338.204055 65.060545 
L 338.384492 65.540727 
L 338.56493 65.060545 
L 338.745367 65.540727 
L 338.925805 65.060545 
L 339.827993 65.060545 
L 340.008431 64.100182 
L 340.188869 65.060545 
L 340.730182 65.060545 
L 340.910619 65.540727 
L 341.091057 65.060545 
L 341.812808 65.060545 
L 341.993245 65.540727 
L 342.173683 65.060545 
L 342.354121 65.540727 
L 342.534558 65.540727 
L 342.714996 65.060545 
L 344.158497 65.060545 
L 344.338935 66.020909 
L 344.880248 71.783091 
L 345.060685 73.223636 
L 346.684624 96.272364 
L 347.225937 107.316545 
L 347.586813 108.276909 
L 348.489001 108.276909 
L 348.669438 107.796727 
L 348.849876 108.276909 
L 349.030314 108.276909 
L 349.210751 107.796727 
L 349.391189 108.276909 
L 350.83469 108.276909 
L 351.015128 107.796727 
L 351.195566 107.796727 
L 351.376003 108.276909 
L 351.917316 108.276909 
L 352.097754 107.796727 
L 352.278192 108.276909 
L 352.458629 108.276909 
L 352.639067 107.796727 
L 352.819505 108.276909 
L 356.067382 108.276909 
L 356.24782 107.796727 
L 356.428258 108.276909 
L 357.150008 108.276909 
L 357.330446 107.796727 
L 357.510884 108.276909 
L 364.908827 108.276909 
L 365.089265 107.796727 
L 365.811016 103.955273 
L 365.991453 102.034545 
L 366.171891 101.554364 
L 366.352329 100.594 
L 366.532766 97.232727 
L 366.713204 96.272364 
L 368.337143 70.342545 
L 368.517581 65.540727 
L 368.698018 64.100182 
L 368.878456 65.060545 
L 369.780644 65.060545 
L 369.961082 65.540727 
L 370.141519 65.540727 
L 370.321957 65.060545 
L 372.306771 65.060545 
L 372.487209 65.540727 
L 372.667647 65.060545 
L 373.750273 65.060545 
L 373.93071 65.540727 
L 374.111148 65.060545 
L 377.178588 65.060545 
L 377.359026 65.540727 
L 377.539463 65.060545 
L 379.704715 65.060545 
L 379.885153 65.540727 
L 380.06559 65.060545 
L 383.133031 65.060545 
L 383.313468 65.540727 
L 383.493906 65.060545 
L 383.674344 66.020909 
L 383.854781 65.540727 
L 384.035219 66.501091 
L 384.215656 66.020909 
L 384.396094 66.981273 
L 384.756969 65.540727 
L 385.117845 65.540727 
L 385.298282 65.060545 
L 385.47872 66.020909 
L 385.659158 65.060545 
L 387.463534 65.060545 
L 387.643972 63.62 
L 387.82441 65.060545 
L 389.087473 65.060545 
L 389.267911 65.540727 
L 389.448348 65.540727 
L 390.530974 81.386727 
L 391.433163 102.034545 
L 391.794038 111.638182 
L 412.183493 111.638182 
L 412.363931 109.237273 
L 412.905244 96.752545 
L 413.085681 94.831818 
L 413.626994 78.505636 
L 413.98787 65.060545 
L 414.890058 65.060545 
L 415.070495 65.540727 
L 415.250933 65.060545 
L 415.972684 65.060545 
L 416.153121 65.540727 
L 416.333559 65.060545 
L 420.8445 65.060545 
L 421.024938 67.461455 
L 421.205376 65.060545 
L 422.468439 65.060545 
L 422.648877 65.540727 
L 422.829315 65.060545 
L 424.814129 65.060545 
L 424.994566 64.100182 
L 425.175004 65.060545 
L 428.783757 65.060545 
L 428.964195 66.020909 
L 429.144633 65.060545 
L 430.768571 65.060545 
L 430.949009 68.421818 
L 431.129447 65.060545 
L 434.557762 65.060545 
L 434.7382 65.540727 
L 434.918637 65.060545 
L 436.181701 65.060545 
L 436.362139 65.540727 
L 437.083889 75.624545 
L 437.625202 82.347091 
L 438.166515 90.510182 
L 438.346953 91.470545 
L 438.707828 96.272364 
L 438.888266 97.232727 
L 439.610017 108.757091 
L 439.790454 111.638182 
L 461.62341 111.638182 
L 462.345161 101.074182 
L 462.886474 90.510182 
L 463.9691 72.263273 
L 464.329975 65.060545 
L 464.510413 65.060545 
L 464.690851 65.540727 
L 465.593039 65.540727 
L 465.773476 65.060545 
L 465.953914 65.540727 
L 466.134352 65.060545 
L 466.314789 65.540727 
L 466.495227 65.060545 
L 466.675665 65.060545 
L 467.03654 66.020909 
L 467.216978 65.060545 
L 467.397415 65.060545 
L 467.577853 65.540727 
L 467.758291 65.060545 
L 469.021354 65.060545 
L 469.201792 65.540727 
L 469.38223 65.060545 
L 469.562667 65.540727 
L 469.743105 65.060545 
L 474.073609 65.060545 
L 474.254046 65.540727 
L 474.434484 65.060545 
L 475.877985 65.060545 
L 476.058423 64.580364 
L 476.23886 65.060545 
L 478.945425 65.060545 
L 479.125863 64.580364 
L 479.306301 65.060545 
L 482.554178 65.060545 
L 482.734616 65.540727 
L 482.915054 65.060545 
L 491.756499 65.060545 
L 491.936936 65.540727 
L 492.117374 65.060545 
L 493.2 65.060545 
L 493.2 65.060545 
" clip-path="url(#p9e7890e8af)" style="fill: none; stroke: #1f77b4; stroke-width: 1.5; stroke-linecap: square"/>
   </g>
   <g id="line2d_12">
    <path d="M 56.18 63.62 
L 493.2 63.62 
" clip-path="url(#p9e7890e8af)" style="fill: none; stroke-dasharray: 2.96,1.28; stroke-dashoffset: 0; stroke: #808080; stroke-width: 0.8"/>
   </g>
   <g id="patch_3">
    <path d="M 56.18 116.44 
L 56.18 10.8 
" style="fill: none; stroke: #000000; stroke-width: 0.8; stroke-linejoin: miter; stroke-linecap: square"/>
   </g>
   <g id="patch_4">
    <path d="M 56.18 116.44 
L 493.2 116.44 
" style="fill: none; stroke: #000000; stroke-width: 0.8; stroke-linejoin: miter; stroke-linecap: square"/>
   </g>
  </g>
  <g id="axes_2">
   <g id="patch_5">
    <path d="M 56.18 264.04 
L 493.2 264.04 
L 493.2 158.4 
L 56.18 158.4 
z
" style="fill: #ffffff"/>
   </g>
   <g id="matplotlib.axis_3">
    <g id="xtick_6">
     <g id="line2d_13">
      <g>
       <use xlink:href="#m67f2e75a30" x="56.18" y="264.04" style="stroke: #000000; stroke-width: 0.8"/>
      </g>
     </g>
     <g id="text_13">
      <!-- 0 -->
      <g transform="translate(52.99875 278.638438) scale(0.1 -0.1)">
       <use xlink:href="#DejaVuSans-30"/>
      </g>
     </g>
    </g>
    <g id="xtick_7">
     <g id="line2d_14">
      <g>
       <use xlink:href="#m67f2e75a30" x="146.398827" y="264.04" style="stroke: #000000; stroke-width: 0.8"/>
      </g>
     </g>
     <g id="text_14">
      <!-- 5000 -->
      <g transform="translate(133.673827 278.638438) scale(0.1 -0.1)">
       <use xlink:href="#DejaVuSans-35"/>
       <use xlink:href="#DejaVuSans-30" x="63.623047"/>
       <use xlink:href="#DejaVuSans-30" x="127.246094"/>
       <use xlink:href="#DejaVuSans-30" x="190.869141"/>
      </g>
     </g>
    </g>
    <g id="xtick_8">
     <g id="line2d_15">
      <g>
       <use xlink:href="#m67f2e75a30" x="236.617655" y="264.04" style="stroke: #000000; stroke-width: 0.8"/>
      </g>
     </g>
     <g id="text_15">
      <!-- 10000 -->
      <g transform="translate(220.711405 278.638438) scale(0.1 -0.1)">
       <use xlink:href="#DejaVuSans-31"/>
       <use xlink:href="#DejaVuSans-30" x="63.623047"/>
       <use xlink:href="#DejaVuSans-30" x="127.246094"/>
       <use xlink:href="#DejaVuSans-30" x="190.869141"/>
       <use xlink:href="#DejaVuSans-30" x="254.492188"/>
      </g>
     </g>
    </g>
    <g id="xtick_9">
     <g id="line2d_16">
      <g>
       <use xlink:href="#m67f2e75a30" x="326.836482" y="264.04" style="stroke: #000000; stroke-width: 0.8"/>
      </g>
     </g>
     <g id="text_16">
      <!-- 15000 -->
      <g transform="translate(310.930232 278.638438) scale(0.1 -0.1)">
       <use xlink:href="#DejaVuSans-31"/>
       <use xlink:href="#DejaVuSans-35" x="63.623047"/>
       <use xlink:href="#DejaVuSans-30" x="127.246094"/>
       <use xlink:href="#DejaVuSans-30" x="190.869141"/>
       <use xlink:href="#DejaVuSans-30" x="254.492188"/>
      </g>
     </g>
    </g>
    <g id="xtick_10">
     <g id="line2d_17">
      <g>
       <use xlink:href="#m67f2e75a30" x="417.05531" y="264.04" style="stroke: #000000; stroke-width: 0.8"/>
      </g>
     </g>
     <g id="text_17">
      <!-- 20000 -->
      <g transform="translate(401.14906 278.638438) scale(0.1 -0.1)">
       <use xlink:href="#DejaVuSans-32"/>
       <use xlink:href="#DejaVuSans-30" x="63.623047"/>
       <use xlink:href="#DejaVuSans-30" x="127.246094"/>
       <use xlink:href="#DejaVuSans-30" x="190.869141"/>
       <use xlink:href="#DejaVuSans-30" x="254.492188"/>
      </g>
     </g>
    </g>
    <g id="text_18">
     <!-- Time (ms) -->
     <g transform="translate(249.490781 292.316563) scale(0.1 -0.1)">
      <use xlink:href="#DejaVuSans-54"/>
      <use xlink:href="#DejaVuSans-69" x="57.958984"/>
      <use xlink:href="#DejaVuSans-6d" x="85.742188"/>
      <use xlink:href="#DejaVuSans-65" x="183.154297"/>
      <use xlink:href="#DejaVuSans-20" x="244.677734"/>
      <use xlink:href="#DejaVuSans-28" x="276.464844"/>
      <use xlink:href="#DejaVuSans-6d" x="315.478516"/>
      <use xlink:href="#DejaVuSans-73" x="412.890625"/>
      <use xlink:href="#DejaVuSans-29" x="464.990234"/>
     </g>
    </g>
   </g>
   <g id="matplotlib.axis_4">
    <g id="ytick_6">
     <g id="line2d_18">
      <g>
       <use xlink:href="#maee91e5538" x="56.18" y="259.238182" style="stroke: #000000; stroke-width: 0.8"/>
      </g>
     </g>
     <g id="text_19">
      <!-- −1.0 -->
      <g transform="translate(24.897188 263.037401) scale(0.1 -0.1)">
       <use xlink:href="#DejaVuSans-2212"/>
       <use xlink:href="#DejaVuSans-31" x="83.789062"/>
       <use xlink:href="#DejaVuSans-2e" x="147.412109"/>
       <use xlink:href="#DejaVuSans-30" x="179.199219"/>
      </g>
     </g>
    </g>
    <g id="ytick_7">
     <g id="line2d_19">
      <g>
       <use xlink:href="#maee91e5538" x="56.18" y="235.229091" style="stroke: #000000; stroke-width: 0.8"/>
      </g>
     </g>
     <g id="text_20">
      <!-- −0.5 -->
      <g transform="translate(24.897188 239.02831) scale(0.1 -0.1)">
       <use xlink:href="#DejaVuSans-2212"/>
       <use xlink:href="#DejaVuSans-30" x="83.789062"/>
       <use xlink:href="#DejaVuSans-2e" x="147.412109"/>
       <use xlink:href="#DejaVuSans-35" x="179.199219"/>
      </g>
     </g>
    </g>
    <g id="ytick_8">
     <g id="line2d_20">
      <g>
       <use xlink:href="#maee91e5538" x="56.18" y="211.22" style="stroke: #000000; stroke-width: 0.8"/>
      </g>
     </g>
     <g id="text_21">
      <!-- 0.0 -->
      <g transform="translate(33.276875 215.019219) scale(0.1 -0.1)">
       <use xlink:href="#DejaVuSans-30"/>
       <use xlink:href="#DejaVuSans-2e" x="63.623047"/>
       <use xlink:href="#DejaVuSans-30" x="95.410156"/>
      </g>
     </g>
    </g>
    <g id="ytick_9">
     <g id="line2d_21">
      <g>
       <use xlink:href="#maee91e5538" x="56.18" y="187.210909" style="stroke: #000000; stroke-width: 0.8"/>
      </g>
     </g>
     <g id="text_22">
      <!-- 0.5 -->
      <g transform="translate(33.276875 191.010128) scale(0.1 -0.1)">
       <use xlink:href="#DejaVuSans-30"/>
       <use xlink:href="#DejaVuSans-2e" x="63.623047"/>
       <use xlink:href="#DejaVuSans-35" x="95.410156"/>
      </g>
     </g>
    </g>
    <g id="ytick_10">
     <g id="line2d_22">
      <g>
       <use xlink:href="#maee91e5538" x="56.18" y="163.201818" style="stroke: #000000; stroke-width: 0.8"/>
      </g>
     </g>
     <g id="text_23">
      <!-- 1.0 -->
      <g transform="translate(33.276875 167.001037) scale(0.1 -0.1)">
       <use xlink:href="#DejaVuSans-31"/>
       <use xlink:href="#DejaVuSans-2e" x="63.623047"/>
       <use xlink:href="#DejaVuSans-30" x="95.410156"/>
      </g>
     </g>
    </g>
    <g id="text_24">
     <!-- Y-Axis Value -->
     <g transform="translate(18.8175 241.065313) rotate(-90) scale(0.1 -0.1)">
      <defs>
       <path id="DejaVuSans-59" d="M -13 4666 
L 666 4666 
L 1959 2747 
L 3244 4666 
L 3922 4666 
L 2272 2222 
L 2272 0 
L 1638 0 
L 1638 2222 
L -13 4666 
z
" transform="scale(0.015625)"/>
      </defs>
      <use xlink:href="#DejaVuSans-59"/>
      <use xlink:href="#DejaVuSans-2d" x="49.208984"/>
      <use xlink:href="#DejaVuSans-41" x="83.042969"/>
      <use xlink:href="#DejaVuSans-78" x="151.451172"/>
      <use xlink:href="#DejaVuSans-69" x="210.630859"/>
      <use xlink:href="#DejaVuSans-73" x="238.414062"/>
      <use xlink:href="#DejaVuSans-20" x="290.513672"/>
      <use xlink:href="#DejaVuSans-56" x="322.300781"/>
      <use xlink:href="#DejaVuSans-61" x="382.958984"/>
      <use xlink:href="#DejaVuSans-6c" x="444.238281"/>
      <use xlink:href="#DejaVuSans-75" x="472.021484"/>
      <use xlink:href="#DejaVuSans-65" x="535.400391"/>
     </g>
    </g>
   </g>
   <g id="line2d_23">
    <path d="M 56.18 209.779455 
L 74.945516 209.779455 
L 75.125954 210.259636 
L 75.306391 209.779455 
L 79.095582 209.779455 
L 79.27602 210.739818 
L 79.456457 209.779455 
L 82.884773 209.779455 
L 83.065211 210.259636 
L 83.245648 209.779455 
L 90.463154 209.779455 
L 90.643592 209.299273 
L 90.82403 209.779455 
L 92.087093 209.779455 
L 92.267531 210.259636 
L 92.447969 209.779455 
L 95.154533 209.779455 
L 95.334971 210.259636 
L 95.515409 209.779455 
L 104.537291 209.779455 
L 105.259042 198.255091 
L 105.43948 195.854182 
L 105.980793 184.81 
L 106.702543 174.246 
L 107.063419 171.845091 
L 107.424294 166.563091 
L 107.785169 163.682 
L 108.867795 163.682 
L 109.048233 163.201818 
L 109.228671 163.682 
L 109.769983 163.682 
L 109.950421 163.201818 
L 110.130859 163.682 
L 111.935235 163.682 
L 112.115673 163.201818 
L 112.296111 163.682 
L 113.017861 163.682 
L 113.198299 163.201818 
L 113.378737 164.162182 
L 113.559174 163.682 
L 115.363551 163.682 
L 115.543988 164.162182 
L 115.724426 163.682 
L 115.904864 164.162182 
L 116.085301 163.682 
L 116.265739 163.682 
L 116.446177 163.201818 
L 116.626614 163.682 
L 116.807052 163.682 
L 116.98749 164.162182 
L 117.167927 163.682 
L 118.250553 163.682 
L 118.430991 164.162182 
L 118.611429 163.682 
L 120.596243 163.682 
L 120.77668 163.201818 
L 120.957118 163.682 
L 121.137556 163.682 
L 121.317993 163.201818 
L 121.498431 163.682 
L 124.024558 163.682 
L 124.204996 163.201818 
L 124.385434 163.201818 
L 124.565871 163.682 
L 124.746309 163.201818 
L 124.926746 164.162182 
L 125.107184 163.201818 
L 125.287622 163.682 
L 128.174624 163.682 
L 128.355062 166.082909 
L 128.5355 173.285636 
L 128.715937 175.686545 
L 129.979001 208.819091 
L 130.159438 209.779455 
L 139.903072 209.779455 
L 140.083509 209.299273 
L 140.263947 209.779455 
L 141.166135 209.779455 
L 141.346573 210.259636 
L 141.527011 209.779455 
L 145.496639 209.779455 
L 145.677077 211.22 
L 145.857514 209.779455 
L 152.714145 209.779455 
L 153.796771 193.933455 
L 155.059835 174.246 
L 155.240273 173.765818 
L 155.42071 172.325273 
L 155.781585 164.642364 
L 155.962023 163.682 
L 156.683774 163.682 
L 156.864211 163.201818 
L 157.044649 163.682 
L 158.668588 163.682 
L 158.849026 163.201818 
L 159.029463 163.682 
L 160.292527 163.682 
L 160.472964 163.201818 
L 160.653402 163.682 
L 163.720842 163.682 
L 163.90128 164.162182 
L 164.081718 163.682 
L 168.773097 163.682 
L 168.953534 164.162182 
L 169.133972 163.682 
L 169.494847 163.682 
L 169.675285 163.201818 
L 170.03616 163.201818 
L 170.216598 163.682 
L 170.577473 163.682 
L 170.757911 163.201818 
L 170.938348 163.682 
L 172.020974 163.682 
L 172.201412 163.201818 
L 172.38185 163.682 
L 172.562287 163.201818 
L 172.742725 163.201818 
L 172.923163 163.682 
L 176.531916 163.682 
L 176.712353 164.162182 
L 177.614542 179.528 
L 177.975417 183.369455 
L 178.336292 186.730727 
L 179.238481 200.175818 
L 179.779794 209.779455 
L 180.140669 209.779455 
L 180.321107 209.299273 
L 180.501544 209.779455 
L 183.388547 209.779455 
L 183.568984 210.259636 
L 183.749422 209.779455 
L 205.943254 209.779455 
L 206.123691 209.299273 
L 206.304129 209.779455 
L 209.010694 209.779455 
L 209.191131 210.259636 
L 209.371569 209.779455 
L 210.09332 209.779455 
L 210.273757 210.259636 
L 210.454195 209.779455 
L 212.078134 209.779455 
L 212.258571 210.259636 
L 212.439009 209.779455 
L 213.702073 209.779455 
L 213.88251 210.259636 
L 214.062948 209.779455 
L 224.167457 209.779455 
L 224.347894 209.299273 
L 224.528332 209.779455 
L 233.91109 209.779455 
L 234.091528 210.259636 
L 234.271965 209.779455 
L 235.174154 209.779455 
L 235.354591 210.259636 
L 235.535029 209.779455 
L 238.241594 209.779455 
L 238.422031 209.299273 
L 238.602469 209.779455 
L 242.030784 209.779455 
L 242.211222 210.259636 
L 242.39166 209.779455 
L 245.278662 209.779455 
L 245.4591 210.259636 
L 245.639538 209.779455 
L 246.000413 209.779455 
L 246.180851 210.259636 
L 246.361288 210.259636 
L 246.541726 209.779455 
L 249.609166 209.779455 
L 249.789604 210.259636 
L 249.970041 215.541636 
L 250.87223 226.105636 
L 253.037481 259.238182 
L 258.450611 259.238182 
L 258.631049 258.277818 
L 258.811486 259.238182 
L 271.802998 259.238182 
L 271.983435 257.797636 
L 272.34431 253.476 
L 273.066061 249.154364 
L 273.607374 245.312909 
L 273.787812 244.832727 
L 274.148687 241.951636 
L 274.329125 241.471455 
L 274.69 239.070545 
L 275.231313 234.268727 
L 276.133501 223.704727 
L 277.03569 210.259636 
L 277.216127 209.779455 
L 286.057572 209.779455 
L 286.23801 208.819091 
L 286.418448 209.779455 
L 292.733765 209.779455 
L 292.914203 210.259636 
L 293.094641 209.779455 
L 293.996829 209.779455 
L 294.177267 210.259636 
L 294.357704 209.779455 
L 296.522956 209.779455 
L 297.244707 236.669636 
L 297.78602 250.594909 
L 298.146895 258.277818 
L 298.327333 259.238182 
L 307.710091 259.238182 
L 307.890528 257.797636 
L 308.070966 259.238182 
L 316.190661 259.238182 
L 316.371098 258.758 
L 316.551536 259.238182 
L 321.964666 259.238182 
L 322.145103 257.797636 
L 322.505979 251.555273 
L 322.866854 244.832727 
L 324.129917 216.982182 
L 324.67123 209.779455 
L 325.753856 209.779455 
L 325.934294 210.259636 
L 326.114732 210.259636 
L 326.295169 209.779455 
L 329.001734 209.779455 
L 329.182172 210.259636 
L 329.362609 209.779455 
L 343.797622 209.779455 
L 343.978059 210.739818 
L 344.69981 225.145273 
L 345.962874 256.837273 
L 346.143311 259.238182 
L 347.406375 259.238182 
L 347.586813 258.277818 
L 347.76725 259.238182 
L 367.254517 259.238182 
L 368.156705 246.273273 
L 369.600206 225.625455 
L 370.321957 210.739818 
L 370.502395 210.259636 
L 370.86327 210.259636 
L 371.043708 209.779455 
L 373.028522 209.779455 
L 373.20896 210.259636 
L 373.389397 209.779455 
L 373.750273 209.779455 
L 373.93071 210.259636 
L 374.111148 209.779455 
L 386.380908 209.779455 
L 386.561346 210.259636 
L 386.741784 209.779455 
L 388.185285 209.779455 
L 388.365723 210.259636 
L 388.54616 209.779455 
L 397.928918 209.779455 
L 398.109356 210.259636 
L 398.289794 209.779455 
L 403.16161 209.779455 
L 403.342048 210.739818 
L 403.522486 209.779455 
L 409.116053 209.779455 
L 409.296491 210.259636 
L 409.476928 209.779455 
L 418.859686 209.779455 
L 419.040124 209.299273 
L 419.220562 209.779455 
L 429.866383 209.779455 
L 430.046821 210.259636 
L 430.227258 209.779455 
L 430.949009 209.779455 
L 431.129447 210.259636 
L 431.309884 209.779455 
L 437.083889 209.779455 
L 437.264327 207.858727 
L 437.625202 201.136182 
L 438.527391 190.572182 
L 438.888266 186.250545 
L 439.970892 168.003636 
L 440.151329 164.162182 
L 440.331767 163.682 
L 440.87308 163.682 
L 441.053518 163.201818 
L 441.233955 163.682 
L 442.497019 163.682 
L 442.677457 164.642364 
L 442.857894 163.682 
L 443.579645 163.682 
L 443.760083 164.162182 
L 443.94052 163.682 
L 449.35365 163.682 
L 449.534088 163.201818 
L 449.714525 163.682 
L 450.255838 163.682 
L 450.436276 163.201818 
L 450.616713 163.682 
L 459.819034 163.682 
L 459.999472 163.201818 
L 460.179909 163.682 
L 461.984286 163.682 
L 462.164723 164.162182 
L 462.706036 174.246 
L 462.886474 177.127091 
L 463.427787 189.611818 
L 464.149538 204.497455 
L 464.329975 209.299273 
L 464.510413 209.779455 
L 486.343369 209.779455 
L 486.523807 209.299273 
L 486.704244 209.779455 
L 493.2 209.779455 
L 493.2 209.779455 
" clip-path="url(#pf1570d43b4)" style="fill: none; stroke: #1f77b4; stroke-width: 1.5; stroke-linecap: square"/>
   </g>
   <g id="line2d_24">
    <path d="M 56.18 211.22 
L 493.2 211.22 
" clip-path="url(#pf1570d43b4)" style="fill: none; stroke-dasharray: 2.96,1.28; stroke-dashoffset: 0; stroke: #808080; stroke-width: 0.8"/>
   </g>
   <g id="patch_6">
    <path d="M 56.18 264.04 
L 56.18 158.4 
" style="fill: none; stroke: #000000; stroke-width: 0.8; stroke-linejoin: miter; stroke-linecap: square"/>
   </g>
   <g id="patch_7">
    <path d="M 56.18 264.04 
L 493.2 264.04 
" style="fill: none; stroke: #000000; stroke-width: 0.8; stroke-linejoin: miter; stroke-linecap: square"/>
   </g>
  </g>
 </g>
 <defs>
  <clipPath id="p9e7890e8af">
   <rect x="56.18" y="10.8" width="437.02" height="105.64"/>
  </clipPath>
  <clipPath id="pf1570d43b4">
   <rect x="56.18" y="158.4" width="437.02" height="105.64"/>
  </clipPath>
 </defs>
</svg>
