<?xml version="1.0" encoding="utf-8" standalone="no"?>
<!DOCTYPE svg PUBLIC "-//W3C//DTD SVG 1.1//EN"
  "http://www.w3.org/Graphics/SVG/1.1/DTD/svg11.dtd">
<svg xmlns:xlink="http://www.w3.org/1999/xlink" width="504pt" height="306pt" viewBox="0 0 504 306" xmlns="http://www.w3.org/2000/svg" version="1.1">
 <metadata>
  <rdf:RDF xmlns:dc="http://purl.org/dc/elements/1.1/" xmlns:cc="http://creativecommons.org/ns#" xmlns:rdf="http://www.w3.org/1999/02/22-rdf-syntax-ns#">
   <cc:Work>
    <dc:type rdf:resource="http://purl.org/dc/dcmitype/StillImage"/>
    <dc:date>2024-06-16T22:16:28.029677</dc:date>
    <dc:format>image/svg+xml</dc:format>
    <dc:creator>
     <cc:Agent>
      <dc:title>Matplotlib v3.8.3, https://matplotlib.org/</dc:title>
     </cc:Agent>
    </dc:creator>
   </cc:Work>
  </rdf:RDF>
 </metadata>
 <defs>
  <style type="text/css">*{stroke-linejoin: round; stroke-linecap: butt}</style>
 </defs>
 <g id="figure_1">
  <g id="patch_1">
   <path d="M 0 306 
L 504 306 
L 504 0 
L 0 0 
z
" style="fill: #ffffff"/>
  </g>
  <g id="axes_1">
   <g id="patch_2">
    <path d="M 56.18 116.44 
L 493.2 116.44 
L 493.2 10.8 
L 56.18 10.8 
z
" style="fill: #ffffff"/>
   </g>
   <g id="matplotlib.axis_1">
    <g id="xtick_1">
     <g id="line2d_1">
      <defs>
       <path id="m0d268bf465" d="M 0 0 
L 0 3.5 
" style="stroke: #000000; stroke-width: 0.8"/>
      </defs>
      <g>
       <use xlink:href="#m0d268bf465" x="56.18" y="116.44" style="stroke: #000000; stroke-width: 0.8"/>
      </g>
     </g>
     <g id="text_1">
      <!-- 0 -->
      <g transform="translate(52.99875 131.038437) scale(0.1 -0.1)">
       <defs>
        <path id="DejaVuSans-30" d="M 2034 4250 
Q 1547 4250 1301 3770 
Q 1056 3291 1056 2328 
Q 1056 1369 1301 889 
Q 1547 409 2034 409 
Q 2525 409 2770 889 
Q 3016 1369 3016 2328 
Q 3016 3291 2770 3770 
Q 2525 4250 2034 4250 
z
M 2034 4750 
Q 2819 4750 3233 4129 
Q 3647 3509 3647 2328 
Q 3647 1150 3233 529 
Q 2819 -91 2034 -91 
Q 1250 -91 836 529 
Q 422 1150 422 2328 
Q 422 3509 836 4129 
Q 1250 4750 2034 4750 
z
" transform="scale(0.015625)"/>
       </defs>
       <use xlink:href="#DejaVuSans-30"/>
      </g>
     </g>
    </g>
    <g id="xtick_2">
     <g id="line2d_2">
      <g>
       <use xlink:href="#m0d268bf465" x="111.08201" y="116.44" style="stroke: #000000; stroke-width: 0.8"/>
      </g>
     </g>
     <g id="text_2">
      <!-- 1000 -->
      <g transform="translate(98.35701 131.038437) scale(0.1 -0.1)">
       <defs>
        <path id="DejaVuSans-31" d="M 794 531 
L 1825 531 
L 1825 4091 
L 703 3866 
L 703 4441 
L 1819 4666 
L 2450 4666 
L 2450 531 
L 3481 531 
L 3481 0 
L 794 0 
L 794 531 
z
" transform="scale(0.015625)"/>
       </defs>
       <use xlink:href="#DejaVuSans-31"/>
       <use xlink:href="#DejaVuSans-30" x="63.623047"/>
       <use xlink:href="#DejaVuSans-30" x="127.246094"/>
       <use xlink:href="#DejaVuSans-30" x="190.869141"/>
      </g>
     </g>
    </g>
    <g id="xtick_3">
     <g id="line2d_3">
      <g>
       <use xlink:href="#m0d268bf465" x="165.98402" y="116.44" style="stroke: #000000; stroke-width: 0.8"/>
      </g>
     </g>
     <g id="text_3">
      <!-- 2000 -->
      <g transform="translate(153.25902 131.038437) scale(0.1 -0.1)">
       <defs>
        <path id="DejaVuSans-32" d="M 1228 531 
L 3431 531 
L 3431 0 
L 469 0 
L 469 531 
Q 828 903 1448 1529 
Q 2069 2156 2228 2338 
Q 2531 2678 2651 2914 
Q 2772 3150 2772 3378 
Q 2772 3750 2511 3984 
Q 2250 4219 1831 4219 
Q 1534 4219 1204 4116 
Q 875 4013 500 3803 
L 500 4441 
Q 881 4594 1212 4672 
Q 1544 4750 1819 4750 
Q 2544 4750 2975 4387 
Q 3406 4025 3406 3419 
Q 3406 3131 3298 2873 
Q 3191 2616 2906 2266 
Q 2828 2175 2409 1742 
Q 1991 1309 1228 531 
z
" transform="scale(0.015625)"/>
       </defs>
       <use xlink:href="#DejaVuSans-32"/>
       <use xlink:href="#DejaVuSans-30" x="63.623047"/>
       <use xlink:href="#DejaVuSans-30" x="127.246094"/>
       <use xlink:href="#DejaVuSans-30" x="190.869141"/>
      </g>
     </g>
    </g>
    <g id="xtick_4">
     <g id="line2d_4">
      <g>
       <use xlink:href="#m0d268bf465" x="220.88603" y="116.44" style="stroke: #000000; stroke-width: 0.8"/>
      </g>
     </g>
     <g id="text_4">
      <!-- 3000 -->
      <g transform="translate(208.16103 131.038437) scale(0.1 -0.1)">
       <defs>
        <path id="DejaVuSans-33" d="M 2597 2516 
Q 3050 2419 3304 2112 
Q 3559 1806 3559 1356 
Q 3559 666 3084 287 
Q 2609 -91 1734 -91 
Q 1441 -91 1130 -33 
Q 819 25 488 141 
L 488 750 
Q 750 597 1062 519 
Q 1375 441 1716 441 
Q 2309 441 2620 675 
Q 2931 909 2931 1356 
Q 2931 1769 2642 2001 
Q 2353 2234 1838 2234 
L 1294 2234 
L 1294 2753 
L 1863 2753 
Q 2328 2753 2575 2939 
Q 2822 3125 2822 3475 
Q 2822 3834 2567 4026 
Q 2313 4219 1838 4219 
Q 1578 4219 1281 4162 
Q 984 4106 628 3988 
L 628 4550 
Q 988 4650 1302 4700 
Q 1616 4750 1894 4750 
Q 2613 4750 3031 4423 
Q 3450 4097 3450 3541 
Q 3450 3153 3228 2886 
Q 3006 2619 2597 2516 
z
" transform="scale(0.015625)"/>
       </defs>
       <use xlink:href="#DejaVuSans-33"/>
       <use xlink:href="#DejaVuSans-30" x="63.623047"/>
       <use xlink:href="#DejaVuSans-30" x="127.246094"/>
       <use xlink:href="#DejaVuSans-30" x="190.869141"/>
      </g>
     </g>
    </g>
    <g id="xtick_5">
     <g id="line2d_5">
      <g>
       <use xlink:href="#m0d268bf465" x="275.78804" y="116.44" style="stroke: #000000; stroke-width: 0.8"/>
      </g>
     </g>
     <g id="text_5">
      <!-- 4000 -->
      <g transform="translate(263.06304 131.038437) scale(0.1 -0.1)">
       <defs>
        <path id="DejaVuSans-34" d="M 2419 4116 
L 825 1625 
L 2419 1625 
L 2419 4116 
z
M 2253 4666 
L 3047 4666 
L 3047 1625 
L 3713 1625 
L 3713 1100 
L 3047 1100 
L 3047 0 
L 2419 0 
L 2419 1100 
L 313 1100 
L 313 1709 
L 2253 4666 
z
" transform="scale(0.015625)"/>
       </defs>
       <use xlink:href="#DejaVuSans-34"/>
       <use xlink:href="#DejaVuSans-30" x="63.623047"/>
       <use xlink:href="#DejaVuSans-30" x="127.246094"/>
       <use xlink:href="#DejaVuSans-30" x="190.869141"/>
      </g>
     </g>
    </g>
    <g id="xtick_6">
     <g id="line2d_6">
      <g>
       <use xlink:href="#m0d268bf465" x="330.69005" y="116.44" style="stroke: #000000; stroke-width: 0.8"/>
      </g>
     </g>
     <g id="text_6">
      <!-- 5000 -->
      <g transform="translate(317.96505 131.038437) scale(0.1 -0.1)">
       <defs>
        <path id="DejaVuSans-35" d="M 691 4666 
L 3169 4666 
L 3169 4134 
L 1269 4134 
L 1269 2991 
Q 1406 3038 1543 3061 
Q 1681 3084 1819 3084 
Q 2600 3084 3056 2656 
Q 3513 2228 3513 1497 
Q 3513 744 3044 326 
Q 2575 -91 1722 -91 
Q 1428 -91 1123 -41 
Q 819 9 494 109 
L 494 744 
Q 775 591 1075 516 
Q 1375 441 1709 441 
Q 2250 441 2565 725 
Q 2881 1009 2881 1497 
Q 2881 1984 2565 2268 
Q 2250 2553 1709 2553 
Q 1456 2553 1204 2497 
Q 953 2441 691 2322 
L 691 4666 
z
" transform="scale(0.015625)"/>
       </defs>
       <use xlink:href="#DejaVuSans-35"/>
       <use xlink:href="#DejaVuSans-30" x="63.623047"/>
       <use xlink:href="#DejaVuSans-30" x="127.246094"/>
       <use xlink:href="#DejaVuSans-30" x="190.869141"/>
      </g>
     </g>
    </g>
    <g id="xtick_7">
     <g id="line2d_7">
      <g>
       <use xlink:href="#m0d268bf465" x="385.59206" y="116.44" style="stroke: #000000; stroke-width: 0.8"/>
      </g>
     </g>
     <g id="text_7">
      <!-- 6000 -->
      <g transform="translate(372.86706 131.038437) scale(0.1 -0.1)">
       <defs>
        <path id="DejaVuSans-36" d="M 2113 2584 
Q 1688 2584 1439 2293 
Q 1191 2003 1191 1497 
Q 1191 994 1439 701 
Q 1688 409 2113 409 
Q 2538 409 2786 701 
Q 3034 994 3034 1497 
Q 3034 2003 2786 2293 
Q 2538 2584 2113 2584 
z
M 3366 4563 
L 3366 3988 
Q 3128 4100 2886 4159 
Q 2644 4219 2406 4219 
Q 1781 4219 1451 3797 
Q 1122 3375 1075 2522 
Q 1259 2794 1537 2939 
Q 1816 3084 2150 3084 
Q 2853 3084 3261 2657 
Q 3669 2231 3669 1497 
Q 3669 778 3244 343 
Q 2819 -91 2113 -91 
Q 1303 -91 875 529 
Q 447 1150 447 2328 
Q 447 3434 972 4092 
Q 1497 4750 2381 4750 
Q 2619 4750 2861 4703 
Q 3103 4656 3366 4563 
z
" transform="scale(0.015625)"/>
       </defs>
       <use xlink:href="#DejaVuSans-36"/>
       <use xlink:href="#DejaVuSans-30" x="63.623047"/>
       <use xlink:href="#DejaVuSans-30" x="127.246094"/>
       <use xlink:href="#DejaVuSans-30" x="190.869141"/>
      </g>
     </g>
    </g>
    <g id="xtick_8">
     <g id="line2d_8">
      <g>
       <use xlink:href="#m0d268bf465" x="440.49407" y="116.44" style="stroke: #000000; stroke-width: 0.8"/>
      </g>
     </g>
     <g id="text_8">
      <!-- 7000 -->
      <g transform="translate(427.76907 131.038437) scale(0.1 -0.1)">
       <defs>
        <path id="DejaVuSans-37" d="M 525 4666 
L 3525 4666 
L 3525 4397 
L 1831 0 
L 1172 0 
L 2766 4134 
L 525 4134 
L 525 4666 
z
" transform="scale(0.015625)"/>
       </defs>
       <use xlink:href="#DejaVuSans-37"/>
       <use xlink:href="#DejaVuSans-30" x="63.623047"/>
       <use xlink:href="#DejaVuSans-30" x="127.246094"/>
       <use xlink:href="#DejaVuSans-30" x="190.869141"/>
      </g>
     </g>
    </g>
    <g id="text_9">
     <!-- Time (ms) -->
     <g transform="translate(249.490781 144.716562) scale(0.1 -0.1)">
      <defs>
       <path id="DejaVuSans-54" d="M -19 4666 
L 3928 4666 
L 3928 4134 
L 2272 4134 
L 2272 0 
L 1638 0 
L 1638 4134 
L -19 4134 
L -19 4666 
z
" transform="scale(0.015625)"/>
       <path id="DejaVuSans-69" d="M 603 3500 
L 1178 3500 
L 1178 0 
L 603 0 
L 603 3500 
z
M 603 4863 
L 1178 4863 
L 1178 4134 
L 603 4134 
L 603 4863 
z
" transform="scale(0.015625)"/>
       <path id="DejaVuSans-6d" d="M 3328 2828 
Q 3544 3216 3844 3400 
Q 4144 3584 4550 3584 
Q 5097 3584 5394 3201 
Q 5691 2819 5691 2113 
L 5691 0 
L 5113 0 
L 5113 2094 
Q 5113 2597 4934 2840 
Q 4756 3084 4391 3084 
Q 3944 3084 3684 2787 
Q 3425 2491 3425 1978 
L 3425 0 
L 2847 0 
L 2847 2094 
Q 2847 2600 2669 2842 
Q 2491 3084 2119 3084 
Q 1678 3084 1418 2786 
Q 1159 2488 1159 1978 
L 1159 0 
L 581 0 
L 581 3500 
L 1159 3500 
L 1159 2956 
Q 1356 3278 1631 3431 
Q 1906 3584 2284 3584 
Q 2666 3584 2933 3390 
Q 3200 3197 3328 2828 
z
" transform="scale(0.015625)"/>
       <path id="DejaVuSans-65" d="M 3597 1894 
L 3597 1613 
L 953 1613 
Q 991 1019 1311 708 
Q 1631 397 2203 397 
Q 2534 397 2845 478 
Q 3156 559 3463 722 
L 3463 178 
Q 3153 47 2828 -22 
Q 2503 -91 2169 -91 
Q 1331 -91 842 396 
Q 353 884 353 1716 
Q 353 2575 817 3079 
Q 1281 3584 2069 3584 
Q 2775 3584 3186 3129 
Q 3597 2675 3597 1894 
z
M 3022 2063 
Q 3016 2534 2758 2815 
Q 2500 3097 2075 3097 
Q 1594 3097 1305 2825 
Q 1016 2553 972 2059 
L 3022 2063 
z
" transform="scale(0.015625)"/>
       <path id="DejaVuSans-20" transform="scale(0.015625)"/>
       <path id="DejaVuSans-28" d="M 1984 4856 
Q 1566 4138 1362 3434 
Q 1159 2731 1159 2009 
Q 1159 1288 1364 580 
Q 1569 -128 1984 -844 
L 1484 -844 
Q 1016 -109 783 600 
Q 550 1309 550 2009 
Q 550 2706 781 3412 
Q 1013 4119 1484 4856 
L 1984 4856 
z
" transform="scale(0.015625)"/>
       <path id="DejaVuSans-73" d="M 2834 3397 
L 2834 2853 
Q 2591 2978 2328 3040 
Q 2066 3103 1784 3103 
Q 1356 3103 1142 2972 
Q 928 2841 928 2578 
Q 928 2378 1081 2264 
Q 1234 2150 1697 2047 
L 1894 2003 
Q 2506 1872 2764 1633 
Q 3022 1394 3022 966 
Q 3022 478 2636 193 
Q 2250 -91 1575 -91 
Q 1294 -91 989 -36 
Q 684 19 347 128 
L 347 722 
Q 666 556 975 473 
Q 1284 391 1588 391 
Q 1994 391 2212 530 
Q 2431 669 2431 922 
Q 2431 1156 2273 1281 
Q 2116 1406 1581 1522 
L 1381 1569 
Q 847 1681 609 1914 
Q 372 2147 372 2553 
Q 372 3047 722 3315 
Q 1072 3584 1716 3584 
Q 2034 3584 2315 3537 
Q 2597 3491 2834 3397 
z
" transform="scale(0.015625)"/>
       <path id="DejaVuSans-29" d="M 513 4856 
L 1013 4856 
Q 1481 4119 1714 3412 
Q 1947 2706 1947 2009 
Q 1947 1309 1714 600 
Q 1481 -109 1013 -844 
L 513 -844 
Q 928 -128 1133 580 
Q 1338 1288 1338 2009 
Q 1338 2731 1133 3434 
Q 928 4138 513 4856 
z
" transform="scale(0.015625)"/>
      </defs>
      <use xlink:href="#DejaVuSans-54"/>
      <use xlink:href="#DejaVuSans-69" x="57.958984"/>
      <use xlink:href="#DejaVuSans-6d" x="85.742188"/>
      <use xlink:href="#DejaVuSans-65" x="183.154297"/>
      <use xlink:href="#DejaVuSans-20" x="244.677734"/>
      <use xlink:href="#DejaVuSans-28" x="276.464844"/>
      <use xlink:href="#DejaVuSans-6d" x="315.478516"/>
      <use xlink:href="#DejaVuSans-73" x="412.890625"/>
      <use xlink:href="#DejaVuSans-29" x="464.990234"/>
     </g>
    </g>
   </g>
   <g id="matplotlib.axis_2">
    <g id="ytick_1">
     <g id="line2d_9">
      <defs>
       <path id="mbbafe0daac" d="M 0 0 
L -3.5 0 
" style="stroke: #000000; stroke-width: 0.8"/>
      </defs>
      <g>
       <use xlink:href="#mbbafe0daac" x="56.18" y="111.638182" style="stroke: #000000; stroke-width: 0.8"/>
      </g>
     </g>
     <g id="text_10">
      <!-- −1.0 -->
      <g transform="translate(24.897188 115.437401) scale(0.1 -0.1)">
       <defs>
        <path id="DejaVuSans-2212" d="M 678 2272 
L 4684 2272 
L 4684 1741 
L 678 1741 
L 678 2272 
z
" transform="scale(0.015625)"/>
        <path id="DejaVuSans-2e" d="M 684 794 
L 1344 794 
L 1344 0 
L 684 0 
L 684 794 
z
" transform="scale(0.015625)"/>
       </defs>
       <use xlink:href="#DejaVuSans-2212"/>
       <use xlink:href="#DejaVuSans-31" x="83.789062"/>
       <use xlink:href="#DejaVuSans-2e" x="147.412109"/>
       <use xlink:href="#DejaVuSans-30" x="179.199219"/>
      </g>
     </g>
    </g>
    <g id="ytick_2">
     <g id="line2d_10">
      <g>
       <use xlink:href="#mbbafe0daac" x="56.18" y="87.629091" style="stroke: #000000; stroke-width: 0.8"/>
      </g>
     </g>
     <g id="text_11">
      <!-- −0.5 -->
      <g transform="translate(24.897188 91.42831) scale(0.1 -0.1)">
       <use xlink:href="#DejaVuSans-2212"/>
       <use xlink:href="#DejaVuSans-30" x="83.789062"/>
       <use xlink:href="#DejaVuSans-2e" x="147.412109"/>
       <use xlink:href="#DejaVuSans-35" x="179.199219"/>
      </g>
     </g>
    </g>
    <g id="ytick_3">
     <g id="line2d_11">
      <g>
       <use xlink:href="#mbbafe0daac" x="56.18" y="63.62" style="stroke: #000000; stroke-width: 0.8"/>
      </g>
     </g>
     <g id="text_12">
      <!-- 0.0 -->
      <g transform="translate(33.276875 67.419219) scale(0.1 -0.1)">
       <use xlink:href="#DejaVuSans-30"/>
       <use xlink:href="#DejaVuSans-2e" x="63.623047"/>
       <use xlink:href="#DejaVuSans-30" x="95.410156"/>
      </g>
     </g>
    </g>
    <g id="ytick_4">
     <g id="line2d_12">
      <g>
       <use xlink:href="#mbbafe0daac" x="56.18" y="39.610909" style="stroke: #000000; stroke-width: 0.8"/>
      </g>
     </g>
     <g id="text_13">
      <!-- 0.5 -->
      <g transform="translate(33.276875 43.410128) scale(0.1 -0.1)">
       <use xlink:href="#DejaVuSans-30"/>
       <use xlink:href="#DejaVuSans-2e" x="63.623047"/>
       <use xlink:href="#DejaVuSans-35" x="95.410156"/>
      </g>
     </g>
    </g>
    <g id="ytick_5">
     <g id="line2d_13">
      <g>
       <use xlink:href="#mbbafe0daac" x="56.18" y="15.601818" style="stroke: #000000; stroke-width: 0.8"/>
      </g>
     </g>
     <g id="text_14">
      <!-- 1.0 -->
      <g transform="translate(33.276875 19.401037) scale(0.1 -0.1)">
       <use xlink:href="#DejaVuSans-31"/>
       <use xlink:href="#DejaVuSans-2e" x="63.623047"/>
       <use xlink:href="#DejaVuSans-30" x="95.410156"/>
      </g>
     </g>
    </g>
    <g id="text_15">
     <!-- X-Axis Value -->
     <g transform="translate(18.8175 94.180156) rotate(-90) scale(0.1 -0.1)">
      <defs>
       <path id="DejaVuSans-58" d="M 403 4666 
L 1081 4666 
L 2241 2931 
L 3406 4666 
L 4084 4666 
L 2584 2425 
L 4184 0 
L 3506 0 
L 2194 1984 
L 872 0 
L 191 0 
L 1856 2491 
L 403 4666 
z
" transform="scale(0.015625)"/>
       <path id="DejaVuSans-2d" d="M 313 2009 
L 1997 2009 
L 1997 1497 
L 313 1497 
L 313 2009 
z
" transform="scale(0.015625)"/>
       <path id="DejaVuSans-41" d="M 2188 4044 
L 1331 1722 
L 3047 1722 
L 2188 4044 
z
M 1831 4666 
L 2547 4666 
L 4325 0 
L 3669 0 
L 3244 1197 
L 1141 1197 
L 716 0 
L 50 0 
L 1831 4666 
z
" transform="scale(0.015625)"/>
       <path id="DejaVuSans-78" d="M 3513 3500 
L 2247 1797 
L 3578 0 
L 2900 0 
L 1881 1375 
L 863 0 
L 184 0 
L 1544 1831 
L 300 3500 
L 978 3500 
L 1906 2253 
L 2834 3500 
L 3513 3500 
z
" transform="scale(0.015625)"/>
       <path id="DejaVuSans-56" d="M 1831 0 
L 50 4666 
L 709 4666 
L 2188 738 
L 3669 4666 
L 4325 4666 
L 2547 0 
L 1831 0 
z
" transform="scale(0.015625)"/>
       <path id="DejaVuSans-61" d="M 2194 1759 
Q 1497 1759 1228 1600 
Q 959 1441 959 1056 
Q 959 750 1161 570 
Q 1363 391 1709 391 
Q 2188 391 2477 730 
Q 2766 1069 2766 1631 
L 2766 1759 
L 2194 1759 
z
M 3341 1997 
L 3341 0 
L 2766 0 
L 2766 531 
Q 2569 213 2275 61 
Q 1981 -91 1556 -91 
Q 1019 -91 701 211 
Q 384 513 384 1019 
Q 384 1609 779 1909 
Q 1175 2209 1959 2209 
L 2766 2209 
L 2766 2266 
Q 2766 2663 2505 2880 
Q 2244 3097 1772 3097 
Q 1472 3097 1187 3025 
Q 903 2953 641 2809 
L 641 3341 
Q 956 3463 1253 3523 
Q 1550 3584 1831 3584 
Q 2591 3584 2966 3190 
Q 3341 2797 3341 1997 
z
" transform="scale(0.015625)"/>
       <path id="DejaVuSans-6c" d="M 603 4863 
L 1178 4863 
L 1178 0 
L 603 0 
L 603 4863 
z
" transform="scale(0.015625)"/>
       <path id="DejaVuSans-75" d="M 544 1381 
L 544 3500 
L 1119 3500 
L 1119 1403 
Q 1119 906 1312 657 
Q 1506 409 1894 409 
Q 2359 409 2629 706 
Q 2900 1003 2900 1516 
L 2900 3500 
L 3475 3500 
L 3475 0 
L 2900 0 
L 2900 538 
Q 2691 219 2414 64 
Q 2138 -91 1772 -91 
Q 1169 -91 856 284 
Q 544 659 544 1381 
z
M 1991 3584 
L 1991 3584 
z
" transform="scale(0.015625)"/>
      </defs>
      <use xlink:href="#DejaVuSans-58"/>
      <use xlink:href="#DejaVuSans-2d" x="63.505859"/>
      <use xlink:href="#DejaVuSans-41" x="97.339844"/>
      <use xlink:href="#DejaVuSans-78" x="165.748047"/>
      <use xlink:href="#DejaVuSans-69" x="224.927734"/>
      <use xlink:href="#DejaVuSans-73" x="252.710938"/>
      <use xlink:href="#DejaVuSans-20" x="304.810547"/>
      <use xlink:href="#DejaVuSans-56" x="336.597656"/>
      <use xlink:href="#DejaVuSans-61" x="397.255859"/>
      <use xlink:href="#DejaVuSans-6c" x="458.535156"/>
      <use xlink:href="#DejaVuSans-75" x="486.318359"/>
      <use xlink:href="#DejaVuSans-65" x="549.697266"/>
     </g>
    </g>
   </g>
   <g id="line2d_14">
    <path d="M 56.18 65.060545 
L 118.768291 65.060545 
L 119.317312 65.540727 
L 119.866332 65.540727 
L 120.964372 66.501091 
L 121.513392 66.501091 
L 122.062412 66.981273 
L 122.611432 66.981273 
L 123.709472 67.941636 
L 124.258492 67.941636 
L 124.807513 68.421818 
L 125.356533 68.421818 
L 125.905553 69.382182 
L 128.650653 71.783091 
L 130.846734 71.783091 
L 131.395754 72.263273 
L 148.415377 72.263273 
L 149.513417 71.302909 
L 150.062437 71.302909 
L 150.611457 70.822727 
L 151.160477 69.862364 
L 151.709497 69.382182 
L 152.258518 69.382182 
L 152.807538 68.421818 
L 153.356558 67.941636 
L 153.905578 67.941636 
L 155.003618 66.020909 
L 156.650678 64.580364 
L 157.748719 61.699273 
L 158.846759 59.778545 
L 161.042839 57.857818 
L 161.591859 56.417273 
L 162.689899 54.496545 
L 165.435 52.095636 
L 167.08206 52.095636 
L 169.278141 50.174909 
L 169.827161 49.214545 
L 171.474221 47.774 
L 172.023241 47.774 
L 172.572261 46.813636 
L 173.121281 46.333455 
L 175.317362 42.492 
L 175.866382 42.011818 
L 176.415402 40.091091 
L 176.964422 39.610909 
L 177.513442 38.650545 
L 178.611482 37.690182 
L 179.709523 35.769455 
L 180.258543 35.769455 
L 180.807563 35.289273 
L 181.356583 35.289273 
L 181.905603 34.809091 
L 182.454623 33.848727 
L 183.003643 33.368545 
L 183.552663 32.408182 
L 186.297764 30.007273 
L 186.846784 29.046909 
L 187.944824 29.046909 
L 190.689925 26.646 
L 191.238945 26.646 
L 191.787965 26.165818 
L 192.336985 26.165818 
L 192.886005 25.685636 
L 193.435025 25.685636 
L 193.984045 25.205455 
L 195.082085 25.205455 
L 195.631106 24.725273 
L 196.729146 24.725273 
L 198.376206 23.284727 
L 198.925226 23.284727 
L 199.474246 22.804545 
L 201.670327 22.804545 
L 202.219347 22.324364 
L 204.415427 22.324364 
L 204.964447 21.844182 
L 205.513467 22.324364 
L 206.062487 21.844182 
L 218.14093 21.844182 
L 218.68995 22.324364 
L 219.23897 22.324364 
L 219.78799 21.844182 
L 220.33701 22.324364 
L 221.98407 22.324364 
L 222.53309 21.844182 
L 224.729171 21.844182 
L 225.278191 22.324364 
L 225.827211 22.324364 
L 226.376231 21.844182 
L 226.925251 22.324364 
L 227.474271 22.324364 
L 228.023291 21.844182 
L 228.572312 22.324364 
L 229.121332 21.844182 
L 229.670352 22.324364 
L 231.317412 22.324364 
L 231.866432 21.844182 
L 232.964472 21.844182 
L 233.513492 22.324364 
L 234.062513 22.324364 
L 234.611533 21.844182 
L 235.160553 22.324364 
L 235.709573 21.844182 
L 236.258593 21.844182 
L 236.807613 22.324364 
L 237.905653 22.324364 
L 238.454673 21.844182 
L 239.003693 22.324364 
L 239.552714 22.324364 
L 240.101734 21.844182 
L 240.650754 22.324364 
L 243.395854 22.324364 
L 243.944874 21.844182 
L 244.493894 22.324364 
L 246.689975 22.324364 
L 247.238995 21.844182 
L 247.788015 22.324364 
L 249.984095 22.324364 
L 250.533116 22.804545 
L 253.278216 22.804545 
L 254.376256 23.764909 
L 254.925276 24.725273 
L 255.474296 24.725273 
L 257.670377 26.646 
L 258.219397 27.606364 
L 262.062538 30.967636 
L 263.160578 30.967636 
L 263.709598 31.928 
L 264.258618 31.928 
L 265.356658 33.848727 
L 266.454698 34.809091 
L 267.003719 35.769455 
L 267.552739 36.249636 
L 268.101759 37.690182 
L 268.650779 38.170364 
L 269.199799 39.610909 
L 269.748819 41.531636 
L 270.297839 42.011818 
L 270.846859 43.452364 
L 271.395879 45.373091 
L 273.59196 54.496545 
L 274.69 58.338 
L 275.23902 61.219091 
L 275.78804 63.139818 
L 277.984121 72.743455 
L 278.533141 74.184 
L 279.082161 75.144364 
L 279.631181 76.584909 
L 280.729221 77.545273 
L 281.278241 78.505636 
L 282.376281 79.466 
L 282.925302 80.426364 
L 284.023342 83.307455 
L 285.121382 85.228182 
L 286.219422 88.109273 
L 286.768442 89.069636 
L 287.317462 89.549818 
L 287.866482 90.510182 
L 288.415503 91.950727 
L 288.964523 92.911091 
L 289.513543 93.391273 
L 290.062563 94.831818 
L 290.611583 95.792182 
L 292.258643 97.232727 
L 292.807663 98.193091 
L 293.905704 99.153455 
L 294.454724 100.594 
L 295.003744 101.554364 
L 296.101784 102.514727 
L 296.650804 102.514727 
L 297.199824 103.955273 
L 297.748844 104.435455 
L 298.297864 105.395818 
L 299.944925 106.836364 
L 301.042965 106.836364 
L 302.690025 108.276909 
L 303.788065 108.276909 
L 304.337085 108.757091 
L 305.984146 108.757091 
L 306.533166 109.237273 
L 307.082186 108.757091 
L 307.631206 109.237273 
L 318.062588 109.237273 
L 319.709648 107.796727 
L 321.356709 107.796727 
L 321.905729 107.316545 
L 322.454749 107.316545 
L 323.003769 106.836364 
L 324.101809 106.836364 
L 325.199849 105.876 
L 325.748869 105.876 
L 326.297889 105.395818 
L 327.39593 105.395818 
L 329.04299 103.955273 
L 329.59201 103.955273 
L 330.14103 103.475091 
L 330.69005 103.475091 
L 332.337111 102.034545 
L 332.886131 102.034545 
L 333.984171 101.074182 
L 334.533191 100.113818 
L 335.082211 99.633636 
L 335.631231 99.633636 
L 337.278291 98.193091 
L 337.827312 98.193091 
L 338.376332 97.712909 
L 338.925352 97.712909 
L 339.474372 97.232727 
L 340.023392 97.232727 
L 341.121432 95.312 
L 342.768492 93.871455 
L 343.317513 93.871455 
L 344.415553 91.950727 
L 344.964573 91.470545 
L 345.513593 90.510182 
L 346.611633 89.549818 
L 347.709673 87.629091 
L 348.807714 86.668727 
L 350.454774 83.787636 
L 351.003794 83.307455 
L 351.552814 82.347091 
L 352.101834 81.866909 
L 352.650854 80.906545 
L 353.199874 80.426364 
L 354.297915 78.505636 
L 354.846935 78.505636 
L 355.395955 77.545273 
L 355.944975 77.065091 
L 356.493995 77.065091 
L 357.043015 76.584909 
L 357.592035 76.584909 
L 359.239095 75.144364 
L 360.337136 72.263273 
L 361.435176 70.342545 
L 362.533216 69.382182 
L 363.082236 68.421818 
L 363.631256 67.941636 
L 364.729296 67.941636 
L 365.278317 66.981273 
L 365.827337 66.501091 
L 376.258719 66.501091 
L 376.807739 66.020909 
L 377.905779 66.020909 
L 378.454799 66.501091 
L 379.552839 66.501091 
L 380.101859 66.020909 
L 380.650879 66.501091 
L 381.199899 66.020909 
L 381.74892 66.501091 
L 384.49402 66.501091 
L 385.04304 66.020909 
L 386.14108 66.020909 
L 386.690101 66.501091 
L 387.239121 66.501091 
L 387.788141 66.020909 
L 388.337161 66.020909 
L 388.886181 66.501091 
L 389.435201 66.020909 
L 397.670503 66.020909 
L 400.964623 63.139818 
L 401.513643 62.179455 
L 403.160704 60.738909 
L 403.709724 59.778545 
L 404.258744 59.298364 
L 408.650905 59.298364 
L 409.748945 60.258727 
L 410.297965 61.219091 
L 410.846985 61.699273 
L 411.396005 62.659636 
L 413.043065 64.100182 
L 413.592085 64.100182 
L 414.141106 64.580364 
L 432.258769 64.580364 
L 432.807789 65.060545 
L 433.356809 64.580364 
L 454.219573 64.580364 
L 454.768593 65.060545 
L 455.317613 64.580364 
L 469.043116 64.580364 
L 469.592136 65.060545 
L 470.141156 64.580364 
L 480.572538 64.580364 
L 481.121558 65.060545 
L 481.670578 64.580364 
L 483.866658 64.580364 
L 484.415678 65.060545 
L 484.964698 64.580364 
L 493.2 64.580364 
L 493.2 64.580364 
" clip-path="url(#p0ca164a75f)" style="fill: none; stroke: #1f77b4; stroke-width: 1.5; stroke-linecap: square"/>
   </g>
   <g id="line2d_15">
    <path d="M 56.18 63.62 
L 493.2 63.62 
" clip-path="url(#p0ca164a75f)" style="fill: none; stroke-dasharray: 2.96,1.28; stroke-dashoffset: 0; stroke: #808080; stroke-width: 0.8"/>
   </g>
   <g id="patch_3">
    <path d="M 56.18 116.44 
L 56.18 10.8 
" style="fill: none; stroke: #000000; stroke-width: 0.8; stroke-linejoin: miter; stroke-linecap: square"/>
   </g>
   <g id="patch_4">
    <path d="M 56.18 116.44 
L 493.2 116.44 
" style="fill: none; stroke: #000000; stroke-width: 0.8; stroke-linejoin: miter; stroke-linecap: square"/>
   </g>
  </g>
  <g id="axes_2">
   <g id="patch_5">
    <path d="M 56.18 264.04 
L 493.2 264.04 
L 493.2 158.4 
L 56.18 158.4 
z
" style="fill: #ffffff"/>
   </g>
   <g id="matplotlib.axis_3">
    <g id="xtick_9">
     <g id="line2d_16">
      <g>
       <use xlink:href="#m0d268bf465" x="56.18" y="264.04" style="stroke: #000000; stroke-width: 0.8"/>
      </g>
     </g>
     <g id="text_16">
      <!-- 0 -->
      <g transform="translate(52.99875 278.638438) scale(0.1 -0.1)">
       <use xlink:href="#DejaVuSans-30"/>
      </g>
     </g>
    </g>
    <g id="xtick_10">
     <g id="line2d_17">
      <g>
       <use xlink:href="#m0d268bf465" x="111.08201" y="264.04" style="stroke: #000000; stroke-width: 0.8"/>
      </g>
     </g>
     <g id="text_17">
      <!-- 1000 -->
      <g transform="translate(98.35701 278.638438) scale(0.1 -0.1)">
       <use xlink:href="#DejaVuSans-31"/>
       <use xlink:href="#DejaVuSans-30" x="63.623047"/>
       <use xlink:href="#DejaVuSans-30" x="127.246094"/>
       <use xlink:href="#DejaVuSans-30" x="190.869141"/>
      </g>
     </g>
    </g>
    <g id="xtick_11">
     <g id="line2d_18">
      <g>
       <use xlink:href="#m0d268bf465" x="165.98402" y="264.04" style="stroke: #000000; stroke-width: 0.8"/>
      </g>
     </g>
     <g id="text_18">
      <!-- 2000 -->
      <g transform="translate(153.25902 278.638438) scale(0.1 -0.1)">
       <use xlink:href="#DejaVuSans-32"/>
       <use xlink:href="#DejaVuSans-30" x="63.623047"/>
       <use xlink:href="#DejaVuSans-30" x="127.246094"/>
       <use xlink:href="#DejaVuSans-30" x="190.869141"/>
      </g>
     </g>
    </g>
    <g id="xtick_12">
     <g id="line2d_19">
      <g>
       <use xlink:href="#m0d268bf465" x="220.88603" y="264.04" style="stroke: #000000; stroke-width: 0.8"/>
      </g>
     </g>
     <g id="text_19">
      <!-- 3000 -->
      <g transform="translate(208.16103 278.638438) scale(0.1 -0.1)">
       <use xlink:href="#DejaVuSans-33"/>
       <use xlink:href="#DejaVuSans-30" x="63.623047"/>
       <use xlink:href="#DejaVuSans-30" x="127.246094"/>
       <use xlink:href="#DejaVuSans-30" x="190.869141"/>
      </g>
     </g>
    </g>
    <g id="xtick_13">
     <g id="line2d_20">
      <g>
       <use xlink:href="#m0d268bf465" x="275.78804" y="264.04" style="stroke: #000000; stroke-width: 0.8"/>
      </g>
     </g>
     <g id="text_20">
      <!-- 4000 -->
      <g transform="translate(263.06304 278.638438) scale(0.1 -0.1)">
       <use xlink:href="#DejaVuSans-34"/>
       <use xlink:href="#DejaVuSans-30" x="63.623047"/>
       <use xlink:href="#DejaVuSans-30" x="127.246094"/>
       <use xlink:href="#DejaVuSans-30" x="190.869141"/>
      </g>
     </g>
    </g>
    <g id="xtick_14">
     <g id="line2d_21">
      <g>
       <use xlink:href="#m0d268bf465" x="330.69005" y="264.04" style="stroke: #000000; stroke-width: 0.8"/>
      </g>
     </g>
     <g id="text_21">
      <!-- 5000 -->
      <g transform="translate(317.96505 278.638438) scale(0.1 -0.1)">
       <use xlink:href="#DejaVuSans-35"/>
       <use xlink:href="#DejaVuSans-30" x="63.623047"/>
       <use xlink:href="#DejaVuSans-30" x="127.246094"/>
       <use xlink:href="#DejaVuSans-30" x="190.869141"/>
      </g>
     </g>
    </g>
    <g id="xtick_15">
     <g id="line2d_22">
      <g>
       <use xlink:href="#m0d268bf465" x="385.59206" y="264.04" style="stroke: #000000; stroke-width: 0.8"/>
      </g>
     </g>
     <g id="text_22">
      <!-- 6000 -->
      <g transform="translate(372.86706 278.638438) scale(0.1 -0.1)">
       <use xlink:href="#DejaVuSans-36"/>
       <use xlink:href="#DejaVuSans-30" x="63.623047"/>
       <use xlink:href="#DejaVuSans-30" x="127.246094"/>
       <use xlink:href="#DejaVuSans-30" x="190.869141"/>
      </g>
     </g>
    </g>
    <g id="xtick_16">
     <g id="line2d_23">
      <g>
       <use xlink:href="#m0d268bf465" x="440.49407" y="264.04" style="stroke: #000000; stroke-width: 0.8"/>
      </g>
     </g>
     <g id="text_23">
      <!-- 7000 -->
      <g transform="translate(427.76907 278.638438) scale(0.1 -0.1)">
       <use xlink:href="#DejaVuSans-37"/>
       <use xlink:href="#DejaVuSans-30" x="63.623047"/>
       <use xlink:href="#DejaVuSans-30" x="127.246094"/>
       <use xlink:href="#DejaVuSans-30" x="190.869141"/>
      </g>
     </g>
    </g>
    <g id="text_24">
     <!-- Time (ms) -->
     <g transform="translate(249.490781 292.316563) scale(0.1 -0.1)">
      <use xlink:href="#DejaVuSans-54"/>
      <use xlink:href="#DejaVuSans-69" x="57.958984"/>
      <use xlink:href="#DejaVuSans-6d" x="85.742188"/>
      <use xlink:href="#DejaVuSans-65" x="183.154297"/>
      <use xlink:href="#DejaVuSans-20" x="244.677734"/>
      <use xlink:href="#DejaVuSans-28" x="276.464844"/>
      <use xlink:href="#DejaVuSans-6d" x="315.478516"/>
      <use xlink:href="#DejaVuSans-73" x="412.890625"/>
      <use xlink:href="#DejaVuSans-29" x="464.990234"/>
     </g>
    </g>
   </g>
   <g id="matplotlib.axis_4">
    <g id="ytick_6">
     <g id="line2d_24">
      <g>
       <use xlink:href="#mbbafe0daac" x="56.18" y="259.238182" style="stroke: #000000; stroke-width: 0.8"/>
      </g>
     </g>
     <g id="text_25">
      <!-- −1.0 -->
      <g transform="translate(24.897188 263.037401) scale(0.1 -0.1)">
       <use xlink:href="#DejaVuSans-2212"/>
       <use xlink:href="#DejaVuSans-31" x="83.789062"/>
       <use xlink:href="#DejaVuSans-2e" x="147.412109"/>
       <use xlink:href="#DejaVuSans-30" x="179.199219"/>
      </g>
     </g>
    </g>
    <g id="ytick_7">
     <g id="line2d_25">
      <g>
       <use xlink:href="#mbbafe0daac" x="56.18" y="235.229091" style="stroke: #000000; stroke-width: 0.8"/>
      </g>
     </g>
     <g id="text_26">
      <!-- −0.5 -->
      <g transform="translate(24.897188 239.02831) scale(0.1 -0.1)">
       <use xlink:href="#DejaVuSans-2212"/>
       <use xlink:href="#DejaVuSans-30" x="83.789062"/>
       <use xlink:href="#DejaVuSans-2e" x="147.412109"/>
       <use xlink:href="#DejaVuSans-35" x="179.199219"/>
      </g>
     </g>
    </g>
    <g id="ytick_8">
     <g id="line2d_26">
      <g>
       <use xlink:href="#mbbafe0daac" x="56.18" y="211.22" style="stroke: #000000; stroke-width: 0.8"/>
      </g>
     </g>
     <g id="text_27">
      <!-- 0.0 -->
      <g transform="translate(33.276875 215.019219) scale(0.1 -0.1)">
       <use xlink:href="#DejaVuSans-30"/>
       <use xlink:href="#DejaVuSans-2e" x="63.623047"/>
       <use xlink:href="#DejaVuSans-30" x="95.410156"/>
      </g>
     </g>
    </g>
    <g id="ytick_9">
     <g id="line2d_27">
      <g>
       <use xlink:href="#mbbafe0daac" x="56.18" y="187.210909" style="stroke: #000000; stroke-width: 0.8"/>
      </g>
     </g>
     <g id="text_28">
      <!-- 0.5 -->
      <g transform="translate(33.276875 191.010128) scale(0.1 -0.1)">
       <use xlink:href="#DejaVuSans-30"/>
       <use xlink:href="#DejaVuSans-2e" x="63.623047"/>
       <use xlink:href="#DejaVuSans-35" x="95.410156"/>
      </g>
     </g>
    </g>
    <g id="ytick_10">
     <g id="line2d_28">
      <g>
       <use xlink:href="#mbbafe0daac" x="56.18" y="163.201818" style="stroke: #000000; stroke-width: 0.8"/>
      </g>
     </g>
     <g id="text_29">
      <!-- 1.0 -->
      <g transform="translate(33.276875 167.001037) scale(0.1 -0.1)">
       <use xlink:href="#DejaVuSans-31"/>
       <use xlink:href="#DejaVuSans-2e" x="63.623047"/>
       <use xlink:href="#DejaVuSans-30" x="95.410156"/>
      </g>
     </g>
    </g>
    <g id="text_30">
     <!-- Y-Axis Value -->
     <g transform="translate(18.8175 241.065313) rotate(-90) scale(0.1 -0.1)">
      <defs>
       <path id="DejaVuSans-59" d="M -13 4666 
L 666 4666 
L 1959 2747 
L 3244 4666 
L 3922 4666 
L 2272 2222 
L 2272 0 
L 1638 0 
L 1638 2222 
L -13 4666 
z
" transform="scale(0.015625)"/>
      </defs>
      <use xlink:href="#DejaVuSans-59"/>
      <use xlink:href="#DejaVuSans-2d" x="49.208984"/>
      <use xlink:href="#DejaVuSans-41" x="83.042969"/>
      <use xlink:href="#DejaVuSans-78" x="151.451172"/>
      <use xlink:href="#DejaVuSans-69" x="210.630859"/>
      <use xlink:href="#DejaVuSans-73" x="238.414062"/>
      <use xlink:href="#DejaVuSans-20" x="290.513672"/>
      <use xlink:href="#DejaVuSans-56" x="322.300781"/>
      <use xlink:href="#DejaVuSans-61" x="382.958984"/>
      <use xlink:href="#DejaVuSans-6c" x="444.238281"/>
      <use xlink:href="#DejaVuSans-75" x="472.021484"/>
      <use xlink:href="#DejaVuSans-65" x="535.400391"/>
     </g>
    </g>
   </g>
   <g id="line2d_29">
    <path d="M 56.18 210.259636 
L 111.08201 210.259636 
L 111.63103 209.779455 
L 112.72907 209.779455 
L 113.27809 209.299273 
L 113.827111 209.299273 
L 114.925151 208.338909 
L 115.474171 208.338909 
L 116.572211 207.378545 
L 117.121231 207.378545 
L 118.219271 206.418182 
L 118.768291 205.457818 
L 119.317312 204.017273 
L 119.866332 202.096545 
L 120.415352 200.656 
L 123.160452 191.052364 
L 123.709472 188.171273 
L 124.258492 187.210909 
L 125.356533 182.889273 
L 127.003593 177.127091 
L 128.101633 171.845091 
L 128.650653 167.043273 
L 129.748693 166.082909 
L 132.493794 166.082909 
L 133.042814 165.602727 
L 137.434975 165.602727 
L 137.983995 166.082909 
L 138.533015 165.602727 
L 168.180101 165.602727 
L 168.729121 166.082909 
L 170.376181 166.082909 
L 170.925201 166.563091 
L 172.572261 166.563091 
L 173.670302 167.523455 
L 174.219322 167.523455 
L 175.866382 168.964 
L 176.415402 168.964 
L 179.160503 171.364909 
L 179.709523 171.364909 
L 180.258543 171.845091 
L 180.807563 171.845091 
L 181.905603 172.805455 
L 182.454623 172.805455 
L 183.003643 173.285636 
L 183.552663 174.246 
L 184.101683 174.726182 
L 184.650704 174.726182 
L 187.395804 177.127091 
L 188.493844 177.127091 
L 189.591884 178.087455 
L 190.140905 179.047818 
L 191.238945 180.008182 
L 191.787965 180.008182 
L 192.336985 180.968545 
L 192.886005 181.448727 
L 193.435025 181.448727 
L 193.984045 181.928909 
L 194.533065 181.928909 
L 197.278166 184.329818 
L 198.376206 186.250545 
L 198.925226 186.250545 
L 200.023266 187.210909 
L 200.572286 187.210909 
L 201.121307 187.691091 
L 202.219347 187.691091 
L 202.768367 188.171273 
L 203.317387 188.171273 
L 203.866407 188.651455 
L 204.415427 188.651455 
L 204.964447 189.131636 
L 205.513467 189.131636 
L 206.062487 189.611818 
L 207.709548 189.611818 
L 208.258568 190.092 
L 208.807588 190.092 
L 209.356608 190.572182 
L 209.905628 190.572182 
L 212.650729 192.973091 
L 213.199749 193.933455 
L 214.297789 194.893818 
L 214.846809 195.854182 
L 215.395829 196.334364 
L 215.944849 197.294727 
L 216.493869 197.774909 
L 220.33701 204.497455 
L 220.88603 205.938 
L 221.98407 207.858727 
L 222.53309 209.299273 
L 223.082111 209.779455 
L 223.631131 211.22 
L 224.180151 211.700182 
L 224.729171 213.140727 
L 225.278191 214.101091 
L 225.827211 214.581273 
L 226.376231 215.541636 
L 226.925251 216.021818 
L 228.023291 217.942545 
L 228.572312 218.422727 
L 229.121332 219.383091 
L 232.415452 222.264182 
L 232.964472 223.224545 
L 234.062513 224.184909 
L 235.709573 227.066 
L 236.807613 229.947091 
L 237.356633 230.427273 
L 237.905653 230.427273 
L 238.454673 230.907455 
L 239.003693 230.907455 
L 240.101734 231.867818 
L 250.533116 231.867818 
L 251.082136 232.348 
L 251.631156 232.348 
L 252.180176 232.828182 
L 252.729196 232.828182 
L 257.121357 236.669636 
L 257.670377 237.63 
L 258.219397 238.110182 
L 258.768417 239.070545 
L 260.415477 240.511091 
L 260.964497 240.511091 
L 264.807638 243.872364 
L 265.356658 244.832727 
L 266.454698 245.793091 
L 268.650779 249.634545 
L 269.199799 250.114727 
L 269.748819 251.075091 
L 270.846859 252.035455 
L 271.395879 252.995818 
L 272.49392 253.956182 
L 273.04294 254.916545 
L 274.14098 254.916545 
L 275.23902 255.876909 
L 276.88608 255.876909 
L 277.435101 256.357091 
L 281.278241 256.357091 
L 281.827261 255.876909 
L 282.376281 255.876909 
L 282.925302 255.396727 
L 283.474322 255.396727 
L 284.023342 254.916545 
L 284.572362 253.956182 
L 285.121382 253.956182 
L 285.670402 252.515636 
L 287.866482 250.594909 
L 288.415503 249.634545 
L 289.513543 248.674182 
L 290.062563 247.713818 
L 290.611583 247.233636 
L 291.160603 246.273273 
L 292.258643 245.312909 
L 292.807663 244.352545 
L 293.905704 243.392182 
L 294.454724 241.951636 
L 295.003744 240.991273 
L 295.552764 239.550727 
L 296.101784 238.590364 
L 296.650804 238.110182 
L 297.199824 237.149818 
L 298.297864 234.268727 
L 298.846884 233.308364 
L 299.395905 231.867818 
L 299.944925 231.387636 
L 301.042965 231.387636 
L 302.141005 229.466909 
L 302.690025 228.026364 
L 303.239045 227.066 
L 303.788065 227.546182 
L 304.886106 227.546182 
L 305.435126 227.066 
L 305.984146 226.105636 
L 308.729246 226.105636 
L 309.278266 226.585818 
L 310.376307 226.585818 
L 310.925327 225.625455 
L 312.023367 222.744364 
L 313.121407 217.942545 
L 314.219447 210.739818 
L 314.768467 205.938 
L 315.317487 199.215455 
L 315.866508 195.854182 
L 316.415528 195.854182 
L 316.964548 195.374 
L 317.513568 194.413636 
L 318.062588 193.933455 
L 318.611608 192.973091 
L 319.160628 192.973091 
L 319.709648 192.012727 
L 320.258668 191.532545 
L 320.807688 191.532545 
L 321.356709 191.052364 
L 322.454749 189.131636 
L 323.003769 188.651455 
L 323.552789 188.651455 
L 325.199849 187.210909 
L 326.297889 187.210909 
L 326.84691 186.250545 
L 327.39593 186.250545 
L 327.94495 185.770364 
L 328.49397 184.81 
L 330.14103 183.369455 
L 330.69005 182.409091 
L 333.984171 179.528 
L 334.533191 178.567636 
L 336.180251 177.127091 
L 337.278291 177.127091 
L 337.827312 176.646909 
L 338.376332 176.646909 
L 339.474372 175.686545 
L 340.023392 175.686545 
L 340.572412 175.206364 
L 341.121432 174.246 
L 343.317513 172.325273 
L 343.866533 172.325273 
L 344.964573 171.364909 
L 345.513593 171.364909 
L 346.062613 170.884727 
L 346.611633 170.884727 
L 348.258693 169.444182 
L 349.356734 169.444182 
L 350.454774 168.483818 
L 351.552814 168.483818 
L 352.101834 168.003636 
L 352.650854 168.003636 
L 353.748894 167.043273 
L 354.846935 167.043273 
L 355.395955 166.563091 
L 359.788116 166.563091 
L 360.337136 166.082909 
L 361.984196 166.082909 
L 362.533216 165.602727 
L 400.415603 165.602727 
L 400.964623 166.082909 
L 402.062663 166.082909 
L 403.160704 167.043273 
L 403.709724 167.043273 
L 404.258744 168.483818 
L 404.807764 170.884727 
L 405.905804 177.127091 
L 409.199925 192.012727 
L 409.748945 195.374 
L 412.494045 206.898364 
L 415.788166 209.779455 
L 432.807789 209.779455 
L 433.905829 208.819091 
L 434.454849 209.779455 
L 493.2 209.779455 
L 493.2 209.779455 
" clip-path="url(#pcf335c4c75)" style="fill: none; stroke: #1f77b4; stroke-width: 1.5; stroke-linecap: square"/>
   </g>
   <g id="line2d_30">
    <path d="M 56.18 211.22 
L 493.2 211.22 
" clip-path="url(#pcf335c4c75)" style="fill: none; stroke-dasharray: 2.96,1.28; stroke-dashoffset: 0; stroke: #808080; stroke-width: 0.8"/>
   </g>
   <g id="patch_6">
    <path d="M 56.18 264.04 
L 56.18 158.4 
" style="fill: none; stroke: #000000; stroke-width: 0.8; stroke-linejoin: miter; stroke-linecap: square"/>
   </g>
   <g id="patch_7">
    <path d="M 56.18 264.04 
L 493.2 264.04 
" style="fill: none; stroke: #000000; stroke-width: 0.8; stroke-linejoin: miter; stroke-linecap: square"/>
   </g>
  </g>
 </g>
 <defs>
  <clipPath id="p0ca164a75f">
   <rect x="56.18" y="10.8" width="437.02" height="105.64"/>
  </clipPath>
  <clipPath id="pcf335c4c75">
   <rect x="56.18" y="158.4" width="437.02" height="105.64"/>
  </clipPath>
 </defs>
</svg>
