<?xml version="1.0" encoding="utf-8" standalone="no"?>
<!DOCTYPE svg PUBLIC "-//W3C//DTD SVG 1.1//EN"
  "http://www.w3.org/Graphics/SVG/1.1/DTD/svg11.dtd">
<svg xmlns:xlink="http://www.w3.org/1999/xlink" width="504pt" height="306pt" viewBox="0 0 504 306" xmlns="http://www.w3.org/2000/svg" version="1.1">
 <metadata>
  <rdf:RDF xmlns:dc="http://purl.org/dc/elements/1.1/" xmlns:cc="http://creativecommons.org/ns#" xmlns:rdf="http://www.w3.org/1999/02/22-rdf-syntax-ns#">
   <cc:Work>
    <dc:type rdf:resource="http://purl.org/dc/dcmitype/StillImage"/>
    <dc:date>2024-06-16T23:01:50.534391</dc:date>
    <dc:format>image/svg+xml</dc:format>
    <dc:creator>
     <cc:Agent>
      <dc:title>Matplotlib v3.8.3, https://matplotlib.org/</dc:title>
     </cc:Agent>
    </dc:creator>
   </cc:Work>
  </rdf:RDF>
 </metadata>
 <defs>
  <style type="text/css">*{stroke-linejoin: round; stroke-linecap: butt}</style>
 </defs>
 <g id="figure_1">
  <g id="patch_1">
   <path d="M 0 306 
L 504 306 
L 504 0 
L 0 0 
z
" style="fill: #ffffff"/>
  </g>
  <g id="axes_1">
   <g id="patch_2">
    <path d="M 56.18 116.44 
L 493.2 116.44 
L 493.2 10.8 
L 56.18 10.8 
z
" style="fill: #ffffff"/>
   </g>
   <g id="matplotlib.axis_1">
    <g id="xtick_1">
     <g id="line2d_1">
      <defs>
       <path id="me1677cd72e" d="M 0 0 
L 0 3.5 
" style="stroke: #000000; stroke-width: 0.8"/>
      </defs>
      <g>
       <use xlink:href="#me1677cd72e" x="56.18" y="116.44" style="stroke: #000000; stroke-width: 0.8"/>
      </g>
     </g>
     <g id="text_1">
      <!-- 0 -->
      <g transform="translate(52.99875 131.038437) scale(0.1 -0.1)">
       <defs>
        <path id="DejaVuSans-30" d="M 2034 4250 
Q 1547 4250 1301 3770 
Q 1056 3291 1056 2328 
Q 1056 1369 1301 889 
Q 1547 409 2034 409 
Q 2525 409 2770 889 
Q 3016 1369 3016 2328 
Q 3016 3291 2770 3770 
Q 2525 4250 2034 4250 
z
M 2034 4750 
Q 2819 4750 3233 4129 
Q 3647 3509 3647 2328 
Q 3647 1150 3233 529 
Q 2819 -91 2034 -91 
Q 1250 -91 836 529 
Q 422 1150 422 2328 
Q 422 3509 836 4129 
Q 1250 4750 2034 4750 
z
" transform="scale(0.015625)"/>
       </defs>
       <use xlink:href="#DejaVuSans-30"/>
      </g>
     </g>
    </g>
    <g id="xtick_2">
     <g id="line2d_2">
      <g>
       <use xlink:href="#me1677cd72e" x="130.376944" y="116.44" style="stroke: #000000; stroke-width: 0.8"/>
      </g>
     </g>
     <g id="text_2">
      <!-- 2000 -->
      <g transform="translate(117.651944 131.038437) scale(0.1 -0.1)">
       <defs>
        <path id="DejaVuSans-32" d="M 1228 531 
L 3431 531 
L 3431 0 
L 469 0 
L 469 531 
Q 828 903 1448 1529 
Q 2069 2156 2228 2338 
Q 2531 2678 2651 2914 
Q 2772 3150 2772 3378 
Q 2772 3750 2511 3984 
Q 2250 4219 1831 4219 
Q 1534 4219 1204 4116 
Q 875 4013 500 3803 
L 500 4441 
Q 881 4594 1212 4672 
Q 1544 4750 1819 4750 
Q 2544 4750 2975 4387 
Q 3406 4025 3406 3419 
Q 3406 3131 3298 2873 
Q 3191 2616 2906 2266 
Q 2828 2175 2409 1742 
Q 1991 1309 1228 531 
z
" transform="scale(0.015625)"/>
       </defs>
       <use xlink:href="#DejaVuSans-32"/>
       <use xlink:href="#DejaVuSans-30" x="63.623047"/>
       <use xlink:href="#DejaVuSans-30" x="127.246094"/>
       <use xlink:href="#DejaVuSans-30" x="190.869141"/>
      </g>
     </g>
    </g>
    <g id="xtick_3">
     <g id="line2d_3">
      <g>
       <use xlink:href="#me1677cd72e" x="204.573888" y="116.44" style="stroke: #000000; stroke-width: 0.8"/>
      </g>
     </g>
     <g id="text_3">
      <!-- 4000 -->
      <g transform="translate(191.848888 131.038437) scale(0.1 -0.1)">
       <defs>
        <path id="DejaVuSans-34" d="M 2419 4116 
L 825 1625 
L 2419 1625 
L 2419 4116 
z
M 2253 4666 
L 3047 4666 
L 3047 1625 
L 3713 1625 
L 3713 1100 
L 3047 1100 
L 3047 0 
L 2419 0 
L 2419 1100 
L 313 1100 
L 313 1709 
L 2253 4666 
z
" transform="scale(0.015625)"/>
       </defs>
       <use xlink:href="#DejaVuSans-34"/>
       <use xlink:href="#DejaVuSans-30" x="63.623047"/>
       <use xlink:href="#DejaVuSans-30" x="127.246094"/>
       <use xlink:href="#DejaVuSans-30" x="190.869141"/>
      </g>
     </g>
    </g>
    <g id="xtick_4">
     <g id="line2d_4">
      <g>
       <use xlink:href="#me1677cd72e" x="278.770832" y="116.44" style="stroke: #000000; stroke-width: 0.8"/>
      </g>
     </g>
     <g id="text_4">
      <!-- 6000 -->
      <g transform="translate(266.045832 131.038437) scale(0.1 -0.1)">
       <defs>
        <path id="DejaVuSans-36" d="M 2113 2584 
Q 1688 2584 1439 2293 
Q 1191 2003 1191 1497 
Q 1191 994 1439 701 
Q 1688 409 2113 409 
Q 2538 409 2786 701 
Q 3034 994 3034 1497 
Q 3034 2003 2786 2293 
Q 2538 2584 2113 2584 
z
M 3366 4563 
L 3366 3988 
Q 3128 4100 2886 4159 
Q 2644 4219 2406 4219 
Q 1781 4219 1451 3797 
Q 1122 3375 1075 2522 
Q 1259 2794 1537 2939 
Q 1816 3084 2150 3084 
Q 2853 3084 3261 2657 
Q 3669 2231 3669 1497 
Q 3669 778 3244 343 
Q 2819 -91 2113 -91 
Q 1303 -91 875 529 
Q 447 1150 447 2328 
Q 447 3434 972 4092 
Q 1497 4750 2381 4750 
Q 2619 4750 2861 4703 
Q 3103 4656 3366 4563 
z
" transform="scale(0.015625)"/>
       </defs>
       <use xlink:href="#DejaVuSans-36"/>
       <use xlink:href="#DejaVuSans-30" x="63.623047"/>
       <use xlink:href="#DejaVuSans-30" x="127.246094"/>
       <use xlink:href="#DejaVuSans-30" x="190.869141"/>
      </g>
     </g>
    </g>
    <g id="xtick_5">
     <g id="line2d_5">
      <g>
       <use xlink:href="#me1677cd72e" x="352.967776" y="116.44" style="stroke: #000000; stroke-width: 0.8"/>
      </g>
     </g>
     <g id="text_5">
      <!-- 8000 -->
      <g transform="translate(340.242776 131.038437) scale(0.1 -0.1)">
       <defs>
        <path id="DejaVuSans-38" d="M 2034 2216 
Q 1584 2216 1326 1975 
Q 1069 1734 1069 1313 
Q 1069 891 1326 650 
Q 1584 409 2034 409 
Q 2484 409 2743 651 
Q 3003 894 3003 1313 
Q 3003 1734 2745 1975 
Q 2488 2216 2034 2216 
z
M 1403 2484 
Q 997 2584 770 2862 
Q 544 3141 544 3541 
Q 544 4100 942 4425 
Q 1341 4750 2034 4750 
Q 2731 4750 3128 4425 
Q 3525 4100 3525 3541 
Q 3525 3141 3298 2862 
Q 3072 2584 2669 2484 
Q 3125 2378 3379 2068 
Q 3634 1759 3634 1313 
Q 3634 634 3220 271 
Q 2806 -91 2034 -91 
Q 1263 -91 848 271 
Q 434 634 434 1313 
Q 434 1759 690 2068 
Q 947 2378 1403 2484 
z
M 1172 3481 
Q 1172 3119 1398 2916 
Q 1625 2713 2034 2713 
Q 2441 2713 2670 2916 
Q 2900 3119 2900 3481 
Q 2900 3844 2670 4047 
Q 2441 4250 2034 4250 
Q 1625 4250 1398 4047 
Q 1172 3844 1172 3481 
z
" transform="scale(0.015625)"/>
       </defs>
       <use xlink:href="#DejaVuSans-38"/>
       <use xlink:href="#DejaVuSans-30" x="63.623047"/>
       <use xlink:href="#DejaVuSans-30" x="127.246094"/>
       <use xlink:href="#DejaVuSans-30" x="190.869141"/>
      </g>
     </g>
    </g>
    <g id="xtick_6">
     <g id="line2d_6">
      <g>
       <use xlink:href="#me1677cd72e" x="427.16472" y="116.44" style="stroke: #000000; stroke-width: 0.8"/>
      </g>
     </g>
     <g id="text_6">
      <!-- 10000 -->
      <g transform="translate(411.25847 131.038437) scale(0.1 -0.1)">
       <defs>
        <path id="DejaVuSans-31" d="M 794 531 
L 1825 531 
L 1825 4091 
L 703 3866 
L 703 4441 
L 1819 4666 
L 2450 4666 
L 2450 531 
L 3481 531 
L 3481 0 
L 794 0 
L 794 531 
z
" transform="scale(0.015625)"/>
       </defs>
       <use xlink:href="#DejaVuSans-31"/>
       <use xlink:href="#DejaVuSans-30" x="63.623047"/>
       <use xlink:href="#DejaVuSans-30" x="127.246094"/>
       <use xlink:href="#DejaVuSans-30" x="190.869141"/>
       <use xlink:href="#DejaVuSans-30" x="254.492188"/>
      </g>
     </g>
    </g>
    <g id="text_7">
     <!-- Time (ms) -->
     <g transform="translate(249.490781 144.716562) scale(0.1 -0.1)">
      <defs>
       <path id="DejaVuSans-54" d="M -19 4666 
L 3928 4666 
L 3928 4134 
L 2272 4134 
L 2272 0 
L 1638 0 
L 1638 4134 
L -19 4134 
L -19 4666 
z
" transform="scale(0.015625)"/>
       <path id="DejaVuSans-69" d="M 603 3500 
L 1178 3500 
L 1178 0 
L 603 0 
L 603 3500 
z
M 603 4863 
L 1178 4863 
L 1178 4134 
L 603 4134 
L 603 4863 
z
" transform="scale(0.015625)"/>
       <path id="DejaVuSans-6d" d="M 3328 2828 
Q 3544 3216 3844 3400 
Q 4144 3584 4550 3584 
Q 5097 3584 5394 3201 
Q 5691 2819 5691 2113 
L 5691 0 
L 5113 0 
L 5113 2094 
Q 5113 2597 4934 2840 
Q 4756 3084 4391 3084 
Q 3944 3084 3684 2787 
Q 3425 2491 3425 1978 
L 3425 0 
L 2847 0 
L 2847 2094 
Q 2847 2600 2669 2842 
Q 2491 3084 2119 3084 
Q 1678 3084 1418 2786 
Q 1159 2488 1159 1978 
L 1159 0 
L 581 0 
L 581 3500 
L 1159 3500 
L 1159 2956 
Q 1356 3278 1631 3431 
Q 1906 3584 2284 3584 
Q 2666 3584 2933 3390 
Q 3200 3197 3328 2828 
z
" transform="scale(0.015625)"/>
       <path id="DejaVuSans-65" d="M 3597 1894 
L 3597 1613 
L 953 1613 
Q 991 1019 1311 708 
Q 1631 397 2203 397 
Q 2534 397 2845 478 
Q 3156 559 3463 722 
L 3463 178 
Q 3153 47 2828 -22 
Q 2503 -91 2169 -91 
Q 1331 -91 842 396 
Q 353 884 353 1716 
Q 353 2575 817 3079 
Q 1281 3584 2069 3584 
Q 2775 3584 3186 3129 
Q 3597 2675 3597 1894 
z
M 3022 2063 
Q 3016 2534 2758 2815 
Q 2500 3097 2075 3097 
Q 1594 3097 1305 2825 
Q 1016 2553 972 2059 
L 3022 2063 
z
" transform="scale(0.015625)"/>
       <path id="DejaVuSans-20" transform="scale(0.015625)"/>
       <path id="DejaVuSans-28" d="M 1984 4856 
Q 1566 4138 1362 3434 
Q 1159 2731 1159 2009 
Q 1159 1288 1364 580 
Q 1569 -128 1984 -844 
L 1484 -844 
Q 1016 -109 783 600 
Q 550 1309 550 2009 
Q 550 2706 781 3412 
Q 1013 4119 1484 4856 
L 1984 4856 
z
" transform="scale(0.015625)"/>
       <path id="DejaVuSans-73" d="M 2834 3397 
L 2834 2853 
Q 2591 2978 2328 3040 
Q 2066 3103 1784 3103 
Q 1356 3103 1142 2972 
Q 928 2841 928 2578 
Q 928 2378 1081 2264 
Q 1234 2150 1697 2047 
L 1894 2003 
Q 2506 1872 2764 1633 
Q 3022 1394 3022 966 
Q 3022 478 2636 193 
Q 2250 -91 1575 -91 
Q 1294 -91 989 -36 
Q 684 19 347 128 
L 347 722 
Q 666 556 975 473 
Q 1284 391 1588 391 
Q 1994 391 2212 530 
Q 2431 669 2431 922 
Q 2431 1156 2273 1281 
Q 2116 1406 1581 1522 
L 1381 1569 
Q 847 1681 609 1914 
Q 372 2147 372 2553 
Q 372 3047 722 3315 
Q 1072 3584 1716 3584 
Q 2034 3584 2315 3537 
Q 2597 3491 2834 3397 
z
" transform="scale(0.015625)"/>
       <path id="DejaVuSans-29" d="M 513 4856 
L 1013 4856 
Q 1481 4119 1714 3412 
Q 1947 2706 1947 2009 
Q 1947 1309 1714 600 
Q 1481 -109 1013 -844 
L 513 -844 
Q 928 -128 1133 580 
Q 1338 1288 1338 2009 
Q 1338 2731 1133 3434 
Q 928 4138 513 4856 
z
" transform="scale(0.015625)"/>
      </defs>
      <use xlink:href="#DejaVuSans-54"/>
      <use xlink:href="#DejaVuSans-69" x="57.958984"/>
      <use xlink:href="#DejaVuSans-6d" x="85.742188"/>
      <use xlink:href="#DejaVuSans-65" x="183.154297"/>
      <use xlink:href="#DejaVuSans-20" x="244.677734"/>
      <use xlink:href="#DejaVuSans-28" x="276.464844"/>
      <use xlink:href="#DejaVuSans-6d" x="315.478516"/>
      <use xlink:href="#DejaVuSans-73" x="412.890625"/>
      <use xlink:href="#DejaVuSans-29" x="464.990234"/>
     </g>
    </g>
   </g>
   <g id="matplotlib.axis_2">
    <g id="ytick_1">
     <g id="line2d_7">
      <defs>
       <path id="m8592cb36a5" d="M 0 0 
L -3.5 0 
" style="stroke: #000000; stroke-width: 0.8"/>
      </defs>
      <g>
       <use xlink:href="#m8592cb36a5" x="56.18" y="111.638182" style="stroke: #000000; stroke-width: 0.8"/>
      </g>
     </g>
     <g id="text_8">
      <!-- −1.0 -->
      <g transform="translate(24.897188 115.437401) scale(0.1 -0.1)">
       <defs>
        <path id="DejaVuSans-2212" d="M 678 2272 
L 4684 2272 
L 4684 1741 
L 678 1741 
L 678 2272 
z
" transform="scale(0.015625)"/>
        <path id="DejaVuSans-2e" d="M 684 794 
L 1344 794 
L 1344 0 
L 684 0 
L 684 794 
z
" transform="scale(0.015625)"/>
       </defs>
       <use xlink:href="#DejaVuSans-2212"/>
       <use xlink:href="#DejaVuSans-31" x="83.789062"/>
       <use xlink:href="#DejaVuSans-2e" x="147.412109"/>
       <use xlink:href="#DejaVuSans-30" x="179.199219"/>
      </g>
     </g>
    </g>
    <g id="ytick_2">
     <g id="line2d_8">
      <g>
       <use xlink:href="#m8592cb36a5" x="56.18" y="87.629091" style="stroke: #000000; stroke-width: 0.8"/>
      </g>
     </g>
     <g id="text_9">
      <!-- −0.5 -->
      <g transform="translate(24.897188 91.42831) scale(0.1 -0.1)">
       <defs>
        <path id="DejaVuSans-35" d="M 691 4666 
L 3169 4666 
L 3169 4134 
L 1269 4134 
L 1269 2991 
Q 1406 3038 1543 3061 
Q 1681 3084 1819 3084 
Q 2600 3084 3056 2656 
Q 3513 2228 3513 1497 
Q 3513 744 3044 326 
Q 2575 -91 1722 -91 
Q 1428 -91 1123 -41 
Q 819 9 494 109 
L 494 744 
Q 775 591 1075 516 
Q 1375 441 1709 441 
Q 2250 441 2565 725 
Q 2881 1009 2881 1497 
Q 2881 1984 2565 2268 
Q 2250 2553 1709 2553 
Q 1456 2553 1204 2497 
Q 953 2441 691 2322 
L 691 4666 
z
" transform="scale(0.015625)"/>
       </defs>
       <use xlink:href="#DejaVuSans-2212"/>
       <use xlink:href="#DejaVuSans-30" x="83.789062"/>
       <use xlink:href="#DejaVuSans-2e" x="147.412109"/>
       <use xlink:href="#DejaVuSans-35" x="179.199219"/>
      </g>
     </g>
    </g>
    <g id="ytick_3">
     <g id="line2d_9">
      <g>
       <use xlink:href="#m8592cb36a5" x="56.18" y="63.62" style="stroke: #000000; stroke-width: 0.8"/>
      </g>
     </g>
     <g id="text_10">
      <!-- 0.0 -->
      <g transform="translate(33.276875 67.419219) scale(0.1 -0.1)">
       <use xlink:href="#DejaVuSans-30"/>
       <use xlink:href="#DejaVuSans-2e" x="63.623047"/>
       <use xlink:href="#DejaVuSans-30" x="95.410156"/>
      </g>
     </g>
    </g>
    <g id="ytick_4">
     <g id="line2d_10">
      <g>
       <use xlink:href="#m8592cb36a5" x="56.18" y="39.610909" style="stroke: #000000; stroke-width: 0.8"/>
      </g>
     </g>
     <g id="text_11">
      <!-- 0.5 -->
      <g transform="translate(33.276875 43.410128) scale(0.1 -0.1)">
       <use xlink:href="#DejaVuSans-30"/>
       <use xlink:href="#DejaVuSans-2e" x="63.623047"/>
       <use xlink:href="#DejaVuSans-35" x="95.410156"/>
      </g>
     </g>
    </g>
    <g id="ytick_5">
     <g id="line2d_11">
      <g>
       <use xlink:href="#m8592cb36a5" x="56.18" y="15.601818" style="stroke: #000000; stroke-width: 0.8"/>
      </g>
     </g>
     <g id="text_12">
      <!-- 1.0 -->
      <g transform="translate(33.276875 19.401037) scale(0.1 -0.1)">
       <use xlink:href="#DejaVuSans-31"/>
       <use xlink:href="#DejaVuSans-2e" x="63.623047"/>
       <use xlink:href="#DejaVuSans-30" x="95.410156"/>
      </g>
     </g>
    </g>
    <g id="text_13">
     <!-- X-Axis Value -->
     <g transform="translate(18.8175 94.180156) rotate(-90) scale(0.1 -0.1)">
      <defs>
       <path id="DejaVuSans-58" d="M 403 4666 
L 1081 4666 
L 2241 2931 
L 3406 4666 
L 4084 4666 
L 2584 2425 
L 4184 0 
L 3506 0 
L 2194 1984 
L 872 0 
L 191 0 
L 1856 2491 
L 403 4666 
z
" transform="scale(0.015625)"/>
       <path id="DejaVuSans-2d" d="M 313 2009 
L 1997 2009 
L 1997 1497 
L 313 1497 
L 313 2009 
z
" transform="scale(0.015625)"/>
       <path id="DejaVuSans-41" d="M 2188 4044 
L 1331 1722 
L 3047 1722 
L 2188 4044 
z
M 1831 4666 
L 2547 4666 
L 4325 0 
L 3669 0 
L 3244 1197 
L 1141 1197 
L 716 0 
L 50 0 
L 1831 4666 
z
" transform="scale(0.015625)"/>
       <path id="DejaVuSans-78" d="M 3513 3500 
L 2247 1797 
L 3578 0 
L 2900 0 
L 1881 1375 
L 863 0 
L 184 0 
L 1544 1831 
L 300 3500 
L 978 3500 
L 1906 2253 
L 2834 3500 
L 3513 3500 
z
" transform="scale(0.015625)"/>
       <path id="DejaVuSans-56" d="M 1831 0 
L 50 4666 
L 709 4666 
L 2188 738 
L 3669 4666 
L 4325 4666 
L 2547 0 
L 1831 0 
z
" transform="scale(0.015625)"/>
       <path id="DejaVuSans-61" d="M 2194 1759 
Q 1497 1759 1228 1600 
Q 959 1441 959 1056 
Q 959 750 1161 570 
Q 1363 391 1709 391 
Q 2188 391 2477 730 
Q 2766 1069 2766 1631 
L 2766 1759 
L 2194 1759 
z
M 3341 1997 
L 3341 0 
L 2766 0 
L 2766 531 
Q 2569 213 2275 61 
Q 1981 -91 1556 -91 
Q 1019 -91 701 211 
Q 384 513 384 1019 
Q 384 1609 779 1909 
Q 1175 2209 1959 2209 
L 2766 2209 
L 2766 2266 
Q 2766 2663 2505 2880 
Q 2244 3097 1772 3097 
Q 1472 3097 1187 3025 
Q 903 2953 641 2809 
L 641 3341 
Q 956 3463 1253 3523 
Q 1550 3584 1831 3584 
Q 2591 3584 2966 3190 
Q 3341 2797 3341 1997 
z
" transform="scale(0.015625)"/>
       <path id="DejaVuSans-6c" d="M 603 4863 
L 1178 4863 
L 1178 0 
L 603 0 
L 603 4863 
z
" transform="scale(0.015625)"/>
       <path id="DejaVuSans-75" d="M 544 1381 
L 544 3500 
L 1119 3500 
L 1119 1403 
Q 1119 906 1312 657 
Q 1506 409 1894 409 
Q 2359 409 2629 706 
Q 2900 1003 2900 1516 
L 2900 3500 
L 3475 3500 
L 3475 0 
L 2900 0 
L 2900 538 
Q 2691 219 2414 64 
Q 2138 -91 1772 -91 
Q 1169 -91 856 284 
Q 544 659 544 1381 
z
M 1991 3584 
L 1991 3584 
z
" transform="scale(0.015625)"/>
      </defs>
      <use xlink:href="#DejaVuSans-58"/>
      <use xlink:href="#DejaVuSans-2d" x="63.505859"/>
      <use xlink:href="#DejaVuSans-41" x="97.339844"/>
      <use xlink:href="#DejaVuSans-78" x="165.748047"/>
      <use xlink:href="#DejaVuSans-69" x="224.927734"/>
      <use xlink:href="#DejaVuSans-73" x="252.710938"/>
      <use xlink:href="#DejaVuSans-20" x="304.810547"/>
      <use xlink:href="#DejaVuSans-56" x="336.597656"/>
      <use xlink:href="#DejaVuSans-61" x="397.255859"/>
      <use xlink:href="#DejaVuSans-6c" x="458.535156"/>
      <use xlink:href="#DejaVuSans-75" x="486.318359"/>
      <use xlink:href="#DejaVuSans-65" x="549.697266"/>
     </g>
    </g>
   </g>
   <g id="line2d_12">
    <path d="M 56.18 65.060545 
L 64.712649 65.060545 
L 65.083633 64.580364 
L 65.454618 65.060545 
L 68.051511 65.060545 
L 68.422496 65.540727 
L 68.79348 65.060545 
L 76.213175 65.060545 
L 76.58416 64.580364 
L 76.955144 65.060545 
L 88.455671 65.060545 
L 88.826655 64.580364 
L 89.19764 68.421818 
L 89.568625 65.060545 
L 96.617334 65.060545 
L 96.988319 65.540727 
L 97.359304 65.060545 
L 100.698166 65.060545 
L 101.069151 63.62 
L 101.440136 65.060545 
L 111.456723 65.060545 
L 111.827708 65.540727 
L 112.198693 65.060545 
L 124.812173 65.060545 
L 125.183158 65.540727 
L 125.554143 65.060545 
L 145.587317 65.060545 
L 145.958302 63.139818 
L 146.329287 65.060545 
L 146.700272 65.060545 
L 147.071256 65.540727 
L 147.442241 65.060545 
L 149.297165 65.060545 
L 149.668149 65.540727 
L 150.039134 65.060545 
L 155.603905 65.060545 
L 155.97489 64.580364 
L 156.345874 65.060545 
L 157.458829 65.060545 
L 157.829813 63.139818 
L 158.200798 65.060545 
L 161.910645 65.060545 
L 162.28163 64.580364 
L 162.652615 65.060545 
L 173.411171 65.060545 
L 174.153141 59.298364 
L 174.89511 55.456909 
L 175.266095 54.496545 
L 175.63708 54.016364 
L 176.379049 52.095636 
L 176.750034 51.615455 
L 177.121019 49.214545 
L 177.862988 47.293818 
L 178.233973 45.853273 
L 178.975942 41.051455 
L 179.346927 40.091091 
L 179.717912 39.610909 
L 180.088896 38.170364 
L 180.459881 37.690182 
L 180.830866 34.328909 
L 181.572835 31.447818 
L 183.427759 26.646 
L 183.798744 24.245091 
L 184.911698 22.804545 
L 185.282683 22.804545 
L 186.024652 19.923455 
L 186.766621 16.562182 
L 187.137606 16.082 
L 187.508591 16.562182 
L 187.879576 16.562182 
L 188.25056 15.601818 
L 188.621545 16.082 
L 195.670255 16.082 
L 196.041239 15.601818 
L 196.412224 15.601818 
L 196.783209 16.082 
L 197.525178 16.082 
L 197.896163 15.601818 
L 198.267148 15.601818 
L 198.638132 16.082 
L 199.009117 16.082 
L 199.380102 15.601818 
L 199.751087 16.082 
L 200.122071 15.601818 
L 200.493056 16.082 
L 200.864041 16.082 
L 201.235025 15.601818 
L 201.60601 16.082 
L 203.460934 16.082 
L 203.831919 15.601818 
L 204.202903 16.082 
L 206.799796 16.082 
L 207.170781 15.601818 
L 207.91275 15.601818 
L 208.283735 16.082 
L 210.138659 16.082 
L 210.509643 16.562182 
L 211.251613 16.562182 
L 211.622598 17.042364 
L 212.364567 24.245091 
L 212.735552 21.844182 
L 213.106537 21.364 
L 213.477521 25.205455 
L 213.848506 24.245091 
L 214.219491 22.804545 
L 214.590475 20.883818 
L 214.96146 20.403636 
L 215.332445 20.883818 
L 215.70343 20.403636 
L 216.074414 22.324364 
L 216.445399 19.923455 
L 216.816384 19.923455 
L 217.187368 20.403636 
L 217.558353 20.403636 
L 217.929338 20.883818 
L 218.300323 20.403636 
L 219.042292 20.403636 
L 219.413277 18.482909 
L 219.784261 20.403636 
L 220.526231 20.403636 
L 220.897216 19.923455 
L 223.494109 19.923455 
L 223.865093 19.443273 
L 224.607063 20.403636 
L 225.349032 19.443273 
L 226.091002 20.403636 
L 226.461986 19.443273 
L 226.832971 19.923455 
L 227.203956 19.443273 
L 227.574941 19.923455 
L 227.945925 19.923455 
L 228.31691 19.443273 
L 228.687895 19.443273 
L 229.058879 18.002727 
L 229.429864 18.482909 
L 229.800849 18.482909 
L 230.542818 17.522545 
L 231.284788 17.522545 
L 232.026757 18.482909 
L 233.881681 16.082 
L 234.252666 16.562182 
L 234.62365 16.082 
L 236.478574 16.082 
L 236.849559 15.601818 
L 237.220543 16.562182 
L 237.591528 16.082 
L 248.350085 16.082 
L 248.72107 16.562182 
L 249.092054 16.082 
L 249.463039 16.562182 
L 249.834024 19.443273 
L 250.205008 20.403636 
L 250.575993 20.883818 
L 250.946978 21.844182 
L 252.059932 23.284727 
L 252.430917 23.284727 
L 253.543871 24.725273 
L 253.914856 26.165818 
L 254.28584 28.086545 
L 254.656825 28.086545 
L 255.02781 30.007273 
L 255.398795 30.967636 
L 256.140764 33.848727 
L 256.511749 34.809091 
L 256.882733 37.690182 
L 257.253718 38.170364 
L 257.624703 38.170364 
L 257.995688 38.650545 
L 258.366672 39.610909 
L 259.108642 40.571273 
L 259.479626 40.571273 
L 259.850611 41.051455 
L 260.221596 43.452364 
L 260.592581 44.412727 
L 260.963565 46.813636 
L 262.07652 49.694727 
L 262.447504 52.095636 
L 262.818489 52.575818 
L 263.189474 54.016364 
L 263.560458 54.496545 
L 263.931443 55.456909 
L 264.302428 57.857818 
L 264.673413 59.298364 
L 265.044397 57.857818 
L 265.415382 63.139818 
L 265.786367 64.580364 
L 266.157351 65.060545 
L 270.980153 65.060545 
L 271.351138 65.540727 
L 271.722122 65.540727 
L 272.093107 65.060545 
L 272.835076 65.060545 
L 273.577046 66.020909 
L 273.948031 67.461455 
L 274.319015 69.862364 
L 274.69 71.302909 
L 276.544924 76.104727 
L 276.915908 77.545273 
L 277.286893 78.505636 
L 278.770832 86.188545 
L 279.141817 86.668727 
L 279.883786 88.589455 
L 280.254771 90.510182 
L 280.625756 90.990364 
L 280.99674 90.990364 
L 281.367725 93.391273 
L 281.73871 94.831818 
L 282.480679 96.752545 
L 282.851664 96.752545 
L 283.222649 98.193091 
L 283.593633 100.113818 
L 284.335603 102.034545 
L 284.706587 102.034545 
L 285.077572 103.955273 
L 285.448557 104.915636 
L 285.819542 105.395818 
L 287.30348 109.237273 
L 288.04545 110.197636 
L 288.416435 111.158 
L 288.787419 111.638182 
L 292.868251 111.638182 
L 293.239236 111.158 
L 293.610221 111.638182 
L 338.499372 111.638182 
L 339.241341 110.677818 
L 339.612326 109.717455 
L 339.983311 109.237273 
L 340.354295 109.237273 
L 341.096265 107.316545 
L 341.46725 105.876 
L 341.838234 105.395818 
L 342.580204 103.475091 
L 342.951188 102.034545 
L 343.322173 102.034545 
L 344.435127 100.594 
L 344.806112 99.153455 
L 345.177097 98.673273 
L 345.548081 97.712909 
L 346.290051 96.752545 
L 346.661036 96.752545 
L 347.03202 96.272364 
L 347.403005 96.272364 
L 347.77399 95.792182 
L 348.144975 95.792182 
L 349.257929 94.351636 
L 350.370883 91.470545 
L 351.854822 89.549818 
L 352.225806 88.589455 
L 352.596791 88.589455 
L 352.967776 87.629091 
L 353.338761 84.267818 
L 353.709745 85.708364 
L 354.08073 84.748 
L 354.451715 82.827273 
L 354.822699 82.347091 
L 356.677623 77.545273 
L 357.048608 76.104727 
L 357.790577 72.743455 
L 358.532547 71.783091 
L 359.274516 68.902 
L 359.645501 66.981273 
L 360.016486 66.020909 
L 360.758455 65.060545 
L 362.613379 65.060545 
L 362.984363 65.540727 
L 363.355348 65.060545 
L 364.839287 65.060545 
L 365.210272 64.580364 
L 365.581256 65.060545 
L 374.48489 65.060545 
L 374.855874 64.580364 
L 375.226859 65.060545 
L 379.307691 65.060545 
L 379.678676 64.580364 
L 380.04966 65.060545 
L 390.066248 65.060545 
L 390.437233 64.580364 
L 390.808217 65.060545 
L 397.114958 65.060545 
L 397.485942 64.580364 
L 397.856927 65.060545 
L 406.018591 65.060545 
L 406.389576 65.540727 
L 406.76056 65.060545 
L 407.50253 65.060545 
L 407.873514 65.540727 
L 408.244499 65.060545 
L 408.986469 65.060545 
L 409.357453 65.540727 
L 409.728438 65.060545 
L 410.099423 65.540727 
L 410.470407 65.060545 
L 414.551239 65.060545 
L 414.922224 67.461455 
L 415.293209 65.060545 
L 429.019643 65.060545 
L 429.390628 65.540727 
L 429.761613 65.060545 
L 435.697368 65.060545 
L 436.439338 64.100182 
L 436.810323 65.060545 
L 439.407216 65.060545 
L 439.7782 64.580364 
L 440.149185 65.060545 
L 444.230017 65.060545 
L 444.601002 64.580364 
L 444.971986 65.060545 
L 452.391681 65.060545 
L 452.762666 64.580364 
L 453.13365 65.060545 
L 455.730543 65.060545 
L 456.101528 66.020909 
L 456.472513 65.060545 
L 457.956452 65.060545 
L 458.327436 64.580364 
L 458.698421 65.060545 
L 476.876672 65.060545 
L 477.247657 64.100182 
L 477.618642 65.060545 
L 481.328489 65.060545 
L 481.699474 65.540727 
L 482.070458 65.060545 
L 485.409321 65.060545 
L 485.780306 64.580364 
L 486.15129 65.060545 
L 489.861138 65.060545 
L 490.232122 65.540727 
L 490.603107 65.060545 
L 493.2 65.060545 
L 493.2 65.060545 
" clip-path="url(#pa32597a5d8)" style="fill: none; stroke: #1f77b4; stroke-width: 1.5; stroke-linecap: square"/>
   </g>
   <g id="line2d_13">
    <path d="M 56.18 63.62 
L 493.2 63.62 
" clip-path="url(#pa32597a5d8)" style="fill: none; stroke-dasharray: 2.96,1.28; stroke-dashoffset: 0; stroke: #808080; stroke-width: 0.8"/>
   </g>
   <g id="patch_3">
    <path d="M 56.18 116.44 
L 56.18 10.8 
" style="fill: none; stroke: #000000; stroke-width: 0.8; stroke-linejoin: miter; stroke-linecap: square"/>
   </g>
   <g id="patch_4">
    <path d="M 56.18 116.44 
L 493.2 116.44 
" style="fill: none; stroke: #000000; stroke-width: 0.8; stroke-linejoin: miter; stroke-linecap: square"/>
   </g>
  </g>
  <g id="axes_2">
   <g id="patch_5">
    <path d="M 56.18 264.04 
L 493.2 264.04 
L 493.2 158.4 
L 56.18 158.4 
z
" style="fill: #ffffff"/>
   </g>
   <g id="matplotlib.axis_3">
    <g id="xtick_7">
     <g id="line2d_14">
      <g>
       <use xlink:href="#me1677cd72e" x="56.18" y="264.04" style="stroke: #000000; stroke-width: 0.8"/>
      </g>
     </g>
     <g id="text_14">
      <!-- 0 -->
      <g transform="translate(52.99875 278.638438) scale(0.1 -0.1)">
       <use xlink:href="#DejaVuSans-30"/>
      </g>
     </g>
    </g>
    <g id="xtick_8">
     <g id="line2d_15">
      <g>
       <use xlink:href="#me1677cd72e" x="130.376944" y="264.04" style="stroke: #000000; stroke-width: 0.8"/>
      </g>
     </g>
     <g id="text_15">
      <!-- 2000 -->
      <g transform="translate(117.651944 278.638438) scale(0.1 -0.1)">
       <use xlink:href="#DejaVuSans-32"/>
       <use xlink:href="#DejaVuSans-30" x="63.623047"/>
       <use xlink:href="#DejaVuSans-30" x="127.246094"/>
       <use xlink:href="#DejaVuSans-30" x="190.869141"/>
      </g>
     </g>
    </g>
    <g id="xtick_9">
     <g id="line2d_16">
      <g>
       <use xlink:href="#me1677cd72e" x="204.573888" y="264.04" style="stroke: #000000; stroke-width: 0.8"/>
      </g>
     </g>
     <g id="text_16">
      <!-- 4000 -->
      <g transform="translate(191.848888 278.638438) scale(0.1 -0.1)">
       <use xlink:href="#DejaVuSans-34"/>
       <use xlink:href="#DejaVuSans-30" x="63.623047"/>
       <use xlink:href="#DejaVuSans-30" x="127.246094"/>
       <use xlink:href="#DejaVuSans-30" x="190.869141"/>
      </g>
     </g>
    </g>
    <g id="xtick_10">
     <g id="line2d_17">
      <g>
       <use xlink:href="#me1677cd72e" x="278.770832" y="264.04" style="stroke: #000000; stroke-width: 0.8"/>
      </g>
     </g>
     <g id="text_17">
      <!-- 6000 -->
      <g transform="translate(266.045832 278.638438) scale(0.1 -0.1)">
       <use xlink:href="#DejaVuSans-36"/>
       <use xlink:href="#DejaVuSans-30" x="63.623047"/>
       <use xlink:href="#DejaVuSans-30" x="127.246094"/>
       <use xlink:href="#DejaVuSans-30" x="190.869141"/>
      </g>
     </g>
    </g>
    <g id="xtick_11">
     <g id="line2d_18">
      <g>
       <use xlink:href="#me1677cd72e" x="352.967776" y="264.04" style="stroke: #000000; stroke-width: 0.8"/>
      </g>
     </g>
     <g id="text_18">
      <!-- 8000 -->
      <g transform="translate(340.242776 278.638438) scale(0.1 -0.1)">
       <use xlink:href="#DejaVuSans-38"/>
       <use xlink:href="#DejaVuSans-30" x="63.623047"/>
       <use xlink:href="#DejaVuSans-30" x="127.246094"/>
       <use xlink:href="#DejaVuSans-30" x="190.869141"/>
      </g>
     </g>
    </g>
    <g id="xtick_12">
     <g id="line2d_19">
      <g>
       <use xlink:href="#me1677cd72e" x="427.16472" y="264.04" style="stroke: #000000; stroke-width: 0.8"/>
      </g>
     </g>
     <g id="text_19">
      <!-- 10000 -->
      <g transform="translate(411.25847 278.638438) scale(0.1 -0.1)">
       <use xlink:href="#DejaVuSans-31"/>
       <use xlink:href="#DejaVuSans-30" x="63.623047"/>
       <use xlink:href="#DejaVuSans-30" x="127.246094"/>
       <use xlink:href="#DejaVuSans-30" x="190.869141"/>
       <use xlink:href="#DejaVuSans-30" x="254.492188"/>
      </g>
     </g>
    </g>
    <g id="text_20">
     <!-- Time (ms) -->
     <g transform="translate(249.490781 292.316563) scale(0.1 -0.1)">
      <use xlink:href="#DejaVuSans-54"/>
      <use xlink:href="#DejaVuSans-69" x="57.958984"/>
      <use xlink:href="#DejaVuSans-6d" x="85.742188"/>
      <use xlink:href="#DejaVuSans-65" x="183.154297"/>
      <use xlink:href="#DejaVuSans-20" x="244.677734"/>
      <use xlink:href="#DejaVuSans-28" x="276.464844"/>
      <use xlink:href="#DejaVuSans-6d" x="315.478516"/>
      <use xlink:href="#DejaVuSans-73" x="412.890625"/>
      <use xlink:href="#DejaVuSans-29" x="464.990234"/>
     </g>
    </g>
   </g>
   <g id="matplotlib.axis_4">
    <g id="ytick_6">
     <g id="line2d_20">
      <g>
       <use xlink:href="#m8592cb36a5" x="56.18" y="259.238182" style="stroke: #000000; stroke-width: 0.8"/>
      </g>
     </g>
     <g id="text_21">
      <!-- −1.0 -->
      <g transform="translate(24.897188 263.037401) scale(0.1 -0.1)">
       <use xlink:href="#DejaVuSans-2212"/>
       <use xlink:href="#DejaVuSans-31" x="83.789062"/>
       <use xlink:href="#DejaVuSans-2e" x="147.412109"/>
       <use xlink:href="#DejaVuSans-30" x="179.199219"/>
      </g>
     </g>
    </g>
    <g id="ytick_7">
     <g id="line2d_21">
      <g>
       <use xlink:href="#m8592cb36a5" x="56.18" y="235.229091" style="stroke: #000000; stroke-width: 0.8"/>
      </g>
     </g>
     <g id="text_22">
      <!-- −0.5 -->
      <g transform="translate(24.897188 239.02831) scale(0.1 -0.1)">
       <use xlink:href="#DejaVuSans-2212"/>
       <use xlink:href="#DejaVuSans-30" x="83.789062"/>
       <use xlink:href="#DejaVuSans-2e" x="147.412109"/>
       <use xlink:href="#DejaVuSans-35" x="179.199219"/>
      </g>
     </g>
    </g>
    <g id="ytick_8">
     <g id="line2d_22">
      <g>
       <use xlink:href="#m8592cb36a5" x="56.18" y="211.22" style="stroke: #000000; stroke-width: 0.8"/>
      </g>
     </g>
     <g id="text_23">
      <!-- 0.0 -->
      <g transform="translate(33.276875 215.019219) scale(0.1 -0.1)">
       <use xlink:href="#DejaVuSans-30"/>
       <use xlink:href="#DejaVuSans-2e" x="63.623047"/>
       <use xlink:href="#DejaVuSans-30" x="95.410156"/>
      </g>
     </g>
    </g>
    <g id="ytick_9">
     <g id="line2d_23">
      <g>
       <use xlink:href="#m8592cb36a5" x="56.18" y="187.210909" style="stroke: #000000; stroke-width: 0.8"/>
      </g>
     </g>
     <g id="text_24">
      <!-- 0.5 -->
      <g transform="translate(33.276875 191.010128) scale(0.1 -0.1)">
       <use xlink:href="#DejaVuSans-30"/>
       <use xlink:href="#DejaVuSans-2e" x="63.623047"/>
       <use xlink:href="#DejaVuSans-35" x="95.410156"/>
      </g>
     </g>
    </g>
    <g id="ytick_10">
     <g id="line2d_24">
      <g>
       <use xlink:href="#m8592cb36a5" x="56.18" y="163.201818" style="stroke: #000000; stroke-width: 0.8"/>
      </g>
     </g>
     <g id="text_25">
      <!-- 1.0 -->
      <g transform="translate(33.276875 167.001037) scale(0.1 -0.1)">
       <use xlink:href="#DejaVuSans-31"/>
       <use xlink:href="#DejaVuSans-2e" x="63.623047"/>
       <use xlink:href="#DejaVuSans-30" x="95.410156"/>
      </g>
     </g>
    </g>
    <g id="text_26">
     <!-- Y-Axis Value -->
     <g transform="translate(18.8175 241.065313) rotate(-90) scale(0.1 -0.1)">
      <defs>
       <path id="DejaVuSans-59" d="M -13 4666 
L 666 4666 
L 1959 2747 
L 3244 4666 
L 3922 4666 
L 2272 2222 
L 2272 0 
L 1638 0 
L 1638 2222 
L -13 4666 
z
" transform="scale(0.015625)"/>
      </defs>
      <use xlink:href="#DejaVuSans-59"/>
      <use xlink:href="#DejaVuSans-2d" x="49.208984"/>
      <use xlink:href="#DejaVuSans-41" x="83.042969"/>
      <use xlink:href="#DejaVuSans-78" x="151.451172"/>
      <use xlink:href="#DejaVuSans-69" x="210.630859"/>
      <use xlink:href="#DejaVuSans-73" x="238.414062"/>
      <use xlink:href="#DejaVuSans-20" x="290.513672"/>
      <use xlink:href="#DejaVuSans-56" x="322.300781"/>
      <use xlink:href="#DejaVuSans-61" x="382.958984"/>
      <use xlink:href="#DejaVuSans-6c" x="444.238281"/>
      <use xlink:href="#DejaVuSans-75" x="472.021484"/>
      <use xlink:href="#DejaVuSans-65" x="535.400391"/>
     </g>
    </g>
   </g>
   <g id="line2d_25">
    <path d="M 56.18 209.779455 
L 56.550985 210.259636 
L 56.921969 209.779455 
L 64.341664 209.779455 
L 64.712649 209.299273 
L 65.083633 209.779455 
L 68.422496 209.779455 
L 68.79348 210.259636 
L 69.164465 209.779455 
L 73.245297 209.779455 
L 73.616282 210.259636 
L 73.987267 209.779455 
L 87.342716 209.779455 
L 87.713701 210.259636 
L 88.084686 209.779455 
L 96.617334 209.779455 
L 96.988319 210.259636 
L 97.359304 209.779455 
L 101.069151 209.779455 
L 101.440136 210.259636 
L 101.811121 209.779455 
L 127.409066 209.779455 
L 127.780051 210.259636 
L 128.151036 209.779455 
L 130.747929 209.779455 
L 131.118913 206.898364 
L 131.860883 203.056909 
L 132.231868 200.175818 
L 133.344822 193.933455 
L 134.086791 188.651455 
L 134.457776 186.250545 
L 134.828761 182.889273 
L 135.199745 181.448727 
L 135.57073 179.528 
L 135.941715 176.646909 
L 136.312699 175.206364 
L 136.683684 174.246 
L 137.054669 173.765818 
L 137.425654 170.884727 
L 138.167623 164.162182 
L 138.538608 163.682 
L 142.990424 163.682 
L 143.361409 164.162182 
L 143.732394 163.682 
L 144.103379 164.162182 
L 144.474363 163.682 
L 146.329287 163.682 
L 146.700272 164.162182 
L 147.071256 163.682 
L 148.184211 163.682 
L 148.555195 163.201818 
L 148.92618 163.682 
L 150.039134 163.682 
L 150.410119 163.201818 
L 150.781104 163.682 
L 151.523073 163.682 
L 151.894058 163.201818 
L 152.265042 163.682 
L 153.377997 163.682 
L 153.748981 164.162182 
L 154.119966 163.682 
L 154.490951 163.682 
L 154.861935 163.201818 
L 155.23292 163.682 
L 157.087844 163.682 
L 157.458829 164.162182 
L 157.829813 163.682 
L 159.684737 163.682 
L 160.055722 163.201818 
L 160.426706 163.682 
L 160.797691 163.682 
L 161.168676 164.162182 
L 161.53966 163.682 
L 166.733447 163.682 
L 167.104431 164.162182 
L 167.475416 163.682 
L 177.492003 163.682 
L 177.862988 164.162182 
L 178.604958 163.201818 
L 178.975942 163.682 
L 179.346927 163.682 
L 179.717912 164.642364 
L 180.088896 163.682 
L 180.459881 163.201818 
L 180.830866 163.682 
L 183.056774 163.682 
L 183.427759 163.201818 
L 183.798744 163.682 
L 188.25056 163.682 
L 188.621545 164.162182 
L 188.99253 163.682 
L 191.589423 163.682 
L 191.960407 163.201818 
L 192.331392 163.682 
L 196.041239 163.682 
L 196.412224 164.642364 
L 197.154194 167.523455 
L 198.267148 172.805455 
L 198.638132 173.765818 
L 199.009117 174.246 
L 199.380102 173.765818 
L 199.751087 174.726182 
L 200.122071 174.726182 
L 201.60601 176.646909 
L 201.976995 176.646909 
L 202.718964 177.607273 
L 203.089949 179.047818 
L 205.315857 181.928909 
L 205.686842 181.928909 
L 206.057827 182.889273 
L 206.428812 183.369455 
L 206.799796 184.81 
L 207.170781 185.290182 
L 207.541766 186.250545 
L 207.91275 186.730727 
L 208.283735 187.691091 
L 209.396689 189.131636 
L 210.509643 193.453273 
L 212.364567 202.576727 
L 212.735552 203.537091 
L 213.106537 204.977636 
L 213.477521 206.898364 
L 213.848506 209.779455 
L 214.219491 209.779455 
L 214.590475 210.259636 
L 214.96146 209.779455 
L 215.332445 210.259636 
L 215.70343 209.779455 
L 216.445399 209.779455 
L 216.816384 210.259636 
L 217.187368 210.259636 
L 217.558353 209.779455 
L 217.929338 210.259636 
L 218.300323 209.779455 
L 224.236078 209.779455 
L 224.607063 210.259636 
L 227.945925 210.259636 
L 228.687895 211.22 
L 229.058879 211.22 
L 229.429864 212.180364 
L 229.800849 214.581273 
L 230.171834 215.541636 
L 230.913803 216.502 
L 231.655772 218.422727 
L 232.026757 219.863273 
L 232.768727 221.784 
L 233.139711 223.224545 
L 233.510696 224.184909 
L 235.36562 231.387636 
L 235.736604 232.348 
L 236.107589 234.268727 
L 236.478574 235.229091 
L 237.220543 238.590364 
L 237.591528 240.030909 
L 237.962513 240.991273 
L 238.333497 243.392182 
L 239.075467 245.312909 
L 239.817436 248.194 
L 240.188421 249.154364 
L 242.043345 258.758 
L 242.414329 259.238182 
L 299.545976 259.238182 
L 299.916961 258.277818 
L 300.287946 256.837273 
L 300.65893 256.357091 
L 301.029915 255.396727 
L 301.4009 253.476 
L 301.771885 252.515636 
L 302.884839 248.194 
L 303.255823 247.233636 
L 303.626808 245.793091 
L 304.368778 243.872364 
L 304.739762 241.471455 
L 305.110747 240.991273 
L 305.481732 239.550727 
L 305.852716 237.63 
L 308.44961 217.462364 
L 309.191579 214.101091 
L 309.562564 210.259636 
L 309.933548 209.779455 
L 310.304533 209.779455 
L 310.675518 210.259636 
L 311.046503 209.779455 
L 317.353243 209.779455 
L 318.095212 205.938 
L 319.208166 203.056909 
L 319.579151 201.616364 
L 320.321121 198.255091 
L 321.06309 196.334364 
L 322.176044 191.052364 
L 322.918014 188.171273 
L 323.659983 184.81 
L 324.030968 183.369455 
L 324.772937 181.448727 
L 325.143922 180.008182 
L 325.514907 179.528 
L 326.256876 176.166727 
L 326.627861 175.686545 
L 326.998846 174.726182 
L 327.36983 174.246 
L 328.1118 174.246 
L 328.482784 173.285636 
L 328.853769 171.845091 
L 329.595739 166.563091 
L 329.966723 164.642364 
L 330.337708 163.682 
L 331.079677 163.682 
L 331.450662 164.162182 
L 331.821647 163.682 
L 332.563616 163.682 
L 332.934601 164.162182 
L 333.67657 163.201818 
L 334.047555 163.682 
L 339.241341 163.682 
L 339.612326 164.162182 
L 339.983311 165.602727 
L 340.354295 163.682 
L 340.72528 163.201818 
L 341.096265 163.682 
L 344.806112 163.682 
L 345.177097 163.201818 
L 345.548081 163.682 
L 347.77399 163.682 
L 348.144975 163.201818 
L 348.515959 163.682 
L 360.38747 163.682 
L 360.758455 164.162182 
L 361.12944 163.682 
L 363.355348 163.682 
L 363.726333 164.162182 
L 364.097317 163.682 
L 364.468302 163.682 
L 364.839287 163.201818 
L 365.210272 163.201818 
L 365.581256 163.682 
L 368.920119 163.682 
L 369.291104 163.201818 
L 369.662088 163.682 
L 381.162615 163.682 
L 381.533599 164.162182 
L 381.904584 163.682 
L 386.356401 163.682 
L 386.727385 164.162182 
L 387.09837 163.682 
L 394.518065 163.682 
L 394.889049 163.201818 
L 395.260034 163.682 
L 396.002003 163.682 
L 396.372988 164.162182 
L 396.743973 163.682 
L 398.598896 163.682 
L 398.969881 164.162182 
L 399.340866 166.082909 
L 400.082835 171.845091 
L 400.45382 173.765818 
L 400.824805 174.246 
L 401.195789 174.246 
L 401.937759 176.166727 
L 402.308744 177.607273 
L 403.050713 181.928909 
L 403.421698 182.889273 
L 406.389576 197.774909 
L 406.76056 199.215455 
L 407.131545 203.056909 
L 407.50253 205.457818 
L 407.873514 209.779455 
L 428.648659 209.779455 
L 429.019643 210.259636 
L 429.390628 209.779455 
L 432.358506 209.779455 
L 432.729491 210.259636 
L 433.100475 209.779455 
L 453.13365 209.779455 
L 453.504635 210.259636 
L 453.87562 210.259636 
L 454.246604 209.779455 
L 458.327436 209.779455 
L 458.698421 210.259636 
L 459.069406 209.779455 
L 464.263192 209.779455 
L 464.634177 210.259636 
L 465.005161 209.779455 
L 465.376146 209.779455 
L 465.747131 210.259636 
L 466.118115 209.779455 
L 476.134703 209.779455 
L 476.505688 210.259636 
L 476.876672 210.259636 
L 477.247657 209.779455 
L 479.473565 209.779455 
L 479.84455 210.259636 
L 480.215535 209.779455 
L 480.58652 210.259636 
L 480.957504 209.779455 
L 481.699474 209.779455 
L 482.070458 210.259636 
L 482.441443 210.259636 
L 482.812428 209.779455 
L 490.603107 209.779455 
L 490.974092 210.259636 
L 491.345076 209.779455 
L 493.2 209.779455 
L 493.2 209.779455 
" clip-path="url(#p98b0d4779c)" style="fill: none; stroke: #1f77b4; stroke-width: 1.5; stroke-linecap: square"/>
   </g>
   <g id="line2d_26">
    <path d="M 56.18 211.22 
L 493.2 211.22 
" clip-path="url(#p98b0d4779c)" style="fill: none; stroke-dasharray: 2.96,1.28; stroke-dashoffset: 0; stroke: #808080; stroke-width: 0.8"/>
   </g>
   <g id="patch_6">
    <path d="M 56.18 264.04 
L 56.18 158.4 
" style="fill: none; stroke: #000000; stroke-width: 0.8; stroke-linejoin: miter; stroke-linecap: square"/>
   </g>
   <g id="patch_7">
    <path d="M 56.18 264.04 
L 493.2 264.04 
" style="fill: none; stroke: #000000; stroke-width: 0.8; stroke-linejoin: miter; stroke-linecap: square"/>
   </g>
  </g>
 </g>
 <defs>
  <clipPath id="pa32597a5d8">
   <rect x="56.18" y="10.8" width="437.02" height="105.64"/>
  </clipPath>
  <clipPath id="p98b0d4779c">
   <rect x="56.18" y="158.4" width="437.02" height="105.64"/>
  </clipPath>
 </defs>
</svg>
