<?xml version="1.0" encoding="utf-8" standalone="no"?>
<!DOCTYPE svg PUBLIC "-//W3C//DTD SVG 1.1//EN"
  "http://www.w3.org/Graphics/SVG/1.1/DTD/svg11.dtd">
<svg xmlns:xlink="http://www.w3.org/1999/xlink" width="504pt" height="306pt" viewBox="0 0 504 306" xmlns="http://www.w3.org/2000/svg" version="1.1">
 <metadata>
  <rdf:RDF xmlns:dc="http://purl.org/dc/elements/1.1/" xmlns:cc="http://creativecommons.org/ns#" xmlns:rdf="http://www.w3.org/1999/02/22-rdf-syntax-ns#">
   <cc:Work>
    <dc:type rdf:resource="http://purl.org/dc/dcmitype/StillImage"/>
    <dc:date>2024-06-16T23:01:47.629115</dc:date>
    <dc:format>image/svg+xml</dc:format>
    <dc:creator>
     <cc:Agent>
      <dc:title>Matplotlib v3.8.3, https://matplotlib.org/</dc:title>
     </cc:Agent>
    </dc:creator>
   </cc:Work>
  </rdf:RDF>
 </metadata>
 <defs>
  <style type="text/css">*{stroke-linejoin: round; stroke-linecap: butt}</style>
 </defs>
 <g id="figure_1">
  <g id="patch_1">
   <path d="M 0 306 
L 504 306 
L 504 0 
L 0 0 
z
" style="fill: #ffffff"/>
  </g>
  <g id="axes_1">
   <g id="patch_2">
    <path d="M 56.18 116.44 
L 485.241429 116.44 
L 485.241429 10.8 
L 56.18 10.8 
z
" style="fill: #ffffff"/>
   </g>
   <g id="matplotlib.axis_1">
    <g id="xtick_1">
     <g id="line2d_1">
      <defs>
       <path id="mfb8b4ddea5" d="M 0 0 
L 0 3.5 
" style="stroke: #000000; stroke-width: 0.8"/>
      </defs>
      <g>
       <use xlink:href="#mfb8b4ddea5" x="56.18" y="116.44" style="stroke: #000000; stroke-width: 0.8"/>
      </g>
     </g>
     <g id="text_1">
      <!-- 0 -->
      <g transform="translate(52.99875 131.038437) scale(0.1 -0.1)">
       <defs>
        <path id="DejaVuSans-30" d="M 2034 4250 
Q 1547 4250 1301 3770 
Q 1056 3291 1056 2328 
Q 1056 1369 1301 889 
Q 1547 409 2034 409 
Q 2525 409 2770 889 
Q 3016 1369 3016 2328 
Q 3016 3291 2770 3770 
Q 2525 4250 2034 4250 
z
M 2034 4750 
Q 2819 4750 3233 4129 
Q 3647 3509 3647 2328 
Q 3647 1150 3233 529 
Q 2819 -91 2034 -91 
Q 1250 -91 836 529 
Q 422 1150 422 2328 
Q 422 3509 836 4129 
Q 1250 4750 2034 4750 
z
" transform="scale(0.015625)"/>
       </defs>
       <use xlink:href="#DejaVuSans-30"/>
      </g>
     </g>
    </g>
    <g id="xtick_2">
     <g id="line2d_2">
      <g>
       <use xlink:href="#mfb8b4ddea5" x="126.230845" y="116.44" style="stroke: #000000; stroke-width: 0.8"/>
      </g>
     </g>
     <g id="text_2">
      <!-- 2000 -->
      <g transform="translate(113.505845 131.038437) scale(0.1 -0.1)">
       <defs>
        <path id="DejaVuSans-32" d="M 1228 531 
L 3431 531 
L 3431 0 
L 469 0 
L 469 531 
Q 828 903 1448 1529 
Q 2069 2156 2228 2338 
Q 2531 2678 2651 2914 
Q 2772 3150 2772 3378 
Q 2772 3750 2511 3984 
Q 2250 4219 1831 4219 
Q 1534 4219 1204 4116 
Q 875 4013 500 3803 
L 500 4441 
Q 881 4594 1212 4672 
Q 1544 4750 1819 4750 
Q 2544 4750 2975 4387 
Q 3406 4025 3406 3419 
Q 3406 3131 3298 2873 
Q 3191 2616 2906 2266 
Q 2828 2175 2409 1742 
Q 1991 1309 1228 531 
z
" transform="scale(0.015625)"/>
       </defs>
       <use xlink:href="#DejaVuSans-32"/>
       <use xlink:href="#DejaVuSans-30" x="63.623047"/>
       <use xlink:href="#DejaVuSans-30" x="127.246094"/>
       <use xlink:href="#DejaVuSans-30" x="190.869141"/>
      </g>
     </g>
    </g>
    <g id="xtick_3">
     <g id="line2d_3">
      <g>
       <use xlink:href="#mfb8b4ddea5" x="196.281691" y="116.44" style="stroke: #000000; stroke-width: 0.8"/>
      </g>
     </g>
     <g id="text_3">
      <!-- 4000 -->
      <g transform="translate(183.556691 131.038437) scale(0.1 -0.1)">
       <defs>
        <path id="DejaVuSans-34" d="M 2419 4116 
L 825 1625 
L 2419 1625 
L 2419 4116 
z
M 2253 4666 
L 3047 4666 
L 3047 1625 
L 3713 1625 
L 3713 1100 
L 3047 1100 
L 3047 0 
L 2419 0 
L 2419 1100 
L 313 1100 
L 313 1709 
L 2253 4666 
z
" transform="scale(0.015625)"/>
       </defs>
       <use xlink:href="#DejaVuSans-34"/>
       <use xlink:href="#DejaVuSans-30" x="63.623047"/>
       <use xlink:href="#DejaVuSans-30" x="127.246094"/>
       <use xlink:href="#DejaVuSans-30" x="190.869141"/>
      </g>
     </g>
    </g>
    <g id="xtick_4">
     <g id="line2d_4">
      <g>
       <use xlink:href="#mfb8b4ddea5" x="266.332536" y="116.44" style="stroke: #000000; stroke-width: 0.8"/>
      </g>
     </g>
     <g id="text_4">
      <!-- 6000 -->
      <g transform="translate(253.607536 131.038437) scale(0.1 -0.1)">
       <defs>
        <path id="DejaVuSans-36" d="M 2113 2584 
Q 1688 2584 1439 2293 
Q 1191 2003 1191 1497 
Q 1191 994 1439 701 
Q 1688 409 2113 409 
Q 2538 409 2786 701 
Q 3034 994 3034 1497 
Q 3034 2003 2786 2293 
Q 2538 2584 2113 2584 
z
M 3366 4563 
L 3366 3988 
Q 3128 4100 2886 4159 
Q 2644 4219 2406 4219 
Q 1781 4219 1451 3797 
Q 1122 3375 1075 2522 
Q 1259 2794 1537 2939 
Q 1816 3084 2150 3084 
Q 2853 3084 3261 2657 
Q 3669 2231 3669 1497 
Q 3669 778 3244 343 
Q 2819 -91 2113 -91 
Q 1303 -91 875 529 
Q 447 1150 447 2328 
Q 447 3434 972 4092 
Q 1497 4750 2381 4750 
Q 2619 4750 2861 4703 
Q 3103 4656 3366 4563 
z
" transform="scale(0.015625)"/>
       </defs>
       <use xlink:href="#DejaVuSans-36"/>
       <use xlink:href="#DejaVuSans-30" x="63.623047"/>
       <use xlink:href="#DejaVuSans-30" x="127.246094"/>
       <use xlink:href="#DejaVuSans-30" x="190.869141"/>
      </g>
     </g>
    </g>
    <g id="xtick_5">
     <g id="line2d_5">
      <g>
       <use xlink:href="#mfb8b4ddea5" x="336.383382" y="116.44" style="stroke: #000000; stroke-width: 0.8"/>
      </g>
     </g>
     <g id="text_5">
      <!-- 8000 -->
      <g transform="translate(323.658382 131.038437) scale(0.1 -0.1)">
       <defs>
        <path id="DejaVuSans-38" d="M 2034 2216 
Q 1584 2216 1326 1975 
Q 1069 1734 1069 1313 
Q 1069 891 1326 650 
Q 1584 409 2034 409 
Q 2484 409 2743 651 
Q 3003 894 3003 1313 
Q 3003 1734 2745 1975 
Q 2488 2216 2034 2216 
z
M 1403 2484 
Q 997 2584 770 2862 
Q 544 3141 544 3541 
Q 544 4100 942 4425 
Q 1341 4750 2034 4750 
Q 2731 4750 3128 4425 
Q 3525 4100 3525 3541 
Q 3525 3141 3298 2862 
Q 3072 2584 2669 2484 
Q 3125 2378 3379 2068 
Q 3634 1759 3634 1313 
Q 3634 634 3220 271 
Q 2806 -91 2034 -91 
Q 1263 -91 848 271 
Q 434 634 434 1313 
Q 434 1759 690 2068 
Q 947 2378 1403 2484 
z
M 1172 3481 
Q 1172 3119 1398 2916 
Q 1625 2713 2034 2713 
Q 2441 2713 2670 2916 
Q 2900 3119 2900 3481 
Q 2900 3844 2670 4047 
Q 2441 4250 2034 4250 
Q 1625 4250 1398 4047 
Q 1172 3844 1172 3481 
z
" transform="scale(0.015625)"/>
       </defs>
       <use xlink:href="#DejaVuSans-38"/>
       <use xlink:href="#DejaVuSans-30" x="63.623047"/>
       <use xlink:href="#DejaVuSans-30" x="127.246094"/>
       <use xlink:href="#DejaVuSans-30" x="190.869141"/>
      </g>
     </g>
    </g>
    <g id="xtick_6">
     <g id="line2d_6">
      <g>
       <use xlink:href="#mfb8b4ddea5" x="406.434227" y="116.44" style="stroke: #000000; stroke-width: 0.8"/>
      </g>
     </g>
     <g id="text_6">
      <!-- 10000 -->
      <g transform="translate(390.527977 131.038437) scale(0.1 -0.1)">
       <defs>
        <path id="DejaVuSans-31" d="M 794 531 
L 1825 531 
L 1825 4091 
L 703 3866 
L 703 4441 
L 1819 4666 
L 2450 4666 
L 2450 531 
L 3481 531 
L 3481 0 
L 794 0 
L 794 531 
z
" transform="scale(0.015625)"/>
       </defs>
       <use xlink:href="#DejaVuSans-31"/>
       <use xlink:href="#DejaVuSans-30" x="63.623047"/>
       <use xlink:href="#DejaVuSans-30" x="127.246094"/>
       <use xlink:href="#DejaVuSans-30" x="190.869141"/>
       <use xlink:href="#DejaVuSans-30" x="254.492188"/>
      </g>
     </g>
    </g>
    <g id="xtick_7">
     <g id="line2d_7">
      <g>
       <use xlink:href="#mfb8b4ddea5" x="476.485073" y="116.44" style="stroke: #000000; stroke-width: 0.8"/>
      </g>
     </g>
     <g id="text_7">
      <!-- 12000 -->
      <g transform="translate(460.578823 131.038437) scale(0.1 -0.1)">
       <use xlink:href="#DejaVuSans-31"/>
       <use xlink:href="#DejaVuSans-32" x="63.623047"/>
       <use xlink:href="#DejaVuSans-30" x="127.246094"/>
       <use xlink:href="#DejaVuSans-30" x="190.869141"/>
       <use xlink:href="#DejaVuSans-30" x="254.492188"/>
      </g>
     </g>
    </g>
    <g id="text_8">
     <!-- Time (ms) -->
     <g transform="translate(245.511496 144.716562) scale(0.1 -0.1)">
      <defs>
       <path id="DejaVuSans-54" d="M -19 4666 
L 3928 4666 
L 3928 4134 
L 2272 4134 
L 2272 0 
L 1638 0 
L 1638 4134 
L -19 4134 
L -19 4666 
z
" transform="scale(0.015625)"/>
       <path id="DejaVuSans-69" d="M 603 3500 
L 1178 3500 
L 1178 0 
L 603 0 
L 603 3500 
z
M 603 4863 
L 1178 4863 
L 1178 4134 
L 603 4134 
L 603 4863 
z
" transform="scale(0.015625)"/>
       <path id="DejaVuSans-6d" d="M 3328 2828 
Q 3544 3216 3844 3400 
Q 4144 3584 4550 3584 
Q 5097 3584 5394 3201 
Q 5691 2819 5691 2113 
L 5691 0 
L 5113 0 
L 5113 2094 
Q 5113 2597 4934 2840 
Q 4756 3084 4391 3084 
Q 3944 3084 3684 2787 
Q 3425 2491 3425 1978 
L 3425 0 
L 2847 0 
L 2847 2094 
Q 2847 2600 2669 2842 
Q 2491 3084 2119 3084 
Q 1678 3084 1418 2786 
Q 1159 2488 1159 1978 
L 1159 0 
L 581 0 
L 581 3500 
L 1159 3500 
L 1159 2956 
Q 1356 3278 1631 3431 
Q 1906 3584 2284 3584 
Q 2666 3584 2933 3390 
Q 3200 3197 3328 2828 
z
" transform="scale(0.015625)"/>
       <path id="DejaVuSans-65" d="M 3597 1894 
L 3597 1613 
L 953 1613 
Q 991 1019 1311 708 
Q 1631 397 2203 397 
Q 2534 397 2845 478 
Q 3156 559 3463 722 
L 3463 178 
Q 3153 47 2828 -22 
Q 2503 -91 2169 -91 
Q 1331 -91 842 396 
Q 353 884 353 1716 
Q 353 2575 817 3079 
Q 1281 3584 2069 3584 
Q 2775 3584 3186 3129 
Q 3597 2675 3597 1894 
z
M 3022 2063 
Q 3016 2534 2758 2815 
Q 2500 3097 2075 3097 
Q 1594 3097 1305 2825 
Q 1016 2553 972 2059 
L 3022 2063 
z
" transform="scale(0.015625)"/>
       <path id="DejaVuSans-20" transform="scale(0.015625)"/>
       <path id="DejaVuSans-28" d="M 1984 4856 
Q 1566 4138 1362 3434 
Q 1159 2731 1159 2009 
Q 1159 1288 1364 580 
Q 1569 -128 1984 -844 
L 1484 -844 
Q 1016 -109 783 600 
Q 550 1309 550 2009 
Q 550 2706 781 3412 
Q 1013 4119 1484 4856 
L 1984 4856 
z
" transform="scale(0.015625)"/>
       <path id="DejaVuSans-73" d="M 2834 3397 
L 2834 2853 
Q 2591 2978 2328 3040 
Q 2066 3103 1784 3103 
Q 1356 3103 1142 2972 
Q 928 2841 928 2578 
Q 928 2378 1081 2264 
Q 1234 2150 1697 2047 
L 1894 2003 
Q 2506 1872 2764 1633 
Q 3022 1394 3022 966 
Q 3022 478 2636 193 
Q 2250 -91 1575 -91 
Q 1294 -91 989 -36 
Q 684 19 347 128 
L 347 722 
Q 666 556 975 473 
Q 1284 391 1588 391 
Q 1994 391 2212 530 
Q 2431 669 2431 922 
Q 2431 1156 2273 1281 
Q 2116 1406 1581 1522 
L 1381 1569 
Q 847 1681 609 1914 
Q 372 2147 372 2553 
Q 372 3047 722 3315 
Q 1072 3584 1716 3584 
Q 2034 3584 2315 3537 
Q 2597 3491 2834 3397 
z
" transform="scale(0.015625)"/>
       <path id="DejaVuSans-29" d="M 513 4856 
L 1013 4856 
Q 1481 4119 1714 3412 
Q 1947 2706 1947 2009 
Q 1947 1309 1714 600 
Q 1481 -109 1013 -844 
L 513 -844 
Q 928 -128 1133 580 
Q 1338 1288 1338 2009 
Q 1338 2731 1133 3434 
Q 928 4138 513 4856 
z
" transform="scale(0.015625)"/>
      </defs>
      <use xlink:href="#DejaVuSans-54"/>
      <use xlink:href="#DejaVuSans-69" x="57.958984"/>
      <use xlink:href="#DejaVuSans-6d" x="85.742188"/>
      <use xlink:href="#DejaVuSans-65" x="183.154297"/>
      <use xlink:href="#DejaVuSans-20" x="244.677734"/>
      <use xlink:href="#DejaVuSans-28" x="276.464844"/>
      <use xlink:href="#DejaVuSans-6d" x="315.478516"/>
      <use xlink:href="#DejaVuSans-73" x="412.890625"/>
      <use xlink:href="#DejaVuSans-29" x="464.990234"/>
     </g>
    </g>
   </g>
   <g id="matplotlib.axis_2">
    <g id="ytick_1">
     <g id="line2d_8">
      <defs>
       <path id="mcceebdc7b2" d="M 0 0 
L -3.5 0 
" style="stroke: #000000; stroke-width: 0.8"/>
      </defs>
      <g>
       <use xlink:href="#mcceebdc7b2" x="56.18" y="111.638182" style="stroke: #000000; stroke-width: 0.8"/>
      </g>
     </g>
     <g id="text_9">
      <!-- −1.0 -->
      <g transform="translate(24.897188 115.437401) scale(0.1 -0.1)">
       <defs>
        <path id="DejaVuSans-2212" d="M 678 2272 
L 4684 2272 
L 4684 1741 
L 678 1741 
L 678 2272 
z
" transform="scale(0.015625)"/>
        <path id="DejaVuSans-2e" d="M 684 794 
L 1344 794 
L 1344 0 
L 684 0 
L 684 794 
z
" transform="scale(0.015625)"/>
       </defs>
       <use xlink:href="#DejaVuSans-2212"/>
       <use xlink:href="#DejaVuSans-31" x="83.789062"/>
       <use xlink:href="#DejaVuSans-2e" x="147.412109"/>
       <use xlink:href="#DejaVuSans-30" x="179.199219"/>
      </g>
     </g>
    </g>
    <g id="ytick_2">
     <g id="line2d_9">
      <g>
       <use xlink:href="#mcceebdc7b2" x="56.18" y="87.629091" style="stroke: #000000; stroke-width: 0.8"/>
      </g>
     </g>
     <g id="text_10">
      <!-- −0.5 -->
      <g transform="translate(24.897188 91.42831) scale(0.1 -0.1)">
       <defs>
        <path id="DejaVuSans-35" d="M 691 4666 
L 3169 4666 
L 3169 4134 
L 1269 4134 
L 1269 2991 
Q 1406 3038 1543 3061 
Q 1681 3084 1819 3084 
Q 2600 3084 3056 2656 
Q 3513 2228 3513 1497 
Q 3513 744 3044 326 
Q 2575 -91 1722 -91 
Q 1428 -91 1123 -41 
Q 819 9 494 109 
L 494 744 
Q 775 591 1075 516 
Q 1375 441 1709 441 
Q 2250 441 2565 725 
Q 2881 1009 2881 1497 
Q 2881 1984 2565 2268 
Q 2250 2553 1709 2553 
Q 1456 2553 1204 2497 
Q 953 2441 691 2322 
L 691 4666 
z
" transform="scale(0.015625)"/>
       </defs>
       <use xlink:href="#DejaVuSans-2212"/>
       <use xlink:href="#DejaVuSans-30" x="83.789062"/>
       <use xlink:href="#DejaVuSans-2e" x="147.412109"/>
       <use xlink:href="#DejaVuSans-35" x="179.199219"/>
      </g>
     </g>
    </g>
    <g id="ytick_3">
     <g id="line2d_10">
      <g>
       <use xlink:href="#mcceebdc7b2" x="56.18" y="63.62" style="stroke: #000000; stroke-width: 0.8"/>
      </g>
     </g>
     <g id="text_11">
      <!-- 0.0 -->
      <g transform="translate(33.276875 67.419219) scale(0.1 -0.1)">
       <use xlink:href="#DejaVuSans-30"/>
       <use xlink:href="#DejaVuSans-2e" x="63.623047"/>
       <use xlink:href="#DejaVuSans-30" x="95.410156"/>
      </g>
     </g>
    </g>
    <g id="ytick_4">
     <g id="line2d_11">
      <g>
       <use xlink:href="#mcceebdc7b2" x="56.18" y="39.610909" style="stroke: #000000; stroke-width: 0.8"/>
      </g>
     </g>
     <g id="text_12">
      <!-- 0.5 -->
      <g transform="translate(33.276875 43.410128) scale(0.1 -0.1)">
       <use xlink:href="#DejaVuSans-30"/>
       <use xlink:href="#DejaVuSans-2e" x="63.623047"/>
       <use xlink:href="#DejaVuSans-35" x="95.410156"/>
      </g>
     </g>
    </g>
    <g id="ytick_5">
     <g id="line2d_12">
      <g>
       <use xlink:href="#mcceebdc7b2" x="56.18" y="15.601818" style="stroke: #000000; stroke-width: 0.8"/>
      </g>
     </g>
     <g id="text_13">
      <!-- 1.0 -->
      <g transform="translate(33.276875 19.401037) scale(0.1 -0.1)">
       <use xlink:href="#DejaVuSans-31"/>
       <use xlink:href="#DejaVuSans-2e" x="63.623047"/>
       <use xlink:href="#DejaVuSans-30" x="95.410156"/>
      </g>
     </g>
    </g>
    <g id="text_14">
     <!-- X-Axis Value -->
     <g transform="translate(18.8175 94.180156) rotate(-90) scale(0.1 -0.1)">
      <defs>
       <path id="DejaVuSans-58" d="M 403 4666 
L 1081 4666 
L 2241 2931 
L 3406 4666 
L 4084 4666 
L 2584 2425 
L 4184 0 
L 3506 0 
L 2194 1984 
L 872 0 
L 191 0 
L 1856 2491 
L 403 4666 
z
" transform="scale(0.015625)"/>
       <path id="DejaVuSans-2d" d="M 313 2009 
L 1997 2009 
L 1997 1497 
L 313 1497 
L 313 2009 
z
" transform="scale(0.015625)"/>
       <path id="DejaVuSans-41" d="M 2188 4044 
L 1331 1722 
L 3047 1722 
L 2188 4044 
z
M 1831 4666 
L 2547 4666 
L 4325 0 
L 3669 0 
L 3244 1197 
L 1141 1197 
L 716 0 
L 50 0 
L 1831 4666 
z
" transform="scale(0.015625)"/>
       <path id="DejaVuSans-78" d="M 3513 3500 
L 2247 1797 
L 3578 0 
L 2900 0 
L 1881 1375 
L 863 0 
L 184 0 
L 1544 1831 
L 300 3500 
L 978 3500 
L 1906 2253 
L 2834 3500 
L 3513 3500 
z
" transform="scale(0.015625)"/>
       <path id="DejaVuSans-56" d="M 1831 0 
L 50 4666 
L 709 4666 
L 2188 738 
L 3669 4666 
L 4325 4666 
L 2547 0 
L 1831 0 
z
" transform="scale(0.015625)"/>
       <path id="DejaVuSans-61" d="M 2194 1759 
Q 1497 1759 1228 1600 
Q 959 1441 959 1056 
Q 959 750 1161 570 
Q 1363 391 1709 391 
Q 2188 391 2477 730 
Q 2766 1069 2766 1631 
L 2766 1759 
L 2194 1759 
z
M 3341 1997 
L 3341 0 
L 2766 0 
L 2766 531 
Q 2569 213 2275 61 
Q 1981 -91 1556 -91 
Q 1019 -91 701 211 
Q 384 513 384 1019 
Q 384 1609 779 1909 
Q 1175 2209 1959 2209 
L 2766 2209 
L 2766 2266 
Q 2766 2663 2505 2880 
Q 2244 3097 1772 3097 
Q 1472 3097 1187 3025 
Q 903 2953 641 2809 
L 641 3341 
Q 956 3463 1253 3523 
Q 1550 3584 1831 3584 
Q 2591 3584 2966 3190 
Q 3341 2797 3341 1997 
z
" transform="scale(0.015625)"/>
       <path id="DejaVuSans-6c" d="M 603 4863 
L 1178 4863 
L 1178 0 
L 603 0 
L 603 4863 
z
" transform="scale(0.015625)"/>
       <path id="DejaVuSans-75" d="M 544 1381 
L 544 3500 
L 1119 3500 
L 1119 1403 
Q 1119 906 1312 657 
Q 1506 409 1894 409 
Q 2359 409 2629 706 
Q 2900 1003 2900 1516 
L 2900 3500 
L 3475 3500 
L 3475 0 
L 2900 0 
L 2900 538 
Q 2691 219 2414 64 
Q 2138 -91 1772 -91 
Q 1169 -91 856 284 
Q 544 659 544 1381 
z
M 1991 3584 
L 1991 3584 
z
" transform="scale(0.015625)"/>
      </defs>
      <use xlink:href="#DejaVuSans-58"/>
      <use xlink:href="#DejaVuSans-2d" x="63.505859"/>
      <use xlink:href="#DejaVuSans-41" x="97.339844"/>
      <use xlink:href="#DejaVuSans-78" x="165.748047"/>
      <use xlink:href="#DejaVuSans-69" x="224.927734"/>
      <use xlink:href="#DejaVuSans-73" x="252.710938"/>
      <use xlink:href="#DejaVuSans-20" x="304.810547"/>
      <use xlink:href="#DejaVuSans-56" x="336.597656"/>
      <use xlink:href="#DejaVuSans-61" x="397.255859"/>
      <use xlink:href="#DejaVuSans-6c" x="458.535156"/>
      <use xlink:href="#DejaVuSans-75" x="486.318359"/>
      <use xlink:href="#DejaVuSans-65" x="549.697266"/>
     </g>
    </g>
   </g>
   <g id="line2d_13">
    <path d="M 56.18 65.060545 
L 56.880508 65.060545 
L 57.230763 64.580364 
L 57.581017 65.060545 
L 60.032797 65.060545 
L 60.383051 64.580364 
L 60.733305 65.060545 
L 61.083559 65.060545 
L 61.433813 64.580364 
L 61.784068 65.060545 
L 64.235847 65.060545 
L 64.586101 64.580364 
L 64.936356 65.060545 
L 65.28661 65.060545 
L 65.636864 64.580364 
L 65.987118 65.060545 
L 72.641949 65.060545 
L 72.992203 64.580364 
L 73.342457 65.060545 
L 76.494745 65.060545 
L 76.844999 64.580364 
L 77.195254 65.060545 
L 77.545508 64.580364 
L 77.895762 65.060545 
L 78.946525 65.060545 
L 79.296779 64.580364 
L 79.647033 65.060545 
L 79.997287 64.580364 
L 80.347542 65.060545 
L 85.251101 65.060545 
L 85.601355 64.580364 
L 85.951609 65.060545 
L 87.352626 65.060545 
L 87.70288 64.580364 
L 88.053135 64.580364 
L 88.403389 65.060545 
L 95.058219 65.060545 
L 95.408473 64.580364 
L 95.758728 65.060545 
L 96.80949 65.060545 
L 97.159745 65.540727 
L 97.509999 65.060545 
L 104.164829 65.060545 
L 104.515083 64.580364 
L 104.865338 65.060545 
L 105.565846 65.060545 
L 105.9161 64.580364 
L 106.266355 65.060545 
L 106.616609 65.060545 
L 106.966863 64.580364 
L 107.317117 65.060545 
L 108.36788 65.060545 
L 108.718134 64.580364 
L 109.068388 65.060545 
L 109.768897 65.060545 
L 110.119151 64.580364 
L 110.469405 65.060545 
L 111.870422 65.060545 
L 112.220676 64.580364 
L 112.570931 65.060545 
L 115.723219 65.060545 
L 116.073473 64.580364 
L 116.423727 65.060545 
L 124.12932 65.060545 
L 124.479574 65.540727 
L 124.829829 65.060545 
L 127.631862 65.060545 
L 127.982117 63.62 
L 128.332371 65.060545 
L 128.682625 65.060545 
L 129.032879 64.580364 
L 129.383134 65.060545 
L 131.834913 65.060545 
L 132.185167 65.540727 
L 132.535422 65.060545 
L 133.586184 65.060545 
L 133.936438 64.580364 
L 134.286693 65.060545 
L 135.337455 65.060545 
L 135.68771 66.020909 
L 136.037964 65.060545 
L 136.388218 65.060545 
L 136.738472 64.580364 
L 137.088727 64.580364 
L 137.438981 65.060545 
L 140.591269 65.060545 
L 140.941523 64.580364 
L 141.291777 65.060545 
L 142.692794 65.060545 
L 143.043048 65.540727 
L 143.393303 65.060545 
L 144.093811 65.060545 
L 144.444065 64.580364 
L 144.79432 65.060545 
L 152.850167 65.060545 
L 153.200421 64.580364 
L 153.550675 65.060545 
L 156.702963 65.060545 
L 157.053217 64.580364 
L 157.403472 65.060545 
L 158.454234 65.060545 
L 158.804489 68.421818 
L 159.154743 65.060545 
L 159.504997 64.580364 
L 159.855251 65.060545 
L 166.860336 65.060545 
L 167.21059 64.580364 
L 167.560844 65.060545 
L 170.362878 65.060545 
L 170.713132 64.580364 
L 171.063387 64.580364 
L 171.413641 65.060545 
L 172.814658 65.060545 
L 173.164912 64.580364 
L 174.565929 54.976727 
L 174.916183 54.016364 
L 175.266437 52.575818 
L 175.616692 51.615455 
L 175.966946 48.734364 
L 176.3172 47.293818 
L 176.667454 46.813636 
L 177.017708 45.853273 
L 178.068471 40.571273 
L 178.418725 40.091091 
L 179.119234 40.091091 
L 180.520251 38.170364 
L 180.870505 38.170364 
L 181.571013 37.21 
L 181.921268 34.809091 
L 182.97203 30.487455 
L 183.322285 30.007273 
L 183.672539 28.566727 
L 184.022793 28.086545 
L 184.373047 26.646 
L 184.723301 24.245091 
L 185.073556 24.245091 
L 185.774064 23.284727 
L 186.124318 23.284727 
L 186.474573 22.804545 
L 186.824827 22.804545 
L 187.175081 22.324364 
L 188.225844 19.443273 
L 188.576098 17.042364 
L 188.926352 16.082 
L 191.728386 16.082 
L 192.07864 15.601818 
L 192.428894 16.082 
L 193.129403 16.082 
L 193.479657 15.601818 
L 195.230928 15.601818 
L 195.581183 16.082 
L 195.931437 15.601818 
L 196.281691 15.601818 
L 196.631945 16.082 
L 197.332454 16.082 
L 197.682708 15.601818 
L 198.733471 15.601818 
L 199.083725 16.082 
L 199.433979 15.601818 
L 199.784233 16.082 
L 200.134487 16.082 
L 200.484742 15.601818 
L 200.834996 15.601818 
L 201.18525 16.082 
L 201.535504 15.601818 
L 201.885759 15.601818 
L 202.236013 16.082 
L 202.586267 15.601818 
L 202.936521 16.082 
L 205.038047 16.082 
L 205.388301 16.562182 
L 205.738555 17.522545 
L 206.088809 16.562182 
L 206.439064 17.042364 
L 206.789318 18.482909 
L 207.84008 24.245091 
L 208.190335 21.844182 
L 208.540589 23.284727 
L 208.890843 22.324364 
L 209.241097 22.324364 
L 209.591352 21.844182 
L 209.941606 22.324364 
L 210.29186 23.764909 
L 210.642114 24.245091 
L 210.992369 22.324364 
L 211.342623 24.725273 
L 212.393385 23.284727 
L 212.74364 24.245091 
L 213.093894 24.245091 
L 213.444148 23.284727 
L 213.794402 24.245091 
L 214.494911 24.245091 
L 214.845165 23.764909 
L 215.195419 20.883818 
L 215.545673 25.685636 
L 216.246182 22.804545 
L 216.596436 20.403636 
L 216.94669 23.764909 
L 217.296945 22.324364 
L 217.647199 22.324364 
L 217.997453 20.883818 
L 218.347707 19.923455 
L 218.697962 19.443273 
L 219.048216 19.443273 
L 219.39847 19.923455 
L 220.098978 19.923455 
L 220.449233 19.443273 
L 220.799487 19.923455 
L 221.149741 19.923455 
L 221.499995 19.443273 
L 221.85025 19.923455 
L 222.200504 22.324364 
L 222.550758 20.403636 
L 222.901012 22.324364 
L 223.251266 18.963091 
L 223.601521 21.364 
L 223.951775 19.443273 
L 224.652283 18.482909 
L 225.002538 18.963091 
L 225.352792 18.482909 
L 226.0533 18.482909 
L 226.403555 18.002727 
L 226.753809 18.002727 
L 227.104063 18.482909 
L 227.454317 18.002727 
L 227.804571 18.963091 
L 228.50508 18.963091 
L 228.855334 18.482909 
L 229.205588 18.482909 
L 229.555843 18.002727 
L 230.256351 18.002727 
L 230.606605 17.522545 
L 230.956859 18.002727 
L 231.307114 17.042364 
L 231.657368 17.042364 
L 232.357876 16.082 
L 233.058385 16.082 
L 233.408639 16.562182 
L 233.758893 16.082 
L 235.860419 16.082 
L 236.210673 15.601818 
L 236.560927 16.082 
L 236.911181 15.601818 
L 237.261436 15.601818 
L 237.61169 16.082 
L 237.961944 16.082 
L 238.312198 15.601818 
L 238.662452 16.082 
L 239.362961 16.082 
L 239.713215 15.601818 
L 242.865503 15.601818 
L 243.215757 16.082 
L 243.566012 15.601818 
L 243.916266 15.601818 
L 244.26652 16.082 
L 244.616774 15.601818 
L 244.967029 15.601818 
L 245.317283 16.082 
L 245.667537 15.601818 
L 246.7183 15.601818 
L 247.068554 16.082 
L 247.418808 15.601818 
L 248.469571 15.601818 
L 249.170079 16.562182 
L 249.520334 16.082 
L 253.37313 16.082 
L 253.723384 16.562182 
L 254.073638 16.082 
L 255.124401 16.082 
L 255.474655 16.562182 
L 255.82491 16.562182 
L 256.175164 18.482909 
L 256.525418 19.443273 
L 257.225927 20.403636 
L 257.576181 20.403636 
L 258.276689 21.364 
L 258.626943 22.324364 
L 259.327452 23.284727 
L 260.02796 23.284727 
L 260.378215 23.764909 
L 260.728469 23.764909 
L 261.428977 24.725273 
L 261.779231 27.126182 
L 262.129486 28.086545 
L 262.47974 28.566727 
L 263.530503 33.848727 
L 263.880757 34.809091 
L 264.231011 37.21 
L 264.93152 38.170364 
L 265.281774 38.170364 
L 265.982282 40.091091 
L 266.332536 40.091091 
L 267.033045 41.051455 
L 267.733553 45.373091 
L 268.083808 47.293818 
L 268.784316 49.214545 
L 269.13457 51.135273 
L 269.484824 52.095636 
L 269.835079 52.575818 
L 270.185333 52.575818 
L 270.885841 54.496545 
L 271.58635 55.456909 
L 271.936604 57.377636 
L 272.286858 58.338 
L 272.987367 59.298364 
L 273.337621 60.738909 
L 273.687875 61.219091 
L 274.388384 64.580364 
L 274.738638 65.060545 
L 283.144739 65.060545 
L 283.494994 65.540727 
L 283.845248 67.461455 
L 284.195502 70.342545 
L 284.545756 71.783091 
L 284.89601 72.743455 
L 285.246265 73.223636 
L 285.946773 75.144364 
L 286.997536 76.584909 
L 287.34779 78.025455 
L 287.698044 78.025455 
L 288.398553 78.985818 
L 288.748807 80.426364 
L 289.099061 80.906545 
L 289.449315 81.866909 
L 289.79957 82.347091 
L 290.149824 83.307455 
L 290.500078 85.228182 
L 291.550841 86.668727 
L 292.601603 89.549818 
L 292.951858 90.03 
L 293.302112 90.990364 
L 293.652366 90.990364 
L 294.352875 91.950727 
L 294.703129 93.391273 
L 295.053383 93.871455 
L 295.403637 94.831818 
L 295.753892 95.312 
L 296.104146 96.272364 
L 296.4544 96.272364 
L 296.804654 96.752545 
L 297.154908 96.752545 
L 297.505163 97.712909 
L 298.205671 101.074182 
L 298.90618 102.034545 
L 299.606688 104.915636 
L 299.956942 105.876 
L 300.307197 106.356182 
L 300.657451 107.316545 
L 301.007705 109.237273 
L 301.357959 109.717455 
L 301.708213 111.638182 
L 348.992534 111.638182 
L 349.342788 110.677818 
L 349.693043 109.237273 
L 350.393551 104.915636 
L 350.743805 103.475091 
L 351.794568 97.712909 
L 352.144822 96.752545 
L 352.845331 95.792182 
L 353.545839 93.871455 
L 353.896093 91.950727 
L 354.246348 90.990364 
L 354.596602 90.990364 
L 355.29711 89.069636 
L 355.647364 88.589455 
L 356.347873 86.668727 
L 356.698127 85.228182 
L 357.048381 83.307455 
L 357.398636 82.347091 
L 357.74889 81.866909 
L 358.449398 78.985818 
L 359.149907 77.065091 
L 359.850415 74.184 
L 360.901178 71.302909 
L 361.601686 68.421818 
L 361.951941 66.501091 
L 362.302195 65.540727 
L 362.652449 65.060545 
L 375.261601 65.060545 
L 375.611855 64.580364 
L 375.96211 65.060545 
L 376.312364 65.060545 
L 376.662618 64.580364 
L 377.012872 65.060545 
L 377.363127 65.060545 
L 377.713381 64.580364 
L 378.063635 65.060545 
L 379.114398 65.060545 
L 379.464652 64.580364 
L 380.16516 64.580364 
L 380.515415 65.060545 
L 383.317448 65.060545 
L 383.667703 64.580364 
L 384.017957 65.060545 
L 384.368211 65.060545 
L 384.718465 64.580364 
L 385.06872 65.060545 
L 389.972279 65.060545 
L 390.322533 64.580364 
L 390.672787 65.060545 
L 391.373296 65.060545 
L 391.72355 64.580364 
L 392.073804 65.060545 
L 393.825075 65.060545 
L 394.175329 64.580364 
L 394.525584 65.060545 
L 394.875838 65.060545 
L 395.226092 64.580364 
L 395.576346 65.060545 
L 399.779397 65.060545 
L 400.129651 63.62 
L 400.479906 65.060545 
L 406.434227 65.060545 
L 406.784482 64.580364 
L 407.134736 65.060545 
L 412.038295 65.060545 
L 412.388549 64.100182 
L 412.738803 65.060545 
L 415.190583 65.060545 
L 415.540837 65.540727 
L 415.891092 65.060545 
L 419.743888 65.060545 
L 420.094142 64.580364 
L 420.444397 65.060545 
L 423.596685 65.060545 
L 423.946939 64.580364 
L 424.297193 65.060545 
L 427.099227 65.060545 
L 427.449481 66.020909 
L 427.799735 61.699273 
L 428.14999 65.060545 
L 436.556091 65.060545 
L 436.906345 65.540727 
L 437.256599 65.060545 
L 438.307362 65.060545 
L 438.657616 64.580364 
L 439.007871 65.060545 
L 439.358125 64.580364 
L 439.708379 65.060545 
L 441.109396 65.060545 
L 441.45965 64.580364 
L 441.809904 65.060545 
L 446.012955 65.060545 
L 446.363209 64.580364 
L 446.713464 65.060545 
L 447.063718 64.580364 
L 447.413972 65.060545 
L 448.11448 65.060545 
L 448.464735 64.580364 
L 448.814989 65.060545 
L 450.56626 65.060545 
L 450.916514 65.540727 
L 451.266769 65.060545 
L 458.271853 65.060545 
L 458.622107 65.540727 
L 458.972362 65.060545 
L 484.54092 65.060545 
L 484.891174 65.540727 
L 485.241429 65.060545 
L 485.241429 65.060545 
" clip-path="url(#p312d339f0e)" style="fill: none; stroke: #1f77b4; stroke-width: 1.5; stroke-linecap: square"/>
   </g>
   <g id="line2d_14">
    <path d="M 56.18 63.62 
L 485.241429 63.62 
" clip-path="url(#p312d339f0e)" style="fill: none; stroke-dasharray: 2.96,1.28; stroke-dashoffset: 0; stroke: #808080; stroke-width: 0.8"/>
   </g>
   <g id="patch_3">
    <path d="M 56.18 116.44 
L 56.18 10.8 
" style="fill: none; stroke: #000000; stroke-width: 0.8; stroke-linejoin: miter; stroke-linecap: square"/>
   </g>
   <g id="patch_4">
    <path d="M 56.18 116.44 
L 485.241429 116.44 
" style="fill: none; stroke: #000000; stroke-width: 0.8; stroke-linejoin: miter; stroke-linecap: square"/>
   </g>
  </g>
  <g id="axes_2">
   <g id="patch_5">
    <path d="M 56.18 264.04 
L 485.241429 264.04 
L 485.241429 158.4 
L 56.18 158.4 
z
" style="fill: #ffffff"/>
   </g>
   <g id="matplotlib.axis_3">
    <g id="xtick_8">
     <g id="line2d_15">
      <g>
       <use xlink:href="#mfb8b4ddea5" x="56.18" y="264.04" style="stroke: #000000; stroke-width: 0.8"/>
      </g>
     </g>
     <g id="text_15">
      <!-- 0 -->
      <g transform="translate(52.99875 278.638438) scale(0.1 -0.1)">
       <use xlink:href="#DejaVuSans-30"/>
      </g>
     </g>
    </g>
    <g id="xtick_9">
     <g id="line2d_16">
      <g>
       <use xlink:href="#mfb8b4ddea5" x="126.230845" y="264.04" style="stroke: #000000; stroke-width: 0.8"/>
      </g>
     </g>
     <g id="text_16">
      <!-- 2000 -->
      <g transform="translate(113.505845 278.638438) scale(0.1 -0.1)">
       <use xlink:href="#DejaVuSans-32"/>
       <use xlink:href="#DejaVuSans-30" x="63.623047"/>
       <use xlink:href="#DejaVuSans-30" x="127.246094"/>
       <use xlink:href="#DejaVuSans-30" x="190.869141"/>
      </g>
     </g>
    </g>
    <g id="xtick_10">
     <g id="line2d_17">
      <g>
       <use xlink:href="#mfb8b4ddea5" x="196.281691" y="264.04" style="stroke: #000000; stroke-width: 0.8"/>
      </g>
     </g>
     <g id="text_17">
      <!-- 4000 -->
      <g transform="translate(183.556691 278.638438) scale(0.1 -0.1)">
       <use xlink:href="#DejaVuSans-34"/>
       <use xlink:href="#DejaVuSans-30" x="63.623047"/>
       <use xlink:href="#DejaVuSans-30" x="127.246094"/>
       <use xlink:href="#DejaVuSans-30" x="190.869141"/>
      </g>
     </g>
    </g>
    <g id="xtick_11">
     <g id="line2d_18">
      <g>
       <use xlink:href="#mfb8b4ddea5" x="266.332536" y="264.04" style="stroke: #000000; stroke-width: 0.8"/>
      </g>
     </g>
     <g id="text_18">
      <!-- 6000 -->
      <g transform="translate(253.607536 278.638438) scale(0.1 -0.1)">
       <use xlink:href="#DejaVuSans-36"/>
       <use xlink:href="#DejaVuSans-30" x="63.623047"/>
       <use xlink:href="#DejaVuSans-30" x="127.246094"/>
       <use xlink:href="#DejaVuSans-30" x="190.869141"/>
      </g>
     </g>
    </g>
    <g id="xtick_12">
     <g id="line2d_19">
      <g>
       <use xlink:href="#mfb8b4ddea5" x="336.383382" y="264.04" style="stroke: #000000; stroke-width: 0.8"/>
      </g>
     </g>
     <g id="text_19">
      <!-- 8000 -->
      <g transform="translate(323.658382 278.638438) scale(0.1 -0.1)">
       <use xlink:href="#DejaVuSans-38"/>
       <use xlink:href="#DejaVuSans-30" x="63.623047"/>
       <use xlink:href="#DejaVuSans-30" x="127.246094"/>
       <use xlink:href="#DejaVuSans-30" x="190.869141"/>
      </g>
     </g>
    </g>
    <g id="xtick_13">
     <g id="line2d_20">
      <g>
       <use xlink:href="#mfb8b4ddea5" x="406.434227" y="264.04" style="stroke: #000000; stroke-width: 0.8"/>
      </g>
     </g>
     <g id="text_20">
      <!-- 10000 -->
      <g transform="translate(390.527977 278.638438) scale(0.1 -0.1)">
       <use xlink:href="#DejaVuSans-31"/>
       <use xlink:href="#DejaVuSans-30" x="63.623047"/>
       <use xlink:href="#DejaVuSans-30" x="127.246094"/>
       <use xlink:href="#DejaVuSans-30" x="190.869141"/>
       <use xlink:href="#DejaVuSans-30" x="254.492188"/>
      </g>
     </g>
    </g>
    <g id="xtick_14">
     <g id="line2d_21">
      <g>
       <use xlink:href="#mfb8b4ddea5" x="476.485073" y="264.04" style="stroke: #000000; stroke-width: 0.8"/>
      </g>
     </g>
     <g id="text_21">
      <!-- 12000 -->
      <g transform="translate(460.578823 278.638438) scale(0.1 -0.1)">
       <use xlink:href="#DejaVuSans-31"/>
       <use xlink:href="#DejaVuSans-32" x="63.623047"/>
       <use xlink:href="#DejaVuSans-30" x="127.246094"/>
       <use xlink:href="#DejaVuSans-30" x="190.869141"/>
       <use xlink:href="#DejaVuSans-30" x="254.492188"/>
      </g>
     </g>
    </g>
    <g id="text_22">
     <!-- Time (ms) -->
     <g transform="translate(245.511496 292.316563) scale(0.1 -0.1)">
      <use xlink:href="#DejaVuSans-54"/>
      <use xlink:href="#DejaVuSans-69" x="57.958984"/>
      <use xlink:href="#DejaVuSans-6d" x="85.742188"/>
      <use xlink:href="#DejaVuSans-65" x="183.154297"/>
      <use xlink:href="#DejaVuSans-20" x="244.677734"/>
      <use xlink:href="#DejaVuSans-28" x="276.464844"/>
      <use xlink:href="#DejaVuSans-6d" x="315.478516"/>
      <use xlink:href="#DejaVuSans-73" x="412.890625"/>
      <use xlink:href="#DejaVuSans-29" x="464.990234"/>
     </g>
    </g>
   </g>
   <g id="matplotlib.axis_4">
    <g id="ytick_6">
     <g id="line2d_22">
      <g>
       <use xlink:href="#mcceebdc7b2" x="56.18" y="259.238182" style="stroke: #000000; stroke-width: 0.8"/>
      </g>
     </g>
     <g id="text_23">
      <!-- −1.0 -->
      <g transform="translate(24.897188 263.037401) scale(0.1 -0.1)">
       <use xlink:href="#DejaVuSans-2212"/>
       <use xlink:href="#DejaVuSans-31" x="83.789062"/>
       <use xlink:href="#DejaVuSans-2e" x="147.412109"/>
       <use xlink:href="#DejaVuSans-30" x="179.199219"/>
      </g>
     </g>
    </g>
    <g id="ytick_7">
     <g id="line2d_23">
      <g>
       <use xlink:href="#mcceebdc7b2" x="56.18" y="235.229091" style="stroke: #000000; stroke-width: 0.8"/>
      </g>
     </g>
     <g id="text_24">
      <!-- −0.5 -->
      <g transform="translate(24.897188 239.02831) scale(0.1 -0.1)">
       <use xlink:href="#DejaVuSans-2212"/>
       <use xlink:href="#DejaVuSans-30" x="83.789062"/>
       <use xlink:href="#DejaVuSans-2e" x="147.412109"/>
       <use xlink:href="#DejaVuSans-35" x="179.199219"/>
      </g>
     </g>
    </g>
    <g id="ytick_8">
     <g id="line2d_24">
      <g>
       <use xlink:href="#mcceebdc7b2" x="56.18" y="211.22" style="stroke: #000000; stroke-width: 0.8"/>
      </g>
     </g>
     <g id="text_25">
      <!-- 0.0 -->
      <g transform="translate(33.276875 215.019219) scale(0.1 -0.1)">
       <use xlink:href="#DejaVuSans-30"/>
       <use xlink:href="#DejaVuSans-2e" x="63.623047"/>
       <use xlink:href="#DejaVuSans-30" x="95.410156"/>
      </g>
     </g>
    </g>
    <g id="ytick_9">
     <g id="line2d_25">
      <g>
       <use xlink:href="#mcceebdc7b2" x="56.18" y="187.210909" style="stroke: #000000; stroke-width: 0.8"/>
      </g>
     </g>
     <g id="text_26">
      <!-- 0.5 -->
      <g transform="translate(33.276875 191.010128) scale(0.1 -0.1)">
       <use xlink:href="#DejaVuSans-30"/>
       <use xlink:href="#DejaVuSans-2e" x="63.623047"/>
       <use xlink:href="#DejaVuSans-35" x="95.410156"/>
      </g>
     </g>
    </g>
    <g id="ytick_10">
     <g id="line2d_26">
      <g>
       <use xlink:href="#mcceebdc7b2" x="56.18" y="163.201818" style="stroke: #000000; stroke-width: 0.8"/>
      </g>
     </g>
     <g id="text_27">
      <!-- 1.0 -->
      <g transform="translate(33.276875 167.001037) scale(0.1 -0.1)">
       <use xlink:href="#DejaVuSans-31"/>
       <use xlink:href="#DejaVuSans-2e" x="63.623047"/>
       <use xlink:href="#DejaVuSans-30" x="95.410156"/>
      </g>
     </g>
    </g>
    <g id="text_28">
     <!-- Y-Axis Value -->
     <g transform="translate(18.8175 241.065313) rotate(-90) scale(0.1 -0.1)">
      <defs>
       <path id="DejaVuSans-59" d="M -13 4666 
L 666 4666 
L 1959 2747 
L 3244 4666 
L 3922 4666 
L 2272 2222 
L 2272 0 
L 1638 0 
L 1638 2222 
L -13 4666 
z
" transform="scale(0.015625)"/>
      </defs>
      <use xlink:href="#DejaVuSans-59"/>
      <use xlink:href="#DejaVuSans-2d" x="49.208984"/>
      <use xlink:href="#DejaVuSans-41" x="83.042969"/>
      <use xlink:href="#DejaVuSans-78" x="151.451172"/>
      <use xlink:href="#DejaVuSans-69" x="210.630859"/>
      <use xlink:href="#DejaVuSans-73" x="238.414062"/>
      <use xlink:href="#DejaVuSans-20" x="290.513672"/>
      <use xlink:href="#DejaVuSans-56" x="322.300781"/>
      <use xlink:href="#DejaVuSans-61" x="382.958984"/>
      <use xlink:href="#DejaVuSans-6c" x="444.238281"/>
      <use xlink:href="#DejaVuSans-75" x="472.021484"/>
      <use xlink:href="#DejaVuSans-65" x="535.400391"/>
     </g>
    </g>
   </g>
   <g id="line2d_27">
    <path d="M 56.18 209.779455 
L 57.581017 209.779455 
L 57.931271 210.739818 
L 58.281525 209.779455 
L 104.164829 209.779455 
L 104.515083 209.299273 
L 104.865338 209.779455 
L 136.388218 209.779455 
L 137.088727 205.457818 
L 137.438981 204.017273 
L 139.190252 193.933455 
L 139.540506 190.092 
L 139.89076 188.171273 
L 140.591269 181.928909 
L 140.941523 179.528 
L 141.291777 175.206364 
L 141.642031 174.246 
L 142.34254 164.642364 
L 142.692794 163.682 
L 145.144574 163.682 
L 145.494828 164.162182 
L 145.845082 163.682 
L 146.195336 163.682 
L 146.545591 163.201818 
L 146.895845 163.201818 
L 147.246099 163.682 
L 147.596353 163.201818 
L 147.946608 163.682 
L 148.296862 163.682 
L 148.647116 163.201818 
L 148.99737 163.682 
L 149.697879 163.682 
L 150.048133 163.201818 
L 150.398387 163.682 
L 150.748641 163.682 
L 151.098896 164.162182 
L 151.799404 163.201818 
L 152.149658 163.682 
L 153.900929 163.682 
L 154.251184 163.201818 
L 154.601438 163.201818 
L 154.951692 163.682 
L 155.301946 163.682 
L 155.652201 163.201818 
L 156.002455 163.682 
L 161.256268 163.682 
L 161.606522 163.201818 
L 161.956777 163.682 
L 165.459319 163.682 
L 165.809573 164.162182 
L 166.159827 163.682 
L 166.510082 163.682 
L 166.860336 164.162182 
L 167.21059 163.682 
L 167.560844 164.162182 
L 167.911099 163.682 
L 168.961861 163.682 
L 169.312115 163.201818 
L 169.66237 163.682 
L 170.012624 163.201818 
L 170.362878 164.162182 
L 171.063387 163.201818 
L 171.413641 163.682 
L 173.164912 163.682 
L 173.515166 163.201818 
L 173.86542 163.201818 
L 174.215675 163.682 
L 174.565929 163.201818 
L 174.916183 163.682 
L 175.966946 163.682 
L 176.3172 163.201818 
L 176.667454 163.682 
L 177.718217 163.682 
L 178.068471 163.201818 
L 178.418725 163.201818 
L 178.76898 163.682 
L 179.119234 163.201818 
L 179.469488 163.201818 
L 179.819742 163.682 
L 180.169997 163.201818 
L 180.520251 163.682 
L 186.474573 163.682 
L 186.824827 163.201818 
L 187.175081 163.682 
L 192.779149 163.682 
L 193.129403 163.201818 
L 193.479657 163.682 
L 193.829911 163.201818 
L 194.180166 163.682 
L 194.53042 163.201818 
L 194.880674 163.201818 
L 195.230928 163.682 
L 195.581183 163.682 
L 195.931437 163.201818 
L 196.281691 163.682 
L 196.631945 163.201818 
L 196.982199 164.162182 
L 198.032962 173.765818 
L 198.733471 174.726182 
L 199.083725 176.166727 
L 199.433979 177.127091 
L 199.784233 180.008182 
L 200.134487 181.448727 
L 200.484742 181.928909 
L 200.834996 183.369455 
L 201.535504 186.730727 
L 201.885759 188.171273 
L 202.236013 189.131636 
L 202.936521 192.012727 
L 203.987284 194.893818 
L 204.337538 194.893818 
L 204.687792 195.854182 
L 205.388301 196.814545 
L 205.738555 197.774909 
L 206.789318 199.215455 
L 207.139572 200.175818 
L 208.540589 202.096545 
L 209.241097 202.096545 
L 209.591352 202.576727 
L 209.941606 202.576727 
L 210.642114 203.537091 
L 211.342623 205.457818 
L 211.692877 205.938 
L 212.393385 209.299273 
L 212.74364 209.779455 
L 223.951775 209.779455 
L 224.302029 210.259636 
L 227.454317 210.259636 
L 227.804571 210.739818 
L 228.154826 211.700182 
L 228.50508 212.180364 
L 228.855334 215.541636 
L 229.205588 216.021818 
L 229.555843 216.982182 
L 229.906097 217.462364 
L 230.606605 219.383091 
L 230.956859 220.823636 
L 231.307114 221.303818 
L 231.657368 222.264182 
L 232.007622 222.744364 
L 232.357876 223.704727 
L 232.708131 224.184909 
L 233.058385 225.625455 
L 233.408639 226.105636 
L 233.758893 227.546182 
L 235.15991 231.387636 
L 235.510164 232.828182 
L 236.560927 235.709273 
L 237.61169 240.030909 
L 237.961944 240.511091 
L 238.662452 243.872364 
L 239.012707 244.352545 
L 239.362961 245.312909 
L 239.713215 246.753455 
L 240.063469 247.233636 
L 240.413724 248.194 
L 241.114232 249.154364 
L 242.164995 252.035455 
L 242.515249 252.515636 
L 243.215757 255.876909 
L 243.566012 256.357091 
L 243.916266 257.317455 
L 244.26652 258.758 
L 244.616774 259.238182 
L 251.271605 259.238182 
L 251.621859 258.758 
L 251.972113 259.238182 
L 281.043214 259.238182 
L 281.393468 258.758 
L 281.743722 259.238182 
L 290.149824 259.238182 
L 290.500078 258.758 
L 290.850332 259.238182 
L 298.555925 259.238182 
L 298.90618 258.277818 
L 299.256434 259.238182 
L 309.063552 259.238182 
L 309.413806 258.277818 
L 310.814823 252.515636 
L 311.165078 251.555273 
L 311.865586 248.674182 
L 312.916349 247.233636 
L 313.266603 246.273273 
L 313.616857 245.793091 
L 314.317366 243.872364 
L 314.66762 241.951636 
L 315.368128 240.030909 
L 316.068637 237.149818 
L 316.418891 235.229091 
L 316.769145 234.268727 
L 317.119399 232.828182 
L 318.870671 223.704727 
L 319.220925 222.264182 
L 320.271687 216.982182 
L 320.972196 215.061455 
L 321.32245 212.180364 
L 321.672704 210.259636 
L 322.022959 209.779455 
L 322.723467 209.779455 
L 323.073721 209.299273 
L 323.423976 209.779455 
L 329.028043 209.779455 
L 329.378297 209.299273 
L 329.728552 209.779455 
L 332.530585 209.779455 
L 333.231094 205.938 
L 333.581348 204.977636 
L 333.931602 203.537091 
L 334.281857 203.537091 
L 334.632111 202.096545 
L 334.982365 201.136182 
L 335.332619 199.695636 
L 336.383382 196.814545 
L 336.733636 196.814545 
L 337.08389 195.854182 
L 337.434145 194.413636 
L 337.784399 193.453273 
L 338.134653 192.012727 
L 340.586433 185.290182 
L 340.936687 183.849636 
L 341.637195 181.928909 
L 341.98745 181.448727 
L 342.337704 180.008182 
L 342.687958 179.528 
L 343.038212 176.646909 
L 343.738721 174.726182 
L 344.439229 173.765818 
L 344.789483 172.325273 
L 345.489992 165.602727 
L 345.840246 164.162182 
L 346.1905 163.682 
L 347.591517 163.682 
L 347.941771 164.162182 
L 348.292026 163.682 
L 351.444314 163.682 
L 351.794568 163.201818 
L 352.144822 163.682 
L 352.495076 163.201818 
L 352.845331 163.682 
L 353.195585 163.682 
L 353.545839 163.201818 
L 353.896093 163.201818 
L 354.246348 163.682 
L 354.596602 163.682 
L 354.946856 164.162182 
L 355.29711 163.201818 
L 355.647364 163.201818 
L 355.997619 163.682 
L 356.347873 163.201818 
L 356.698127 163.682 
L 357.048381 163.682 
L 357.398636 163.201818 
L 358.799652 163.201818 
L 359.149907 163.682 
L 368.256517 163.682 
L 368.606771 164.162182 
L 368.957025 163.201818 
L 369.307279 163.682 
L 373.160076 163.682 
L 373.51033 163.201818 
L 373.860584 163.682 
L 374.210838 163.201818 
L 374.561093 163.201818 
L 374.911347 163.682 
L 375.261601 163.201818 
L 375.611855 163.201818 
L 375.96211 163.682 
L 376.662618 163.682 
L 377.012872 163.201818 
L 377.363127 163.201818 
L 377.713381 163.682 
L 378.413889 163.682 
L 378.764143 163.201818 
L 379.114398 163.682 
L 379.464652 163.682 
L 379.814906 163.201818 
L 380.16516 163.682 
L 382.266686 163.682 
L 382.61694 163.201818 
L 382.967194 163.682 
L 383.317448 165.602727 
L 383.667703 163.201818 
L 384.017957 163.682 
L 384.368211 163.682 
L 384.718465 163.201818 
L 385.06872 163.682 
L 387.520499 163.682 
L 387.870753 164.162182 
L 388.221008 163.682 
L 388.571262 163.682 
L 388.921516 164.162182 
L 389.27177 163.682 
L 390.672787 163.682 
L 391.023041 163.201818 
L 391.373296 163.201818 
L 391.72355 163.682 
L 398.728634 163.682 
L 399.078889 163.201818 
L 399.429143 164.162182 
L 399.779397 168.003636 
L 400.129651 173.285636 
L 400.479906 174.726182 
L 400.83016 177.127091 
L 401.180414 180.968545 
L 401.530668 182.889273 
L 402.231177 188.171273 
L 403.632194 195.374 
L 404.332702 198.255091 
L 404.682956 199.215455 
L 405.383465 204.977636 
L 406.083973 209.779455 
L 417.642363 209.779455 
L 417.992617 209.299273 
L 418.342871 209.779455 
L 436.205837 209.779455 
L 436.556091 209.299273 
L 436.906345 209.779455 
L 462.12465 209.779455 
L 462.474904 210.259636 
L 462.825158 209.779455 
L 463.875921 209.779455 
L 464.226175 210.259636 
L 464.576429 209.779455 
L 485.241429 209.779455 
L 485.241429 209.779455 
" clip-path="url(#p0cca56384a)" style="fill: none; stroke: #1f77b4; stroke-width: 1.5; stroke-linecap: square"/>
   </g>
   <g id="line2d_28">
    <path d="M 56.18 211.22 
L 485.241429 211.22 
" clip-path="url(#p0cca56384a)" style="fill: none; stroke-dasharray: 2.96,1.28; stroke-dashoffset: 0; stroke: #808080; stroke-width: 0.8"/>
   </g>
   <g id="patch_6">
    <path d="M 56.18 264.04 
L 56.18 158.4 
" style="fill: none; stroke: #000000; stroke-width: 0.8; stroke-linejoin: miter; stroke-linecap: square"/>
   </g>
   <g id="patch_7">
    <path d="M 56.18 264.04 
L 485.241429 264.04 
" style="fill: none; stroke: #000000; stroke-width: 0.8; stroke-linejoin: miter; stroke-linecap: square"/>
   </g>
  </g>
 </g>
 <defs>
  <clipPath id="p312d339f0e">
   <rect x="56.18" y="10.8" width="429.061429" height="105.64"/>
  </clipPath>
  <clipPath id="p0cca56384a">
   <rect x="56.18" y="158.4" width="429.061429" height="105.64"/>
  </clipPath>
 </defs>
</svg>
