<?xml version="1.0" encoding="utf-8" standalone="no"?>
<!DOCTYPE svg PUBLIC "-//W3C//DTD SVG 1.1//EN"
  "http://www.w3.org/Graphics/SVG/1.1/DTD/svg11.dtd">
<svg xmlns:xlink="http://www.w3.org/1999/xlink" width="504pt" height="306pt" viewBox="0 0 504 306" xmlns="http://www.w3.org/2000/svg" version="1.1">
 <metadata>
  <rdf:RDF xmlns:dc="http://purl.org/dc/elements/1.1/" xmlns:cc="http://creativecommons.org/ns#" xmlns:rdf="http://www.w3.org/1999/02/22-rdf-syntax-ns#">
   <cc:Work>
    <dc:type rdf:resource="http://purl.org/dc/dcmitype/StillImage"/>
    <dc:date>2024-06-16T22:16:47.410265</dc:date>
    <dc:format>image/svg+xml</dc:format>
    <dc:creator>
     <cc:Agent>
      <dc:title>Matplotlib v3.8.3, https://matplotlib.org/</dc:title>
     </cc:Agent>
    </dc:creator>
   </cc:Work>
  </rdf:RDF>
 </metadata>
 <defs>
  <style type="text/css">*{stroke-linejoin: round; stroke-linecap: butt}</style>
 </defs>
 <g id="figure_1">
  <g id="patch_1">
   <path d="M 0 306 
L 504 306 
L 504 0 
L 0 0 
z
" style="fill: #ffffff"/>
  </g>
  <g id="axes_1">
   <g id="patch_2">
    <path d="M 56.18 116.44 
L 493.2 116.44 
L 493.2 10.8 
L 56.18 10.8 
z
" style="fill: #ffffff"/>
   </g>
   <g id="matplotlib.axis_1">
    <g id="xtick_1">
     <g id="line2d_1">
      <defs>
       <path id="me333a8360a" d="M 0 0 
L 0 3.5 
" style="stroke: #000000; stroke-width: 0.8"/>
      </defs>
      <g>
       <use xlink:href="#me333a8360a" x="56.18" y="116.44" style="stroke: #000000; stroke-width: 0.8"/>
      </g>
     </g>
     <g id="text_1">
      <!-- 0 -->
      <g transform="translate(52.99875 131.038437) scale(0.1 -0.1)">
       <defs>
        <path id="DejaVuSans-30" d="M 2034 4250 
Q 1547 4250 1301 3770 
Q 1056 3291 1056 2328 
Q 1056 1369 1301 889 
Q 1547 409 2034 409 
Q 2525 409 2770 889 
Q 3016 1369 3016 2328 
Q 3016 3291 2770 3770 
Q 2525 4250 2034 4250 
z
M 2034 4750 
Q 2819 4750 3233 4129 
Q 3647 3509 3647 2328 
Q 3647 1150 3233 529 
Q 2819 -91 2034 -91 
Q 1250 -91 836 529 
Q 422 1150 422 2328 
Q 422 3509 836 4129 
Q 1250 4750 2034 4750 
z
" transform="scale(0.015625)"/>
       </defs>
       <use xlink:href="#DejaVuSans-30"/>
      </g>
     </g>
    </g>
    <g id="xtick_2">
     <g id="line2d_2">
      <g>
       <use xlink:href="#me333a8360a" x="139.421905" y="116.44" style="stroke: #000000; stroke-width: 0.8"/>
      </g>
     </g>
     <g id="text_2">
      <!-- 5000 -->
      <g transform="translate(126.696905 131.038437) scale(0.1 -0.1)">
       <defs>
        <path id="DejaVuSans-35" d="M 691 4666 
L 3169 4666 
L 3169 4134 
L 1269 4134 
L 1269 2991 
Q 1406 3038 1543 3061 
Q 1681 3084 1819 3084 
Q 2600 3084 3056 2656 
Q 3513 2228 3513 1497 
Q 3513 744 3044 326 
Q 2575 -91 1722 -91 
Q 1428 -91 1123 -41 
Q 819 9 494 109 
L 494 744 
Q 775 591 1075 516 
Q 1375 441 1709 441 
Q 2250 441 2565 725 
Q 2881 1009 2881 1497 
Q 2881 1984 2565 2268 
Q 2250 2553 1709 2553 
Q 1456 2553 1204 2497 
Q 953 2441 691 2322 
L 691 4666 
z
" transform="scale(0.015625)"/>
       </defs>
       <use xlink:href="#DejaVuSans-35"/>
       <use xlink:href="#DejaVuSans-30" x="63.623047"/>
       <use xlink:href="#DejaVuSans-30" x="127.246094"/>
       <use xlink:href="#DejaVuSans-30" x="190.869141"/>
      </g>
     </g>
    </g>
    <g id="xtick_3">
     <g id="line2d_3">
      <g>
       <use xlink:href="#me333a8360a" x="222.66381" y="116.44" style="stroke: #000000; stroke-width: 0.8"/>
      </g>
     </g>
     <g id="text_3">
      <!-- 10000 -->
      <g transform="translate(206.75756 131.038437) scale(0.1 -0.1)">
       <defs>
        <path id="DejaVuSans-31" d="M 794 531 
L 1825 531 
L 1825 4091 
L 703 3866 
L 703 4441 
L 1819 4666 
L 2450 4666 
L 2450 531 
L 3481 531 
L 3481 0 
L 794 0 
L 794 531 
z
" transform="scale(0.015625)"/>
       </defs>
       <use xlink:href="#DejaVuSans-31"/>
       <use xlink:href="#DejaVuSans-30" x="63.623047"/>
       <use xlink:href="#DejaVuSans-30" x="127.246094"/>
       <use xlink:href="#DejaVuSans-30" x="190.869141"/>
       <use xlink:href="#DejaVuSans-30" x="254.492188"/>
      </g>
     </g>
    </g>
    <g id="xtick_4">
     <g id="line2d_4">
      <g>
       <use xlink:href="#me333a8360a" x="305.905714" y="116.44" style="stroke: #000000; stroke-width: 0.8"/>
      </g>
     </g>
     <g id="text_4">
      <!-- 15000 -->
      <g transform="translate(289.999464 131.038437) scale(0.1 -0.1)">
       <use xlink:href="#DejaVuSans-31"/>
       <use xlink:href="#DejaVuSans-35" x="63.623047"/>
       <use xlink:href="#DejaVuSans-30" x="127.246094"/>
       <use xlink:href="#DejaVuSans-30" x="190.869141"/>
       <use xlink:href="#DejaVuSans-30" x="254.492188"/>
      </g>
     </g>
    </g>
    <g id="xtick_5">
     <g id="line2d_5">
      <g>
       <use xlink:href="#me333a8360a" x="389.147619" y="116.44" style="stroke: #000000; stroke-width: 0.8"/>
      </g>
     </g>
     <g id="text_5">
      <!-- 20000 -->
      <g transform="translate(373.241369 131.038437) scale(0.1 -0.1)">
       <defs>
        <path id="DejaVuSans-32" d="M 1228 531 
L 3431 531 
L 3431 0 
L 469 0 
L 469 531 
Q 828 903 1448 1529 
Q 2069 2156 2228 2338 
Q 2531 2678 2651 2914 
Q 2772 3150 2772 3378 
Q 2772 3750 2511 3984 
Q 2250 4219 1831 4219 
Q 1534 4219 1204 4116 
Q 875 4013 500 3803 
L 500 4441 
Q 881 4594 1212 4672 
Q 1544 4750 1819 4750 
Q 2544 4750 2975 4387 
Q 3406 4025 3406 3419 
Q 3406 3131 3298 2873 
Q 3191 2616 2906 2266 
Q 2828 2175 2409 1742 
Q 1991 1309 1228 531 
z
" transform="scale(0.015625)"/>
       </defs>
       <use xlink:href="#DejaVuSans-32"/>
       <use xlink:href="#DejaVuSans-30" x="63.623047"/>
       <use xlink:href="#DejaVuSans-30" x="127.246094"/>
       <use xlink:href="#DejaVuSans-30" x="190.869141"/>
       <use xlink:href="#DejaVuSans-30" x="254.492188"/>
      </g>
     </g>
    </g>
    <g id="xtick_6">
     <g id="line2d_6">
      <g>
       <use xlink:href="#me333a8360a" x="472.389524" y="116.44" style="stroke: #000000; stroke-width: 0.8"/>
      </g>
     </g>
     <g id="text_6">
      <!-- 25000 -->
      <g transform="translate(456.483274 131.038437) scale(0.1 -0.1)">
       <use xlink:href="#DejaVuSans-32"/>
       <use xlink:href="#DejaVuSans-35" x="63.623047"/>
       <use xlink:href="#DejaVuSans-30" x="127.246094"/>
       <use xlink:href="#DejaVuSans-30" x="190.869141"/>
       <use xlink:href="#DejaVuSans-30" x="254.492188"/>
      </g>
     </g>
    </g>
    <g id="text_7">
     <!-- Time (ms) -->
     <g transform="translate(249.490781 144.716562) scale(0.1 -0.1)">
      <defs>
       <path id="DejaVuSans-54" d="M -19 4666 
L 3928 4666 
L 3928 4134 
L 2272 4134 
L 2272 0 
L 1638 0 
L 1638 4134 
L -19 4134 
L -19 4666 
z
" transform="scale(0.015625)"/>
       <path id="DejaVuSans-69" d="M 603 3500 
L 1178 3500 
L 1178 0 
L 603 0 
L 603 3500 
z
M 603 4863 
L 1178 4863 
L 1178 4134 
L 603 4134 
L 603 4863 
z
" transform="scale(0.015625)"/>
       <path id="DejaVuSans-6d" d="M 3328 2828 
Q 3544 3216 3844 3400 
Q 4144 3584 4550 3584 
Q 5097 3584 5394 3201 
Q 5691 2819 5691 2113 
L 5691 0 
L 5113 0 
L 5113 2094 
Q 5113 2597 4934 2840 
Q 4756 3084 4391 3084 
Q 3944 3084 3684 2787 
Q 3425 2491 3425 1978 
L 3425 0 
L 2847 0 
L 2847 2094 
Q 2847 2600 2669 2842 
Q 2491 3084 2119 3084 
Q 1678 3084 1418 2786 
Q 1159 2488 1159 1978 
L 1159 0 
L 581 0 
L 581 3500 
L 1159 3500 
L 1159 2956 
Q 1356 3278 1631 3431 
Q 1906 3584 2284 3584 
Q 2666 3584 2933 3390 
Q 3200 3197 3328 2828 
z
" transform="scale(0.015625)"/>
       <path id="DejaVuSans-65" d="M 3597 1894 
L 3597 1613 
L 953 1613 
Q 991 1019 1311 708 
Q 1631 397 2203 397 
Q 2534 397 2845 478 
Q 3156 559 3463 722 
L 3463 178 
Q 3153 47 2828 -22 
Q 2503 -91 2169 -91 
Q 1331 -91 842 396 
Q 353 884 353 1716 
Q 353 2575 817 3079 
Q 1281 3584 2069 3584 
Q 2775 3584 3186 3129 
Q 3597 2675 3597 1894 
z
M 3022 2063 
Q 3016 2534 2758 2815 
Q 2500 3097 2075 3097 
Q 1594 3097 1305 2825 
Q 1016 2553 972 2059 
L 3022 2063 
z
" transform="scale(0.015625)"/>
       <path id="DejaVuSans-20" transform="scale(0.015625)"/>
       <path id="DejaVuSans-28" d="M 1984 4856 
Q 1566 4138 1362 3434 
Q 1159 2731 1159 2009 
Q 1159 1288 1364 580 
Q 1569 -128 1984 -844 
L 1484 -844 
Q 1016 -109 783 600 
Q 550 1309 550 2009 
Q 550 2706 781 3412 
Q 1013 4119 1484 4856 
L 1984 4856 
z
" transform="scale(0.015625)"/>
       <path id="DejaVuSans-73" d="M 2834 3397 
L 2834 2853 
Q 2591 2978 2328 3040 
Q 2066 3103 1784 3103 
Q 1356 3103 1142 2972 
Q 928 2841 928 2578 
Q 928 2378 1081 2264 
Q 1234 2150 1697 2047 
L 1894 2003 
Q 2506 1872 2764 1633 
Q 3022 1394 3022 966 
Q 3022 478 2636 193 
Q 2250 -91 1575 -91 
Q 1294 -91 989 -36 
Q 684 19 347 128 
L 347 722 
Q 666 556 975 473 
Q 1284 391 1588 391 
Q 1994 391 2212 530 
Q 2431 669 2431 922 
Q 2431 1156 2273 1281 
Q 2116 1406 1581 1522 
L 1381 1569 
Q 847 1681 609 1914 
Q 372 2147 372 2553 
Q 372 3047 722 3315 
Q 1072 3584 1716 3584 
Q 2034 3584 2315 3537 
Q 2597 3491 2834 3397 
z
" transform="scale(0.015625)"/>
       <path id="DejaVuSans-29" d="M 513 4856 
L 1013 4856 
Q 1481 4119 1714 3412 
Q 1947 2706 1947 2009 
Q 1947 1309 1714 600 
Q 1481 -109 1013 -844 
L 513 -844 
Q 928 -128 1133 580 
Q 1338 1288 1338 2009 
Q 1338 2731 1133 3434 
Q 928 4138 513 4856 
z
" transform="scale(0.015625)"/>
      </defs>
      <use xlink:href="#DejaVuSans-54"/>
      <use xlink:href="#DejaVuSans-69" x="57.958984"/>
      <use xlink:href="#DejaVuSans-6d" x="85.742188"/>
      <use xlink:href="#DejaVuSans-65" x="183.154297"/>
      <use xlink:href="#DejaVuSans-20" x="244.677734"/>
      <use xlink:href="#DejaVuSans-28" x="276.464844"/>
      <use xlink:href="#DejaVuSans-6d" x="315.478516"/>
      <use xlink:href="#DejaVuSans-73" x="412.890625"/>
      <use xlink:href="#DejaVuSans-29" x="464.990234"/>
     </g>
    </g>
   </g>
   <g id="matplotlib.axis_2">
    <g id="ytick_1">
     <g id="line2d_7">
      <defs>
       <path id="mc34078c1ac" d="M 0 0 
L -3.5 0 
" style="stroke: #000000; stroke-width: 0.8"/>
      </defs>
      <g>
       <use xlink:href="#mc34078c1ac" x="56.18" y="111.638182" style="stroke: #000000; stroke-width: 0.8"/>
      </g>
     </g>
     <g id="text_8">
      <!-- −1.0 -->
      <g transform="translate(24.897188 115.437401) scale(0.1 -0.1)">
       <defs>
        <path id="DejaVuSans-2212" d="M 678 2272 
L 4684 2272 
L 4684 1741 
L 678 1741 
L 678 2272 
z
" transform="scale(0.015625)"/>
        <path id="DejaVuSans-2e" d="M 684 794 
L 1344 794 
L 1344 0 
L 684 0 
L 684 794 
z
" transform="scale(0.015625)"/>
       </defs>
       <use xlink:href="#DejaVuSans-2212"/>
       <use xlink:href="#DejaVuSans-31" x="83.789062"/>
       <use xlink:href="#DejaVuSans-2e" x="147.412109"/>
       <use xlink:href="#DejaVuSans-30" x="179.199219"/>
      </g>
     </g>
    </g>
    <g id="ytick_2">
     <g id="line2d_8">
      <g>
       <use xlink:href="#mc34078c1ac" x="56.18" y="87.629091" style="stroke: #000000; stroke-width: 0.8"/>
      </g>
     </g>
     <g id="text_9">
      <!-- −0.5 -->
      <g transform="translate(24.897188 91.42831) scale(0.1 -0.1)">
       <use xlink:href="#DejaVuSans-2212"/>
       <use xlink:href="#DejaVuSans-30" x="83.789062"/>
       <use xlink:href="#DejaVuSans-2e" x="147.412109"/>
       <use xlink:href="#DejaVuSans-35" x="179.199219"/>
      </g>
     </g>
    </g>
    <g id="ytick_3">
     <g id="line2d_9">
      <g>
       <use xlink:href="#mc34078c1ac" x="56.18" y="63.62" style="stroke: #000000; stroke-width: 0.8"/>
      </g>
     </g>
     <g id="text_10">
      <!-- 0.0 -->
      <g transform="translate(33.276875 67.419219) scale(0.1 -0.1)">
       <use xlink:href="#DejaVuSans-30"/>
       <use xlink:href="#DejaVuSans-2e" x="63.623047"/>
       <use xlink:href="#DejaVuSans-30" x="95.410156"/>
      </g>
     </g>
    </g>
    <g id="ytick_4">
     <g id="line2d_10">
      <g>
       <use xlink:href="#mc34078c1ac" x="56.18" y="39.610909" style="stroke: #000000; stroke-width: 0.8"/>
      </g>
     </g>
     <g id="text_11">
      <!-- 0.5 -->
      <g transform="translate(33.276875 43.410128) scale(0.1 -0.1)">
       <use xlink:href="#DejaVuSans-30"/>
       <use xlink:href="#DejaVuSans-2e" x="63.623047"/>
       <use xlink:href="#DejaVuSans-35" x="95.410156"/>
      </g>
     </g>
    </g>
    <g id="ytick_5">
     <g id="line2d_11">
      <g>
       <use xlink:href="#mc34078c1ac" x="56.18" y="15.601818" style="stroke: #000000; stroke-width: 0.8"/>
      </g>
     </g>
     <g id="text_12">
      <!-- 1.0 -->
      <g transform="translate(33.276875 19.401037) scale(0.1 -0.1)">
       <use xlink:href="#DejaVuSans-31"/>
       <use xlink:href="#DejaVuSans-2e" x="63.623047"/>
       <use xlink:href="#DejaVuSans-30" x="95.410156"/>
      </g>
     </g>
    </g>
    <g id="text_13">
     <!-- X-Axis Value -->
     <g transform="translate(18.8175 94.180156) rotate(-90) scale(0.1 -0.1)">
      <defs>
       <path id="DejaVuSans-58" d="M 403 4666 
L 1081 4666 
L 2241 2931 
L 3406 4666 
L 4084 4666 
L 2584 2425 
L 4184 0 
L 3506 0 
L 2194 1984 
L 872 0 
L 191 0 
L 1856 2491 
L 403 4666 
z
" transform="scale(0.015625)"/>
       <path id="DejaVuSans-2d" d="M 313 2009 
L 1997 2009 
L 1997 1497 
L 313 1497 
L 313 2009 
z
" transform="scale(0.015625)"/>
       <path id="DejaVuSans-41" d="M 2188 4044 
L 1331 1722 
L 3047 1722 
L 2188 4044 
z
M 1831 4666 
L 2547 4666 
L 4325 0 
L 3669 0 
L 3244 1197 
L 1141 1197 
L 716 0 
L 50 0 
L 1831 4666 
z
" transform="scale(0.015625)"/>
       <path id="DejaVuSans-78" d="M 3513 3500 
L 2247 1797 
L 3578 0 
L 2900 0 
L 1881 1375 
L 863 0 
L 184 0 
L 1544 1831 
L 300 3500 
L 978 3500 
L 1906 2253 
L 2834 3500 
L 3513 3500 
z
" transform="scale(0.015625)"/>
       <path id="DejaVuSans-56" d="M 1831 0 
L 50 4666 
L 709 4666 
L 2188 738 
L 3669 4666 
L 4325 4666 
L 2547 0 
L 1831 0 
z
" transform="scale(0.015625)"/>
       <path id="DejaVuSans-61" d="M 2194 1759 
Q 1497 1759 1228 1600 
Q 959 1441 959 1056 
Q 959 750 1161 570 
Q 1363 391 1709 391 
Q 2188 391 2477 730 
Q 2766 1069 2766 1631 
L 2766 1759 
L 2194 1759 
z
M 3341 1997 
L 3341 0 
L 2766 0 
L 2766 531 
Q 2569 213 2275 61 
Q 1981 -91 1556 -91 
Q 1019 -91 701 211 
Q 384 513 384 1019 
Q 384 1609 779 1909 
Q 1175 2209 1959 2209 
L 2766 2209 
L 2766 2266 
Q 2766 2663 2505 2880 
Q 2244 3097 1772 3097 
Q 1472 3097 1187 3025 
Q 903 2953 641 2809 
L 641 3341 
Q 956 3463 1253 3523 
Q 1550 3584 1831 3584 
Q 2591 3584 2966 3190 
Q 3341 2797 3341 1997 
z
" transform="scale(0.015625)"/>
       <path id="DejaVuSans-6c" d="M 603 4863 
L 1178 4863 
L 1178 0 
L 603 0 
L 603 4863 
z
" transform="scale(0.015625)"/>
       <path id="DejaVuSans-75" d="M 544 1381 
L 544 3500 
L 1119 3500 
L 1119 1403 
Q 1119 906 1312 657 
Q 1506 409 1894 409 
Q 2359 409 2629 706 
Q 2900 1003 2900 1516 
L 2900 3500 
L 3475 3500 
L 3475 0 
L 2900 0 
L 2900 538 
Q 2691 219 2414 64 
Q 2138 -91 1772 -91 
Q 1169 -91 856 284 
Q 544 659 544 1381 
z
M 1991 3584 
L 1991 3584 
z
" transform="scale(0.015625)"/>
      </defs>
      <use xlink:href="#DejaVuSans-58"/>
      <use xlink:href="#DejaVuSans-2d" x="63.505859"/>
      <use xlink:href="#DejaVuSans-41" x="97.339844"/>
      <use xlink:href="#DejaVuSans-78" x="165.748047"/>
      <use xlink:href="#DejaVuSans-69" x="224.927734"/>
      <use xlink:href="#DejaVuSans-73" x="252.710938"/>
      <use xlink:href="#DejaVuSans-20" x="304.810547"/>
      <use xlink:href="#DejaVuSans-56" x="336.597656"/>
      <use xlink:href="#DejaVuSans-61" x="397.255859"/>
      <use xlink:href="#DejaVuSans-6c" x="458.535156"/>
      <use xlink:href="#DejaVuSans-75" x="486.318359"/>
      <use xlink:href="#DejaVuSans-65" x="549.697266"/>
     </g>
    </g>
   </g>
   <g id="line2d_12">
    <path d="M 56.18 65.060545 
L 56.346484 64.580364 
L 57.345387 64.580364 
L 57.51187 65.060545 
L 57.678354 64.580364 
L 58.177806 64.580364 
L 58.34429 65.060545 
L 58.510773 65.060545 
L 58.677257 64.580364 
L 58.843741 65.060545 
L 59.010225 64.580364 
L 59.343192 64.580364 
L 59.509676 65.060545 
L 59.67616 64.580364 
L 60.175611 64.580364 
L 60.342095 65.060545 
L 60.508579 64.580364 
L 60.675063 65.060545 
L 60.841547 64.580364 
L 61.174514 64.580364 
L 61.340998 65.060545 
L 61.507482 65.060545 
L 61.673966 64.580364 
L 61.84045 64.580364 
L 62.006933 65.060545 
L 62.173417 64.580364 
L 62.339901 64.580364 
L 62.506385 65.060545 
L 62.672869 64.580364 
L 64.004739 64.580364 
L 64.171223 65.060545 
L 64.337707 64.580364 
L 64.670674 64.580364 
L 64.837158 65.060545 
L 65.003642 64.580364 
L 67.001448 64.580364 
L 67.167931 65.060545 
L 67.334415 64.580364 
L 67.500899 64.580364 
L 67.667383 65.060545 
L 68.00035 65.060545 
L 68.166834 64.580364 
L 68.666286 64.580364 
L 68.83277 65.060545 
L 69.165737 65.060545 
L 69.332221 64.580364 
L 70.331124 64.580364 
L 70.497608 65.060545 
L 70.664091 64.580364 
L 70.830575 64.580364 
L 70.997059 65.060545 
L 71.163543 64.580364 
L 71.330027 65.060545 
L 75.492122 65.060545 
L 75.658606 65.540727 
L 75.82509 65.060545 
L 76.990476 65.060545 
L 77.15696 65.540727 
L 77.489928 65.540727 
L 77.656411 66.020909 
L 78.155863 66.020909 
L 78.322347 66.501091 
L 80.65312 66.501091 
L 80.819604 66.981273 
L 80.986088 66.501091 
L 81.152571 66.981273 
L 81.319055 66.501091 
L 82.650926 66.501091 
L 82.81741 66.981273 
L 83.483345 66.981273 
L 83.649829 66.501091 
L 83.816312 66.981273 
L 84.315764 66.981273 
L 84.482248 66.501091 
L 85.148183 66.501091 
L 85.314667 66.981273 
L 85.48115 66.501091 
L 85.814118 66.501091 
L 85.980602 66.981273 
L 86.147086 66.501091 
L 86.31357 66.981273 
L 86.480053 66.501091 
L 86.813021 66.501091 
L 86.979505 66.981273 
L 87.145989 66.501091 
L 87.478956 66.501091 
L 87.64544 66.981273 
L 87.811924 66.501091 
L 88.477859 66.501091 
L 88.644343 66.981273 
L 89.143794 66.981273 
L 89.310278 66.501091 
L 89.643246 66.501091 
L 89.80973 66.981273 
L 89.976213 66.501091 
L 90.808632 66.501091 
L 90.975116 66.981273 
L 91.1416 66.981273 
L 91.308084 66.501091 
L 91.474568 66.501091 
L 91.641051 66.981273 
L 91.807535 66.501091 
L 91.974019 66.501091 
L 92.140503 66.981273 
L 92.306987 66.501091 
L 92.47347 66.981273 
L 92.639954 66.981273 
L 92.806438 66.501091 
L 93.139406 66.501091 
L 93.30589 66.981273 
L 93.472373 66.501091 
L 94.471276 66.501091 
L 94.63776 66.981273 
L 94.804244 66.501091 
L 94.970728 66.501091 
L 95.137211 66.981273 
L 95.303695 66.501091 
L 95.803147 66.501091 
L 95.96963 66.981273 
L 96.136114 66.501091 
L 96.302598 66.981273 
L 96.469082 66.981273 
L 96.635566 66.501091 
L 96.80205 66.981273 
L 96.968533 66.501091 
L 97.467985 66.501091 
L 97.634469 66.981273 
L 97.800952 66.501091 
L 97.967436 66.981273 
L 98.13392 66.501091 
L 98.300404 66.981273 
L 98.466888 66.501091 
L 99.965242 66.501091 
L 100.131726 66.981273 
L 100.29821 66.501091 
L 101.463596 66.501091 
L 101.63008 66.981273 
L 101.796564 66.501091 
L 101.963048 66.981273 
L 102.129531 66.501091 
L 102.462499 66.501091 
L 102.628983 66.981273 
L 102.795467 66.501091 
L 103.461402 66.501091 
L 103.627886 66.981273 
L 103.79437 66.501091 
L 104.959756 66.501091 
L 105.12624 66.981273 
L 105.459208 66.981273 
L 105.625691 66.501091 
L 108.6224 66.501091 
L 108.788884 66.981273 
L 108.955368 66.981273 
L 109.121851 67.461455 
L 110.120754 67.461455 
L 110.453722 66.501091 
L 114.449333 66.501091 
L 114.615817 66.020909 
L 114.782301 66.501091 
L 116.114171 66.501091 
L 116.280655 66.020909 
L 116.447139 66.501091 
L 118.444945 66.501091 
L 118.611429 66.020909 
L 118.777912 66.020909 
L 119.277364 64.580364 
L 119.443848 65.060545 
L 119.610331 64.580364 
L 120.276267 64.580364 
L 120.942202 62.659636 
L 122.440556 54.496545 
L 122.60704 54.016364 
L 123.272975 50.655091 
L 123.439459 50.174909 
L 124.271878 45.853273 
L 124.438362 45.373091 
L 126.269684 30.007273 
L 126.436168 30.007273 
L 126.602651 29.527091 
L 126.769135 30.007273 
L 127.43507 30.007273 
L 127.601554 29.527091 
L 127.768038 30.007273 
L 130.098811 30.007273 
L 130.265295 30.487455 
L 130.431779 30.487455 
L 130.598263 30.967636 
L 131.597166 30.967636 
L 131.76365 31.447818 
L 131.930133 30.967636 
L 132.096617 31.447818 
L 132.263101 30.967636 
L 133.262004 30.967636 
L 133.428488 31.447818 
L 133.594971 30.967636 
L 134.593874 30.967636 
L 134.760358 31.447818 
L 134.926842 30.967636 
L 135.426293 30.967636 
L 135.592777 31.447818 
L 135.759261 30.967636 
L 136.924648 30.967636 
L 137.091131 31.447818 
L 137.257615 30.967636 
L 141.41971 30.967636 
L 141.586194 31.447818 
L 141.752678 30.967636 
L 146.247741 30.967636 
L 146.414225 31.447818 
L 146.580709 30.967636 
L 149.577417 30.967636 
L 149.743901 31.447818 
L 149.910385 30.967636 
L 152.074674 30.967636 
L 152.241158 31.447818 
L 152.407642 30.967636 
L 154.07248 30.967636 
L 154.238964 31.447818 
L 154.405448 30.967636 
L 154.738415 30.967636 
L 154.904899 31.447818 
L 155.071383 30.967636 
L 156.23677 30.967636 
L 156.403253 31.447818 
L 156.569737 30.967636 
L 156.736221 31.447818 
L 156.902705 30.967636 
L 157.069189 31.447818 
L 158.90051 31.447818 
L 159.066994 31.928 
L 159.233478 33.368545 
L 160.898316 60.258727 
L 161.397768 64.100182 
L 162.563154 64.100182 
L 162.729638 64.580364 
L 172.88515 64.580364 
L 173.051634 64.100182 
L 173.384602 64.100182 
L 174.050537 62.179455 
L 175.04944 55.937091 
L 175.881859 47.293818 
L 176.38131 42.011818 
L 177.546697 25.685636 
L 178.046149 25.685636 
L 178.212632 25.205455 
L 178.379116 25.685636 
L 178.5456 25.205455 
L 186.86979 25.205455 
L 187.036274 25.685636 
L 187.202758 25.205455 
L 204.517074 25.205455 
L 204.683558 25.685636 
L 205.016526 25.685636 
L 205.18301 26.646 
L 205.349493 26.646 
L 205.848945 29.527091 
L 206.348396 36.249636 
L 207.014331 47.293818 
L 207.680267 65.540727 
L 208.845653 65.540727 
L 209.012137 66.020909 
L 220.49952 66.020909 
L 220.666004 65.540727 
L 220.832488 65.540727 
L 220.998971 65.060545 
L 221.165455 65.060545 
L 221.331939 64.580364 
L 221.997874 64.580364 
L 223.163261 57.377636 
L 224.162164 45.373091 
L 224.661615 36.249636 
L 225.161067 36.249636 
L 225.32755 35.769455 
L 226.492937 35.769455 
L 226.659421 35.289273 
L 257.791893 35.289273 
L 257.958377 36.249636 
L 258.624312 48.734364 
L 259.123764 53.536182 
L 259.623215 56.897455 
L 259.789699 56.897455 
L 261.12157 64.100182 
L 261.621021 64.100182 
L 261.787505 64.580364 
L 262.120472 64.580364 
L 262.286956 65.060545 
L 262.786408 65.060545 
L 262.952891 65.540727 
L 266.116084 65.540727 
L 266.282568 65.060545 
L 266.449051 65.540727 
L 274.939726 65.540727 
L 275.10621 65.060545 
L 319.224419 65.060545 
L 319.557387 66.020909 
L 320.056838 66.020909 
L 320.223322 66.501091 
L 320.389806 66.501091 
L 320.55629 66.981273 
L 320.722773 66.981273 
L 320.889257 67.461455 
L 321.555192 71.302909 
L 321.88816 75.144364 
L 322.554095 81.866909 
L 323.885966 100.113818 
L 324.884869 100.113818 
L 325.051352 100.594 
L 325.38432 100.594 
L 325.550804 100.113818 
L 325.883771 100.113818 
L 326.050255 100.594 
L 327.54861 100.594 
L 327.715093 100.113818 
L 327.881577 100.594 
L 328.381029 100.594 
L 328.547512 100.113818 
L 328.713996 100.594 
L 329.379931 100.594 
L 329.546415 100.113818 
L 329.712899 100.594 
L 329.879383 100.594 
L 330.045867 100.113818 
L 330.545318 100.113818 
L 330.711802 100.594 
L 331.377737 100.594 
L 331.544221 100.113818 
L 331.710705 100.113818 
L 331.877189 100.594 
L 333.209059 100.594 
L 333.375543 100.113818 
L 333.542027 100.594 
L 333.874994 100.594 
L 334.041478 100.113818 
L 334.207962 100.594 
L 334.374446 100.113818 
L 334.54093 100.594 
L 334.707413 100.594 
L 334.873897 100.113818 
L 335.040381 100.594 
L 335.373349 100.594 
L 335.539832 100.113818 
L 335.706316 100.594 
L 335.8728 100.594 
L 336.039284 100.113818 
L 336.205768 100.594 
L 336.705219 100.594 
L 336.871703 100.113818 
L 337.038187 100.113818 
L 337.20467 100.594 
L 337.371154 100.113818 
L 337.537638 100.594 
L 337.870606 100.594 
L 338.03709 100.113818 
L 338.203573 100.594 
L 338.370057 100.113818 
L 338.703025 100.113818 
L 338.869509 100.594 
L 339.535444 100.594 
L 339.701928 100.113818 
L 339.868411 100.594 
L 340.70083 100.594 
L 340.867314 100.113818 
L 341.033798 100.594 
L 341.200282 100.594 
L 341.366766 100.113818 
L 341.53325 100.594 
L 341.699733 100.113818 
L 341.866217 100.594 
L 342.365669 100.594 
L 342.532152 100.113818 
L 342.698636 100.594 
L 343.031604 100.594 
L 343.198088 100.113818 
L 343.364571 100.113818 
L 343.531055 100.594 
L 343.697539 100.594 
L 343.864023 100.113818 
L 344.030507 100.113818 
L 344.19699 100.594 
L 344.363474 100.113818 
L 344.529958 100.113818 
L 344.696442 100.594 
L 344.862926 100.113818 
L 345.02941 100.594 
L 345.362377 100.594 
L 345.528861 100.113818 
L 345.695345 100.594 
L 345.861829 100.113818 
L 346.028312 100.594 
L 346.36128 100.594 
L 346.527764 100.113818 
L 346.694248 100.594 
L 347.193699 100.594 
L 347.360183 100.113818 
L 347.526667 100.594 
L 347.859634 100.594 
L 348.026118 100.113818 
L 348.192602 100.113818 
L 348.359086 100.594 
L 348.692053 100.594 
L 348.858537 100.113818 
L 349.025021 100.594 
L 349.357989 100.594 
L 349.524472 100.113818 
L 349.690956 100.594 
L 350.689859 100.594 
L 350.856343 100.113818 
L 351.022827 100.594 
L 351.18931 100.113818 
L 351.355794 100.113818 
L 351.522278 100.594 
L 352.854149 100.594 
L 353.020632 100.113818 
L 353.187116 100.113818 
L 353.3536 100.594 
L 353.853051 100.594 
L 354.019535 100.113818 
L 354.186019 100.113818 
L 354.352503 100.594 
L 355.018438 100.594 
L 355.184922 100.113818 
L 355.51789 100.113818 
L 355.684373 100.594 
L 355.850857 100.594 
L 356.017341 100.113818 
L 356.183825 100.594 
L 356.683276 100.594 
L 356.84976 100.113818 
L 357.016244 100.594 
L 357.515695 100.594 
L 357.682179 100.113818 
L 358.015147 100.113818 
L 358.18163 99.633636 
L 358.681082 97.232727 
L 358.847566 96.752545 
L 360.512404 83.307455 
L 360.845371 80.906545 
L 361.178339 77.545273 
L 361.511307 75.144364 
L 362.343726 68.902 
L 362.843177 66.501091 
L 363.009661 66.501091 
L 363.176145 66.020909 
L 363.509112 66.020909 
L 363.675596 65.540727 
L 370.001981 65.540727 
L 370.168465 65.060545 
L 370.334949 65.540727 
L 371.333851 65.540727 
L 371.500335 65.060545 
L 371.666819 65.540727 
L 372.16627 65.540727 
L 372.332754 66.020909 
L 372.832206 66.020909 
L 372.99869 66.501091 
L 373.498141 66.501091 
L 373.664625 66.981273 
L 373.831109 66.981273 
L 373.997592 67.941636 
L 376.49485 97.712909 
L 376.994301 106.836364 
L 379.491558 106.836364 
L 379.658042 107.316545 
L 379.824526 106.836364 
L 379.99101 107.316545 
L 380.157493 107.316545 
L 380.323977 106.836364 
L 380.490461 107.316545 
L 380.656945 107.316545 
L 380.823429 106.836364 
L 380.989912 106.836364 
L 381.156396 107.316545 
L 381.32288 106.836364 
L 381.489364 107.316545 
L 381.655848 107.316545 
L 381.822331 106.836364 
L 382.155299 106.836364 
L 382.321783 107.316545 
L 383.154202 107.316545 
L 383.320686 106.836364 
L 383.48717 107.316545 
L 383.653653 106.836364 
L 384.153105 106.836364 
L 384.319589 107.316545 
L 384.486072 107.316545 
L 384.652556 106.836364 
L 385.152008 106.836364 
L 385.318491 107.316545 
L 385.484975 106.836364 
L 386.317394 106.836364 
L 386.483878 107.316545 
L 386.650362 106.836364 
L 386.816846 107.316545 
L 386.98333 107.316545 
L 387.149813 106.836364 
L 387.316297 106.836364 
L 387.482781 107.316545 
L 387.649265 106.836364 
L 388.3152 106.836364 
L 388.481684 107.316545 
L 388.648168 106.836364 
L 388.814651 106.836364 
L 388.981135 107.316545 
L 389.480587 107.316545 
L 389.64707 106.836364 
L 389.980038 106.836364 
L 390.146522 107.316545 
L 390.313006 107.316545 
L 390.47949 106.836364 
L 390.978941 106.836364 
L 391.145425 107.316545 
L 391.311909 107.316545 
L 391.478392 106.836364 
L 393.476198 106.836364 
L 393.642682 107.316545 
L 393.809166 106.836364 
L 393.97565 106.836364 
L 394.142133 107.316545 
L 394.308617 106.836364 
L 394.475101 106.836364 
L 394.641585 107.316545 
L 394.808069 106.836364 
L 394.974552 106.836364 
L 395.141036 107.316545 
L 395.30752 106.836364 
L 396.805874 106.836364 
L 396.972358 107.316545 
L 397.138842 106.836364 
L 398.470712 106.836364 
L 398.637196 107.316545 
L 398.80368 106.836364 
L 400.801486 106.836364 
L 400.96797 107.316545 
L 401.134453 106.836364 
L 401.800389 106.836364 
L 401.966872 107.316545 
L 402.133356 106.836364 
L 404.131162 106.836364 
L 404.297646 106.356182 
L 404.46413 106.836364 
L 404.630613 106.356182 
L 406.461935 106.356182 
L 406.628419 105.876 
L 407.12787 105.876 
L 407.294354 105.395818 
L 407.627322 105.395818 
L 407.793806 104.915636 
L 408.293257 101.554364 
L 408.792709 91.950727 
L 409.625128 78.985818 
L 410.790514 66.501091 
L 411.289966 66.501091 
L 411.45645 66.020909 
L 411.789417 66.020909 
L 411.955901 65.540727 
L 412.122385 65.540727 
L 412.288869 65.060545 
L 413.787223 65.060545 
L 413.953707 64.580364 
L 414.286674 64.580364 
L 414.453158 65.060545 
L 414.786126 65.060545 
L 414.95261 64.580364 
L 415.119093 65.060545 
L 415.285577 65.060545 
L 415.452061 64.580364 
L 415.618545 65.060545 
L 415.951512 65.060545 
L 416.117996 64.580364 
L 416.28448 65.060545 
L 416.450964 64.580364 
L 416.617448 64.580364 
L 416.783931 65.060545 
L 417.116899 65.060545 
L 417.283383 64.580364 
L 417.449867 64.580364 
L 417.61635 65.060545 
L 417.782834 64.580364 
L 417.949318 64.580364 
L 418.115802 65.060545 
L 418.282286 64.580364 
L 418.615253 64.580364 
L 418.781737 65.060545 
L 418.948221 64.580364 
L 419.78064 64.580364 
L 419.947124 65.060545 
L 420.113608 65.060545 
L 420.280091 64.580364 
L 420.446575 65.060545 
L 420.613059 64.580364 
L 421.278994 64.580364 
L 421.445478 65.060545 
L 422.610865 65.060545 
L 422.777349 65.540727 
L 422.943832 65.060545 
L 423.110316 65.540727 
L 423.443284 65.540727 
L 423.609768 66.020909 
L 424.109219 66.020909 
L 424.275703 66.501091 
L 424.60867 66.501091 
L 424.775154 66.981273 
L 425.607573 72.263273 
L 425.940541 75.144364 
L 426.77296 81.386727 
L 427.272411 84.748 
L 428.604282 96.752545 
L 428.770766 99.633636 
L 428.93725 100.113818 
L 464.231817 100.113818 
L 464.398301 99.633636 
L 466.396107 99.633636 
L 466.56259 99.153455 
L 467.062042 95.792182 
L 467.561493 87.148909 
L 468.227429 77.545273 
L 468.72688 74.184 
L 469.392815 69.382182 
L 470.05875 66.020909 
L 470.225234 65.540727 
L 470.391718 65.540727 
L 470.558202 65.060545 
L 471.723589 65.060545 
L 471.890072 64.580364 
L 473.721394 64.580364 
L 473.887878 65.060545 
L 474.054362 64.580364 
L 475.386232 64.580364 
L 475.552716 65.060545 
L 475.7192 65.060545 
L 475.885684 64.580364 
L 477.384038 64.580364 
L 477.550522 65.060545 
L 477.717006 64.580364 
L 482.045585 64.580364 
L 482.212069 65.060545 
L 482.378552 64.580364 
L 482.878004 64.580364 
L 483.044488 65.060545 
L 483.210971 64.580364 
L 483.876907 64.580364 
L 484.04339 65.060545 
L 484.209874 64.580364 
L 484.709326 64.580364 
L 484.87581 65.060545 
L 485.042293 64.580364 
L 485.708229 64.580364 
L 485.874712 65.060545 
L 486.041196 65.060545 
L 486.20768 64.580364 
L 486.374164 65.060545 
L 486.540648 64.580364 
L 487.040099 64.580364 
L 487.206583 65.060545 
L 487.373067 64.580364 
L 488.205486 64.580364 
L 488.37197 65.060545 
L 488.538453 64.580364 
L 489.204389 64.580364 
L 489.370872 65.060545 
L 489.537356 64.580364 
L 489.70384 64.580364 
L 489.870324 65.060545 
L 490.036808 64.580364 
L 490.369775 64.580364 
L 490.536259 65.060545 
L 490.702743 64.580364 
L 490.869227 65.060545 
L 491.03571 64.580364 
L 491.202194 65.060545 
L 491.535162 65.060545 
L 491.701646 64.580364 
L 493.2 64.580364 
L 493.2 64.580364 
" clip-path="url(#pa6a5357ecf)" style="fill: none; stroke: #1f77b4; stroke-width: 1.5; stroke-linecap: square"/>
   </g>
   <g id="line2d_13">
    <path d="M 56.18 63.62 
L 493.2 63.62 
" clip-path="url(#pa6a5357ecf)" style="fill: none; stroke-dasharray: 2.96,1.28; stroke-dashoffset: 0; stroke: #808080; stroke-width: 0.8"/>
   </g>
   <g id="patch_3">
    <path d="M 56.18 116.44 
L 56.18 10.8 
" style="fill: none; stroke: #000000; stroke-width: 0.8; stroke-linejoin: miter; stroke-linecap: square"/>
   </g>
   <g id="patch_4">
    <path d="M 56.18 116.44 
L 493.2 116.44 
" style="fill: none; stroke: #000000; stroke-width: 0.8; stroke-linejoin: miter; stroke-linecap: square"/>
   </g>
  </g>
  <g id="axes_2">
   <g id="patch_5">
    <path d="M 56.18 264.04 
L 493.2 264.04 
L 493.2 158.4 
L 56.18 158.4 
z
" style="fill: #ffffff"/>
   </g>
   <g id="matplotlib.axis_3">
    <g id="xtick_7">
     <g id="line2d_14">
      <g>
       <use xlink:href="#me333a8360a" x="56.18" y="264.04" style="stroke: #000000; stroke-width: 0.8"/>
      </g>
     </g>
     <g id="text_14">
      <!-- 0 -->
      <g transform="translate(52.99875 278.638438) scale(0.1 -0.1)">
       <use xlink:href="#DejaVuSans-30"/>
      </g>
     </g>
    </g>
    <g id="xtick_8">
     <g id="line2d_15">
      <g>
       <use xlink:href="#me333a8360a" x="139.421905" y="264.04" style="stroke: #000000; stroke-width: 0.8"/>
      </g>
     </g>
     <g id="text_15">
      <!-- 5000 -->
      <g transform="translate(126.696905 278.638438) scale(0.1 -0.1)">
       <use xlink:href="#DejaVuSans-35"/>
       <use xlink:href="#DejaVuSans-30" x="63.623047"/>
       <use xlink:href="#DejaVuSans-30" x="127.246094"/>
       <use xlink:href="#DejaVuSans-30" x="190.869141"/>
      </g>
     </g>
    </g>
    <g id="xtick_9">
     <g id="line2d_16">
      <g>
       <use xlink:href="#me333a8360a" x="222.66381" y="264.04" style="stroke: #000000; stroke-width: 0.8"/>
      </g>
     </g>
     <g id="text_16">
      <!-- 10000 -->
      <g transform="translate(206.75756 278.638438) scale(0.1 -0.1)">
       <use xlink:href="#DejaVuSans-31"/>
       <use xlink:href="#DejaVuSans-30" x="63.623047"/>
       <use xlink:href="#DejaVuSans-30" x="127.246094"/>
       <use xlink:href="#DejaVuSans-30" x="190.869141"/>
       <use xlink:href="#DejaVuSans-30" x="254.492188"/>
      </g>
     </g>
    </g>
    <g id="xtick_10">
     <g id="line2d_17">
      <g>
       <use xlink:href="#me333a8360a" x="305.905714" y="264.04" style="stroke: #000000; stroke-width: 0.8"/>
      </g>
     </g>
     <g id="text_17">
      <!-- 15000 -->
      <g transform="translate(289.999464 278.638438) scale(0.1 -0.1)">
       <use xlink:href="#DejaVuSans-31"/>
       <use xlink:href="#DejaVuSans-35" x="63.623047"/>
       <use xlink:href="#DejaVuSans-30" x="127.246094"/>
       <use xlink:href="#DejaVuSans-30" x="190.869141"/>
       <use xlink:href="#DejaVuSans-30" x="254.492188"/>
      </g>
     </g>
    </g>
    <g id="xtick_11">
     <g id="line2d_18">
      <g>
       <use xlink:href="#me333a8360a" x="389.147619" y="264.04" style="stroke: #000000; stroke-width: 0.8"/>
      </g>
     </g>
     <g id="text_18">
      <!-- 20000 -->
      <g transform="translate(373.241369 278.638438) scale(0.1 -0.1)">
       <use xlink:href="#DejaVuSans-32"/>
       <use xlink:href="#DejaVuSans-30" x="63.623047"/>
       <use xlink:href="#DejaVuSans-30" x="127.246094"/>
       <use xlink:href="#DejaVuSans-30" x="190.869141"/>
       <use xlink:href="#DejaVuSans-30" x="254.492188"/>
      </g>
     </g>
    </g>
    <g id="xtick_12">
     <g id="line2d_19">
      <g>
       <use xlink:href="#me333a8360a" x="472.389524" y="264.04" style="stroke: #000000; stroke-width: 0.8"/>
      </g>
     </g>
     <g id="text_19">
      <!-- 25000 -->
      <g transform="translate(456.483274 278.638438) scale(0.1 -0.1)">
       <use xlink:href="#DejaVuSans-32"/>
       <use xlink:href="#DejaVuSans-35" x="63.623047"/>
       <use xlink:href="#DejaVuSans-30" x="127.246094"/>
       <use xlink:href="#DejaVuSans-30" x="190.869141"/>
       <use xlink:href="#DejaVuSans-30" x="254.492188"/>
      </g>
     </g>
    </g>
    <g id="text_20">
     <!-- Time (ms) -->
     <g transform="translate(249.490781 292.316563) scale(0.1 -0.1)">
      <use xlink:href="#DejaVuSans-54"/>
      <use xlink:href="#DejaVuSans-69" x="57.958984"/>
      <use xlink:href="#DejaVuSans-6d" x="85.742188"/>
      <use xlink:href="#DejaVuSans-65" x="183.154297"/>
      <use xlink:href="#DejaVuSans-20" x="244.677734"/>
      <use xlink:href="#DejaVuSans-28" x="276.464844"/>
      <use xlink:href="#DejaVuSans-6d" x="315.478516"/>
      <use xlink:href="#DejaVuSans-73" x="412.890625"/>
      <use xlink:href="#DejaVuSans-29" x="464.990234"/>
     </g>
    </g>
   </g>
   <g id="matplotlib.axis_4">
    <g id="ytick_6">
     <g id="line2d_20">
      <g>
       <use xlink:href="#mc34078c1ac" x="56.18" y="259.238182" style="stroke: #000000; stroke-width: 0.8"/>
      </g>
     </g>
     <g id="text_21">
      <!-- −1.0 -->
      <g transform="translate(24.897188 263.037401) scale(0.1 -0.1)">
       <use xlink:href="#DejaVuSans-2212"/>
       <use xlink:href="#DejaVuSans-31" x="83.789062"/>
       <use xlink:href="#DejaVuSans-2e" x="147.412109"/>
       <use xlink:href="#DejaVuSans-30" x="179.199219"/>
      </g>
     </g>
    </g>
    <g id="ytick_7">
     <g id="line2d_21">
      <g>
       <use xlink:href="#mc34078c1ac" x="56.18" y="235.229091" style="stroke: #000000; stroke-width: 0.8"/>
      </g>
     </g>
     <g id="text_22">
      <!-- −0.5 -->
      <g transform="translate(24.897188 239.02831) scale(0.1 -0.1)">
       <use xlink:href="#DejaVuSans-2212"/>
       <use xlink:href="#DejaVuSans-30" x="83.789062"/>
       <use xlink:href="#DejaVuSans-2e" x="147.412109"/>
       <use xlink:href="#DejaVuSans-35" x="179.199219"/>
      </g>
     </g>
    </g>
    <g id="ytick_8">
     <g id="line2d_22">
      <g>
       <use xlink:href="#mc34078c1ac" x="56.18" y="211.22" style="stroke: #000000; stroke-width: 0.8"/>
      </g>
     </g>
     <g id="text_23">
      <!-- 0.0 -->
      <g transform="translate(33.276875 215.019219) scale(0.1 -0.1)">
       <use xlink:href="#DejaVuSans-30"/>
       <use xlink:href="#DejaVuSans-2e" x="63.623047"/>
       <use xlink:href="#DejaVuSans-30" x="95.410156"/>
      </g>
     </g>
    </g>
    <g id="ytick_9">
     <g id="line2d_23">
      <g>
       <use xlink:href="#mc34078c1ac" x="56.18" y="187.210909" style="stroke: #000000; stroke-width: 0.8"/>
      </g>
     </g>
     <g id="text_24">
      <!-- 0.5 -->
      <g transform="translate(33.276875 191.010128) scale(0.1 -0.1)">
       <use xlink:href="#DejaVuSans-30"/>
       <use xlink:href="#DejaVuSans-2e" x="63.623047"/>
       <use xlink:href="#DejaVuSans-35" x="95.410156"/>
      </g>
     </g>
    </g>
    <g id="ytick_10">
     <g id="line2d_24">
      <g>
       <use xlink:href="#mc34078c1ac" x="56.18" y="163.201818" style="stroke: #000000; stroke-width: 0.8"/>
      </g>
     </g>
     <g id="text_25">
      <!-- 1.0 -->
      <g transform="translate(33.276875 167.001037) scale(0.1 -0.1)">
       <use xlink:href="#DejaVuSans-31"/>
       <use xlink:href="#DejaVuSans-2e" x="63.623047"/>
       <use xlink:href="#DejaVuSans-30" x="95.410156"/>
      </g>
     </g>
    </g>
    <g id="text_26">
     <!-- Y-Axis Value -->
     <g transform="translate(18.8175 241.065313) rotate(-90) scale(0.1 -0.1)">
      <defs>
       <path id="DejaVuSans-59" d="M -13 4666 
L 666 4666 
L 1959 2747 
L 3244 4666 
L 3922 4666 
L 2272 2222 
L 2272 0 
L 1638 0 
L 1638 2222 
L -13 4666 
z
" transform="scale(0.015625)"/>
      </defs>
      <use xlink:href="#DejaVuSans-59"/>
      <use xlink:href="#DejaVuSans-2d" x="49.208984"/>
      <use xlink:href="#DejaVuSans-41" x="83.042969"/>
      <use xlink:href="#DejaVuSans-78" x="151.451172"/>
      <use xlink:href="#DejaVuSans-69" x="210.630859"/>
      <use xlink:href="#DejaVuSans-73" x="238.414062"/>
      <use xlink:href="#DejaVuSans-20" x="290.513672"/>
      <use xlink:href="#DejaVuSans-56" x="322.300781"/>
      <use xlink:href="#DejaVuSans-61" x="382.958984"/>
      <use xlink:href="#DejaVuSans-6c" x="444.238281"/>
      <use xlink:href="#DejaVuSans-75" x="472.021484"/>
      <use xlink:href="#DejaVuSans-65" x="535.400391"/>
     </g>
    </g>
   </g>
   <g id="line2d_25">
    <path d="M 56.18 210.259636 
L 72.495413 210.259636 
L 72.661897 209.779455 
L 74.493219 209.779455 
L 74.659703 209.299273 
L 74.99267 209.299273 
L 75.325638 208.338909 
L 75.492122 208.338909 
L 75.658606 207.858727 
L 75.82509 207.858727 
L 75.991573 207.378545 
L 76.491025 204.017273 
L 76.823992 201.136182 
L 78.655314 184.329818 
L 79.654217 172.325273 
L 79.820701 168.483818 
L 81.98499 168.483818 
L 82.151474 168.003636 
L 82.317958 168.483818 
L 82.484442 168.483818 
L 82.650926 168.003636 
L 82.81741 168.483818 
L 83.150377 168.483818 
L 83.316861 168.003636 
L 83.483345 168.483818 
L 83.816312 168.483818 
L 83.982796 168.003636 
L 84.14928 168.483818 
L 84.315764 168.003636 
L 84.648731 168.003636 
L 84.815215 168.483818 
L 84.981699 168.483818 
L 85.148183 168.003636 
L 85.314667 168.003636 
L 85.48115 168.483818 
L 85.647634 168.003636 
L 85.980602 168.003636 
L 86.147086 168.483818 
L 86.31357 168.003636 
L 89.643246 168.003636 
L 89.80973 168.483818 
L 89.976213 168.003636 
L 93.139406 168.003636 
L 93.30589 168.483818 
L 93.472373 168.003636 
L 106.791078 168.003636 
L 107.124046 168.964 
L 107.29053 170.404545 
L 108.955368 197.774909 
L 110.120754 206.898364 
L 110.620206 208.338909 
L 110.78669 208.338909 
L 110.953173 208.819091 
L 112.950979 208.819091 
L 113.117463 209.299273 
L 113.45043 209.299273 
L 113.616914 208.819091 
L 113.783398 209.299273 
L 120.942202 209.299273 
L 121.27517 207.378545 
L 121.441653 207.378545 
L 121.774621 206.418182 
L 122.107589 204.977636 
L 122.274072 204.497455 
L 122.440556 204.497455 
L 122.940008 202.096545 
L 123.272975 201.136182 
L 123.439459 201.616364 
L 123.605943 200.175818 
L 123.772427 200.175818 
L 124.105394 199.215455 
L 125.770232 189.611818 
L 126.1032 186.250545 
L 126.269684 186.250545 
L 126.436168 185.770364 
L 126.602651 185.770364 
L 126.769135 185.290182 
L 126.935619 185.290182 
L 127.102103 184.81 
L 128.433973 184.81 
L 128.600457 184.329818 
L 129.59936 184.329818 
L 129.765844 183.849636 
L 130.098811 183.849636 
L 130.598263 182.409091 
L 130.764747 182.409091 
L 130.93123 181.928909 
L 131.264198 181.928909 
L 131.430682 181.448727 
L 133.927939 181.448727 
L 134.094423 180.968545 
L 134.260907 181.448727 
L 137.257615 181.448727 
L 137.424099 180.968545 
L 137.590583 181.448727 
L 141.919162 181.448727 
L 142.085646 180.968545 
L 142.25213 181.448727 
L 148.41203 181.448727 
L 148.578514 180.968545 
L 148.744998 181.448727 
L 151.575223 181.448727 
L 151.741707 180.968545 
L 151.90819 181.448727 
L 153.573029 181.448727 
L 153.739512 180.968545 
L 153.905996 181.448727 
L 154.238964 181.448727 
L 154.405448 180.968545 
L 154.571931 181.448727 
L 155.40435 181.448727 
L 155.570834 180.968545 
L 155.737318 181.448727 
L 155.903802 181.448727 
L 156.070286 180.968545 
L 156.23677 180.968545 
L 156.403253 181.448727 
L 157.235672 181.448727 
L 157.402156 180.968545 
L 157.56864 181.448727 
L 158.401059 181.448727 
L 158.567543 181.928909 
L 158.734027 181.928909 
L 159.066994 182.889273 
L 159.399962 185.290182 
L 159.899413 193.453273 
L 160.731832 204.497455 
L 161.397768 209.299273 
L 161.730735 209.299273 
L 161.897219 209.779455 
L 177.380213 209.779455 
L 177.713181 208.819091 
L 177.879665 208.819091 
L 178.046149 208.338909 
L 207.347299 208.338909 
L 207.513783 208.819091 
L 210.676975 208.819091 
L 210.843459 209.299273 
L 211.009943 208.819091 
L 212.508297 208.819091 
L 212.674781 209.299273 
L 220.000069 209.299273 
L 220.333036 210.259636 
L 220.666004 210.259636 
L 220.832488 210.739818 
L 221.331939 210.739818 
L 221.498423 211.22 
L 221.83139 211.22 
L 221.997874 211.700182 
L 222.164358 211.700182 
L 222.330842 212.180364 
L 223.662712 224.665091 
L 223.99568 228.986727 
L 224.828099 241.951636 
L 245.305608 241.951636 
L 245.472091 242.431818 
L 245.638575 241.951636 
L 256.79299 241.951636 
L 256.959474 241.471455 
L 257.125958 241.471455 
L 257.292442 240.991273 
L 257.458926 240.991273 
L 257.62541 240.511091 
L 257.958377 238.110182 
L 258.790796 222.744364 
L 259.290248 217.942545 
L 259.456731 217.462364 
L 259.789699 216.021818 
L 259.956183 216.021818 
L 260.122667 215.061455 
L 260.28915 215.061455 
L 260.955086 211.700182 
L 261.288053 211.700182 
L 261.454537 211.22 
L 261.621021 211.22 
L 261.787505 210.739818 
L 261.953989 210.739818 
L 262.120472 210.259636 
L 264.950697 210.259636 
L 265.117181 209.779455 
L 265.283665 210.259636 
L 271.110598 210.259636 
L 271.277082 210.739818 
L 271.943017 210.739818 
L 272.109501 211.22 
L 272.275985 211.22 
L 272.442469 211.700182 
L 272.608952 211.700182 
L 272.775436 212.180364 
L 273.274888 216.982182 
L 273.607855 220.343455 
L 274.773242 247.233636 
L 274.939726 254.436364 
L 275.10621 256.357091 
L 305.572747 256.357091 
L 306.238682 252.995818 
L 306.405166 250.594909 
L 307.237585 231.387636 
L 308.070004 220.823636 
L 309.23539 211.700182 
L 309.734842 211.700182 
L 309.901326 211.22 
L 310.234293 211.22 
L 310.400777 210.739818 
L 310.567261 210.739818 
L 310.733745 210.259636 
L 320.55629 210.259636 
L 320.722773 210.739818 
L 320.889257 211.700182 
L 321.055741 211.700182 
L 321.222225 212.180364 
L 321.555192 214.101091 
L 322.554095 220.343455 
L 323.386514 230.427273 
L 323.719482 236.189455 
L 323.885966 236.669636 
L 325.38432 236.669636 
L 325.550804 237.149818 
L 326.71619 237.149818 
L 326.882674 236.669636 
L 327.049158 237.149818 
L 359.347017 237.149818 
L 359.513501 236.669636 
L 360.179436 231.867818 
L 361.011855 226.585818 
L 361.844274 220.343455 
L 363.176145 212.660545 
L 363.342629 212.660545 
L 363.509112 212.180364 
L 365.673402 212.180364 
L 365.839886 211.700182 
L 369.169562 211.700182 
L 369.336046 211.22 
L 370.334949 211.22 
L 370.501432 211.700182 
L 370.667916 211.22 
L 371.833303 211.22 
L 371.999787 211.700182 
L 372.16627 211.700182 
L 372.332754 211.22 
L 372.499238 211.22 
L 372.665722 211.700182 
L 372.832206 211.22 
L 373.165173 211.22 
L 373.331657 211.700182 
L 373.498141 211.22 
L 379.491558 211.22 
L 379.658042 210.739818 
L 379.99101 210.739818 
L 380.157493 210.259636 
L 385.484975 210.259636 
L 385.651459 210.739818 
L 385.817943 210.259636 
L 422.111413 210.259636 
L 422.277897 209.779455 
L 424.109219 209.779455 
L 424.275703 209.299273 
L 424.60867 209.299273 
L 424.941638 207.858727 
L 425.274606 206.898364 
L 426.439992 200.656 
L 426.77296 199.695636 
L 428.10483 191.532545 
L 428.93725 182.409091 
L 429.103733 182.409091 
L 429.270217 181.928909 
L 429.603185 181.928909 
L 429.769669 181.448727 
L 431.101539 181.448727 
L 431.268023 180.968545 
L 431.434507 181.448727 
L 431.60099 180.968545 
L 437.594408 180.968545 
L 437.760891 181.448727 
L 437.927375 180.968545 
L 441.423535 180.968545 
L 441.590019 181.448727 
L 441.756503 180.968545 
L 441.922987 181.448727 
L 442.08947 180.968545 
L 445.419147 180.968545 
L 445.58563 181.448727 
L 445.752114 180.968545 
L 465.064236 180.968545 
L 465.23072 181.448727 
L 465.397204 180.968545 
L 466.729074 180.968545 
L 466.895558 181.448727 
L 467.062042 181.448727 
L 468.060945 194.413636 
L 468.72688 199.215455 
L 469.559299 204.497455 
L 469.892267 207.378545 
L 470.225234 208.338909 
L 470.391718 208.338909 
L 470.724686 209.299273 
L 470.89117 209.299273 
L 471.057653 209.779455 
L 471.390621 209.779455 
L 471.557105 210.259636 
L 472.888975 210.259636 
L 473.055459 210.739818 
L 473.221943 210.259636 
L 489.537356 210.259636 
L 489.70384 209.779455 
L 489.870324 210.259636 
L 493.2 210.259636 
L 493.2 210.259636 
" clip-path="url(#pa388bec9c2)" style="fill: none; stroke: #1f77b4; stroke-width: 1.5; stroke-linecap: square"/>
   </g>
   <g id="line2d_26">
    <path d="M 56.18 211.22 
L 493.2 211.22 
" clip-path="url(#pa388bec9c2)" style="fill: none; stroke-dasharray: 2.96,1.28; stroke-dashoffset: 0; stroke: #808080; stroke-width: 0.8"/>
   </g>
   <g id="patch_6">
    <path d="M 56.18 264.04 
L 56.18 158.4 
" style="fill: none; stroke: #000000; stroke-width: 0.8; stroke-linejoin: miter; stroke-linecap: square"/>
   </g>
   <g id="patch_7">
    <path d="M 56.18 264.04 
L 493.2 264.04 
" style="fill: none; stroke: #000000; stroke-width: 0.8; stroke-linejoin: miter; stroke-linecap: square"/>
   </g>
  </g>
 </g>
 <defs>
  <clipPath id="pa6a5357ecf">
   <rect x="56.18" y="10.8" width="437.02" height="105.64"/>
  </clipPath>
  <clipPath id="pa388bec9c2">
   <rect x="56.18" y="158.4" width="437.02" height="105.64"/>
  </clipPath>
 </defs>
</svg>
